<svg width="247" height="243" viewBox="0 0 247 243" fill="none" xmlns="http://www.w3.org/2000/svg">
<path d="M241.007 168.518L94.9456 148.159C91.2786 147.691 88.5302 144.562 88.5302 140.857L86.5269 38.7453C86.5269 38.7453 89.8568 36.3401 91.7431 35.4181C92.7029 34.9486 93.8095 34.7436 94.9598 34.8906L240.586 53.5049C244.253 53.9731 247.002 57.1017 247.002 60.8068V161.1C247.002 162.894 246.183 164.477 244.917 165.52C243.751 166.481 241.007 168.519 241.007 168.519V168.518Z" fill="#CFCFD0"/>
<path d="M236.548 169.875L90.922 151.261C87.2549 150.792 84.5066 147.664 84.5066 143.959V43.6652C84.5066 40.2193 87.5251 37.5549 90.9361 37.9908L236.562 56.6052C240.23 57.0733 242.978 60.2019 242.978 63.907V164.201C242.978 167.646 239.959 170.311 236.548 169.875Z" fill="white"/>
<path d="M237.27 170.219C237.018 170.219 236.765 170.204 236.511 170.171L90.8848 151.557C87.0788 151.071 84.2095 147.804 84.2095 143.959V43.6652C84.2095 41.9371 84.9519 40.2902 86.2463 39.1489C87.5407 38.0063 89.2623 37.475 90.9748 37.6955L236.601 56.3099C240.406 56.796 243.276 60.0626 243.276 63.9083V164.202C243.276 165.93 242.534 167.577 241.24 168.719C240.137 169.693 238.723 170.22 237.27 170.22V170.219ZM236.587 169.58C238.127 169.777 239.68 169.3 240.846 168.271C242.012 167.241 242.681 165.758 242.681 164.201V63.907C242.681 60.3618 240.034 57.3493 236.525 56.9005L90.8976 38.2862C89.3575 38.0901 87.8045 38.566 86.6387 39.5951C85.473 40.6242 84.8039 42.1073 84.8039 43.6639V143.957C84.8039 147.503 87.4506 150.515 90.9594 150.964L236.586 169.578L236.587 169.58Z" fill="black"/>
<path d="M233.454 165.74L94.4026 147.967C91.7353 147.626 89.7371 145.351 89.7371 142.656V45.9142C89.7371 43.6123 91.7533 41.8339 94.0307 42.1241L233.082 59.8976C235.749 60.238 237.748 62.5129 237.748 65.2082V161.95C237.748 164.252 235.731 166.031 233.454 165.74Z" fill="white"/>
<path d="M233.935 166.069C233.763 166.069 233.589 166.059 233.415 166.036L94.3639 148.262C91.5564 147.904 89.4385 145.493 89.4385 142.656V45.9142C89.4385 44.7317 89.9467 43.6045 90.832 42.823C91.7185 42.0415 92.8996 41.6779 94.068 41.8287L233.121 59.6022C235.928 59.9608 238.046 62.3711 238.046 65.2082V161.95C238.046 163.133 237.538 164.26 236.653 165.041C235.899 165.707 234.931 166.069 233.936 166.069H233.935ZM93.5481 42.3923C92.6976 42.3923 91.8703 42.7018 91.2244 43.2718C90.4665 43.9398 90.0329 44.9032 90.0329 45.9155V142.657C90.0329 145.195 91.9269 147.35 94.4385 147.672L233.49 165.445C234.49 165.573 235.5 165.263 236.256 164.595C237.014 163.927 237.448 162.963 237.448 161.951V65.2082C237.448 62.6702 235.554 60.5153 233.042 60.1942L93.9933 42.4207C93.8454 42.4013 93.6974 42.3923 93.5494 42.3923H93.5481Z" fill="black"/>
<path d="M151.59 228.941L1.81834 209.581C0.646178 209.43 -0.0151757 208.447 0.000264432 207.463C0.0105579 206.785 0.0658851 202.007 0.0658851 202.007L79.2571 156.632C83.2253 154.361 88.3578 153.483 92.8908 154.065L240.771 173.185C241.662 173.3 242.425 173.879 242.777 174.707L243.015 175.265C243.015 175.265 242.888 179.25 242.94 180.181C242.979 180.909 242.653 181.661 241.892 182.097L164.689 226.339C160.721 228.61 156.123 229.525 151.59 228.943V228.941Z" fill="#CFCFD0"/>
<path d="M20.2397 206.616L2.35487 204.3C0.37338 204.046 -0.147725 201.412 1.58672 200.419L78.377 156.462C82.3452 154.191 86.9425 153.276 91.4754 153.858L240.711 173.18C242.692 173.434 243.214 176.068 241.479 177.061L164.689 221.019C160.721 223.29 156.123 224.204 151.59 223.622L20.2397 206.616Z" fill="white"/>
<path d="M154.228 224.089C153.335 224.089 152.441 224.032 151.552 223.919L2.31617 204.595C1.28554 204.462 0.487801 203.717 0.285792 202.694C0.0837834 201.672 0.536694 200.677 1.43994 200.16L78.2303 156.202C82.2293 153.913 86.9462 152.976 91.5139 153.561L240.751 172.884C241.781 173.016 242.579 173.762 242.782 174.784C242.984 175.807 242.532 176.801 241.628 177.319L164.838 221.276C161.617 223.121 157.93 224.088 154.231 224.088L154.228 224.089ZM20.2769 206.319L151.628 223.326C156.067 223.896 160.654 222.984 164.541 220.759L241.331 176.801C242.153 176.331 242.317 175.512 242.196 174.9C242.075 174.29 241.612 173.595 240.672 173.475L91.4355 154.153C86.9951 153.583 82.4107 154.495 78.5236 156.719L1.73459 200.679C0.912405 201.149 0.748997 201.968 0.869945 202.58C0.990892 203.19 1.4541 203.885 2.39337 204.005L20.2782 206.321L20.2769 206.319Z" fill="black"/>
<path d="M183.191 199.671C182.383 199.671 181.575 199.62 180.771 199.518L51.3646 182.641C50.4202 182.52 49.6906 181.836 49.5053 180.901C49.32 179.965 49.7344 179.054 50.5617 178.582L80.9904 161.34C84.6059 159.27 88.8726 158.423 93.0041 158.952L222.412 175.829C223.355 175.95 224.086 176.634 224.27 177.569C224.455 178.505 224.041 179.415 223.215 179.887L192.786 197.13C189.874 198.797 186.538 199.671 183.193 199.671H183.191ZM180.847 198.926C184.852 199.439 188.987 198.618 192.491 196.611L222.92 179.369C223.648 178.952 223.794 178.225 223.687 177.685C223.58 177.143 223.168 176.527 222.336 176.42L92.9282 159.542C88.924 159.028 84.7886 159.851 81.2837 161.857L50.8551 179.099C50.1268 179.516 49.9814 180.243 50.0882 180.784C50.195 181.325 50.6067 181.942 51.4392 182.049L180.847 198.926Z" fill="black"/>
<path d="M227.659 158.85L160.263 148.056L98.2305 143.264C96.855 143.158 95.7922 142.008 95.7922 140.624V20.6661C95.7922 20.2754 96.1461 19.9723 96.5462 20.02L161.584 24.5466L226.897 35.5612C228.373 35.8101 229.452 37.0907 229.452 38.5892V157.317C229.452 158.272 228.601 159.001 227.659 158.85Z" fill="white"/>
<path d="M227.905 159.168C227.808 159.168 227.71 159.161 227.613 159.145L160.216 148.351L98.2087 143.562C96.6879 143.444 95.4951 142.155 95.4951 140.625V20.6661C95.4951 20.3992 95.6109 20.1425 95.8129 19.9633C96.0214 19.7776 96.3006 19.6912 96.5824 19.7234L161.606 24.2474L226.949 35.2659C228.574 35.5406 229.752 36.9372 229.752 38.5879V157.315C229.752 157.858 229.516 158.371 229.104 158.724C228.767 159.012 228.342 159.166 227.906 159.166L227.905 159.168ZM227.707 158.556C228.066 158.614 228.436 158.511 228.717 158.271C228.996 158.032 229.155 157.684 229.155 157.317V38.5892C229.155 37.23 228.185 36.0796 226.847 35.8552L161.534 24.8406L96.5245 20.3179C96.4009 20.3025 96.289 20.3373 96.2067 20.4095C96.1307 20.4766 96.0896 20.5681 96.0896 20.6661V140.624C96.0896 141.844 97.0404 142.873 98.2538 142.966L160.286 147.758L227.707 158.556Z" fill="black"/>
<path d="M224.873 154.616C224.857 154.616 224.841 154.615 224.824 154.612L164.481 144.531C164.336 144.507 164.231 144.382 164.232 144.236L164.842 41.9048C164.842 41.8184 164.881 41.7359 164.946 41.6804C165.012 41.6237 165.098 41.5992 165.184 41.6121L224.715 50.4202C224.861 50.4421 224.969 50.5672 224.969 50.7142L225.172 154.318C225.172 154.406 225.133 154.49 225.066 154.546C225.012 154.593 224.944 154.617 224.873 154.617V154.616ZM164.828 143.985L224.575 153.965L224.373 50.9708L165.434 42.2505L164.828 143.983V143.985Z" fill="black"/>
<path d="M224.723 47.6591C224.707 47.6591 224.692 47.6591 224.678 47.6552L165.537 38.4474C165.391 38.4242 165.285 38.3004 165.285 38.1521V29.687C165.285 29.5993 165.323 29.5168 165.389 29.46C165.455 29.4033 165.542 29.3788 165.628 29.3917L224.769 38.5996C224.915 38.6228 225.021 38.7479 225.021 38.8949V47.3599C225.021 47.4476 224.983 47.5302 224.917 47.5869C224.863 47.6333 224.794 47.6591 224.724 47.6591H224.723ZM165.879 37.898L224.426 47.013V39.1515L165.879 30.0365V37.898Z" fill="black"/>
<path d="M157.418 143.466C157.412 143.466 157.404 143.466 157.397 143.466L99.4916 139.393C99.336 139.383 99.215 139.253 99.215 139.097L99.0117 36.4614C99.0117 36.3775 99.0465 36.2989 99.1069 36.2421C99.1674 36.1854 99.2485 36.157 99.3321 36.1635L157.848 40.6939C158.003 40.7055 158.123 40.8357 158.122 40.9918L157.715 143.169C157.715 143.252 157.68 143.331 157.62 143.386C157.565 143.438 157.493 143.466 157.418 143.466ZM99.8095 138.817L157.122 142.848L157.526 41.2665L99.6075 36.7812L99.8095 138.817Z" fill="black"/>
<path d="M157.671 37.9289C157.665 37.9289 157.657 37.9289 157.651 37.9289L99.1878 33.8047C99.0321 33.7944 98.9111 33.6642 98.9111 33.5068V24.9541C98.9111 24.8716 98.9459 24.7929 99.0063 24.7362C99.0668 24.6794 99.1492 24.651 99.2302 24.6575L157.693 28.7817C157.849 28.792 157.97 28.9223 157.97 29.0796V37.6323C157.97 37.7149 157.935 37.7935 157.875 37.8503C157.819 37.9019 157.747 37.9302 157.671 37.9302V37.9289ZM99.5056 33.2296L157.374 37.3112V29.3556L99.5056 25.2739V33.2296Z" fill="black"/>
<path d="M160.669 146.521H160.667C160.502 146.52 160.371 146.386 160.372 146.221L161.389 27.2935C161.39 27.1297 161.522 26.9982 161.686 26.9982H161.688C161.853 26.9994 161.984 27.1336 161.983 27.2986L160.968 146.226C160.967 146.39 160.834 146.521 160.671 146.521H160.669Z" fill="black"/>
<path d="M150.633 52.2966C150.627 52.2966 150.62 52.2966 150.614 52.2966L127.863 50.7993C127.7 50.789 127.575 50.6459 127.585 50.4821C127.595 50.317 127.736 50.1984 127.902 50.2035L150.653 51.7008C150.816 51.7111 150.941 51.8542 150.931 52.018C150.92 52.1753 150.789 52.2966 150.633 52.2966Z" fill="black"/>
<path d="M123.498 50.5104C123.492 50.5104 123.486 50.5104 123.479 50.5104L106.553 49.3962C106.39 49.3859 106.265 49.2428 106.275 49.079C106.287 48.9139 106.427 48.7927 106.592 48.8004L123.518 49.9146C123.681 49.925 123.806 50.0681 123.796 50.2319C123.785 50.3892 123.654 50.5104 123.498 50.5104Z" fill="black"/>
<path d="M150.376 58.7137C150.369 58.7137 150.363 58.7137 150.357 58.7137L141.572 58.136C141.409 58.1256 141.284 57.9825 141.295 57.8187C141.306 57.6536 141.448 57.5337 141.611 57.5401L150.395 58.1179C150.559 58.1282 150.683 58.2714 150.673 58.4351C150.663 58.5925 150.532 58.7137 150.376 58.7137Z" fill="black"/>
<path d="M136.943 57.829C136.937 57.829 136.93 57.829 136.924 57.829L106.296 55.8134C106.132 55.803 106.007 55.6599 106.018 55.4961C106.028 55.331 106.173 55.2085 106.334 55.2176L136.962 57.2332C137.126 57.2435 137.251 57.3867 137.24 57.5505C137.23 57.7078 137.099 57.829 136.943 57.829Z" fill="black"/>
<path d="M150.892 65.4661C150.885 65.4661 150.879 65.4661 150.873 65.4661L117.542 63.2725C117.379 63.2622 117.254 63.119 117.265 62.9553C117.276 62.7902 117.418 62.6703 117.581 62.6767L150.911 64.8703C151.075 64.8807 151.199 65.0238 151.189 65.1876C151.179 65.3449 151.048 65.4661 150.892 65.4661Z" fill="black"/>
<path d="M113.933 63.0326C113.927 63.0326 113.92 63.0326 113.914 63.0326L106.81 62.5658C106.647 62.5555 106.522 62.4123 106.532 62.2485C106.544 62.0835 106.687 61.9635 106.849 61.97L113.953 62.4368C114.116 62.4471 114.241 62.5903 114.231 62.7541C114.22 62.9114 114.089 63.0326 113.933 63.0326Z" fill="black"/>
<path d="M150.633 71.882C150.627 71.882 150.62 71.882 150.614 71.882L106.553 68.9816C106.39 68.9713 106.265 68.8282 106.275 68.6644C106.287 68.4993 106.427 68.3781 106.592 68.3858L150.653 71.2862C150.816 71.2965 150.941 71.4396 150.931 71.6034C150.92 71.7608 150.789 71.882 150.633 71.882Z" fill="black"/>
<path d="M150.633 78.3172C150.627 78.3172 150.62 78.3172 150.614 78.3172L144.282 77.9006C144.119 77.8903 143.994 77.7472 144.004 77.5834C144.015 77.4183 144.155 77.2958 144.321 77.3048L150.653 77.7214C150.816 77.7317 150.941 77.8748 150.93 78.0386C150.92 78.196 150.789 78.3172 150.633 78.3172Z" fill="black"/>
<path d="M139.765 77.6014C139.758 77.6014 139.752 77.6014 139.745 77.6014L106.551 75.4168C106.388 75.4065 106.263 75.2634 106.274 75.0996C106.285 74.9345 106.425 74.8159 106.59 74.821L139.784 77.0056C139.947 77.016 140.072 77.1591 140.062 77.3229C140.051 77.4802 139.92 77.6014 139.765 77.6014Z" fill="black"/>
<path d="M150.376 84.733C150.369 84.733 150.363 84.733 150.356 84.733L132.144 83.5337C131.98 83.5234 131.855 83.3802 131.866 83.2164C131.876 83.0514 132.023 82.9327 132.182 82.9379L150.395 84.1372C150.558 84.1475 150.683 84.2907 150.673 84.4545C150.663 84.6118 150.531 84.733 150.376 84.733Z" fill="black"/>
<path d="M129.306 83.3467C129.3 83.3467 129.294 83.3467 129.287 83.3467L106.294 81.8327C106.131 81.8224 106.006 81.6792 106.016 81.5154C106.027 81.3504 106.172 81.2304 106.333 81.2369L129.326 82.7509C129.489 82.7612 129.614 82.9044 129.604 83.0681C129.593 83.2255 129.462 83.3467 129.306 83.3467Z" fill="black"/>
<path d="M150.892 91.4855C150.885 91.4855 150.879 91.4855 150.873 91.4855L106.811 88.5851C106.648 88.5748 106.523 88.4317 106.534 88.2679C106.545 88.1028 106.688 87.9855 106.85 87.9893L150.911 90.8897C151.075 90.9 151.199 91.0431 151.189 91.2069C151.179 91.3643 151.048 91.4855 150.892 91.4855Z" fill="black"/>
<path d="M150.633 97.9026C150.627 97.9026 150.62 97.9026 150.614 97.9026L119.745 95.8702C119.582 95.8599 119.457 95.7167 119.467 95.5529C119.477 95.3879 119.623 95.2705 119.784 95.2744L150.652 97.3068C150.816 97.3171 150.941 97.4603 150.93 97.624C150.92 97.7814 150.789 97.9026 150.633 97.9026Z" fill="black"/>
<path d="M117.03 95.6896C117.024 95.6896 117.017 95.6896 117.011 95.6896L106.553 95.001C106.389 94.9906 106.264 94.8475 106.275 94.6837C106.286 94.5187 106.427 94.4 106.591 94.4052L117.049 95.0938C117.213 95.1041 117.338 95.2473 117.327 95.4111C117.317 95.5684 117.186 95.6896 117.03 95.6896Z" fill="black"/>
<path d="M150.376 104.338C150.37 104.338 150.363 104.338 150.357 104.338L138.724 103.572C138.56 103.561 138.436 103.418 138.446 103.255C138.457 103.089 138.6 102.972 138.762 102.976L150.395 103.742C150.559 103.752 150.684 103.895 150.673 104.059C150.663 104.217 150.532 104.338 150.376 104.338Z" fill="black"/>
<path d="M135.389 103.35C135.382 103.35 135.376 103.35 135.369 103.35L106.294 101.436C106.131 101.426 106.006 101.283 106.016 101.119C106.027 100.954 106.172 100.83 106.333 100.84L135.408 102.754C135.571 102.764 135.696 102.908 135.686 103.071C135.676 103.229 135.544 103.35 135.389 103.35Z" fill="black"/>
<path d="M150.117 110.754C150.111 110.754 150.105 110.754 150.098 110.754L118.45 108.67C118.286 108.659 118.161 108.516 118.172 108.352C118.183 108.187 118.326 108.065 118.488 108.074L150.137 110.158C150.3 110.168 150.425 110.311 150.415 110.475C150.404 110.632 150.273 110.754 150.117 110.754Z" fill="black"/>
<path d="M116.265 108.525C116.258 108.525 116.252 108.525 116.246 108.525L106.037 107.853C105.874 107.843 105.749 107.7 105.759 107.536C105.771 107.371 105.912 107.254 106.076 107.257L116.284 107.929C116.448 107.94 116.572 108.083 116.562 108.247C116.552 108.404 116.421 108.525 116.265 108.525Z" fill="black"/>
<path d="M150.633 117.506C150.633 117.506 150.62 117.506 150.614 117.506L106.221 114.644C106.057 114.634 105.933 114.492 105.943 114.327C105.953 114.162 106.086 114.042 106.26 114.049L150.653 116.91C150.816 116.921 150.941 117.062 150.93 117.228C150.92 117.385 150.789 117.506 150.633 117.506Z" fill="black"/>
<path d="M150.376 123.922C150.37 123.922 150.363 123.922 150.355 123.922L106.225 120.952C106.061 120.94 105.937 120.798 105.948 120.635C105.96 120.471 106.095 120.35 106.265 120.357L150.395 123.327C150.559 123.339 150.684 123.481 150.672 123.645C150.662 123.802 150.53 123.923 150.375 123.923L150.376 123.922Z" fill="black"/>
<path d="M150.633 130.077C150.627 130.077 150.62 130.077 150.613 130.077L105.845 127.098C105.682 127.087 105.557 126.945 105.569 126.781C105.58 126.616 105.72 126.493 105.885 126.504L150.653 129.483C150.816 129.494 150.941 129.636 150.929 129.8C150.919 129.957 150.788 130.079 150.632 130.079L150.633 130.077Z" fill="black"/>
<path d="M214.796 119.218C214.79 119.218 214.784 119.218 214.777 119.218L203.184 117.994C203.021 117.977 202.902 117.829 202.918 117.666C202.936 117.501 203.084 117.39 203.246 117.4L214.839 118.624C215.002 118.641 215.121 118.789 215.104 118.952C215.088 119.109 214.952 119.225 214.796 119.218Z" fill="black"/>
<path d="M199.86 117.641C199.853 117.64 199.847 117.64 199.84 117.64L170.863 114.582C170.701 114.565 170.581 114.417 170.598 114.254C170.615 114.089 170.765 113.971 170.925 113.988L199.903 117.046C200.065 117.063 200.185 117.211 200.168 117.374C200.151 117.531 200.015 117.647 199.86 117.641Z" fill="black"/>
<path d="M214.285 125.619C214.279 125.619 214.272 125.619 214.266 125.618L182.724 122.289C182.561 122.272 182.442 122.124 182.459 121.961C182.477 121.796 182.625 121.679 182.786 121.695L214.328 125.025C214.491 125.041 214.61 125.189 214.593 125.353C214.577 125.509 214.441 125.625 214.285 125.619Z" fill="black"/>
<path d="M180.547 122.058C180.54 122.058 180.534 122.058 180.528 122.057L170.353 120.984C170.191 120.967 170.072 120.819 170.088 120.656C170.106 120.491 170.252 120.379 170.415 120.39L180.59 121.464C180.752 121.48 180.872 121.628 180.855 121.791C180.838 121.948 180.702 122.064 180.547 122.058Z" fill="black"/>
<path d="M214.535 132.387C214.535 132.387 214.522 132.386 214.515 132.386L170.27 127.777C170.107 127.76 169.988 127.613 170.004 127.449C170.021 127.284 170.158 127.17 170.332 127.183L214.577 131.792C214.74 131.809 214.859 131.955 214.843 132.12C214.826 132.277 214.69 132.393 214.535 132.387Z" fill="black"/>
<path d="M214.025 138.787C214.018 138.787 214.012 138.787 214.004 138.787L170.025 134.079C169.862 134.061 169.743 133.915 169.761 133.752C169.779 133.588 169.919 133.473 170.088 133.487L214.067 138.194C214.23 138.212 214.349 138.359 214.331 138.522C214.315 138.679 214.179 138.795 214.023 138.789L214.025 138.787Z" fill="black"/>
<path d="M171.237 106.579C171.244 106.579 171.25 106.579 171.256 106.579L177.564 107.276C177.726 107.293 177.845 107.442 177.827 107.605C177.81 107.769 177.664 107.886 177.499 107.869L171.192 107.173C171.029 107.155 170.91 107.007 170.928 106.844C170.945 106.687 171.082 106.572 171.237 106.579Z" fill="black"/>
<path d="M182.064 107.775C182.07 107.775 182.077 107.775 182.083 107.775L215.148 111.427C215.31 111.445 215.429 111.593 215.411 111.756C215.392 111.921 215.247 112.033 215.083 112.02L182.018 108.369C181.855 108.351 181.737 108.203 181.754 108.04C181.772 107.883 181.908 107.768 182.064 107.775Z" fill="black"/>
<path d="M171.779 100.18C171.786 100.18 171.792 100.181 171.798 100.181L189.941 102.185C190.103 102.203 190.222 102.351 190.204 102.514C190.187 102.679 190.035 102.791 189.876 102.779L171.734 100.775C171.571 100.757 171.452 100.608 171.47 100.445C171.487 100.289 171.624 100.173 171.779 100.18Z" fill="black"/>
<path d="M192.768 102.498C192.774 102.498 192.781 102.499 192.787 102.499L215.691 105.029C215.853 105.046 215.972 105.195 215.954 105.358C215.937 105.523 215.786 105.636 215.626 105.622L192.722 103.092C192.559 103.075 192.441 102.926 192.459 102.763C192.476 102.606 192.612 102.491 192.768 102.498Z" fill="black"/>
<path d="M171.563 93.4117C171.569 93.412 171.576 93.4123 171.582 93.4125L215.472 98.26C215.635 98.2776 215.753 98.4261 215.735 98.5893C215.716 98.7537 215.569 98.8646 215.407 98.8535L171.517 94.0061C171.355 93.9885 171.236 93.84 171.254 93.6768C171.271 93.5201 171.407 93.4048 171.563 93.4117Z" fill="black"/>
<path d="M172.104 87.012C172.111 87.0123 172.117 87.0126 172.124 87.0129L202.872 90.4095C203.035 90.427 203.153 90.5755 203.136 90.7387C203.118 90.9031 202.968 91.0139 202.807 91.003L172.059 87.6064C171.896 87.5889 171.778 87.4403 171.795 87.2772C171.812 87.1204 171.949 87.0051 172.104 87.012Z" fill="black"/>
<path d="M205.578 90.7103C205.584 90.7106 205.591 90.7109 205.597 90.7112L216.015 91.862C216.178 91.8796 216.296 92.0281 216.278 92.1912C216.259 92.3556 216.114 92.468 215.95 92.4555L205.532 91.3047C205.37 91.2872 205.251 91.1386 205.269 90.9755C205.286 90.8187 205.423 90.7035 205.578 90.7103Z" fill="black"/>
<path d="M172.602 79.4382C172.608 79.4385 172.615 79.4388 172.621 79.4391L184.202 80.7769C184.365 80.7953 184.482 80.9444 184.464 81.1075C184.444 81.2718 184.296 81.382 184.134 81.3701L172.553 80.0323C172.39 80.0139 172.273 79.8648 172.291 79.7017C172.309 79.5451 172.446 79.4305 172.602 79.4382Z" fill="black"/>
<path d="M187.522 81.1627C187.529 81.163 187.535 81.1633 187.541 81.1636L216.487 84.5066C216.65 84.525 216.767 84.6741 216.749 84.8372C216.731 85.0015 216.579 85.118 216.419 85.0998L187.474 81.7568C187.311 81.7385 187.193 81.5894 187.212 81.4263C187.23 81.2696 187.367 81.155 187.522 81.1627Z" fill="black"/>
<path d="M173.176 73.0428C173.182 73.0431 173.189 73.0435 173.195 73.0438L204.703 76.6834C204.865 76.7018 204.983 76.8509 204.965 77.014C204.945 77.1783 204.796 77.2936 204.635 77.2766L173.127 73.6369C172.965 73.6186 172.847 73.4695 172.865 73.3064C172.883 73.1498 173.02 73.0352 173.176 73.0428Z" fill="black"/>
<path d="M206.878 76.9353C206.884 76.9356 206.891 76.9359 206.897 76.9362L217.06 78.1099C217.223 78.1283 217.34 78.2774 217.322 78.4405C217.302 78.6048 217.155 78.715 216.992 78.7031L206.829 77.5294C206.666 77.5111 206.549 77.3619 206.567 77.1989C206.585 77.0422 206.722 76.9276 206.878 76.9353Z" fill="black"/>
<path d="M50.1241 236C49.8192 236 49.5143 235.937 49.226 235.81C48.6753 235.569 48.2507 235.128 48.0307 234.567C47.8107 234.006 47.8223 233.392 48.0616 232.84C48.557 231.7 49.8861 231.177 51.0248 231.673C51.5755 231.914 52.0001 232.356 52.2201 232.917C52.4402 233.478 52.4286 234.09 52.188 234.642C51.9474 235.194 51.5073 235.62 50.9476 235.84C50.6813 235.946 50.4021 235.997 50.1241 235.997V236ZM48.6071 233.08C48.2417 233.919 48.6264 234.899 49.4641 235.265C49.8694 235.442 50.3197 235.449 50.7315 235.288C51.1432 235.126 51.4674 234.812 51.6437 234.406C51.8213 234 51.829 233.548 51.6669 233.136C51.5047 232.723 51.1921 232.398 50.7868 232.221C49.9492 231.856 48.9713 232.242 48.6071 233.08Z" fill="black"/>
<path d="M225.788 29.2421C225.735 29.2421 225.681 29.2279 225.632 29.1982L224.663 28.6024C224.523 28.516 224.479 28.3329 224.566 28.1923C224.652 28.0518 224.835 28.0079 224.975 28.0943L225.944 28.6901C226.084 28.7765 226.128 28.9597 226.042 29.1002C225.985 29.1918 225.887 29.2421 225.788 29.2421Z" fill="black"/>
<path d="M229.177 31.3261C229.124 31.3261 229.07 31.3119 229.021 31.2823L228.053 30.6865C227.912 30.6001 227.869 30.4169 227.955 30.2764C228.041 30.1358 228.224 30.0919 228.364 30.1783L229.333 30.7742C229.473 30.8606 229.517 31.0437 229.431 31.1842C229.374 31.2758 229.276 31.3261 229.177 31.3261Z" fill="black"/>
<path d="M225.675 32.1785C225.622 32.1785 225.569 32.1644 225.522 32.136C225.381 32.0509 225.336 31.8677 225.421 31.7259L226.009 30.7522C226.094 30.6104 226.277 30.5665 226.419 30.6516C226.559 30.7368 226.604 30.9199 226.519 31.0617L225.931 32.0354C225.876 32.1283 225.776 32.1798 225.676 32.1798L225.675 32.1785Z" fill="black"/>
<path d="M227.733 28.7688C227.681 28.7688 227.628 28.7546 227.58 28.7262C227.44 28.6411 227.395 28.458 227.48 28.3161L228.068 27.3412C228.153 27.2006 228.336 27.1542 228.477 27.2406C228.617 27.3257 228.662 27.5088 228.577 27.6507L227.989 28.6256C227.934 28.7185 227.835 28.7701 227.735 28.7701L227.733 28.7688Z" fill="black"/>
<path d="M41.9267 227.798C41.7658 227.798 41.6333 227.669 41.6294 227.507L41.5921 225.933C41.5883 225.768 41.7182 225.631 41.8829 225.628C42.0425 225.619 42.184 225.754 42.1879 225.919L42.2252 227.492C42.229 227.657 42.0991 227.794 41.9344 227.798H41.9279H41.9267Z" fill="black"/>
<path d="M42.058 233.305C41.8972 233.305 41.7646 233.176 41.7608 233.013L41.7235 231.44C41.7196 231.275 41.8496 231.138 42.0143 231.134C42.1854 231.133 42.3141 231.261 42.3192 231.426L42.3565 232.999C42.3604 233.164 42.2304 233.301 42.0657 233.305H42.058Z" fill="black"/>
<path d="M38.4424 229.87C38.2828 229.87 38.1503 229.743 38.1452 229.582C38.14 229.417 38.27 229.28 38.4334 229.275L40.0018 229.227C40.1743 229.224 40.3029 229.351 40.3081 229.516C40.3132 229.681 40.1833 229.818 40.0199 229.823L38.4514 229.87H38.4424Z" fill="black"/>
<path d="M43.9353 229.707C43.7758 229.707 43.6432 229.579 43.6381 229.418C43.6329 229.253 43.7629 229.116 43.9263 229.111L45.4948 229.063C45.653 229.063 45.7958 229.187 45.801 229.352C45.8061 229.517 45.6762 229.654 45.5128 229.659L43.9443 229.707H43.9353Z" fill="black"/>
<path d="M177.49 233.551C177.359 233.551 177.239 233.463 177.203 233.331C177.161 233.172 177.255 233.008 177.413 232.966C196.864 227.727 213.939 216.836 225.493 202.301C225.596 202.172 225.783 202.151 225.912 202.253C226.04 202.356 226.061 202.543 225.959 202.672C214.326 217.307 197.14 228.27 177.567 233.542C177.541 233.548 177.516 233.552 177.49 233.552V233.551Z" fill="black"/>
<path d="M187.673 224.789C187.556 224.789 187.444 224.718 187.396 224.602C187.334 224.449 187.409 224.276 187.561 224.214C201.062 218.766 212.768 210.316 221.415 199.782C221.519 199.656 221.707 199.637 221.834 199.741C221.96 199.846 221.98 200.034 221.875 200.162C213.166 210.773 201.377 219.281 187.785 224.767C187.749 224.782 187.71 224.789 187.674 224.789H187.673Z" fill="black"/>
<path d="M224.819 23.2712C224.743 23.2712 224.669 23.2428 224.611 23.1847C217.323 15.9758 208.653 10.01 198.84 5.45508C198.691 5.38544 198.626 5.20877 198.694 5.05917C198.764 4.90958 198.94 4.84381 199.089 4.91344C208.965 9.49804 217.692 15.5025 225.028 22.7605C225.145 22.8765 225.146 23.0648 225.03 23.1822C224.972 23.2415 224.895 23.2712 224.818 23.2712H224.819Z" fill="black"/>
<path d="M215.605 21.6604C215.535 21.6604 215.464 21.6359 215.407 21.5856C206.022 13.225 194.702 7.02455 181.761 3.15441C181.604 3.10799 181.513 2.94162 181.561 2.783C181.607 2.62567 181.772 2.5354 181.932 2.58311C194.957 6.47776 206.353 12.7221 215.803 21.1407C215.927 21.2503 215.937 21.4386 215.828 21.5611C215.769 21.6269 215.688 21.6617 215.605 21.6617V21.6604Z" fill="black"/>
<path d="M12.5699 85.6809C12.5236 85.6809 12.4772 85.6796 12.4296 85.6757C11.9124 85.6396 11.4402 85.4023 11.1005 85.0103C10.7608 84.6183 10.5935 84.1153 10.6309 83.5969C10.7068 82.5265 11.637 81.7115 12.705 81.794C13.2222 81.8301 13.6944 82.0674 14.0341 82.4594C14.3738 82.8515 14.5411 83.3544 14.5038 83.8716C14.4677 84.39 14.231 84.8633 13.8398 85.2037C13.4834 85.5133 13.037 85.6796 12.5712 85.6796L12.5699 85.6809ZM12.566 82.3859C11.8661 82.3859 11.2742 82.9301 11.224 83.6394C11.1983 83.9992 11.3141 84.3474 11.5496 84.6195C11.785 84.8917 12.1131 85.0554 12.4708 85.0812C12.8298 85.107 13.1772 84.991 13.4487 84.755C13.7202 84.519 13.8836 84.1914 13.9093 83.8316C13.9351 83.4718 13.8193 83.1236 13.5838 82.8515C13.3483 82.5794 13.0202 82.4143 12.6612 82.3898C12.6291 82.3872 12.5969 82.3872 12.5647 82.3872L12.566 82.3859Z" fill="black"/>
<path d="M14.2105 78.6538C14.1809 78.6538 14.1513 78.6499 14.1217 78.6396C13.9648 78.5906 13.8773 78.4229 13.9262 78.2656C19.7612 59.5687 28.5827 47.592 34.9569 40.8383C41.8741 33.5094 47.4969 30.5639 47.5535 30.5343C47.6989 30.4582 47.8791 30.5162 47.9537 30.6632C48.0283 30.8103 47.9717 30.9895 47.825 31.0643C47.7697 31.0927 42.2177 34.0046 35.3661 41.2716C29.0434 47.9776 20.2888 59.8705 14.4936 78.4436C14.4537 78.5712 14.3366 78.6525 14.2092 78.6525L14.2105 78.6538Z" fill="black"/>
<path d="M15.0365 61.4438C14.994 61.4438 14.9503 61.4348 14.9091 61.4155C14.7611 61.3445 14.6968 61.1666 14.7676 61.0183C22.2239 45.2514 31.2885 35.5715 37.5791 30.2286C44.4075 24.4279 49.553 22.331 49.6044 22.3104C49.7562 22.2498 49.93 22.3233 49.9917 22.4767C50.0522 22.6302 49.9788 22.803 49.8257 22.8649C49.7755 22.8856 44.6996 24.958 37.9394 30.7058C31.7003 36.01 22.7077 45.6202 15.3041 61.2762C15.2527 61.3832 15.1471 61.4464 15.0352 61.4464L15.0365 61.4438Z" fill="black"/>
<path d="M51.9718 30.6632C51.8715 30.6632 51.7775 30.6117 51.7222 30.5278L49.4654 27.0381C49.4088 26.9517 49.4023 26.8421 49.4461 26.7492C49.4898 26.6564 49.5786 26.5919 49.6803 26.5803C51.5704 26.3585 54.4899 25.8491 54.5195 25.8439C54.6353 25.8246 54.7511 25.8736 54.8167 25.9703C54.8823 26.067 54.8849 26.1947 54.8244 26.294L52.2253 30.5227C52.1713 30.6104 52.0773 30.6632 51.9757 30.6645H51.9718V30.6632ZM50.2232 27.1129L51.9654 29.8069L53.9726 26.5416C53.1028 26.6873 51.5202 26.9466 50.2232 27.1142V27.1129Z" fill="black"/>
<path d="M109.277 0.313377L111.567 4.96374C111.804 5.44606 112.263 5.78007 112.794 5.85744L117.915 6.60284C118.376 6.6699 118.56 7.23733 118.227 7.56232L114.521 11.1823C114.136 11.5576 113.961 12.0979 114.053 12.6279L114.928 17.7387C115.006 18.1991 114.525 18.5486 114.113 18.3319L109.534 15.919C109.059 15.6689 108.492 15.6689 108.017 15.919L103.438 18.3319C103.026 18.5486 102.545 18.1978 102.623 17.7387L103.498 12.6279C103.588 12.0979 103.413 11.5576 103.03 11.1823L99.3242 7.56232C98.9909 7.23604 99.1749 6.6699 99.6356 6.60284L104.757 5.85744C105.288 5.78007 105.746 5.44606 105.984 4.96374L108.274 0.313377C108.48 -0.104459 109.076 -0.104459 109.282 0.313377H109.277Z" fill="#E42F35"/>
<path d="M114.573 7.75577C114.558 7.75577 114.544 7.75577 114.53 7.75319L111.702 7.34051C111.54 7.3173 111.427 7.16512 111.45 7.00263C111.473 6.84014 111.623 6.72278 111.787 6.74987L114.615 7.16254C114.777 7.18576 114.89 7.33793 114.867 7.50042C114.845 7.64873 114.719 7.75577 114.573 7.75577Z" fill="white"/>
<path d="M103.058 7.74416C102.913 7.74416 102.785 7.63712 102.764 7.48881C102.739 7.32632 102.852 7.17415 103.016 7.15093L106.083 6.70473C106.335 6.66733 106.554 6.5087 106.667 6.27915L108.103 3.36333C108.175 3.21631 108.354 3.15441 108.502 3.22792C108.65 3.30014 108.711 3.47939 108.637 3.6277L107.201 6.54352C107.001 6.94975 106.615 7.2296 106.169 7.29537L103.102 7.74158C103.088 7.74416 103.074 7.74416 103.06 7.74416H103.058Z" fill="white"/>
<path d="M69.9905 37.8864L72.2808 42.5368C72.5176 43.0191 72.9769 43.3531 73.5083 43.4305L78.6293 44.1759C79.0899 44.2429 79.2739 44.8103 78.9407 45.1353L75.235 48.7553C74.8503 49.1306 74.6753 49.6709 74.7667 50.2009L75.6416 55.3117C75.7201 55.7721 75.2389 56.1216 74.8272 55.9049L70.2479 53.4921C69.7731 53.2419 69.2057 53.2419 68.7309 53.4921L64.1516 55.9049C63.7398 56.1216 63.2586 55.7708 63.3371 55.3117L64.212 50.2009C64.3021 49.6709 64.1271 49.1306 63.7437 48.7553L60.0381 45.1353C59.7048 44.8091 59.8888 44.2429 60.3494 44.1759L65.4704 43.4305C66.0018 43.3531 66.4599 43.0191 66.6979 42.5368L68.9882 37.8864C69.1941 37.4686 69.7898 37.4686 69.9957 37.8864H69.9905Z" fill="#E42F35"/>
<path d="M75.2864 45.3288C75.2723 45.3288 75.2581 45.3288 75.244 45.3262L72.4158 44.9135C72.2537 44.8903 72.1405 44.7381 72.1636 44.5756C72.1868 44.4118 72.3361 44.2958 72.5008 44.3229L75.3289 44.7355C75.491 44.7588 75.6042 44.9109 75.5811 45.0734C75.5592 45.2217 75.4331 45.3288 75.2864 45.3288Z" fill="white"/>
<path d="M63.7706 45.3172C63.6252 45.3172 63.4978 45.2101 63.476 45.0618C63.4515 44.8993 63.5648 44.7471 63.7282 44.7239L66.7956 44.2777C67.0478 44.2403 67.2665 44.0817 67.3798 43.8522L68.8157 40.9363C68.8878 40.7893 69.0666 40.7274 69.2146 40.8009C69.3612 40.8731 69.423 41.0524 69.3497 41.2007L67.9137 44.1165C67.7143 44.5228 67.3283 44.8039 66.8818 44.8684L63.8144 45.3146C63.8002 45.3172 63.7861 45.3172 63.7719 45.3172H63.7706Z" fill="white"/>
<path d="M81.734 11.3976L83.3154 14.6101C83.4788 14.9428 83.7966 15.1736 84.1633 15.2278L87.7004 15.7424C88.0182 15.7888 88.1456 16.1808 87.9153 16.4052L85.356 18.9058C85.091 19.165 84.97 19.539 85.0318 19.904L85.6365 23.4349C85.6906 23.7522 85.3586 23.9946 85.0743 23.845L81.9103 22.1776C81.5822 22.0047 81.1911 22.0047 80.863 22.1776L77.699 23.845C77.4147 23.9946 77.0814 23.7522 77.1367 23.4349L77.7415 19.904C77.8045 19.5377 77.6836 19.165 77.4172 18.9058L74.858 16.4052C74.6277 16.1808 74.7551 15.7888 75.0729 15.7424L78.61 15.2278C78.9767 15.1749 79.2932 14.9441 79.4579 14.6101L81.0392 11.3976C81.1821 11.1088 81.5925 11.1088 81.7353 11.3976H81.734Z" fill="#E42F35"/>
<path d="M85.392 16.6309C85.3779 16.6309 85.3637 16.6309 85.3496 16.6283L83.3951 16.3433C83.233 16.3201 83.1197 16.1679 83.1429 16.0054C83.1661 15.8417 83.3166 15.7256 83.48 15.7527L85.4345 16.0377C85.5966 16.0609 85.7098 16.2131 85.6867 16.3756C85.6648 16.5239 85.5387 16.6309 85.392 16.6309Z" fill="white"/>
<path d="M77.4379 16.6219C77.2925 16.6219 77.1651 16.5148 77.1432 16.3665C77.1188 16.204 77.232 16.0519 77.3954 16.0287L79.5146 15.7204C79.6587 15.6998 79.7835 15.6082 79.8491 15.4767L80.8411 13.4636C80.9132 13.3153 81.092 13.256 81.24 13.3282C81.3867 13.4004 81.4484 13.5797 81.3751 13.728L80.3831 15.7424C80.2312 16.0493 79.9392 16.2634 79.6008 16.3124L77.4816 16.6206C77.4675 16.6232 77.4533 16.6232 77.4391 16.6232L77.4379 16.6219Z" fill="white"/>
<path d="M32.6174 222.527L33.3511 229.566L38.0728 230.124V221.778L32.6174 222.527Z" fill="white"/>
<path d="M38.0728 230.439C38.0599 230.439 38.0484 230.439 38.0355 230.437L33.3124 229.879C33.1663 229.861 33.0502 229.745 33.0359 229.597L32.3022 222.558C32.285 222.389 32.4039 222.236 32.573 222.213L38.0298 221.464C38.1201 221.451 38.2118 221.478 38.2806 221.538C38.3493 221.599 38.388 221.685 38.388 221.777V230.122C38.388 230.213 38.3493 230.299 38.282 230.359C38.2247 230.411 38.1487 230.439 38.0728 230.439ZM33.6377 229.282L37.7575 229.768V222.139L32.9628 222.798L33.6377 229.28V229.282Z" fill="black"/>
<path d="M38.818 242.376C36.8491 242.656 33.6206 242.901 29.8304 242.372C28.5909 242.198 27.7684 240.984 28.0679 239.761C28.9018 236.344 30.3391 229.861 32.8067 226.856L33.42 228.486L34.2669 226.952C34.383 226.743 34.5908 226.601 34.8272 226.571L36.6815 226.334C37.0684 226.285 37.4295 226.543 37.5097 226.928L37.8049 228.341L38.9355 226.487L39.4371 233.409C39.5445 234.892 39.7667 236.364 40.102 237.811L40.6078 239.995C40.7583 241.149 39.963 242.214 38.818 242.377V242.376Z" fill="white"/>
<path d="M34.3528 243C32.97 243 31.4295 242.914 29.7859 242.684C29.1081 242.59 28.4976 242.209 28.1122 241.64C27.7253 241.069 27.5963 240.356 27.7597 239.685L27.9388 238.944C28.79 235.416 30.2172 229.51 32.5616 226.654C32.6332 226.566 32.745 226.522 32.8568 226.543C32.9685 226.562 33.0602 226.638 33.1004 226.744L33.4729 227.733L33.9888 226.797C34.1536 226.5 34.4517 226.297 34.7855 226.254L36.6398 226.017C37.1858 225.949 37.7031 226.318 37.8163 226.859L37.9481 227.492L38.6632 226.32C38.7348 226.202 38.8738 226.145 39.0071 226.178C39.1404 226.211 39.2378 226.325 39.2478 226.462L39.7494 233.383C39.8554 234.845 40.0775 236.309 40.4071 237.738L40.9129 239.921C41.0921 241.274 40.1678 242.502 38.8609 242.687C37.7016 242.852 36.1598 242.998 34.3514 242.998L34.3528 243ZM32.712 227.5C30.6557 230.388 29.3503 235.796 28.5535 239.094L28.3744 239.835C28.2526 240.333 28.3486 240.862 28.6352 241.286C28.9204 241.707 29.3718 241.988 29.8733 242.059C33.5947 242.578 36.7673 242.349 38.7735 242.063C39.7408 241.927 40.4229 241.016 40.2939 240.035L39.7938 237.882C39.4556 236.423 39.2292 234.925 39.1217 233.43L38.6904 227.492L38.0728 228.504C38.0054 228.615 37.8765 228.674 37.7504 228.651C37.6228 228.629 37.5211 228.53 37.4953 228.404L37.2001 226.991C37.1528 226.766 36.945 226.615 36.7215 226.647L34.8672 226.883C34.7311 226.901 34.6093 226.984 34.5419 227.106L33.695 228.639C33.6349 228.747 33.5202 228.81 33.3956 228.801C33.2723 228.793 33.1663 228.712 33.1233 228.598L32.7106 227.502L32.712 227.5Z" fill="black"/>
<path d="M34.4989 240.91C33.3268 240.91 31.9325 240.788 30.3648 240.428C30.1943 240.389 30.0882 240.22 30.1284 240.049C30.167 239.878 30.3361 239.771 30.5067 239.812C35.0993 240.867 38.2132 239.779 38.2447 239.768C38.4081 239.708 38.5886 239.794 38.6488 239.957C38.7076 240.121 38.623 240.301 38.4597 240.362C38.3708 240.395 36.9063 240.91 34.5004 240.91H34.4989Z" fill="black"/>
<path d="M32.219 235.502C32.0499 235.502 31.9095 235.367 31.9037 235.196C31.898 235.021 32.0341 234.876 32.209 234.871L36.6354 234.723C36.8117 234.703 36.955 234.853 36.9607 235.028C36.9664 235.203 36.8303 235.348 36.6555 235.354L32.229 235.502C32.229 235.502 32.2219 235.502 32.2176 235.502H32.219Z" fill="black"/>
<path d="M54.7383 218.778L55.4462 229.051H61.1294L61.3945 218.778H54.7383Z" fill="white"/>
<path d="M61.1294 229.366H55.4462C55.28 229.366 55.1424 229.237 55.1309 229.072L54.4231 218.801C54.4173 218.714 54.4474 218.628 54.5076 218.565C54.5678 218.5 54.6509 218.464 54.7383 218.464H61.393C61.4776 218.464 61.5593 218.499 61.6195 218.559C61.6796 218.621 61.7112 218.702 61.7097 218.787L61.4461 229.058C61.4418 229.229 61.3013 229.366 61.1308 229.366H61.1294ZM55.7414 228.735H60.8227L61.0706 219.095H55.0779L55.7428 228.735H55.7414Z" fill="black"/>
<path d="M53.9614 234.849C53.9471 235.82 54.6062 236.674 55.5448 236.895C58.812 237.661 66.1718 239.366 68.2711 239.682C70.9952 240.091 74.344 239.25 75.7842 237.643C77.2243 236.038 72.56 232.202 70.3475 230.808C67.0602 228.735 63.9005 224.64 62.5765 224.455C61.2524 224.271 58.7791 228.143 58.7791 228.143L54.7381 226.433C54.7381 226.433 54.0331 229.923 53.9614 234.85V234.849Z" fill="white"/>
<path d="M69.6956 240.101C69.1984 240.101 68.7054 240.066 68.2254 239.995C66.1003 239.676 58.6001 237.936 55.4733 237.203C54.3986 236.951 53.6291 235.959 53.6463 234.846C53.7194 229.946 54.4229 226.406 54.4301 226.371C54.4487 226.278 54.5089 226.199 54.592 226.155C54.6752 226.11 54.774 226.106 54.8629 226.143L58.6603 227.751C59.3151 226.76 61.2941 223.961 62.621 224.145C63.3862 224.251 64.4638 225.282 65.9555 226.708C67.3384 228.029 68.9046 229.527 70.5167 230.544C72.2993 231.667 76.0709 234.644 76.3546 236.671C76.4191 237.138 76.3073 237.537 76.0207 237.857C74.797 239.223 72.2076 240.104 69.697 240.104L69.6956 240.101ZM54.2768 234.855C54.2653 235.674 54.8285 236.403 55.6166 236.588C58.7348 237.319 66.2149 239.055 68.3185 239.371C71.034 239.778 74.2109 238.927 75.5493 237.434C75.7084 237.258 75.7657 237.035 75.727 236.757C75.5092 235.195 72.3638 232.455 70.1785 231.078C68.512 230.026 66.9214 228.506 65.517 227.164C64.2718 225.974 63.0953 224.849 62.5322 224.77C61.7569 224.667 60.0259 226.779 59.0443 228.315C58.9612 228.445 58.7964 228.496 58.656 228.435L54.9775 226.879C54.7984 227.91 54.3341 230.942 54.2768 234.856V234.855Z" fill="black"/>
<path d="M69.6555 237.582C64.7031 237.582 58.3049 235.315 55.972 234.419C55.8086 234.356 55.7284 234.173 55.79 234.01C55.8531 233.848 56.035 233.766 56.1984 233.828C58.4052 234.675 69.6282 238.764 73.8355 236.004C73.9816 235.908 74.1765 235.949 74.2725 236.094C74.3685 236.24 74.327 236.436 74.1822 236.532C73.0316 237.288 71.4367 237.58 69.6569 237.58L69.6555 237.582Z" fill="black"/>
<path d="M63.3419 231.994C63.2602 231.994 63.1785 231.963 63.1169 231.9C62.9951 231.775 62.9965 231.576 63.1212 231.454L65.4756 229.146C65.6002 229.024 65.7994 229.026 65.9212 229.15C66.043 229.275 66.0402 229.474 65.9169 229.596L63.5626 231.904C63.5009 231.964 63.4221 231.994 63.3419 231.994Z" fill="black"/>
<path d="M31.0054 151.819C31.0054 151.819 29.2442 183.929 28.3228 195.013C27.4014 206.098 30.478 223.915 30.478 223.915L39.2507 223.451C39.2507 223.451 39.8525 201.787 40.5031 195.771C40.5031 195.771 44.2088 187.616 45.3064 180.341C46.4041 173.067 50.1456 161.578 50.1456 161.578C50.1456 161.578 53.1835 218.922 53.4758 223.428C53.4758 223.428 60.3541 223.736 62.8203 222.172C62.8203 222.172 67.1908 201.263 66.5632 189.886C65.9356 178.509 66.6248 150.246 66.6248 150.246L31.0039 151.819H31.0054Z" fill="#E6E7E8"/>
<path d="M30.478 224.231C30.3261 224.231 30.1928 224.12 30.167 223.968C30.1355 223.791 27.0947 205.984 28.009 194.986C28.9189 184.032 30.6729 152.122 30.6915 151.801C30.7001 151.639 30.8305 151.509 30.9924 151.502L66.6133 149.929C66.7036 149.921 66.7853 149.957 66.8483 150.019C66.9114 150.081 66.9458 150.165 66.9429 150.253C66.9357 150.535 66.2608 178.636 66.8813 189.869C67.5032 201.156 63.1771 222.028 63.1326 222.237C63.1154 222.32 63.0653 222.393 62.9922 222.439C60.4702 224.037 53.7495 223.755 53.4644 223.743C53.3039 223.736 53.1735 223.608 53.1634 223.448C52.9026 219.437 50.4365 172.969 49.9249 163.334C48.8573 166.781 46.4557 174.857 45.6202 180.389C44.5713 187.336 41.1164 195.174 40.8126 195.854C40.1721 201.857 39.5731 223.243 39.5674 223.459C39.5631 223.624 39.4327 223.758 39.2679 223.766L30.4952 224.231C30.4952 224.231 30.4837 224.231 30.478 224.231ZM31.3048 152.122C31.1271 155.341 29.5021 184.633 28.6366 195.039C27.7912 205.207 30.3605 221.283 30.7417 223.584L38.9426 223.149C39.0171 220.544 39.5846 201.315 40.1893 195.736C40.1936 195.703 40.2022 195.67 40.2151 195.639C40.2523 195.557 43.915 187.438 44.994 180.292C46.0831 173.077 49.8074 161.594 49.8447 161.479C49.8919 161.334 50.0381 161.242 50.1857 161.264C50.3362 161.284 50.4508 161.409 50.4594 161.561C50.4895 162.125 53.3941 216.954 53.7724 223.121C55.0593 223.155 60.3828 223.22 62.5394 221.973C62.9105 220.16 66.8397 200.635 66.2479 189.904C65.6633 179.317 66.2264 153.815 66.3009 150.576L31.3034 152.122H31.3048Z" fill="black"/>
<path d="M38.8882 196.085H36.2071C36.0323 196.085 35.8918 195.943 35.8918 195.769C35.8918 195.596 36.0337 195.454 36.2071 195.454H38.8882C39.063 195.454 39.2035 195.596 39.2035 195.769C39.2035 195.943 39.0616 196.085 38.8882 196.085Z" fill="black"/>
<path d="M57.9881 212.762H57.9824C57.8076 212.759 57.67 212.614 57.6729 212.441C57.7703 207.129 63.5495 197.615 63.796 197.212C63.8863 197.065 64.0812 197.016 64.2302 197.108C64.3792 197.198 64.4265 197.393 64.3348 197.542C64.276 197.64 58.398 207.311 58.3048 212.452C58.302 212.624 58.1615 212.762 57.9896 212.762H57.9881Z" fill="black"/>
<path d="M72.0326 101.023C72.5184 100.984 76.5623 107.933 78.4624 111.249C79.0026 112.193 80.2078 112.499 81.1292 111.929L95.9934 102.743C97.2072 101.993 98.2489 100.988 99.0328 99.7921C100.274 97.8986 101.013 95.9735 102.674 94.6279C104.025 93.5334 105.394 92.3184 105.804 92C106.06 91.8006 107.252 92.6498 106.354 94.1589C106.077 94.6222 105.047 95.5618 104.765 95.9878C104.315 96.6678 104.315 97.5744 104.815 98.217C105.348 98.9027 105.794 100.003 105.195 101.532C104.309 103.796 102.301 104.355 101.165 104.487C100.595 104.553 100.069 104.83 99.6905 105.265L85.9741 121C83.8461 123.441 80.288 123.992 77.531 122.306C73.0716 119.579 67.3296 114.084 63.1926 107.137L72.0312 101.017L72.0326 101.023Z" fill="white"/>
<path d="M80.9803 123.602C79.7422 123.602 78.4926 123.268 77.3677 122.58C73.3024 120.094 67.3727 114.775 62.9233 107.303C62.8388 107.161 62.8789 106.976 63.0151 106.881L71.8536 100.762C71.8995 100.73 71.9525 100.712 72.0084 100.707C72.3065 100.687 72.755 100.654 78.7377 111.092C78.9569 111.473 79.3108 111.743 79.7336 111.85C80.1563 111.958 80.5934 111.891 80.9645 111.661L95.8287 102.475C97.0052 101.747 98.0226 100.76 98.7706 99.62C99.1289 99.0734 99.4499 98.5168 99.758 97.9789C100.529 96.6377 101.257 95.3724 102.478 94.3841C103.259 93.7529 104.03 93.093 104.649 92.5623C105.087 92.1864 105.434 91.8909 105.613 91.7518C105.837 91.5782 106.182 91.6442 106.492 91.9182C106.966 92.3371 107.285 93.2178 106.628 94.3224C106.461 94.6007 106.086 94.998 105.722 95.3811C105.438 95.6794 105.146 95.9893 105.03 96.1643C104.642 96.751 104.657 97.4984 105.066 98.0248C105.625 98.7449 106.152 99.9571 105.49 101.65C104.543 104.071 102.396 104.665 101.202 104.803C100.709 104.86 100.258 105.098 99.9285 105.474L86.212 121.209C84.8464 122.776 82.9262 123.599 80.9788 123.599L80.9803 123.602ZM63.6169 107.234C67.9889 114.474 73.7409 119.624 77.6959 122.042C80.324 123.651 83.7058 123.127 85.7363 120.797L99.4542 105.062C99.8869 104.568 100.482 104.253 101.131 104.179C102.184 104.057 104.076 103.536 104.904 101.422C105.348 100.286 105.236 99.2728 104.568 98.415C103.992 97.6734 103.967 96.6305 104.504 95.8171C104.65 95.5962 104.948 95.2806 105.265 94.9478C105.589 94.605 105.956 94.2177 106.086 93.9996C106.47 93.3556 106.397 92.9123 106.269 92.6541C106.169 92.4504 106.017 92.3371 105.937 92.3012C105.755 92.4475 105.443 92.7143 105.059 93.0428C104.468 93.5478 103.661 94.2378 102.875 94.8747C101.745 95.7884 101.046 97.0049 100.305 98.2931C99.9915 98.8396 99.6677 99.4034 99.298 99.9657C98.4998 101.184 97.4151 102.236 96.1598 103.011L81.2955 112.198C80.7768 112.517 80.1663 112.612 79.5774 112.463C78.9856 112.312 78.4926 111.938 78.1888 111.406C74.4187 104.829 72.5701 101.967 72.0342 101.403L63.6169 107.231V107.234Z" fill="black"/>
<path d="M50.5601 88.3262C55.8317 88.4435 60.289 89.2421 62.397 89.9736C66.6844 91.4621 70.088 94.6841 72.6118 97.9766C75.1338 101.267 76.7616 104.607 77.5054 106.299C77.6912 106.722 77.4208 107.197 76.9419 107.265L66.7642 108.701C66.1061 108.794 65.632 109.379 65.6919 110.046C65.9582 113.008 66.7905 122.532 67.4067 132.468C68.0237 142.415 68.4217 152.738 67.8257 157.32C67.785 157.633 67.5363 157.866 67.2065 157.898C66.0237 158.013 63.5572 158.217 60.9497 158.218C58.331 158.218 55.6119 158.014 53.8979 157.334C51.9091 156.545 47.8409 155.619 43.3979 155.161C38.9569 154.703 34.0954 154.707 30.5308 155.807C29.9629 155.982 29.3777 155.559 29.3931 155.01L30.522 114.827C30.542 114.114 29.9626 113.529 29.2495 113.542L21.9761 113.677C21.5676 113.684 21.2482 113.379 21.2505 112.991C21.2619 111.092 21.4928 106.615 23.1958 102.067C24.8977 97.5231 28.0604 92.9307 33.9282 90.748C39.2367 88.7733 45.2912 88.209 50.5601 88.3262Z" fill="#E42F35" stroke="black" stroke-width="0.5"/>
<path d="M38.2332 148.103C38.0828 148.103 37.9495 147.995 37.9223 147.842C37.8922 147.67 38.0068 147.506 38.1773 147.476C53.9544 144.666 58.5614 133.662 58.6058 133.551C58.6718 133.389 58.8552 133.312 59.0171 133.376C59.179 133.441 59.2564 133.626 59.1919 133.787C59.1461 133.901 54.4259 145.224 38.2877 148.097C38.2691 148.1 38.2504 148.101 38.2318 148.101L38.2332 148.103Z" fill="white"/>
<path d="M67.7067 128.68H47.4688L53.8068 105.9H74.0447L67.7067 128.68Z" fill="white"/>
<path d="M67.7066 128.995H47.4687C47.3698 128.995 47.2766 128.95 47.2179 128.871C47.1577 128.792 47.1391 128.69 47.1649 128.595L53.5044 105.816C53.5416 105.679 53.6663 105.585 53.8081 105.585H74.046C74.1449 105.585 74.2381 105.63 74.2968 105.709C74.357 105.788 74.3756 105.89 74.3498 105.985L68.0104 128.765C67.9731 128.901 67.8484 128.995 67.7066 128.995ZM47.8842 128.364H67.4673L73.6305 106.217H54.0474L47.8842 128.364Z" fill="black"/>
<path d="M23.4148 113.962L32.315 113.557C32.315 113.557 32.3824 121.11 33.1848 121.245C36.045 121.725 42.0363 121.75 45.9369 121.275C47.2953 121.11 48.3701 120.063 48.6251 118.709C48.8186 117.686 49.3674 116.485 50.7617 115.62C52.1087 114.785 50.7803 117.413 52.0399 119.106C52.7163 120.016 54.86 119.612 57.7818 118.93C60.7037 118.248 61.4459 121.394 58.1716 123.296C54.6207 125.358 52.3652 125.127 51.2331 125.368C48.9776 125.848 29.0364 128.998 25.9583 127.311C23.5796 126.009 23.4148 113.961 23.4148 113.961V113.962Z" fill="white"/>
<path d="M29.8246 128.123C27.9517 128.123 26.5015 127.971 25.8051 127.59C23.3361 126.238 23.1154 115.219 23.0982 113.966C23.0953 113.796 23.2286 113.654 23.3991 113.646L32.2993 113.242C32.3839 113.233 32.4684 113.269 32.53 113.328C32.5916 113.387 32.6275 113.469 32.6289 113.555C32.6576 116.762 32.9169 120.45 33.2881 120.941C36.1913 121.417 42.0593 121.427 45.8968 120.961C47.1091 120.813 48.0807 119.885 48.3128 118.65C48.5765 117.254 49.3646 116.114 50.5927 115.352C50.8134 115.216 51.1386 115.051 51.4209 115.21C51.7548 115.398 51.7505 115.838 51.7462 116.447C51.7405 117.172 51.7319 118.167 52.2908 118.917C52.8596 119.681 55.0808 119.235 57.7088 118.623C59.308 118.248 60.1993 118.927 60.5003 119.686C60.9072 120.713 60.4 122.365 58.3279 123.57C55.4777 125.226 53.4715 125.431 52.1446 125.566C51.8107 125.6 51.5212 125.629 51.2963 125.677C50.1685 125.918 36.9436 128.123 29.8246 128.123ZM23.7344 114.263C23.8061 117.769 24.3434 126.069 26.1074 127.035C29.0565 128.648 48.8674 125.548 51.1644 125.058C51.4224 125.003 51.7276 124.972 52.0801 124.936C53.354 124.805 55.2785 124.609 58.0112 123.022C59.7609 122.007 60.2237 120.701 59.9142 119.918C59.6548 119.261 58.8638 119.001 57.8521 119.237C54.8042 119.948 52.5845 120.368 51.7849 119.294C51.1 118.373 51.11 117.21 51.1157 116.441C51.1171 116.223 51.12 115.94 51.0942 115.797C51.057 115.813 51.0011 115.84 50.9251 115.887C49.8361 116.563 49.1654 117.531 48.9333 118.765C48.6496 120.271 47.4602 121.406 45.9728 121.586C42.065 122.061 36.0637 122.047 33.1319 121.553C32.8725 121.51 32.0901 121.378 32.0027 113.886L23.7359 114.262L23.7344 114.263Z" fill="black"/>
<path d="M54.0618 90.0633C54.0618 90.0633 51.7576 88.6432 51.7805 87.8141L51.1228 83.5536C51.1156 83.1634 51.3563 82.8134 51.7189 82.6858L54.4444 81.749C54.7912 81.6257 55.0162 81.2828 54.9918 80.9099L54.7797 77.5245L55.8473 76.5777C55.9304 76.5031 55.9419 76.3754 55.8702 76.2894L54.1836 74.2309C53.6319 73.4534 53.0788 71.5928 52.626 71.7191C52.626 71.7191 43.0121 70.6073 42.5435 75.4602C42.4762 76.1631 42.6868 76.8646 43.0938 77.4384L43.945 78.6405C44.8005 79.8469 45.2504 81.3259 45.0985 82.8048C45.067 83.1118 44.6672 85.09 44.4007 86.3982C44.2488 87.1413 43.8375 87.8011 43.24 88.2616C42.4891 88.8412 41.5749 89.5785 41.7239 89.6258C41.7239 89.6258 42.7886 90.409 44.4695 91.1019C47.4543 92.3341 50.8491 92.0272 53.6061 90.3416L54.0632 90.0619L54.0618 90.0633Z" fill="white"/>
<path d="M48.2597 92.1649C46.927 92.1649 45.5972 91.911 44.3477 91.3945C42.651 90.6945 41.5806 89.9142 41.5362 89.8812C41.466 89.8295 41.4101 89.7478 41.3958 89.6646C41.3585 89.4494 41.337 89.3303 43.0465 88.012C43.5839 87.5975 43.9551 87.0021 44.0912 86.3351C44.6644 83.5335 44.7718 82.9009 44.7847 82.7733C44.9237 81.4205 44.534 80.0176 43.6885 78.8241L42.8373 77.622C42.373 76.9664 42.1567 76.1889 42.2312 75.4301C42.3272 74.436 42.7829 73.604 43.5853 72.9542C46.2621 70.7881 51.9754 71.3318 52.6131 71.4006C53.1075 71.3289 53.4385 72.0332 53.8483 72.9154C54.0446 73.3401 54.2495 73.7776 54.4416 74.0487L56.1153 76.0885C56.2944 76.308 56.27 76.6265 56.058 76.8144L55.105 77.6593L55.3085 80.8912C55.34 81.4033 55.0291 81.8781 54.5505 82.0474L51.8235 82.9841C51.5971 83.0645 51.4438 83.2825 51.4409 83.5292L52.0944 87.7653C52.0972 87.7839 52.0986 87.8026 52.0986 87.8227C52.0886 88.21 53.192 89.1539 54.2309 89.7937C54.3241 89.851 54.3814 89.9529 54.3814 90.0633C54.3814 90.1738 54.3241 90.2756 54.2295 90.333L53.7724 90.6113C52.0886 91.6398 50.1742 92.1634 48.264 92.1634L48.2597 92.1649ZM42.1653 89.5455C42.5708 89.8109 43.4334 90.3345 44.587 90.8093C47.4443 91.9884 50.7531 91.713 53.4399 90.0719L53.4671 90.0547C52.7048 89.5412 51.4782 88.5987 51.4638 87.837L50.8104 83.601C50.8075 83.5866 50.8075 83.5723 50.8061 83.5579C50.7975 83.0315 51.1214 82.5595 51.6129 82.3859L54.3398 81.4478C54.5505 81.3732 54.6895 81.1595 54.6751 80.9271L54.4631 77.5417C54.4573 77.4441 54.496 77.3495 54.5691 77.2849L55.5607 76.407L53.9386 74.4288C53.6993 74.0932 53.4829 73.6284 53.2751 73.178C53.0974 72.7949 52.8037 72.1638 52.6432 72.0318C52.626 72.0318 52.6074 72.0318 52.5902 72.0304C52.53 72.0232 46.553 71.3619 43.9808 73.4433C43.3059 73.9899 42.9376 74.6583 42.8574 75.4889C42.7986 76.0957 42.9749 76.7226 43.3503 77.2533L44.2015 78.4554C45.1358 79.7737 45.5657 81.3287 45.411 82.8349C45.3852 83.0817 45.1487 84.301 44.7074 86.4585C44.5411 87.2733 44.0869 88.002 43.4306 88.5084C42.7055 89.0678 42.3444 89.3762 42.1653 89.5426V89.5455Z" fill="black"/>
<path d="M52.9441 64.3343C50.753 64.221 53.523 66.4818 45.4081 64.1464C42.1767 63.2169 43.8361 67.0125 42.9978 66.773C39.8997 65.8907 40.0057 65.9166 38.4997 66.3283C37.5023 66.6008 36.8661 68.4685 37.0653 69.8585C37.3275 71.6947 39.3838 74.6081 41.2266 77.6894C42.181 79.2846 43.869 79.4295 45.9125 77.0554C46.1303 76.8029 45.0183 75.3139 45.5986 74.6727C47.1061 73.0044 47.7753 75.5248 48.9934 74.7459C50.1612 73.9985 50.6441 73.5165 51.8794 72.3861C53.374 71.019 55.8817 73.1464 56.7472 70.0708C57.1986 68.4671 55.9447 64.4864 52.9455 64.3329L52.9441 64.3343Z" fill="black"/>
<path fill-rule="evenodd" clip-rule="evenodd" d="M201.469 62.5196L199.684 62.3084C199.449 62.1622 199.224 61.9634 199.149 61.5887C199.085 61.269 199.246 60.7391 198.669 60.1973C198.669 60.1973 198.316 59.8004 198.69 59.7586L200.378 59.528L200.988 58.5131C200.25 58.6088 197.611 58.9744 197.611 58.9744L197.012 60.0766C197.012 60.0766 198.359 60.505 198.487 61.2412C198.594 61.8565 198.188 62.0021 198.059 62.1053L194.351 61.6664L193.475 62.6496L197.771 63.1581L198.733 62.2388C198.733 62.2388 199.139 63.32 200.111 63.4351C200.143 63.4389 200.571 63.4895 200.571 63.4895C200.571 63.4895 201.469 62.5304 201.469 62.5196Z" fill="#AE0F0A"/>
<path d="M212.646 63.2401L213.426 64.6669L214.153 63.5584L212.496 60.3275L208.531 59.8582L207.997 60.9142L211.812 61.355V61.8501L207.623 61.4188L205.934 64.1677L206.64 65.6179L208.382 62.7354L212.646 63.2401Z" fill="#AE0F0A"/>
<path d="M216.355 64.3569L214.581 67.3109L214.068 67.2502L216.077 63.7214L214.346 60.5462L212.903 60.3755L214.634 63.626L212.679 67.075L211.001 66.8979L211.717 68.2849L215.19 68.6852L217.071 65.4425L216.355 64.3569Z" fill="#AE0F0A"/>
<path d="M209.311 64.7717L210.07 63.3656L208.67 63.2107L206.864 66.0102L208.67 69.5278L210.134 69.6688L208.317 66.3114L208.563 65.953L210.668 69.7428L214.409 70.1856L214.986 69.0916L211.406 68.6894L209.311 64.7717Z" fill="#AE0F0A"/>
<path fill-rule="evenodd" clip-rule="evenodd" d="M211.459 63.5408C210.679 63.4485 210.038 64.0183 210.038 64.8039C210.038 65.5895 210.679 66.3111 211.459 66.4034C212.239 66.4958 212.881 65.926 212.881 65.1403C212.881 64.3547 212.239 63.6331 211.459 63.5408Z" fill="#73C8D9" stroke="#73C8D9" stroke-width="0.5"/>
<path fill-rule="evenodd" clip-rule="evenodd" d="M202.578 62.3715V58.8524C202.578 58.7986 201.68 59.5102 201.68 59.5102V62.6204C201.68 62.6204 201.744 63.6288 203.027 63.7806L203.476 63.8337L204.363 62.8518L202.856 62.6734C202.706 62.6665 202.578 62.5329 202.578 62.3715Z" fill="#AE0F0A"/>
<path fill-rule="evenodd" clip-rule="evenodd" d="M196.155 57.92C194.702 58.1139 192.832 58.366 192.832 58.366L192.158 59.5239C192.158 59.5239 193.751 59.9384 193.665 60.8323C193.591 61.566 193.249 61.5578 193.249 61.5578C192.34 61.4503 191.902 61.3984 191.795 61.3857C191.774 61.3832 191.752 61.3807 191.742 61.3687C191.132 61.0275 191.132 60.4787 191.165 60.2349C191.175 60.1609 191.122 60.1007 191.058 60.0716C190.951 60.0375 190.865 60.0489 190.823 60.0546C190.801 60.0628 190.78 60.071 190.758 60.09L189.861 61.1353L188.471 60.9708C188.471 60.9708 187.766 61.7698 187.606 61.9553L189.497 62.1792C189.7 61.9665 190.395 61.2523 190.566 61.0789C190.587 61.0599 190.609 61.0624 190.619 61.0959C190.961 62.0296 191.474 62.2518 191.881 62.472L192.917 62.5947C192.96 62.5998 192.917 62.5947 192.96 62.5998L194.168 61.2469C194.649 60.2061 193.623 59.256 193.623 59.256C194.627 59.1058 195.418 59.0165 195.525 59.0076L196.155 57.92Z" fill="#AE0F0A"/>
<path fill-rule="evenodd" clip-rule="evenodd" d="M180.114 61.0792C180.402 60.2309 180.605 60.9545 180.68 61.1463L184.399 61.5864C184.634 61.3452 185.35 60.6121 185.35 60.6121L180.915 60.0872C181.866 58.9944 180.798 57.9317 180.798 57.9317C180.562 57.7209 180.915 57.6873 180.915 57.6873C180.915 57.6873 182.283 57.4833 182.572 57.4314L183.149 56.3804C183.02 56.3975 179.782 56.8967 179.782 56.8967C179.782 56.8967 179.109 58.0331 179.237 58.0053C179.472 57.9578 181.653 58.9045 180.21 60.0037L178.852 59.843C178.083 59.5905 178.158 58.6954 178.158 58.6954C178.136 58.4669 177.976 58.4587 177.88 58.4796C177.837 58.4853 177.794 58.5125 177.762 58.5517L176.79 59.5989C176.79 59.5989 175.572 59.4547 175.486 59.4446L174.578 60.424L176.512 60.6529L177.474 59.6799C177.688 59.4361 177.73 59.7102 177.73 59.7102C178.008 60.4749 178.489 60.7363 178.927 60.9388L180.114 61.0792Z" fill="#AE0F0A"/>
<path d="M182.975 58.3677L183.542 57.8645L184.109 58.503L183.542 59.0063L182.975 58.3677Z" fill="#AE0F0A"/>
<path d="M183.513 59.3292L182.947 58.7026L182.391 59.1964L182.947 59.8326L183.513 59.3292L184.079 59.9666L184.635 59.4621L184.079 58.8367L183.513 59.3292Z" fill="#AE0F0A"/>
<path d="M200.061 61.0761L200.628 60.5718L201.195 61.2103L200.628 61.7136L200.061 61.0761Z" fill="#AE0F0A"/>
<path d="M202.428 64.4606L202.994 63.9562L203.561 64.5947L202.994 65.098L202.428 64.4606Z" fill="#AE0F0A"/>
<path fill-rule="evenodd" clip-rule="evenodd" d="M196.07 57.4471C195.985 57.4478 193.206 57.9045 193.206 57.9045L193.057 58.1881L195.996 57.7611L196.07 57.4471Z" fill="#AE0F0A"/>
<path fill-rule="evenodd" clip-rule="evenodd" d="M180.156 56.6288L182.946 56.2057L183.063 55.929C182.978 55.9296 180.252 56.3604 180.252 56.3604L180.156 56.6288Z" fill="#AE0F0A"/>
<path fill-rule="evenodd" clip-rule="evenodd" d="M187.082 58.1266C186.954 58.2082 186.313 58.7888 186.313 58.7888C188.664 59.8635 187.467 60.8625 187.467 60.8625L185.821 60.6677L184.891 61.6446L187.103 61.9065L188.311 60.6181C188.952 58.8537 187.082 58.1266 187.082 58.1266Z" fill="#AE0F0A"/>
<path fill-rule="evenodd" clip-rule="evenodd" d="M175.712 57.1789L175.979 56.8123L174.793 56.6719C174.793 56.6719 173.992 56.5878 173.682 57.3905C173.682 57.3905 173.564 57.5058 173.938 57.6361C174.312 57.7665 175.306 58.5298 174.398 59.3263L172.73 59.129C172.73 59.129 171.908 58.7302 172.314 57.9066C172.314 57.9066 171.918 57.8706 171.79 58.0814C171.662 58.2922 171.352 59.6223 172.891 60.2241L174.045 60.3607L175.263 59.0844C175.263 59.0844 175.584 58.0784 174.836 57.2796C174.836 57.2796 174.611 57.0486 174.911 57.084C175.21 57.1194 175.712 57.1789 175.712 57.1789Z" fill="#AE0F0A"/>
<path d="M171.521 62.408L172.398 62.5117L172.034 64.8363L172.569 64.8995L172.932 62.5749L173.809 62.6787L173.883 62.2032L171.596 61.9325L171.521 62.408Z" fill="#AE0F0A"/>
<path fill-rule="evenodd" clip-rule="evenodd" d="M176.726 63.3578C176.769 63.5459 176.769 63.7396 176.737 63.9618C176.705 64.184 176.641 64.3701 176.544 64.5417C176.448 64.7025 176.331 64.85 176.192 64.9627C176.053 65.0754 175.893 65.1532 175.711 65.2071C175.529 65.2609 175.347 65.2717 175.144 65.2477C174.941 65.2236 174.77 65.1711 174.61 65.0768C174.45 64.9825 174.321 64.8704 174.225 64.7299C174.118 64.5881 174.054 64.4299 174.012 64.2419C173.969 64.0539 173.969 63.8494 174.001 63.638C174.033 63.4265 174.097 63.2296 174.193 63.0581C174.289 62.8865 174.407 62.7497 174.546 62.637C174.696 62.5256 174.845 62.4465 175.027 62.3926C175.209 62.3388 175.401 62.3293 175.593 62.3521C175.796 62.3761 175.967 62.4286 176.128 62.5229C176.277 62.616 176.416 62.7293 176.512 62.8698C176.619 63.0116 176.694 63.1711 176.726 63.3578ZM176.224 63.4813C176.192 63.3592 176.16 63.2478 176.096 63.1541C176.031 63.0604 175.957 62.987 175.86 62.9325C175.764 62.8781 175.657 62.8439 175.54 62.83C175.422 62.8161 175.305 62.8237 175.198 62.8541C175.091 62.8845 174.995 62.9377 174.909 63.0137C174.824 63.0896 174.749 63.1884 174.685 63.2992C174.621 63.4207 174.578 63.5556 174.557 63.7037C174.535 63.8519 174.535 63.9918 174.557 64.1234C174.578 64.2443 174.61 64.3558 174.674 64.4494C174.738 64.5431 174.813 64.6165 174.909 64.671C175.005 64.7254 175.112 64.7596 175.23 64.7735C175.347 64.7874 175.465 64.7798 175.572 64.7494C175.679 64.719 175.775 64.6658 175.86 64.5898C175.946 64.5139 176.01 64.4246 176.074 64.303C176.138 64.1923 176.181 64.0574 176.202 63.8985C176.224 63.7396 176.224 63.5997 176.224 63.4813Z" fill="#AE0F0A"/>
<path d="M179.002 64.4339C178.981 64.5928 178.949 64.7182 178.906 64.8207C178.863 64.9125 178.81 64.9923 178.757 65.0398C178.692 65.086 178.628 65.1215 178.553 65.1341C178.479 65.1468 178.382 65.1462 178.286 65.1348C178.19 65.1234 178.105 65.1025 178.03 65.0722C177.955 65.0418 177.902 64.9924 177.859 64.9335C177.816 64.8747 177.784 64.7848 177.773 64.6867C177.763 64.5885 177.773 64.4499 177.795 64.291L178.041 62.6843L177.517 62.6223L177.271 64.229C177.26 64.3246 177.25 64.4202 177.239 64.5158C177.228 64.6114 177.228 64.7082 177.239 64.8064C177.25 64.9045 177.271 64.9931 177.303 65.083C177.335 65.1729 177.399 65.245 177.474 65.3185C177.549 65.3919 177.645 65.4463 177.763 65.5033C177.88 65.5495 178.03 65.5887 178.212 65.6102C178.436 65.6368 178.628 65.6273 178.778 65.5912C178.938 65.5563 179.066 65.4854 179.163 65.3892C179.27 65.2942 179.344 65.1739 179.398 65.0188C179.451 64.8637 179.505 64.6979 179.526 64.4959L179.772 62.8892L179.237 62.826L179.002 64.4339Z" fill="#AE0F0A"/>
<path fill-rule="evenodd" clip-rule="evenodd" d="M182.626 63.7116C182.658 63.8337 182.668 63.9534 182.647 64.0692C182.626 64.2496 182.561 64.382 182.455 64.4984C182.358 64.6162 182.23 64.6979 182.07 64.7435C182.123 64.7928 182.166 64.8517 182.209 64.9321C182.241 65.0005 182.273 65.0904 182.294 65.2005L182.465 66.0709L181.899 66.0039L181.749 65.2113C181.739 65.1563 181.717 65.0999 181.696 65.0543C181.674 65.0088 181.642 64.9619 181.6 64.9246C181.568 64.8885 181.525 64.8619 181.471 64.8341C181.429 64.8075 181.365 64.7891 181.311 64.7828L180.745 64.7158L180.574 65.847L180.039 65.7838L180.477 62.9838L181.749 63.1343C181.824 63.1432 181.899 63.1628 181.963 63.1704C182.027 63.178 182.091 63.1963 182.155 63.2147C182.219 63.233 182.273 63.2609 182.326 63.2887C182.38 63.3273 182.433 63.3659 182.476 63.414C182.561 63.4995 182.615 63.6027 182.626 63.7116ZM182.059 63.7198C181.984 63.6572 181.867 63.611 181.706 63.592L180.948 63.5022L180.83 64.2416L181.536 64.3251C181.632 64.3365 181.717 64.3358 181.781 64.3327C181.845 64.3295 181.91 64.3156 181.952 64.2883C182.006 64.2624 182.038 64.2231 182.07 64.1839C182.091 64.1326 182.113 64.0813 182.123 64.0072C182.134 63.8794 182.113 63.7907 182.059 63.7198Z" fill="#AE0F0A"/>
<path d="M183.022 66.1368L183.546 66.1988L183.984 63.3988L183.46 63.3368L183.022 66.1368Z" fill="#AE0F0A"/>
<path d="M186.409 63.869C186.323 63.7835 186.216 63.7063 186.099 63.6601C185.981 63.6032 185.842 63.5652 185.682 63.5462C185.532 63.5285 185.383 63.5323 185.255 63.5602C185.116 63.5868 184.998 63.6267 184.902 63.6906C184.795 63.7533 184.72 63.8306 184.645 63.9186C184.581 64.0078 184.539 64.1211 184.517 64.237C184.496 64.3421 184.506 64.451 184.528 64.5396C184.549 64.6282 184.592 64.7086 184.656 64.7808C184.72 64.8529 184.806 64.9169 184.923 64.9846C185.03 65.0403 185.169 65.0998 185.319 65.1605C185.458 65.2092 185.575 65.2447 185.661 65.2871C185.757 65.3308 185.832 65.3611 185.885 65.3997C185.939 65.4384 185.981 65.4757 186.003 65.5213C186.024 65.5669 186.024 65.6207 186.024 65.6745C186.013 65.727 185.992 65.7783 185.96 65.8283C185.928 65.8676 185.885 65.9055 185.821 65.9302C185.768 65.9562 185.703 65.9701 185.629 65.9828C185.554 65.9955 185.479 65.9866 185.393 65.9765C185.308 65.9664 185.233 65.9468 185.158 65.9164C185.084 65.886 185.019 65.8461 184.966 65.7968C184.913 65.7474 184.87 65.6885 184.838 65.6202C184.806 65.5518 184.784 65.4739 184.784 65.3878L184.25 65.3246C184.239 65.474 184.25 65.6044 184.293 65.7386C184.335 65.862 184.389 65.976 184.485 66.0735C184.571 66.1697 184.688 66.2589 184.827 66.3184C184.966 66.3779 185.137 66.4304 185.329 66.4532C185.49 66.4722 185.629 66.4671 185.768 66.4405C185.906 66.4139 186.024 66.3632 186.142 66.3018C186.248 66.2391 186.334 66.1524 186.409 66.0536C186.484 65.9549 186.526 65.8415 186.548 65.7149C186.569 65.6098 186.558 65.5117 186.548 65.4244C186.526 65.3357 186.494 65.2566 186.441 65.1965C186.398 65.1268 186.334 65.0655 186.27 65.0148C186.206 64.9642 186.12 64.9218 186.045 64.8806C185.96 64.8382 185.885 64.8079 185.8 64.7762C185.714 64.7446 185.629 64.7129 185.543 64.6813C185.447 64.6484 185.372 64.618 185.308 64.5889C185.244 64.5598 185.19 64.5319 185.148 64.4946C185.105 64.468 185.084 64.4332 185.062 64.3984C185.051 64.3648 185.041 64.3313 185.051 64.2895C185.062 64.1939 185.126 64.1154 185.222 64.073C185.319 64.0305 185.458 64.0147 185.629 64.0349C185.949 64.0729 186.12 64.233 186.142 64.5046L186.655 64.5653C186.665 64.4267 186.644 64.295 186.601 64.1823C186.548 64.0576 186.484 63.9532 186.409 63.869Z" fill="#AE0F0A"/>
<path d="M188.439 65.9603L188.086 63.8846L187.402 63.8036L186.964 66.6036L187.477 66.6644L187.755 64.8678L188.086 66.7365L188.535 66.7896L189.422 65.0651L189.144 66.8617L189.657 66.9224L190.095 64.1224L189.411 64.0414L188.439 65.9603Z" fill="#AE0F0A"/>
<path fill-rule="evenodd" clip-rule="evenodd" d="M194.915 65.1446C194.947 65.2453 194.958 65.3541 194.937 65.47C194.915 65.5858 194.873 65.6884 194.819 65.7682C194.755 65.8467 194.68 65.9239 194.573 65.9758C194.638 66.0157 194.691 66.0651 194.734 66.1132C194.787 66.1733 194.819 66.2309 194.841 66.2873C194.862 66.3436 194.873 66.4094 194.883 66.4753C194.883 66.5398 194.883 66.6152 194.873 66.6785C194.83 66.9532 194.702 67.1533 194.499 67.2799C194.296 67.3958 194.018 67.4382 193.654 67.3952L192.564 67.2662L193.002 64.4662L194.039 64.5889C194.189 64.6066 194.328 64.6446 194.445 64.6908C194.563 64.737 194.659 64.8022 194.734 64.8756C194.809 64.949 194.862 65.0307 194.915 65.1446ZM194.317 66.4298C194.306 66.3854 194.285 66.3399 194.242 66.3025C194.199 66.2759 194.146 66.2373 194.071 66.2177C194.007 66.1994 193.911 66.1772 193.793 66.1633L193.28 66.1026L193.163 66.842L193.718 66.9078C194.082 66.9508 194.274 66.8444 194.317 66.6019C194.328 66.5386 194.328 66.4848 194.317 66.4298ZM194.37 65.2846C194.36 65.2403 194.328 65.2042 194.296 65.1789C194.263 65.1535 194.21 65.1257 194.146 65.1073C194.082 65.089 194.007 65.0694 193.911 65.058L193.441 65.0023L193.344 65.6259L193.847 65.6853C194.007 65.7043 194.135 65.698 194.221 65.6543C194.306 65.6214 194.36 65.5416 194.381 65.4257C194.392 65.3732 194.392 65.3301 194.37 65.2846Z" fill="#AE0F0A"/>
<path fill-rule="evenodd" clip-rule="evenodd" d="M196.979 64.9259L197.695 67.8733L197.108 67.8037L196.926 66.9643L195.932 66.8467L195.515 67.6152L194.959 67.5495L196.488 64.8677L196.979 64.9259ZM196.83 66.5009L196.627 65.5729L196.167 66.4225L196.83 66.5009Z" fill="#AE0F0A"/>
<path d="M199.959 67.1945L198.997 65.1759L198.495 65.1164L198.057 67.9164L198.57 67.9771L198.858 66.1065L199.831 68.1264L200.333 68.1858L200.771 65.3858L200.258 65.3251L199.959 67.1945Z" fill="#AE0F0A"/>
<path d="M203.893 65.7551L203.166 65.6691L201.809 66.703L201.991 65.5299L201.456 65.4667L201.018 68.2667L201.552 68.3299L201.702 67.3683L202.065 67.0992L202.781 68.4754L203.465 68.5563L202.493 66.7732L203.893 65.7551Z" fill="#AE0F0A"/>
</svg>
