<svg width="247" height="241" viewBox="0 0 247 241" fill="none" xmlns="http://www.w3.org/2000/svg">
<g clip-path="url(#clip0_9665_1639)">
<path d="M110.607 185.299L109.221 180.202L103.495 180.464C102.965 179.342 102.35 178.278 101.655 177.283L104.686 172.393L100.955 168.676L96.126 171.787C95.1209 171.093 94.0596 170.483 92.9537 169.966L93.1513 164.196L88.0761 162.857L85.4416 167.974C84.2376 167.88 83.0152 167.889 81.7863 168.001L79.093 162.907L74.0321 164.303L74.2925 170.068C73.1788 170.603 72.1214 171.222 71.1333 171.921L66.2779 168.869L62.5873 172.626L65.6759 177.489C64.9862 178.502 64.3816 179.57 63.8672 180.683L58.1376 180.484L56.8066 185.595L61.8884 188.247C61.7942 189.46 61.8034 190.69 61.9146 191.93L56.8551 194.641L58.241 199.738L63.9667 199.476C64.4967 200.598 65.1118 201.662 65.8068 202.657L62.7757 207.547L66.5069 211.264L71.3361 208.153C72.3412 208.847 73.4026 209.457 74.5085 209.974L74.3109 215.744L79.3874 217.083L82.0219 211.965C83.2259 212.06 84.4483 212.051 85.6772 211.939L88.3705 217.033L93.4314 215.637L93.1709 209.872C94.286 209.337 95.3421 208.718 96.3302 208.019L101.186 211.071L104.876 207.314L101.788 202.451C102.477 201.438 103.082 200.37 103.596 199.256L109.326 199.455L110.657 194.343L105.575 191.691C105.669 190.478 105.66 189.248 105.549 188.01L110.608 185.299H110.607ZM87.3 203.089C80.1046 205.074 72.6737 200.808 70.704 193.563C68.7344 186.317 72.9694 178.834 80.1648 176.851C87.3602 174.867 94.7911 179.131 96.7608 186.379C98.7304 193.624 94.4954 201.107 87.3 203.091V203.089Z" fill="white"/>
<path d="M79.3887 217.373C79.3638 217.373 79.339 217.37 79.3154 217.364L74.2402 216.024C74.1093 215.99 74.019 215.869 74.0242 215.732L74.2153 210.155C73.218 209.678 72.2509 209.122 71.3348 208.501L66.6665 211.507C66.5527 211.581 66.4022 211.565 66.3066 211.469L62.5755 207.753C62.4786 207.656 62.4616 207.506 62.5336 207.39L65.4638 202.664C64.8448 201.759 64.2834 200.789 63.7926 199.774L58.2593 200.027C58.1245 200.035 58.0028 199.944 57.9661 199.813L56.5802 194.716C56.5449 194.584 56.6037 194.446 56.7241 194.382L61.6149 191.761C61.5232 190.638 61.5154 189.514 61.59 188.417L56.6783 185.853C56.5579 185.79 56.4964 185.652 56.5318 185.52L57.8627 180.409C57.8968 180.277 58.0224 180.184 58.1533 180.192L63.6918 180.384C64.1656 179.38 64.7165 178.406 65.3343 177.483L62.3491 172.781C62.2758 172.667 62.2915 172.516 62.387 172.419L66.0776 168.662C66.1732 168.564 66.3224 168.547 66.4375 168.62L71.1306 171.57C72.0297 170.947 72.9929 170.38 74.0007 169.888L73.7494 164.315C73.7428 164.179 73.8318 164.056 73.9627 164.02L79.0236 162.624C79.1544 162.589 79.2931 162.647 79.356 162.768L81.959 167.693C83.0754 167.6 84.1904 167.592 85.2793 167.669L87.826 162.722C87.8889 162.601 88.0263 162.539 88.1572 162.575L93.2324 163.914C93.3633 163.948 93.4536 164.07 93.4483 164.207L93.2573 169.784C94.2545 170.261 95.2217 170.816 96.1378 171.437L100.806 168.43C100.921 168.356 101.07 168.372 101.166 168.468L104.897 172.185C104.994 172.281 105.011 172.431 104.939 172.547L102.009 177.273C102.629 178.179 103.19 179.15 103.68 180.163L109.213 179.91C109.348 179.901 109.47 179.993 109.506 180.124L110.892 185.221C110.928 185.353 110.869 185.491 110.748 185.555L105.858 188.176C105.949 189.3 105.957 190.423 105.883 191.52L110.794 194.084C110.915 194.147 110.976 194.285 110.941 194.417L109.61 199.528C109.576 199.66 109.458 199.764 109.319 199.746L103.781 199.553C103.307 200.558 102.755 201.531 102.138 202.454L105.123 207.156C105.197 207.271 105.181 207.421 105.086 207.518L101.395 211.275C101.299 211.373 101.15 211.39 101.035 211.317L96.3419 208.368C95.4428 208.992 94.4796 209.557 93.4719 210.049L93.7232 215.623C93.7297 215.758 93.6407 215.881 93.5098 215.918L88.449 217.314C88.3181 217.348 88.1794 217.29 88.1166 217.169L85.5135 212.245C84.3972 212.337 83.2821 212.345 82.1933 212.268L79.6465 217.215C79.5955 217.314 79.4947 217.373 79.3887 217.373ZM74.6105 215.519L79.2382 216.739L81.7653 211.828C81.819 211.724 81.9315 211.664 82.0454 211.672C83.2246 211.765 84.4377 211.756 85.6522 211.645C85.7661 211.634 85.88 211.695 85.9349 211.799L88.5184 216.688L93.1316 215.416L92.8817 209.883C92.8764 209.766 92.9419 209.657 93.0466 209.607C94.1472 209.079 95.1955 208.464 96.1639 207.779C96.2595 207.71 96.3851 207.708 96.4846 207.77L101.144 210.699L104.507 207.274L101.543 202.607C101.48 202.508 101.483 202.382 101.548 202.285C102.226 201.289 102.827 200.228 103.333 199.132C103.382 199.025 103.484 198.955 103.607 198.963L109.103 199.154L110.317 194.494L105.44 191.948C105.337 191.894 105.275 191.783 105.284 191.666C105.377 190.477 105.368 189.255 105.258 188.034C105.248 187.917 105.308 187.805 105.411 187.75L110.267 185.149L109.004 180.502L103.51 180.754C103.395 180.763 103.285 180.693 103.235 180.588C102.712 179.48 102.1 178.424 101.42 177.45C101.353 177.354 101.349 177.227 101.411 177.127L104.32 172.435L100.919 169.048L96.2844 172.032C96.1862 172.095 96.0606 172.092 95.9637 172.027C94.9743 171.343 93.9208 170.739 92.8332 170.23C92.7272 170.182 92.6618 170.074 92.6657 169.956L92.8555 164.42L88.2278 163.199L85.7007 168.11C85.647 168.214 85.5371 168.279 85.4206 168.267C84.2414 168.173 83.0283 168.182 81.8138 168.293C81.6986 168.302 81.586 168.243 81.5311 168.139L78.9476 163.25L74.3344 164.523L74.5844 170.055C74.5896 170.172 74.5241 170.282 74.4194 170.332C73.3188 170.86 72.2705 171.475 71.3021 172.16C71.2065 172.228 71.0809 172.231 70.9814 172.169L66.3224 169.24L62.9589 172.665L65.9232 177.331C65.986 177.43 65.9834 177.556 65.918 177.654C65.2387 178.651 64.638 179.712 64.1329 180.807C64.0844 180.913 63.9824 180.99 63.8593 180.975L58.3627 180.784L57.1495 185.445L62.0258 187.991C62.1292 188.045 62.1907 188.155 62.1815 188.272C62.0886 189.462 62.0978 190.682 62.2077 191.904C62.2182 192.022 62.158 192.134 62.0546 192.189L57.1992 194.791L58.4621 199.437L63.9562 199.186C64.0727 199.175 64.1813 199.246 64.231 199.352C64.7545 200.459 65.3657 201.515 66.0462 202.49C66.113 202.586 66.1169 202.713 66.0554 202.813L63.1461 207.505L66.5475 210.892L71.1817 207.908C71.2798 207.845 71.4054 207.847 71.5023 207.913C72.4917 208.597 73.5452 209.201 74.6328 209.711C74.7388 209.76 74.8042 209.868 74.8003 209.985L74.6105 215.521V215.519ZM83.7114 203.87C81.3452 203.87 79.0105 203.253 76.8995 202.041C73.697 200.203 71.3989 197.22 70.4252 193.639C68.4163 186.25 72.7508 178.592 80.0902 176.569C83.6447 175.589 87.3667 176.062 90.5678 177.899C93.769 179.737 96.0684 182.72 97.0421 186.301C99.051 193.69 94.7165 201.348 87.3785 203.371C86.1666 203.706 84.9351 203.87 83.7127 203.87H83.7114ZM83.7533 176.653C82.582 176.653 81.4028 176.811 80.242 177.131C73.2128 179.07 69.0589 186.405 70.984 193.485C71.9159 196.914 74.1198 199.772 77.1861 201.533C80.2538 203.293 83.8174 203.746 87.224 202.807C94.2532 200.869 98.4071 193.534 96.482 186.454C95.5502 183.024 93.3463 180.167 90.2799 178.406C88.2579 177.246 86.02 176.653 83.7546 176.653H83.7533Z" fill="black"/>
<path d="M85.2361 9.51621C85.2034 9.51621 85.1694 9.51095 85.1367 9.49909C84.9861 9.44378 84.9089 9.27653 84.9626 9.12508L85.7321 6.99822C85.7871 6.84678 85.9546 6.76908 86.1038 6.82439C86.2543 6.8797 86.3315 7.04695 86.2779 7.1984L85.5083 9.32526C85.4651 9.44378 85.3539 9.51753 85.2361 9.51753V9.51621Z" fill="black"/>
<path d="M83.4431 14.4719C83.4104 14.4719 83.3764 14.4666 83.3437 14.4547C83.1932 14.3994 83.116 14.2322 83.1696 14.0807L83.9392 11.9539C83.9941 11.8024 84.1603 11.7234 84.3108 11.78C84.4613 11.8353 84.5385 12.0026 84.4849 12.154L83.7154 14.2809C83.6722 14.3994 83.5609 14.4732 83.4431 14.4732V14.4719Z" fill="black"/>
<path d="M83.3188 10.4157C83.2861 10.4157 83.2521 10.4104 83.2193 10.3986L81.1057 9.6242C80.9552 9.56889 80.878 9.40164 80.933 9.25019C80.988 9.09874 81.1542 9.02105 81.3047 9.07636L83.4183 9.85072C83.5688 9.90603 83.646 10.0733 83.591 10.2247C83.5478 10.3433 83.4366 10.417 83.3188 10.417V10.4157Z" fill="black"/>
<path d="M88.2435 12.2186C88.2108 12.2186 88.1768 12.2133 88.144 12.2015L86.0304 11.4271C85.8799 11.3718 85.8027 11.2045 85.8564 11.0531C85.9114 10.9016 86.0776 10.8239 86.2281 10.8792L88.3417 11.6536C88.4922 11.7089 88.5694 11.8762 88.5157 12.0276C88.4725 12.1461 88.3613 12.2199 88.2435 12.2199V12.2186Z" fill="black"/>
<path d="M29.0733 41.1333C28.6676 41.1333 28.2619 41.0569 27.8732 40.9055C27.0252 40.5736 26.3577 39.9217 25.9926 39.071C25.2466 37.3326 26.0201 35.294 27.7162 34.5275C28.5315 34.1588 29.4411 34.1351 30.2734 34.4604C31.1215 34.7922 31.7889 35.4441 32.1541 36.2949C32.9001 38.0332 32.1266 40.0718 30.4305 40.8383C29.996 41.0345 29.5353 41.1333 29.0733 41.1333ZM27.9518 35.0596C26.5436 35.6957 25.9036 37.3919 26.5239 38.8392C26.8276 39.5464 27.3798 40.0863 28.0826 40.3616C28.7697 40.6302 29.5183 40.6105 30.1923 40.3063C31.6005 39.6702 32.2405 37.974 31.6201 36.5266C31.3165 35.8194 30.7642 35.2795 30.0614 35.0043C29.3743 34.7356 28.6257 34.7554 27.9518 35.0596Z" fill="black"/>
<path d="M66.4872 18.3687C66.0815 18.3687 65.6758 18.2923 65.2871 18.1409C64.439 17.809 63.7716 17.1571 63.4065 16.3064C62.6618 14.568 63.4339 12.5294 65.1301 11.7629C65.9454 11.3942 66.855 11.3705 67.6873 11.6957C68.5354 12.0276 69.2028 12.6795 69.568 13.5302C70.3126 15.2686 69.5405 17.3072 67.8444 18.0737C67.4099 18.2699 66.9492 18.3687 66.4872 18.3687ZM66.4859 12.0513C66.1051 12.0513 65.7255 12.133 65.3669 12.295C63.9587 12.931 63.3188 14.6273 63.9391 16.0746C64.2414 16.7818 64.795 17.3217 65.4978 17.597C66.1849 17.8656 66.9335 17.8459 67.6075 17.5416C69.0157 16.9056 69.6556 15.2093 69.0353 13.762C68.733 13.0548 68.1794 12.5149 67.4766 12.2396C67.1547 12.1145 66.8209 12.0513 66.4859 12.0513Z" fill="black"/>
<path d="M47.8248 27.9652C47.7528 27.9652 47.6809 27.9389 47.6246 27.8849C47.5094 27.773 47.5055 27.5886 47.6154 27.4727L48.682 26.352C48.7933 26.2361 48.9765 26.2321 49.0917 26.3428C49.2068 26.4547 49.2108 26.6391 49.1008 26.755L48.0342 27.8757C47.9779 27.9349 47.9007 27.9652 47.8248 27.9652Z" fill="black"/>
<path d="M44.0909 31.8884C44.019 31.8884 43.947 31.8621 43.8907 31.8068C43.7755 31.6948 43.7716 31.5104 43.8815 31.3945L44.9482 30.2738C45.0594 30.1579 45.2426 30.1527 45.3578 30.2646C45.473 30.3766 45.4769 30.5609 45.3669 30.6768L44.3003 31.7975C44.2427 31.8568 44.1668 31.8871 44.0909 31.8871V31.8884Z" fill="black"/>
<path d="M45.138 28.0245C45.0647 28.0245 44.9914 27.9968 44.9351 27.9402L43.8515 26.8669C43.7376 26.7536 43.7363 26.5693 43.8489 26.4547C43.9614 26.3401 44.1446 26.3388 44.2585 26.4507L45.3421 27.5241C45.456 27.6373 45.4573 27.8217 45.3447 27.9363C45.2885 27.9942 45.2126 28.0232 45.138 28.0232V28.0245Z" fill="black"/>
<path d="M48.9293 31.7804C48.856 31.7804 48.7828 31.7528 48.7265 31.6961L47.6429 30.6228C47.529 30.5096 47.5277 30.3252 47.6402 30.2106C47.7528 30.096 47.936 30.0947 48.0499 30.2067L49.1335 31.28C49.2474 31.3932 49.2487 31.5776 49.1361 31.6922C49.0798 31.7501 49.0039 31.7791 48.9293 31.7791V31.7804Z" fill="black"/>
<path d="M204.637 225.206L199.205 225.604L98.4765 225.206C93.9012 225.206 90.6608 221.492 91.2379 216.912L117.378 9.4767C117.956 4.89638 122.132 1.18261 126.707 1.18261L227.538 0C239.112 0 240.683 4.89638 240.106 9.4767L213.965 216.912C213.388 221.492 209.212 225.206 204.637 225.206Z" fill="#CFCFD0"/>
<path d="M198.249 225.605H92.0886C87.5133 225.605 84.2729 221.873 84.85 217.27L110.991 8.80638C111.568 4.20236 115.744 0.471466 120.319 0.471466H226.479C231.054 0.471466 234.295 4.20367 233.718 8.80638L207.577 217.269C207 221.873 202.824 225.604 198.249 225.604V225.605Z" fill="white"/>
<path d="M199.302 219.772H92.5702C91.9774 219.772 91.4473 219.539 91.0756 219.115C90.7013 218.687 90.5365 218.121 90.611 217.52L115.571 18.4727C115.722 17.2704 116.817 16.2932 118.012 16.2932H224.744C225.335 16.2932 225.867 16.5263 226.238 16.9503C226.613 17.3783 226.778 17.9446 226.703 18.5465L201.744 217.594C201.594 218.796 200.498 219.774 199.303 219.774L199.302 219.772ZM90.9003 217.556L91.1882 217.593C91.1345 218.025 91.2484 218.429 91.5128 218.729C91.7719 219.026 92.1488 219.189 92.5715 219.189H199.303C200.217 219.189 201.053 218.441 201.17 217.52L226.127 18.4727C226.181 18.0408 226.066 17.6365 225.803 17.3362C225.543 17.0399 225.167 16.8766 224.744 16.8766H118.013C117.1 16.8766 116.263 17.6246 116.147 18.5452L91.1869 217.593L90.899 217.556H90.9003Z" fill="black"/>
<path d="M172.07 11.3652C171.162 11.3652 170.348 11.0083 169.781 10.3604C169.208 9.70584 168.955 8.83666 169.071 7.91349C169.305 6.05134 171.001 4.53554 172.853 4.53554C173.761 4.53554 174.574 4.89243 175.142 5.54036C175.715 6.19488 175.968 7.06406 175.851 7.98592C175.617 9.84807 173.921 11.3639 172.069 11.3639L172.07 11.3652ZM172.853 5.12026C171.282 5.12026 169.844 6.40691 169.646 7.98724C169.552 8.74184 169.754 9.44772 170.216 9.9745C170.671 10.4947 171.331 10.7818 172.07 10.7818C173.639 10.7818 175.079 9.49513 175.277 7.91481C175.371 7.1602 175.169 6.45432 174.707 5.92754C174.252 5.40735 173.592 5.12026 172.853 5.12026Z" fill="black"/>
<path d="M217.412 139.132C217.401 139.132 217.387 139.132 217.376 139.129C217.217 139.11 217.103 138.963 217.124 138.803L233.43 8.76818C233.699 6.61367 233.118 4.59348 231.793 3.08032C230.483 1.58428 228.595 0.761189 226.479 0.761189H120.319C115.893 0.761189 111.837 4.38541 111.279 8.84062L108.734 29.1281C108.715 29.2887 108.569 29.402 108.41 29.3809C108.25 29.3612 108.139 29.215 108.158 29.0543L110.703 8.76687C111.297 4.02983 115.61 0.176468 120.319 0.176468H226.479C228.764 0.176468 230.805 1.07067 232.227 2.69314C233.664 4.33405 234.296 6.51753 234.004 8.84062L217.699 138.875C217.681 139.023 217.556 139.131 217.411 139.131L217.412 139.132Z" fill="black"/>
<path d="M92.0899 225.896C89.8036 225.896 87.762 225.002 86.3394 223.379C84.9011 221.738 84.2703 219.556 84.5621 217.233L93.8999 142.764C93.9195 142.605 94.0635 142.49 94.2245 142.511C94.3841 142.531 94.4967 142.677 94.4757 142.838L85.138 217.307C84.8684 219.461 85.4494 221.482 86.7752 222.995C88.0852 224.491 89.9724 225.314 92.0886 225.314L199.266 225.014H199.267C199.427 225.014 199.557 225.143 199.558 225.303C199.558 225.464 199.43 225.596 199.27 225.597L92.0912 225.897L92.0899 225.896Z" fill="black"/>
<path d="M107.399 178.394C107.313 178.394 107.227 178.354 107.169 178.281C107.071 178.153 107.096 177.97 107.221 177.871L129.554 160.577C129.681 160.478 129.862 160.503 129.961 160.63C130.057 160.758 130.034 160.941 129.908 161.039L107.576 178.333C107.524 178.374 107.461 178.394 107.399 178.394Z" fill="black"/>
<path d="M133.306 158.333C133.219 158.333 133.133 158.294 133.075 158.22C132.979 158.092 133.002 157.909 133.128 157.81L142.591 150.483C142.718 150.385 142.9 150.409 142.998 150.535C143.095 150.663 143.071 150.846 142.946 150.945L133.482 158.272C133.43 158.313 133.367 158.333 133.306 158.333Z" fill="black"/>
<path d="M102.76 193.569C102.674 193.569 102.587 193.53 102.53 193.456C102.432 193.328 102.456 193.145 102.582 193.046L113.446 184.634C113.573 184.535 113.755 184.559 113.853 184.686C113.951 184.814 113.926 184.997 113.8 185.096L102.937 193.509C102.884 193.549 102.822 193.569 102.76 193.569Z" fill="black"/>
<path d="M118.73 181.2C118.644 181.2 118.558 181.161 118.5 181.087C118.402 180.959 118.427 180.776 118.552 180.678L137.949 165.657C138.076 165.559 138.258 165.583 138.356 165.709C138.453 165.837 138.429 166.02 138.304 166.119L118.907 181.14C118.855 181.181 118.792 181.2 118.73 181.2Z" fill="black"/>
<path d="M125.09 192.402C125.003 192.402 124.917 192.363 124.859 192.289C124.762 192.161 124.786 191.978 124.912 191.879L141.051 179.382C141.179 179.284 141.36 179.308 141.458 179.434C141.555 179.562 141.531 179.745 141.405 179.844L125.266 192.342C125.214 192.383 125.151 192.402 125.09 192.402Z" fill="black"/>
<path d="M78.0416 22.9303L161.19 23.15C164.838 23.1602 167.503 26.0985 167.144 29.7086L162.166 79.6286C161.804 83.2567 158.52 86.211 154.854 86.2008L71.7057 85.9801C68.058 85.9699 65.3921 83.0318 65.7516 79.4215L70.7301 29.5016C71.0917 25.8735 74.3755 22.9201 78.0416 22.9303Z" fill="white" stroke="black" stroke-width="0.5"/>
<path d="M98.284 124.324L46.8746 124.187C46.7294 124.187 46.6116 124.068 46.6116 123.921C46.6116 123.775 46.7294 123.657 46.8759 123.657L98.2854 123.794C98.4306 123.794 98.5484 123.914 98.5484 124.06C98.5484 124.206 98.4306 124.324 98.284 124.324Z" fill="black"/>
<path d="M90.4174 34.9476H84.6996C84.2585 34.9476 83.858 34.7725 83.5714 34.4538C83.2743 34.1232 83.1356 33.6821 83.1814 33.2119C83.273 32.2742 84.0884 31.5117 84.9992 31.5117H90.7171C91.1581 31.5117 91.5586 31.6869 91.8452 32.0056C92.1423 32.3361 92.281 32.7773 92.2352 33.2475C92.1436 34.1851 91.3283 34.9476 90.4174 34.9476ZM84.9979 31.8765C84.2677 31.8765 83.612 32.4915 83.5387 33.2488C83.5034 33.6162 83.6094 33.9573 83.8371 34.2115C84.0543 34.4525 84.3606 34.5855 84.6982 34.5855H90.4161C91.1463 34.5855 91.802 33.9705 91.8753 33.2132C91.9106 32.8458 91.8046 32.5047 91.5769 32.2505C91.3597 32.0095 91.0534 31.8765 90.7158 31.8765H84.9979Z" fill="black"/>
<path d="M107.093 73.5024H79.1688C78.7277 73.5024 78.3273 73.3272 78.0407 73.0085C77.7436 72.678 77.6049 72.2368 77.6507 71.7666C77.7423 70.829 78.5576 70.0665 79.4685 70.0665H107.393C107.834 70.0665 108.234 70.2416 108.521 70.5603C108.818 70.8909 108.957 71.332 108.911 71.8022C108.819 72.7399 108.004 73.5024 107.093 73.5024ZM79.4672 70.4313C78.7369 70.4313 78.0812 71.0463 78.0079 71.8035C77.9726 72.1709 78.0786 72.512 78.3063 72.7662C78.5236 73.0072 78.8298 73.1402 79.1675 73.1402H107.092C107.822 73.1402 108.478 72.5252 108.551 71.768C108.586 71.4005 108.48 71.0594 108.253 70.8053C108.035 70.5643 107.729 70.4313 107.391 70.4313H79.4672Z" fill="black"/>
<path d="M110.495 79.8566H78.0485C77.6075 79.8566 77.207 79.6814 76.9204 79.3627C76.6233 79.0322 76.4846 78.591 76.5304 78.1209C76.622 77.1832 77.4374 76.4207 78.3482 76.4207H110.794C111.235 76.4207 111.636 76.5959 111.922 76.9146C112.221 77.2451 112.359 77.6863 112.314 78.1564C112.222 79.0941 111.407 79.8566 110.496 79.8566H110.495ZM78.3469 76.7855C77.6167 76.7855 76.961 77.4005 76.8877 78.1577C76.8524 78.5252 76.9584 78.8663 77.1861 79.1204C77.4034 79.3614 77.7096 79.4944 78.0472 79.4944H110.493C111.223 79.4944 111.879 78.8794 111.952 78.1222C111.988 77.7548 111.882 77.4137 111.654 77.1595C111.437 76.9185 111.131 76.7855 110.793 76.7855H78.3469Z" fill="black"/>
<path d="M123.804 34.9476H99.3507C98.9096 34.9476 98.5092 34.7725 98.2226 34.4538C97.9255 34.1232 97.7867 33.6821 97.8326 33.2119C97.9242 32.2742 98.7395 31.5117 99.6504 31.5117H124.104C124.545 31.5117 124.945 31.6869 125.232 32.0056C125.529 32.3361 125.668 32.7773 125.622 33.2475C125.53 34.1851 124.715 34.9476 123.804 34.9476ZM99.6504 31.8765C98.9201 31.8765 98.2644 32.4915 98.1912 33.2488C98.1558 33.6162 98.2618 33.9573 98.4895 34.2115C98.7068 34.4525 99.013 34.5855 99.3507 34.5855H123.804C124.535 34.5855 125.19 33.9705 125.263 33.2132C125.299 32.8458 125.193 32.5047 124.965 32.2505C124.748 32.0095 124.442 31.8765 124.104 31.8765H99.6504Z" fill="black"/>
<path d="M164.617 56.9537L67.7188 57.3738C67.2673 57.3751 66.9139 56.9814 66.9637 56.5296L67.8353 48.6043C67.8654 48.3251 68.1009 48.1144 68.3797 48.1157L165.567 48.6385C165.903 48.6399 166.164 48.9375 166.122 49.2733L165.244 56.3927C165.205 56.7114 164.936 56.9511 164.617 56.9524V56.9537Z" fill="#E42F35"/>
<path d="M140.953 86.8219H132.677C132.374 86.8219 132.153 86.5348 132.183 86.1805L137.627 22.8897C137.657 22.5355 137.928 22.2484 138.232 22.2484H146.507C146.81 22.2484 147.032 22.5355 147.002 22.8897L141.557 86.1805C141.527 86.5348 141.256 86.8219 140.953 86.8219Z" fill="#E42F35"/>
<path d="M144.663 55.0771C147.73 62.3439 149.584 68.0213 150.006 70.2522C150.111 70.8066 149.763 71.3992 149.212 71.5757C148.378 71.843 147.554 71.9734 146.735 71.9813L142.598 55.6473L144.662 55.0757L144.663 55.0771Z" fill="black"/>
<path d="M146.736 72.163C146.653 72.163 146.581 72.1064 146.562 72.0261L142.425 55.6921C142.4 55.5959 142.456 55.4985 142.552 55.4721L144.616 54.9006C144.703 54.8769 144.794 54.9203 144.829 55.0046C147.91 62.3044 149.764 68.0081 150.184 70.2166C150.309 70.8698 149.906 71.5428 149.268 71.7469C148.437 72.0142 147.587 72.1525 146.739 72.1604H146.737L146.736 72.163ZM142.818 55.7764L146.876 71.7982C147.642 71.7772 148.408 71.6455 149.158 71.4045C149.618 71.257 149.919 70.7552 149.831 70.2877C149.417 68.1108 147.593 62.5007 144.559 55.2957L142.818 55.7777V55.7764Z" fill="black"/>
<path d="M143.887 55.2193C145.631 66.2605 147.405 71.8852 148.84 71.6955C142.882 72.9664 135.07 72.6556 126.617 71.6679C125.83 71.5757 125.311 70.8579 125.436 70.0335C126.138 65.4111 128.395 60.7004 131.628 55.9331L143.887 55.2193Z" fill="white"/>
<path d="M139.521 72.7201C135.833 72.7201 131.569 72.4291 126.596 71.8483C126.178 71.7996 125.809 71.5915 125.559 71.2609C125.295 70.9119 125.188 70.4668 125.257 70.0072C125.914 65.6732 127.949 61.0362 131.479 55.8317C131.51 55.7856 131.561 55.7566 131.617 55.7527L143.875 55.0389C143.967 55.0349 144.049 55.0994 144.063 55.1916C146.498 70.5998 148.321 71.5849 148.815 71.5164C148.914 71.5019 149 71.5691 149.017 71.6652C149.034 71.7614 148.971 71.8536 148.877 71.8733C146.232 72.437 143.155 72.7201 139.52 72.7201H139.521ZM131.727 56.1095C128.261 61.2377 126.261 65.8022 125.614 70.0612C125.559 70.4234 125.642 70.771 125.846 71.041C126.036 71.2925 126.317 71.4506 126.638 71.4888C136.101 72.595 142.981 72.645 148.199 71.6415C146.426 70.1731 144.822 62.2649 143.734 55.4116L131.727 56.1109V56.1095Z" fill="black"/>
<path d="M140.145 61.1152H140.144C140.044 61.1152 139.965 61.0323 139.966 60.9322L140.013 56.1701C140.013 56.07 140.094 55.991 140.194 55.991H140.195C140.294 55.991 140.374 56.074 140.373 56.1741L140.326 60.9361C140.326 61.0362 140.245 61.1152 140.145 61.1152Z" fill="black"/>
<path d="M133.991 60.782C133.973 60.782 133.954 60.7794 133.935 60.7728C133.841 60.7412 133.789 60.6385 133.82 60.5437L135.266 56.1148C135.298 56.02 135.4 55.9686 135.494 55.9989C135.588 56.0305 135.64 56.1332 135.609 56.2281L134.163 60.6569C134.138 60.7333 134.067 60.782 133.991 60.782Z" fill="black"/>
<path d="M144.977 50.0055C149.086 42.5898 151.767 36.8203 152.522 34.5644C152.709 34.0047 152.459 33.4239 151.947 33.2685C151.174 33.0341 150.387 32.9367 149.588 32.963L143.045 49.5156L144.976 50.0042L144.977 50.0055Z" fill="black"/>
<path d="M144.977 50.1873C144.963 50.1873 144.948 50.186 144.932 50.182L143.002 49.6934C142.952 49.6802 142.909 49.646 142.886 49.5999C142.862 49.5538 142.859 49.4985 142.879 49.4498L149.421 32.8972C149.448 32.83 149.512 32.7852 149.584 32.7826C150.415 32.7549 151.226 32.8603 152.001 33.096C152.274 33.179 152.5 33.3686 152.633 33.6307C152.785 33.9257 152.806 34.2879 152.693 34.6237C151.946 36.8559 149.262 42.6491 145.135 50.0951C145.103 50.153 145.042 50.1886 144.978 50.1886L144.977 50.1873ZM143.29 49.3905L144.887 49.7948C148.965 42.4279 151.612 36.711 152.35 34.5065C152.431 34.2628 152.418 34.0034 152.311 33.7953C152.222 33.6228 152.074 33.4964 151.895 33.4424C151.195 33.2304 150.461 33.1263 149.711 33.1421L143.289 49.3918L143.29 49.3905Z" fill="black"/>
<path d="M144.241 49.8936C147.635 38.747 150.23 33.0315 151.604 33.1645C145.974 32.132 138.289 32.7615 129.876 34.0969C129.093 34.2207 128.475 34.9621 128.471 35.7839C128.449 40.3919 129.937 45.0262 132.367 49.6763L144.241 49.8936Z" fill="white"/>
<path d="M144.241 50.0753H144.237L132.363 49.858C132.298 49.858 132.238 49.8198 132.208 49.7606C129.551 44.6798 128.27 40.1074 128.291 35.7826C128.295 34.8739 128.979 34.0548 129.847 33.9165C139.677 32.3572 146.6 32.0609 151.636 32.9854C151.731 33.0025 151.795 33.0921 151.782 33.1882C151.769 33.2843 151.685 33.3568 151.586 33.3436C151.112 33.2949 149.161 34.3537 144.413 49.9463C144.389 50.0226 144.32 50.074 144.24 50.074L144.241 50.0753ZM132.477 49.4972L144.108 49.7105C146.222 42.7847 149.004 34.7606 150.951 33.2369C146.01 32.4534 139.292 32.7865 129.902 34.276C129.203 34.3866 128.653 35.0504 128.649 35.7852C128.63 40.0218 129.881 44.5073 132.476 49.4972H132.477Z" fill="black"/>
<path d="M140.776 49.2707C140.768 49.2707 140.759 49.2707 140.75 49.2694C140.652 49.2549 140.582 49.1627 140.597 49.0639L141.278 44.2887C141.293 44.1899 141.382 44.1201 141.483 44.1346C141.581 44.1491 141.65 44.2413 141.636 44.3401L140.954 49.1153C140.941 49.2061 140.864 49.2707 140.776 49.2707Z" fill="black"/>
<path d="M136.127 49.4643C136.041 49.4643 135.965 49.4024 135.949 49.3128L135.212 44.9287C135.195 44.8299 135.262 44.7364 135.36 44.7193C135.46 44.7022 135.551 44.7694 135.568 44.8681L136.305 49.2522C136.322 49.351 136.256 49.4445 136.157 49.4616C136.147 49.4629 136.136 49.4643 136.127 49.4643Z" fill="black"/>
<path d="M133.281 49.3629H144.274C144.948 49.3629 145.44 49.9265 145.374 50.6219L144.965 54.8176C144.897 55.513 144.296 56.0766 143.621 56.0766H132.628C131.954 56.0766 131.462 55.513 131.529 54.8176L131.937 50.6219C132.005 49.9265 132.606 49.3629 133.281 49.3629Z" fill="white"/>
<path d="M143.621 56.2584H132.628C132.257 56.2584 131.92 56.1109 131.678 55.8422C131.428 55.5643 131.311 55.1943 131.349 54.7992L131.758 50.6034C131.833 49.8185 132.518 49.1798 133.281 49.1798H144.274C144.645 49.1798 144.982 49.3273 145.224 49.5946C145.474 49.8725 145.591 50.2426 145.553 50.6377L145.144 54.8334C145.069 55.6183 144.385 56.257 143.621 56.257V56.2584ZM133.281 49.5446C132.698 49.5446 132.175 50.0358 132.116 50.6403L131.708 54.8361C131.679 55.1284 131.764 55.3997 131.945 55.5999C132.117 55.7908 132.36 55.8962 132.627 55.8962H143.62C144.204 55.8962 144.726 55.405 144.785 54.8005L145.193 50.6047C145.222 50.3124 145.137 50.0411 144.956 49.8409C144.783 49.65 144.541 49.5446 144.274 49.5446H133.281Z" fill="black"/>
<path d="M237.885 94.8407C243.192 94.8552 247.084 99.1419 246.559 104.399L239.595 174.226C239.07 179.482 234.326 183.747 229.019 183.733L112.713 183.425C107.406 183.41 103.514 179.122 104.039 173.866L111.002 104.04C111.527 98.7837 116.271 94.5181 121.578 94.5326L237.885 94.8407Z" fill="white" stroke="black" stroke-width="0.5" stroke-miterlimit="10"/>
<path d="M138.887 111.691H130.889C130.272 111.691 129.711 111.446 129.31 111.001C128.894 110.539 128.7 109.922 128.764 109.264C128.891 107.953 130.033 106.887 131.307 106.887H139.305C139.921 106.887 140.483 107.132 140.883 107.577C141.299 108.039 141.493 108.655 141.429 109.314C141.302 110.624 140.161 111.691 138.886 111.691H138.887ZM131.307 107.394C130.285 107.394 129.369 108.255 129.267 109.313C129.217 109.826 129.365 110.304 129.685 110.658C129.989 110.997 130.417 111.183 130.89 111.183H138.889C139.911 111.183 140.827 110.321 140.929 109.264C140.979 108.75 140.831 108.272 140.512 107.918C140.207 107.579 139.779 107.394 139.306 107.394H131.309H131.307Z" fill="black"/>
<path d="M162.214 165.622H123.154C122.538 165.622 121.976 165.377 121.576 164.932C121.159 164.47 120.966 163.854 121.03 163.195C121.157 161.885 122.298 160.818 123.573 160.818H162.633C163.249 160.818 163.811 161.063 164.211 161.508C164.627 161.97 164.821 162.587 164.757 163.245C164.63 164.556 163.489 165.622 162.214 165.622ZM123.573 161.325C122.551 161.325 121.634 162.186 121.532 163.244C121.483 163.758 121.631 164.236 121.95 164.59C122.255 164.928 122.683 165.114 123.155 165.114H162.215C163.238 165.114 164.154 164.253 164.256 163.195C164.306 162.682 164.158 162.204 163.838 161.849C163.533 161.511 163.105 161.325 162.633 161.325H123.573Z" fill="black"/>
<path d="M166.971 174.51H121.587C120.971 174.51 120.41 174.265 120.009 173.82C119.593 173.358 119.399 172.742 119.463 172.083C119.59 170.773 120.731 169.706 122.006 169.706H167.39C168.007 169.706 168.568 169.951 168.969 170.396C169.385 170.858 169.58 171.475 169.516 172.133C169.389 173.444 168.247 174.51 166.973 174.51H166.971ZM122.005 170.213C120.983 170.213 120.067 171.074 119.965 172.132C119.915 172.646 120.063 173.124 120.382 173.478C120.687 173.816 121.115 174.002 121.587 174.002H166.971C167.994 174.002 168.91 173.141 169.012 172.083C169.061 171.57 168.914 171.092 168.593 170.737C168.289 170.4 167.86 170.214 167.388 170.214H122.004L122.005 170.213Z" fill="black"/>
<path d="M185.589 111.691H151.386C150.769 111.691 150.208 111.446 149.808 111.001C149.391 110.539 149.198 109.922 149.262 109.264C149.389 107.953 150.53 106.887 151.805 106.887H186.01C186.626 106.887 187.187 107.132 187.588 107.577C188.004 108.039 188.198 108.655 188.134 109.314C188.007 110.624 186.865 111.691 185.591 111.691H185.589ZM151.803 107.394C150.781 107.394 149.865 108.255 149.763 109.313C149.713 109.826 149.861 110.304 150.181 110.658C150.485 110.997 150.913 111.183 151.386 111.183H185.589C186.612 111.183 187.528 110.321 187.63 109.264C187.679 108.75 187.532 108.272 187.212 107.918C186.909 107.579 186.479 107.394 186.007 107.394H151.802H151.803Z" fill="black"/>
<path d="M16.1536 219.356L12.3111 232.076L6.69409 230.449L10.7799 217.079L16.1536 219.356Z" fill="white"/>
<path d="M12.3112 232.369C12.285 232.369 12.2575 232.365 12.2314 232.357L6.61432 230.728C6.53972 230.707 6.4769 230.655 6.43895 230.586C6.4023 230.517 6.39445 230.435 6.4167 230.36L10.5012 216.991C10.5248 216.912 10.5811 216.847 10.6557 216.812C10.7303 216.777 10.8153 216.776 10.8912 216.808L16.2662 219.085C16.4036 219.143 16.4743 219.295 16.4311 219.439L12.5887 232.159C12.5507 232.284 12.4355 232.366 12.3112 232.366V232.369ZM7.05797 230.25L12.1175 231.717L15.8016 219.523L10.9632 217.473L7.05928 230.25H7.05797Z" fill="black"/>
<path d="M12.8308 230.159L7.22811 228.372C6.83025 228.245 6.39706 228.371 6.13008 228.692C5.25062 229.749 3.34249 232.267 2.63055 235.007C2.43555 235.755 2.86219 236.525 3.59508 236.759L11.5561 239.3C13.3045 239.858 15.1093 240.223 16.9362 240.39C16.9362 240.39 22.819 241.014 22.8883 239.13C22.9878 236.422 19.0237 235.882 18.4923 235.335C16.4559 233.237 14.324 231.278 13.5414 230.569C13.3359 230.383 13.0964 230.245 12.8334 230.16L12.8308 230.159Z" fill="white"/>
<path d="M19.0053 240.785C17.974 240.785 17.1037 240.7 16.9048 240.679C15.0647 240.511 13.2338 240.14 11.4684 239.576L3.50737 237.036C2.62398 236.754 2.11619 235.83 2.35046 234.93C3.08727 232.103 5.08439 229.494 5.90889 228.502C6.25308 228.09 6.80536 227.928 7.31708 228.091L12.9197 229.878C13.2247 229.976 13.4995 230.134 13.7351 230.349C14.5517 231.089 16.6705 233.038 18.6991 235.126C18.7933 235.224 19.2134 235.385 19.5825 235.525C20.9566 236.05 23.2574 236.929 23.1775 239.136C23.1658 239.466 23.0231 239.752 22.7535 239.987C22.0128 240.634 20.3703 240.784 19.0066 240.784L19.0053 240.785ZM6.9153 228.614C6.70067 228.614 6.49389 228.708 6.35254 228.879C5.55291 229.839 3.6173 232.366 2.91059 235.08C2.75485 235.678 3.09381 236.293 3.68274 236.482L11.6437 239.022C13.3699 239.572 15.159 239.936 16.9624 240.099C18.1507 240.226 21.4317 240.372 22.374 239.55C22.5219 239.421 22.5925 239.284 22.5991 239.119C22.6645 237.33 20.687 236.575 19.3783 236.075C18.8509 235.873 18.4687 235.727 18.2855 235.539C16.2688 233.462 14.1604 231.523 13.3477 230.786C13.1736 230.628 12.9708 230.511 12.7457 230.439L7.14302 228.652C7.06842 228.629 6.99251 228.617 6.91791 228.617L6.9153 228.614Z" fill="black"/>
<path d="M12.5834 235.745C12.4983 235.745 12.4146 235.709 12.357 235.636C12.2575 235.511 12.2771 235.327 12.4015 235.227L15.6995 232.566C15.8238 232.466 16.007 232.486 16.1078 232.611C16.2072 232.736 16.1876 232.921 16.0633 233.021L12.7653 235.681C12.7116 235.724 12.6475 235.745 12.5847 235.745H12.5834Z" fill="black"/>
<path d="M14.3411 237.721C14.256 237.721 14.1722 237.684 14.1147 237.611C14.0152 237.485 14.0348 237.302 14.1592 237.201L17.4571 234.54C17.5815 234.44 17.7647 234.46 17.8642 234.585C17.9636 234.712 17.944 234.895 17.8197 234.996L14.5217 237.656C14.468 237.7 14.4039 237.721 14.3411 237.721Z" fill="black"/>
<path d="M47.9622 222.544L47.6939 231.623L41.3427 231.621L41.7876 222.141L47.9622 222.544Z" fill="white"/>
<path d="M47.6939 231.916L41.3427 231.913C41.2629 231.913 41.1883 231.88 41.1333 231.822C41.0783 231.764 41.0495 231.687 41.0535 231.608L41.4984 222.128C41.5023 222.049 41.5364 221.977 41.5953 221.924C41.6529 221.871 41.7275 221.848 41.8073 221.85L47.9819 222.253C48.1376 222.264 48.258 222.396 48.2528 222.554L47.9845 231.633C47.9792 231.791 47.851 231.916 47.6952 231.916H47.6939ZM41.6463 231.33L47.4126 231.332L47.6638 222.818L42.0638 222.452L41.6463 231.33Z" fill="black"/>
<path d="M47.4453 231.486L41.5482 231.484C41.1294 231.484 40.7525 231.738 40.5941 232.13C40.0706 233.422 39.004 236.441 39.1467 239.305C39.1859 240.087 39.8259 240.701 40.5967 240.701L57.9007 240.708C58.6964 240.708 59.3011 239.97 59.1427 239.177C58.9516 238.229 58.2947 236.981 56.397 235.859C53.3254 234.041 49.466 232.225 48.2489 231.663C47.9963 231.546 47.7228 231.486 47.4453 231.486Z" fill="white"/>
<path d="M57.9007 241L40.5967 240.993C39.6675 240.993 38.9032 240.259 38.8574 239.321C38.7109 236.364 39.8351 233.231 40.3258 232.022C40.53 231.519 41.009 231.194 41.5482 231.194L47.4453 231.197C47.7659 231.197 48.0761 231.265 48.3693 231.401C49.5013 231.924 53.4367 233.773 56.5436 235.611C58.5852 236.819 59.2382 238.187 59.4254 239.123C59.5183 239.586 59.4005 240.062 59.1034 240.427C58.8064 240.793 58.3679 241.003 57.9007 241.003V241ZM41.5469 231.776C41.2445 231.776 40.9763 231.959 40.8611 232.242C40.3847 233.416 39.2932 236.453 39.4346 239.292C39.466 239.919 39.9751 240.41 40.5954 240.41L57.8994 240.417C58.1926 240.417 58.4661 240.285 58.6532 240.056C58.8404 239.825 58.9137 239.528 58.8561 239.237C58.6205 238.062 57.7188 236.982 56.2478 236.112C53.1644 234.288 49.2513 232.449 48.1245 231.929C47.9086 231.829 47.6796 231.779 47.4427 231.779L41.5456 231.776H41.5469Z" fill="black"/>
<path d="M48.8011 236.968C48.7462 236.968 48.6912 236.952 48.6415 236.919C48.508 236.829 48.4713 236.649 48.559 236.514L50.9134 232.931C51.0024 232.797 51.1817 232.76 51.3152 232.848C51.4487 232.938 51.4853 233.118 51.3976 233.252L49.0432 236.836C48.987 236.92 48.8954 236.966 48.8011 236.966V236.968Z" fill="black"/>
<path d="M51.077 238.334C51.022 238.334 50.9671 238.319 50.9173 238.286C50.7839 238.196 50.7472 238.016 50.8349 237.881L53.1893 234.298C53.2783 234.164 53.4576 234.127 53.5911 234.215C53.7246 234.305 53.7612 234.485 53.6735 234.619L51.3191 238.203C51.2628 238.287 51.1712 238.333 51.077 238.333V238.334Z" fill="black"/>
<path d="M36.4231 145.69C36.4326 145.968 36.4292 146.483 36.3792 147.409C36.2387 150.009 35.7594 155.716 34.4036 168.143C33.0533 180.518 28.2296 195.034 23.7317 206.475C21.4843 212.191 19.3209 217.132 17.72 220.644C16.9196 222.399 16.2596 223.797 15.8 224.756C15.5703 225.235 15.391 225.605 15.2688 225.855C15.2307 225.933 15.1978 225.999 15.1711 226.053C14.5394 226.12 13.788 226.039 12.9895 225.857C12.1161 225.657 11.2134 225.344 10.3938 225.015C9.57516 224.685 8.84597 224.342 8.32153 224.079C8.06841 223.953 7.86387 223.844 7.71997 223.768C8.89815 217.913 11.3622 204.027 13.6116 190.617C15.8951 177.005 17.9672 163.846 18.2502 160.09C18.529 156.391 19.3874 152.73 20.179 149.988C20.5743 148.619 20.952 147.482 21.2307 146.688C21.3701 146.291 21.4842 145.979 21.5637 145.768C21.575 145.738 21.5851 145.71 21.595 145.684L36.4231 145.69Z" fill="#E6E7E8" stroke="black" stroke-width="0.75"/>
<path d="M46.0807 148.305C51.3342 161.335 51.9091 181.01 51.1471 197.522C50.7643 205.816 50.0453 213.294 49.4225 218.697C49.1112 221.399 48.8243 223.581 48.6149 225.088C48.5101 225.842 48.4249 226.427 48.3658 226.822C48.3424 226.98 48.322 227.107 48.3073 227.203C47.7011 227.402 46.9414 227.491 46.111 227.497C45.1926 227.505 44.2161 227.415 43.318 227.289C42.4211 227.164 41.6092 227.004 41.0211 226.876C40.7485 226.817 40.5244 226.763 40.3629 226.724C40.4939 221.795 39.206 210.401 37.3219 199.031C36.3585 193.218 35.2376 187.398 34.066 182.434C32.8968 177.479 31.6701 173.346 30.4899 170.925C28.2001 166.229 27.2783 160.538 26.9332 156C26.761 153.735 26.7337 151.766 26.7487 150.363C26.7562 149.662 26.7743 149.103 26.7906 148.72C26.7945 148.63 26.7979 148.55 26.8014 148.481L46.0807 148.305Z" fill="#E6E7E8" stroke="black" stroke-width="0.75"/>
<path d="M26.914 115.289L24.1526 112.206C22.9616 109.147 19.644 106.497 16.859 104.784C5.30558 97.6774 6.9284 84.1867 6.86035 78.724L2.46303 79.4102C2.46303 79.4102 -8.36014 107.741 18.2882 121.282L26.914 115.289Z" fill="white"/>
<path d="M18.2882 121.575C18.2437 121.575 18.1992 121.564 18.1573 121.543C4.27041 114.486 0.668797 103.371 0.0929568 95.2885C-0.529997 86.5493 2.16467 79.3759 2.19216 79.3048C2.23011 79.2074 2.31518 79.1376 2.41857 79.1204L6.81589 78.4343C6.89965 78.4211 6.98341 78.4448 7.04753 78.5002C7.11166 78.5555 7.14961 78.6345 7.14961 78.7188C7.15747 79.3022 7.14569 79.9593 7.13129 80.7192C7.02398 86.8522 6.82243 98.2674 17.0083 104.533C19.1912 105.877 23.0441 108.633 24.4013 112.048L27.1273 115.091C27.1836 115.153 27.2098 115.238 27.2006 115.32C27.1915 115.403 27.1457 115.479 27.0776 115.527L18.4518 121.521C18.4021 121.555 18.3445 121.572 18.2869 121.572L18.2882 121.575ZM2.67638 79.6722C2.29031 80.7627 0.104735 87.3658 0.672723 95.2688C1.2394 103.164 4.75726 114.011 18.2646 120.945L26.4769 115.239L23.9367 112.403C23.9131 112.377 23.8948 112.347 23.8817 112.314C22.6044 109.035 18.8379 106.346 16.7059 105.034C6.23612 98.594 6.44159 86.9602 6.55153 80.7113C6.562 80.0989 6.57116 79.555 6.57116 79.0651L2.67508 79.6722H2.67638Z" fill="black"/>
<path d="M4.00346 79.9527C3.7548 79.875 3.4996 79.7618 3.23916 79.6103C1.98409 78.8808 0.365196 76.5458 1.01694 75.0234C1.95006 72.8439 6.92846 73.3009 7.85897 75.2368C8.98709 77.5809 6.52276 80.7416 4.00346 79.9514V79.9527Z" fill="white"/>
<path d="M4.7991 80.3663C4.50333 80.3663 4.20625 80.3215 3.91702 80.2319C3.6435 80.1463 3.36605 80.0225 3.09383 79.8645C1.68695 79.0467 0.0471162 76.5511 0.749903 74.9102C1.17 73.9304 2.36225 73.3246 3.93927 73.289C5.56602 73.2614 7.52126 73.8672 8.11935 75.1117C8.70958 76.3364 8.4426 77.8865 7.43881 79.0585C6.71508 79.904 5.75578 80.3663 4.7991 80.3663ZM4.08977 79.6735C5.28464 80.0489 6.37743 79.4049 7.00038 78.6766C7.85237 77.681 8.08794 76.3799 7.59847 75.3645C7.17052 74.4769 5.6079 73.8316 3.95236 73.8711C2.6083 73.9014 1.60974 74.3755 1.28255 75.1393C0.725037 76.4405 2.17642 78.6556 3.38437 79.3575C3.61863 79.4944 3.85682 79.5998 4.08977 79.6735Z" fill="black"/>
<path d="M70.8205 105.771C82.8673 113.689 76.0528 138.592 57.4204 129.894L56.1915 117.276C72.2954 124.265 71.1895 114.678 67.0095 104.349L70.8205 105.771Z" fill="white"/>
<path d="M64.7597 132.01C62.4367 132.01 59.941 131.392 57.2987 130.158C57.2058 130.115 57.1416 130.025 57.1325 129.923L55.9036 117.305C55.8931 117.202 55.9389 117.102 56.0214 117.04C56.1038 116.98 56.2124 116.967 56.3067 117.009C62.387 119.648 66.3891 120.08 68.2017 118.293C70.1635 116.358 69.6727 111.704 66.7411 104.46C66.698 104.353 66.7215 104.229 66.8013 104.146C66.8812 104.063 67.0029 104.036 67.1102 104.076L70.9212 105.499C70.9408 105.507 70.9605 105.516 70.9788 105.528C77.6991 109.943 78.5681 119.522 75.1641 125.697C73.5779 128.573 71.2275 130.569 68.3666 131.469C67.2175 131.83 66.0135 132.01 64.7584 132.01H64.7597ZM57.6939 129.699C64.9953 133.046 71.3295 131.45 74.6576 125.414C77.9308 119.477 77.1141 110.281 70.6896 106.035L67.5238 104.853C70.3716 112.086 70.7262 116.623 68.6087 118.71C66.6312 120.661 62.6775 120.342 56.5291 117.738L57.6939 129.7V129.699Z" fill="black"/>
<path d="M68.1756 105.94C67.9034 105.854 67.6233 105.731 67.338 105.566C65.9626 104.767 64.1892 102.208 64.9025 100.542C65.9246 98.1542 71.3781 98.6546 72.3989 100.775C73.6356 103.343 70.9357 106.806 68.1743 105.94H68.1756Z" fill="white"/>
<path d="M69.0472 106.365C68.7252 106.365 68.4033 106.317 68.0892 106.219C67.7908 106.126 67.4898 105.991 67.194 105.819C65.6615 104.927 63.8738 102.21 64.6381 100.426C65.0935 99.3618 66.3905 98.7046 68.1075 98.6665C69.8717 98.6177 72.0101 99.2946 72.6619 100.647C73.3032 101.98 73.0126 103.666 71.9198 104.942C71.132 105.862 70.0889 106.365 69.0485 106.365H69.0472ZM68.2672 99.2485C68.2174 99.2485 68.1677 99.2485 68.1193 99.2499C66.6352 99.2828 65.5332 99.8082 65.1694 100.656C64.5543 102.094 66.1523 104.539 67.4832 105.313C67.7424 105.463 68.0041 105.58 68.2619 105.662C69.5838 106.078 70.7917 105.366 71.4801 104.561C72.4211 103.461 72.6802 102.025 72.1397 100.901C71.679 99.9465 70.0313 99.2472 68.2685 99.2472L68.2672 99.2485Z" fill="black"/>
<path d="M59.0302 117.584C59.0145 117.248 58.8574 116.936 58.597 116.724C57.6612 115.959 54.2742 114.256 51.361 112.579C48.1442 110.726 45.2938 109.564 41.5874 109.61L29.0433 108.925C25.5451 108.91 23.5349 108.25 20.6282 106.518C17.232 104.494 15.0805 101.635 14.2246 100.692C14.0675 100.519 13.7901 100.558 13.6828 100.766L6.36829 114.848C6.36829 114.848 12.0233 120.043 19.4804 125.817C19.7173 126.001 20.0314 131.744 19.9987 132.043L17.6626 153.464C17.4689 154.952 50.581 157.347 50.4855 155.795C50.1766 150.794 48.4347 146.637 49.1689 130.896C49.1951 130.331 49.7081 129.92 50.2591 130.027C51.8492 130.338 55.0451 130.95 58.275 131.502C59.0158 131.628 59.6819 131.032 59.6453 130.277L59.0288 117.586L59.0302 117.584Z" fill="#E42F35"/>
<path d="M46.0159 156.272C37.3849 156.272 19.3035 154.774 17.5472 153.592C17.3103 153.433 17.2802 153.255 17.2959 153.134L19.632 131.719C19.666 131.262 19.3572 126.336 19.1739 125.715C11.8163 120.017 6.1508 114.823 6.09452 114.771C5.99768 114.682 5.9715 114.538 6.03301 114.421L13.3475 100.339C13.443 100.156 13.6197 100.031 13.8226 100.005C14.0241 99.9796 14.2243 100.053 14.3604 100.204C14.4887 100.344 14.6444 100.527 14.829 100.743C15.8825 101.977 17.843 104.274 20.6973 105.974C23.7152 107.773 25.6482 108.326 28.9658 108.341L41.5244 109.026C45.3262 108.965 48.2316 110.192 51.4262 112.032C52.4954 112.647 53.6066 113.256 54.6823 113.843C56.5106 114.841 58.0889 115.704 58.7014 116.206C59.0234 116.469 59.221 116.86 59.2406 117.278L59.857 129.969C59.8793 130.418 59.7 130.847 59.365 131.145C59.0312 131.443 58.5876 131.57 58.1478 131.495C54.9061 130.941 51.7298 130.331 50.1253 130.018C49.9447 129.983 49.7654 130.026 49.6215 130.14C49.4775 130.255 49.3885 130.427 49.3807 130.613C48.8467 142.049 49.6306 147.405 50.2039 151.317C50.4237 152.815 50.6122 154.108 50.6973 155.479C50.7038 155.578 50.6776 155.764 50.4368 155.903C49.9958 156.159 48.352 156.268 46.0172 156.268L46.0159 156.272ZM17.8809 153.118C18.5641 153.615 24.3185 154.492 33.9377 155.182C43.5333 155.871 49.344 155.821 50.1096 155.424C50.0233 154.112 49.84 152.855 49.6267 151.405C49.0509 147.47 48.2617 142.081 48.7983 130.589C48.8153 130.234 48.9828 129.904 49.2603 129.685C49.5351 129.467 49.8898 129.38 50.2327 129.447C51.8345 129.761 55.0056 130.368 58.2421 130.921C58.5077 130.966 58.7747 130.89 58.9763 130.709C59.1778 130.529 59.2864 130.269 59.2733 129.998L58.6569 117.307C58.6451 117.054 58.5261 116.818 58.3311 116.659C57.7605 116.192 56.2044 115.342 54.401 114.357C53.3226 113.768 52.2075 113.158 51.1331 112.539C48.0798 110.781 45.3001 109.608 41.7141 109.608C41.6461 109.608 41.5767 109.608 41.5074 109.609L28.9436 108.924C25.5605 108.91 23.481 108.315 20.3963 106.476C17.4608 104.726 15.4598 102.383 14.384 101.124C14.2034 100.913 14.0516 100.734 13.9259 100.596C13.922 100.592 13.9129 100.581 13.8906 100.583C13.8801 100.584 13.8644 100.589 13.8553 100.608L6.64419 114.49C7.63097 115.385 12.9117 120.135 19.5731 125.291C20.0141 125.632 20.2078 131.726 20.2026 131.781L17.8757 153.117L17.8809 153.118ZM17.8731 153.196V153.204C17.8731 153.204 17.8731 153.198 17.8731 153.196Z" fill="black"/>
<path d="M32.2025 100.051L31.1843 110.175C31.0404 111.414 31.9761 112.514 33.2155 112.563L36.2177 112.68C37.4322 112.727 38.4386 111.745 38.4281 110.522L38.3548 100.853L32.2012 100.049L32.2025 100.051Z" fill="white"/>
<path d="M36.3041 112.975C36.2714 112.975 36.24 112.975 36.2073 112.972L33.205 112.855C32.5337 112.829 31.8989 112.519 31.4618 112.006C31.0247 111.492 30.8192 110.813 30.8964 110.141L31.9133 100.02C31.9212 99.9412 31.9604 99.8701 32.0219 99.8214C32.0835 99.7727 32.162 99.7503 32.2392 99.7608L38.3928 100.564C38.5368 100.583 38.6441 100.705 38.6454 100.851L38.7187 110.52C38.7239 111.192 38.4635 111.82 37.9845 112.288C37.5291 112.733 36.9349 112.975 36.3041 112.975ZM32.4617 100.38L31.4736 110.207C31.4134 110.73 31.5652 111.233 31.9029 111.629C32.2392 112.025 32.7103 112.255 33.2286 112.274L36.2308 112.392C36.7386 112.413 37.2176 112.227 37.5827 111.871C37.9466 111.516 38.1455 111.039 38.1416 110.528L38.0709 101.113L32.4643 100.381L32.4617 100.38Z" fill="black"/>
<path d="M37.0436 87.5857C34.6316 87.9136 34.3018 90.6542 31.42 90.9742C30.0994 91.1217 29.4359 90.6279 28.2659 91.1928C27.4912 91.5668 26.363 92.4689 26.2479 93.6621C26.1 95.1818 27.7568 95.5111 29.4477 98.4373C30.6347 100.493 30.7067 101.868 31.6516 102.018C32.607 102.168 33.0349 100.841 34.0911 100.926C35.4574 101.037 35.6354 103.334 37.0776 104.018C37.9871 104.45 39.89 104.361 42.5795 102.337C43.0153 102.009 43.1566 101.414 42.9145 100.924C42.6043 100.296 42.2078 99.504 41.7654 98.7797C39.6597 95.3267 38.173 94.7446 38.4661 93.6858C38.9163 92.0646 41.8741 92.3662 42.1018 91.0611C42.3387 89.706 39.5223 87.2486 37.0449 87.5857H37.0436Z" fill="black"/>
<path d="M33.7272 94.1876C33.7272 94.1876 35.846 98.6691 36.6587 99.7885C37.4727 100.908 41.1097 98.6362 41.1097 98.6362L41.1987 97.8289L41.6332 97.5444C41.768 97.4562 41.8557 97.3113 41.8727 97.1494C41.8884 96.9887 41.8321 96.828 41.7183 96.7148C40.8414 95.839 38.9804 93.8531 38.0761 91.9198C38.0761 91.9198 35.617 91.2903 33.7272 94.1889V94.1876Z" fill="white"/>
<path d="M37.4296 100.388C37.0056 100.388 36.647 100.268 36.4245 99.961C35.6039 98.8324 33.5518 94.497 33.4642 94.314C33.421 94.2218 33.4275 94.1138 33.4838 94.0282C35.4652 90.9913 38.0382 91.6077 38.1468 91.6366C38.2305 91.6577 38.3012 91.7157 38.3379 91.7947C39.2357 93.7161 41.1438 95.7297 41.9212 96.5067C42.0991 96.6845 42.1855 96.9294 42.1607 97.1783C42.1358 97.4285 42.001 97.6511 41.7916 97.7881L41.471 97.9975L41.3964 98.6678C41.3872 98.7573 41.3362 98.8363 41.2616 98.8838C40.7708 99.1906 38.7684 100.386 37.4283 100.386L37.4296 100.388ZM34.0596 94.2126C34.4352 94.9988 36.1876 98.6454 36.893 99.6173C37.3275 100.214 39.4555 99.3025 40.8375 98.4623L40.9108 97.7973C40.92 97.7104 40.9684 97.6327 41.0404 97.5852L41.4749 97.3008C41.5364 97.26 41.5757 97.1954 41.5835 97.1217C41.5914 97.0479 41.5652 96.9755 41.5128 96.9228C40.5418 95.9536 38.7998 94.0677 37.8772 92.1792C37.3838 92.1055 35.5712 92.008 34.0583 94.2139L34.0596 94.2126Z" fill="black"/>
<path d="M34.4929 97.8302C34.4929 97.8302 32.8203 95.7692 32.0495 96.7332C31.2786 97.6972 33.1763 99.9189 34.4929 97.8302Z" fill="white"/>
<path d="M40.7584 70.7977C45.5181 66.008 45.5181 58.2425 40.7583 53.4528C35.9986 48.6632 28.2814 48.6632 23.5217 53.4528C18.7619 58.2425 18.7619 66.008 23.5217 70.7977C28.2814 75.5873 35.9986 75.5873 40.7584 70.7977Z" fill="white"/>
<path d="M32.1397 74.681C25.2597 74.681 19.661 69.0485 19.661 62.124C19.661 55.1995 25.2584 49.567 32.1397 49.567C39.021 49.567 44.6184 55.1995 44.6184 62.124C44.6184 69.0485 39.021 74.681 32.1397 74.681ZM32.1397 50.1517C25.5791 50.1517 20.2421 55.5222 20.2421 62.124C20.2421 68.7258 25.5791 74.0963 32.1397 74.0963C38.7004 74.0963 44.0374 68.7258 44.0374 62.124C44.0374 55.5222 38.7004 50.1517 32.1397 50.1517Z" fill="black"/>
<path d="M32.2078 68.2939C32.0874 68.3689 31.9356 68.3729 31.8126 68.3031C30.7381 67.6986 25.7558 64.6776 25.9508 60.7267C26.1562 56.5507 30.6609 57.275 31.7733 59.3295C31.8152 59.4072 31.8989 59.4546 31.9866 59.4493C32.0743 59.444 32.1528 59.39 32.1855 59.3071C32.7313 57.9875 34.4928 57.0314 36.1523 57.6583C38.1311 58.4063 40.1426 63.3461 32.2091 68.2939H32.2078Z" fill="#E42F35"/>
<path d="M217.832 170.057C221.916 170.057 225.471 166.736 225.773 162.639C226.074 158.543 223.008 155.222 218.924 155.222C214.839 155.222 211.284 158.543 210.983 162.639C210.681 166.736 213.748 170.057 217.832 170.057Z" fill="white"/>
<path d="M229.979 162.639C230.207 159.552 229.202 156.592 227.187 154.409C225.171 152.226 222.31 151 219.232 151C216.155 151 213.113 152.226 210.777 154.409C208.44 156.592 207 159.552 206.772 162.639C206.73 163.206 206.73 163.773 206.771 164.334C206.984 167.242 208.298 169.881 210.449 171.72C212.6 173.559 215.43 174.462 218.369 174.247C221.307 174.033 224.138 172.717 226.292 170.563C228.446 168.41 229.763 165.579 229.979 162.639ZM210.463 164.334C210.385 163.776 210.367 163.208 210.409 162.638C210.45 162.095 210.544 161.553 210.691 161.02C211.241 159.086 212.476 157.371 214.156 156.208C215.836 155.044 217.842 154.514 219.788 154.72C221.733 154.926 223.48 155.853 224.692 157.323C225.903 158.792 226.493 160.7 226.348 162.677C226.202 164.655 225.331 166.562 223.904 168.032C222.476 169.501 220.592 170.428 218.616 170.634C216.64 170.84 214.712 170.31 213.203 169.147C211.695 167.983 210.713 166.269 210.447 164.334H210.463Z" fill="#ED2027"/>
<path d="M226.42 162.637C226.537 161.04 226.18 159.48 225.394 158.152C224.607 156.825 223.426 155.79 222.001 155.18C220.576 154.569 218.969 154.409 217.385 154.721C215.802 155.032 214.311 155.801 213.103 156.93C211.895 158.059 211.023 159.498 210.597 161.064C210.172 162.629 210.212 164.252 210.713 165.727C211.214 167.202 212.153 168.462 213.411 169.349C214.67 170.235 216.191 170.708 217.782 170.708C219.916 170.707 222.024 169.856 223.644 168.343C225.264 166.829 226.262 164.777 226.42 162.637ZM212.838 162.637C212.977 161.185 213.676 159.803 214.785 158.788C215.895 157.772 217.327 157.203 218.775 157.203C220.223 157.203 221.571 157.772 222.531 158.788C223.491 159.803 223.987 161.185 223.912 162.637" fill="#1ECAD3"/>
<path d="M218.057 166.377C220.092 166.377 221.863 164.722 222.014 162.681C222.164 160.639 220.636 158.985 218.601 158.985C216.566 158.985 214.794 160.639 214.644 162.681C214.494 164.722 216.022 166.377 218.057 166.377Z" fill="#ED2027"/>
<circle cx="129" cy="135" r="2" fill="#1B1B1B"/>
<circle cx="134" cy="135" r="2" fill="#1B1B1B"/>
<circle cx="139" cy="135" r="2" fill="#1B1B1B"/>
<circle cx="144" cy="135" r="2" fill="#1B1B1B"/>
<circle cx="156" cy="135" r="2" fill="#1B1B1B"/>
<circle cx="161" cy="135" r="2" fill="#1B1B1B"/>
<circle cx="166" cy="135" r="2" fill="#1B1B1B"/>
<circle cx="171" cy="135" r="2" fill="#1B1B1B"/>
<circle cx="183" cy="135" r="2" fill="#1B1B1B"/>
<circle cx="188" cy="135" r="2" fill="#1B1B1B"/>
<circle cx="193" cy="135" r="2" fill="#1B1B1B"/>
<circle cx="198" cy="135" r="2" fill="#1B1B1B"/>
<circle cx="210" cy="135" r="2" fill="#1B1B1B"/>
<circle cx="215" cy="135" r="2" fill="#1B1B1B"/>
<circle cx="220" cy="135" r="2" fill="#1B1B1B"/>
<circle cx="225" cy="135" r="2" fill="#1B1B1B"/>
</g>
<defs>
<clipPath id="clip0_9665_1639">
<rect width="247" height="241" fill="white"/>
</clipPath>
</defs>
</svg>
