<svg width="272" height="244" viewBox="0 0 272 244" fill="none" xmlns="http://www.w3.org/2000/svg">
<path d="M136.144 24.3306L134.03 23.0811C133.689 22.8801 133.491 22.5018 133.529 22.1105C133.569 21.6968 133.592 21.283 133.597 20.8717C133.602 20.4792 133.84 20.1269 134.199 19.9638L136.431 18.9483C136.87 18.7485 137.111 18.2733 137.011 17.804L136.602 15.8925C136.502 15.4232 136.087 15.0851 135.603 15.078L133.141 15.0437C132.743 15.0378 132.382 14.8073 132.217 14.4479C132.046 14.0767 131.858 13.7114 131.657 13.3556C131.462 13.0104 131.486 12.586 131.716 12.2633L133.139 10.2714C133.419 9.88007 133.387 9.3481 133.065 8.99109L131.748 7.53706C131.424 7.18005 130.895 7.09257 130.473 7.32663L128.33 8.51587C127.982 8.70856 127.555 8.68728 127.23 8.45913C126.895 8.22388 126.549 8.00046 126.191 7.79122C125.848 7.58907 125.654 7.20842 125.69 6.81476L125.918 4.38545C125.963 3.90787 125.668 3.4622 125.209 3.31325L123.337 2.70681C122.878 2.55786 122.375 2.74464 122.128 3.15721L120.872 5.25315C120.669 5.59124 120.288 5.78866 119.894 5.74965C119.477 5.70946 119.06 5.68582 118.646 5.6799C118.25 5.67399 117.895 5.43875 117.73 5.08174L116.703 2.8664C116.501 2.43019 116.022 2.19021 115.549 2.28951L113.623 2.69262C113.149 2.79192 112.809 3.20331 112.803 3.68208L112.771 6.12439C112.767 6.51686 112.538 6.87624 112.177 7.03937C111.8 7.21078 111.429 7.39756 111.066 7.59971C110.721 7.79122 110.294 7.76403 109.97 7.53587L107.962 6.12203C107.568 5.84422 107.031 5.87496 106.672 6.19532L105.209 7.50041C104.849 7.82077 104.762 8.34564 104.999 8.76531L106.2 10.8932C106.395 11.2372 106.374 11.6627 106.143 11.9843C105.906 12.3165 105.682 12.6605 105.472 13.0139C105.269 13.3544 104.885 13.5471 104.488 13.5093L102.039 13.2811C101.557 13.2362 101.11 13.5282 100.96 13.9845L100.35 15.8404C100.201 16.2968 100.389 16.7956 100.805 17.0403L102.919 18.2899C103.26 18.492 103.458 18.8691 103.421 19.2604C103.38 19.6741 103.357 20.0879 103.352 20.4981C103.347 20.8906 103.109 21.2429 102.75 21.406L100.518 22.4215C100.079 22.6212 99.838 23.0965 99.9384 23.5658L100.347 25.4773C100.447 25.9466 100.862 26.2847 101.346 26.2918L103.807 26.3261C104.202 26.332 104.565 26.559 104.729 26.916C104.902 27.2919 105.091 27.6595 105.295 28.0189C105.488 28.3617 105.461 28.7861 105.232 29.1053L103.809 31.096C103.529 31.4873 103.561 32.0193 103.883 32.3763L105.2 33.8292C105.524 34.1862 106.053 34.2736 106.475 34.0396L108.618 32.8503C108.966 32.6577 109.393 32.6789 109.718 32.9071C110.053 33.1423 110.399 33.3658 110.757 33.575C111.101 33.7771 111.294 34.1578 111.258 34.5515L111.03 36.9808C110.985 37.4584 111.28 37.904 111.739 38.053L113.611 38.6594C114.07 38.8084 114.573 38.6216 114.82 38.209L116.076 36.1131C116.279 35.775 116.66 35.5776 117.054 35.6166C117.471 35.6568 117.888 35.6804 118.302 35.6863C118.698 35.6922 119.053 35.9275 119.219 36.2845L120.245 38.4998C120.447 38.936 120.926 39.176 121.399 39.0767L123.325 38.6736C123.799 38.5743 124.139 38.1629 124.145 37.6841L124.177 35.2418C124.181 34.847 124.414 34.4888 124.777 34.3245C125.151 34.1542 125.518 33.9698 125.877 33.7701C126.224 33.5774 126.653 33.601 126.978 33.8303L128.986 35.2442C129.38 35.522 129.917 35.4913 130.276 35.1709L131.739 33.8658C132.099 33.5454 132.186 33.0206 131.949 32.6009L130.748 30.473C130.553 30.129 130.574 29.7035 130.805 29.3819C131.042 29.0497 131.266 28.7057 131.476 28.3523C131.68 28.0118 132.063 27.8191 132.46 27.857L134.909 28.0851C135.391 28.13 135.839 27.838 135.988 27.3817L136.598 25.5258C136.748 25.0695 136.559 24.5718 136.143 24.3259L136.144 24.3306ZM117.989 29.058C113.329 28.7873 109.767 24.82 110.035 20.1955C110.303 15.5721 114.298 12.0434 118.959 12.3141C123.619 12.5848 127.181 16.5521 126.913 21.1767C126.645 25.8 122.65 29.3287 117.989 29.058Z" fill="#E42F35"/>
<path d="M121.18 39.364C120.683 39.364 120.223 39.0791 120.007 38.6133L118.982 36.398C118.858 36.1296 118.589 35.9547 118.299 35.9499C117.878 35.944 117.451 35.9204 117.029 35.879C116.739 35.8518 116.452 35.996 116.3 36.2502L115.042 38.3461C114.73 38.8651 114.108 39.098 113.53 38.91L111.658 38.3036C111.078 38.1156 110.712 37.5636 110.769 36.9595L110.997 34.5302C111.024 34.237 110.877 33.9521 110.624 33.802C110.26 33.588 109.904 33.3598 109.567 33.1222C109.326 32.952 109.002 32.9355 108.743 33.0797L106.599 34.2689C106.068 34.5633 105.414 34.4557 105.006 34.0053L103.69 32.5513C103.281 32.0997 103.242 31.4389 103.597 30.9447L105.019 28.954C105.191 28.7152 105.21 28.3984 105.068 28.1466C104.862 27.7848 104.67 27.4077 104.493 27.0235C104.371 26.7611 104.101 26.5885 103.802 26.5838L101.341 26.5495C100.732 26.5412 100.218 26.1216 100.092 25.5293L99.6834 23.6178C99.5559 23.0243 99.8558 22.4345 100.41 22.1815L102.641 21.166C102.911 21.0431 103.088 20.7783 103.091 20.491C103.097 20.0737 103.121 19.6505 103.161 19.2308C103.189 18.9436 103.042 18.661 102.785 18.5097L100.672 17.2602C100.147 16.9505 99.9125 16.331 100.101 15.7541L100.711 13.897C100.9 13.3213 101.458 12.9607 102.062 13.0163L104.511 13.2456C104.809 13.2728 105.096 13.1274 105.247 12.8756C105.46 12.5174 105.69 12.1652 105.931 11.8271C106.1 11.5894 106.116 11.2715 105.972 11.0149L104.772 8.88707C104.473 8.35746 104.581 7.70492 105.036 7.29944L106.5 5.99436C106.952 5.59124 107.616 5.55342 108.112 5.90333L110.121 7.31718C110.364 7.48859 110.686 7.5075 110.94 7.36564C111.305 7.1635 111.685 6.97081 112.07 6.79585C112.335 6.67645 112.508 6.40811 112.512 6.11493L112.544 3.67262C112.552 3.06618 112.973 2.55549 113.57 2.43137L115.496 2.02826C116.091 1.90295 116.685 2.20085 116.94 2.75055L117.966 4.96589C118.09 5.23424 118.358 5.40919 118.649 5.41392C119.07 5.41983 119.497 5.44348 119.919 5.48485C120.207 5.51322 120.496 5.36664 120.649 5.11366L121.905 3.01889C122.217 2.49875 122.839 2.26705 123.418 2.45501L125.289 3.06145C125.869 3.24941 126.235 3.80148 126.178 4.40555L125.95 6.83486C125.923 7.12803 126.07 7.41411 126.323 7.56306C126.687 7.77703 127.044 8.00519 127.38 8.2428C127.621 8.41303 127.946 8.42957 128.205 8.28535L130.348 7.09612C130.879 6.80176 131.534 6.90934 131.941 7.35973L133.257 8.81377C133.666 9.26535 133.705 9.92617 133.35 10.4203L131.928 12.4122C131.756 12.651 131.739 12.9702 131.883 13.2244C132.087 13.5861 132.278 13.9597 132.452 14.3356C132.575 14.6016 132.846 14.7765 133.144 14.7801L135.606 14.8143C136.215 14.8226 136.729 15.2423 136.855 15.8345L137.264 17.7461C137.391 18.3395 137.091 18.9294 136.537 19.1824L134.306 20.1978C134.036 20.3208 133.859 20.5856 133.856 20.8728C133.85 21.2901 133.826 21.7133 133.786 22.133C133.758 22.4203 133.905 22.7028 134.162 22.8541L136.275 24.1036C136.8 24.4134 137.035 25.0328 136.846 25.6097L136.236 27.4669C136.047 28.0426 135.49 28.4043 134.885 28.3475L132.437 28.1182C132.138 28.091 131.851 28.2364 131.7 28.4882C131.485 28.85 131.255 29.2022 131.016 29.5368C130.847 29.7744 130.831 30.0924 130.975 30.3489L132.176 32.4768C132.474 33.0064 132.366 33.6589 131.911 34.0644L130.448 35.3695C129.996 35.7726 129.332 35.8104 128.835 35.4605L126.827 34.0467C126.584 33.8753 126.26 33.8575 126.001 34.0006C125.636 34.2039 125.26 34.393 124.882 34.5644C124.614 34.6862 124.439 34.9546 124.434 35.2477L124.402 37.69C124.394 38.2965 123.973 38.8072 123.376 38.9313L121.45 39.3344C121.359 39.3533 121.268 39.3628 121.179 39.3628L121.18 39.364ZM116.957 35.3565C116.998 35.3565 117.039 35.3589 117.079 35.3624C117.486 35.4014 117.9 35.4251 118.306 35.431C118.796 35.4381 119.247 35.7312 119.455 36.1804L120.48 38.3958C120.632 38.7244 120.987 38.9017 121.345 38.8273L123.271 38.4242C123.628 38.3497 123.879 38.0459 123.884 37.6853L123.916 35.243C123.922 34.7489 124.218 34.2973 124.668 34.0928C125.033 33.9273 125.397 33.744 125.75 33.5478C126.181 33.309 126.721 33.3374 127.126 33.6223L129.135 35.0361C129.434 35.2466 129.832 35.2241 130.102 34.9817L131.565 33.6767C131.835 33.4367 131.899 33.0489 131.722 32.7345L130.521 30.6066C130.278 30.1751 130.306 29.6373 130.592 29.2365C130.822 28.9138 131.044 28.5733 131.252 28.2246C131.505 27.8002 131.989 27.5579 132.484 27.6028L134.933 27.8321C135.296 27.8688 135.628 27.6501 135.742 27.3073L136.351 25.4513C136.463 25.1085 136.324 24.7408 136.011 24.5564L133.897 23.3069C133.469 23.0527 133.222 22.5739 133.269 22.0869C133.308 21.6826 133.332 21.2724 133.336 20.8705C133.343 20.3822 133.639 19.9342 134.091 19.7285L136.323 18.7131C136.653 18.5629 136.831 18.2118 136.756 17.8596L136.347 15.948C136.272 15.5946 135.964 15.3439 135.599 15.3392L133.137 15.3049C132.641 15.2978 132.186 15.0047 131.98 14.5578C131.812 14.1949 131.626 13.8332 131.429 13.4844C131.186 13.0541 131.216 12.5163 131.504 12.1131L132.927 10.1212C133.137 9.82805 133.113 9.43558 132.87 9.16842L131.553 7.71438C131.309 7.44485 130.916 7.37983 130.598 7.55715L128.455 8.74639C128.023 8.98637 127.482 8.95799 127.079 8.67428C126.753 8.44494 126.41 8.22388 126.058 8.01701C125.63 7.76639 125.384 7.28526 125.43 6.79112L125.658 4.36181C125.692 4.00362 125.473 3.6738 125.126 3.5615L123.255 2.95506C122.906 2.84276 122.534 2.98107 122.349 3.29197L121.093 5.38673C120.837 5.81231 120.357 6.05937 119.867 6.00854C119.458 5.96953 119.046 5.94589 118.64 5.93998C118.15 5.93288 117.699 5.63971 117.491 5.1905L116.465 2.97516C116.313 2.64652 115.957 2.4692 115.599 2.54367L113.674 2.94678C113.317 3.02126 113.065 3.32507 113.061 3.68562L113.029 6.12676C113.023 6.62207 112.729 7.07247 112.281 7.2758C111.908 7.44485 111.541 7.63044 111.189 7.8255C110.762 8.06429 110.222 8.03237 109.818 7.74748L107.81 6.33363C107.511 6.12321 107.113 6.14567 106.843 6.38801L105.378 7.6931C105.109 7.93307 105.044 8.32082 105.221 8.63527L106.422 10.7619C106.666 11.1934 106.637 11.7313 106.351 12.1332C106.119 12.4595 105.897 12.8 105.691 13.1452C105.439 13.5695 104.953 13.8119 104.46 13.767L102.011 13.5376C101.646 13.4998 101.315 13.7197 101.202 14.0625L100.593 15.9185C100.48 16.2601 100.62 16.6289 100.933 16.8134L103.046 18.0629C103.475 18.317 103.722 18.7958 103.675 19.2829C103.636 19.6871 103.612 20.0974 103.607 20.4993C103.6 20.9875 103.304 21.4355 102.853 21.6412L100.621 22.6567C100.29 22.8068 100.112 23.1579 100.188 23.5102L100.596 25.4217C100.672 25.7752 100.98 26.0246 101.345 26.0305L103.806 26.0648C104.303 26.0719 104.756 26.3627 104.96 26.806C105.132 27.176 105.318 27.5413 105.517 27.8901C105.757 28.3168 105.728 28.8535 105.439 29.2566L104.016 31.2474C103.806 31.5405 103.829 31.933 104.072 32.2002L105.389 33.6542C105.633 33.9237 106.027 33.9887 106.344 33.8114L108.487 32.6222C108.92 32.3822 109.46 32.4106 109.863 32.6943C110.189 32.9236 110.533 33.1447 110.885 33.3516C111.312 33.6022 111.559 34.0833 111.513 34.5775L111.285 37.0068C111.251 37.365 111.469 37.6948 111.816 37.8071L113.688 38.4135C114.036 38.5258 114.408 38.3875 114.593 38.0766L115.851 35.9807C116.085 35.5906 116.509 35.3529 116.955 35.3529L116.957 35.3565ZM118.489 29.3323C118.318 29.3323 118.146 29.3275 117.974 29.3169C113.178 29.0379 109.499 24.9394 109.776 20.1801C110.052 15.4208 114.179 11.7727 118.974 12.0529C123.771 12.3318 127.448 16.4303 127.172 21.1897C126.907 25.7787 123.062 29.3311 118.489 29.3311V29.3323ZM118.005 28.7979C122.511 29.058 126.394 25.6333 126.654 21.1613C126.913 16.688 123.455 12.8366 118.945 12.5742C114.438 12.3129 110.555 15.7388 110.295 20.2108C110.037 24.6841 113.494 28.5355 118.005 28.7979Z" fill="black"/>
<path d="M96.9622 36.5209L95.4626 35.6343C95.2205 35.4913 95.08 35.2229 95.106 34.9451C95.1343 34.6519 95.1509 34.3588 95.1544 34.0668C95.1579 33.789 95.3268 33.5383 95.5819 33.4225L97.1653 32.7026C97.477 32.5607 97.6483 32.2238 97.5762 31.8904L97.2869 30.5345C97.2161 30.2012 96.9221 29.9612 96.5784 29.9564L94.8321 29.9328C94.5498 29.9293 94.2936 29.7649 94.1755 29.5096C94.0539 29.246 93.9216 28.9871 93.7788 28.7341C93.6406 28.4894 93.6571 28.188 93.8213 27.9598L94.8309 26.5471C95.0292 26.2693 95.0068 25.8922 94.7777 25.6393L93.8437 24.6084C93.6146 24.3554 93.2391 24.2928 92.9392 24.4595L91.4183 25.3035C91.1727 25.4407 90.8681 25.4253 90.6378 25.2633C90.4005 25.0966 90.1537 24.9382 89.901 24.7893C89.6578 24.6463 89.5196 24.3755 89.5456 24.0966L89.7074 22.373C89.7393 22.0337 89.5302 21.7181 89.2043 21.6129L87.8759 21.1826C87.55 21.0774 87.1934 21.2098 87.0175 21.5017L86.126 22.9889C85.9819 23.2289 85.7127 23.3684 85.4317 23.3412C85.1353 23.3128 84.8401 23.2962 84.5461 23.2915C84.2651 23.288 84.0135 23.1201 83.8966 22.8671L83.1693 21.2961C83.0264 20.9863 82.6863 20.8173 82.3498 20.887L80.9836 21.1731C80.6483 21.2429 80.4062 21.5348 80.4015 21.8753L80.379 23.6071C80.3755 23.8861 80.2125 24.1403 79.9575 24.2561C79.6894 24.3779 79.4261 24.5103 79.1687 24.6533C78.9243 24.7893 78.6208 24.7692 78.3918 24.6084L76.9665 23.6048C76.6867 23.4074 76.3064 23.4286 76.0514 23.6568L75.0135 24.5824C74.7584 24.8094 74.6958 25.1818 74.8635 25.4797L75.7149 26.9893C75.853 27.234 75.8377 27.5354 75.6747 27.7636C75.5071 27.9988 75.3476 28.2435 75.1977 28.4941C75.0536 28.7353 74.7809 28.8724 74.4998 28.8464L72.7629 28.6845C72.4216 28.6525 72.1028 28.8594 71.9965 29.1833L71.5643 30.5002C71.4581 30.8241 71.5927 31.1776 71.8867 31.3514L73.3863 32.238C73.6284 32.381 73.7689 32.6494 73.7429 32.9272C73.7146 33.2204 73.6981 33.5135 73.6945 33.8055C73.691 34.0833 73.5221 34.3339 73.2671 34.4498L71.6836 35.1697C71.3719 35.3116 71.2007 35.6485 71.2727 35.9818L71.562 37.3378C71.6328 37.6711 71.9269 37.9111 72.2705 37.9158L74.0169 37.9407C74.2979 37.9442 74.5541 38.1062 74.671 38.3591C74.7938 38.6251 74.9273 38.8864 75.0725 39.1417C75.2107 39.3852 75.1906 39.6855 75.0276 39.9125L74.0181 41.3251C73.8197 41.6029 73.8421 41.9801 74.0712 42.233L75.0052 43.2639C75.2343 43.5168 75.6098 43.5795 75.9097 43.4128L77.4306 42.5688C77.6762 42.4316 77.9808 42.447 78.2111 42.609C78.4484 42.7756 78.6952 42.934 78.9479 43.083C79.1912 43.226 79.3293 43.4967 79.3033 43.7757L79.1416 45.4993C79.1097 45.8386 79.3187 46.1542 79.6446 46.2594L80.973 46.6897C81.2989 46.7949 81.6555 46.6625 81.8314 46.3705L82.7229 44.8834C82.867 44.6434 83.1362 44.5039 83.4172 44.5311C83.7136 44.5595 84.0088 44.576 84.3028 44.5808C84.5839 44.5843 84.8354 44.7522 84.9523 45.0052L85.6797 46.5762C85.8225 46.886 86.1626 47.0562 86.4991 46.9853L87.8653 46.6992C88.2007 46.6294 88.4427 46.3374 88.4474 45.997L88.4699 44.264C88.4734 43.9838 88.6387 43.7296 88.895 43.6138C89.1607 43.4932 89.4204 43.362 89.6755 43.2201C89.9223 43.083 90.2257 43.1007 90.456 43.2627L91.8812 44.2663C92.1611 44.4637 92.5413 44.4425 92.7963 44.2143L93.8343 43.2887C94.0893 43.0617 94.1519 42.6893 93.9842 42.3914L93.1329 40.8818C92.9947 40.6371 93.0101 40.3357 93.173 40.1075C93.3419 39.8723 93.5001 39.6276 93.6501 39.377C93.7941 39.1358 94.0669 38.9987 94.3479 39.0247L96.0849 39.1866C96.4261 39.2186 96.7449 39.0117 96.8512 38.6878L97.2834 37.3709C97.3897 37.047 97.255 36.6935 96.961 36.5197L96.9622 36.5209ZM84.082 39.8747C80.7758 39.6831 78.2489 36.8673 78.439 33.588C78.6291 30.3075 81.463 27.8038 84.7704 27.9965C88.0767 28.188 90.6036 31.0038 90.4135 34.2831C90.2234 37.5636 87.3895 40.0673 84.082 39.8747Z" fill="#E42F35"/>
<path d="M86.3457 47.2619C85.9643 47.2619 85.6112 47.0432 85.4459 46.6862L84.7185 45.1151C84.643 44.9508 84.4788 44.8444 84.3005 44.8409C84.003 44.8373 83.6971 44.8196 83.3937 44.79C83.2165 44.7735 83.0406 44.8621 82.9473 45.017L82.0558 46.5041C81.8161 46.9037 81.3379 47.081 80.8951 46.9368L79.5679 46.5065C79.1227 46.3623 78.8417 45.9379 78.8854 45.4745L79.0471 43.7509C79.0637 43.5724 78.9739 43.3975 78.8192 43.3064C78.5595 43.1539 78.3056 42.9908 78.0635 42.8206C77.9159 42.7165 77.7176 42.7071 77.5593 42.7946L76.0396 43.6386C75.6323 43.8644 75.1292 43.7817 74.8163 43.4365L73.8823 42.4056C73.5682 42.0593 73.5387 41.5509 73.8103 41.1715L74.8199 39.7588C74.9238 39.6134 74.9356 39.4207 74.8494 39.267C74.7006 39.0046 74.5624 38.7351 74.4385 38.4655C74.3652 38.306 74.1988 38.2007 74.0169 38.1984L72.2705 38.1736C71.8029 38.1676 71.4085 37.8449 71.3117 37.3898L71.0224 36.0339C70.9244 35.5776 71.1547 35.1236 71.5809 34.9309L73.1644 34.211C73.3297 34.1365 73.4371 33.9746 73.4395 33.8008C73.443 33.5053 73.4596 33.2026 73.4891 32.9C73.5056 32.725 73.4159 32.5536 73.26 32.4602L71.7604 31.5736C71.3578 31.3348 71.1771 30.8596 71.3223 30.4163L71.7545 29.0994C71.8997 28.6585 72.3201 28.3818 72.7912 28.422L74.5282 28.584C74.7065 28.6017 74.8872 28.5131 74.9793 28.3582C75.1304 28.104 75.2945 27.8522 75.4681 27.6099C75.572 27.4645 75.5815 27.2706 75.4929 27.1146L74.6416 25.605C74.4125 25.1983 74.4963 24.6959 74.8447 24.385L75.8826 23.4594C76.2297 23.1497 76.7387 23.1201 77.1201 23.3896L78.5453 24.3921C78.6941 24.4973 78.8913 24.5091 79.0459 24.4228C79.3069 24.2774 79.5785 24.1403 79.8536 24.0162C80.0142 23.9429 80.1205 23.7797 80.1228 23.6012L80.1453 21.8694C80.1512 21.4036 80.4759 21.0112 80.934 20.9154L82.3002 20.6293C82.756 20.5324 83.213 20.7617 83.409 21.1838L84.1364 22.7548C84.212 22.9191 84.3761 23.0255 84.5544 23.0279C84.8567 23.0326 85.1613 23.0492 85.4613 23.0787C85.636 23.0941 85.8143 23.0066 85.9064 22.8506L86.7979 21.3646C87.0364 20.9651 87.5147 20.7877 87.9586 20.932L89.287 21.3623C89.7322 21.5065 90.0132 21.9309 89.9695 22.3943L89.8078 24.1178C89.7912 24.2963 89.881 24.4713 90.0357 24.5623C90.2931 24.7136 90.5481 24.8768 90.7902 25.0482C90.9378 25.1522 91.1362 25.1629 91.2956 25.0742L92.8165 24.2301C93.2238 24.0044 93.7269 24.0871 94.0398 24.4323L94.9738 25.4631C95.2879 25.8095 95.3174 26.3166 95.0458 26.6973L94.0362 28.1099C93.9323 28.2553 93.9217 28.4504 94.0091 28.6053C94.1555 28.8642 94.2925 29.1313 94.4164 29.3997C94.492 29.5616 94.6585 29.6692 94.8403 29.6716L96.5868 29.6952C97.0544 29.7023 97.4487 30.0238 97.5456 30.479L97.8349 31.8349C97.9329 32.2912 97.7026 32.7451 97.2763 32.939L95.6929 33.6589C95.5288 33.7334 95.4201 33.8954 95.4178 34.0703C95.4142 34.3682 95.3965 34.6709 95.3682 34.9711C95.3516 35.1449 95.4414 35.3175 95.5972 35.4109L97.0969 36.2963C97.4995 36.5351 97.6802 37.0103 97.5349 37.4536L97.1028 38.7705C96.9575 39.2115 96.536 39.4893 96.066 39.4479L94.3291 39.2859C94.146 39.2682 93.9701 39.3581 93.878 39.5117C93.7233 39.7706 93.5592 40.0224 93.3891 40.2612C93.2864 40.4054 93.2758 40.5993 93.3643 40.7565L94.2157 42.265C94.4448 42.6716 94.3621 43.1728 94.0126 43.4849L92.9747 44.4106C92.6275 44.7203 92.1186 44.7498 91.7372 44.4815L90.312 43.4778C90.1632 43.3726 89.9648 43.362 89.8066 43.4495C89.5445 43.5949 89.2764 43.7296 89.0072 43.8526C88.8431 43.9271 88.7368 44.0902 88.7344 44.2687L88.712 46.0017C88.7061 46.4675 88.3814 46.86 87.9232 46.9557L86.557 47.2418C86.4874 47.256 86.4177 47.2631 86.3492 47.2631L86.3457 47.2619ZM83.35 44.2675C83.3807 44.2675 83.4125 44.2687 83.4433 44.2722C83.7325 44.2994 84.023 44.316 84.3076 44.3195C84.6843 44.3254 85.0303 44.5512 85.1897 44.8952L85.917 46.4663C86.0103 46.6673 86.2276 46.7748 86.4472 46.7299L87.8134 46.4438C88.0318 46.3977 88.1854 46.2133 88.1877 45.9934L88.2101 44.2604C88.2149 43.881 88.4416 43.5334 88.7887 43.3762C89.045 43.2603 89.3012 43.1303 89.5504 42.992C89.881 42.8076 90.2954 42.83 90.6072 43.0487L92.0324 44.0524C92.2154 44.1812 92.4587 44.167 92.6252 44.0193L93.6631 43.0936C93.8272 42.9471 93.8674 42.7106 93.7587 42.5191L92.9074 41.0095C92.7208 40.6773 92.7421 40.2648 92.9617 39.955C93.1235 39.7281 93.2805 39.4881 93.4269 39.2422C93.6206 38.9171 93.9914 38.7303 94.3728 38.7646L96.1097 38.9266C96.3364 38.9502 96.536 38.8155 96.6045 38.6062L97.0366 37.2893C97.1051 37.0813 97.0201 36.8566 96.8288 36.7432L95.3292 35.8565C94.9998 35.6615 94.8108 35.2927 94.8463 34.9179C94.8746 34.633 94.89 34.3446 94.8935 34.0609C94.8982 33.6849 95.1261 33.3409 95.4733 33.1825L97.0567 32.4626C97.2586 32.3704 97.3673 32.1564 97.3212 31.9413L97.0319 30.5854C96.9859 30.369 96.7969 30.2165 96.5738 30.213L94.8274 30.1893C94.446 30.1846 94.0976 29.9588 93.9382 29.616C93.8201 29.3607 93.6903 29.1065 93.5509 28.8606C93.3644 28.5296 93.3868 28.1159 93.6076 27.8061L94.6172 26.3935C94.7447 26.215 94.7305 25.975 94.5829 25.8119L93.6489 24.781C93.5025 24.6191 93.2557 24.5777 93.0633 24.6841L91.5424 25.5281C91.2118 25.7126 90.7961 25.6901 90.4867 25.4726C90.2553 25.3106 90.0132 25.1546 89.7676 25.0104C89.4394 24.8177 89.2493 24.4477 89.2847 24.0682L89.4465 22.3446C89.4665 22.1259 89.3343 21.925 89.1217 21.8564L87.7933 21.4261C87.5796 21.3563 87.3517 21.4415 87.2383 21.6318L86.3469 23.1189C86.1508 23.4452 85.7812 23.6343 85.4046 23.5965C85.1188 23.5693 84.8283 23.5528 84.5402 23.548C84.1635 23.5433 83.8176 23.3175 83.6582 22.9723L82.9308 21.4013C82.8375 21.2003 82.6202 21.0927 82.4006 21.1377L81.0344 21.4237C80.816 21.4687 80.6625 21.6554 80.6601 21.8753L80.6377 23.6072C80.6329 23.9878 80.4074 24.3342 80.0638 24.4902C79.8017 24.6084 79.5431 24.7396 79.2939 24.878C78.9657 25.06 78.5524 25.0375 78.2406 24.8189L76.8154 23.8164C76.6359 23.6887 76.3868 23.7041 76.2227 23.8495L75.1847 24.7751C75.0206 24.9217 74.9804 25.1581 75.0891 25.3496L75.9404 26.8592C76.127 27.1902 76.1057 27.604 75.8849 27.9137C75.7208 28.1442 75.5638 28.3842 75.4197 28.6265C75.2249 28.9528 74.8553 29.1384 74.4739 29.1041L72.7369 28.9422C72.5149 28.9197 72.3107 29.0533 72.2422 29.2625L71.81 30.5794C71.7415 30.7887 71.8265 31.0121 72.0178 31.1256L73.5174 32.0122C73.8469 32.2073 74.037 32.5761 74.0004 32.9508C73.972 33.2381 73.9567 33.5265 73.9532 33.8079C73.9484 34.1838 73.7205 34.5278 73.3734 34.6862L71.7911 35.4061C71.5892 35.4984 71.4806 35.7123 71.5254 35.9263L71.8147 37.2822C71.8608 37.4985 72.0497 37.651 72.2729 37.6534L74.0193 37.6782C74.4007 37.683 74.749 37.9076 74.9061 38.248C75.0241 38.5046 75.1564 38.7623 75.2981 39.0117C75.4835 39.3403 75.4599 39.7529 75.2379 40.0626L74.2283 41.4753C74.1008 41.6538 74.1149 41.8938 74.2625 42.0569L75.1965 43.0877C75.3441 43.2497 75.5897 43.2911 75.7822 43.1847L77.3019 42.3406C77.6337 42.1574 78.0482 42.1787 78.3575 42.3962C78.5878 42.5581 78.8299 42.713 79.0766 42.8584C79.4049 43.0511 79.595 43.4211 79.5596 43.8006L79.3978 45.5241C79.3778 45.7428 79.5112 45.9438 79.7225 46.0124L81.0509 46.4427C81.2635 46.5112 81.4914 46.4261 81.6059 46.237L82.4974 44.7498C82.6769 44.4507 83.0028 44.2675 83.3464 44.2675H83.35ZM84.441 40.1454C84.3171 40.1454 84.1919 40.1418 84.0667 40.1347C80.6223 39.9349 77.9809 36.9914 78.1792 33.5726C78.2749 31.9165 79.0153 30.3974 80.2634 29.2945C81.5115 28.1927 83.1185 27.6383 84.7846 27.7364C86.4531 27.8333 87.9834 28.5686 89.0957 29.8075C90.2081 31.0476 90.7678 32.6423 90.6721 34.2985C90.5765 35.9547 89.8361 37.4749 88.588 38.5767C87.4344 39.5957 85.9737 40.1454 84.441 40.1454ZM84.4115 28.2459C83.0052 28.2459 81.6661 28.7507 80.6081 29.6846C79.4651 30.6941 78.7862 32.0855 78.6988 33.6022C78.517 36.7337 80.9388 39.4314 84.0974 39.6146C85.6277 39.7032 87.1002 39.1961 88.2444 38.1854C89.3874 37.1758 90.0664 35.7844 90.1538 34.2677C90.2411 32.7511 89.7287 31.2911 88.7096 30.1551C87.6894 29.019 86.2854 28.344 84.7551 28.2553C84.6406 28.2483 84.5261 28.2459 84.4115 28.2459Z" fill="black"/>
<g clip-path="url(#clip0_9665_2049)">
<path d="M197.353 175.115L154.979 175.381C154.704 175.381 154.614 175.636 154.614 175.882V211.976C154.614 215.431 130.537 224.409 130.304 223.953L130.274 227.773C130.273 228.484 130.896 229.114 131.693 229.114H167.762C169.411 229.114 171.039 228.744 172.532 228.119L192.066 219.884C195.582 218.402 197.801 215.218 197.801 211.745V175.615C197.801 175.37 197.628 175.114 197.354 175.114L197.353 175.115Z" fill="#CFCFD0"/>
<path d="M150.323 173.279V209.381C150.323 212.939 148.036 216.182 144.442 217.718L131.264 223.349C130.403 223.717 130.696 224.872 131.651 224.872H167.857C169.485 224.872 171.093 224.55 172.566 223.929L187.166 217.775C190.788 216.249 193.098 212.993 193.098 209.416V173.279C193.098 173.131 192.963 173.012 192.798 173.012H150.624C150.459 173.012 150.324 173.131 150.324 173.279H150.323Z" fill="white"/>
<path d="M167.856 225.13H131.65C130.987 225.13 130.601 224.695 130.513 224.264C130.414 223.78 130.675 223.316 131.161 223.108L144.339 217.477C147.816 215.991 150.063 212.812 150.063 209.38V173.278C150.063 172.987 150.315 172.75 150.623 172.75H192.797C193.105 172.75 193.356 172.986 193.356 173.278V209.415C193.356 213.078 190.965 216.453 187.266 218.014L172.665 224.168C171.17 224.798 169.508 225.132 167.856 225.132V225.13ZM150.583 173.284V209.38C150.583 213.022 148.212 216.388 144.543 217.956L131.365 223.587C131.101 223.7 130.972 223.914 131.023 224.159C131.069 224.383 131.28 224.609 131.65 224.609H167.856C169.439 224.609 171.032 224.29 172.463 223.687L187.064 217.533C190.571 216.055 192.837 212.868 192.837 209.414V173.277C192.837 173.284 192.823 173.27 192.797 173.27H150.623C150.601 173.27 150.588 173.278 150.583 173.283V173.284Z" fill="black"/>
<path d="M71.3877 193.735L245.626 194.116L248.651 194.123L254.276 194.135C255.875 194.135 257.188 192.885 257.391 191.294L271.96 77.3126C272.314 74.5393 270.295 71.9208 267.508 71.9208L86.9861 72.0851L71.3889 193.735H71.3877Z" fill="#CFCFD0"/>
<path d="M260.735 71.8948C263.877 71.8948 266.432 75.0629 266.03 78.1909L251.357 191.299C251.153 192.889 249.803 194.08 248.206 194.08L246.83 194.132L68.9705 194.08C67.054 194.08 65.5733 192.39 65.8189 190.483L80.788 75.0736C80.9922 73.4836 82.2144 71.8948 83.812 71.8948H260.735Z" fill="white"/>
<path d="M246.841 194.392L68.9717 194.34C67.9857 194.34 67.0458 193.915 66.3928 193.172C65.7387 192.428 65.4352 191.435 65.5616 190.449L80.5306 75.0393C80.7455 73.3654 82.0326 71.6335 83.812 71.6335H260.734C262.235 71.6335 263.715 72.3381 264.796 73.5675C265.938 74.8667 266.495 76.6068 266.287 78.2228L251.615 191.332C251.394 193.047 249.928 194.34 248.206 194.34L246.841 194.392ZM83.8132 72.1549C82.3384 72.1549 81.2296 73.6869 81.0478 75.1067L66.0788 190.516C65.9713 191.353 66.2287 192.196 66.7849 192.828C67.3387 193.458 68.1357 193.82 68.9729 193.82L246.832 193.873L248.197 193.821C249.67 193.821 250.913 192.723 251.101 191.267L265.774 78.1578C265.962 76.6884 265.451 75.102 264.407 73.9127C263.426 72.7956 262.088 72.1549 260.736 72.1549H83.8132Z" fill="black"/>
<path d="M252.706 77.6991C255.581 77.6991 257.918 80.5292 257.551 83.3226L244.127 184.346C243.941 185.767 242.706 186.83 241.244 186.83L239.985 186.877L77.267 186.83C75.5135 186.83 74.1591 185.32 74.3835 183.617L88.0784 80.5375C88.265 79.1165 89.3832 77.698 90.845 77.698H252.707L252.706 77.6991Z" fill="white"/>
<path d="M239.994 187.137L77.2669 187.091C76.3435 187.091 75.4674 186.697 74.8652 186.008C74.2807 185.341 74.0114 184.456 74.126 183.583L87.8209 80.5032C88.0193 78.9971 89.2048 77.4379 90.8449 77.4379H252.706C254.111 77.4379 255.489 78.0904 256.487 79.2288C257.516 80.4051 257.998 81.9088 257.808 83.3557L244.385 184.38C244.181 185.925 242.831 187.09 241.244 187.09L239.996 187.136L239.994 187.137ZM90.8438 77.9592C89.5071 77.9592 88.501 79.3151 88.3346 80.5718L74.6396 183.651C74.544 184.376 74.7683 185.11 75.2536 185.665C75.7578 186.24 76.4899 186.57 77.2645 186.57L239.983 186.617L241.231 186.571C242.567 186.571 243.696 185.601 243.866 184.313L257.291 83.2895C257.462 81.9927 257.025 80.6379 256.093 79.5752C255.195 78.5491 253.96 77.9616 252.703 77.9616H90.8438V77.9592Z" fill="black"/>
<path d="M218.74 175.33L110.438 173.417C110.053 173.41 109.795 173.122 109.835 172.744L121.95 60.4398C121.998 59.9882 122.448 59.5969 122.907 59.6052L231.209 61.5179C231.594 61.525 231.853 61.8135 231.813 62.1918L219.698 174.496C219.649 174.947 219.199 175.338 218.74 175.33Z" fill="white"/>
<path d="M218.754 175.59H218.735L110.433 173.678C110.171 173.673 109.938 173.57 109.778 173.388C109.62 173.208 109.549 172.969 109.576 172.715L121.691 60.4114C121.755 59.8227 122.314 59.3345 122.912 59.3451L231.214 61.2579C231.476 61.2626 231.709 61.3654 231.868 61.5475C232.026 61.7272 232.098 61.966 232.07 62.2201L219.955 174.524C219.892 175.107 219.344 175.59 218.753 175.59H218.754ZM122.894 59.8665C122.574 59.8665 122.242 60.1561 122.209 60.4682L110.094 172.772C110.083 172.881 110.109 172.975 110.17 173.045C110.233 173.116 110.329 173.156 110.444 173.157L218.746 175.07C219.071 175.064 219.406 174.783 219.44 174.468L231.555 62.1646C231.567 62.0558 231.541 61.9612 231.48 61.8927C231.417 61.8217 231.32 61.7815 231.206 61.7804L122.904 59.8676H122.894V59.8665Z" fill="black"/>
<path d="M212.111 127.64H212.106L130.821 126.205C130.748 126.204 130.679 126.172 130.631 126.116C130.582 126.062 130.56 125.989 130.567 125.916L130.945 122.419C130.959 122.285 131.064 122.177 131.208 122.186L212.493 123.621C212.567 123.622 212.635 123.654 212.683 123.709C212.732 123.764 212.754 123.837 212.747 123.909L212.371 127.407C212.356 127.54 212.244 127.64 212.112 127.64H212.111ZM131.114 125.69L211.877 127.115L212.198 124.137L131.435 122.711L131.114 125.688V125.69Z" fill="black"/>
<path d="M190.137 134.151H190.133L130.078 133.091C130.005 133.09 129.936 133.058 129.888 133.002C129.84 132.948 129.817 132.875 129.824 132.802L130.202 129.305C130.216 129.17 130.327 129.068 130.465 129.072L190.52 130.132C190.593 130.133 190.662 130.165 190.71 130.221C190.758 130.275 190.781 130.348 190.774 130.42L190.396 133.918C190.382 134.051 190.27 134.151 190.137 134.151ZM130.371 132.576L189.903 133.626L190.225 130.649L130.692 129.598L130.371 132.576Z" fill="black"/>
<path d="M210.101 146.271H210.097L128.811 144.836C128.738 144.834 128.67 144.802 128.621 144.747C128.573 144.693 128.55 144.619 128.557 144.547L128.935 141.049C128.949 140.916 129.053 140.816 129.199 140.816L210.484 142.251C210.557 142.253 210.626 142.284 210.674 142.34C210.722 142.394 210.745 142.468 210.738 142.54L210.36 146.038C210.346 146.17 210.233 146.271 210.101 146.271ZM129.104 144.32L209.867 145.746L210.189 142.768L129.425 141.341L129.104 144.319V144.32Z" fill="black"/>
<path d="M188.128 152.781H188.123L128.067 151.72C127.994 151.719 127.926 151.687 127.877 151.632C127.829 151.577 127.806 151.504 127.814 151.432L128.191 147.934C128.206 147.8 128.315 147.706 128.455 147.701L188.509 148.761C188.582 148.763 188.651 148.795 188.699 148.85C188.748 148.905 188.77 148.978 188.763 149.05L188.386 152.548C188.372 152.68 188.26 152.781 188.128 152.781ZM128.361 151.205L187.894 152.256L188.215 149.278L128.683 148.227L128.361 151.205Z" fill="black"/>
<path d="M207.811 162.594H207.807L126.522 161.159C126.448 161.157 126.38 161.126 126.331 161.07C126.283 161.016 126.261 160.942 126.268 160.87L126.646 157.372C126.66 157.239 126.773 157.126 126.909 157.139L208.194 158.574C208.267 158.576 208.336 158.608 208.384 158.663C208.433 158.717 208.455 158.791 208.448 158.863L208.071 162.361C208.057 162.493 207.945 162.594 207.813 162.594H207.811ZM126.814 160.642L207.578 162.069L207.899 159.091L127.136 157.665L126.814 160.643V160.642Z" fill="black"/>
<path d="M185.838 169.104H185.833L125.779 168.043C125.706 168.042 125.637 168.01 125.589 167.955C125.54 167.9 125.518 167.827 125.525 167.755L125.903 164.257C125.917 164.123 126.036 164.017 126.166 164.024L186.221 165.085C186.294 165.086 186.362 165.118 186.411 165.173C186.459 165.228 186.481 165.301 186.474 165.373L186.097 168.871C186.082 169.003 185.97 169.104 185.838 169.104ZM126.072 167.528L185.604 168.579L185.925 165.601L126.393 164.55L126.072 167.528Z" fill="black"/>
<path d="M210.077 78.3204C213.121 77.0582 214.566 73.5646 213.306 70.5173C212.045 67.4701 208.555 66.023 205.511 67.2852C202.468 68.5474 201.022 72.041 202.283 75.0883C203.544 78.1356 207.033 79.5826 210.077 78.3204Z" fill="#E42F35"/>
<path d="M207.325 76.0773C207.095 76.0903 206.884 75.9863 206.77 75.8019L204.581 72.759C204.404 72.4717 204.515 72.0828 204.828 71.8901C205.141 71.6974 205.537 71.7731 205.715 72.0604L207.34 74.1894L209.863 69.7765C210.041 69.4644 210.439 69.3308 210.751 69.4786C211.062 69.6263 211.171 69.9999 210.993 70.312L207.901 75.7191C207.786 75.9224 207.568 76.0584 207.335 76.0749C207.331 76.0749 207.327 76.0749 207.324 76.0749L207.325 76.0773Z" fill="white"/>
<path d="M127.118 115.666C127.05 115.666 126.982 115.64 126.93 115.587C126.829 115.483 126.83 115.316 126.934 115.215L127.79 114.372C127.893 114.27 128.06 114.271 128.162 114.375C128.263 114.479 128.262 114.646 128.158 114.748L127.302 115.59C127.251 115.641 127.184 115.666 127.118 115.666Z" fill="black"/>
<path d="M123.016 119.703C122.947 119.703 122.88 119.677 122.828 119.624C122.727 119.52 122.728 119.353 122.832 119.252L123.688 118.409C123.791 118.307 123.958 118.308 124.06 118.412C124.161 118.516 124.16 118.683 124.056 118.785L123.2 119.627C123.149 119.678 123.082 119.703 123.016 119.703Z" fill="black"/>
<path d="M123.901 115.625C123.833 115.625 123.765 115.599 123.713 115.546L122.872 114.681C122.77 114.577 122.773 114.411 122.877 114.309C122.982 114.209 123.147 114.21 123.249 114.314L124.089 115.178C124.191 115.282 124.188 115.449 124.085 115.55C124.033 115.6 123.968 115.625 123.9 115.625H123.901Z" fill="black"/>
<path d="M127.931 119.766C127.862 119.766 127.794 119.74 127.742 119.687L126.901 118.822C126.799 118.718 126.802 118.552 126.906 118.45C127.01 118.348 127.176 118.351 127.278 118.455L128.118 119.319C128.22 119.423 128.217 119.59 128.114 119.691C128.063 119.741 127.997 119.766 127.931 119.766Z" fill="black"/>
<path d="M150.699 222.659C150.555 222.659 150.436 222.542 150.435 222.397C150.435 222.252 150.551 222.134 150.696 222.133L151.897 222.125H151.898C152.042 222.125 152.16 222.242 152.162 222.387C152.162 222.532 152.046 222.65 151.901 222.651L150.7 222.659H150.699Z" fill="black"/>
<path d="M144.947 222.693C144.803 222.693 144.685 222.576 144.684 222.432C144.684 222.286 144.799 222.168 144.945 222.167L146.145 222.16H146.147C146.291 222.16 146.409 222.277 146.41 222.421C146.41 222.566 146.294 222.685 146.149 222.686L144.948 222.693H144.947Z" fill="black"/>
<path d="M148.42 220.385C148.274 220.385 148.156 220.267 148.156 220.122V218.915C148.154 218.769 148.272 218.651 148.417 218.651C148.562 218.651 148.681 218.769 148.681 218.915V220.122C148.683 220.267 148.565 220.385 148.42 220.385Z" fill="black"/>
<path d="M148.428 226.166C148.283 226.166 148.165 226.048 148.165 225.902V224.695C148.162 224.55 148.28 224.432 148.426 224.432C148.571 224.432 148.689 224.55 148.689 224.695V225.902C148.691 226.048 148.573 226.166 148.428 226.166Z" fill="black"/>
<path d="M16.2313 242.738H109.23C113.187 242.738 116.394 239.481 116.394 235.461L107.327 44.443C107.327 40.4237 104.12 37.1657 100.163 37.1657H7.16392C3.20706 37.1645 0 40.4237 0 44.443L9.06619 235.461C9.06619 239.481 12.2733 242.738 16.2301 242.738H16.2313Z" fill="#CFCFD0"/>
<path d="M22.5345 242.78H115.533C119.49 242.78 122.697 239.536 122.697 235.535L113.631 44.858C113.631 40.8564 110.424 37.6126 106.467 37.6126H13.4671C9.51028 37.6126 6.30322 40.8564 6.30322 44.858L15.3694 235.535C15.3694 239.536 18.5765 242.78 22.5333 242.78H22.5345Z" fill="white"/>
<path d="M106.253 242.795H87.0949C86.9496 242.795 86.8315 242.677 86.8315 242.532C86.8315 242.386 86.9496 242.268 87.0949 242.268H106.253C106.399 242.268 106.517 242.386 106.517 242.532C106.517 242.677 106.399 242.795 106.253 242.795Z" fill="black"/>
<path d="M77.0603 242.795H22.5344C18.4394 242.795 15.1071 239.427 15.1071 235.286L11.6545 170.746C11.6462 170.6 11.7584 170.476 11.9025 170.468C12.0489 170.463 12.1717 170.572 12.1788 170.717L15.6314 235.272C15.6314 239.137 18.7275 242.268 22.5332 242.268H77.0591C77.2043 242.268 77.3224 242.386 77.3224 242.532C77.3224 242.677 77.2043 242.795 77.0591 242.795H77.0603Z" fill="black"/>
<path d="M9.28586 109.896C9.14652 109.896 9.02962 109.786 9.02372 109.644L6.04102 44.6215C6.04102 40.4686 9.37206 37.1007 13.4683 37.1007H106.467C110.562 37.1007 113.894 40.4686 113.894 44.6097L114.598 61.9541C114.604 62.0995 114.492 62.2225 114.346 62.2284C114.191 62.2379 114.078 62.122 114.073 61.9766L113.369 44.6215C113.369 40.7606 110.273 37.6291 106.467 37.6291H13.4671C9.66135 37.6291 6.56647 40.7618 6.56647 44.6109L9.54918 109.622C9.55626 109.767 9.44409 109.89 9.29885 109.897C9.2953 109.897 9.29058 109.897 9.28704 109.897L9.28586 109.896Z" fill="black"/>
<path d="M26.848 237.329H111.776C115.389 237.329 118.319 234.367 118.319 230.713L109.367 50.1433C109.367 46.4893 106.438 43.5269 102.824 43.5269H17.8963C14.2831 43.5269 11.3535 46.4893 11.3535 50.1433L20.3052 230.713C20.3052 234.367 23.2347 237.329 26.848 237.329Z" fill="white"/>
<path d="M111.776 237.593H26.8479C23.0953 237.593 20.043 234.506 20.043 230.713L11.0913 50.1563C11.0913 46.3498 14.1437 43.2632 17.8963 43.2632H102.824C106.577 43.2632 109.629 46.3498 109.629 50.1433L118.581 230.7C118.581 234.506 115.528 237.593 111.776 237.593ZM17.8963 43.7893C14.4342 43.7893 11.6168 46.6394 11.6168 50.1433L20.5672 230.7C20.5672 234.216 23.3846 237.067 26.8467 237.067H111.776C115.238 237.067 118.055 234.216 118.055 230.713L109.104 50.1563C109.104 46.6394 106.286 43.7893 102.824 43.7893H17.8963Z" fill="black"/>
<path d="M17.5549 101.22C17.4156 101.22 17.2987 101.11 17.2928 100.97L16.4827 83.8451C16.4757 83.6997 16.5878 83.5768 16.7331 83.5697C16.8759 83.5543 17.0011 83.6749 17.0082 83.8203L17.8182 100.945C17.8253 101.09 17.7131 101.213 17.5679 101.22C17.5632 101.22 17.5596 101.22 17.5549 101.22Z" fill="black"/>
<path d="M107.227 85.4327C107.088 85.4327 106.971 85.3228 106.965 85.1821L105.457 53.3198C105.457 49.927 102.868 47.1773 99.6845 47.1773H21.3348C18.1513 47.1773 15.5618 49.927 15.5618 53.3067L16.7072 77.4994C16.7143 77.6448 16.6021 77.7677 16.4569 77.7748C16.3128 77.7795 16.1888 77.6696 16.1818 77.5242L15.0364 53.3186C15.0364 49.6362 17.862 46.6501 21.3348 46.6501H99.6845C103.157 46.6501 105.983 49.6362 105.983 53.3067L107.491 85.1573C107.498 85.3027 107.386 85.4256 107.24 85.4327C107.236 85.4327 107.232 85.4327 107.227 85.4327Z" fill="black"/>
<path d="M113.937 200.517C113.797 200.517 113.681 200.407 113.675 200.266L112.404 173.409C112.397 173.264 112.509 173.141 112.654 173.134C112.789 173.125 112.922 173.239 112.93 173.384L114.2 200.242C114.207 200.387 114.095 200.51 113.95 200.517C113.946 200.517 113.942 200.517 113.937 200.517Z" fill="white"/>
<path d="M100.329 234.432H49.8239C49.6786 234.432 49.5605 234.313 49.5605 234.168C49.5605 234.023 49.6786 233.904 49.8239 233.904H100.328C100.473 233.904 100.591 234.023 100.591 234.168C100.591 234.313 100.473 234.432 100.328 234.432H100.329Z" fill="black"/>
<path d="M43.5113 234.432H29.5932C26.1205 234.432 23.2948 231.445 23.2948 227.775L22.192 204.472C22.1849 204.327 22.2971 204.204 22.4423 204.197C22.5864 204.189 22.7103 204.302 22.7174 204.448L23.8215 227.762C23.8215 231.155 26.411 233.904 29.5944 233.904H43.5125C43.6578 233.904 43.7758 234.023 43.7758 234.168C43.7758 234.313 43.6578 234.432 43.5125 234.432H43.5113Z" fill="black"/>
<path d="M75.707 37.6232L73.9157 40.6093C72.827 42.4227 71.0038 43.5115 69.052 43.5115H50.9633C49.0539 43.5115 47.2638 42.47 46.1669 40.7193L44.2268 37.6232H75.707Z" fill="black"/>
<path d="M118.456 151.243C118.316 151.243 118.201 151.134 118.193 150.993L116.878 124.921C116.871 124.776 116.983 124.652 117.127 124.644C117.274 124.64 117.396 124.749 117.403 124.894L118.719 150.966C118.726 151.112 118.614 151.236 118.47 151.243C118.465 151.243 118.46 151.243 118.456 151.243Z" fill="black"/>
<path d="M52.2116 196.29C49.0954 196.29 46.5591 193.752 46.5591 190.631C46.5591 187.51 49.0943 184.972 52.2116 184.972C55.3289 184.972 57.8641 187.51 57.8641 190.631C57.8641 193.752 55.3289 196.29 52.2116 196.29ZM52.2116 185.499C49.3847 185.499 47.0857 187.801 47.0857 190.631C47.0857 193.461 49.3847 195.762 52.2116 195.762C55.0384 195.762 57.3374 193.461 57.3374 190.631C57.3374 187.801 55.0384 185.499 52.2116 185.499Z" fill="black"/>
<path d="M67.4108 196.29C64.2947 196.29 61.7583 193.752 61.7583 190.631C61.7583 187.51 64.2935 184.972 67.4108 184.972C70.5281 184.972 73.0633 187.51 73.0633 190.631C73.0633 193.752 70.5281 196.29 67.4108 196.29ZM67.4108 185.499C64.584 185.499 62.2849 187.801 62.2849 190.631C62.2849 193.461 64.584 195.762 67.4108 195.762C70.2376 195.762 72.5367 193.461 72.5367 190.631C72.5367 187.801 70.2376 185.499 67.4108 185.499Z" fill="black"/>
<path d="M82.8876 195.736C79.7715 195.736 77.2351 193.198 77.2351 190.077C77.2351 186.957 79.7703 184.419 82.8876 184.419C86.0049 184.419 88.5401 186.957 88.5401 190.077C88.5401 193.198 86.0049 195.736 82.8876 195.736ZM82.8876 184.946C80.0608 184.946 77.7617 187.247 77.7617 190.077C77.7617 192.908 80.0608 195.209 82.8876 195.209C85.7144 195.209 88.0135 192.908 88.0135 190.077C88.0135 187.247 85.7144 184.946 82.8876 184.946Z" fill="black"/>
<path d="M233.211 231.554C233.211 231.554 239.229 229.67 249.089 210.518C257.411 194.351 249.992 178.726 248.495 168.276C248.343 167.209 246.884 167.055 246.524 168.069C244.029 175.091 240.016 187.86 240.664 195.721C241.599 207.051 233.211 231.553 233.211 231.553V231.554Z" fill="white"/>
<path d="M233.211 231.818C233.141 231.818 233.072 231.789 233.022 231.739C232.952 231.668 232.93 231.564 232.961 231.469C233.045 231.224 241.322 206.889 240.401 195.743C239.746 187.817 243.8 174.947 246.275 167.982C246.477 167.413 247.012 167.072 247.607 167.13C248.207 167.19 248.667 167.636 248.755 168.238C249.092 170.597 249.742 173.256 250.43 176.071C252.824 185.864 255.802 198.052 249.321 210.639C239.524 229.67 233.539 231.727 233.289 231.805C233.263 231.813 233.237 231.817 233.209 231.817L233.211 231.818ZM247.476 167.65C247.209 167.65 246.906 167.781 246.772 168.158C244.311 175.084 240.28 187.872 240.926 195.7C241.774 205.968 234.93 227.211 233.659 231.042C235.324 230.09 240.83 225.986 248.855 210.397C255.244 197.986 252.292 185.904 249.92 176.197C249.229 173.369 248.576 170.697 248.235 168.313C248.171 167.87 247.83 167.681 247.556 167.653C247.53 167.651 247.503 167.65 247.476 167.65Z" fill="black"/>
<path d="M239.736 221.083L241.88 204.112C242.811 196.745 241.606 189.263 238.413 182.574C233.761 172.828 233.396 161.55 237.407 151.517L240.851 142.904C241.286 141.815 239.9 140.931 239.115 141.796L234.279 147.122C223.309 159.205 219.604 176.31 224.579 191.919L233.489 219.879L239.737 221.082L239.736 221.083Z" fill="white"/>
<path d="M239.736 221.346C239.719 221.346 239.703 221.345 239.686 221.342L233.439 220.139C233.344 220.122 233.266 220.052 233.238 219.961L224.328 192.001C219.336 176.336 223.075 159.072 234.085 146.947L238.92 141.621C239.425 141.065 240.114 141.105 240.572 141.392C241.037 141.683 241.378 142.294 241.095 143.004L237.652 151.618C233.676 161.561 234.041 172.804 238.651 182.463C241.873 189.214 243.08 196.713 242.141 204.149L239.997 221.119C239.987 221.192 239.95 221.257 239.89 221.3C239.846 221.333 239.791 221.35 239.736 221.35V221.346ZM233.691 219.651L239.509 220.771L241.618 204.079C242.545 196.745 241.355 189.348 238.175 182.687C233.501 172.895 233.132 161.498 237.162 151.418L240.605 142.805C240.788 142.348 240.551 141.997 240.292 141.835C240.039 141.677 239.631 141.618 239.308 141.972L234.473 147.298C223.59 159.285 219.894 176.352 224.828 191.838L233.691 219.649V219.651Z" fill="black"/>
<path d="M236.971 221.64L229.535 202.622C227.419 197.212 222.967 193.079 217.453 191.407L212.381 189.869C211.151 189.496 210.323 191.125 211.342 191.917L214.459 194.344C217.837 196.973 219.852 201.008 219.941 205.315C219.993 207.846 220.713 210.318 222.026 212.474L227.066 220.749L236.971 221.64Z" fill="white"/>
<path d="M236.972 221.902C236.963 221.902 236.956 221.902 236.948 221.902L227.042 221.012C226.96 221.005 226.885 220.957 226.841 220.887L221.802 212.612C220.466 210.417 219.732 207.897 219.679 205.321C219.591 201.071 217.63 197.147 214.299 194.552L211.182 192.125C210.531 191.618 210.516 190.856 210.79 190.327C211.06 189.803 211.68 189.381 212.458 189.618L217.53 191.156C223.156 192.861 227.622 197.006 229.78 202.527L237.217 221.544C237.25 221.629 237.237 221.725 237.183 221.798C237.133 221.865 237.055 221.903 236.973 221.903L236.972 221.902ZM227.22 220.499L236.571 221.339L229.289 202.718C227.19 197.349 222.848 193.319 217.376 191.659L212.305 190.121C211.783 189.963 211.413 190.263 211.256 190.569C211.094 190.881 211.062 191.367 211.503 191.71L214.62 194.137C218.078 196.829 220.112 200.901 220.203 205.311C220.254 207.793 220.962 210.224 222.249 212.337L227.219 220.499H227.22Z" fill="black"/>
<path d="M235.871 212.967C235.863 212.967 235.854 212.967 235.846 212.967C235.702 212.953 235.595 212.825 235.609 212.68C236.744 200.532 234.306 192.712 232.156 185.813C231.163 182.625 230.224 179.614 229.667 176.378C227.037 161.098 236.003 147.841 236.094 147.708C236.177 147.589 236.34 147.558 236.46 147.641C236.58 147.724 236.61 147.887 236.528 148.007C236.438 148.137 227.594 161.226 230.185 176.288C230.737 179.49 231.67 182.486 232.658 185.656C234.822 192.602 237.276 200.477 236.132 212.729C236.119 212.866 236.004 212.967 235.87 212.967H235.871Z" fill="black"/>
<path d="M245.777 204.847C245.763 204.847 245.747 204.846 245.733 204.844C245.59 204.819 245.493 204.683 245.517 204.54C247.543 192.546 246.842 174.079 246.835 173.895C246.829 173.75 246.942 173.627 247.087 173.622C247.235 173.613 247.354 173.73 247.36 173.875C247.367 174.061 248.071 192.58 246.035 204.628C246.014 204.757 245.902 204.848 245.776 204.848L245.777 204.847Z" fill="black"/>
<path d="M228.019 214.783C227.875 214.783 227.756 214.667 227.755 214.522C227.611 199.575 215.687 193.015 215.567 192.95C215.438 192.881 215.391 192.722 215.46 192.593C215.528 192.464 215.687 192.417 215.816 192.485C215.939 192.552 228.137 199.262 228.283 214.516C228.284 214.661 228.167 214.781 228.022 214.782H228.02L228.019 214.783Z" fill="black"/>
<path d="M229.634 186.828C229.556 186.828 229.478 186.792 229.426 186.726C226.2 182.578 224.77 176.971 224.756 176.914C224.721 176.774 224.806 176.631 224.947 176.595C225.087 176.561 225.231 176.645 225.266 176.787C225.28 176.842 226.686 182.344 229.842 186.403C229.93 186.518 229.91 186.684 229.796 186.773C229.747 186.811 229.691 186.829 229.634 186.829V186.828Z" fill="black"/>
<path d="M221.122 217.041H249.299V230.311C249.299 237.72 243.29 243.736 235.889 243.736H234.532C227.131 243.736 221.122 237.72 221.122 230.311V217.041Z" fill="#E42F35"/>
<path d="M235.889 244H234.532C226.993 244 220.858 237.859 220.858 230.311V217.041C220.858 216.896 220.976 216.777 221.122 216.777H249.299C249.444 216.777 249.562 216.896 249.562 217.041V230.311C249.562 237.859 243.428 244 235.889 244ZM221.385 217.305V230.311C221.385 237.568 227.283 243.473 234.532 243.473H235.889C243.138 243.473 249.036 237.568 249.036 230.311V217.305H221.384H221.385Z" fill="black"/>
<path d="M246.536 222.018H223.882C223.737 222.018 223.619 221.9 223.619 221.754C223.619 221.609 223.737 221.491 223.882 221.491H246.536C246.681 221.491 246.799 221.609 246.799 221.754C246.799 221.9 246.681 222.018 246.536 222.018Z" fill="black"/>
<path d="M84.9515 96.7589L77.9423 93.3153C72.239 90.5124 66.9171 86.9908 62.1054 82.8367L61.7617 80.7042C61.7617 80.7042 59.3848 80.7302 58.8771 80.7006C58.2276 80.664 57.5675 80.8909 57.0692 81.3792C51.8477 86.4943 45.9024 90.8139 39.4257 94.1972L34.843 96.591C33.7779 97.1478 33.3859 98.1278 33.7071 99.5369L39.6961 124.866C42.3033 131.951 52.8018 141.435 58.7117 146.37C59.7874 147.268 61.1005 147.707 62.4076 147.699C62.9874 147.695 65.3904 147.772 65.3904 147.772C65.3904 147.772 65.8993 146.759 66.5712 146.074C71.8824 140.672 81.2001 130.273 83.0894 122.084L86.2244 99.4447C86.4736 98.3619 85.9457 97.2495 84.9503 96.7601L84.9515 96.7589Z" fill="#CFCFD0"/>
<path d="M87.6059 96.8948L80.6521 93.4772C74.9925 90.6968 69.712 87.2024 64.9392 83.0803L63.1479 81.5328C62.2151 80.7278 60.8229 80.7715 59.9432 81.6333C54.7619 86.7095 48.8638 90.9947 42.4367 94.352L37.8894 96.727C36.8326 97.279 36.3496 98.5309 36.7617 99.6504L42.7047 124.783C45.2918 131.814 55.821 141.31 61.6849 146.208C63.9556 148.104 67.2973 147.935 69.3719 145.825C74.6418 140.465 83.8875 130.146 85.7614 122.021L88.8729 99.5582C89.1208 98.4836 88.5965 97.3807 87.6082 96.8948H87.6059Z" fill="white"/>
<path d="M83.3337 99.8786L77.5761 97.0497C72.8907 94.7469 68.5182 91.8542 64.566 88.4413L63.083 87.1599C62.3107 86.4931 61.1582 86.5298 60.4297 87.2438C56.1398 91.4463 51.256 94.9951 45.9354 97.7743L42.171 99.7414C41.296 100.199 40.8969 101.234 41.2381 102.161L46.1585 122.969C48.3005 128.79 57.0184 136.654 61.8738 140.709C63.7537 142.279 66.5203 142.139 68.2383 140.392C72.6014 135.954 80.2565 127.411 81.8081 120.683L84.3834 102.084C84.5889 101.195 84.1544 100.282 83.3361 99.8797L83.3337 99.8786Z" fill="white"/>
<path d="M64.8743 141.952C63.7703 141.952 62.6638 141.582 61.7664 140.833C56.8 136.685 48.1483 128.857 46.0027 123.025C46.0004 123.019 45.9992 123.013 45.9968 123.006L41.0788 102.207C40.7163 101.21 41.152 100.088 42.0931 99.596L45.8575 97.6289C51.1687 94.8545 56.0325 91.321 60.3141 87.1268C61.1087 86.3477 62.345 86.3087 63.1869 87.0369L64.67 88.3184C68.6104 91.7206 72.9758 94.6097 77.6459 96.9043L83.4035 99.7332C84.2938 100.171 84.7602 101.153 84.537 102.121L81.9641 120.706C80.4042 127.472 72.7644 136.014 68.3482 140.507C67.4059 141.465 66.1401 141.953 64.8719 141.953L64.8743 141.952ZM46.3109 122.922C48.4364 128.682 57.035 136.459 61.9743 140.585C63.7738 142.087 66.4731 141.952 68.1192 140.278C72.5106 135.811 80.1078 127.321 81.6464 120.647L84.2194 102.062C84.4107 101.227 84.0163 100.396 83.2618 100.025L77.5042 97.1963C72.8093 94.8899 68.4203 91.9854 64.4598 88.5654L62.9768 87.284C62.2636 86.6681 61.2162 86.7 60.5431 87.3608C56.2391 91.5775 51.3494 95.1299 46.0098 97.9198L42.2454 99.8868C41.4448 100.305 41.0776 101.259 41.3893 102.107C41.3917 102.113 41.3929 102.119 41.3952 102.126L46.3133 122.924L46.3109 122.922Z" fill="#CFCFD0"/>
<path d="M65.3112 147.676C63.9852 147.676 62.6568 147.233 61.5799 146.332C55.585 141.325 45.1408 131.875 42.5513 124.838C42.5489 124.832 42.5477 124.827 42.5454 124.819L36.6048 99.6965C36.1726 98.5061 36.6898 97.1691 37.8127 96.5827L42.36 94.2078C48.7776 90.8552 54.6545 86.5865 59.8276 81.5175C60.7758 80.5883 62.247 80.5422 63.2519 81.4099L65.0432 82.9573C69.803 87.0677 75.0788 90.5585 80.7219 93.3318L87.6756 96.7494C88.7372 97.2708 89.2933 98.4411 89.0264 99.5949L87.6945 109.22C87.6827 109.309 87.6 109.37 87.5115 109.358C87.4229 109.346 87.3603 109.264 87.3733 109.175L88.7088 99.5357C88.9438 98.5156 88.4585 97.4954 87.5339 97.0402L80.5802 93.6226C74.9123 90.8375 69.6141 87.3313 64.8318 83.2032L63.0405 81.6558C62.1656 80.8992 60.882 80.9406 60.0555 81.7504C54.8588 86.8407 48.9559 91.1295 42.5111 94.4963L37.9639 96.8712C36.9826 97.3842 36.5315 98.5546 36.9141 99.5937C36.9165 99.5996 36.9177 99.6055 36.92 99.6126L42.8606 124.736C45.4289 131.7 55.8211 141.099 61.7889 146.083C63.9757 147.909 67.256 147.746 69.2563 145.71C74.5628 140.313 83.7424 130.053 85.6033 121.984L86.4051 116.191C86.4169 116.102 86.4995 116.038 86.5881 116.053C86.6767 116.065 86.7392 116.147 86.7262 116.236L85.9221 122.043C84.0399 130.204 74.8179 140.516 69.4877 145.937C68.3553 147.089 66.8356 147.674 65.3136 147.675L65.3112 147.676Z" fill="black"/>
<path d="M58.7942 105.948L58.9005 99.2828C58.9489 97.1289 60.6552 95.3663 62.8042 95.267C65.1729 95.1582 67.139 97.0981 67.0846 99.4719L67.1307 105.84C67.1142 106.561 69.8347 106.244 69.8454 105.581L69.5643 99.6232C69.6529 95.8096 66.6041 92.6805 62.6732 92.8401V92.8436C59.426 92.976 56.4539 95.8368 56.3724 99.3194L56.2886 106.051L58.7966 105.949L58.7942 105.948Z" fill="white"/>
<path d="M68.0788 106.412C67.7281 106.412 67.4093 106.359 67.2098 106.239C67.0031 106.114 66.963 105.95 66.9665 105.835L66.9205 99.4719C66.9453 98.3761 66.5119 97.3109 65.7302 96.5461C64.9426 95.7753 63.9035 95.3769 62.8089 95.429C60.7531 95.5235 59.1071 97.2175 59.0599 99.2851L58.9536 105.95C58.9524 106.036 58.8839 106.106 58.7977 106.11L56.2897 106.211C56.246 106.215 56.2023 106.197 56.1704 106.165C56.1386 106.133 56.1208 106.091 56.1208 106.047L56.2047 99.3159C56.285 95.8675 59.2228 92.8377 62.6282 92.6817C62.6389 92.6793 62.6495 92.6769 62.6601 92.6769C64.5754 92.5977 66.3667 93.2798 67.7021 94.5944C69.0483 95.9184 69.765 97.7058 69.7201 99.6268L70.0012 105.574C70 105.715 69.9315 105.908 69.6198 106.08C69.2549 106.282 68.6255 106.413 68.0753 106.413L68.0788 106.412ZM62.9967 95.0991C64.109 95.0991 65.154 95.5259 65.9581 96.3132C66.8036 97.1407 67.2735 98.2921 67.2452 99.4743L67.2912 105.838C67.2912 105.861 67.2901 105.908 67.3786 105.961C67.7553 106.188 68.9255 106.095 69.4674 105.795C69.6009 105.721 69.6812 105.64 69.6812 105.578L69.4001 99.6291C69.4427 97.7873 68.7601 96.0851 67.479 94.8249C66.2155 93.5813 64.5211 92.9335 62.7085 92.9997C62.6979 93.002 62.6873 93.0044 62.6767 93.0044C59.4224 93.1368 56.6085 96.0295 56.5318 99.3218L56.4503 105.88L58.6336 105.792L58.7375 99.2792C58.7883 97.0402 60.5713 95.2067 62.7959 95.1039C62.8632 95.1003 62.9305 95.0991 62.9967 95.0991Z" fill="black"/>
<path d="M61.5763 124.273L64.3854 124.384C68.2738 124.288 71.7123 119.635 71.3427 114.165L70.7523 105.416L54.2222 105.283C52.7557 105.277 51.5265 106.587 51.6268 108.052L52.1369 115.44C52.4723 120.411 56.598 124.272 61.5751 124.272L61.5763 124.273Z" fill="#CFCFD0"/>
<path d="M64.2851 124.137C69.7604 124.137 74.0928 119.497 73.7232 114.029L73.1505 105.547H55.6735C54.8693 105.547 54.2341 106.228 54.2884 107.031L54.8469 115.306C55.1823 120.276 59.308 124.137 64.2851 124.137Z" fill="white"/>
<path d="M64.2851 124.299C59.2419 124.299 55.0253 120.353 54.6852 115.316L54.1232 106.999C54.0948 106.577 54.2377 106.173 54.527 105.864C54.8163 105.554 55.2071 105.384 55.6299 105.384H71.7809C72.6334 105.384 73.3454 106.051 73.4033 106.902L73.4812 108.06C73.4871 108.15 73.4198 108.227 73.3301 108.233C73.2415 108.236 73.1636 108.171 73.1577 108.081L73.0798 106.923C73.0337 106.241 72.4634 105.708 71.7809 105.708H55.6299C55.2981 105.708 54.9899 105.841 54.7632 106.085C54.5364 106.327 54.4243 106.644 54.4467 106.976L55.0088 115.294C55.337 120.161 59.412 123.974 64.2851 123.974C68.8714 123.974 72.8271 120.554 73.4859 116.02C73.4989 115.931 73.5816 115.867 73.6702 115.882C73.7587 115.895 73.8201 115.978 73.8071 116.067C73.1246 120.76 69.0308 124.299 64.2851 124.299Z" fill="black"/>
<path d="M64.5024 118.772C64.9487 118.772 65.3018 118.395 65.2734 117.949L64.853 111.355C64.8271 110.947 64.4894 110.63 64.082 110.63C63.6356 110.63 63.2826 111.007 63.3109 111.453L63.7313 118.047C63.7573 118.455 64.095 118.772 64.5024 118.772Z" fill="black"/>
<path d="M64.8815 114.73C66.4105 114.369 67.3574 112.835 66.9965 111.304C66.6357 109.774 65.1036 108.826 63.5746 109.187C62.0456 109.548 61.0987 111.082 61.4596 112.613C61.8204 114.143 63.3525 115.091 64.8815 114.73Z" fill="black"/>
<g clip-path="url(#clip1_9665_2049)">
<path d="M139.349 100.808C141.583 100.866 143.394 99.0593 143.394 96.7717C143.394 94.484 141.583 92.582 139.349 92.5235C137.114 92.465 135.303 94.2721 135.303 96.5598C135.303 98.8475 137.114 100.749 139.349 100.808Z" fill="white"/>
<path d="M145.696 96.8319C145.696 95.1081 145.027 93.4374 143.837 92.1873C142.646 90.9372 141.032 90.2102 139.348 90.1661C137.664 90.122 136.05 90.7645 134.859 91.9522C133.669 93.14 133 94.7757 133 96.4995C133 96.8162 133.022 97.1331 133.068 97.4476C133.301 99.078 134.126 100.573 135.377 101.633C136.628 102.693 138.212 103.238 139.811 103.16C141.41 103.082 142.906 102.386 143.998 101.213C145.089 100.039 145.696 98.4736 145.696 96.8319ZM135.087 97.5005C135.022 97.1875 134.989 96.8692 134.99 96.5508C134.99 96.2475 135.02 95.9457 135.078 95.65C135.302 94.5754 135.908 93.6338 136.78 93.007C137.652 92.3801 138.729 92.1124 139.801 92.2555C140.874 92.3985 141.867 92.9422 142.589 93.7817C143.311 94.6211 143.711 95.6968 143.711 96.8012C143.711 97.9055 143.311 98.9603 142.589 99.7619C141.867 100.564 140.874 101.055 139.801 101.142C138.729 101.229 137.652 100.905 136.78 100.232C135.908 99.5599 135.302 98.5866 135.078 97.5003L135.087 97.5005Z" fill="#ED2027"/>
<path d="M143.748 96.7794C143.748 95.888 143.49 95.0097 143.006 94.2559C142.523 93.502 141.835 92.9063 141.031 92.5441C140.226 92.182 139.341 92.0696 138.487 92.2213C137.633 92.373 136.849 92.7818 136.233 93.3962C135.618 94.0105 135.199 94.8028 135.029 95.6727C134.859 96.5427 134.947 97.4512 135.28 98.2835C135.613 99.1158 136.178 99.8343 136.902 100.348C137.626 100.862 138.477 101.149 139.348 101.171C140.515 101.201 141.634 100.756 142.46 99.9321C143.285 99.1086 143.748 97.9745 143.748 96.7794ZM136.318 96.5849C136.336 95.7746 136.662 95.0116 137.229 94.4593C137.795 93.907 138.555 93.6094 139.347 93.6301C140.139 93.6509 140.9 93.9884 141.466 94.5703C142.032 95.1522 142.359 95.9323 142.376 96.7435" fill="#1ECAD3"/>
<path d="M139.324 98.7522C140.437 98.7813 141.34 97.8809 141.34 96.7409C141.34 95.601 140.437 94.6533 139.324 94.6241C138.211 94.595 137.308 95.4954 137.308 96.6354C137.308 97.7753 138.211 98.723 139.324 98.7522Z" fill="#ED2027"/>
<path d="M172.891 91.0452L177.306 91.1608C177.815 91.1706 178.32 91.2875 178.789 91.5042C179.23 91.7044 179.637 91.9756 179.996 92.3072C180.347 92.6387 180.625 93.0436 180.809 93.493C181.008 93.9753 181.109 94.4921 181.105 95.0108C181.11 95.4974 181.026 95.9784 180.857 96.4288C180.695 96.8523 180.464 97.2434 180.174 97.5858C180.775 98.3094 181.105 99.2253 181.102 100.163C181.101 100.712 181 101.252 180.807 101.758C180.629 102.245 180.352 102.686 179.994 103.052C179.646 103.397 179.237 103.672 178.787 103.862C178.32 104.06 177.814 104.153 177.303 104.136L172.79 104.018C172.433 104.003 172.089 103.857 171.822 103.608C171.697 103.476 171.599 103.32 171.533 103.15C171.467 102.981 171.434 102.8 171.437 102.619V92.3474C171.441 92.1451 171.501 91.9496 171.611 91.7838C171.677 91.6535 171.764 91.5356 171.868 91.4346C172.075 91.2009 172.363 91.0594 172.673 91.0395L172.891 91.0452ZM177.303 96.224C177.461 96.2315 177.618 96.2058 177.765 96.1484C177.911 96.091 178.043 96.0032 178.154 95.8903C178.27 95.7776 178.362 95.6409 178.423 95.4887C178.484 95.3366 178.514 95.1723 178.51 95.0062C178.514 94.8457 178.485 94.6853 178.425 94.5352C178.365 94.3852 178.276 94.2488 178.162 94.1348C178.051 94.0176 177.918 93.9238 177.772 93.8588C177.626 93.7939 177.47 93.7592 177.312 93.7566L174.055 93.6713V96.1449L177.303 96.224ZM177.303 101.431C177.461 101.437 177.618 101.411 177.764 101.353C177.91 101.296 178.042 101.209 178.154 101.097C178.282 100.954 178.38 100.785 178.441 100.6C178.502 100.416 178.526 100.219 178.51 100.023C178.526 99.8269 178.502 99.6291 178.441 99.4411C178.38 99.253 178.282 99.0788 178.154 98.9291C178.042 98.8118 177.91 98.7179 177.764 98.6529C177.618 98.588 177.461 98.5533 177.303 98.5509L174.055 98.4658V101.351L177.303 101.431Z" fill="#ED2027"/>
<path d="M186.964 91.4405C187.587 91.4554 188.204 91.5924 188.782 91.844C189.348 92.0859 189.865 92.4368 190.306 92.8772C190.743 93.3201 191.097 93.8411 191.349 94.4131C191.614 95.0115 191.749 95.6589 191.744 96.3095V103.135C191.746 103.304 191.715 103.471 191.652 103.626C191.59 103.781 191.497 103.921 191.38 104.037C191.264 104.159 191.124 104.256 190.969 104.321C190.815 104.387 190.648 104.42 190.479 104.419C190.14 104.416 189.811 104.28 189.559 104.039C189.435 103.924 189.336 103.783 189.27 103.625C189.204 103.468 189.172 103.298 189.177 103.128V100.758L184.766 100.643V102.958C184.767 103.131 184.732 103.302 184.663 103.459C184.595 103.616 184.495 103.756 184.37 103.87C184.252 103.992 184.111 104.088 183.955 104.152C183.798 104.216 183.63 104.246 183.46 104.242C183.123 104.234 182.797 104.095 182.55 103.853C182.424 103.74 182.324 103.6 182.255 103.444C182.187 103.287 182.152 103.118 182.154 102.949V96.217C182.163 95.564 182.295 94.9219 182.54 94.3254C182.777 93.7506 183.12 93.2302 183.55 92.7919C183.996 92.3409 184.527 91.9889 185.114 91.7567C185.7 91.5245 186.33 91.4169 186.964 91.4405ZM189.176 96.4024C189.177 96.0956 189.118 95.7902 189.002 95.5043C188.893 95.2331 188.732 94.9864 188.528 94.7793C188.32 94.5696 188.078 94.3981 187.814 94.2729C187.536 94.1441 187.236 94.0757 186.934 94.0719C186.648 94.0656 186.365 94.1187 186.103 94.2281C185.846 94.3287 185.61 94.4769 185.407 94.6656C185.205 94.8543 185.044 95.0839 184.932 95.3404C184.815 95.6049 184.756 95.8936 184.758 96.1869V98.0067L189.176 98.1224V96.4024Z" fill="#ED2027"/>
<path d="M197.585 91.7819C198.208 91.7968 198.825 91.9338 199.403 92.1854C199.969 92.426 200.487 92.7765 200.927 93.2171C201.364 93.6603 201.718 94.1818 201.97 94.7545C202.237 95.3516 202.372 95.9987 202.365 96.6487V103.476C202.368 103.645 202.337 103.812 202.274 103.967C202.212 104.122 202.119 104.262 202.002 104.378C201.886 104.5 201.746 104.597 201.592 104.662C201.438 104.728 201.271 104.761 201.103 104.76C200.763 104.757 200.434 104.621 200.183 104.38C200.058 104.265 199.958 104.124 199.891 103.966C199.824 103.809 199.792 103.639 199.797 103.469V96.7356C199.797 96.4328 199.738 96.1315 199.623 95.8494C199.514 95.5784 199.352 95.3319 199.148 95.1251C198.941 94.9149 198.699 94.7439 198.435 94.6202C198.165 94.494 197.874 94.424 197.58 94.4145C197.286 94.405 196.995 94.4562 196.723 94.565C196.467 94.6672 196.231 94.8153 196.027 95.0025C195.825 95.1917 195.664 95.422 195.553 95.6795C195.435 95.944 195.376 96.2328 195.379 96.5261V103.293C195.379 103.467 195.344 103.637 195.276 103.794C195.207 103.952 195.108 104.091 194.982 104.205C194.864 104.327 194.723 104.422 194.566 104.485C194.41 104.549 194.242 104.58 194.073 104.575C193.736 104.571 193.41 104.436 193.161 104.195C193.035 104.082 192.934 103.943 192.866 103.786C192.798 103.63 192.764 103.461 192.767 103.292V96.5515C192.776 95.8975 192.907 95.2547 193.154 94.6577C193.515 93.7701 194.131 93.021 194.922 92.5079C195.713 91.9948 196.643 91.7414 197.59 91.7805L197.585 91.7819Z" fill="#ED2027"/>
<path d="M212.576 102.752C212.702 102.88 212.802 103.032 212.87 103.199C212.938 103.366 212.972 103.545 212.97 103.724C212.971 103.906 212.936 104.086 212.869 104.253C212.801 104.42 212.701 104.571 212.576 104.696C212.451 104.818 212.304 104.912 212.143 104.975C211.981 105.037 211.808 105.065 211.635 105.058C211.278 105.051 210.935 104.904 210.675 104.648L206.065 100.353V103.533C206.069 103.712 206.037 103.889 205.97 104.053C205.904 104.217 205.805 104.365 205.679 104.486C205.423 104.734 205.08 104.867 204.723 104.858C204.365 104.849 204.022 104.697 203.766 104.436C203.638 104.309 203.537 104.158 203.469 103.99C203.4 103.823 203.367 103.644 203.37 103.464V93.2498C203.368 93.072 203.403 92.8967 203.471 92.7349C203.539 92.5731 203.64 92.4282 203.766 92.3094C203.891 92.1833 204.04 92.0846 204.204 92.0189C204.369 91.9532 204.545 91.9217 204.723 91.9264C204.9 91.931 205.077 91.9717 205.241 92.046C205.405 92.1204 205.554 92.2269 205.679 92.3595C205.802 92.4869 205.9 92.6378 205.966 92.8031C206.032 92.9684 206.065 93.1449 206.064 93.3219V96.5021L210.675 92.4918C210.801 92.3658 210.951 92.2673 211.116 92.202C211.281 92.1366 211.458 92.1058 211.637 92.1111C211.812 92.114 211.986 92.1537 212.148 92.2278C212.31 92.3018 212.456 92.4086 212.577 92.5416C212.704 92.6697 212.805 92.8227 212.873 92.9911C212.941 93.1594 212.975 93.3395 212.972 93.5199C212.973 93.6996 212.939 93.8768 212.871 94.0407C212.803 94.2046 212.703 94.3517 212.577 94.4731L207.945 98.4821L212.576 102.752Z" fill="#ED2027"/>
<path d="M156.776 90.6239C156.955 90.6245 157.132 90.6629 157.297 90.7368C157.463 90.8108 157.612 90.9185 157.736 91.0534C157.86 91.1845 157.958 91.3391 158.025 91.5081C158.091 91.6771 158.123 91.857 158.121 92.0374C158.126 92.218 158.094 92.3969 158.028 92.5625C157.962 92.7282 157.862 92.8771 157.736 92.9998C157.609 93.123 157.459 93.2184 157.294 93.2802C157.129 93.342 156.953 93.369 156.776 93.3596L154.566 93.3017V102.14C154.571 102.322 154.54 102.501 154.475 102.668C154.411 102.835 154.314 102.987 154.19 103.113C153.935 103.359 153.595 103.491 153.24 103.482C152.886 103.473 152.545 103.323 152.291 103.063C152.166 102.931 152.067 102.775 152.002 102.604C151.936 102.434 151.904 102.252 151.908 102.071V93.2306L149.672 93.1721C149.498 93.1712 149.325 93.1345 149.164 93.0641C149.003 92.9938 148.856 92.8912 148.733 92.7625C148.606 92.6335 148.506 92.4795 148.44 92.3103C148.373 92.1411 148.342 91.9605 148.347 91.78C148.344 91.5993 148.377 91.4209 148.443 91.2553C148.509 91.0898 148.608 90.9404 148.733 90.8161C148.854 90.6892 148.999 90.5901 149.161 90.5249C149.323 90.4598 149.497 90.4302 149.672 90.4379L156.776 90.6239Z" fill="#ED2027"/>
<path d="M157.764 97.1591C157.764 98.4381 158.134 99.6982 158.828 100.78C159.521 101.862 160.508 102.717 161.662 103.237C162.816 103.757 164.085 103.918 165.311 103.701C166.536 103.484 167.661 102.898 168.545 102.016C169.428 101.135 170.03 99.9988 170.273 98.7508C170.517 97.5027 170.392 96.1992 169.914 95.005C169.436 93.8109 168.627 92.7797 167.588 92.042C166.549 91.3043 165.328 90.8932 164.079 90.8606C162.405 90.8169 160.799 91.4559 159.615 92.637C158.43 93.8182 157.765 95.4447 157.764 97.1591ZM164.08 94.0832C164.898 94.1358 165.673 94.511 166.242 95.1299C166.81 95.7488 167.128 96.5633 167.128 97.4021C167.128 98.2409 166.81 99.0387 166.242 99.6278C165.673 100.217 164.898 100.552 164.08 100.561V94.0832Z" fill="#ED2027"/>
<path d="M164.08 101.097C165.048 101.109 165.972 100.729 166.652 100.041C167.332 99.3527 167.713 98.4109 167.713 97.4193C167.713 96.4276 167.332 95.4658 166.652 94.7419C165.972 94.018 165.048 93.5901 164.08 93.5509" fill="#1ECAD3"/>
</g>
<path d="M149.213 42.6255C149.066 42.247 148.991 41.8411 148.993 41.4239C148.997 40.5132 149.364 39.6557 150.026 39.0085C151.379 37.6862 153.559 37.6731 154.885 38.979C155.523 39.6067 155.873 40.4466 155.87 41.3403C155.866 42.251 155.498 43.1085 154.836 43.7557C153.483 45.0779 151.303 45.0911 149.977 43.7851C149.637 43.4505 149.379 43.0564 149.213 42.6255ZM154.474 39.3905C153.373 38.3062 151.56 38.3204 150.434 39.4207C149.884 39.9587 149.579 40.6685 149.575 41.4232C149.572 42.161 149.861 42.8521 150.387 43.3712C151.488 44.4556 153.301 44.4413 154.427 43.3411C154.978 42.803 155.282 42.0933 155.286 41.3385C155.289 40.6008 155.001 39.9096 154.474 39.3905Z" fill="black"/>
<path d="M178.122 50.4003C178.096 50.3331 178.095 50.2565 178.125 50.1845C178.188 50.0368 178.358 49.9667 178.506 50.0274L179.936 50.6185C180.084 50.6805 180.154 50.85 180.092 50.9973C180.029 51.1451 179.858 51.2152 179.711 51.1544L178.281 50.5633C178.205 50.5322 178.149 50.4711 178.122 50.4003Z" fill="black"/>
<path d="M173.117 48.3311C173.091 48.2639 173.09 48.1873 173.121 48.1149C173.184 47.9671 173.354 47.897 173.502 47.9578L174.932 48.5489C175.08 48.6109 175.151 48.7799 175.088 48.9277C175.025 49.0754 174.855 49.1455 174.707 49.0848L173.277 48.4937C173.201 48.4613 173.145 48.4014 173.118 48.3306L173.117 48.3311Z" fill="black"/>
<path d="M177.098 47.9153C177.072 47.847 177.071 47.7686 177.104 47.6957L177.715 46.2981C177.779 46.1511 177.951 46.0835 178.098 46.1472C178.246 46.2109 178.313 46.3813 178.25 46.5278L177.639 47.9254C177.574 48.0725 177.403 48.1401 177.255 48.0764C177.181 48.0448 177.127 47.9844 177.1 47.9149L177.098 47.9153Z" fill="black"/>
<path d="M174.961 52.8055C174.935 52.7371 174.934 52.6588 174.967 52.5859L175.577 51.1883C175.642 51.0412 175.814 50.9736 175.961 51.0373C176.108 51.101 176.176 51.2714 176.112 51.418L175.502 52.8156C175.437 52.9626 175.265 53.0302 175.118 52.9665C175.044 52.9349 174.989 52.8746 174.962 52.805L174.961 52.8055Z" fill="black"/>
<circle cx="52.5" cy="190.5" r="5.5" fill="#ED2027"/>
<circle cx="67.5" cy="190.5" r="5.5" fill="#ED2027"/>
<circle cx="83" cy="190" r="5.5" fill="#ED2027"/>
</g>
<path d="M74.1816 12.9045C74.2137 12.8982 74.2481 12.8969 74.2825 12.9023C74.4407 12.9279 74.5484 13.0774 74.5246 13.2363L74.1745 15.4708C74.1494 15.63 73.9997 15.7382 73.8427 15.7123C73.6845 15.6867 73.5768 15.5372 73.6006 15.3783L73.9507 13.1438C73.9705 13.0192 74.0657 12.9256 74.1813 12.9032L74.1816 12.9045Z" fill="black"/>
<path d="M74.9971 7.69796C75.0292 7.69173 75.0636 7.69041 75.098 7.69581C75.2563 7.72143 75.364 7.8709 75.3402 8.0298L74.9901 10.2643C74.965 10.4235 74.8169 10.5327 74.6583 10.5058C74.5 10.4802 74.3924 10.3307 74.4162 10.1718L74.7663 7.93729C74.7861 7.81271 74.8812 7.71911 74.9969 7.69667L74.9971 7.69796Z" fill="black"/>
<path d="M75.8921 11.6561C75.9243 11.6499 75.9587 11.6486 75.993 11.654L78.2155 12.0114C78.3738 12.037 78.4814 12.1864 78.4563 12.3456C78.4312 12.5047 78.2829 12.6127 78.1246 12.5871L75.9022 12.2297C75.7439 12.2041 75.6362 12.0546 75.6613 11.8954C75.6811 11.7709 75.7763 11.6773 75.8919 11.6548L75.8921 11.6561Z" fill="black"/>
<path d="M70.714 10.8248C70.7462 10.8185 70.7806 10.8172 70.8149 10.8226L73.0374 11.18C73.1957 11.2056 73.3033 11.3551 73.2795 11.514C73.2544 11.6731 73.1061 11.7811 72.9478 11.7555L70.7254 11.3981C70.5671 11.3725 70.4594 11.223 70.4832 11.0641C70.503 10.9395 70.5982 10.8459 70.7138 10.8235L70.714 10.8248Z" fill="black"/>
<path d="M90.9017 0.641142C91.3 0.563828 91.7128 0.561496 92.1233 0.636096C93.019 0.800271 93.7985 1.31302 94.319 2.07859C95.3813 3.64318 95.0118 5.79159 93.4929 6.86723C92.7627 7.38459 91.8743 7.58119 90.9953 7.42049C90.0995 7.25631 89.3201 6.74357 88.7995 5.978C87.7372 4.41341 88.1067 2.265 89.6257 1.18936C90.0148 0.91393 90.4482 0.729181 90.9017 0.641142ZM92.1069 6.84248C92.4808 6.76991 92.8378 6.61743 93.1589 6.39007C94.4201 5.49729 94.7251 3.7102 93.8403 2.40763C93.4088 1.771 92.7624 1.34645 92.0201 1.21018C91.2944 1.07738 90.5633 1.23943 89.9596 1.66651C88.6984 2.55929 88.3934 4.34638 89.2782 5.64896C89.7098 6.28559 90.3561 6.71014 91.0985 6.84641C91.4383 6.90787 91.778 6.90633 92.1069 6.84248Z" fill="black"/>
<defs>
<clipPath id="clip0_9665_2049">
<rect width="272" height="211" fill="white" transform="translate(0 32.9998)"/>
</clipPath>
<clipPath id="clip1_9665_2049">
<rect width="80" height="13" fill="white" transform="matrix(0.999657 0.0261769 0 1 133 89.9998)"/>
</clipPath>
</defs>
</svg>
