<svg width="286" height="269" viewBox="0 0 286 269" fill="none" xmlns="http://www.w3.org/2000/svg">
<path d="M3.35587 202.202C1.50523 202.202 0 200.7 0 198.854C0 197.008 1.50523 195.507 3.35587 195.507C5.20651 195.507 6.71175 197.008 6.71175 198.854C6.71175 200.7 5.20651 202.202 3.35587 202.202ZM3.35587 196.31C1.94881 196.31 0.805337 197.451 0.805337 198.854C0.805337 200.258 1.94881 201.398 3.35587 201.398C4.76294 201.398 5.90641 200.258 5.90641 198.854C5.90641 197.451 4.76294 196.31 3.35587 196.31Z" fill="black"/>
<path d="M6.91725 184.235C6.69546 184.235 6.51367 184.055 6.51367 183.832V180.717C6.51367 180.496 6.69365 180.316 6.91725 180.316C7.14085 180.316 7.32083 180.496 7.32083 180.717V183.832C7.32083 184.053 7.14085 184.235 6.91725 184.235Z" fill="black"/>
<path d="M6.91725 191.49C6.69546 191.49 6.51367 191.31 6.51367 191.087V187.972C6.51367 187.751 6.69365 187.57 6.91725 187.57C7.14085 187.57 7.32083 187.749 7.32083 187.972V191.087C7.32083 191.309 7.14085 191.49 6.91725 191.49Z" fill="black"/>
<path d="M4.84121 186.306H1.71803C1.49624 186.306 1.31445 186.126 1.31445 185.905C1.31445 185.684 1.49443 185.502 1.71803 185.502H4.84121C5.063 185.502 5.24479 185.682 5.24479 185.905C5.24479 186.128 5.06481 186.306 4.84121 186.306Z" fill="black"/>
<path d="M12.1166 186.306H8.99342C8.77164 186.306 8.58984 186.126 8.58984 185.905C8.58984 185.684 8.76982 185.502 8.99342 185.502H12.1166C12.3384 185.502 12.5202 185.682 12.5202 185.905C12.5202 186.128 12.3402 186.306 12.1166 186.306Z" fill="black"/>
<path d="M280.779 69.091C280.608 69.091 280.45 68.9822 280.395 68.8118L279.812 66.9984C279.745 66.788 279.861 66.5614 280.072 66.4925C280.283 66.4254 280.51 66.5414 280.579 66.7518L281.163 68.5651C281.23 68.7755 281.113 69.0022 280.903 69.0711C280.861 69.0838 280.821 69.091 280.779 69.091Z" fill="black"/>
<path d="M282.822 75.436C282.651 75.436 282.493 75.3272 282.439 75.1567L281.855 73.3434C281.788 73.133 281.904 72.9063 282.115 72.8374C282.326 72.7703 282.553 72.8864 282.622 73.0968L283.206 74.9101C283.273 75.1205 283.157 75.3471 282.946 75.4161C282.904 75.4288 282.864 75.436 282.822 75.436Z" fill="black"/>
<path d="M277.419 72.6706C277.249 72.6706 277.09 72.5618 277.036 72.3914C276.969 72.181 277.085 71.9543 277.296 71.8854L279.114 71.3015C279.325 71.2326 279.552 71.3487 279.621 71.5608C279.688 71.7712 279.572 71.9979 279.361 72.0668L277.543 72.6507C277.501 72.6634 277.461 72.6706 277.419 72.6706Z" fill="black"/>
<path d="M283.78 70.6269C283.609 70.6269 283.451 70.5181 283.397 70.3477C283.329 70.1373 283.446 69.9107 283.657 69.8417L285.475 69.2578C285.685 69.1889 285.913 69.305 285.982 69.5172C286.049 69.7275 285.933 69.9542 285.722 70.0231L283.904 70.607C283.864 70.6197 283.822 70.6269 283.78 70.6269Z" fill="black"/>
<path d="M259.827 51.3036C259.736 51.3036 259.644 51.2728 259.567 51.2093C257.729 49.6589 255.837 48.1284 253.941 46.6614C253.765 46.5254 253.734 46.2733 253.87 46.0974C254.006 45.9215 254.259 45.8907 254.435 46.0267C256.339 47.501 258.24 49.0387 260.087 50.5964C260.256 50.7397 260.278 50.9935 260.135 51.1622C260.055 51.2565 259.942 51.3036 259.827 51.3036Z" fill="black"/>
<path d="M254.188 46.7448C254.103 46.7448 254.015 46.7176 253.941 46.6596C227.525 26.2102 196.028 14.5339 165.25 13.785C165.028 13.7795 164.852 13.5946 164.858 13.3733C164.863 13.1557 165.043 12.9816 165.261 12.9816C165.265 12.9816 165.267 12.9816 165.27 12.9816C180.822 13.3606 196.431 16.4234 211.658 22.0848C226.79 27.7099 241.183 35.7649 254.435 46.0249C254.612 46.1609 254.643 46.413 254.506 46.5889C254.426 46.6904 254.308 46.7448 254.188 46.7448Z" fill="black"/>
<path d="M241.597 47.724C241.521 47.724 241.443 47.7023 241.374 47.6551C221.309 34.2217 198.811 26.0307 176.309 23.9689C176.087 23.9489 175.925 23.7531 175.945 23.5318C175.965 23.3106 176.163 23.1492 176.383 23.1692C199.02 25.2437 221.647 33.48 241.823 46.9878C242.006 47.1111 242.055 47.3614 241.932 47.5445C241.854 47.6606 241.726 47.7222 241.597 47.7222V47.724Z" fill="black"/>
<path d="M265.648 59.2444C265.303 59.2444 264.956 59.1864 264.619 59.0703C262.987 58.5045 262.122 56.722 262.687 55.0936C263.252 53.467 265.039 52.6002 266.674 53.166C268.304 53.7317 269.172 55.5143 268.606 57.1427C268.332 57.9315 267.766 58.5662 267.014 58.9307C266.581 59.1392 266.116 59.2444 265.65 59.2444H265.648ZM265.648 53.797C264.685 53.797 263.781 54.3991 263.447 55.3583C263.027 56.5678 263.67 57.8934 264.883 58.3123C265.47 58.5154 266.101 58.4791 266.661 58.2089C267.221 57.9388 267.641 57.4673 267.844 56.8816C268.264 55.672 267.621 54.3465 266.408 53.9276C266.157 53.8405 265.899 53.7988 265.647 53.7988L265.648 53.797Z" fill="black"/>
<path d="M160.313 16.5413C160.284 16.5413 160.255 16.5377 160.227 16.5322L154.828 15.3572C154.692 15.3281 154.581 15.2302 154.534 15.0997C154.486 14.9691 154.512 14.824 154.599 14.7152C156.199 12.7169 157.979 10.8437 157.997 10.8255C158.091 10.7258 158.231 10.6823 158.364 10.7077C158.499 10.7331 158.611 10.8255 158.662 10.9525L160.687 15.9918C160.744 16.1297 160.718 16.2874 160.622 16.3998C160.544 16.4905 160.431 16.5413 160.315 16.5413H160.313ZM155.637 14.7116L159.657 15.5856L158.151 11.8374C157.606 12.4268 156.619 13.5184 155.637 14.7098V14.7116Z" fill="black"/>
<path d="M111.745 45.3431C122.766 45.3431 131.701 36.4311 131.701 25.4377C131.701 14.4443 122.766 5.53231 111.745 5.53231C100.724 5.53231 91.79 14.4443 91.79 25.4377C91.79 36.4311 100.724 45.3431 111.745 45.3431Z" fill="white"/>
<path d="M111.771 45.7438C111.38 45.7438 110.991 45.733 110.598 45.7112C105.17 45.4047 100.185 43.0093 96.5621 38.9636C92.9408 34.918 91.1138 29.7082 91.421 24.2916C91.7282 18.8769 94.1297 13.9047 98.1855 10.2906C102.239 6.67836 107.459 4.85774 112.892 5.16238C118.321 5.46884 123.305 7.86431 126.929 11.9099C130.55 15.9556 132.377 21.1654 132.07 26.5819C131.762 31.9967 129.361 36.9689 125.305 40.583C121.542 43.9341 116.775 45.7457 111.771 45.7457V45.7438ZM111.72 5.93307C106.913 5.93307 102.334 7.67209 98.7199 10.8908C94.8241 14.3616 92.5172 19.1362 92.2227 24.337C91.9282 29.5377 93.6825 34.5426 97.1602 38.4287C100.64 42.3148 105.426 44.6159 110.642 44.9097C115.854 45.2035 120.873 43.4536 124.769 39.9846C128.665 36.5138 130.972 31.7392 131.266 26.5384C131.561 21.3377 129.806 16.3328 126.329 12.4467C122.849 8.56064 118.063 6.25948 112.847 5.96571C112.471 5.94395 112.094 5.93307 111.72 5.93307Z" fill="black"/>
<path d="M124.496 38.1558C131.538 31.1315 131.538 19.7429 124.496 12.7186C117.454 5.69431 106.037 5.69431 98.9949 12.7186C91.953 19.7429 91.953 31.1315 98.9949 38.1558C106.037 45.1801 117.454 45.1801 124.496 38.1558Z" fill="white"/>
<path d="M123.024 36.6877C129.253 30.4742 129.253 20.4002 123.024 14.1868C116.795 7.97334 106.696 7.97334 100.467 14.1868C94.2376 20.4002 94.2376 30.4742 100.467 36.6877C106.696 42.9011 116.795 42.9011 123.024 36.6877Z" fill="white"/>
<path d="M111.767 42.2531C111.443 42.2531 111.12 42.244 110.794 42.2259C106.299 41.972 102.172 39.9882 99.1707 36.6389C96.1711 33.2896 94.6586 28.9738 94.9131 24.4893C94.9258 24.2681 95.1131 24.0994 95.3385 24.1103C95.5603 24.123 95.7294 24.3134 95.7184 24.5346C95.4767 28.8051 96.9164 32.9124 99.7724 36.104C102.628 39.2937 106.559 41.1832 110.84 41.4244C115.116 41.6656 119.239 40.2294 122.436 37.3806C125.634 34.5318 127.528 30.6113 127.77 26.3408C128.012 22.0703 126.572 17.963 123.716 14.7714C120.86 11.5817 116.93 9.69219 112.649 9.45101C107.311 9.14999 102.199 11.5056 98.9598 15.7507C98.8253 15.9266 98.5726 15.961 98.3962 15.8268C98.2199 15.6926 98.1854 15.4406 98.3199 15.2647C101.721 10.8074 107.095 8.33397 112.694 8.6495C117.19 8.90337 121.317 10.8872 124.316 14.2365C127.316 17.5858 128.828 21.9016 128.574 26.3861C128.319 30.8706 126.33 34.9887 122.973 37.979C119.857 40.7553 115.908 42.2531 111.765 42.2531H111.767Z" fill="black"/>
<path d="M110.927 34.9706L110.802 32.7674C109.24 32.7855 107.704 32.4536 106.792 31.993L107.335 29.2403C108.342 29.7191 109.742 30.1289 111.253 30.0437C112.578 29.9693 113.456 29.4072 113.403 28.4805C113.354 27.5992 112.578 27.0842 110.824 26.6019C108.288 25.9074 106.524 24.8429 106.397 22.5925C106.281 20.5507 107.633 18.8697 110.093 18.2422L109.967 16.039L112.247 15.9102L112.363 17.9521C113.925 17.934 114.99 18.2005 115.779 18.5269L115.254 21.1872C114.634 20.9659 113.534 20.4926 111.86 20.5869C110.349 20.6722 109.897 21.3486 109.933 21.9977C109.977 22.763 110.818 23.2054 112.836 23.8365C115.659 24.6543 116.846 25.8675 116.965 27.9565C117.081 30.0219 115.716 31.8661 113.069 32.4808L113.203 34.8473L110.924 34.976L110.927 34.9706Z" fill="black"/>
<path d="M54.8989 118.612C62.4803 111.049 62.4803 98.7882 54.8989 91.2257C47.3174 83.6631 35.0254 83.6631 27.444 91.2257C19.8625 98.7882 19.8625 111.049 27.444 118.612C35.0254 126.174 47.3174 126.174 54.8989 118.612Z" fill="white"/>
<path d="M41.2049 124.682C34.3695 124.682 27.7123 121.158 24.0383 114.85C18.5482 105.426 21.7678 93.3032 31.2155 87.8286C35.7912 85.1756 41.1286 84.4593 46.246 85.8121C51.3616 87.1649 55.6446 90.4235 58.3042 94.9878C63.7943 104.412 60.5748 116.534 51.1271 122.009C48.0039 123.82 44.5808 124.682 41.2049 124.682ZM41.1395 85.9481C37.8272 85.9481 34.5586 86.8185 31.619 88.5231C22.5549 93.7765 19.4663 105.406 24.7328 114.447C29.9993 123.489 41.6576 126.569 50.7217 121.316C59.7858 116.063 62.8745 104.434 57.608 95.3922C55.0574 91.0129 50.9489 87.8866 46.0388 86.5882C44.4172 86.1603 42.772 85.9481 41.1395 85.9481Z" fill="black"/>
<path d="M38.4357 116.487L52.5128 108.328C53.9817 107.477 54.4805 105.599 53.627 104.134L48.3734 95.1151C47.5199 93.6499 45.6373 93.1524 44.1685 94.0037L30.0913 102.163C28.6225 103.015 28.1237 104.893 28.9772 106.358L34.2307 115.376C35.0842 116.841 36.9668 117.339 38.4357 116.487Z" fill="white"/>
<path d="M36.8947 117.303C35.6949 117.303 34.5259 116.685 33.8806 115.577L28.6268 106.559C28.1596 105.757 28.0342 104.822 28.2723 103.926C28.5105 103.03 29.0831 102.279 29.8866 101.813L43.9627 93.6549C45.6225 92.692 47.7549 93.2578 48.7184 94.9116L53.9722 103.93C54.4394 104.731 54.5648 105.667 54.3267 106.563C54.0885 107.458 53.5159 108.209 52.7106 108.675L38.6344 116.833C38.0854 117.151 37.4855 117.303 36.8929 117.303H36.8947ZM45.7079 93.9886C45.2516 93.9886 44.7899 94.1047 44.3681 94.3495L30.292 102.508C29.6739 102.865 29.234 103.442 29.0504 104.131C28.8668 104.82 28.9649 105.538 29.3231 106.155L34.5768 115.172C34.935 115.789 35.5131 116.228 36.2039 116.411C36.8947 116.594 37.6146 116.496 38.2327 116.139L38.4345 116.485L38.2327 116.139L52.3088 107.981C52.9269 107.623 53.3668 107.047 53.5504 106.358C53.734 105.669 53.6359 104.95 53.2777 104.334L48.024 95.316C47.5277 94.4655 46.6296 93.9886 45.7079 93.9886Z" fill="black"/>
<path d="M41.5955 106.327C41.5355 106.327 41.4737 106.312 41.4156 106.285C41.2174 106.185 41.1356 105.944 41.2356 105.747L45.0914 98.0633C45.1914 97.8656 45.4332 97.784 45.6313 97.8837C45.8295 97.9835 45.9113 98.2246 45.8113 98.4223L41.9555 106.106C41.8846 106.247 41.7428 106.327 41.5955 106.327Z" fill="black"/>
<path d="M41.5539 106.352C41.5539 106.352 41.5393 106.352 41.5321 106.352L32.9297 105.89C32.7079 105.877 32.537 105.688 32.5497 105.467C32.5625 105.246 32.7588 105.076 32.9733 105.088L41.5757 105.551C41.7975 105.563 41.9684 105.752 41.9556 105.973C41.9447 106.187 41.7666 106.354 41.5539 106.354V106.352Z" fill="black"/>
<path d="M68.0354 63.0431C75.3237 55.7731 75.3237 43.9861 68.0354 36.716C60.7472 29.446 48.9306 29.446 41.6423 36.716C34.3541 43.9861 34.3541 55.7731 41.6423 63.0431C48.9306 70.3132 60.7472 70.3132 68.0354 63.0431Z" fill="white"/>
<path d="M54.8774 68.9024C53.523 68.9024 52.1596 68.7574 50.8052 68.4654C45.8278 67.3901 41.5684 64.447 38.8106 60.1765C36.0528 55.906 35.1275 50.8195 36.2056 45.8545C37.2836 40.8895 40.2341 36.6407 44.5171 33.8916C48.7983 31.1408 53.8975 30.2196 58.875 31.2931C63.8524 32.3684 68.1118 35.3115 70.8678 39.582C76.5596 48.3986 74 60.1892 65.1613 65.8668C62.0454 67.8688 58.4968 68.9024 54.8774 68.9024ZM54.8028 31.6594C51.3361 31.6594 47.9366 32.6495 44.9534 34.5662C40.854 37.2011 38.0271 41.2703 36.9945 46.0249C35.9619 50.7796 36.8491 55.6503 39.4887 59.7413C42.1301 63.8322 46.2095 66.6502 50.9761 67.6802C55.7427 68.7102 60.6256 67.8271 64.7268 65.1923C73.191 59.754 75.6434 48.4603 70.1915 40.0172C67.5501 35.9263 63.4707 33.1083 58.7041 32.0783C57.4061 31.7972 56.099 31.6594 54.8028 31.6594Z" fill="black"/>
<path d="M57.2096 60.007C57.7694 58.6882 57.1515 57.1664 55.8294 56.608C54.5073 56.0496 52.9817 56.666 52.4219 57.9847C51.862 59.3035 52.48 60.8253 53.802 61.3837C55.1241 61.9422 56.6497 61.3258 57.2096 60.007Z" fill="#E42F35"/>
<path d="M59.4186 55.7228C59.7513 55.7192 60.0804 55.5741 60.3112 55.2985C60.7275 54.7998 60.6603 54.0582 60.1585 53.6411C58.526 52.2865 56.6772 51.5811 54.8139 51.6047C52.9505 51.6282 51.1217 52.3772 49.5219 53.7735C49.0311 54.2014 48.982 54.9449 49.411 55.4327C49.84 55.9223 50.5854 55.9713 51.0744 55.5433C52.2615 54.5061 53.5286 53.9729 54.8411 53.9566C56.1537 53.9403 57.4353 54.4426 58.6478 55.449C58.8714 55.6358 59.1459 55.7246 59.4168 55.721L59.4186 55.7228Z" fill="#E42F35"/>
<path d="M47.5294 51.63C47.7985 51.6264 48.0675 51.5321 48.2857 51.3435C50.3163 49.5882 52.4996 48.6851 54.7756 48.6561C57.0517 48.6271 59.2568 49.4776 61.331 51.1803C61.8346 51.5938 62.5763 51.5212 62.9908 51.0208C63.4053 50.5185 63.3326 49.7786 62.8308 49.3651C60.3494 47.3269 57.5552 46.2697 54.7465 46.3042C51.9379 46.3386 49.171 47.4665 46.7423 49.5664C46.2496 49.9926 46.1969 50.7342 46.6223 51.2257C46.8586 51.4977 47.1931 51.6355 47.5294 51.6319V51.63Z" fill="#E42F35"/>
<path d="M44.7443 47.423C45.017 47.4194 45.2897 47.3233 45.5097 47.1293C48.382 44.6032 51.4761 43.3012 54.7083 43.2613C57.9406 43.2214 61.0674 44.4455 64.0015 46.899C64.5015 47.316 65.245 47.2508 65.6631 46.7539C66.0812 46.2552 66.0158 45.5136 65.5177 45.0965C63.8834 43.7292 62.1527 42.6811 60.3711 41.9775C58.5169 41.2449 56.6008 40.8858 54.6793 40.9094C52.7577 40.933 50.8507 41.341 49.0146 42.1189C47.2531 42.866 45.5479 43.9577 43.9481 45.3649C43.4591 45.7946 43.4136 46.5381 43.8445 47.0259C44.0808 47.2943 44.4135 47.4285 44.7443 47.4248V47.423Z" fill="#E42F35"/>
<path d="M54.8956 227.845C54.7138 227.845 54.5339 227.845 54.3539 227.839C54.1321 227.835 53.954 227.652 53.9594 227.429C53.963 227.21 54.143 227.036 54.363 227.036C54.3648 227.036 54.3684 227.036 54.3703 227.036C55.9246 227.065 57.5262 226.965 59.1241 226.742C59.3441 226.711 59.5477 226.863 59.5786 227.085C59.6095 227.304 59.4568 227.507 59.235 227.538C57.7789 227.741 56.3191 227.845 54.8956 227.845ZM49.5637 227.328C49.5364 227.328 49.511 227.326 49.4837 227.32C47.8349 226.989 46.2587 226.497 44.7971 225.859C44.5935 225.77 44.5008 225.532 44.5899 225.329C44.679 225.126 44.9153 225.034 45.1207 225.123C46.5278 225.737 48.0494 226.211 49.6437 226.532C49.8618 226.575 50.0018 226.787 49.9582 227.005C49.92 227.195 49.7509 227.328 49.5637 227.328ZM63.8998 226.524C63.7253 226.524 63.5653 226.41 63.5126 226.236C63.4508 226.024 63.5726 225.801 63.7871 225.737C65.3105 225.293 66.8157 224.736 68.261 224.084C68.4627 223.991 68.7027 224.084 68.7936 224.283C68.8845 224.484 68.7936 224.724 68.5918 224.814C67.112 225.483 65.5704 226.053 64.0107 226.506C63.9725 226.517 63.9343 226.523 63.898 226.523L63.8998 226.524ZM40.8122 223.449C40.7268 223.449 40.6395 223.422 40.565 223.364C39.2616 222.355 38.0999 221.18 37.1091 219.871C36.9746 219.693 37.011 219.441 37.1873 219.309C37.3655 219.175 37.6163 219.211 37.7509 219.387C38.6998 220.64 39.8124 221.764 41.0595 222.729C41.2358 222.865 41.2667 223.117 41.1304 223.293C41.0504 223.394 40.9322 223.449 40.8122 223.449ZM72.673 222.559C72.5403 222.559 72.4113 222.493 72.3331 222.374C72.2131 222.187 72.2676 221.938 72.4549 221.819C73.8092 220.955 75.0909 219.994 76.2652 218.964C76.4307 218.818 76.6852 218.834 76.8342 219.001C76.9815 219.168 76.9651 219.421 76.7979 219.568C75.5926 220.625 74.2783 221.612 72.8876 222.497C72.8203 222.54 72.7458 222.56 72.6712 222.56L72.673 222.559ZM79.9247 216.239C79.8284 216.239 79.7338 216.206 79.6575 216.137C79.492 215.99 79.4757 215.737 79.6247 215.57C80.6737 214.395 81.6954 213.149 82.6607 211.865C82.7952 211.687 83.0461 211.651 83.2242 211.785C83.4024 211.918 83.4369 212.17 83.3042 212.347C82.3244 213.649 81.2881 214.913 80.2265 216.105C80.1465 216.194 80.0374 216.239 79.9265 216.239H79.9247ZM35.0404 215.862C34.884 215.862 34.735 215.769 34.6695 215.615C34.0587 214.164 33.586 212.589 33.2643 210.929C33.2224 210.712 33.3661 210.501 33.5842 210.46C33.8042 210.418 34.0132 210.561 34.0569 210.779C34.3659 212.384 34.8222 213.907 35.413 215.305C35.4985 215.51 35.4021 215.746 35.1985 215.831C35.1476 215.853 35.0949 215.862 35.0422 215.862H35.0404ZM33.1497 206.47C32.9334 206.47 32.7534 206.298 32.748 206.079C32.7407 205.814 32.7371 205.551 32.7371 205.288C32.7371 203.892 32.8407 202.517 33.0443 201.204C33.0788 200.985 33.2843 200.834 33.5042 200.869C33.7242 200.903 33.8751 201.108 33.8405 201.328C33.6424 202.601 33.5424 203.933 33.5424 205.288C33.5424 205.542 33.546 205.798 33.5533 206.057C33.5588 206.278 33.3842 206.463 33.1625 206.468C33.1588 206.468 33.1552 206.468 33.1515 206.468L33.1497 206.47ZM34.6713 197.019C34.6241 197.019 34.575 197.01 34.5277 196.992C34.3205 196.912 34.2168 196.68 34.2968 196.473C34.8913 194.93 35.6585 193.47 36.5765 192.134C36.7019 191.951 36.9528 191.903 37.1364 192.03C37.32 192.156 37.3673 192.406 37.2419 192.589C36.3583 193.875 35.6203 195.278 35.0494 196.763C34.9876 196.923 34.8349 197.021 34.6731 197.021L34.6713 197.019ZM40.0887 189.151C39.9778 189.151 39.8687 189.105 39.7888 189.017C39.6397 188.852 39.6542 188.598 39.8197 188.449C41.0286 187.368 42.3793 186.418 43.8318 185.624C44.0281 185.517 44.2717 185.589 44.379 185.783C44.4863 185.977 44.4135 186.222 44.219 186.329C42.8192 187.094 41.5194 188.008 40.3559 189.047C40.2796 189.116 40.1832 189.151 40.0869 189.151H40.0887ZM71.395 188.815C71.3114 188.815 71.2296 188.79 71.1569 188.737C69.8753 187.796 68.51 186.966 67.0975 186.268C66.8975 186.17 66.8157 185.928 66.9157 185.729C67.0139 185.529 67.2556 185.448 67.4556 185.548C68.91 186.266 70.3152 187.122 71.635 188.09C71.815 188.222 71.8532 188.473 71.7205 188.652C71.6423 188.759 71.5187 188.815 71.395 188.815ZM62.7781 184.567C62.7418 184.567 62.7036 184.561 62.6672 184.55C61.1402 184.111 59.5713 183.81 58.0025 183.656C57.7807 183.634 57.6189 183.439 57.6407 183.217C57.6625 182.996 57.8552 182.835 58.0806 182.857C59.6986 183.016 61.3165 183.326 62.8908 183.778C63.1035 183.839 63.2271 184.062 63.1653 184.275C63.1144 184.45 62.9526 184.565 62.7781 184.565V184.567ZM48.4784 184.536C48.3039 184.536 48.1439 184.423 48.093 184.247C48.0294 184.035 48.1512 183.81 48.3639 183.749C49.9146 183.29 51.5361 182.982 53.1813 182.833C53.3995 182.813 53.5995 182.976 53.6195 183.197C53.6395 183.419 53.4758 183.615 53.2541 183.634C51.6616 183.778 50.0945 184.075 48.5929 184.519C48.5547 184.53 48.5166 184.536 48.4784 184.536Z" fill="black"/>
<path d="M89.9977 200.649C89.9431 200.649 89.8868 200.638 89.8341 200.615C89.6305 200.524 89.5396 200.287 89.6305 200.084C90.2758 198.642 90.8721 197.148 91.4011 195.639C91.4738 195.43 91.7047 195.318 91.9138 195.392C92.1228 195.465 92.2337 195.695 92.161 195.904C91.6247 197.432 91.0193 198.95 90.3649 200.41C90.2976 200.559 90.1504 200.648 89.9977 200.648V200.649ZM93.1972 191.568C93.1627 191.568 93.1281 191.564 93.0936 191.555C92.8791 191.499 92.75 191.28 92.8082 191.064C93.2099 189.546 93.5644 187.974 93.8608 186.393C93.9007 186.175 94.108 186.03 94.3298 186.072C94.5479 186.112 94.6915 186.322 94.6515 186.54C94.3516 188.141 93.9935 189.733 93.5862 191.269C93.539 191.448 93.3754 191.568 93.1972 191.568ZM94.9788 182.102C94.9624 182.102 94.9479 182.102 94.9315 182.099C94.7097 182.073 94.5516 181.874 94.5788 181.652C94.7624 180.098 94.9006 178.49 94.9897 176.876C95.0024 176.655 95.1987 176.486 95.4132 176.497C95.635 176.51 95.8059 176.698 95.7932 176.92C95.7023 178.552 95.5641 180.175 95.3787 181.747C95.3551 181.952 95.1806 182.102 94.9788 182.102ZM95.5223 172.482C95.3005 172.482 95.1206 172.303 95.1206 172.081C95.1206 170.517 95.0788 168.903 94.997 167.283C94.986 167.062 95.1569 166.873 95.3787 166.863C95.6005 166.854 95.7896 167.022 95.8005 167.243C95.8823 168.875 95.9241 170.504 95.9241 172.081C95.9241 172.303 95.7441 172.484 95.5223 172.484V172.482ZM95.0497 162.857C94.8442 162.857 94.6679 162.701 94.6497 162.492C94.5025 160.94 94.3189 159.333 94.1044 157.72C94.0753 157.5 94.2298 157.297 94.4498 157.268C94.6697 157.237 94.8733 157.393 94.9024 157.613C95.1187 159.237 95.3042 160.855 95.4514 162.416C95.4732 162.637 95.3096 162.833 95.0878 162.853C95.0751 162.853 95.0624 162.853 95.0497 162.853V162.857ZM93.7808 153.302C93.5881 153.302 93.4172 153.163 93.3845 152.967C93.1263 151.436 92.8336 149.844 92.5137 148.237C92.47 148.02 92.6118 147.808 92.83 147.766C93.0518 147.722 93.2608 147.864 93.3027 148.082C93.6244 149.695 93.9189 151.295 94.1789 152.834C94.2152 153.054 94.068 153.26 93.848 153.297C93.8244 153.3 93.8026 153.302 93.7808 153.302ZM91.9047 143.847C91.7211 143.847 91.5538 143.72 91.512 143.534C91.1739 142.034 90.7994 140.458 90.4013 138.851C90.3485 138.636 90.4794 138.418 90.6958 138.365C90.9103 138.313 91.1302 138.443 91.183 138.659C91.5829 140.271 91.9574 141.851 92.2973 143.358C92.3464 143.573 92.2101 143.789 91.9938 143.838C91.9647 143.845 91.9338 143.847 91.9047 143.847Z" fill="black"/>
<path d="M82.6916 118.524C82.5408 118.524 82.3953 118.438 82.3262 118.293C81.6682 116.904 80.9355 115.464 80.1484 114.014C80.0429 113.818 80.1157 113.575 80.312 113.47C80.5083 113.365 80.7519 113.437 80.8574 113.633C81.65 115.096 82.3899 116.551 83.0534 117.951C83.1479 118.152 83.0625 118.391 82.8607 118.485C82.8044 118.511 82.7462 118.524 82.688 118.524H82.6916ZM78.1123 110.035C77.976 110.035 77.8414 109.966 77.7669 109.839C76.9616 108.499 76.1035 107.128 75.2127 105.765C75.0909 105.578 75.1437 105.329 75.3309 105.21C75.5182 105.088 75.7672 105.141 75.889 105.328C76.7852 106.7 77.6506 108.08 78.4595 109.428C78.5741 109.618 78.5123 109.865 78.3214 109.979C78.2559 110.017 78.185 110.037 78.1141 110.037L78.1123 110.035ZM72.844 101.951C72.7167 101.951 72.5913 101.891 72.5131 101.779C71.6096 100.49 70.6589 99.1785 69.6863 97.8783C69.5536 97.7006 69.5899 97.4485 69.7681 97.3162C69.9462 97.1838 70.1989 97.22 70.3316 97.3978C71.3079 98.7034 72.2641 100.022 73.173 101.318C73.3003 101.5 73.2567 101.75 73.0731 101.877C73.0022 101.926 72.9222 101.949 72.8422 101.949L72.844 101.951ZM67.0648 94.2171C66.9449 94.2171 66.8285 94.1645 66.7485 94.0648C65.7614 92.819 64.7379 91.566 63.7053 90.3365C63.5617 90.166 63.5854 89.9122 63.7562 89.7707C63.9271 89.6275 64.1816 89.651 64.3234 89.8215C65.3596 91.0564 66.3886 92.3167 67.3812 93.5679C67.5193 93.742 67.4902 93.9941 67.3157 94.1319C67.2412 94.1899 67.1539 94.2189 67.0667 94.2189L67.0648 94.2171ZM60.8603 86.8258C60.7494 86.8258 60.6385 86.7805 60.5585 86.6898C59.4878 85.4839 58.3952 84.2871 57.3099 83.1356C57.1572 82.9742 57.1663 82.7203 57.3281 82.568C57.4917 82.4157 57.7462 82.4247 57.8971 82.5861C58.986 83.7449 60.0859 84.9453 61.1621 86.1585C61.3093 86.3253 61.293 86.5792 61.1275 86.7261C61.0512 86.7932 60.9548 86.8276 60.8603 86.8276V86.8258ZM54.2413 79.7972C54.1376 79.7972 54.0358 79.7573 53.9558 79.6793C52.7869 78.5133 51.6198 77.3908 50.4873 76.3409C50.3237 76.1904 50.3146 75.9365 50.4673 75.7733C50.6182 75.6101 50.8727 75.601 51.0363 75.7515C52.1761 76.8069 53.3505 77.9385 54.5267 79.1099C54.6848 79.2677 54.6848 79.5215 54.5267 79.6775C54.4485 79.7555 54.3449 79.7954 54.2413 79.7954V79.7972Z" fill="black"/>
<path d="M56.1645 189.14H53.3031L52.616 192.181C51.9542 192.299 51.3089 192.469 50.689 192.692L48.5711 190.404L46.0933 191.831L47.0222 194.809C46.515 195.236 46.0442 195.706 45.6152 196.214L42.6302 195.287L41.1995 197.759L43.4937 199.871C43.2701 200.49 43.0992 201.132 42.981 201.794L39.9324 202.479V205.333L42.981 206.019C43.0992 206.679 43.2701 207.323 43.4937 207.941L41.1995 210.054L42.6302 212.525L45.6152 211.599C46.0442 212.104 46.515 212.574 47.0222 213.004L46.0933 215.981L48.5711 217.409L50.689 215.12C51.3089 215.343 51.9524 215.514 52.616 215.631L53.3031 218.673H56.1645L56.8517 215.631C57.5134 215.514 58.1588 215.343 58.7787 215.12L60.8966 217.409L63.3744 215.981L62.4454 213.004C62.9526 212.576 63.4235 212.106 63.8543 211.6L66.8393 212.527L68.2701 210.055L65.9758 207.943C66.1994 207.324 66.3703 206.682 66.4885 206.021L69.5371 205.335V202.481L66.4885 201.795C66.3703 201.135 66.1994 200.492 65.9758 199.873L68.2701 197.761L66.8393 195.289L63.8543 196.216C63.4253 195.71 62.9545 195.24 62.4454 194.81L63.3744 191.833L60.8966 190.406L58.7787 192.694C58.1588 192.471 57.5153 192.301 56.8517 192.183L56.1645 189.142V189.14ZM62.1 203.906C62.1 207.965 58.8023 211.254 54.7338 211.254C50.6653 211.254 47.3676 207.965 47.3676 203.906C47.3676 199.848 50.6653 196.558 54.7338 196.558C58.8023 196.558 62.1 199.848 62.1 203.906Z" fill="white"/>
<path d="M56.1645 219.073H53.303C53.114 219.073 52.9522 218.943 52.9104 218.76L52.2814 215.976C51.7778 215.874 51.2833 215.744 50.8071 215.584L48.8692 217.679C48.7419 217.817 48.5347 217.847 48.3729 217.755L45.895 216.328C45.7314 216.234 45.6551 216.039 45.7114 215.86L46.5622 213.134C46.1823 212.799 45.8205 212.438 45.486 212.061L42.7519 212.91C42.5737 212.966 42.3774 212.89 42.2828 212.726L40.8521 210.255C40.7576 210.092 40.7903 209.887 40.9285 209.76L43.0282 207.827C42.8682 207.35 42.7373 206.857 42.6355 206.356L39.845 205.729C39.6614 205.687 39.5305 205.524 39.5305 205.337V202.483C39.5305 202.294 39.6614 202.133 39.845 202.091L42.6355 201.464C42.7373 200.961 42.8682 200.468 43.0282 199.993L40.9285 198.06C40.7903 197.933 40.7594 197.726 40.8521 197.565L42.2828 195.093C42.3774 194.93 42.5719 194.854 42.7519 194.91L45.486 195.759C45.8223 195.38 46.1823 195.021 46.5622 194.683L45.7114 191.956C45.6551 191.777 45.7314 191.583 45.895 191.488L48.3729 190.061C48.5347 189.967 48.7419 189.998 48.8692 190.137L50.8071 192.232C51.2833 192.072 51.7778 191.942 52.2814 191.84L52.9104 189.057C52.9522 188.873 53.114 188.743 53.303 188.743H56.1645C56.3535 188.743 56.5153 188.873 56.5571 189.057L57.1861 191.84C57.6897 191.942 58.1842 192.072 58.6604 192.232L60.6002 190.137C60.7274 189.999 60.9347 189.969 61.0965 190.061L63.5743 191.488C63.7379 191.583 63.8142 191.777 63.7579 191.956L62.9071 194.682C63.287 195.017 63.647 195.376 63.9851 195.757L66.7175 194.908C66.8956 194.852 67.0919 194.928 67.1865 195.091L68.6172 197.563C68.7117 197.726 68.679 197.931 68.5408 198.06L66.4411 199.993C66.6011 200.468 66.732 200.961 66.8338 201.464L69.6243 202.091C69.8079 202.133 69.9388 202.296 69.9388 202.483V205.337C69.9388 205.526 69.8079 205.687 69.6243 205.729L66.8338 206.356C66.732 206.858 66.6011 207.352 66.4411 207.827L68.5408 209.76C68.679 209.887 68.7099 210.093 68.6172 210.257L67.1865 212.728C67.0919 212.891 66.8956 212.966 66.7175 212.911L63.9851 212.063C63.6488 212.442 63.287 212.803 62.9071 213.138L63.7579 215.865C63.8142 216.045 63.7379 216.239 63.5743 216.333L61.0965 217.76C60.9328 217.855 60.7274 217.822 60.6002 217.684L58.6604 215.59C58.1842 215.749 57.6897 215.88 57.1861 215.981L56.5571 218.765C56.5153 218.948 56.3535 219.079 56.1645 219.079V219.073ZM53.6248 218.27H55.8427L56.459 215.543C56.4953 215.385 56.6207 215.263 56.7807 215.236C57.4224 215.122 58.0478 214.955 58.6423 214.743C58.795 214.689 58.9659 214.73 59.0749 214.848L60.9747 216.901L62.8944 215.795L62.06 213.124C62.0127 212.969 62.06 212.803 62.1854 212.697C62.6726 212.286 63.1307 211.829 63.547 211.341C63.6524 211.218 63.8197 211.169 63.9742 211.218L66.652 212.048L67.7609 210.133L65.7031 208.238C65.5849 208.13 65.5431 207.959 65.5976 207.807C65.8121 207.214 65.9776 206.588 66.0939 205.95C66.123 205.79 66.243 205.665 66.4011 205.629L69.1353 205.014V202.802L66.4011 202.187C66.243 202.151 66.1212 202.026 66.0939 201.866C65.9794 201.228 65.8121 200.602 65.5976 200.009C65.5431 199.857 65.5849 199.688 65.7031 199.578L67.7609 197.683L66.652 195.768L63.9742 196.598C63.8215 196.645 63.6524 196.598 63.547 196.475C63.1325 195.985 62.6744 195.53 62.1854 195.117C62.0618 195.013 62.0127 194.845 62.06 194.691L62.8944 192.02L60.9747 190.913L59.0749 192.966C58.9659 193.084 58.7968 193.126 58.6423 193.071C58.0478 192.857 57.4224 192.692 56.7807 192.578C56.6207 192.549 56.4953 192.429 56.459 192.272L55.8427 189.544H53.6248L53.0085 192.272C52.9722 192.429 52.8468 192.551 52.6868 192.578C52.0451 192.692 51.4197 192.859 50.8252 193.071C50.6743 193.126 50.5016 193.084 50.3926 192.966L48.4928 190.913L46.5731 192.02L47.4057 194.691C47.453 194.845 47.4057 195.012 47.2821 195.117C46.7931 195.53 46.335 195.987 45.9223 196.475C45.8169 196.598 45.6496 196.647 45.4951 196.598L42.8173 195.768L41.7084 197.683L43.7663 199.578C43.8844 199.687 43.9262 199.857 43.8717 200.009C43.6572 200.602 43.4918 201.228 43.3772 201.866C43.3481 202.026 43.2282 202.153 43.07 202.187L40.3359 202.802V205.014L43.07 205.629C43.2282 205.665 43.35 205.79 43.3772 205.95C43.4918 206.588 43.6572 207.212 43.8717 207.807C43.9262 207.959 43.8844 208.128 43.7663 208.238L41.7084 210.133L42.8173 212.048L45.4951 211.218C45.6496 211.171 45.8169 211.218 45.9223 211.341C46.335 211.829 46.7931 212.286 47.2821 212.699C47.4057 212.803 47.4548 212.971 47.4057 213.125L46.5731 215.797L48.4928 216.903L50.3926 214.85C50.5016 214.732 50.6725 214.69 50.8252 214.745C51.4197 214.959 52.0451 215.124 52.6868 215.238C52.8468 215.267 52.9722 215.387 53.0085 215.544L53.6248 218.272V218.27ZM54.7337 211.655C50.4507 211.655 46.964 208.179 46.964 203.904C46.964 199.63 50.4489 196.154 54.7337 196.154C59.0186 196.154 62.5017 199.63 62.5017 203.904C62.5017 208.179 59.0168 211.655 54.7337 211.655ZM54.7337 196.959C50.8943 196.959 47.7693 200.075 47.7693 203.906C47.7693 207.738 50.8925 210.853 54.7337 210.853C58.575 210.853 61.6964 207.738 61.6964 203.906C61.6964 200.075 58.5732 196.959 54.7337 196.959Z" fill="black"/>
<path d="M40.6758 137.586H35.7783L34.6021 142.79C33.4678 142.993 32.3661 143.285 31.3044 143.666L27.6813 139.751L23.4401 142.193L25.029 147.289C24.16 148.022 23.3547 148.827 22.6202 149.692L17.5119 148.105L15.0632 152.336L18.9881 155.95C18.6063 157.007 18.3136 158.108 18.11 159.239L12.8926 160.412V165.298L18.11 166.471C18.3136 167.602 18.6063 168.701 18.9881 169.759L15.0632 173.373L17.5119 177.603L22.6202 176.018C23.3547 176.885 24.1618 177.688 25.029 178.421L23.4401 183.517L27.6813 185.959L31.3044 182.044C32.3643 182.425 33.4678 182.717 34.6021 182.92L35.7783 188.124H40.6758L41.852 182.92C42.9864 182.717 44.088 182.425 45.1479 182.044L48.771 185.959L53.0122 183.517L51.4233 178.421C52.2923 177.688 53.0976 176.883 53.832 176.018L58.9404 177.603L61.3891 173.373L57.4642 169.759C57.846 168.701 58.1387 167.601 58.3423 166.471L63.5597 165.298V160.412L58.3423 159.239C58.1387 158.108 57.846 157.009 57.4642 155.95L61.3891 152.336L58.9404 148.105L53.832 149.692C53.0976 148.825 52.2905 148.022 51.4233 147.289L53.0122 142.193L48.771 139.751L45.1479 143.666C44.088 143.285 42.9845 142.993 41.8502 142.79L40.674 137.586H40.6758ZM50.8325 162.853C50.8325 169.797 45.1897 175.427 38.2271 175.427C31.2663 175.427 25.6216 169.798 25.6216 162.853C25.6216 155.91 31.2644 150.279 38.2271 150.279C45.1879 150.279 50.8325 155.908 50.8325 162.853Z" fill="white"/>
<path d="M40.6758 188.522H35.7784C35.5893 188.522 35.4275 188.391 35.3857 188.208L34.2677 183.263C33.2933 183.076 32.337 182.822 31.4208 182.508L27.9777 186.229C27.8504 186.367 27.6432 186.398 27.4814 186.306L23.2402 183.863C23.0766 183.769 23.0002 183.575 23.0566 183.395L24.5673 178.552C23.8292 177.912 23.1311 177.215 22.4876 176.477L17.6319 177.984C17.452 178.04 17.2574 177.964 17.1629 177.801L14.7142 173.57C14.6196 173.407 14.6524 173.202 14.7905 173.073L18.5209 169.639C18.2046 168.725 17.9519 167.773 17.7646 166.799L12.8072 165.684C12.6236 165.642 12.4927 165.479 12.4927 165.292V160.407C12.4927 160.218 12.6236 160.057 12.8072 160.015L17.7646 158.9C17.9519 157.928 18.2064 156.974 18.5209 156.06L14.7905 152.626C14.6524 152.499 14.6215 152.292 14.7142 152.129L17.1629 147.898C17.2574 147.735 17.452 147.659 17.6319 147.715L22.4876 149.222C23.1293 148.484 23.8274 147.79 24.5673 147.148L23.0566 142.304C23.0002 142.125 23.0766 141.931 23.2402 141.836L27.4814 139.394C27.6432 139.299 27.8504 139.33 27.9777 139.47L31.4208 143.191C32.337 142.875 33.2933 142.623 34.2677 142.437L35.3857 137.491C35.4275 137.308 35.5893 137.178 35.7784 137.178H40.6758C40.8649 137.178 41.0267 137.308 41.0685 137.491L42.1865 142.437C43.1609 142.623 44.1171 142.877 45.0334 143.191L48.4765 139.47C48.6038 139.332 48.811 139.301 48.9728 139.394L53.214 141.836C53.3776 141.931 53.454 142.125 53.3976 142.304L51.8869 147.148C52.6268 147.79 53.3249 148.484 53.9666 149.222L58.8223 147.715C59.0004 147.659 59.1968 147.735 59.2913 147.898L61.74 152.129C61.8346 152.292 61.8018 152.497 61.6637 152.626L57.9333 156.06C58.2496 156.974 58.5023 157.926 58.6896 158.9L63.647 160.015C63.8306 160.057 63.9615 160.22 63.9615 160.407V165.292C63.9615 165.481 63.8306 165.642 63.647 165.684L58.6896 166.799C58.5023 167.771 58.2478 168.725 57.9333 169.639L61.6637 173.073C61.8018 173.2 61.8327 173.407 61.74 173.57L59.2913 177.801C59.1968 177.964 59.0004 178.038 58.8223 177.984L53.9666 176.477C53.3231 177.215 52.625 177.912 51.8869 178.552L53.3976 183.395C53.454 183.575 53.3776 183.769 53.214 183.863L48.9728 186.306C48.8092 186.4 48.6038 186.369 48.4765 186.229L45.0334 182.508C44.1171 182.824 43.1627 183.076 42.1865 183.263L41.0685 188.208C41.0267 188.391 40.8649 188.522 40.6758 188.522ZM36.1019 187.718H40.3541L41.4593 182.828C41.4957 182.67 41.6211 182.548 41.7811 182.521C42.8937 182.322 43.9808 182.033 45.0116 181.663C45.1643 181.609 45.3351 181.651 45.4442 181.769L48.8492 185.448L52.5323 183.326L51.0379 178.537C50.9907 178.383 51.0379 178.216 51.1634 178.111C52.0105 177.395 52.8068 176.602 53.5249 175.755C53.6303 175.632 53.7994 175.583 53.9521 175.632L58.7532 177.123L60.8801 173.449L57.1916 170.052C57.0734 169.944 57.0316 169.773 57.0862 169.621C57.457 168.591 57.7461 167.506 57.946 166.398C57.9751 166.239 58.0951 166.114 58.2533 166.077L63.1562 164.975V160.733L58.2533 159.631C58.0951 159.595 57.9733 159.47 57.946 159.31C57.7479 158.2 57.457 157.116 57.0862 156.086C57.0316 155.933 57.0734 155.765 57.1916 155.654L60.8801 152.258L58.7532 148.584L53.9521 150.074C53.7994 150.122 53.6303 150.074 53.5249 149.951C52.8068 149.106 52.0124 148.312 51.1634 147.596C51.0398 147.492 50.9907 147.324 51.0398 147.169L52.5341 142.38L48.851 140.259L45.446 143.938C45.337 144.056 45.1679 144.098 45.0134 144.043C43.9808 143.673 42.8937 143.385 41.7829 143.185C41.623 143.156 41.4975 143.037 41.4612 142.879L40.3559 137.988H36.1038L34.9985 142.879C34.9621 143.037 34.8367 143.158 34.6767 143.185C33.5641 143.383 32.477 143.673 31.4463 144.043C31.2917 144.098 31.1227 144.056 31.0136 143.938L27.6086 140.259L23.9255 142.38L25.4199 147.169C25.4671 147.324 25.4199 147.49 25.2963 147.596C24.4473 148.312 23.6529 149.104 22.9348 149.951C22.8293 150.074 22.6621 150.123 22.5076 150.074L17.7065 148.584L15.5795 152.258L19.268 155.654C19.3862 155.763 19.428 155.933 19.3735 156.086C19.0026 157.114 18.7136 158.198 18.5136 159.308C18.4845 159.468 18.3645 159.593 18.2064 159.629L13.3035 160.732V164.973L18.2064 166.076C18.3645 166.112 18.4863 166.237 18.5136 166.397C18.7118 167.506 19.0026 168.591 19.3735 169.619C19.428 169.771 19.3862 169.94 19.268 170.051L15.5795 173.447L17.7065 177.121L22.5076 175.63C22.6621 175.583 22.8293 175.63 22.9348 175.754C23.6529 176.6 24.4491 177.393 25.2963 178.109C25.4199 178.213 25.469 178.381 25.4199 178.535L23.9255 183.324L27.6086 185.446L31.0136 181.767C31.1227 181.649 31.2917 181.607 31.4463 181.662C32.4788 182.031 33.566 182.32 34.6767 182.519C34.8367 182.548 34.9621 182.668 34.9985 182.826L36.1038 187.716L36.1019 187.718ZM38.2289 175.828C31.0554 175.828 25.2217 170.007 25.2217 162.853C25.2217 159.388 26.5743 156.129 29.0321 153.678C31.4899 151.228 34.7549 149.877 38.2307 149.877C45.4042 149.877 51.2379 155.698 51.2379 162.851C51.2379 170.005 45.4024 175.826 38.2307 175.826L38.2289 175.828ZM38.2289 150.68C34.9694 150.68 31.9044 151.946 29.6011 154.245C27.296 156.545 26.0271 159.6 26.0271 162.851C26.0271 169.563 31.5008 175.023 38.2289 175.023C44.957 175.023 50.4308 169.563 50.4308 162.851C50.4308 156.14 44.957 150.68 38.2289 150.68Z" fill="black"/>
<path d="M109.06 124.602H173.651C175.603 124.602 176.725 123.023 176.156 121.075L163.72 78.4879C163.151 76.5404 161.107 74.9609 159.155 74.9609H94.5642C92.6118 74.9609 91.4901 76.5404 92.0591 78.4879L104.496 121.075C105.065 123.023 107.108 124.602 109.06 124.602Z" fill="white"/>
<path d="M173.651 125.003H109.06C106.944 125.003 104.723 123.291 104.108 121.187L91.672 78.6003C91.352 77.5069 91.4974 76.4769 92.081 75.7026C92.6355 74.9663 93.5171 74.5602 94.5643 74.5602H159.155C161.271 74.5602 163.492 76.272 164.107 78.3755L176.543 120.963C176.863 122.056 176.718 123.084 176.134 123.86C175.58 124.597 174.698 125.003 173.651 125.003ZM94.5643 75.3635C93.7771 75.3635 93.1245 75.6554 92.7264 76.1849C92.2991 76.7525 92.1992 77.5305 92.4464 78.3755L104.883 120.963C105.405 122.747 107.279 124.199 109.06 124.199H173.651C174.438 124.199 175.091 123.907 175.489 123.378C175.916 122.81 176.016 122.032 175.769 121.187L163.332 78.6003C162.811 76.816 160.936 75.3635 159.155 75.3635H94.5643Z" fill="black"/>
<path d="M112.216 86.8385H108.653C107.851 86.8385 107.042 86.2183 106.812 85.4259L105.773 81.8717C105.648 81.4455 105.712 81.0212 105.948 80.7075C106.175 80.4065 106.542 80.2342 106.959 80.2342H110.522C111.324 80.2342 112.133 80.8544 112.363 81.6468L113.401 85.201C113.527 85.6272 113.463 86.0533 113.227 86.3652C113 86.6662 112.632 86.8385 112.216 86.8385ZM106.959 81.0357C106.844 81.0357 106.686 81.0629 106.592 81.188C106.508 81.2986 106.492 81.46 106.546 81.645L107.584 85.1992C107.717 85.6525 108.206 86.0334 108.653 86.0334H112.216C112.331 86.0334 112.489 86.0062 112.583 85.881C112.667 85.7704 112.683 85.609 112.629 85.4241L111.591 81.8699C111.458 81.4183 110.969 81.0357 110.522 81.0357H106.959Z" fill="black"/>
<path d="M104.781 86.8385H101.218C100.416 86.8385 99.6071 86.2183 99.3762 85.4259L98.3382 81.8717C98.2127 81.4455 98.2764 81.0212 98.5127 80.7075C98.7399 80.4065 99.1072 80.2342 99.5235 80.2342H103.087C103.888 80.2342 104.697 80.8544 104.928 81.6468L105.966 85.201C106.092 85.6272 106.028 86.0515 105.792 86.3652C105.564 86.6662 105.197 86.8385 104.781 86.8385ZM99.5235 81.0357C99.4089 81.0357 99.2508 81.0629 99.1562 81.188C99.0726 81.2986 99.0562 81.46 99.1108 81.645L100.149 85.1992C100.282 85.6525 100.771 86.0334 101.218 86.0334H104.781C104.895 86.0334 105.052 86.0062 105.148 85.881C105.232 85.7704 105.248 85.609 105.194 85.4241L104.156 81.8699C104.023 81.4165 103.534 81.0357 103.087 81.0357H99.5235Z" fill="black"/>
<path d="M114.588 94.9606H111.025C110.224 94.9606 109.415 94.3404 109.184 93.548L108.146 89.9938C108.02 89.5676 108.084 89.1433 108.32 88.8296C108.548 88.5286 108.915 88.3563 109.331 88.3563H112.894C113.696 88.3563 114.505 88.9765 114.736 89.7689L115.774 93.3231C115.899 93.7492 115.836 94.1736 115.599 94.4873C115.372 94.7883 115.005 94.9606 114.588 94.9606ZM109.331 89.1578C109.217 89.1578 109.058 89.185 108.964 89.3101C108.88 89.4207 108.864 89.5821 108.918 89.7671L109.956 93.3213C110.089 93.7746 110.578 94.1554 111.025 94.1554H114.588C114.703 94.1554 114.861 94.1282 114.956 94.0031C115.039 93.8925 115.056 93.7293 115.001 93.5461L113.963 89.9919C113.83 89.5404 113.341 89.1578 112.894 89.1578H109.331Z" fill="black"/>
<path d="M107.153 94.9606H103.59C102.788 94.9606 101.979 94.3404 101.749 93.548L100.71 89.9938C100.585 89.5676 100.649 89.1433 100.885 88.8296C101.112 88.5286 101.479 88.3563 101.896 88.3563H105.459C106.261 88.3563 107.07 88.9765 107.3 89.7689L108.338 93.3231C108.464 93.7492 108.4 94.1736 108.164 94.4873C107.937 94.7883 107.569 94.9606 107.153 94.9606ZM101.896 89.1578C101.781 89.1578 101.623 89.185 101.529 89.3101C101.445 89.4207 101.429 89.5839 101.483 89.7671L102.521 93.3213C102.654 93.7746 103.143 94.1554 103.59 94.1554H107.153C107.268 94.1554 107.424 94.1282 107.52 94.0031C107.604 93.8925 107.62 93.7293 107.566 93.5461L106.528 89.9919C106.395 89.5386 105.906 89.1578 105.459 89.1578H101.896Z" fill="black"/>
<path d="M111.705 96.881H115.268C115.89 96.881 116.543 97.3851 116.723 98.0052L117.761 101.559C117.943 102.18 117.584 102.684 116.963 102.684H113.4C112.778 102.684 112.125 102.181 111.945 101.559L110.907 98.0052C110.725 97.3851 111.084 96.881 111.705 96.881Z" fill="white"/>
<path d="M104.268 96.881H107.831C108.453 96.881 109.106 97.3851 109.286 98.0052L110.324 101.559C110.506 102.18 110.147 102.684 109.526 102.684H105.963C105.341 102.684 104.688 102.181 104.508 101.559L103.47 98.0052C103.288 97.3851 103.647 96.881 104.268 96.881Z" fill="white"/>
<path d="M114.078 105.005H117.641C118.263 105.005 118.915 105.507 119.095 106.129L120.133 109.683C120.315 110.304 119.957 110.808 119.335 110.808H115.772C115.15 110.808 114.498 110.304 114.318 109.683L113.28 106.129C113.098 105.509 113.456 105.005 114.078 105.005Z" fill="white"/>
<path d="M106.641 105.005H110.204C110.825 105.005 111.478 105.507 111.658 106.129L112.696 109.683C112.878 110.304 112.52 110.808 111.898 110.808H108.335C107.713 110.808 107.06 110.304 106.881 109.683L105.842 106.129C105.661 105.509 106.019 105.005 106.641 105.005Z" fill="white"/>
<path d="M116.45 113.129H120.013C120.635 113.129 121.288 113.633 121.468 114.253L122.506 117.807C122.687 118.427 122.329 118.932 121.708 118.932H118.144C117.523 118.932 116.87 118.427 116.69 117.807L115.652 114.253C115.47 113.633 115.828 113.129 116.45 113.129Z" fill="white"/>
<path d="M109.013 113.129H112.576C113.198 113.129 113.85 113.633 114.03 114.253L115.068 117.807C115.25 118.427 114.892 118.932 114.27 118.932H110.707C110.085 118.932 109.433 118.427 109.253 117.807L108.215 114.253C108.033 113.633 108.391 113.129 109.013 113.129Z" fill="white"/>
<path d="M169.117 119.332H127.205C127.027 119.332 126.869 119.214 126.818 119.042L115.634 80.7456C115.599 80.6241 115.623 80.4935 115.698 80.392C115.772 80.2904 115.894 80.2306 116.019 80.2306H157.931C158.11 80.2306 158.268 80.3484 158.319 80.5207L169.502 118.817C169.537 118.939 169.513 119.069 169.439 119.171C169.362 119.272 169.244 119.332 169.117 119.332ZM127.507 118.529H168.579L157.63 81.0357H116.557L127.507 118.529Z" fill="black"/>
<path d="M161.729 109.123C161.644 109.123 161.556 109.096 161.482 109.04L152.198 101.859C151.483 101.306 150.611 101.055 149.807 101.175C149.169 101.269 148.625 101.592 148.275 102.085L145.893 105.429C145.579 105.87 145.097 106.158 144.539 106.242C143.884 106.338 143.179 106.142 142.61 105.701L131.95 97.4558C131.235 96.9027 130.364 96.6525 129.559 96.7722C128.923 96.8664 128.377 97.1892 128.027 97.6825L127.394 98.571C127.265 98.7523 127.014 98.7941 126.832 98.6653C126.65 98.5366 126.609 98.2863 126.738 98.105L127.37 97.2164C127.85 96.5437 128.587 96.103 129.443 95.9761C130.463 95.8256 131.557 96.1338 132.444 96.8211L143.104 105.067C143.501 105.373 143.981 105.511 144.422 105.447C144.662 105.411 145.001 105.299 145.239 104.965L147.62 101.621C148.1 100.948 148.836 100.508 149.693 100.381C150.712 100.23 151.807 100.539 152.694 101.226L161.978 108.407C162.153 108.543 162.185 108.795 162.049 108.971C161.969 109.072 161.851 109.127 161.731 109.127L161.729 109.123Z" fill="black"/>
<path d="M149.947 96.1556C147.175 96.1556 144.264 93.9106 143.459 91.1525C143.045 89.7326 143.23 88.3998 143.984 87.3988C144.699 86.4486 145.839 85.9245 147.195 85.9245C149.967 85.9245 152.878 88.1695 153.683 90.9276C154.097 92.3475 153.91 93.6803 153.158 94.6813C152.443 95.6315 151.303 96.1556 149.947 96.1556ZM147.195 86.7297C146.099 86.7297 145.188 87.1395 144.628 87.8812C144.032 88.6754 143.89 89.758 144.232 90.9276C144.944 93.3666 147.507 95.3523 149.947 95.3523C151.043 95.3523 151.954 94.9424 152.514 94.2008C153.11 93.4065 153.252 92.3239 152.91 91.1543C152.198 88.7153 149.634 86.7297 147.195 86.7297Z" fill="black"/>
<path d="M83.655 92.4074H134.022C135.887 92.4074 137.84 93.9161 138.383 95.7748L148.251 129.565C148.795 131.426 147.722 132.933 145.859 132.933H95.4915C93.6263 132.933 91.6739 131.424 91.1303 129.565L81.2627 95.7748C80.7191 93.9143 81.7917 92.4074 83.655 92.4074Z" fill="white"/>
<path d="M145.859 133.335H95.4914C93.4626 133.335 91.3338 131.694 90.7448 129.678L80.8772 95.8872C80.57 94.8373 80.7099 93.849 81.2699 93.1037C81.8025 92.3947 82.6497 92.0048 83.6568 92.0048H134.024C136.053 92.0048 138.182 93.6459 138.771 95.6624L148.638 129.453C148.945 130.503 148.805 131.491 148.246 132.236C147.713 132.945 146.866 133.335 145.859 133.335ZM83.6568 92.8081C82.9096 92.8081 82.2915 93.0837 81.9152 93.5861C81.5098 94.1246 81.4171 94.8609 81.6516 95.6624L91.5193 129.453C92.0156 131.15 93.7971 132.532 95.4932 132.532H145.86C146.608 132.532 147.226 132.256 147.602 131.754C148.007 131.215 148.1 130.479 147.866 129.678L137.998 95.8872C137.502 94.1899 135.72 92.8081 134.024 92.8081H83.655H83.6568Z" fill="black"/>
<path d="M138.76 130.94C138.585 130.94 138.423 130.825 138.373 130.65L127.938 94.9171C127.876 94.7049 127.998 94.4819 128.212 94.4184C128.425 94.3567 128.649 94.4782 128.712 94.6922L139.147 130.425C139.209 130.637 139.087 130.86 138.872 130.923C138.834 130.934 138.796 130.94 138.76 130.94Z" fill="black"/>
<path d="M96.2876 126.997H133.758C134.362 126.997 134.709 126.51 134.533 125.908L126.803 99.436C126.627 98.834 125.996 98.3462 125.391 98.3462H87.9197C87.3162 98.3462 86.9689 98.834 87.1453 99.436L94.8751 125.908C95.0514 126.51 95.6822 126.997 96.2876 126.997Z" fill="black"/>
<path d="M139.31 115.735C137.645 115.735 135.962 114.438 135.478 112.784C135.233 111.941 135.351 111.112 135.802 110.51C136.24 109.928 136.933 109.609 137.754 109.609C139.419 109.609 141.103 110.906 141.586 112.559C141.834 113.403 141.716 114.231 141.263 114.833C140.825 115.415 140.132 115.735 139.309 115.735H139.31ZM136.251 112.559C136.633 113.867 138.005 114.931 139.31 114.931C139.874 114.931 140.338 114.725 140.619 114.351C140.923 113.948 140.992 113.392 140.814 112.784C140.432 111.477 139.06 110.412 137.754 110.412C137.193 110.412 136.727 110.619 136.445 110.993C136.142 111.395 136.073 111.952 136.249 112.559H136.251Z" fill="black"/>
<path d="M136.922 101.287C136.747 101.287 136.585 101.173 136.534 100.997L135.802 98.4858C135.691 98.105 135.264 97.7713 134.887 97.7713H132.92C132.699 97.7713 132.517 97.5918 132.517 97.3688C132.517 97.1457 132.697 96.9662 132.92 96.9662H134.887C135.622 96.9662 136.362 97.5338 136.574 98.2609L137.307 100.772C137.369 100.985 137.247 101.208 137.033 101.271C136.994 101.282 136.956 101.287 136.92 101.287H136.922Z" fill="black"/>
<path d="M137.807 107.767H135.84C135.106 107.767 134.366 107.199 134.153 106.474L132.553 100.997C132.491 100.785 132.613 100.562 132.828 100.499C133.04 100.437 133.266 100.558 133.328 100.772L134.927 106.249C135.038 106.63 135.465 106.963 135.842 106.963H137.809C137.901 106.963 138.029 106.943 138.101 106.844C138.167 106.757 138.18 106.624 138.136 106.472C138.074 106.26 138.196 106.037 138.41 105.973C138.625 105.912 138.849 106.033 138.91 106.247C139.025 106.642 138.967 107.034 138.749 107.324C138.538 107.603 138.196 107.765 137.811 107.765L137.807 107.767Z" fill="black"/>
<path d="M135.916 101.287H133.949C133.728 101.287 133.548 101.108 133.548 100.885C133.548 100.662 133.728 100.482 133.949 100.482H135.916C136.138 100.482 136.32 100.662 136.32 100.885C136.32 101.108 136.14 101.287 135.916 101.287Z" fill="black"/>
<path d="M136.467 103.177H134.5C134.278 103.177 134.097 102.997 134.097 102.774C134.097 102.551 134.277 102.374 134.5 102.374H136.467C136.689 102.374 136.871 102.553 136.871 102.774C136.871 102.996 136.691 103.177 136.467 103.177Z" fill="black"/>
<path d="M143.826 128.376H141.859C141.125 128.376 140.385 127.808 140.172 127.083L139.732 125.578C139.67 125.365 139.792 125.142 140.007 125.079C140.219 125.017 140.443 125.139 140.507 125.353L140.946 126.858C141.057 127.239 141.485 127.572 141.859 127.572H143.826C144.048 127.572 144.23 127.752 144.23 127.975C144.23 128.198 144.05 128.377 143.826 128.377V128.376Z" fill="black"/>
<path d="M143.99 125.487C143.815 125.487 143.653 125.373 143.602 125.197L141.819 119.093C141.708 118.712 141.281 118.378 140.906 118.378H138.94C138.847 118.378 138.72 118.398 138.647 118.498C138.581 118.585 138.569 118.718 138.612 118.87L138.96 120.059C139.021 120.272 138.9 120.495 138.685 120.558C138.47 120.622 138.247 120.498 138.187 120.284L137.84 119.095C137.725 118.699 137.783 118.308 138.001 118.018C138.212 117.738 138.554 117.577 138.94 117.577H140.906C141.641 117.577 142.381 118.145 142.594 118.87L144.377 124.974C144.439 125.186 144.317 125.409 144.102 125.472C144.064 125.483 144.026 125.489 143.99 125.489V125.487Z" fill="black"/>
<path d="M141.437 120.194H138.796C138.574 120.194 138.392 120.014 138.392 119.791C138.392 119.568 138.572 119.389 138.796 119.389H141.437C141.659 119.389 141.841 119.568 141.841 119.791C141.841 120.014 141.661 120.194 141.437 120.194Z" fill="black"/>
<path d="M142.155 122.651H139.514C139.292 122.651 139.11 122.471 139.11 122.248C139.11 122.025 139.29 121.847 139.514 121.847H142.155C142.377 121.847 142.559 122.027 142.559 122.248C142.559 122.469 142.379 122.651 142.155 122.651Z" fill="black"/>
<path d="M152.754 68.0447H171.895C173.033 68.0447 174.226 68.9659 174.556 70.1011L178.072 82.14C178.403 83.2752 177.751 84.1964 176.611 84.1964H157.47C156.332 84.1964 155.139 83.2752 154.808 82.14L151.293 70.1011C150.962 68.9659 151.614 68.0447 152.754 68.0447Z" fill="white"/>
<path d="M176.612 84.599H157.472C156.146 84.599 154.806 83.569 154.423 82.2525L150.907 70.2135C150.709 69.5335 150.805 68.8643 151.172 68.3765C151.529 67.9032 152.091 67.6439 152.754 67.6439H171.895C173.22 67.6439 174.56 68.6739 174.944 69.9904L178.459 82.0294C178.658 82.7094 178.561 83.3786 178.194 83.8664C177.838 84.3397 177.276 84.599 176.612 84.599ZM152.754 68.4473C152.349 68.4473 152.016 68.5941 151.816 68.8589C151.6 69.1472 151.551 69.548 151.68 69.9886L155.196 82.0276C155.475 82.9851 156.517 83.7938 157.472 83.7938H176.612C177.018 83.7938 177.35 83.6469 177.55 83.3822C177.767 83.0939 177.816 82.6931 177.687 82.2525L174.171 70.2135C173.891 69.256 172.849 68.4473 171.895 68.4473H152.754Z" fill="black"/>
<path d="M177.2 73.1838C177.025 73.1838 176.863 73.0696 176.812 72.8937L176.52 71.8909C176.458 71.6787 176.58 71.4557 176.794 71.3922C177.009 71.3305 177.231 71.452 177.292 71.666L177.585 72.6688C177.647 72.881 177.525 73.104 177.311 73.1675C177.272 73.1784 177.234 73.1838 177.198 73.1838H177.2Z" fill="black"/>
<path d="M153.494 71.666C153.319 71.666 153.158 71.5518 153.107 71.3759L152.225 68.3584C152.027 67.6784 152.123 67.0093 152.49 66.5215C152.847 66.0482 153.408 65.7889 154.072 65.7889H173.213C174.538 65.7889 175.878 66.8189 176.261 68.1354L176.889 70.286C176.95 70.4982 176.829 70.7212 176.614 70.7847C176.401 70.8482 176.176 70.7249 176.114 70.5109L175.487 68.3602C175.207 67.4028 174.165 66.594 173.211 66.594H154.07C153.665 66.594 153.332 66.7409 153.132 67.0056C152.916 67.294 152.867 67.6947 152.996 68.1354L153.877 71.1528C153.939 71.365 153.817 71.588 153.603 71.6515C153.565 71.6624 153.527 71.6678 153.49 71.6678L153.494 71.666Z" fill="black"/>
<path d="M154.912 76.524C154.737 76.524 154.576 76.4098 154.525 76.2339L153.697 73.3996C153.636 73.1874 153.757 72.9644 153.972 72.9009C154.185 72.8393 154.408 72.9608 154.47 73.1747L155.297 76.009C155.359 76.2212 155.237 76.4442 155.023 76.5077C154.985 76.5186 154.946 76.524 154.91 76.524H154.912Z" fill="black"/>
<path d="M129.854 121.933C129.75 121.933 129.648 121.893 129.568 121.815L111.458 103.752C111.3 103.596 111.3 103.34 111.458 103.184C111.616 103.026 111.871 103.026 112.027 103.184L130.137 121.247C130.295 121.403 130.295 121.659 130.137 121.815C130.059 121.893 129.956 121.933 129.852 121.933H129.854Z" fill="white"/>
<path d="M116.45 113.53C116.347 113.53 116.245 113.49 116.165 113.412L105.686 102.959C105.528 102.803 105.528 102.548 105.686 102.392C105.844 102.234 106.099 102.234 106.255 102.392L116.734 112.844C116.892 113 116.892 113.256 116.734 113.412C116.656 113.49 116.552 113.53 116.448 113.53H116.45Z" fill="white"/>
<path d="M186.911 245.501H194.988C195.921 245.495 196.845 245.68 197.703 246.045C198.509 246.382 199.255 246.848 199.912 247.424C200.554 248 201.061 248.71 201.398 249.505C201.762 250.357 201.947 251.276 201.939 252.203C201.949 253.073 201.796 253.936 201.487 254.749C201.19 255.513 200.767 256.223 200.236 256.848C201.337 258.113 201.94 259.735 201.935 261.411C201.932 262.391 201.749 263.361 201.394 264.275C201.069 265.154 200.562 265.955 199.908 266.626C199.27 267.259 198.521 267.768 197.699 268.128C196.844 268.504 195.919 268.695 194.984 268.688H186.726C186.073 268.678 185.444 268.434 184.954 268C184.727 267.77 184.547 267.497 184.427 267.197C184.306 266.897 184.246 266.575 184.25 266.252V247.896C184.258 247.534 184.368 247.182 184.568 246.881C184.69 246.645 184.849 246.43 185.039 246.245C185.417 245.817 185.944 245.551 186.512 245.501H186.911ZM194.984 254.549C195.273 254.555 195.56 254.502 195.828 254.392C196.096 254.283 196.338 254.12 196.54 253.913C196.753 253.706 196.92 253.458 197.033 253.183C197.145 252.908 197.199 252.613 197.192 252.316C197.199 252.029 197.146 251.744 197.036 251.479C196.927 251.213 196.763 250.974 196.556 250.775C196.352 250.571 196.109 250.41 195.842 250.301C195.575 250.191 195.289 250.137 195 250.139H189.04V254.56L194.984 254.549ZM194.984 263.854C195.273 263.858 195.559 263.803 195.827 263.694C196.094 263.585 196.336 263.423 196.54 263.218C196.774 262.956 196.953 262.65 197.065 262.317C197.178 261.983 197.221 261.631 197.192 261.281C197.221 260.93 197.178 260.578 197.065 260.245C196.953 259.912 196.774 259.605 196.54 259.343C196.336 259.139 196.093 258.977 195.826 258.868C195.559 258.759 195.273 258.704 194.984 258.707H189.04V263.863L194.984 263.854Z" fill="#ED2027"/>
<path d="M212.658 245.549C213.798 245.547 214.927 245.762 215.985 246.185C217.02 246.591 217.967 247.194 218.773 247.96C219.572 248.731 220.22 249.646 220.682 250.656C221.167 251.713 221.414 252.864 221.405 254.026V266.224C221.408 266.526 221.351 266.826 221.237 267.106C221.123 267.386 220.953 267.64 220.739 267.853C220.526 268.076 220.27 268.255 219.987 268.379C219.704 268.504 219.4 268.571 219.091 268.578C218.469 268.589 217.867 268.361 217.407 267.942C217.179 267.742 216.998 267.494 216.877 267.215C216.756 266.937 216.698 266.635 216.708 266.332V262.097H208.637V266.233C208.638 266.544 208.574 266.85 208.449 267.134C208.324 267.418 208.141 267.673 207.912 267.882C207.697 268.106 207.438 268.284 207.152 268.405C206.866 268.527 206.558 268.589 206.248 268.589C205.63 268.592 205.034 268.359 204.583 267.937C204.352 267.74 204.168 267.495 204.043 267.219C203.917 266.943 203.854 266.643 203.858 266.34V254.31C203.875 253.142 204.115 251.989 204.564 250.911C204.998 249.873 205.625 248.927 206.413 248.124C207.227 247.297 208.2 246.643 209.273 246.201C210.347 245.758 211.498 245.537 212.658 245.549ZM216.706 254.312C216.708 253.764 216.6 253.221 216.388 252.716C216.189 252.236 215.893 251.803 215.519 251.442C215.139 251.077 214.697 250.782 214.214 250.571C213.705 250.354 213.157 250.245 212.604 250.253C212.081 250.255 211.563 250.363 211.083 250.571C210.613 250.763 210.181 251.039 209.81 251.385C209.44 251.732 209.145 252.15 208.941 252.613C208.726 253.091 208.618 253.61 208.623 254.134V257.386H216.706V254.312Z" fill="#ED2027"/>
<path d="M232.093 245.661C233.233 245.659 234.362 245.875 235.42 246.297C236.456 246.701 237.403 247.303 238.207 248.07C239.008 248.841 239.656 249.757 240.117 250.768C240.605 251.823 240.852 252.973 240.839 254.135V266.335C240.844 266.637 240.787 266.937 240.673 267.217C240.558 267.497 240.389 267.751 240.174 267.964C239.962 268.188 239.707 268.367 239.425 268.492C239.142 268.616 238.838 268.683 238.529 268.689C237.908 268.7 237.305 268.472 236.846 268.053C236.617 267.853 236.435 267.605 236.313 267.327C236.191 267.049 236.131 266.747 236.14 266.443V254.41C236.14 253.869 236.032 253.333 235.822 252.835C235.622 252.356 235.327 251.923 234.953 251.563C234.574 251.197 234.131 250.902 233.647 250.694C233.153 250.481 232.622 250.369 232.084 250.366C231.546 250.363 231.013 250.468 230.517 250.675C230.048 250.87 229.616 251.145 229.243 251.489C228.873 251.837 228.577 252.256 228.374 252.722C228.159 253.2 228.051 253.719 228.056 254.243V266.335C228.057 266.645 227.993 266.952 227.868 267.236C227.743 267.52 227.56 267.775 227.331 267.984C227.115 268.206 226.856 268.383 226.57 268.504C226.284 268.625 225.977 268.687 225.666 268.688C225.05 268.697 224.453 268.469 223.999 268.052C223.768 267.855 223.584 267.61 223.459 267.334C223.334 267.058 223.272 266.758 223.277 266.455V254.41C223.293 253.241 223.534 252.086 223.986 251.008C224.646 249.405 225.773 248.037 227.221 247.083C228.668 246.13 230.369 245.633 232.103 245.659L232.093 245.661Z" fill="#ED2027"/>
<path d="M259.52 264.565C259.751 264.786 259.935 265.053 260.059 265.349C260.183 265.644 260.246 265.962 260.242 266.282C260.243 266.608 260.18 266.931 260.056 267.233C259.932 267.534 259.75 267.808 259.52 268.039C259.293 268.262 259.023 268.437 258.728 268.556C258.432 268.675 258.116 268.733 257.798 268.729C257.146 268.733 256.517 268.487 256.042 268.041L247.608 260.582V266.264C247.615 266.584 247.556 266.902 247.434 267.198C247.313 267.495 247.131 267.763 246.902 267.986C246.433 268.441 245.805 268.695 245.151 268.695C244.498 268.695 243.87 268.441 243.401 267.986C243.167 267.765 242.982 267.499 242.857 267.203C242.732 266.907 242.67 266.589 242.676 266.268V248.014C242.673 247.697 242.737 247.382 242.861 247.089C242.986 246.797 243.17 246.534 243.401 246.315C243.63 246.084 243.903 245.901 244.203 245.776C244.504 245.65 244.826 245.586 245.151 245.586C245.477 245.586 245.799 245.65 246.099 245.776C246.4 245.901 246.672 246.084 246.902 246.315C247.127 246.537 247.306 246.802 247.427 247.095C247.548 247.387 247.608 247.701 247.606 248.017V253.7L256.042 246.318C256.273 246.087 256.547 245.904 256.849 245.779C257.151 245.655 257.475 245.591 257.802 245.593C258.123 245.59 258.441 245.652 258.737 245.777C259.033 245.902 259.3 246.086 259.522 246.318C259.756 246.541 259.94 246.81 260.065 247.107C260.189 247.405 260.25 247.725 260.245 248.048C260.248 248.369 260.185 248.687 260.061 248.983C259.937 249.279 259.754 249.547 259.522 249.769L251.046 257.15L259.52 264.565Z" fill="#ED2027"/>
<path d="M157.424 245.502C157.751 245.494 158.076 245.555 158.378 245.679C158.68 245.804 158.954 245.989 159.181 246.224C159.408 246.453 159.588 246.724 159.709 247.023C159.829 247.322 159.889 247.642 159.884 247.965C159.894 248.287 159.836 248.608 159.715 248.907C159.594 249.207 159.412 249.477 159.181 249.703C158.949 249.929 158.674 250.106 158.372 250.224C158.07 250.342 157.748 250.399 157.424 250.39H153.38V266.185C153.389 266.509 153.333 266.831 153.215 267.133C153.097 267.435 152.919 267.709 152.692 267.941C152.227 268.393 151.603 268.645 150.955 268.645C150.306 268.645 149.683 268.393 149.217 267.941C148.988 267.71 148.809 267.436 148.688 267.134C148.568 266.832 148.51 266.51 148.517 266.185V250.388H144.425C144.108 250.394 143.792 250.337 143.496 250.219C143.201 250.1 142.933 249.924 142.708 249.7C142.475 249.475 142.293 249.205 142.171 248.905C142.049 248.606 141.992 248.285 142.001 247.962C141.996 247.639 142.056 247.319 142.177 247.02C142.299 246.721 142.479 246.45 142.708 246.222C142.928 245.989 143.195 245.805 143.491 245.681C143.787 245.557 144.105 245.496 144.425 245.502H157.424Z" fill="#ED2027"/>
<path d="M159.232 257.134C159.231 259.42 159.908 261.654 161.177 263.555C162.446 265.456 164.251 266.938 166.362 267.813C168.474 268.688 170.797 268.917 173.039 268.472C175.281 268.026 177.34 266.926 178.956 265.31C180.573 263.694 181.674 261.635 182.12 259.393C182.566 257.152 182.337 254.828 181.462 252.716C180.588 250.605 179.106 248.8 177.206 247.53C175.305 246.261 173.071 245.583 170.785 245.583C167.722 245.584 164.784 246.801 162.617 248.967C160.45 251.133 159.233 254.071 159.232 257.134ZM170.787 251.342C172.285 251.398 173.703 252.032 174.743 253.111C175.783 254.191 176.364 255.631 176.364 257.13C176.364 258.629 175.783 260.07 174.743 261.149C173.703 262.229 172.285 262.863 170.787 262.919V251.342Z" fill="#ED2027"/>
<path d="M170.79 263.877C172.562 263.852 174.253 263.131 175.497 261.869C176.741 260.607 177.439 258.906 177.439 257.134C177.439 255.362 176.741 253.661 175.497 252.399C174.253 251.138 172.562 250.416 170.79 250.391" fill="#1ECAD3"/>
<path d="M201.084 213.693C218.216 213.693 232.104 199.805 232.104 182.673C232.104 165.542 218.216 151.654 201.084 151.654C183.953 151.654 170.065 165.542 170.065 182.673C170.065 199.805 183.953 213.693 201.084 213.693Z" fill="white"/>
<path d="M249.747 182.673C249.747 169.764 244.619 157.384 235.491 148.256C226.363 139.128 213.983 134 201.074 134C188.165 134 175.785 139.128 166.657 148.256C157.529 157.384 152.401 169.764 152.401 182.673C152.398 185.045 152.572 187.414 152.919 189.76C154.709 201.923 161.036 212.958 170.627 220.648C180.219 228.339 192.366 232.114 204.627 231.217C216.888 230.32 228.355 224.815 236.725 215.81C245.095 206.806 249.747 194.967 249.747 182.673ZM168.404 189.76C167.905 187.429 167.654 185.051 167.657 182.667C167.658 180.396 167.886 178.13 168.337 175.904C170.05 167.813 174.698 160.643 181.386 155.778C188.073 150.913 196.326 148.697 204.551 149.558C212.776 150.419 220.391 154.295 225.926 160.44C231.461 166.585 234.524 174.562 234.524 182.832C234.524 191.102 231.461 199.079 225.926 205.223C220.391 211.368 212.776 215.245 204.551 216.106C196.326 216.967 188.073 214.751 181.386 209.886C174.698 205.02 170.05 197.851 168.337 189.76H168.404Z" fill="#ED2027"/>
<path d="M234.814 182.66C234.814 175.984 232.834 169.458 229.125 163.908C225.416 158.357 220.144 154.031 213.976 151.477C207.808 148.922 201.021 148.255 194.474 149.558C187.926 150.861 181.912 154.077 177.193 158.798C172.473 163.519 169.259 169.534 167.958 176.082C166.657 182.63 167.327 189.417 169.883 195.584C172.44 201.751 176.767 207.021 182.319 210.729C187.871 214.436 194.398 216.414 201.074 216.411C210.023 216.409 218.605 212.851 224.932 206.522C231.26 200.193 234.814 191.61 234.814 182.66ZM177.844 182.66C177.977 176.589 180.482 170.811 184.823 166.564C189.164 162.317 194.995 159.939 201.068 159.939C207.141 159.939 212.972 162.317 217.313 166.564C221.654 170.811 224.159 176.589 224.292 182.66" fill="#1ECAD3"/>
<path d="M200.891 198.301C209.427 198.301 216.347 191.381 216.347 182.844C216.347 174.308 209.427 167.387 200.891 167.387C192.354 167.387 185.434 174.308 185.434 182.844C185.434 191.381 192.354 198.301 200.891 198.301Z" fill="#ED2027"/>
</svg>
