<svg width="328" height="162" viewBox="0 0 328 162" fill="none" xmlns="http://www.w3.org/2000/svg">
  <mask id="mask0" style="mask-type:alpha" maskUnits="userSpaceOnUse" x="0" y="0" width="328" height="162">
    <rect x="0" y="0" width="328" height="162" rx="16" fill="#ffffff"/>
  </mask>
  <g mask="url(#mask0)">
    <path d="M154.738 75.567L256.265 -42.1877C272.881 -61.4594 299.821 -61.4599 316.437 -42.1885L417.963 75.5663C434.579 94.8381 434.579 126.085 417.963 145.356L316.437 263.111C299.821 282.383 272.881 282.382 256.265 263.11L154.738 145.356C138.123 126.084 138.123 94.8387 154.738 75.567Z" fill="white" fill-opacity="0.15"/>
    <path d="M184.738 94.1177L286.265 -23.6371C302.881 -42.9087 329.821 -42.9092 346.437 -23.6378L447.963 94.1169C464.579 113.389 464.579 144.635 447.963 163.907L346.437 281.662C329.821 300.933 302.881 300.933 286.265 281.661L184.738 163.906C168.123 144.635 168.123 113.389 184.738 94.1177Z" fill="white" fill-opacity="0.12"/>
    <path d="M216.738 105.711L318.265 -12.0434C334.881 -31.315 361.821 -31.3156 378.437 -12.0441L479.963 105.711C496.579 124.982 496.579 156.229 479.963 175.501L378.437 293.255C361.821 312.527 334.881 312.526 318.265 293.255L216.738 175.5C200.123 156.228 200.123 124.983 216.738 105.711Z" fill="white" fill-opacity="0.1"/>
  </g>
</svg>
