<svg width="24" height="24" viewBox="0 0 24 24" fill="none" xmlns="http://www.w3.org/2000/svg">
<path d="M12.999 9H6.99902" stroke="#D61F2C" stroke-width="1.2" stroke-linecap="round" stroke-linejoin="round"/>
<path d="M22.0002 10.9702V13.0302C22.0002 13.5802 21.5602 14.0302 21.0002 14.0502H19.0402C17.9602 14.0502 16.9702 13.2602 16.8802 12.1802C16.8202 11.5502 17.0602 10.9602 17.4802 10.5502C17.8502 10.1702 18.3602 9.9502 18.9202 9.9502H21.0002C21.5602 9.9702 22.0002 10.4202 22.0002 10.9702Z" stroke="#475467" stroke-width="1.2" stroke-linecap="round" stroke-linejoin="round"/>
<path d="M17.48 10.5485C17.06 10.9585 16.82 11.5485 16.88 12.1785C16.97 13.2585 17.96 14.0485 19.04 14.0485H21V15.4985C21 18.4985 19 20.4985 16 20.4985H7C4 20.4985 2 18.4985 2 15.4985V8.49854C2 5.77854 3.64 3.87853 6.19 3.55853C6.45 3.51853 6.72 3.49854 7 3.49854H16C16.26 3.49854 16.51 3.50852 16.75 3.54852C19.33 3.84852 21 5.75854 21 8.49854V9.94855H18.92C18.36 9.94855 17.85 10.1685 17.48 10.5485Z" stroke="#475467" stroke-width="1.2" stroke-linecap="round" stroke-linejoin="round"/>
</svg>
