<svg height="56" viewBox="0 0 56 56" width="56" xmlns="http://www.w3.org/2000/svg">
    <g fill="#28AAE1">
        <path
            d="M45.063 35.735c.593 0 1.08.454 1.132 1.034l.005.104v4.777c0 2.458-1.95 4.461-4.387 4.547l-.163.003h-4.777c-.629 0-1.138-.51-1.138-1.138 0-.593.454-1.08 1.034-1.132l.104-.005h4.777c1.213 0 2.204-.95 2.271-2.146l.004-.129v-4.777c0-.629.51-1.138 1.138-1.138zm-34.126 0c.594 0 1.081.454 1.133 1.034l.005.104v4.777c0 1.213.95 2.204 2.146 2.271l.129.004h4.778c.628 0 1.137.51 1.137 1.138 0 .593-.454 1.08-1.034 1.132l-.104.005H14.35c-2.458 0-4.461-1.95-4.547-4.387L9.8 41.65v-4.777c0-.629.51-1.138 1.137-1.138zM19.127 9.8c.629 0 1.138.51 1.138 1.137 0 .594-.454 1.081-1.034 1.133l-.104.005H14.35c-1.213 0-2.204.95-2.271 2.146l-.004.129v4.778c0 .628-.51 1.137-1.137 1.137-.594 0-1.081-.454-1.133-1.034l-.005-.104V14.35c0-2.458 1.95-4.461 4.387-4.547l.163-.003h4.778zm22.523 0c2.458 0 4.461 1.95 4.547 4.387l.003.163v4.778c0 .628-.51 1.137-1.138 1.137-.593 0-1.08-.454-1.132-1.034l-.005-.104V14.35c0-1.213-.95-2.204-2.146-2.271l-.129-.004h-4.777c-.629 0-1.138-.51-1.138-1.137 0-.594.454-1.081 1.034-1.133l.104-.005h4.777zM28 18.9c4.57 0 8.353 3.369 9.002 7.758.142-.038.293-.058.448-.058.966 0 1.75.784 1.75 1.75s-.784 1.75-1.75 1.75c-.2 0-.393-.034-.572-.096-.912 4.061-4.54 7.096-8.878 7.096-4.337 0-7.966-3.035-8.879-7.096-.178.062-.37.096-.571.096-.966 0-1.75-.784-1.75-1.75s.784-1.75 1.75-1.75c.155 0 .306.02.449.058.648-4.39 4.431-7.758 9.001-7.758zm0 2.24c-3.789 0-6.86 3.071-6.86 6.86s3.071 6.86 6.86 6.86 6.86-3.071 6.86-6.86-3.071-6.86-6.86-6.86z" />
        <path
            d="M8.817 23.43l37.799.001c.618 0 1.12.502 1.12 1.12 0 .584-.448 1.064-1.018 1.115l-.102.005-37.799-.001c-.618 0-1.12-.502-1.12-1.12 0-.585.447-1.064 1.018-1.116l.102-.004z" />
    </g>
</svg>
