<svg fill="none" height="20" viewBox="0 0 20 20" width="20" xmlns="http://www.w3.org/2000/svg">
    <path
        d="M1.666 9.167c0-2.357 0-3.536.732-4.268.732-.732 1.911-.732 4.268-.732h4.167c2.357 0 3.535 0 4.267.732.733.732.733 1.911.733 4.268 0 2.357 0 3.536-.733 4.268-.732.732-1.91.732-4.267.732H6.666c-2.357 0-3.536 0-4.268-.732-.732-.732-.732-1.911-.732-4.268z"
        stroke="#475467" stroke-width="1.2" />
    <path
        d="M15.834 6.73c.812.08 1.36.261 1.768.67.732.732.732 1.91.732 4.267s0 3.536-.732 4.268c-.733.732-1.911.732-4.268.732H9.167c-2.357 0-3.535 0-4.268-.732-.408-.408-.589-.955-.669-1.768"
        stroke="#475467" stroke-width="1.2" />
    <path d="M10.833 9.166a2.083 2.083 0 1 1-4.167 0 2.083 2.083 0 0 1 4.167 0z" stroke="#475467"
        stroke-width="1.2" />
    <path d="M13.334 10.833V7.5M4.166 10.833V7.5" stroke="#475467" stroke-linecap="round"
        stroke-width="1.2" />
</svg>
