<svg width="24" height="24" viewBox="0 0 24 24" fill="none" xmlns="http://www.w3.org/2000/svg">
    <path fill-rule="evenodd" clip-rule="evenodd" d="M13.438 7.161a.58.58 0 0 1 .802 0l4.594 4.45a.541.541 0 0 1 0 .778l-4.594 4.45a.58.58 0 0 1-.802 0 .538.538 0 0 1 0-.778L17.63 12l-4.192-4.061a.538.538 0 0 1 0-.778z" fill="#253035"/>
    <path fill-rule="evenodd" clip-rule="evenodd" d="M5 12c0-.305.254-.55.568-.55h12.736c.313 0 .567.245.567.55 0 .303-.254.549-.567.549H5.568a.559.559 0 0 1-.568-.55z" fill="#253035"/>
</svg>
