<svg fill="none" height="16" viewBox="0 0 16 16" width="16" xmlns="http://www.w3.org/2000/svg">
    <path
        d="M6.901.467 5.435.083a2.478 2.478 0 0 0-3.03 1.758l-.37 1.388A7.588 7.588 0 0 1 6.9.467zM.446 9.209l-.361 1.358a2.476 2.476 0 0 0 1.759 3.03l1.405.374A7.587 7.587 0 0 1 .446 9.209zM14.158 2.4l-1.578-.419a7.584 7.584 0 0 1 2.904 5.08l.433-1.638A2.476 2.476 0 0 0 14.158 2.4zM9.06 15.51l1.51.407a2.478 2.478 0 0 0 3.03-1.758l.427-1.601A7.593 7.593 0 0 1 9.06 15.51z"
        fill="#D61F2C" />
    <path
        d="M8.001 1.066a6.94 6.94 0 0 0-6.805 8.29 6.936 6.936 0 0 0 9.46 5.055 6.938 6.938 0 0 0 4.284-6.408A6.935 6.935 0 0 0 8 1.066zm-3.93 3.46a1.98 1.98 0 1 1 3.89.75 1.98 1.98 0 0 1-3.89-.75zm2.883 5.994a1.98 1.98 0 1 1-3.888-.756 1.98 1.98 0 0 1 3.888.756zm.841-1.604a.88.88 0 1 1 .334-1.73.88.88 0 0 1-.334 1.73zm4.133 2.559a1.98 1.98 0 1 1-3.889-.75 1.98 1.98 0 0 1 3.89.75zm-1.311-3.671a1.981 1.981 0 1 1 .75-3.896 1.981 1.981 0 0 1-.75 3.898v-.002z"
        fill="#D61F2C" />
</svg>
