<svg width="20" height="20" viewBox="0 0 20 20" fill="none" xmlns="http://www.w3.org/2000/svg">
    <g clip-path="url(#egpv6uqkla)">
        <path d="M1.667 17.5c0-.46.373-.834.833-.834h15a.833.833 0 0 1 0 1.667h-15a.833.833 0 0 1-.833-.833zm1.666-6.667a.833.833 0 1 1 1.667 0V15a.833.833 0 1 1-1.667 0v-4.167zm4.167 0a.833.833 0 1 1 1.667 0V15A.833.833 0 1 1 7.5 15v-4.167zm3.333 0a.833.833 0 1 1 1.667 0V15a.833.833 0 1 1-1.667 0v-4.167zm4.167 0a.833.833 0 1 1 1.667 0V15A.833.833 0 1 1 15 15v-4.167zM1.667 6.451a1 1 0 0 1 .552-.894L9.553 1.89a1 1 0 0 1 .894 0l7.334 3.667a1 1 0 0 1 .552.894v1.715a1 1 0 0 1-1 1H2.667a1 1 0 0 1-1-1V6.451zM10 6.667A.833.833 0 1 0 10 5a.833.833 0 0 0 0 1.667z" fill="#00A1A1"/>
    </g>
    <defs>
        <clipPath id="egpv6uqkla">
            <path fill="#fff" d="M0 0h20v20H0z"/>
        </clipPath>
    </defs>
</svg>
