<svg width="24" height="24" viewBox="0 0 24 24" fill="none" xmlns="http://www.w3.org/2000/svg">
    <path d="M9 12a1 1 0 1 1-2 0 1 1 0 0 1 2 0zM13 12a1 1 0 1 1-2 0 1 1 0 0 1 2 0zM17 12a1 1 0 1 1-2 0 1 1 0 0 1 2 0z" fill="#475467"/>
    <path d="M2.039 5.5h-.5.5zm0 .7-.37.337a.5.5 0 0 0 .74 0l-.37-.337zm1.008-.363a.5.5 0 1 0-.739-.674l.739.674zm-1.278-.674a.5.5 0 0 0-.738.674l.738-.674zM8.636 4.8l.37-.337a.5.5 0 0 0-.74 0l.37.337zm-1.008.363a.5.5 0 0 0 .738.674l-.738-.674zm1.278.674a.5.5 0 0 0 .738-.674l-.738.674zM3.538 7.622a.5.5 0 1 0-.743.67l.743-.67zm3.706-4.118a.5.5 0 0 0 .78-.626l-.78.626zM5.234 1.5c-2.083 0-3.695 1.835-3.695 4h1c0-1.7 1.248-3 2.694-3v-1zm-3.695 4v.7h1v-.7h-1zm.87 1.037.638-.7-.739-.674-.639.7.74.674zm0-.674-.64-.7-.738.674.638.7.74-.674zM5.441 9.5c2.082 0 3.694-1.835 3.694-4h-1c0 1.7-1.248 3-2.694 3v1zm3.694-4v-.7h-1v.7h1zm-.87-1.037-.638.7.738.674.64-.7-.74-.674zm0 .674.64.7.738-.674-.639-.7-.738.674zM2.796 8.291c.664.74 1.6 1.209 2.647 1.209v-1c-.736 0-1.41-.329-1.904-.878l-.743.67zm5.23-5.413C7.354 2.043 6.356 1.5 5.232 1.5v1c.79 0 1.51.38 2.011 1.004l.78-.626z" fill="#D61F2C"/>
    <path fill-rule="evenodd" clip-rule="evenodd" d="M11 4.523c0-.289.234-.523.523-.523h2.214c1.568 0 2.797 0 3.756.132.98.136 1.755.419 2.363 1.043.608.624.883 1.42 1.015 2.428C21 8.587 21 9.849 21 11.46v.08c0 1.61 0 2.873-.129 3.857-.132 1.008-.407 1.804-1.015 2.428-.608.624-1.382.907-2.363 1.043-.96.132-2.188.132-3.756.132h-3.474c-1.568 0-2.797 0-3.756-.132-.98-.136-1.755-.419-2.363-1.043-.608-.624-.883-1.42-1.015-2.428C3 14.413 3 13.15 3 11.54v-.08a.46.46 0 0 1 .46-.46h.059a.5.5 0 0 1 .5.5c0 1.66 0 2.851.12 3.758.116.892.338 1.43.725 1.827.387.398.91.625 1.78.745.882.122 2.042.123 3.658.123h3.396c1.615 0 2.776 0 3.659-.123.868-.12 1.392-.347 1.779-.745.387-.397.609-.935.725-1.827.119-.907.12-2.099.12-3.758 0-1.66-.001-2.851-.12-3.758-.116-.892-.338-1.43-.725-1.827-.387-.397-.91-.626-1.78-.745-.882-.122-2.043-.123-3.658-.123h-2.175A.523.523 0 0 1 11 4.523z" fill="#475467"/>
</svg>
