<svg fill="none" height="16" viewBox="0 0 16 16" width="16" xmlns="http://www.w3.org/2000/svg">
    <path
        d="M8.633 9.965 9.866 11.2c.26.26.673.26.94.006.073-.073.147-.14.22-.213a18.933 18.933 0 0 0 1.86-2.18c.547-.76.987-1.52 1.307-2.273.313-.76.473-1.487.473-2.18 0-.454-.08-.887-.24-1.287a3.068 3.068 0 0 0-.767-1.113c-.426-.42-.893-.627-1.386-.627-.187 0-.374.04-.54.12-.174.08-.327.2-.447.373l-1.547 2.18c-.12.167-.206.32-.266.467-.06.14-.094.28-.094.407 0 .16.047.32.14.473.087.153.214.313.374.473l.506.527c.074.073.107.16.107.267 0 .053-.007.1-.02.153-.02.053-.04.093-.053.133-.12.22-.327.507-.62.854-.3.346-.62.7-.967 1.053-.067.067-.14.133-.207.2a.668.668 0 0 0-.006.953zM1.353 12.22a1.693 1.693 0 0 0 .167.726c.113.24.26.467.453.68.327.36.687.62 1.093.787.007 0 .014.006.02.006.394.16.82.247 1.28.247.68 0 1.407-.16 2.174-.487a11.713 11.713 0 0 0 2.293-1.32c.26-.193.52-.386.767-.593l-2.18-2.18c-.187.14-.354.247-.494.32-.033.013-.073.033-.12.053a.46.46 0 0 1-.166.027c-.114 0-.2-.04-.274-.113l-.506-.5a2.045 2.045 0 0 0-.48-.374.888.888 0 0 0-.474-.14c-.126 0-.26.027-.406.087-.147.06-.3.147-.467.26l-2.207 1.567c-.173.12-.293.26-.366.426a1.367 1.367 0 0 0-.107.52z"
        fill="#D61F2C" />
</svg>
