<svg fill="none" height="20" viewBox="0 0 20 20" width="20" xmlns="http://www.w3.org/2000/svg">
    <path
        d="M7.5 18.333h5c4.167 0 5.833-1.667 5.833-5.834v-5c0-4.166-1.666-5.833-5.833-5.833h-5c-4.167 0-5.833 1.667-5.833 5.833v5c0 4.167 1.666 5.834 5.833 5.834z"
        stroke="#1D2939" stroke-linecap="round" stroke-linejoin="round" stroke-width="1.5" />
    <path
        d="M12.917 15.417c.916 0 1.666-.75 1.666-1.666v-7.5c0-.917-.75-1.667-1.666-1.667-.917 0-1.667.75-1.667 1.667v7.5c0 .916.742 1.666 1.667 1.666zM7.083 15.416c.917 0 1.667-.75 1.667-1.667v-2.916c0-.917-.75-1.667-1.667-1.667-.916 0-1.666.75-1.666 1.667v2.916c0 .917.741 1.667 1.666 1.667z"
        stroke="#1D2939" stroke-linecap="round" stroke-linejoin="round" stroke-width="1.5" />
</svg>
