<svg fill="none" height="30" viewBox="0 0 30 30" width="30" xmlns="http://www.w3.org/2000/svg">
    <circle cx="15" cy="16" r="3" stroke="#D61F2C" stroke-width="1.2" />
    <path
        d="M13 23h4c2.809 0 4.213 0 5.222-.674a4 4 0 0 0 1.104-1.104C24 20.213 24 18.81 24 16c0-2.809 0-4.213-.674-5.222a3.999 3.999 0 0 0-1.104-1.104C21.213 9 19.81 9 17 9h-4c-2.809 0-4.213 0-5.222.674a4 4 0 0 0-1.104 1.104C6 11.787 6 13.19 6 15.998V16c0 2.809 0 4.213.674 5.222.292.437.667.812 1.104 1.104C8.787 23 10.19 23 13 23z"
        stroke="#344054" stroke-width="1.2" />
    <path d="M21 13h-.5" stroke="#D61F2C" stroke-linecap="round" stroke-width="1.2" />
    <path d="M17.5 6.5h-5" stroke="#344054" stroke-linecap="round" stroke-width="1.2" />
</svg>
