<svg fill="none" height="28" viewBox="0 0 28 28" width="28" xmlns="http://www.w3.org/2000/svg">
    <path d="M2.333 9.916h12.25M7 19.25h2.333M12.25 19.25h4.667" stroke="#D7DDE6"
        stroke-linecap="round" stroke-linejoin="round" stroke-miterlimit="10" stroke-width="1.2" />
    <path
        d="M25.667 15.369v3.427c0 4.095-1.039 5.121-5.18 5.121H7.513c-4.141 0-5.18-1.026-5.18-5.121v-9.59c0-4.095 1.039-5.122 5.18-5.122h7.07"
        stroke="#D7DDE6" stroke-linecap="round" stroke-linejoin="round" stroke-width="1.2" />
    <path
        d="M26.833 8.167c0 .875-.245 1.703-.676 2.403a4.631 4.631 0 0 1-3.99 2.263 4.631 4.631 0 0 1-3.99-2.263 4.574 4.574 0 0 1-.677-2.403A4.665 4.665 0 0 1 22.167 3.5a4.665 4.665 0 0 1 4.666 4.667zM25.375 4.959l-6.417 6.417"
        stroke="#D61F2C" stroke-linecap="round" stroke-linejoin="round" stroke-miterlimit="10"
        stroke-width="1.2" />
</svg>
