<svg fill="none" height="24" viewBox="0 0 25 24" width="25" xmlns="http://www.w3.org/2000/svg">
    <path
        d="M3.546 15.533A1.054 1.054 0 0 1 2.5 14.487V8.503c0-.572.474-1.046 1.046-1.046.572 0 1.046.474 1.046 1.046v5.984c0 .585-.474 1.046-1.046 1.046zM7.73 17.527a1.054 1.054 0 0 1-1.045-1.046V6.522c0-.571.474-1.046 1.046-1.046.572 0 1.046.475 1.046 1.046v9.96c0 .585-.474 1.045-1.046 1.045zM11.915 19.522a1.054 1.054 0 0 1-1.046-1.046V4.528c0-.572.474-1.046 1.046-1.046.572 0 1.046.474 1.046 1.046v13.948c0 .572-.474 1.046-1.046 1.046zM16.098 17.527a1.054 1.054 0 0 1-1.046-1.046V6.523c0-.572.474-1.047 1.046-1.047.572 0 1.046.475 1.046 1.047v9.958c0 .586-.474 1.046-1.046 1.046zM20.282 15.533a1.054 1.054 0 0 1-1.046-1.046V8.503c0-.572.475-1.046 1.046-1.046.572 0 1.046.474 1.046 1.046v5.984c0 .586-.474 1.046-1.046 1.046z"
        fill="#fff" />
</svg>
