<svg fill="none" height="24" viewBox="0 0 24 24" width="24" xmlns="http://www.w3.org/2000/svg">
    <path
        d="M12.997 20.71H9.002c-5.421 0-7.738-1.314-7.738-6.72v-3.983c0-5.407 2.317-6.721 7.738-6.721h5.991c5.422 0 7.739 1.314 7.739 6.72v1.992a.75.75 0 0 1-1.5 0v-1.991c0-4.59-1.637-5.228-6.241-5.228H9.002c-4.602 0-6.238.638-6.238 5.228v3.982c0 4.59 1.637 5.227 6.24 5.227H13a.75.75 0 1 1 0 1.494h-.002z"
        fill="#D7DDE6" />
    <path
        d="M7.233 10.25a.764.764 0 0 1 .758-.759h8.301a.764.764 0 0 1 .758.758.764.764 0 0 1-.758.759h-8.3a.757.757 0 0 1-.76-.758zM7.262 14.246a.763.763 0 0 1 .76-.758h4.256a.764.764 0 0 1 .759.758.763.763 0 0 1-.759.758H8.022a.758.758 0 0 1-.76-.758zM17.93 13.132a.763.763 0 0 1 .759.756v6.069a.75.75 0 0 1-.904.735.785.785 0 0 1-.391-.202l-2.025-2.025a.758.758 0 1 1 1.075-1.069l.728.728v-4.236a.763.763 0 0 1 .758-.756z"
        fill="#D61F2C" />
    <path
        d="M19.952 17.174a.75.75 0 0 1 .536.225.763.763 0 0 1 0 1.072l-2.025 2.025a.758.758 0 1 1-1.068-1.077l2.025-2.025a.75.75 0 0 1 .532-.22z"
        fill="#D61F2C" />D7DDE6
</svg>
