<svg fill="none" height="16" viewBox="0 0 16 16" width="16" xmlns="http://www.w3.org/2000/svg">
    <path clip-rule="evenodd"
        d="M6.992 2h2.016c1.197 0 2.138 0 2.88.088.756.09 1.37.278 1.88.702.152.127.294.267.423.42.433.512.627 1.133.72 1.895.089.74.089 1.677.089 2.859v.072c0 1.182 0 2.119-.09 2.86-.092.761-.286 1.382-.72 1.894-.128.153-.27.293-.422.42-.51.424-1.124.612-1.88.702-.742.088-1.683.088-2.88.088H6.992c-1.197 0-2.138 0-2.88-.088-.756-.09-1.37-.278-1.88-.702a3.415 3.415 0 0 1-.423-.42c-.433-.512-.627-1.133-.72-1.895C1 10.155 1 9.218 1 8.036v-.072c0-1.182 0-2.119.09-2.86.092-.761.286-1.382.72-1.895.128-.152.27-.292.422-.419.51-.424 1.124-.612 1.88-.702C4.855 2 5.796 2 6.993 2zm-2.77 1.11c-.67.08-1.077.232-1.384.487-.109.09-.209.19-.3.297-.251.297-.4.688-.48 1.34-.08.668-.081 1.54-.081 2.766s0 2.098.082 2.765c.079.653.228 1.044.48 1.341.09.107.19.206.299.297.307.255.713.407 1.385.487.68.08 1.565.081 2.8.081h1.954c1.235 0 2.12 0 2.8-.081.672-.08 1.078-.232 1.385-.487.109-.09.209-.19.3-.297.251-.297.4-.688.48-1.34.08-.668.081-1.54.081-2.766s0-2.098-.082-2.765c-.079-.653-.228-1.044-.48-1.341a2.417 2.417 0 0 0-.299-.297c-.307-.255-.713-.407-1.385-.487-.68-.08-1.565-.081-2.8-.081H7.023c-1.235 0-2.12 0-2.8.081z"
        fill="#475467" fill-rule="evenodd" />
    <path clip-rule="evenodd"
        d="M12.885 8c0 .379-.292.686-.651.686h-.006c-.36 0-.651-.307-.651-.686 0-.379.291-.686.65-.686h.007c.36 0 .65.307.65.686zM4.418 8c0 .379-.292.686-.651.686H3.76c-.36 0-.651-.307-.651-.686 0-.379.291-.686.651-.686h.006c.36 0 .651.307.651.686zM8.034 6.801c-.63 0-1.14.538-1.14 1.2 0 .663.51 1.2 1.14 1.2.63 0 1.14-.537 1.14-1.2 0-.662-.51-1.2-1.14-1.2zm-2.116 1.2c0-1.23.947-2.228 2.116-2.228S10.15 6.77 10.15 8c0 1.231-.947 2.229-2.116 2.229S5.918 9.232 5.918 8z"
        fill="#475467" fill-rule="evenodd" />
</svg>
