<svg height="32" viewBox="0 0 32 32" width="32" xmlns="http://www.w3.org/2000/svg">
    <g>
        <path style="opacity:.4"
            d="M26.333 13.167A13.167 13.167 0 1 1 13.167 0a13.167 13.167 0 0 1 13.166 13.167z"
            transform="translate(2.833 2.833)" />
        <path
            d="m17.502 16 3.258-3.258a1.062 1.062 0 0 0-1.5-1.5L16 14.498l-3.258-3.258a1.062 1.062 0 0 0-1.5 1.5L14.498 16l-3.258 3.258a1.069 1.069 0 0 0 0 1.5 1.06 1.06 0 0 0 1.5 0L16 17.502l3.258 3.258a1.06 1.06 0 0 0 1.5 0 1.069 1.069 0 0 0 0-1.5z" />
    </g>
</svg>
