<svg fill="none" height="28" viewBox="0 0 28 28" width="28" xmlns="http://www.w3.org/2000/svg">
    <path
        d="M26.016 12.74v6.008c0 3.594-2.053 5.134-5.133 5.134H10.628c-.863 0-1.645-.117-2.322-.374-1.388-.513-2.333-1.575-2.671-3.278.466.105.968.152 1.493.152h10.255c3.08 0 5.133-1.54 5.133-5.134V9.24c0-.548-.046-1.038-.14-1.493 2.217.466 3.64 2.03 3.64 4.993z"
        fill="#D61F2C" />
    <path clip-rule="evenodd"
        d="M22.517 15.248V9.24c0-.548-.058-1.027-.14-1.493-.502-2.532-2.38-3.64-4.993-3.64H7.128c-3.08 0-5.133 1.54-5.133 5.133v6.008c0 2.59 1.062 4.107 2.812 4.76.256.094.536.175.828.222.467.105.968.152 1.493.152h10.256c3.08 0 5.133-1.54 5.133-5.134zM15.33 12.25a3.08 3.08 0 1 1-6.16 0 3.08 3.08 0 0 1 6.16 0zM5.577 9.625a.881.881 0 0 0-.875.875V14c0 .478.397.875.875.875A.881.881 0 0 0 6.452 14v-3.5a.874.874 0 0 0-.875-.875zm12.46.875a.874.874 0 1 1 1.75 0V14a.881.881 0 0 1-.875.875.881.881 0 0 1-.875-.875v-3.5z"
        fill="#D7DDE6" fill-rule="evenodd" />
</svg>
