<svg fill="none" height="24" viewBox="0 0 24 24" width="24" xmlns="http://www.w3.org/2000/svg">
    <g clip-path="url(#4yngan7tsa)">
        <path
            d="M17.594 20.084a4.018 4.018 0 1 1-.002-8.036 4.018 4.018 0 0 1 .002 8.036zm0-6.51a2.491 2.491 0 1 0 0 4.982 2.491 2.491 0 0 0 0-4.982z"
            fill="#D61F2C" />
        <path
            d="M21.459 20.694a.753.753 0 0 1-.54-.226l-1.017-1.015a.763.763 0 0 1 1.078-1.078l1.015 1.017a.772.772 0 0 1 0 1.076.754.754 0 0 1-.536.226z"
            fill="#D61F2C" />
        <path
            d="M12.998 20.694H9.006c-5.42 0-7.735-1.311-7.735-6.706v-3.975c0-5.396 2.314-6.707 7.735-6.707h5.988c5.419 0 7.735 1.311 7.735 6.707V12a.75.75 0 0 1-1.498 0v-1.987c0-4.58-1.637-5.216-6.237-5.216H9.006c-4.601 0-6.237.636-6.237 5.216v3.975c0 4.58 1.637 5.216 6.237 5.216h3.992a.745.745 0 1 1 0 1.49z"
            fill="#D7DDE6" />
        <path
            d="M6.45 10.843a.514.514 0 0 0 .727 0l1.576-1.576 1.572 1.572a.514.514 0 1 0 .727-.727l-1.94-1.94a.514.514 0 0 0-.727 0l-1.94 1.94a.515.515 0 0 0 .004.731z"
            fill="#D61F2C" />
        <path
            d="M8.384 13.746a.507.507 0 0 0 .366.152.515.515 0 0 0 .513-.513V8.542a.514.514 0 1 0-1.027 0v4.843a.508.508 0 0 0 .148.361z"
            fill="#D61F2C" />
    </g>
    <defs>
        <clipPath id="4yngan7tsa">
            <path d="M0 0h24v24H0z" fill="#fff" />
        </clipPath>
    </defs>
</svg>
