<svg fill="none" height="28" viewBox="0 0 28 28" width="28" xmlns="http://www.w3.org/2000/svg">
    <path
        d="M10.5 7h4.667C17.5 7 17.5 5.833 17.5 4.667c0-2.333-1.167-2.333-2.333-2.333H10.5c-1.167 0-2.333 0-2.333 2.333S9.333 7 10.5 7z"
        stroke="#475467" stroke-linecap="round" stroke-linejoin="round" stroke-miterlimit="10"
        stroke-width="1.5" />
    <path
        d="M14.167 25.667H9.333c-5.833 0-7-2.333-7-7v-7c0-5.32 1.949-6.767 5.834-6.977M17.5 4.69c3.885.21 5.833 1.645 5.833 6.977"
        stroke="#475467" stroke-linecap="round" stroke-linejoin="round" stroke-miterlimit="10"
        stroke-width="1.5" />
    <circle cx="21.4" cy="16.2" r="2.2" stroke="#D61F2C" stroke-width="1.2" />
    <path
        d="M25.8 22.8c0 1.215 0 2.2-4.4 2.2s-4.4-.985-4.4-2.2c0-1.215 1.97-2.2 4.4-2.2 2.43 0 4.4.985 4.4 2.2z"
        stroke="#D61F2C" stroke-width="1.2" />
</svg>
