<svg fill="none" height="25" viewBox="0 0 24 25" width="24" xmlns="http://www.w3.org/2000/svg">
    <path
        d="M18.957 15.331 16.47 9.514c-.453-1.065-1.129-1.669-1.9-1.709-.762-.04-1.502.493-2.066 1.51l-1.51 2.71c-.317.572-.77.914-1.263.954-.5.048-1.002-.215-1.407-.731l-.175-.223c-.564-.707-1.263-1.049-1.978-.977-.716.071-1.328.564-1.733 1.367l-1.375 2.741a3.157 3.157 0 0 0 .135 3.084 3.153 3.153 0 0 0 2.694 1.502h10.14a3.17 3.17 0 0 0 2.647-1.423c.604-.89.7-2.01.278-2.988zM6.998 8.624a2.686 2.686 0 1 0 0-5.372 2.686 2.686 0 0 0 0 5.372z"
        fill="#fff" />
</svg>
