<svg width="28" height="28" viewBox="0 0 28 28" fill="none" xmlns="http://www.w3.org/2000/svg">
    <path d="M2.333 9.916h12.25M7 19.25h2.333M12.25 19.25h4.667" stroke="#475467" stroke-width="1.2" stroke-miterlimit="10" stroke-linecap="round" stroke-linejoin="round"/>
    <path d="M25.667 15.369v3.427c0 4.095-1.039 5.121-5.18 5.121H7.513c-4.141 0-5.18-1.026-5.18-5.121v-9.59c0-4.095 1.039-5.122 5.18-5.122h7.07" stroke="#475467" stroke-width="1.2" stroke-linecap="round" stroke-linejoin="round"/>
    <path d="M18.75 7.284v-.917c0-1.517.458-2.75 2.75-2.75s2.75 1.233 2.75 2.75v.917M23.792 12.785h-4.584c-1.833 0-2.291-.458-2.291-2.292v-.916c0-1.834.458-2.292 2.291-2.292h4.584c1.833 0 2.291.458 2.291 2.292v.916c0 1.834-.458 2.292-2.291 2.292z" stroke="#D61F2C" stroke-linecap="round" stroke-linejoin="round"/>
    <path d="M21.5 9.4v1.2" stroke="#D61F2C" stroke-linecap="round"/>
</svg>
