<svg fill="none" height="24" viewBox="0 0 24 24" width="24" xmlns="http://www.w3.org/2000/svg">
    <path
        d="M9.65 2h4.7c1.04 0 1.89.84 1.89 1.88v.94c0 1.04-.84 1.88-1.88 1.88H9.65c-1.04 0-1.88-.84-1.88-1.88v-.94C7.76 2.84 8.61 2 9.65 2z"
        fill="#D61F2C" />
    <path
        d="M6.76 4.82c0 1.59 1.3 2.89 2.89 2.89h4.7c1.59 0 2.89-1.3 2.89-2.89 0-.56.6-.91 1.1-.65 1.41.75 2.37 2.24 2.37 3.95v9.41c0 2.46-2.01 4.47-4.47 4.47H7.76c-2.46 0-4.47-2.01-4.47-4.47V8.12c0-1.71.96-3.2 2.37-3.95.5-.26 1.1.09 1.1.65zm2.86 12.13H16c.41 0 .75-.34.75-.75s-.34-.75-.75-.75H9.62c-.41 0-.75.34-.75.75s.34.75.75.75zm3.38-4h3c.41 0 .75-.34.75-.75s-.34-.75-.75-.75h-3.5.5c-.41 0-.75.34-.75.75s.34.75.75.75z"
        fill="#D61F2C" />
</svg>
