<svg fill="none" height="24" viewBox="0 0 24 24" width="24" xmlns="http://www.w3.org/2000/svg">
    <path d="M14.701 6h-4c-2 0-2-1-2-2 0-2 1-2 2-2h4c1 0 2 0 2 2s-1 2-2 2z" stroke="#D7DDE6"
        stroke-linecap="round" stroke-linejoin="round" stroke-miterlimit="10" stroke-width="1.2" />
    <path
        d="M8.558 22h7.143c5 0 6-2 6-6v-6c0-4.56-1.67-5.8-5-5.98M8.701 4.02c-3.33.18-5 1.41-5 5.98v4M16.701 12h-3.67M16.701 16.434h-7"
        stroke="#D7DDE6" stroke-linecap="round" stroke-linejoin="round" stroke-miterlimit="10"
        stroke-width="1.2" />
    <path clip-rule="evenodd" d="M2.808 16.825a.305.305 0 0 0-.094-.226.28.28 0 0 0-.426 0 .317.317 0 0 0-.087.226v4.357c0 .09.029.165.087.226a.282.282 0 0 0 .213.092.282.282 0 0 0 .213-.092.305.305 0 0 0 .094-.226v-4.357zm.727 4.357c0 .09.03.165.087.226a.28.28 0 0 0 .213.092c.085 0 .156-.03.213-.092a.305.305 0 0 0 .094-.226v-1.638h1.38c.29 0 .512.072.663.216a.581.581 0 0 1 .047.05c.077.083.138.172.183.268l.004.01c.034.073.06.151.076.233a2.874 2.874 0 0 1 .058.536 4.069 4.069 0 0 1 .002.113v.212c0 .094.026.172.08.233a.31.31 0 0 0 .226.085c.085 0 .156-.03.214-.092a.317.317 0 0 0 .086-.226v-.325a2.609 2.609 0 0 0-.082-.655 3.07 3.07 0 0 0-.098-.32 1.077 1.077 0 0 0-.188-.342.87.87 0 0 0-.172-.158.964.964 0 0 0-.293-.135c.085-.03.165-.068.238-.11l.004-.003a1.214 1.214 0 0 0 .53-.632 1.41 1.41 0 0 0 .101-.533c0-.428-.15-.775-.453-1.038a1.257 1.257 0 0 0-.062-.05l-.005-.005c-.3-.227-.732-.34-1.293-.34H3.835a.275.275 0 0 0-.213.099.31.31 0 0 0-.087.225v4.322zm1.813-2.246c.06 0 .118-.002.174-.005.248-.018.458-.074.63-.17a1.04 1.04 0 0 0 .135-.089.779.779 0 0 0 .207-.235.841.841 0 0 0 .1-.468.762.762 0 0 0-.293-.6c-.18-.143-.485-.218-.913-.226H4.142v1.793h1.206z"
        fill="#D61F2C"
        fill-rule="evenodd" />
</svg>
