<svg fill="none" height="24" viewBox="0 0 24 24" width="24" xmlns="http://www.w3.org/2000/svg">
    <path d="M12.855 12.2H16M10 16h6M10 6h4c2 0 2-1 2-2 0-2-1-2-2-2h-4C9 2 8 2 8 4s1 2 2 2z"
        stroke="#D0D5DD" stroke-linecap="round" stroke-linejoin="round" stroke-miterlimit="10"
        stroke-width="1.2" />
    <path d="M16 4.02c3.33.18 5 1.41 5 5.98v6c0 4-1 6-6 6H9c-5 0-6-2-6-6v-6c0-4.56 1.67-5.8 5-5.98"
        stroke="#D0D5DD" stroke-linecap="round" stroke-linejoin="round" stroke-miterlimit="10"
        stroke-width="1.2" />
</svg>
