<svg height="24" viewBox="0 0 24 24" width="24" xmlns="http://www.w3.org/2000/svg">
    <g id="vuesax_outline_flash" transform="translate(-428 -316)">
        <g id="flash">
            <path
                d="M6.02,21.5a1.243,1.243,0,0,1-.48-.09c-.4-.15-1.08-.64-1.08-2.19v-6.45H2.12a1.951,1.951,0,0,1-1.99-1,1.956,1.956,0,0,1,.56-2.16l7.57-8.6c1.02-1.16,1.85-1.08,2.25-.93s1.08.64,1.08,2.19v6.45h2.34a1.951,1.951,0,0,1,1.99,1,1.956,1.956,0,0,1-.56,2.16l-7.57,8.6A2.437,2.437,0,0,1,6.02,21.5ZM9.96,1.495a3.286,3.286,0,0,0-.57.52l-7.57,8.6a1.1,1.1,0,0,0-.32.56,1.319,1.319,0,0,0,.62.11H5.21a.755.755,0,0,1,.75.75v7.2a1.587,1.587,0,0,0,.13.78,3.286,3.286,0,0,0,.57-.52l7.57-8.6a1.1,1.1,0,0,0,.32-.56,1.319,1.319,0,0,0-.62-.11H10.84a.755.755,0,0,1-.75-.75v-7.2A1.5,1.5,0,0,0,9.96,1.495Z"
                fill="#0071bb" id="Vector" transform="translate(431.97 317.245)" />
            <path d="M0,0H24V24H0Z" fill="none" id="Vector-2" opacity="0"
                transform="translate(428 316)" />
        </g>
    </g>
</svg>
