<svg fill="none" height="16" viewBox="0 0 16 16" width="16" xmlns="http://www.w3.org/2000/svg">
    <path
        d="M11.5 2h-7C2.4 2 1 3.059 1 5.53v4.94C1 12.942 2.4 14 4.5 14h7c2.1 0 3.5-1.059 3.5-3.53V5.53C15 3.058 13.6 2 11.5 2zm.329 4.299L9.638 8.064A2.602 2.602 0 0 1 8 8.62c-.588 0-1.183-.183-1.638-.557L4.171 6.299a.546.546 0 0 1-.084-.748.52.52 0 0 1 .735-.085L7.013 7.23c.532.43 1.435.43 1.967 0l2.191-1.765a.514.514 0 0 1 .735.085.539.539 0 0 1-.077.748z"
        fill="#D61F2C" />
</svg>
