<svg fill="none" height="224" viewBox="0 0 224 224" width="224" xmlns="http://www.w3.org/2000/svg">
    <path
        d="M138.601 36.8671V72.3338H124.601V36.8671C124.601 34.3471 122.361 33.1338 120.867 33.1338C120.401 33.1338 119.934 33.2271 119.467 33.4138L45.454 61.3205C40.5073 63.1871 37.334 67.8538 37.334 73.1738V79.4271C28.8407 85.7738 23.334 95.9471 23.334 107.427V73.1738C23.334 62.0671 30.1473 52.1738 40.5073 48.2538L114.614 20.2538C116.667 19.5071 118.814 19.1338 120.867 19.1338C130.201 19.1338 138.601 26.6938 138.601 36.8671Z"
        fill="#0EBEBE" />
    <path
        d="M200.666 135.334V144.667C200.666 147.187 198.706 149.24 196.092 149.334H182.466C177.519 149.334 173.039 145.694 172.666 140.84C172.386 137.947 173.506 135.24 175.372 133.374C177.052 131.6 179.386 130.667 181.906 130.667H195.999C198.706 130.76 200.666 132.814 200.666 135.334Z"
        fill="#0EBEBE" />
    <path
        d="M46.6673 140C37.894 140 29.774 143.08 23.334 148.213C14.7473 155.027 9.33398 165.573 9.33398 177.333C9.33398 184.333 11.294 190.96 14.7473 196.56C21.1873 207.387 33.0406 214.667 46.6673 214.667C56.094 214.667 64.6806 211.213 71.214 205.333C74.1073 202.907 76.6273 199.92 78.5873 196.56C82.0406 190.96 84.0006 184.333 84.0006 177.333C84.0006 156.707 67.294 140 46.6673 140ZM31.9207 172.293C29.214 169.587 29.214 165.107 31.9207 162.4C34.7207 159.693 39.1073 159.693 41.9073 162.4L46.7607 167.347L51.4273 162.587C54.2273 159.88 58.614 159.88 61.414 162.587C64.1206 165.387 64.1206 169.773 61.414 172.573L56.654 177.24L61.6006 182.093C64.3073 184.893 64.3073 189.28 61.6006 192.08C60.2006 193.387 58.4273 194.04 56.654 194.04C54.8806 194.04 53.1073 193.387 51.7073 192.08L46.7607 187.133L41.6273 192.267C40.2273 193.667 38.454 194.32 36.6807 194.32C34.9073 194.32 33.134 193.667 31.734 192.267C29.0273 189.56 29.0273 185.08 31.734 182.373L36.8673 177.24L31.9207 172.293Z"
        fill="#0EBEBE" />
    <path
        d="M181.814 120.866H191.334C196.467 120.866 200.667 116.666 200.667 111.533V107.426C200.667 88.1063 184.894 72.333 165.574 72.333H58.4273C50.494 72.333 43.214 74.9463 37.334 79.4263C28.8407 85.773 23.334 95.9463 23.334 107.426V124.04C23.334 127.586 27.0673 129.826 30.4273 128.706C35.654 126.933 41.1607 126 46.6673 126C74.9473 126 98.0007 149.053 98.0007 177.333C98.0007 184.053 96.2273 191.426 93.4273 197.96C91.934 201.32 94.2673 205.333 97.9073 205.333H165.574C184.894 205.333 200.667 189.56 200.667 170.24V168.466C200.667 163.333 196.467 159.133 191.334 159.133H183.214C174.254 159.133 165.667 153.626 163.334 144.946C161.467 137.853 163.707 130.946 168.374 126.466C171.827 122.92 176.587 120.866 181.814 120.866ZM130.667 119H84.0007C80.174 119 77.0007 115.826 77.0007 112C77.0007 108.173 80.174 105 84.0007 105H130.667C134.494 105 137.667 108.173 137.667 112C137.667 115.826 134.494 119 130.667 119Z"
        fill="#0EBEBE" />
</svg>
