<svg fill="none" height="24" viewBox="0 0 24 24" width="24" xmlns="http://www.w3.org/2000/svg">
    <g>
        <mask fill="#000" height="22" id="p14r2xy3xb" maskUnits="userSpaceOnUse" width="20" x="2"
            y="1">
            <path d="M2 1h20v22H2z" fill="#fff" />
            <path
                d="M17.817 4.468c-.08 0-.16-.02-.23-.06a11.449 11.449 0 0 0-5.57-1.41A11.445 11.445 0 0 0 6.442 4.41a.502.502 0 1 1-.48-.88 12.73 12.73 0 0 1 12.082-.01.506.506 0 0 1-.23.95l.002-.002zM3.505 9.718a.499.499 0 0 1-.41-.792 10.34 10.34 0 0 1 3.75-3.27 11.548 11.548 0 0 1 10.312-.01 10.38 10.38 0 0 1 3.75 3.25.503.503 0 1 1-.82.58 9.388 9.388 0 0 0-3.391-2.94 10.541 10.541 0 0 0-9.402.01 9.488 9.488 0 0 0-3.4 2.96.436.436 0 0 1-.39.21v.002zm6.251 12.07a.469.469 0 0 1-.35-.15 10.11 10.11 0 0 1-2.01-2.64 8.876 8.876 0 0 1-1.05-4.34 5.537 5.537 0 0 1 5.66-5.388 5.54 5.54 0 0 1 5.662 5.388.5.5 0 0 1-1 0 4.536 4.536 0 0 0-4.662-4.39 4.538 4.538 0 0 0-4.661 4.39 7.832 7.832 0 0 0 .93 3.849 9.466 9.466 0 0 0 1.848 2.42.513.513 0 0 1 0 .71.549.549 0 0 1-.367.15zm7.172-1.848a5.388 5.388 0 0 1-3.101-.89 5.326 5.326 0 0 1-2.38-4.39.5.5 0 1 1 1 0 4.3 4.3 0 0 0 1.94 3.56c.754.492 1.64.74 2.54.71.35-.005.697-.039 1.04-.1a.503.503 0 0 1 .17.99c-.398.076-.803.116-1.21.12zM14.918 22a.588.588 0 0 1-.13-.02 7.803 7.803 0 0 1-3.722-2.1 7.296 7.296 0 0 1-2.17-5.222 3.015 3.015 0 0 1 3.08-2.94 3.017 3.017 0 0 1 3.08 2.94 2.085 2.085 0 0 0 4.16 0c0-3.77-3.25-6.83-7.251-6.83a7.303 7.303 0 0 0-6.611 4.03 6.432 6.432 0 0 0-.59 2.8 9.935 9.935 0 0 0 .671 3.608.488.488 0 0 1-.29.64.496.496 0 0 1-.64-.29 11.138 11.138 0 0 1-.731-3.958 7.512 7.512 0 0 1 .68-3.24 8.3 8.3 0 0 1 7.511-4.6c4.551 0 8.252 3.51 8.252 7.83a3.083 3.083 0 0 1-6.16 0 2.013 2.013 0 0 0-2.08-1.94 2.015 2.015 0 0 0-2.08 1.94 6.296 6.296 0 0 0 1.87 4.51 6.802 6.802 0 0 0 3.27 1.847.499.499 0 0 1 .35.61.488.488 0 0 1-.47.38V22z" />
        </mask>
        <path
            d="M17.817 4.468c-.08 0-.16-.02-.23-.06a11.449 11.449 0 0 0-5.57-1.41A11.445 11.445 0 0 0 6.442 4.41a.502.502 0 1 1-.48-.88 12.73 12.73 0 0 1 12.082-.01.506.506 0 0 1-.23.95l.002-.002zM3.505 9.718a.499.499 0 0 1-.41-.792 10.34 10.34 0 0 1 3.75-3.27 11.548 11.548 0 0 1 10.312-.01 10.38 10.38 0 0 1 3.75 3.25.503.503 0 1 1-.82.58 9.388 9.388 0 0 0-3.391-2.94 10.541 10.541 0 0 0-9.402.01 9.488 9.488 0 0 0-3.4 2.96.436.436 0 0 1-.39.21v.002zm6.251 12.07a.469.469 0 0 1-.35-.15 10.11 10.11 0 0 1-2.01-2.64 8.876 8.876 0 0 1-1.05-4.34 5.537 5.537 0 0 1 5.66-5.388 5.54 5.54 0 0 1 5.662 5.388.5.5 0 0 1-1 0 4.536 4.536 0 0 0-4.662-4.39 4.538 4.538 0 0 0-4.661 4.39 7.832 7.832 0 0 0 .93 3.849 9.466 9.466 0 0 0 1.848 2.42.513.513 0 0 1 0 .71.549.549 0 0 1-.367.15zm7.172-1.848a5.388 5.388 0 0 1-3.101-.89 5.326 5.326 0 0 1-2.38-4.39.5.5 0 1 1 1 0 4.3 4.3 0 0 0 1.94 3.56c.754.492 1.64.74 2.54.71.35-.005.697-.039 1.04-.1a.503.503 0 0 1 .17.99c-.398.076-.803.116-1.21.12zM14.918 22a.588.588 0 0 1-.13-.02 7.803 7.803 0 0 1-3.722-2.1 7.296 7.296 0 0 1-2.17-5.222 3.015 3.015 0 0 1 3.08-2.94 3.017 3.017 0 0 1 3.08 2.94 2.085 2.085 0 0 0 4.16 0c0-3.77-3.25-6.83-7.251-6.83a7.303 7.303 0 0 0-6.611 4.03 6.432 6.432 0 0 0-.59 2.8 9.935 9.935 0 0 0 .671 3.608.488.488 0 0 1-.29.64.496.496 0 0 1-.64-.29 11.138 11.138 0 0 1-.731-3.958 7.512 7.512 0 0 1 .68-3.24 8.3 8.3 0 0 1 7.511-4.6c4.551 0 8.252 3.51 8.252 7.83a3.083 3.083 0 0 1-6.16 0 2.013 2.013 0 0 0-2.08-1.94 2.015 2.015 0 0 0-2.08 1.94 6.296 6.296 0 0 0 1.87 4.51 6.802 6.802 0 0 0 3.27 1.847.499.499 0 0 1 .35.61.488.488 0 0 1-.47.38V22z"
            fill="#D7DDE6" />
        <path
            d="M17.817 4.468c-.08 0-.16-.02-.23-.06a11.449 11.449 0 0 0-5.57-1.41A11.445 11.445 0 0 0 6.442 4.41a.502.502 0 1 1-.48-.88 12.73 12.73 0 0 1 12.082-.01.506.506 0 0 1-.23.95l.002-.002zM3.505 9.718a.499.499 0 0 1-.41-.792 10.34 10.34 0 0 1 3.75-3.27 11.548 11.548 0 0 1 10.312-.01 10.38 10.38 0 0 1 3.75 3.25.503.503 0 1 1-.82.58 9.388 9.388 0 0 0-3.391-2.94 10.541 10.541 0 0 0-9.402.01 9.488 9.488 0 0 0-3.4 2.96.436.436 0 0 1-.39.21v.002zm6.251 12.07a.469.469 0 0 1-.35-.15 10.11 10.11 0 0 1-2.01-2.64 8.876 8.876 0 0 1-1.05-4.34 5.537 5.537 0 0 1 5.66-5.388 5.54 5.54 0 0 1 5.662 5.388.5.5 0 0 1-1 0 4.536 4.536 0 0 0-4.662-4.39 4.538 4.538 0 0 0-4.661 4.39 7.832 7.832 0 0 0 .93 3.849 9.466 9.466 0 0 0 1.848 2.42.513.513 0 0 1 0 .71.549.549 0 0 1-.367.15zm7.172-1.848a5.388 5.388 0 0 1-3.101-.89 5.326 5.326 0 0 1-2.38-4.39.5.5 0 1 1 1 0 4.3 4.3 0 0 0 1.94 3.56c.754.492 1.64.74 2.54.71.35-.005.697-.039 1.04-.1a.503.503 0 0 1 .17.99c-.398.076-.803.116-1.21.12zM14.918 22a.588.588 0 0 1-.13-.02 7.803 7.803 0 0 1-3.722-2.1 7.296 7.296 0 0 1-2.17-5.222 3.015 3.015 0 0 1 3.08-2.94 3.017 3.017 0 0 1 3.08 2.94 2.085 2.085 0 0 0 4.16 0c0-3.77-3.25-6.83-7.251-6.83a7.303 7.303 0 0 0-6.611 4.03 6.432 6.432 0 0 0-.59 2.8 9.935 9.935 0 0 0 .671 3.608.488.488 0 0 1-.29.64.496.496 0 0 1-.64-.29 11.138 11.138 0 0 1-.731-3.958 7.512 7.512 0 0 1 .68-3.24 8.3 8.3 0 0 1 7.511-4.6c4.551 0 8.252 3.51 8.252 7.83a3.083 3.083 0 0 1-6.16 0 2.013 2.013 0 0 0-2.08-1.94 2.015 2.015 0 0 0-2.08 1.94 6.296 6.296 0 0 0 1.87 4.51 6.802 6.802 0 0 0 3.27 1.847.499.499 0 0 1 .35.61.488.488 0 0 1-.47.38V22z"
            mask="url(#p14r2xy3xb)" stroke="#475467" stroke-linejoin="round" stroke-width=".2" />
        <path
            d="M13.8 19.093a5.374 5.374 0 0 1-2.404-4.43v-.001a.55.55 0 0 1 1.1 0m1.303 4.431-1.352-4.431m1.352 4.431a5.438 5.438 0 0 0 3.13.898m-3.13-.898.588-.871m-1.89-3.56h-.05m.05 0h-.05m.05 0a4.25 4.25 0 0 0 1.917 3.518m-1.967-3.518a4.3 4.3 0 0 0 1.94 3.56m.027-.042-.027.042m.027-.042-.027.042m.027-.042a4.337 4.337 0 0 0 2.511.702h.001a6.561 6.561 0 0 0 1.033-.1h.002a.553.553 0 0 1 .186 1.089c-.402.076-.81.116-1.218.12m-2.542-1.77c.754.492 1.64.74 2.54.711.349-.006.697-.04 1.04-.1a.503.503 0 0 1 .17.99c-.399.076-.803.115-1.21.12m-2.54-1.72-.56.83m3.101.94v-.05m0 .05v-.05m0 0a5.388 5.388 0 0 1-3.101-.89m0 0a5.324 5.324 0 0 1-2.38-4.39l2.38 4.39zm-4.07 2.787a.599.599 0 0 0 .4-.164l.001-.002a.563.563 0 0 0 0-.78l-.001-.001a9.416 9.416 0 0 1-1.838-2.407 7.783 7.783 0 0 1-.925-3.824 4.486 4.486 0 0 1 4.61-4.341h.003a4.488 4.488 0 0 1 4.61 4.34.55.55 0 0 0 1.1 0v-.002a5.588 5.588 0 0 0-5.71-5.437 5.59 5.59 0 0 0-5.712 5.437 8.926 8.926 0 0 0 1.056 4.365 10.16 10.16 0 0 0 2.02 2.651.52.52 0 0 0 .386.165z"
            fill="#D61F2C" stroke="#D61F2C" stroke-linejoin="round" stroke-width=".1" />
    </g>
</svg>
