<svg fill="none" height="28" viewBox="0 0 28 28" width="28" xmlns="http://www.w3.org/2000/svg">
    <path
        d="M23.334 14v7a4.665 4.665 0 0 1-4.667 4.667H9.334A4.665 4.665 0 0 1 4.667 21v-7a1.17 1.17 0 0 1 1.167-1.167h2.298A1.17 1.17 0 0 1 9.299 14v3.663a2.35 2.35 0 0 0 1.236 2.065 2.29 2.29 0 0 0 2.368-.105l1.109-.723 1.027.688a2.3 2.3 0 0 0 2.38.129 2.324 2.324 0 0 0 1.248-2.065V14a1.17 1.17 0 0 1 1.167-1.167h2.333A1.17 1.17 0 0 1 23.334 14zM25.084 8.167v1.166c0 1.284-.619 2.334-2.334 2.334H5.25c-1.785 0-2.333-1.05-2.333-2.334V8.167c0-1.284.548-2.334 2.333-2.334h17.5c1.715 0 2.334 1.05 2.334 2.334zM13.58 5.833H7.14a1.092 1.092 0 0 1 .035-1.516L8.83 2.66a1.12 1.12 0 0 1 1.575 0l3.174 3.173zM20.848 5.833h-6.44l3.173-3.173a1.12 1.12 0 0 1 1.576 0l1.656 1.657c.42.42.432 1.085.035 1.516z"
        fill="#D7DDE6" />
    <path
        d="M16.298 12.833A1.17 1.17 0 0 1 17.465 14v3.652c0 .933-1.039 1.493-1.809.968l-1.05-.7a1.166 1.166 0 0 0-1.283 0l-1.097.723c-.77.514-1.796-.046-1.796-.968V14a1.17 1.17 0 0 1 1.166-1.167h4.702z"
        fill="#D61F2C" />
</svg>
