<svg fill="none" height="22" viewBox="0 0 22 22" width="22" xmlns="http://www.w3.org/2000/svg">
    <path
        d="M12.03 19.06a3.738 3.738 0 0 1 6.93-2.8c.19.449.29.932.29 1.42.01.49-.082.977-.27 1.43a3.609 3.609 0 0 1-.8 1.21"
        stroke="#475467" stroke-linecap="round" stroke-linejoin="round" />
    <path
        d="M18.17 20.33a1.953 1.953 0 0 1-2.78.02 1.866 1.866 0 0 1-.43-.63 1.89 1.89 0 0 1-.16-.74c0-.26.048-.517.14-.76.1-.234.242-.448.42-.63M11 18.512a1.245 1.245 0 1 1 0 2.49M21 19.762a1.251 1.251 0 0 1-2.02.97 1.27 1.27 0 0 1-.47-.78M9.97 19.06a3.725 3.725 0 0 0-.82-3.95 3.767 3.767 0 0 0-5.29-.05 3.965 3.965 0 0 0-.82 1.2c-.191.45-.29.932-.29 1.42-.01.49.082.977.27 1.43.182.453.454.865.8 1.21"
        stroke="#475467" stroke-linecap="round" stroke-linejoin="round" />
    <path
        d="M3.83 20.33a1.953 1.953 0 0 0 2.78.02c.185-.178.332-.393.43-.63a1.89 1.89 0 0 0 .16-.74c0-.26-.048-.517-.14-.76a1.92 1.92 0 0 0-.43-.63M11 18.512a1.245 1.245 0 0 0 0 2.49M1 19.762a1.25 1.25 0 0 0 2.02.97 1.27 1.27 0 0 0 .47-.78M11.26 13.11l2.14-3.05a.456.456 0 0 0 .1-.25.514.514 0 0 0-.05-.27.465.465 0 0 0-.17-.2.622.622 0 0 0-.26-.09H8.98a.586.586 0 0 0-.26.09.41.41 0 0 0-.17.2.486.486 0 0 0 .05.52l2.15 3.05a.22.22 0 0 0 .11.1.23.23 0 0 0 .14.04.282.282 0 0 0 .15-.04.26.26 0 0 0 .11-.1z"
        stroke="#475467" stroke-linecap="round" stroke-linejoin="round" />
    <path
        d="m11.53 1 1.72 3.12a1.9 1.9 0 0 1 .28.87c.02.306-.04.612-.17.89a1.824 1.824 0 0 1-1.68 1.08h-1.3c-.354 0-.7-.1-1-.29a1.928 1.928 0 0 1-.68-.79l-.06-.13a1.78 1.78 0 0 1-.17-.78 1.7 1.7 0 0 1 .17-.77l.64-1.21 1 .99L11.53 1z"
        stroke="#D61F2C" stroke-linecap="round" stroke-linejoin="round" />
</svg>
