<svg fill="none" height="19" viewBox="0 0 22 19" width="22" xmlns="http://www.w3.org/2000/svg">
    <path
        d="M3.564 3.75zM16.173 6.137l-1.379 2.387-1.436-2.486H4.746l-3.367 5.826L0 9.476l3.367-5.824h8.612l-.73-1.265H4.167L5.547 0h7.081l.03.05 3.515 6.087zM12.856.098v.051l-.03-.051h.03zM2.1 12.756l-.03.05-.014-.025.044-.025z"
        fill="#B01117" />
    <path
        d="M17.97 16.613 16.59 19H9.863l-4.306-7.455-.73 1.264 3.576 6.19H5.645L2.07 12.81l.03-.05v-.001l3.515-6.086h2.758L6.936 9.158l4.306 7.455h6.727zM18.46 15.764l-.015.025-.043-.025h.058z"
        fill="#B01117" />
    <path
        d="m22 9.634-3.541 6.13H11.37l-1.38-2.387h2.872l4.306-7.455-3.362-5.82h2.758l3.362 5.82-4.306 7.454h1.46l3.54-6.13L22 9.634z"
        fill="#B01117" />
    <path d="M11.12 12.064a2.508 2.508 0 1 0 0-5.016 2.508 2.508 0 0 0 0 5.016z" fill="#1ECAD3" />
</svg>
