<svg width="24" height="24" viewBox="0 0 24 24" fill="none" xmlns="http://www.w3.org/2000/svg">
    <path d="M9 12a1 1 0 1 1-2 0 1 1 0 0 1 2 0zM13 12a1 1 0 1 1-2 0 1 1 0 0 1 2 0zM17 12a1 1 0 1 1-2 0 1 1 0 0 1 2 0z" fill="#475467"/>
    <path d="M6.5 2v6l2-2M6.5 8l-2-2" stroke="#D61F2C" stroke-width="1.2" stroke-linecap="round" stroke-linejoin="round"/>
    <path fill-rule="evenodd" clip-rule="evenodd" d="M11.473 4c-.267 0-.473.233-.473.5 0 .302.245.547.546.547h2.152c1.615 0 2.776 0 3.659.123.868.12 1.392.348 1.779.745s.609.935.725 1.827c.119.907.12 2.099.12 3.758 0 1.66-.001 2.851-.12 3.758-.116.892-.338 1.43-.725 1.827-.387.398-.91.625-1.78.745-.882.122-2.043.123-3.658.123h-3.396c-1.616 0-2.776 0-3.659-.123-.868-.12-1.392-.347-1.779-.745-.387-.397-.609-.935-.725-1.827-.12-.907-.12-2.099-.12-3.758 0-.755 0-1.414.012-1.993a.462.462 0 0 0-.193-.379c-.314-.23-.818-.047-.826.342C3 10.066 3 10.727 3 11.46v.08c0 1.61 0 2.873.129 3.857.132 1.008.407 1.804 1.015 2.428.608.624 1.382.907 2.363 1.043.96.132 2.188.132 3.756.132h3.474c1.568 0 2.797 0 3.756-.132.98-.136 1.755-.419 2.363-1.043.608-.624.883-1.42 1.015-2.428C21 14.413 21 13.15 21 11.54v-.08c0-1.61 0-2.873-.129-3.857-.132-1.008-.407-1.804-1.015-2.428-.608-.624-1.382-.907-2.363-1.043C16.533 4 15.305 4 13.737 4h-2.264z" fill="#475467"/>
</svg>
