<svg width="35" height="25" viewBox="0 0 35 25" fill="none" xmlns="http://www.w3.org/2000/svg">
<path fill-rule="evenodd" clip-rule="evenodd" d="M17.2325 7.0893C9.11104 12.7126 3.71474 18.9621 5.18117 21.046C6.23635 22.5448 10.5546 21.481 15.9178 18.6736V18.4031C11.8387 20.4094 8.6332 21.1038 7.80689 19.9308C6.57286 18.1765 11.1148 12.9174 17.949 8.18519C24.784 3.4535 31.3279 1.03808 32.5625 2.79128C33.5454 4.18736 30.8955 7.83978 26.2858 11.6101L26.0458 11.806L26.3448 11.8055C32.2681 7.05253 35.8215 2.41673 34.5981 0.679051C33.1311 -1.40404 25.3551 1.4663 17.2325 7.0893Z" fill="#F8A61F"/>
<path fill-rule="evenodd" clip-rule="evenodd" d="M18.2255 22.304C27.5935 19.7115 34.6462 15.6464 33.9738 13.2266C33.5886 11.8379 30.7425 11.2928 26.6172 11.5701L26.5419 11.6306L26.3326 11.8063C29.0752 11.7651 30.9105 12.2443 31.1912 13.2566C31.7558 15.2928 25.8216 18.7139 17.939 20.8959C10.0551 23.0771 3.20321 23.1942 2.63812 21.1577C2.36929 20.189 3.57261 18.9062 5.7569 17.593C5.85991 17.5309 5.96347 17.4682 6.06703 17.4075C6.16081 17.2634 6.26002 17.122 6.3644 16.973C6.32471 16.9923 6.14831 17.0896 6.10862 17.1084C2.05888 19.086 -0.361882 21.1517 0.0442065 22.6159C0.716128 25.0356 8.85774 24.8959 18.2258 22.304" fill="#54C3CF"/>
</svg>
