<svg fill="none" height="28" viewBox="0 0 28 28" width="28" xmlns="http://www.w3.org/2000/svg">
    <path
        d="M7.851 22.983c.957-1.026 2.415-.945 3.255.175l1.179 1.575c.945 1.249 2.473 1.249 3.418 0l1.178-1.575c.84-1.12 2.299-1.201 3.255-.175 2.077 2.217 3.769 1.482 3.769-1.621V8.213c.011-4.701-1.085-5.88-5.495-5.88H9.59c-4.41 0-5.507 1.179-5.507 5.88V21.35c0 3.115 1.703 3.838 3.768 1.633z"
        fill="#D7DDE6" />
    <path
        d="M18.666 9.042H9.333a.881.881 0 0 1-.875-.875c0-.479.397-.875.875-.875h9.333c.479 0 .875.396.875.875a.881.881 0 0 1-.875.875z"
        fill="#1C222E" />
    <path
        d="M17.5 13.708h-7a.881.881 0 0 1-.875-.875c0-.478.397-.875.875-.875h7c.478 0 .875.397.875.875a.881.881 0 0 1-.875.875z"
        fill="#D61F2C" />
</svg>
