<svg xmlns="http://www.w3.org/2000/svg" width="32" height="32" viewBox="0 0 32 32">
    <g data-name="vuesax/bulk/info-circle">
        <path d="M26.667 13.333A13.333 13.333 0 1 1 13.333 0a13.333 13.333 0 0 1 13.334 13.333z" transform="translate(2.667 2.667)" style="fill:#f6f6f6"/>
        <path data-name="Vector" d="M1 8.667a1.007 1.007 0 0 0 1-1V1a1.007 1.007 0 0 0-1-1 1.007 1.007 0 0 0-1 1v6.667a1.007 1.007 0 0 0 1 1z" transform="translate(15 9.667)" style="fill:#0071bb"/>
        <path data-name="Vector" d="M2.56.82a1.54 1.54 0 0 0-.28-.44A1.54 1.54 0 0 0 1.84.1 1.334 1.334 0 0 0 .827.1a1.54 1.54 0 0 0-.44.28 1.54 1.54 0 0 0-.28.44A1.327 1.327 0 0 0 0 1.327a1.327 1.327 0 0 0 .107.507 1.376 1.376 0 0 0 .28.44 1.54 1.54 0 0 0 .44.28 1.327 1.327 0 0 0 .507.107 1.327 1.327 0 0 0 .507-.107 1.54 1.54 0 0 0 .44-.28 1.376 1.376 0 0 0 .28-.44 1.327 1.327 0 0 0 .107-.507A1.327 1.327 0 0 0 2.56.82z" transform="translate(14.667 20.007)" style="fill:#0071bb"/>
    </g>
</svg>
