<svg fill="none" height="61" viewBox="0 0 99 61" width="99" xmlns="http://www.w3.org/2000/svg">
    <g clip-path="url(#mhd2soj0ba)" opacity=".5">
        <path
            d="m70.12 16.878 3.176 7.14-4.58 7.747 7.142-1.189 1.466 3.871 17.492-7.088L70.12 16.88z"
            fill="#DBB2B5" />
        <path d="m94.818 27.36-20.395-.53-5.71 4.934 4.581-7.747 21.524 3.342z" fill="#DBB2B5" />
        <path d="m94.818 27.36-20.395-.53-5.71 4.934 4.581-7.747 21.524 3.342z" fill="#000"
            opacity=".1" />
        <path
            d="M16.322 1.276c-.05.084-.708-.253-1.518-.648-.806-.402-1.472-.719-1.438-.812.03-.085.764.09 1.592.506.827.41 1.417.882 1.366.96l-.002-.006zM21.151 5.727c-.075.06-.575-.49-1.181-1.151-.608-.669-1.1-1.212-1.035-1.288.06-.068.675.373 1.292 1.051.62.685 1 1.33.924 1.388zM24.109 11.585c-.092.023-.36-.664-.688-1.503-.328-.84-.603-1.526-.516-1.568.08-.04.501.58.835 1.445.339.856.46 1.601.369 1.626zM24.538 18.157c-.094-.014-.044-.753-.011-1.655.04-.904.05-1.639.153-1.646.094-.012.235.734.195 1.658-.04.93-.242 1.656-.337 1.643zM21.287 23.732c-.054-.082.525-.533 1.102-1.215.584-.678.982-1.3 1.072-1.253.081.037-.194.756-.813 1.476-.612.724-1.32 1.072-1.367.994l.006-.002zM15.617 22.354c.091-.05.481.579 1.15 1.133.674.567 1.376.77 1.355.867-.002.09-.825.023-1.572-.602-.745-.62-1.01-1.371-.933-1.398zM16.48 16.266c.07.072-.431.618-.847 1.4-.424.773-.546 1.504-.647 1.492-.09.004-.115-.798.345-1.657.457-.846 1.098-1.306 1.155-1.237l-.006.002zM22.625 14.427c-.014.094-.747.048-1.644.116-.893.061-1.615.206-1.645.117-.03-.09.684-.394 1.621-.46.937-.065 1.684.139 1.662.228l.006-.001zM28.468 17.324c-.064.075-.663-.356-1.406-.865-.736-.512-1.357-.904-1.315-.993.044-.083.755.182 1.515.707.759.525 1.267 1.083 1.206 1.151zM32.89 22.218c-.075.059-.6-.463-1.178-1.166-.578-.702-.986-1.326-.912-1.39.074-.066.599.457 1.178 1.165.58.708.987 1.326.911 1.385l.002.006zM37.268 27.163c-.066.07-.647-.393-1.307-1.034-.649-.651-1.059-1.281-.993-1.33.08-.067.603.449 1.243 1.09.645.632 1.116 1.2 1.057 1.274zM42.699 30.902c-.044.082-.742-.18-1.533-.651-.79-.471-1.36-.962-1.3-1.036.057-.08.702.28 1.478.743.775.462 1.398.86 1.356.95l-.002-.006zM48.882 33.176c-.023.09-.766.002-1.647-.264-.88-.266-1.551-.6-1.515-.688.034-.093.753.1 1.618.357.867.263 1.564.5 1.544.595zM55.44 33.94c0 .098-.744.184-1.667.13-.921-.048-1.647-.22-1.639-.312.015-.094.752-.082 1.661-.03.91.051 1.64.117 1.646.213zM61.995 33.12c.024.09-.679.36-1.581.533-.903.173-1.66.184-1.665.089-.011-.094.712-.259 1.603-.429.89-.17 1.62-.284 1.65-.195l-.007.002zM68.116 30.606c.048.084-.58.489-1.401.906-.815.44-1.542.639-1.576.557-.036-.088.622-.429 1.426-.86.808-.414 1.505-.682 1.553-.597l-.002-.006zM73.375 26.583c.07.066-.41.651-1.104 1.255-.693.61-1.34.993-1.399.918-.058-.075.487-.58 1.175-1.183.69-.595 1.264-1.064 1.333-.998l-.005.008zM81.55 5.49c.096-.006.172.013.173.045.008.03-.074.065-.17.07-.095.006-.172-.012-.173-.044-.008-.03.074-.065.17-.071z"
            fill="#98A2B3" />
    </g>
    <defs>
        <clipPath id="mhd2soj0ba">
            <path d="M0 0h99v61H0z" fill="#fff" />
        </clipPath>
    </defs>
</svg>
