<svg fill="none" height="28" viewBox="0 0 28 28" width="28" xmlns="http://www.w3.org/2000/svg">
    <path
        d="M18.888 2.333H9.123c-4.258 0-6.79 2.532-6.79 6.779v9.765c0 4.246 2.532 6.778 6.778 6.778h9.765c4.247 0 6.779-2.532 6.779-6.778V9.112c.011-4.247-2.52-6.779-6.767-6.779z"
        fill="#D7DDE6" />
    <path
        d="M21 12.495a.858.858 0 0 1-.537-.187c-3.932-3.033-9.007-3.033-12.927 0a.882.882 0 0 1-1.225-.151.882.882 0 0 1 .152-1.225c4.573-3.535 10.488-3.535 15.073 0 .385.291.455.84.152 1.225a.862.862 0 0 1-.688.338z"
        fill="#D61F2C" />
    <path
        d="M19.133 16.1a.858.858 0 0 1-.536-.187c-2.8-2.158-6.405-2.158-9.205 0a.882.882 0 0 1-1.225-.151.884.884 0 0 1 .151-1.225c3.442-2.66 7.899-2.66 11.34 0 .385.291.455.84.152 1.225a.809.809 0 0 1-.677.338zM16.567 19.705a.858.858 0 0 1-.537-.187c-1.237-.956-2.835-.956-4.072 0a.882.882 0 0 1-1.225-.151.882.882 0 0 1 .152-1.225c1.855-1.435 4.351-1.435 6.207 0 .385.291.455.84.151 1.225a.809.809 0 0 1-.676.338z"
        fill="#1C222E" />
</svg>
