<svg fill="none" height="24" viewBox="0 0 24 24" width="24" xmlns="http://www.w3.org/2000/svg">
    <path clip-rule="evenodd" d="M6.362 11.602a1.55 1.55 0 0 0-2.117-.07l-1.751 1.532a.75.75 0 1 1-.988-1.129l1.752-1.532a3.05 3.05 0 0 1 4.165.138l4.29 4.29a1.25 1.25 0 0 0 1.602.14l.298-.21a3.75 3.75 0 0 1 4.665.28l3.224 2.901a.75.75 0 1 1-1.004 1.115l-3.223-2.9a2.25 2.25 0 0 0-2.8-.17l-.297.21a2.75 2.75 0 0 1-3.526-.305l-4.29-4.29z"
        fill="#D61F2C"
        fill-rule="evenodd" />
    <path clip-rule="evenodd" d="M11.943 1.25H12a.75.75 0 0 1 0 1.5c-2.378 0-4.086.002-5.386.176-1.279.172-2.05.5-2.62 1.069-.569.57-.896 1.34-1.068 2.619-.174 1.3-.176 3.008-.176 5.386s.002 4.086.176 5.386c.172 1.279.5 2.05 1.069 2.62.57.569 1.34.896 2.619 1.068 1.3.174 3.008.176 5.386.176s4.086-.002 5.386-.176c1.279-.172 2.05-.5 2.62-1.069.569-.57.896-1.34 1.068-2.619.174-1.3.176-3.008.176-5.386a.75.75 0 0 1 1.5 0v.057c0 2.309 0 4.118-.19 5.53-.194 1.444-.6 2.584-1.494 3.479-.895.895-2.035 1.3-3.48 1.494-1.411.19-3.22.19-5.529.19h-.114c-2.309 0-4.118 0-5.53-.19-1.444-.194-2.584-.6-3.479-1.494-.895-.895-1.3-2.035-1.494-3.48-.19-1.411-.19-3.22-.19-5.529v-.114c0-2.309 0-4.118.19-5.53.194-1.444.6-2.584 1.494-3.479.895-.895 2.035-1.3 3.48-1.494 1.411-.19 3.22-.19 5.529-.19z"
        fill="#475467"
        fill-rule="evenodd" />
    <path
        d="M15 3.299c0-.444.359-.799.799-.799H21.4c.444 0 .799.359.799.799M18.6 9.23V2.82M17.08 9.23h3.04"
        stroke="#D61F2C" stroke-linecap="round" stroke-linejoin="round" stroke-width="1.2" />
</svg>
