<svg fill="none" height="32" viewBox="0 0 32 32" width="32" xmlns="http://www.w3.org/2000/svg">
    <path
        d="M22.667 12V9.332c0-3.734-2.934-6.667-6.667-6.667-3.733 0-6.667 2.933-6.667 6.667v2.666c-2.266 0-4 1.734-4 4v9.334c0 2.266 1.734 4 4 4h13.334c2.266 0 4-1.734 4-4v-9.334c0-2.266-1.734-4-4-4zM12 9.332c0-2.267 1.733-4 4-4s4 1.733 4 4v2.666h-8V9.333zm5.467 11.333-.134.133v1.867c0 .8-.533 1.333-1.333 1.333-.8 0-1.333-.533-1.333-1.333v-1.867c-.8-.8-.934-2-.134-2.8.8-.8 2-.933 2.8-.133.8.667.934 2 .134 2.8z"
        fill="#fff" />
</svg>
