<svg fill="none" height="24" viewBox="0 0 24 24" width="24" xmlns="http://www.w3.org/2000/svg">
    <path
        d="M2.5 10.5c0-3.771 0-5.657 1.172-6.828C4.843 2.5 6.729 2.5 10.5 2.5h3c3.771 0 5.657 0 6.828 1.172C21.5 4.843 21.5 6.729 21.5 10.5v3c0 3.771 0 5.657-1.172 6.828C19.157 21.5 17.271 21.5 13.5 21.5h-3c-3.771 0-5.657 0-6.828-1.172C2.5 19.157 2.5 17.271 2.5 13.5v-3z"
        stroke="#344054" stroke-linecap="round" stroke-width="1.5" />
    <path
        d="M12.5 15.03c0 2.158-2.14 3.674-3.073 4.233a.827.827 0 0 1-.854 0C7.64 18.704 5.5 17.188 5.5 15.029 5.5 12.912 7.196 11.5 9 11.5c1.867 0 3.5 1.412 3.5 3.53zM18.5 21.5l-6-15M21 4.5l-18.5 4"
        stroke="#344054" stroke-width="1.5" />
    <circle cx="9" cy="15" fill="#344054" r="1" />
</svg>
