<svg xmlns="http://www.w3.org/2000/svg" width="24" height="24" viewBox="0 0 24 24">
    <g>
        <path d="M5.35 10.37h-.08a.543.543 0 0 0-.18 0 5.145 5.145 0 1 1 .29 0zM5.19 1.5a3.686 3.686 0 0 0-.14 7.37 1.651 1.651 0 0 1 .32 0 3.687 3.687 0 0 0-.18-7.37z" transform="translate(6.81 1.25)" style="fill:#dc143b"/>
        <path d="M7.57 10.112a9.878 9.878 0 0 1-5.42-1.5A4.291 4.291 0 0 1 0 5.062a4.336 4.336 0 0 1 2.15-3.57 10.588 10.588 0 0 1 10.84 0 4.314 4.314 0 0 1 2.15 3.55 4.336 4.336 0 0 1-2.15 3.57 9.9 9.9 0 0 1-5.42 1.5zm-4.59-7.36a2.876 2.876 0 0 0-1.48 2.32 2.869 2.869 0 0 0 1.48 2.3 9.037 9.037 0 0 0 9.18 0 2.876 2.876 0 0 0 1.48-2.32 2.869 2.869 0 0 0-1.48-2.3 9.084 9.084 0 0 0-9.18 0z" transform="translate(4.6 12.438)" style="fill:#dc143b"/>
    </g>
</svg>
