<svg height="20.004" viewBox="0 0 20.003 20.004" width="20.003" xmlns="http://www.w3.org/2000/svg">
    <g>
        <g>
            <g>
                <path style="fill:#ed2027"
                    d="M6.459 17.919C1.934 17.919 0 15.986 0 11.46v-5C0 1.934 1.934 0 6.459 0h4.167a.63.63 0 0 1 .625.625.63.63 0 0 1-.625.625H6.459c-3.842 0-5.209 1.367-5.209 5.209v5c0 3.842 1.367 5.209 5.209 5.209a.625.625 0 0 1 0 1.25z"
                    transform="translate(1.042 1.042)" />
                <path style="fill:#ed2027"
                    d="M.625 3.751A.63.63 0 0 1 0 3.125v-2.5A.63.63 0 0 1 .625 0a.63.63 0 0 1 .625.625v2.5a.63.63 0 0 1-.625.626z"
                    transform="translate(17.711 7.709)" />
                <path style="fill:#ed2027"
                    d="M7.293 7.917H3.959C1.108 7.917 0 6.808 0 3.958V.624A.618.618 0 0 1 .383.049a.631.631 0 0 1 .683.133L7.734 6.85a.626.626 0 0 1-.442 1.067zM1.25 2.132v1.826c0 2.15.558 2.709 2.709 2.709h1.825z"
                    transform="translate(11.043 1.043)" />
            </g>
        </g>
        <path style="stroke:#ed2027;stroke-linecap:round;stroke-linejoin:round;fill:none"
            d="M2.95 1.475A1.475 1.475 0 1 1 1.475 0 1.473 1.473 0 0 1 2.95 1.475z"
            transform="translate(11.82 13.586)" />
        <path style="stroke:#ed2027;stroke-linecap:round;stroke-linejoin:round;fill:none"
            d="M4.031 6.818a4.538 4.538 0 0 0 3.753-2.34 2.194 2.194 0 0 0 0-2.138A4.538 4.538 0 0 0 4.031 0 4.538 4.538 0 0 0 .278 2.34a2.194 2.194 0 0 0 0 2.138 4.538 4.538 0 0 0 3.753 2.34z"
            transform="translate(9.264 11.65)" />
    </g>
</svg>
