<svg fill="none" height="17" viewBox="0 0 16 17" width="16" xmlns="http://www.w3.org/2000/svg">
    <path
        d="M8.002 12.199a.592.592 0 0 1-.424-.176l-3.002-3a.6.6 0 0 1 .847-.847l3 3a.603.603 0 0 1 0 .848.629.629 0 0 1-.421.175z"
        fill="#D61F2C" />
    <path
        d="M4.967 12.228a.594.594 0 0 1-.598-.6c0-.159.063-.311.174-.424l3-3a.6.6 0 1 1 .848.849l-3 3a.58.58 0 0 1-.424.175z"
        fill="#D61F2C" />
    <path
        d="M10.004 15.184H5.996c-3.627 0-5.177-1.55-5.177-5.177V5.999C.82 2.372 2.37.822 5.996.822h3.34a.505.505 0 0 1 .5.501.505.505 0 0 1-.5.5h-3.34C2.916 1.824 1.821 2.92 1.821 6v4.008c0 3.079 1.095 4.175 4.175 4.175h4.008c3.08 0 4.175-1.095 4.175-4.175v-3.34a.501.501 0 1 1 1.002 0v3.34c0 3.628-1.55 5.177-5.177 5.177z"
        fill="#344054" />
    <path
        d="M14.69 7.044h-2.62c-2.241 0-3.113-.872-3.113-3.112v-2.62A.486.486 0 0 1 9.26.86a.496.496 0 0 1 .537.105l5.241 5.24a.492.492 0 0 1-.348.839zM9.94 2.5v1.43c0 1.69.439 2.13 2.13 2.13h1.434L9.94 2.501z"
        fill="#344054" />
</svg>
