<svg fill="none" height="24" viewBox="0 0 24 24" width="24" xmlns="http://www.w3.org/2000/svg">
    <path
        d="M9.595 10.15c.277-.002.552.041.814.13l1.996.748a1.972 1.972 0 0 1 1.225 1.763v2.97a2.532 2.532 0 0 1-.93 1.854l-1.717 1.281c-.403.29-.888.444-1.385.437a2.314 2.314 0 0 1-1.386-.438l-1.716-1.28a2.532 2.532 0 0 1-.93-1.854v-2.97a1.97 1.97 0 0 1 1.223-1.76l1.99-.75a2.4 2.4 0 0 1 .816-.13zm0 7.983c.236.006.47-.063.664-.197l1.723-1.283c.257-.23.418-.549.45-.892v-2.97a.796.796 0 0 0-.444-.644l-1.994-.741a1.284 1.284 0 0 0-.4-.055 1.224 1.224 0 0 0-.393.055l-1.99.75a.794.794 0 0 0-.446.635v2.97c.032.343.192.663.45.892l1.71 1.282c.198.136.434.205.673.198h-.003z"
        fill="#D61F2C" />
    <path
        d="M9.061 15.928a.602.602 0 0 1-.425-.175l-.643-.643a.6.6 0 0 1 .849-.849l.22.219 1.29-1.293a.6.6 0 0 1 .849.849l-1.716 1.717a.6.6 0 0 1-.424.175z"
        fill="#D61F2C" />
    <path
        d="M15 22.752H9c-5.435 0-7.756-2.32-7.756-7.753v-6c0-5.436 2.32-7.757 7.753-7.757H14a.756.756 0 0 1 .75.75.756.756 0 0 1-.75.75H8.997c-4.611 0-6.253 1.64-6.253 6.253v6c0 4.612 1.64 6.254 6.253 6.254h6c4.612 0 6.253-1.64 6.253-6.254v-4.993a.75.75 0 0 1 1.502 0v5.003c.002 5.426-2.319 7.747-7.751 7.747z"
        fill="#F2F4F7" />
    <path
        d="M22.008 10.701h-3.984c-3.412 0-4.732-1.324-4.732-4.731V1.986a.738.738 0 0 1 .458-.687.754.754 0 0 1 .818.16l7.964 7.968a.75.75 0 0 1-.113 1.15.738.738 0 0 1-.411.124zM14.786 3.79v2.18c0 2.57.667 3.24 3.24 3.24h2.178l-5.418-5.42z"
        fill="#F2F4F7" />
</svg>
