<svg width="31" height="30" viewBox="0 0 31 30" fill="none" xmlns="http://www.w3.org/2000/svg">
<circle cx="15.5996" cy="15" r="15" fill="#E2E2E2"/>
<path d="M9.17496 9.76439L8.38534 9C6.66473 10.6651 5.59961 12.9642 5.59961 15.4997C5.59961 18.0352 6.66473 20.3344 8.38534 22L9.17552 21.2351C7.6572 19.7658 6.71726 17.7372 6.71726 15.4997C6.71726 13.2623 7.6572 11.2337 9.17496 9.76439ZM21.8144 9L21.0243 9.76493C22.5415 11.2337 23.482 13.2623 23.482 15.4997C23.482 17.7372 22.542 19.7658 21.0243 21.2351L21.8144 22C23.5345 20.3344 24.5996 18.0352 24.5996 15.4997C24.5996 12.9642 23.5345 10.6651 21.8144 9ZM11.5449 12.0586L10.7548 11.2937C9.64158 12.3713 8.95255 13.859 8.95255 15.4997C8.95255 17.1399 9.64158 18.6276 10.7553 19.7052L11.5455 18.9408C10.6341 18.059 10.0702 16.8419 10.0702 15.4997C10.0702 14.1576 10.6341 12.9404 11.5449 12.0586ZM19.4439 11.2942L18.6543 12.0592C19.5646 12.9404 20.129 14.1576 20.129 15.4997C20.129 16.8419 19.5646 18.059 18.6543 18.9408L19.4439 19.7052C20.5576 18.6276 21.2467 17.1399 21.2467 15.4997C21.2467 13.859 20.5576 12.3713 19.4439 11.2942ZM17.0745 13.5879C17.5802 14.0781 17.8937 14.7543 17.8937 15.4997C17.8937 16.9912 16.6403 18.2046 15.0996 18.2046C13.5589 18.2046 12.3055 16.9912 12.3055 15.4997C12.3055 14.0083 13.5589 12.7949 15.0996 12.7949C15.2907 12.7949 15.4779 12.8138 15.6584 12.8495V13.9764C15.483 13.9158 15.2969 13.8768 15.0996 13.8768C14.1753 13.8768 13.4231 14.605 13.4231 15.4997C13.4231 16.3945 14.1753 17.1226 15.0996 17.1226C16.0239 17.1226 16.7761 16.3945 16.7761 15.4997C16.7761 15.0523 16.5883 14.6466 16.2843 14.3529L17.0745 13.5879Z" fill="#344054"/>
</svg>
