<svg fill="none" height="16" viewBox="0 0 16 16" width="16" xmlns="http://www.w3.org/2000/svg">
    <path
        d="M8.452 9.353a.486.486 0 0 1-.491.49.494.494 0 0 1-.347-.143l-.472-.472v2.746a.491.491 0 1 1-.983 0V9.229l-.472.472a.49.49 0 1 1-.694-.695l1.312-1.31c.08-.08.188-.13.301-.138h.105a.507.507 0 0 1 .255.118l.027.026 1.31 1.31a.444.444 0 0 1 .149.34z"
        fill="#D61F2C" />
    <path
        d="M10.004 15.183H5.996c-3.627 0-5.177-1.55-5.177-5.178V5.997C.82 2.37 2.37.82 5.996.82h3.34a.505.505 0 0 1 .5.501.505.505 0 0 1-.5.5h-3.34c-3.08 0-4.175 1.096-4.175 4.176v4.008c0 3.08 1.095 4.175 4.175 4.175h4.008c3.08 0 4.175-1.095 4.175-4.175v-3.34a.501.501 0 1 1 1.003 0v3.34c0 3.628-1.55 5.178-5.178 5.178z"
        fill="#344054" />
    <path
        d="M14.69 7.042h-2.62c-2.241 0-3.112-.871-3.112-3.112V1.31a.486.486 0 0 1 .301-.452.496.496 0 0 1 .537.105l5.242 5.24a.493.493 0 0 1-.348.839zM9.94 2.499v1.43c0 1.69.44 2.13 2.13 2.13h1.434L9.94 2.5z"
        fill="#344054" />
</svg>
