<svg height="16" viewBox="0 0 16 16" width="16" xmlns="http://www.w3.org/2000/svg">
    <g>
        <path style="fill:#ef4d4d"
            d="M3.833 1H.5A.5.5 0 0 1 0 .5.5.5 0 0 1 .5 0h3.333a.5.5 0 0 1 .5.5.5.5 0 0 1-.5.5z"
            transform="translate(4.167 8.833)" />
        <path style="fill:#ef4d4d"
            d="M3 3.5a.494.494 0 0 1-.353-.147L.145.852A.5.5 0 0 1 .852.145l2.5 2.5a.5.5 0 0 1 0 .707A.524.524 0 0 1 3 3.5z"
            transform="translate(1.668 .975)" />
        <path style="fill:#ef4d4d"
            d="M.5 3.5a.494.494 0 0 1-.353-.147.5.5 0 0 1 0-.707l2.5-2.5a.5.5 0 1 1 .707.707l-2.5 2.5A.484.484 0 0 1 .5 3.5z"
            transform="translate(1.642 1.002)" />
        <path style="fill:#ef4d4d"
            d="M5.833 1H.5A.5.5 0 0 1 0 .5.5.5 0 0 1 .5 0h5.333a.5.5 0 0 1 .5.5.5.5 0 0 1-.5.5z"
            transform="translate(4.167 6.167)" />
        <path style="fill:#ef4d4d"
            d="M7.833 10.333a.5.5 0 0 1-.5-.5v-5.34c0-2.82-.96-3.393-2.86-3.493H.5A.5.5 0 0 1 0 .5.5.5 0 0 1 .5 0h4c2.733.147 3.833 1.447 3.833 4.493v5.34a.5.5 0 0 1-.5.5z"
            transform="translate(6.167 .833)" />
        <path style="fill:#ef4d4d"
            d="M8.5 9.66h-4C.753 9.66 0 7.933 0 5.147V.5A.5.5 0 0 1 .5 0a.5.5 0 0 1 .5.5v4.647c0 2.48.487 3.513 3.5 3.513h4a.5.5 0 0 1 0 1z"
            transform="translate(1.5 5.507)" />
        <path style="fill:#ef4d4d"
            d="M.5 5a.5.5 0 0 1-.5-.5v-2A2.254 2.254 0 0 1 2.5 0h2a.494.494 0 0 1 .46.307.517.517 0 0 1-.107.547l-4 4A.511.511 0 0 1 .5 5zm2-4C1.447 1 1 1.447 1 2.5v.793L3.293 1z"
            transform="translate(9.5 10.167)" />
    </g>
</svg>
