<svg fill="none" height="28" viewBox="0 0 28 28" width="28" xmlns="http://www.w3.org/2000/svg">
    <path clip-rule="evenodd"
        d="M14.248 14.233a.75.75 0 0 1 .75-.75h3.67a.75.75 0 0 1 0 1.5h-3.67a.75.75 0 0 1-.75-.75zM10.916 18.667a.75.75 0 0 1 .75-.75h7a.75.75 0 0 1 0 1.5h-7a.75.75 0 0 1-.75-.75z"
        fill="#D61F2C" fill-rule="evenodd" />
    <path clip-rule="evenodd"
        d="M11.59 1.583h4.822c.521-.001 1.311-.003 1.942.418.747.498 1.063 1.4 1.063 2.666v.077c.002.522.003 1.312-.417 1.943-.498.747-1.4 1.063-2.666 1.063H11.59c-.522.001-1.312.003-1.943-.418-.747-.498-1.063-1.4-1.063-2.665C8.584 3.4 8.9 2.499 9.647 2c.631-.42 1.42-.419 1.943-.418zM10.48 3.25c-.129.085-.396.35-.396 1.418 0 1.067.267 1.332.395 1.417.212.141.54.166 1.188.166h4.667c1.068 0 1.332-.267 1.418-.395.14-.212.165-.54.165-1.188 0-1.068-.267-1.333-.395-1.418-.212-.141-.54-.166-1.188-.166h-4.667c-.648 0-.976.025-1.188.166z"
        fill="#475467" fill-rule="evenodd" />
    <path clip-rule="evenodd"
        d="M10.082 4.649a.75.75 0 0 1-.708.79C7.49 5.54 6.28 5.936 5.51 6.77c-.779.843-1.261 2.297-1.261 4.896v7c0 2.32.303 3.815 1.127 4.756.802.917 2.271 1.494 5.123 1.494h7c2.852 0 4.32-.577 5.123-1.494.824-.941 1.127-2.436 1.127-4.756v-7c0-2.605-.482-4.059-1.26-4.9-.77-.832-1.979-1.226-3.864-1.328a.75.75 0 0 1 .081-1.497c2 .108 3.708.536 4.884 1.807 1.167 1.262 1.659 3.192 1.659 5.918v7c0 2.347-.28 4.352-1.498 5.744-1.24 1.416-3.27 2.006-6.252 2.006h-7c-2.981 0-5.013-.59-6.252-2.006-1.218-1.392-1.498-3.397-1.498-5.744v-7c0-2.72.492-4.65 1.659-5.913C5.584 4.48 7.29 4.049 9.293 3.94a.75.75 0 0 1 .79.708z"
        fill="#475467" fill-rule="evenodd" />
</svg>
