<svg fill="none" height="16" viewBox="0 0 16 16" width="16" xmlns="http://www.w3.org/2000/svg">
    <g clip-path="url(#odtv823wza)" clip-rule="evenodd" fill="#475467" fill-rule="evenodd">
        <path
            d="M5.999 5.832a.167.167 0 1 0 0 .333.167.167 0 0 0 0-.333zm-1.167.167a1.167 1.167 0 1 1 2.333 0 1.167 1.167 0 0 1-2.333 0zm6.187-1.02a.5.5 0 0 1 0 .707l-5.333 5.333a.5.5 0 1 1-.708-.707l5.334-5.334a.5.5 0 0 1 .707 0zm-1.02 4.739a.167.167 0 1 0 0 .333.167.167 0 0 0 0-.333zm-1.167.166a1.167 1.167 0 1 1 2.333 0 1.167 1.167 0 0 1-2.333 0z" />
        <path
            d="M7.999 1.832a6.167 6.167 0 1 0 0 12.333 6.167 6.167 0 0 0 0-12.333zM.832 7.999a7.167 7.167 0 1 1 14.333 0 7.167 7.167 0 0 1-14.333 0z" />
    </g>
    <defs>
        <clipPath id="odtv823wza">
            <path d="M0 0h16v16H0z" fill="#fff" />
        </clipPath>
    </defs>
</svg>
