<svg width="104" height="74" viewBox="0 0 104 74" fill="none" xmlns="http://www.w3.org/2000/svg">
<g id="Group 1000004567">
<g id="Group 1000004501">
<g id="Group 1000004566">
<path id="Vector" d="M19.5704 4.35113L15.2482 0C5.83012 9.47826 0 22.5655 0 36.9985C0 51.4314 5.83012 64.5187 15.2482 74L19.5734 69.6458C11.2626 61.2823 6.11765 49.7347 6.11765 36.9985C6.11765 24.2622 11.2626 12.7147 19.5704 4.35113ZM88.7548 0L84.4296 4.35421C92.7344 12.7147 97.8824 24.2622 97.8824 36.9985C97.8824 49.7347 92.7374 61.2823 84.4296 69.6458L88.7548 74C98.1699 64.5187 104 51.4314 104 36.9985C104 22.5655 98.1699 9.47826 88.7548 0ZM32.5428 17.4107L28.2176 13.0565C22.1245 19.1905 18.3529 27.6588 18.3529 36.9985C18.3529 46.3351 22.1245 54.8033 28.2207 60.9374L32.5459 56.5862C27.5569 51.5669 24.4706 44.6383 24.4706 36.9985C24.4706 29.3586 27.5569 22.43 32.5428 17.4107ZM75.7793 13.0595L71.4572 17.4138C76.44 22.43 79.5294 29.3586 79.5294 36.9985C79.5294 44.6383 76.44 51.5669 71.4572 56.5862L75.7793 60.9374C81.8755 54.8033 85.6471 46.3351 85.6471 36.9985C85.6471 27.6588 81.8755 19.1905 75.7793 13.0595ZM62.8099 26.116C65.5781 28.9059 67.2941 32.7551 67.2941 36.9985C67.2941 45.4882 60.4332 52.3952 52 52.3952C43.5668 52.3952 36.7059 45.4882 36.7059 36.9985C36.7059 28.5087 43.5668 21.6017 52 21.6017C53.0461 21.6017 54.0708 21.7095 55.0588 21.9127V28.327C54.0984 27.9821 53.0798 27.7604 52 27.7604C46.9407 27.7604 42.8235 31.9052 42.8235 36.9985C42.8235 42.0917 46.9407 46.2365 52 46.2365C57.0593 46.2365 61.1765 42.0917 61.1765 36.9985C61.1765 34.4518 60.1487 32.1423 58.4847 30.4702L62.8099 26.116Z" fill="#C4C4C4"/>
<circle id="Ellipse 1580" cx="52.0043" cy="37.0036" r="10" transform="rotate(0.0203828 52.0043 37.0036)" fill="#FF0505"/>
</g>
</g>
</g>
</svg>
