<svg width="24" height="24" viewBox="0 0 24 24" fill="none" xmlns="http://www.w3.org/2000/svg">
    <path d="m9.447 14.857.342-.493-.342.493zm-.527-.366-.342.493.342-.493zm-2.435.111.374.47-.374-.47zm-1.7 1.357.375.469-.374-.469zm.04 3.299-.342.493.342-.493zM6.471 20.4l.342-.493-.342.493zm1.422.428.05.598-.05-.598zm8.967-5.899-.491-.345.49.345zm3.166-9.685.596-.07-.596.07zm-6.12 2.563-.342.493.342-.493zm-.619-2.586-.536-.27.536.27zm.947-1.879.536.27-.536-.27zm3.014-.824-.342.493.342-.493zm1.818 1.262.342-.493-.342.493zm-5.97 8.538-.49-.345.49.345zm-3.99 3.032-.528-.366.684-.986.527.366-.684.986zm-2.247-.279L5.16 16.428l-.749-.938 1.7-1.357.748.938zm-1.692 3.694 1.646 1.142-.684.986-1.646-1.142.684-.986zm2.676 1.465c1.487-.124 5.204-.916 8.526-5.646l.982.69c-3.563 5.072-7.634 6.004-9.409 6.152l-.1-1.196zm8.526-5.646c3.16-4.498 3.233-7.835 3.062-9.268l1.191-.143c.206 1.722.061 5.357-3.271 10.1l-.982-.689zM13.896 8.53l-.332-.23.684-.986.332.23-.684.986zM12.75 4.951l.947-1.879 1.072.54-.947 1.88-1.072-.54zm4.839-2.926 1.818 1.262-.684.986-1.818-1.262.684-.986zm-3.352 6.012c.342-.493.343-.492.343-.492l.002.001.002.002.006.005.014.01a.91.91 0 0 1 .112.1c.06.062.13.146.195.257.135.226.244.543.253.966.019.829-.348 2.027-1.577 3.777l-.982-.69c1.166-1.66 1.37-2.602 1.36-3.061-.005-.221-.06-.335-.085-.379-.014-.024-.024-.034-.024-.033l.01.008a.365.365 0 0 0 .02.015c0 .002.002.003.004.004l.002.002h.002l.343-.492zm-.65 4.626c-1.23 1.75-2.234 2.503-3.02 2.771-.401.137-.737.144-.995.096a1.382 1.382 0 0 1-.407-.142.827.827 0 0 1-.035-.02l-.014-.01-.006-.004-.003-.002h-.001c-.001-.001-.002-.002.34-.495l.341-.493-.001-.001a.03.03 0 0 1-.003-.002l-.004-.003-.009-.006a.579.579 0 0 0-.023-.013s.013.006.04.01c.052.01.18.022.393-.05.439-.15 1.26-.667 2.425-2.326l.982.69zm.11-9.59c.727-1.443 2.561-1.972 3.892-1.048l-.684.986c-.696-.483-1.717-.23-2.136.601l-1.072-.54zm5.733 2.243c-.048-.399-.3-.761-.707-1.043l.684-.986c.599.415 1.114 1.052 1.214 1.886l-1.191.143zM6.813 19.907c.338.235.69.351 1.03.323l.1 1.196c-.692.057-1.316-.187-1.814-.533l.684-.986zM13.563 8.3c-1.076-.747-1.403-2.176-.812-3.349l1.072.54c-.335.665-.136 1.434.425 1.823l-.684.986zM5.16 16.428c-.8.639-.75 1.811.007 2.337l-.684.986c-1.464-1.016-1.454-3.157-.072-4.26l.749.937zm3.418-1.444c-.502-.348-1.2-.327-1.719.087l-.748-.938c.914-.73 2.194-.799 3.15-.135l-.683.986z" fill="#475467"/>
</svg>
