<svg fill="none" height="28" viewBox="0 0 28 28" width="28" xmlns="http://www.w3.org/2000/svg">
    <path clip-rule="evenodd" d="M14.158 9.699a.02.02 0 0 1-.005-.014.02.02 0 0 0-.006-.013 7.442 7.442 0 0 0-5.432-2.339c-4.14 0-7.5 3.36-7.5 7.5 0 1.922.735 3.672 1.922 5a7.473 7.473 0 0 0 5.578 2.5c4.14 0 7.5-3.359 7.5-7.5A7.429 7.429 0 0 0 14.158 9.7zM3.044 11.26l-.429.337c.802.214 1.002 1.603 1.002 2.272.107 3.554 2.495 5.067 3.676 5.379 0 0 .622.232 1.67.232 1.004 0 2.007-.387 2.817-.981 2.197-1.612 3.05-4.973 3.163-5.566.107-.561-.156-.345-.3-.167-.113.157-.23.33-.357.514-1.06 1.55-2.635 3.855-5.323 3.562-2.234-.243-4.187-3.421-5.142-5.395a.514.514 0 0 0-.777-.187zm3.08 2.81 1.068.835c.424-.535 1.457-1.637 2.205-1.77.749-.134 1.36.01 1.57.1.234.11.742.367.903.5.16.134.735.68 1.002.936l.267-.267c-.479-.568-1.61-1.804-2.305-2.205-.869-.502-1.403-.519-2.339-.234-.82.25-1.616 1.202-2.16 1.852-.075.091-.146.176-.212.253z"
        fill="#F92727"
        fill-rule="evenodd" />
    <path clip-rule="evenodd" d="M19.802 2H8.629C4.333 2 1.573 4.267 1.004 8.153c-.056.388.45.573.715.285l.102-.109a.025.025 0 0 0 .007-.017c0-.006.002-.012.006-.017a9.426 9.426 0 0 1 6.881-2.962c2.475 0 4.73.948 6.421 2.5h8.58a.5.5 0 1 1 0 1H16.08c.38.466.716.968 1.003 1.5h6.632a.5.5 0 1 1 0 1H17.55c.191.482.344.984.455 1.5h5.711a.5.5 0 1 1 0 1h-5.552a9.576 9.576 0 0 1 .04 1.5h5.512a.5.5 0 1 1 0 1h-5.62a9.392 9.392 0 0 1-.37 1.5h5.99a.5.5 0 1 1 0 1h-6.39c-.4.854-.924 1.64-1.544 2.334-1.742 1.94-4.255 3.166-7.066 3.166-.885 0-1.139.319-.254.332l.18.002h11.16c4.854 0 7.748-2.894 7.748-7.76v-7.16C27.549 4.893 24.655 2 19.802 2z"
        fill="#475467"
        fill-rule="evenodd" />
</svg>
