<svg fill="none" height="25" viewBox="0 0 24 25" width="24" xmlns="http://www.w3.org/2000/svg">
    <path
        d="M11.656 14.781a3.3 3.3 0 0 1-3.375-2.087 3.737 3.737 0 0 1 .621-4.013 5.7 5.7 0 0 1 5.021-2.5 3.147 3.147 0 0 1 3.183 3.173 4.966 4.966 0 0 1-1.51 3.715 5.318 5.318 0 0 1-3.94 1.712z"
        fill="#D61F2C" />
    <path
        d="m6.104 23.565-4.38-2.021 4.239-6.122 4.39 1.937c-1.447 2.112-2.857 4.167-4.25 6.206zM10.627 19.837l6.019-3.537 1.816 4.31-5.867 3.662c-.719-1.622-1.338-3.022-1.968-4.435zM4.2 11.21c.458 1.293.861 2.43 1.272 3.596l-4.463 2.589C.639 16.275.321 15.312 0 14.35l4.2-3.14zM24 12.598a35.78 35.78 0 0 1-2.717 3.475c-.253.253-1.168-.07-1.748-.237a17.88 17.88 0 0 1-1.844-.75l2.863-3.8L24 12.597zM5.937 6.971c-.24 1.127-.462 2.163-.657 3.1l-3.026.253c.189-.948.377-1.909.578-2.92l3.105-.433zM23.313 9.72l-3.122.253c.144-.97.262-1.758.4-2.707l3.233-.263-.51 2.717zM8.521 4.07a20.5 20.5 0 0 1-1.4 1.643.925.925 0 0 1-.8.006 4.852 4.852 0 0 1-.913-.7L7.18 3l1.342 1.07zM20.97 3.723l.994 1.254-1.569 2.091-1.143-1.316 1.718-2.029z"
        fill="#344054" />
</svg>
