<svg width="223" height="223" viewBox="0 0 223 223" fill="none" xmlns="http://www.w3.org/2000/svg">
<g filter="url(#filter0_d_2005_949)">
<rect x="34" y="40" width="155" height="155" rx="77.5" fill="#F7F7F7" shape-rendering="crispEdges"/>
<path d="M83.8794 89.8776L80.1982 86.1964C72.1766 94.2154 67.2109 105.288 67.2109 117.499C67.2109 129.71 72.1766 140.782 80.1982 148.803L83.882 145.12C76.8035 138.044 72.4215 128.274 72.4215 117.499C72.4215 106.723 76.8035 96.9535 83.8794 89.8776ZM142.805 86.1964L139.121 89.8803C146.195 96.9535 150.579 106.723 150.579 117.499C150.579 128.274 146.197 138.044 139.121 145.12L142.805 148.803C150.824 140.782 155.79 129.71 155.79 117.499C155.79 105.288 150.824 94.2154 142.805 86.1964ZM94.9283 100.927L91.2445 97.2427C86.0548 102.432 82.8425 109.597 82.8425 117.499C82.8425 125.398 86.0548 132.562 91.2471 137.752L94.9309 134.071C90.6818 129.824 88.053 123.962 88.053 117.499C88.053 111.035 90.6818 105.173 94.9283 100.927ZM131.754 97.2453L128.072 100.929C132.316 105.173 134.948 111.035 134.948 117.499C134.948 123.962 132.316 129.824 128.072 134.071L131.754 137.752C136.946 132.562 140.158 125.398 140.158 117.499C140.158 109.597 136.946 102.432 131.754 97.2453ZM120.707 108.292C123.065 110.652 124.527 113.909 124.527 117.499C124.527 124.681 118.683 130.525 111.5 130.525C104.318 130.525 98.4741 124.681 98.4741 117.499C98.4741 110.316 104.318 104.472 111.5 104.472C112.391 104.472 113.264 104.564 114.106 104.735V110.162C113.288 109.87 112.42 109.683 111.5 109.683C107.191 109.683 103.685 113.19 103.685 117.499C103.685 121.808 107.191 125.314 111.5 125.314C115.81 125.314 119.316 121.808 119.316 117.499C119.316 115.344 118.441 113.39 117.024 111.975L120.707 108.292Z" fill="#344054"/>
</g>
<defs>
<filter id="filter0_d_2005_949" x="0" y="0" width="223" height="223" filterUnits="userSpaceOnUse" color-interpolation-filters="sRGB">
<feFlood flood-opacity="0" result="BackgroundImageFix"/>
<feColorMatrix in="SourceAlpha" type="matrix" values="0 0 0 0 0 0 0 0 0 0 0 0 0 0 0 0 0 0 127 0" result="hardAlpha"/>
<feOffset dy="-6"/>
<feGaussianBlur stdDeviation="17"/>
<feComposite in2="hardAlpha" operator="out"/>
<feColorMatrix type="matrix" values="0 0 0 0 0.354167 0 0 0 0 0.354167 0 0 0 0 0.354167 0 0 0 0.25 0"/>
<feBlend mode="normal" in2="BackgroundImageFix" result="effect1_dropShadow_2005_949"/>
<feBlend mode="normal" in="SourceGraphic" in2="effect1_dropShadow_2005_949" result="shape"/>
</filter>
</defs>
</svg>