<svg width="89" height="63" viewBox="0 0 89 63" fill="none" xmlns="http://www.w3.org/2000/svg">
<g id="Group 1000004565">
<g id="Group 1000004501">
<g id="Group 1000004186">
<g id="Group 1000004564">
<g id="Group 1000004563">
<g id="Group 1000004568">
<path id="Vector" d="M16.6685 3.68124L12.9872 0C4.96563 8.019 0 19.0914 0 31.3022C0 43.5131 4.96563 54.5855 12.9872 62.6071L16.6711 58.9232C9.59258 51.8473 5.21053 42.0776 5.21053 31.3022C5.21053 20.5269 9.59258 10.7571 16.6685 3.68124ZM75.5943 0L71.9105 3.68384C78.9838 10.7571 83.3684 20.5269 83.3684 31.3022C83.3684 42.0776 78.9864 51.8473 71.9105 58.9232L75.5943 62.6071C83.6133 54.5855 88.5789 43.5131 88.5789 31.3022C88.5789 19.0914 83.6133 8.019 75.5943 0ZM27.7174 14.7302L24.0336 11.0463C18.8439 16.236 15.6316 23.4005 15.6316 31.3022C15.6316 39.2014 18.8439 46.3659 24.0362 51.5556L27.72 47.8743C23.4708 43.6277 20.8421 37.7659 20.8421 31.3022C20.8421 24.8386 23.4708 18.9767 27.7174 14.7302ZM64.5428 11.0489L60.8615 14.7328C65.1055 18.9767 67.7368 24.8386 67.7368 31.3022C67.7368 37.7659 65.1055 43.6277 60.8615 47.8743L64.5428 51.5556C69.7351 46.3659 72.9474 39.2014 72.9474 31.3022C72.9474 23.4005 69.7351 16.236 64.5428 11.0489ZM53.4965 22.0952C55.8542 24.4556 57.3158 27.7122 57.3158 31.3022C57.3158 38.4849 51.4722 44.3286 44.2895 44.3286C37.1068 44.3286 31.2632 38.4849 31.2632 31.3022C31.2632 24.1195 37.1068 18.2759 44.2895 18.2759C45.1805 18.2759 46.0532 18.3671 46.8947 18.5391V23.9658C46.0767 23.674 45.2091 23.4864 44.2895 23.4864C39.9804 23.4864 36.4737 26.9931 36.4737 31.3022C36.4737 35.6113 39.9804 39.118 44.2895 39.118C48.5986 39.118 52.1053 35.6113 52.1053 31.3022C52.1053 29.1477 51.2299 27.1937 49.8126 25.7791L53.4965 22.0952Z" fill="#949494"/>
<circle id="Ellipse 1580" cx="44.5043" cy="31.5032" r="9.49984" transform="rotate(0.0203828 44.5043 31.5032)" fill="#FF0505"/>
</g>
</g>
</g>
</g>
</g>
</g>
</svg>
