<svg fill="none" height="20" viewBox="0 0 20 20" width="20" xmlns="http://www.w3.org/2000/svg">
    <g clip-path="url(#27q7wwrsaa)">
        <path
            d="M7.5 18.96c-4.525 0-6.458-1.934-6.458-6.459v-5c0-4.525 1.933-6.458 6.458-6.458h4.167a.63.63 0 0 1 .625.625.63.63 0 0 1-.625.625H7.5c-3.841 0-5.208 1.367-5.208 5.208v5c0 3.842 1.367 5.208 5.208 5.208a.625.625 0 1 1 0 1.251zM18.333 11.457a.63.63 0 0 1-.625-.625v-2.5a.63.63 0 0 1 .625-.625.63.63 0 0 1 .625.625v2.5a.63.63 0 0 1-.625.625z"
            fill="#344054" />
        <path
            d="M18.334 8.959H15c-2.85 0-3.958-1.108-3.958-3.958V1.668a.617.617 0 0 1 .383-.575.631.631 0 0 1 .683.133l6.667 6.667a.625.625 0 0 1-.442 1.067l.001-.001zm-6.042-5.783V5c0 2.15.558 2.708 2.708 2.708h1.825l-4.533-4.533z"
            fill="#344054" />
        <path d="M13.333 16.25a1.25 1.25 0 1 0 0-2.5 1.25 1.25 0 0 0 0 2.5z" stroke="#344054"
            stroke-linecap="round" stroke-linejoin="round" stroke-miterlimit="10"
            stroke-width="1.1" />
        <path
            d="M9.167 15.37v-.733c0-.434.354-.792.792-.792.754 0 1.062-.534.683-1.188a.791.791 0 0 1 .292-1.079l.72-.412a.695.695 0 0 1 .95.25l.046.079c.375.654.992.654 1.371 0l.046-.08a.695.695 0 0 1 .95-.25l.72.413c.38.217.51.704.293 1.08-.38.654-.071 1.187.683 1.187.433 0 .792.354.792.791v.734a.794.794 0 0 1-.792.792c-.754 0-1.063.533-.683 1.187a.79.79 0 0 1-.292 1.08l-.72.412a.695.695 0 0 1-.95-.25l-.047-.08c-.375-.654-.991-.654-1.37 0l-.046.08a.695.695 0 0 1-.95.25l-.721-.413a.791.791 0 0 1-.292-1.079c.38-.654.07-1.188-.683-1.188a.794.794 0 0 1-.792-.791z"
            stroke="#344054" stroke-linecap="round" stroke-linejoin="round" stroke-miterlimit="10"
            stroke-width="1.1" />
    </g>
    <defs>
        <clipPath id="27q7wwrsaa">
            <path d="M0 0h20v20H0z" fill="#fff" />
        </clipPath>
    </defs>
</svg>
