<svg height="20" viewBox="0 0 20 20" width="20" xmlns="http://www.w3.org/2000/svg">
    <g>
        <g>
            <path style="fill:#ed2027"
                d="M6.458 17.917C1.933 17.917 0 15.983 0 11.458v-5C0 1.933 1.933 0 6.458 0h4.167a.63.63 0 0 1 .625.625.63.63 0 0 1-.625.625H6.458c-3.841 0-5.208 1.367-5.208 5.208v5c0 3.842 1.367 5.208 5.208 5.208a.625.625 0 0 1 0 1.25z"
                transform="translate(1.042 1.042)" />
            <path style="fill:#ed2027"
                d="M.625 3.75A.63.63 0 0 1 0 3.125v-2.5A.63.63 0 0 1 .625 0a.63.63 0 0 1 .625.625v2.5a.63.63 0 0 1-.625.625z"
                transform="translate(17.708 7.708)" />
            <path style="fill:#ed2027"
                d="M7.292 7.915H3.958C1.108 7.915 0 6.807 0 3.957V.624A.617.617 0 0 1 .383.049a.631.631 0 0 1 .683.133l6.667 6.667a.625.625 0 0 1-.442 1.067zM1.25 2.132v1.825c0 2.15.558 2.708 2.708 2.708h1.825z"
                transform="translate(11.042 1.043)" />
        </g>
    </g>
    <g>
        <path style="fill:#ed2027"
            d="M4 8A3.976 3.976 0 0 1 .581 6.055 3.884 3.884 0 0 1 0 4 3.968 3.968 0 0 1 1.5.876 4 4 0 0 1 8 4a3.935 3.935 0 0 1-.581 2.063 3.722 3.722 0 0 1-.8.943A3.867 3.867 0 0 1 4 8zm0-6.737A2.75 2.75 0 0 0 1.263 4a2.668 2.668 0 0 0 .4 1.406A2.731 2.731 0 0 0 4 6.737a2.688 2.688 0 0 0 1.794-.682 2.424 2.424 0 0 0 .539-.64A2.651 2.651 0 0 0 6.737 4 2.742 2.742 0 0 0 4 1.263z"
            transform="translate(9 11)" />
        <path style="fill:#ed2027"
            d="M1.463 2.92a.625.625 0 0 1-.446-.185L.183 1.9a.631.631 0 0 1 .893-.893l.4.4L2.827.167a.632.632 0 0 1 .859.926L1.893 2.752a.659.659 0 0 1-.43.168z"
            transform="translate(11.057 13.544)" />
    </g>
</svg>
