<svg width="22" height="22" viewBox="0 0 22 22" fill="none" xmlns="http://www.w3.org/2000/svg">
<path d="M16.6184 9.80724C16.516 8.94625 16.2819 8.12696 15.9108 7.34803C15.4333 6.34712 14.7656 5.49285 13.9251 4.78119C13.5034 4.42334 13.0565 4.09643 12.5458 3.87176C12.1707 3.65248 11.7704 3.49239 11.3594 3.35786C10.3074 3.01346 9.23005 2.90987 8.13278 3.03229C7.5316 3.09956 6.94107 3.22602 6.37713 3.45875C5.47138 3.78028 4.66538 4.27266 3.94318 4.90899C3.41515 5.37312 2.9523 5.8951 2.58654 6.50183C2.46418 6.65923 2.3631 6.83143 2.27 7.00767C1.3842 8.66777 1.13016 10.4274 1.47464 12.2745C1.65818 13.2593 2.01729 14.1781 2.58787 15.0055C2.59852 15.0297 2.60516 15.0553 2.61979 15.0768C3.40717 16.2512 4.42864 17.1539 5.69616 17.7634C6.19758 18.0055 6.71762 18.2046 7.26692 18.3082C7.59278 18.4226 7.9346 18.4616 8.27509 18.4871C8.75789 18.5248 9.24335 18.5302 9.72482 18.4858C10.5388 18.4091 11.3262 18.2181 12.0697 17.8629C12.1402 17.8643 12.1974 17.8279 12.2572 17.7997C13.2507 17.3154 14.1113 16.6575 14.8348 15.81C15.4054 15.1414 15.8523 14.3974 16.1622 13.5781C16.6224 12.3633 16.774 11.1068 16.6197 9.80859L16.6184 9.80724ZM15.2139 13.5001C14.5289 14.805 13.4955 15.7145 12.1415 16.258C12.1003 16.2741 12.0471 16.2728 12.0205 16.3199C11.3661 16.5351 10.6971 16.6562 10.0068 16.6454C9.11833 16.632 8.27376 16.4369 7.47707 16.036C7.43584 16.0158 7.39062 16.0024 7.34806 15.9849C5.72941 15.0607 4.68799 13.6965 4.33819 11.8413C4.02697 10.1947 4.38076 8.67988 5.33173 7.30632C5.64961 6.84623 6.04463 6.46013 6.46758 6.10093C6.99693 5.72559 7.54623 5.38792 8.16469 5.18074C9.55458 4.71258 10.9298 4.74621 12.2905 5.30451C12.3583 5.33276 12.4274 5.35429 12.4966 5.3785C12.9169 5.62066 13.3398 5.85609 13.7176 6.16685C14.8002 7.05475 15.4905 8.18884 15.7711 9.56374C16.0505 10.9373 15.8682 12.257 15.2152 13.5001H15.2139Z" fill="url(#paint0_linear_2007_40)"/>
<path d="M1.1089 10.7396C1.10225 6.47359 4.49516 2.76324 9.01061 2.76324C13.4263 2.76324 16.919 6.3579 16.9097 10.7651C16.899 15.3136 13.2202 18.8006 8.90554 18.7428C4.58161 18.6836 1.09693 15.1118 1.11023 10.7396H1.1089ZM12.0697 17.8616C12.1402 17.8629 12.1974 17.8266 12.2572 17.7984C13.2508 17.314 14.1113 16.6562 14.8348 15.8087C15.4054 15.14 15.8523 14.3961 16.1622 13.5768C16.6224 12.362 16.774 11.1055 16.6197 9.80725C16.5173 8.94626 16.2832 8.12697 15.9121 7.34804C15.4347 6.34713 14.767 5.49287 13.9264 4.7812C13.5048 4.42335 13.0579 4.09644 12.5472 3.87177C12.1721 3.65249 11.7718 3.4924 11.3608 3.35787C10.3087 3.01347 9.2314 2.90988 8.13412 3.03231C7.53295 3.09957 6.94242 3.22603 6.37848 3.45877C5.47273 3.78029 4.66673 4.27402 3.94452 4.909C3.4165 5.37313 2.95365 5.89511 2.58789 6.50184C2.46553 6.65924 2.36445 6.83144 2.27134 7.00768C1.38554 8.66778 1.13151 10.4274 1.47599 12.2745C1.65953 13.2593 2.01864 14.1781 2.58922 15.0055C2.59986 15.0297 2.60651 15.0553 2.62114 15.0768C3.40852 16.2513 4.42998 17.154 5.6975 17.7634C6.19893 18.0055 6.71897 18.2046 7.26827 18.3082C7.59413 18.4226 7.93595 18.4616 8.27643 18.4872C8.75924 18.5248 9.2447 18.5302 9.72617 18.4858C10.5401 18.4091 11.3275 18.2181 12.071 17.8629L12.0697 17.8616Z" fill="#FEFEFE"/>
<path d="M10.9817 0.00133003C10.9817 0.0133003 10.9817 0.0252706 10.9843 0.0359108C10.7303 0.0359108 10.4749 0.0359108 10.2209 0.0359108C10.2249 0.0239406 10.2249 0.0119703 10.2235 0H10.983L10.9817 0.00133003Z" fill="#DDB3D1"/>
<path d="M21.207 11.6745C21.1152 11.8925 21.1298 12.1306 21.0953 12.3579C20.776 14.4459 19.9301 16.2862 18.5429 17.8643C16.9136 19.7168 14.888 20.8979 12.47 21.3042C8.95872 21.8935 5.87038 20.9531 3.26884 18.4831C1.66083 16.9575 0.63538 15.0755 0.219081 12.8893C-0.403374 9.61488 0.297551 6.63368 2.36043 4.02245C4.02962 1.91032 6.22018 0.647081 8.85231 0.173534C9.30319 0.0928161 9.76073 0.0484211 10.2209 0.0376587C10.475 0.0376587 10.7303 0.0376587 10.9844 0.0376587C12.5684 0.0941614 14.0767 0.46681 15.4719 1.22691C18.6108 2.93679 20.4888 5.57493 21.0939 9.13595C21.1352 9.37676 21.1165 9.62564 21.207 9.85838V11.6759V11.6745ZM1.10887 10.7395C1.0969 15.1118 4.58158 18.6836 8.90418 18.7428C13.2188 18.8006 16.8977 15.3136 16.9083 10.7651C16.919 6.3579 13.4263 2.7619 9.00926 2.76324C4.4938 2.76324 1.10089 6.47359 1.10754 10.7395H1.10887Z" fill="#9C2776"/>
<defs>
<linearGradient id="paint0_linear_2007_40" x1="1.327" y1="10.7503" x2="16.6782" y2="10.7503" gradientUnits="userSpaceOnUse">
<stop stop-color="#A32B78"/>
<stop offset="1" stop-color="#E8C8E0"/>
</linearGradient>
</defs>
</svg>
