<svg fill="none" height="28" viewBox="0 0 28 28" width="28" xmlns="http://www.w3.org/2000/svg">
    <path
        d="M10.5 7h4.667C17.5 7 17.5 5.833 17.5 4.667c0-2.333-1.167-2.333-2.333-2.333H10.5c-1.167 0-2.333 0-2.333 2.333S9.333 7 10.5 7z"
        stroke="#475467" stroke-linecap="round" stroke-linejoin="round" stroke-miterlimit="10"
        stroke-width="1.5" />
    <path
        d="M14.167 25.667H9.333c-5.833 0-7-2.333-7-7v-7c0-5.32 1.949-6.767 5.834-6.977M17.5 4.69c3.885.21 5.833 1.645 5.833 6.977"
        stroke="#475467" stroke-linecap="round" stroke-linejoin="round" stroke-miterlimit="10"
        stroke-width="1.5" />
    <g clip-path="url(#vkl77ajjsa)" fill="#D61F2C">
        <path
            d="M21.47 26c-.34-.185-.68-.367-1.019-.553-.379-.211-.76-.42-1.133-.641a3.252 3.252 0 0 1-1.574-2.383c-.179-1.399.073-2.82.721-4.071a12.02 12.02 0 0 1 2.327-3.322c.503-.524 1.05-1.01 1.57-1.517a.297.297 0 0 1 .419-.045c.94.555 1.875 1.116 2.834 1.642a.7.7 0 0 1 .08 1.2 16.554 16.554 0 0 0-3.126 3.072 8.947 8.947 0 0 0-1.72 3.678 3.273 3.273 0 0 0 .593 2.814c.02.028.04.057.057.087l-.034.045.005-.006zM19.693 12.465c-.16.145-.32.302-.48.454a15.159 15.159 0 0 0-2.998 3.822 9.85 9.85 0 0 0-1.096 3.385 4.236 4.236 0 0 0 1.096 3.53.955.955 0 0 1 .074.105l-.042.053c-.24-.169-.49-.325-.721-.511a4.17 4.17 0 0 1-1.513-3.109 8.428 8.428 0 0 1 1.173-4.54 14.2 14.2 0 0 1 2.317-3.173 1.503 1.503 0 0 1 2.19-.016z" />
    </g>
    <defs>
        <clipPath id="vkl77ajjsa">
            <path d="M0 0h12v14H0z" fill="#fff" transform="translate(14 12)" />
        </clipPath>
    </defs>
</svg>
