<svg fill="none" height="28" viewBox="0 0 28 28" width="28" xmlns="http://www.w3.org/2000/svg">
    <path clip-rule="evenodd" d="M10.423 1.583h4.822c.521-.001 1.311-.003 1.942.418.747.498 1.063 1.4 1.063 2.666v.077c.002.522.003 1.312-.417 1.943-.498.747-1.4 1.063-2.666 1.063h-4.744c-.522.001-1.312.003-1.943-.418-.747-.498-1.063-1.4-1.063-2.665C7.417 3.4 7.733 2.499 8.48 2c.631-.42 1.42-.419 1.943-.418zM9.313 3.25c-.129.085-.396.35-.396 1.418 0 1.067.267 1.332.395 1.417.212.141.54.166 1.188.166h4.667c1.068 0 1.332-.267 1.418-.395.14-.212.165-.54.165-1.188 0-1.068-.267-1.333-.395-1.418-.212-.141-.54-.166-1.188-.166H10.5c-.648 0-.976.025-1.188.166z"
        fill="#475467"
        fill-rule="evenodd" />
    <path clip-rule="evenodd" d="M8.916 4.65a.75.75 0 0 1-.709.789c-1.883.102-3.093.498-3.863 1.332-.778.843-1.26 2.296-1.26 4.896v7c0 2.32.302 3.814 1.126 4.756.803.917 2.271 1.494 5.124 1.494h4.833a.75.75 0 0 1 0 1.5H9.334c-2.982 0-5.013-.59-6.252-2.007-1.218-1.391-1.498-3.397-1.498-5.743v-7c0-2.721.491-4.65 1.658-5.914C4.418 4.481 6.125 4.05 8.126 3.941a.75.75 0 0 1 .79.708zM16.751 4.65a.75.75 0 0 1 .79-.709c2 .108 3.707.536 4.883 1.807 1.168 1.262 1.66 3.193 1.66 5.919a.75.75 0 0 1-1.5 0c0-2.606-.483-4.06-1.261-4.9-.77-.832-1.979-1.226-3.864-1.328a.75.75 0 0 1-.708-.79z"
        fill="#475467"
        fill-rule="evenodd" />
    <g clip-path="url(#70dgzj7mqa)" clip-rule="evenodd" fill="#D61F2C" fill-rule="evenodd"
        stroke="#D61F2C" stroke-linecap="round">
        <path
            d="M18.39 12.612a6.503 6.503 0 0 1 1.22 0 .583.583 0 1 1-.11 1.162 5.328 5.328 0 0 0-1 0 .583.583 0 1 1-.11-1.162zm-1.283.838a.583.583 0 0 1-.288.773c-.305.14-.594.307-.864.5a.583.583 0 0 1-.678-.95c.33-.235.684-.44 1.057-.61a.583.583 0 0 1 .773.287zm3.787 0a.583.583 0 0 1 .773-.288c.372.17.726.376 1.056.611a.583.583 0 1 1-.678.95c-.27-.193-.559-.36-.864-.5a.583.583 0 0 1-.287-.773zm2.52 1.691a.583.583 0 0 1 .813.136c.236.33.44.684.611 1.057a.583.583 0 0 1-1.06.485 5.252 5.252 0 0 0-.5-.864.583.583 0 0 1 .136-.814zm-8.827 0a.583.583 0 0 1 .136.814c-.193.27-.36.56-.5.864a.583.583 0 1 1-1.06-.485c.17-.373.375-.726.61-1.056a.583.583 0 0 1 .814-.137zm-1.34 2.724c.321.03.557.314.527.635a5.326 5.326 0 0 0 0 1 .583.583 0 1 1-1.162.11 6.503 6.503 0 0 1 0-1.22.583.583 0 0 1 .636-.525zm11.506 0c.32-.03.605.205.635.526a6.47 6.47 0 0 1 0 1.219.583.583 0 1 1-1.161-.11 5.328 5.328 0 0 0 0-1 .583.583 0 0 1 .526-.635zM13.45 20.894a.583.583 0 0 1 .773.287c.14.305.307.594.5.864a.583.583 0 0 1-.95.678 6.412 6.412 0 0 1-.61-1.056.583.583 0 0 1 .287-.773zm11.1 0c.293.134.422.48.288.773-.17.372-.375.726-.61 1.056a.583.583 0 1 1-.95-.678c.192-.27.36-.559.5-.864a.583.583 0 0 1 .772-.287zm-9.409 2.52a.583.583 0 0 1 .814-.137c.27.193.56.36.864.5a.583.583 0 1 1-.485 1.061 6.405 6.405 0 0 1-1.056-.61.583.583 0 0 1-.137-.815zm7.718 0a.583.583 0 0 1-.136.813c-.33.236-.684.44-1.056.611a.583.583 0 0 1-.486-1.06c.305-.14.594-.308.864-.5a.583.583 0 0 1 .814.136zm-4.994 1.339a.583.583 0 0 1 .635-.526 5.326 5.326 0 0 0 1 0 .583.583 0 1 1 .11 1.161 6.469 6.469 0 0 1-1.22 0 .583.583 0 0 1-.525-.635z"
            stroke-width=".2" />
        <path
            d="M19 13.75c2.9 0 5.25 2.35 5.25 5.25a.583.583 0 0 0 1.166 0A6.417 6.417 0 0 0 19 12.584a.583.583 0 0 0 0 1.166z"
            stroke-width=".2" />
        <path
            d="M18.733 16.084c.322 0 .584.26.584.583V19h2.333a.583.583 0 1 1 0 1.167h-2.917a.583.583 0 0 1-.583-.584v-2.916c0-.322.261-.584.583-.584z"
            stroke-linejoin="round" stroke-width=".3" />
    </g>
    <defs>
        <clipPath id="70dgzj7mqa">
            <path d="M0 0h14v14H0z" fill="#fff" transform="translate(12 12)" />
        </clipPath>
    </defs>
</svg>