<svg fill="none" height="28" viewBox="0 0 28 28" width="28" xmlns="http://www.w3.org/2000/svg">
    <path clip-rule="evenodd" d="M14 25.667A9.333 9.333 0 1 0 14 7a9.333 9.333 0 0 0 0 18.667zm0-12.834c-.332 0-.553.398-.997 1.193l-.114.206c-.126.226-.19.339-.287.414-.099.074-.221.102-.466.157l-.222.05c-.861.195-1.292.293-1.394.622-.102.33.191.673.778 1.359l.152.177c.167.195.25.293.287.413.038.121.025.251 0 .512l-.023.236c-.089.916-.133 1.374.135 1.577.268.204.671.018 1.477-.353l.209-.096c.229-.105.343-.158.465-.158.121 0 .236.053.465.158l.208.096c.806.371 1.21.557 1.478.353.268-.203.223-.661.134-1.577l-.022-.236c-.026-.26-.038-.39 0-.512.037-.12.12-.218.287-.413l.152-.177c.587-.686.88-1.03.778-1.359-.103-.33-.533-.427-1.394-.621l-.223-.05c-.244-.056-.367-.084-.465-.158-.098-.075-.161-.188-.287-.414l-.115-.206c-.443-.795-.665-1.193-.996-1.193z"
        fill="#FFFFFF"
        fill-rule="evenodd" />
    <path
        d="M12.833 2.334h2.333c2.2 0 3.3 0 3.984.683.674.674.683 1.753.683 3.891A11.032 11.032 0 0 0 14 5.251c-2.14 0-4.14.606-5.834 1.657 0-2.138.01-3.217.684-3.89.683-.684 1.783-.684 3.983-.684z"
        fill="#FFFFFF" />
</svg>
