<svg fill="none" height="22" viewBox="0 0 21 22" width="21" xmlns="http://www.w3.org/2000/svg">
    <path d="M13 5H9C7 5 7 4 7 3c0-2 1-2 2-2h4c1 0 2 0 2 2s-1 2-2 2z" stroke="#344054"
        stroke-linecap="round" stroke-linejoin="round" stroke-miterlimit="10" stroke-width="1.2" />
    <path
        d="M6.857 21H14c5 0 6-2 6-6V9c0-4.56-1.67-5.8-5-5.98M7 3.02C3.67 3.2 2 4.43 2 9v4M15 11h-3.67M15 15.433H8"
        stroke="#344054" stroke-linecap="round" stroke-linejoin="round" stroke-miterlimit="10"
        stroke-width="1.2" />
    <path clip-rule="evenodd" d="M1.107 15.825a.305.305 0 0 0-.094-.226.28.28 0 0 0-.426 0 .317.317 0 0 0-.087.226v4.357c0 .09.029.165.087.226A.282.282 0 0 0 .8 20.5a.282.282 0 0 0 .213-.092.305.305 0 0 0 .094-.226v-4.357zm.727 4.357c0 .09.029.165.087.226a.28.28 0 0 0 .213.092c.084 0 .156-.03.213-.092a.305.305 0 0 0 .094-.226v-1.638h1.38c.29 0 .511.072.662.216a.58.58 0 0 1 .048.05c.076.083.137.172.183.268l.004.01c.034.073.06.151.075.233a2.874 2.874 0 0 1 .059.536 3.935 3.935 0 0 1 .001.113v.212c0 .094.027.172.08.233a.31.31 0 0 0 .227.085c.085 0 .156-.03.213-.092a.317.317 0 0 0 .087-.226v-.325a2.611 2.611 0 0 0-.082-.655 3.07 3.07 0 0 0-.098-.32 1.077 1.077 0 0 0-.188-.342.87.87 0 0 0-.172-.158.965.965 0 0 0-.293-.135c.085-.03.165-.068.238-.11l.004-.003a1.214 1.214 0 0 0 .53-.632 1.41 1.41 0 0 0 .101-.533c0-.428-.151-.775-.453-1.038a1.257 1.257 0 0 0-.067-.055c-.301-.227-.732-.34-1.293-.34H2.134a.275.275 0 0 0-.213.099.31.31 0 0 0-.087.225v4.322zm1.813-2.246c.06 0 .118-.002.173-.005.249-.018.459-.074.63-.17a1.04 1.04 0 0 0 .136-.089.779.779 0 0 0 .206-.235.841.841 0 0 0 .1-.468.762.762 0 0 0-.292-.6c-.18-.143-.485-.218-.913-.226H2.441v1.793h1.206z"
        fill="#D61F2C"
        fill-rule="evenodd" />
</svg>
