<svg height="24" viewBox="0 0 24 24" width="24" xmlns="http://www.w3.org/2000/svg">
    <g id="vuesax_outline_sms-tracking" transform="translate(-620 -252)">
        <g id="sms-tracking">
            <path
                d="M15.75,18.5h-10a.75.75,0,0,1,0-1.5h10C18.61,17,20,15.61,20,12.75v-7c0-2.86-1.39-4.25-4.25-4.25h-10C2.89,1.5,1.5,2.89,1.5,5.75a.755.755,0,0,1-.75.75A.755.755,0,0,1,0,5.75C0,2.1,2.1,0,5.75,0h10C19.4,0,21.5,2.1,21.5,5.75v7C21.5,16.4,19.4,18.5,15.75,18.5Z"
                fill="#0071bb" id="Vector" transform="translate(621.25 254.75)" />
            <path
                d="M5.753,4.626a3.717,3.717,0,0,1-2.34-.79l-3.13-2.5a.747.747,0,0,1,.93-1.17l3.13,2.5a2.386,2.386,0,0,0,2.81,0l3.13-2.5a.738.738,0,0,1,1.05.12.738.738,0,0,1-.12,1.05l-3.13,2.5A3.67,3.67,0,0,1,5.753,4.626Z"
                fill="#0071bb" id="Vector-2" transform="translate(626.247 260.244)" />
            <path
                d="M6.75,1.5h-6A.755.755,0,0,1,0,.75.755.755,0,0,1,.75,0h6A.755.755,0,0,1,7.5.75.755.755,0,0,1,6.75,1.5Z"
                fill="#0071bb" id="Vector-3" transform="translate(621.25 267.75)" />
            <path
                d="M3.75,1.5h-3A.755.755,0,0,1,0,.75.755.755,0,0,1,.75,0h3A.755.755,0,0,1,4.5.75.755.755,0,0,1,3.75,1.5Z"
                fill="#0071bb" id="Vector-4" transform="translate(621.25 263.75)" />
            <path d="M0,0H24V24H0Z" fill="none" id="Vector-5" opacity="0"
                transform="translate(620 252)" />
        </g>
    </g>
</svg>
