<svg fill="none" height="24" viewBox="0 0 24 24" width="24" xmlns="http://www.w3.org/2000/svg">
    <path clip-rule="evenodd"
        d="M12 9.02A2.976 2.976 0 0 0 9.02 12 2.976 2.976 0 0 0 12 14.98 2.976 2.976 0 0 0 14.98 12 2.976 2.976 0 0 0 12 9.02zM7.82 12A4.176 4.176 0 0 1 12 7.82 4.176 4.176 0 0 1 16.18 12 4.176 4.176 0 0 1 12 16.18 4.176 4.176 0 0 1 7.82 12z"
        fill="#475467" fill-rule="evenodd" />
    <path clip-rule="evenodd"
        d="M2.384 9.078C4.755 5.35 8.216 3.12 12 3.12c3.785 0 7.246 2.231 9.616 5.958.526.824.77 1.889.77 2.917 0 1.028-.244 2.093-.77 2.917-2.37 3.727-5.831 5.958-9.616 5.958-3.784 0-7.245-2.231-9.616-5.958-.526-.824-.769-1.889-.769-2.917 0-1.028.243-2.093.77-2.917zM12 4.32c-3.275 0-6.394 1.929-8.604 5.402-.374.586-.58 1.411-.58 2.273 0 .862.206 1.687.58 2.272v.001C5.606 17.741 8.725 19.67 12 19.67c3.276 0 6.395-1.929 8.604-5.402.374-.586.581-1.411.581-2.273 0-.862-.207-1.687-.58-2.272l-.001-.001C18.394 6.249 15.276 4.32 12 4.32z"
        fill="#475467" fill-rule="evenodd" />
</svg>