<svg fill="none" height="20" viewBox="0 0 20 20" width="20" xmlns="http://www.w3.org/2000/svg">
    <path
        d="M17.715 9.028v-.36a7.765 7.765 0 0 0-2.288-5.427A7.697 7.697 0 0 0 10 1a7.697 7.697 0 0 0-5.426 2.241A7.765 7.765 0 0 0 2.286 8.67v.359A2.569 2.569 0 0 0 1 11.25v1.937c0 .685.27 1.342.753 1.827a2.566 2.566 0 0 0 1.819.756h.643a1.28 1.28 0 0 0 1.187-.797c.065-.156.098-.324.098-.494V9.96c0-.342-.135-.67-.376-.912a1.283 1.283 0 0 0-.91-.378h-.642c0-1.713.677-3.355 1.882-4.566A6.414 6.414 0 0 1 10 2.213c1.705 0 3.34.68 4.546 1.891a6.471 6.471 0 0 1 1.883 4.566h-.644c-.34 0-.668.136-.909.378-.24.242-.376.57-.376.913v4.52a1.296 1.296 0 0 0 .793 1.192c.156.065.324.098.492.098h.464a1.283 1.283 0 0 1-1.107.646H13.74a1.936 1.936 0 0 0-.702-.933 1.922 1.922 0 0 0-1.109-.358h-1.285c-.511 0-1.002.204-1.364.568a1.941 1.941 0 0 0 0 2.739c.362.363.853.567 1.364.567h1.285a1.922 1.922 0 0 0 1.11-.358c.323-.23.569-.557.701-.933h1.404a2.56 2.56 0 0 0 1.702-.655c.468-.42.767-.998.84-1.625A2.57 2.57 0 0 0 19 13.19v-1.938a2.583 2.583 0 0 0-1.285-2.223zm-13.5.933v4.52h-.643a1.294 1.294 0 0 1-1.285-1.291V11.25c0-.342.135-.67.376-.912.24-.242.568-.378.909-.378h.643zm7.714 7.748h-1.286a.642.642 0 0 1-.62-.645.647.647 0 0 1 .62-.646h1.285a.642.642 0 0 1 .62.646.647.647 0 0 1-.619.645zm5.786-4.52a1.295 1.295 0 0 1-.794 1.193 1.28 1.28 0 0 1-.492.098h-.644V9.96h.643a1.294 1.294 0 0 1 1.285 1.291l.002 1.938z"
        fill="#1D2939" stroke="#1D2939" stroke-width=".2" />
</svg>
