<svg fill="none" height="54" viewBox="0 0 276 54" width="276" xmlns="http://www.w3.org/2000/svg">
    <path
        d="M67.0027 44.2066C76.5058 44.2066 84.2096 36.5028 84.2096 26.9997C84.2096 17.4966 76.5058 9.79279 67.0027 9.79279C57.4996 9.79279 49.7958 17.4966 49.7958 26.9997C49.7958 36.5028 57.4996 44.2066 67.0027 44.2066Z"
        fill="white" />
    <path
        d="M93.9994 26.9997C93.9994 19.8389 91.1548 12.9714 86.0913 7.90802C81.0279 2.8446 74.1604 0 66.9997 0C59.8389 0 52.9715 2.8446 47.908 7.90802C42.8446 12.9714 40 19.8389 40 26.9997C39.9986 28.3154 40.0948 29.6295 40.2877 30.931C41.2805 37.678 44.7898 43.7994 50.1105 48.0654C55.4312 52.3313 62.1691 54.4257 68.9706 53.9279C75.7721 53.4301 82.1332 50.3769 86.7761 45.3817C91.4189 40.3865 93.9995 33.8194 93.9994 26.9997ZM48.8772 30.931C48.6003 29.6379 48.4613 28.319 48.4627 26.9966C48.4636 25.7365 48.59 24.4797 48.8401 23.2446C49.7901 18.7566 52.3687 14.7794 56.0784 12.0805C59.7881 9.38169 64.3659 8.15247 68.9285 8.63007C73.4911 9.10767 77.7151 11.2582 80.7855 14.6668C83.8559 18.0753 85.555 22.5003 85.555 27.0878C85.555 31.6754 83.8559 36.1003 80.7855 39.5089C77.7151 42.9174 73.4911 45.068 68.9285 45.5456C64.3659 46.0232 59.7881 44.794 56.0784 42.0951C52.3687 39.3963 49.7901 35.4191 48.8401 30.931H48.8772Z"
        fill="#ED2027" />
    <path
        d="M85.7161 26.9935C85.7161 23.2902 84.6179 19.6702 82.5603 16.5912C80.5028 13.5121 77.5784 11.1124 74.1569 9.69552C70.7355 8.27864 66.9707 7.90823 63.3387 8.63114C59.7067 9.35406 56.3707 11.1378 53.7525 13.7568C51.1344 16.3758 49.3517 19.7125 48.63 23.3447C47.9083 26.9769 48.2799 30.7416 49.698 34.1626C51.116 37.5836 53.5166 40.5072 56.5964 42.5637C59.6761 44.6202 63.2965 45.7172 66.9997 45.716C71.9642 45.7144 76.7247 43.7411 80.2346 40.2301C83.7444 36.7191 85.7161 31.9579 85.7161 26.9935ZM54.1139 26.9935C54.1877 23.6256 55.5774 20.4206 57.9853 18.0648C60.3933 15.7091 63.628 14.3899 66.9966 14.3899C70.3653 14.3899 73.6 15.7091 76.0079 18.0648C78.4159 20.4206 79.8056 23.6256 79.8794 26.9935"
        fill="#1ECAD3" />
    <path
        d="M66.8977 35.6696C71.633 35.6696 75.4718 31.8309 75.4718 27.0956C75.4718 22.3602 71.633 18.5215 66.8977 18.5215C62.1624 18.5215 58.3236 22.3602 58.3236 27.0956C58.3236 31.8309 62.1624 35.6696 66.8977 35.6696Z"
        fill="#ED2027" />
    <path
        d="M104.669 0.00322851H123.444C125.612 -0.0113844 127.759 0.419197 129.754 1.26831C131.627 2.05218 133.361 3.13435 134.889 4.47276C136.382 5.81168 137.561 7.46344 138.343 9.31037C139.19 11.2923 139.619 13.4279 139.602 15.5832C139.625 17.604 139.268 19.6111 138.551 21.5003C137.86 23.2775 136.877 24.9271 135.643 26.3812C138.201 29.3213 139.605 33.0902 139.593 36.9874C139.585 39.2647 139.159 41.521 138.334 43.6438C137.579 45.6878 136.402 47.55 134.879 49.1093C133.398 50.5803 131.657 51.7643 129.745 52.6014C127.757 53.4763 125.606 53.9201 123.435 53.9036H104.239C102.719 53.8794 101.257 53.3122 100.119 52.3045C99.5904 51.7693 99.1735 51.1344 98.8926 50.4366C98.6117 49.7389 98.4724 48.9922 98.4827 48.2401V5.57081C98.5006 4.72998 98.7569 3.91153 99.222 3.21077C99.5052 2.66234 99.8749 2.16311 100.317 1.73227C101.195 0.738819 102.42 0.119962 103.741 0.00322851H104.669ZM123.435 21.0363C124.107 21.0503 124.774 20.9263 125.396 20.672C126.018 20.4177 126.581 20.0385 127.051 19.5578C127.545 19.0769 127.935 18.499 128.196 17.8602C128.457 17.2215 128.583 16.5358 128.566 15.8461C128.583 15.179 128.46 14.5159 128.205 13.8992C127.95 13.2824 127.57 12.7256 127.088 12.2643C126.614 11.7896 126.05 11.4142 125.429 11.1604C124.808 10.9065 124.143 10.7791 123.472 10.7858H109.618V21.0611L123.435 21.0363ZM123.435 42.6664C124.106 42.6748 124.772 42.5482 125.393 42.2942C126.014 42.0402 126.578 41.664 127.051 41.1879C127.596 40.5797 128.012 39.8667 128.273 39.0923C128.533 38.318 128.633 37.4986 128.566 36.6843C128.633 35.87 128.533 35.0506 128.273 34.2763C128.012 33.5019 127.596 32.7889 127.051 32.1808C126.577 31.7056 126.013 31.33 125.392 31.0761C124.771 30.8222 124.106 30.6951 123.435 30.7023H109.618V42.688L123.435 42.6664Z"
        fill="#ED2027" />
    <path
        d="M164.523 0.114306C167.172 0.108511 169.797 0.6104 172.256 1.59281C174.663 2.53591 176.864 3.93723 178.736 5.719C180.596 7.5112 182.101 9.63701 183.175 11.9856C184.303 14.4425 184.876 17.1173 184.855 19.8204V48.1749C184.863 48.8773 184.73 49.5741 184.464 50.2244C184.199 50.8746 183.806 51.4651 183.308 51.9608C182.811 52.4799 182.217 52.896 181.56 53.1852C180.902 53.4745 180.194 53.6313 179.476 53.6466C178.03 53.6714 176.63 53.1424 175.563 52.1681C175.032 51.7028 174.612 51.1259 174.33 50.4789C174.049 49.8319 173.914 49.1306 173.936 48.4254V38.5801H155.176V48.1966C155.178 48.9175 155.028 49.6308 154.738 50.2907C154.448 50.9506 154.023 51.5427 153.49 52.0289C152.989 52.5491 152.388 52.9628 151.723 53.245C151.058 53.5272 150.343 53.6722 149.621 53.6713C148.185 53.6788 146.8 53.1365 145.751 52.1557C145.215 51.6986 144.786 51.1292 144.495 50.4877C144.204 49.8462 144.057 49.1485 144.066 48.444V20.4793C144.105 17.7655 144.663 15.0842 145.708 12.5795C146.715 10.166 148.174 7.96676 150.004 6.09946C151.898 4.17768 154.16 2.65724 156.655 1.62892C159.149 0.600596 161.825 0.0854729 164.523 0.114306ZM173.933 20.4855C173.938 19.2112 173.686 17.9489 173.193 16.7737C172.73 15.6592 172.043 14.6517 171.174 13.8136C170.289 12.9651 169.262 12.2793 168.139 11.7877C166.957 11.2831 165.682 11.0313 164.397 11.0484C163.18 11.0533 161.978 11.3047 160.861 11.7877C159.768 12.2336 158.765 12.8751 157.901 13.6806C157.043 14.4869 156.356 15.4578 155.881 16.5356C155.383 17.647 155.131 18.853 155.142 20.071V27.6305H173.933V20.4855Z"
        fill="#ED2027" />
    <path
        d="M209.698 0.377283C212.347 0.371489 214.972 0.873377 217.431 1.85579C219.839 2.7935 222.04 4.19311 223.911 5.97579C225.772 7.76891 227.278 9.89708 228.35 12.2486C229.484 14.7 230.058 17.3733 230.029 20.0741V48.4348C230.039 49.1374 229.908 49.8349 229.642 50.4855C229.376 51.136 228.982 51.7262 228.483 52.2207C227.989 52.7413 227.397 53.1584 226.741 53.4478C226.084 53.7372 225.377 53.8932 224.66 53.9065C223.214 53.9313 221.814 53.4023 220.747 52.428C220.214 51.9637 219.791 51.3875 219.507 50.7404C219.223 50.0934 219.085 49.3916 219.104 48.6853V20.7144C219.105 19.4566 218.853 18.2114 218.365 17.0522C217.902 15.9383 217.214 14.9318 216.345 14.0952C215.464 13.2446 214.436 12.5603 213.311 12.0754C212.163 11.5803 210.927 11.3213 209.676 11.3139C208.426 11.3064 207.187 11.5507 206.033 12.0321C204.943 12.4844 203.941 13.1252 203.073 13.9251C202.213 14.7331 201.525 15.7076 201.053 16.7893C200.554 17.9005 200.302 19.1066 200.314 20.3247V48.4348C200.315 49.1557 200.166 49.869 199.876 50.5289C199.585 51.1889 199.16 51.7809 198.628 52.2671C198.125 52.7843 197.523 53.1955 196.859 53.4765C196.194 53.7575 195.48 53.9026 194.759 53.9034C193.325 53.924 191.938 53.395 190.883 52.4249C190.346 51.9685 189.918 51.399 189.627 50.7572C189.337 50.1155 189.192 49.4174 189.203 48.7132V20.7144C189.242 17.9969 189.802 15.312 190.852 12.8054C192.386 9.07902 195.006 5.90047 198.371 3.68294C201.736 1.46541 205.69 0.311453 209.72 0.371097L209.698 0.377283Z"
        fill="#ED2027" />
    <path
        d="M273.456 44.3179C273.994 44.8335 274.421 45.4538 274.71 46.1406C274.998 46.8274 275.144 47.5661 275.136 48.3111C275.138 49.0687 274.991 49.8194 274.703 50.52C274.415 51.2206 273.991 51.8575 273.456 52.394C272.928 52.9122 272.302 53.3208 271.615 53.5963C270.928 53.8718 270.194 54.0088 269.454 53.9994C267.938 54.0089 266.477 53.4365 265.371 52.4002L245.767 35.0603V48.2678C245.783 49.012 245.645 49.7515 245.363 50.4402C245.08 51.1288 244.659 51.7518 244.124 52.2703C243.034 53.3283 241.575 53.92 240.055 53.92C238.536 53.92 237.077 53.3283 235.986 52.2703C235.443 51.7586 235.012 51.1392 234.722 50.4516C234.432 49.764 234.288 49.0234 234.301 48.2771V5.84597C234.296 5.10716 234.443 4.37523 234.733 3.69571C235.023 3.01618 235.449 2.4036 235.986 1.89608C236.519 1.35899 237.153 0.932704 237.851 0.641794C238.55 0.350885 239.299 0.201111 240.055 0.201111C240.812 0.201111 241.561 0.350885 242.259 0.641794C242.958 0.932704 243.592 1.35899 244.124 1.89608C244.649 2.41197 245.064 3.0281 245.345 3.70775C245.626 4.38741 245.767 5.11669 245.761 5.85215V19.0628L265.371 1.90226C265.908 1.36518 266.546 0.939709 267.248 0.650388C267.951 0.361067 268.703 0.213612 269.463 0.216525C270.209 0.209512 270.949 0.355468 271.637 0.645393C272.325 0.935318 272.946 1.36307 273.462 1.90226C274.004 2.42046 274.434 3.04518 274.723 3.73717C275.012 4.42917 275.154 5.17347 275.142 5.92329C275.149 6.66957 275.003 7.40939 274.715 8.09756C274.426 8.78573 274 9.4078 273.462 9.92577L253.759 27.0832L273.456 44.3179Z"
        fill="#ED2027" />
    <path
        d="M36.1258 0.00621682C36.8855 -0.0108909 37.6404 0.129509 38.3431 0.418572C39.0458 0.707634 39.681 1.13909 40.2087 1.68577C40.7377 2.21676 41.155 2.8483 41.4361 3.54315C41.7171 4.23801 41.8561 4.9821 41.845 5.73154C41.8665 6.48144 41.7322 7.22765 41.4506 7.92298C41.1689 8.61831 40.7461 9.24763 40.2087 9.77113C39.6696 10.297 39.0304 10.7094 38.3292 10.9841C37.6279 11.2587 36.8787 11.3901 36.1258 11.3703H26.7259V48.0854C26.7464 48.8383 26.6154 49.5877 26.3407 50.2891C26.066 50.9905 25.6532 51.6295 25.1268 52.1683C24.0438 53.2174 22.595 53.8041 21.0872 53.8041C19.5793 53.8041 18.1306 53.2174 17.0476 52.1683C16.5162 51.6318 16.0982 50.9938 15.8187 50.2923C15.5392 49.5909 15.4038 48.8403 15.4206 48.0854V11.3641H5.90932C5.17045 11.3793 4.43608 11.2456 3.75002 10.9709C3.06395 10.6961 2.44023 10.286 1.91613 9.76495C1.37659 9.24278 0.951867 8.61384 0.669068 7.9183C0.386269 7.22275 0.251614 6.47587 0.273699 5.72536C0.262128 4.97531 0.401582 4.2306 0.683747 3.53555C0.965911 2.8405 1.38501 2.20932 1.91613 1.67958C2.42947 1.13922 3.04953 0.711445 3.73694 0.423383C4.42435 0.13532 5.16411 -0.00673868 5.90932 0.00621682H36.1258Z"
        fill="#ED2027" />
</svg>
