<svg fill="none" height="104" viewBox="0 0 104 104" width="104" xmlns="http://www.w3.org/2000/svg">
    <path d="M52 104c28.719 0 52-23.281 52-52S80.719 0 52 0 0 23.281 0 52s23.281 52 52 52z"
        fill="#F9FAFB" />
    <path d="M52 95c23.748 0 43-19.252 43-43S75.748 9 52 9 9 28.252 9 52s19.252 43 43 43z"
        fill="#EAECF0" />
    <path d="M52 87c19.33 0 35-15.67 35-35S71.33 17 52 17 17 32.67 17 52s15.67 35 35 35z"
        fill="#FAFCFC" />
    <path
        d="M63.25 35.977a.914.914 0 0 1-.469-.128 22.51 22.51 0 0 0-11.34-2.998 22.503 22.503 0 0 0-11.343 3.003.99.99 0 0 1-1.148-.088 1.057 1.057 0 0 1-.26-.324 1.103 1.103 0 0 1 .114-1.197c.088-.109.196-.199.317-.264 3.777-2.132 8.001-3.25 12.294-3.254a25.024 25.024 0 0 1 12.298 3.234c.2.113.357.292.448.509.092.216.113.459.06.689-.054.23-.178.435-.355.584a1.004 1.004 0 0 1-.62.238l.003-.004zM34.117 47.145a1.028 1.028 0 0 1-.59-.191 1.042 1.042 0 0 1-.278-.302 1.089 1.089 0 0 1-.133-.81c.03-.138.087-.267.166-.382 1.965-2.933 4.585-5.32 7.634-6.956A22.68 22.68 0 0 1 51.41 35.91a22.676 22.676 0 0 1 10.497 2.574 21.428 21.428 0 0 1 7.634 6.913c.156.232.218.519.172.798-.046.28-.196.529-.418.692a.988.988 0 0 1-.764.18 1.019 1.019 0 0 1-.662-.436 19.384 19.384 0 0 0-6.901-6.255 20.699 20.699 0 0 0-9.57-2.342 20.7 20.7 0 0 0-9.567 2.363 19.593 19.593 0 0 0-6.921 6.297.905.905 0 0 1-.339.337.856.856 0 0 1-.455.11l.003.004zM46.842 72.82a.92.92 0 0 1-.389-.08.956.956 0 0 1-.324-.239 21.436 21.436 0 0 1-4.092-5.615 19.574 19.574 0 0 1-2.137-9.233c.08-3.114 1.337-6.068 3.496-8.217 2.16-2.148 5.045-3.315 8.026-3.245 2.98-.07 5.866 1.097 8.026 3.245 2.16 2.149 3.416 5.103 3.496 8.217 0 .282-.107.553-.298.752-.19.2-.45.312-.72.312a.997.997 0 0 1-.72-.312c-.19-.199-.298-.47-.298-.752-.078-2.55-1.12-4.966-2.898-6.716s-4.147-2.693-6.59-2.622c-2.44-.07-4.81.872-6.588 2.622-1.778 1.75-2.82 4.165-2.898 6.716a17.271 17.271 0 0 0 1.893 8.188 20.068 20.068 0 0 0 3.76 5.148c.187.203.291.474.291.756 0 .281-.104.552-.29.755-.202.2-.468.314-.746.32zm14.597-3.93a10.62 10.62 0 0 1-6.311-1.893 11.159 11.159 0 0 1-3.536-4.039 11.728 11.728 0 0 1-1.31-5.3c0-.281.107-.552.298-.752.191-.199.45-.311.72-.311.27 0 .53.112.72.312.191.199.298.47.298.752a9.472 9.472 0 0 0 1.067 4.303 9.01 9.01 0 0 0 2.882 3.27 8.644 8.644 0 0 0 5.17 1.51c.711-.012 1.42-.083 2.119-.212a.99.99 0 0 1 .746.194c.215.164.36.409.405.683.046.274-.013.556-.164.785-.15.23-.38.389-.642.443-.812.162-1.636.247-2.463.256v-.001zm-4.092 4.382a1.14 1.14 0 0 1-.265-.043c-2.873-.724-5.496-2.27-7.573-4.467a15.58 15.58 0 0 1-3.281-5.089 16.13 16.13 0 0 1-1.137-6.02 6.55 6.55 0 0 1 1.897-4.48A5.996 5.996 0 0 1 51.36 51.4a5.996 5.996 0 0 1 4.371 1.774 6.55 6.55 0 0 1 1.898 4.48 4.518 4.518 0 0 0 1.34 2.934 4.147 4.147 0 0 0 2.894 1.19 4.147 4.147 0 0 0 2.894-1.19 4.518 4.518 0 0 0 1.34-2.934c0-8.02-6.616-14.529-14.759-14.529a14.383 14.383 0 0 0-7.905 2.27c-2.38 1.515-4.303 3.7-5.55 6.303a14.21 14.21 0 0 0-1.202 5.956 21.981 21.981 0 0 0 1.367 7.675 1.08 1.08 0 0 1-.018.811 1.037 1.037 0 0 1-.233.336.988.988 0 0 1-.34.214.97.97 0 0 1-.773-.026 1.012 1.012 0 0 1-.32-.24 1.063 1.063 0 0 1-.209-.35 24.646 24.646 0 0 1-1.489-8.42 16.594 16.594 0 0 1 1.385-6.893c1.413-2.965 3.596-5.456 6.3-7.186a16.352 16.352 0 0 1 8.988-2.6c9.263 0 16.795 7.468 16.795 16.657a6.69 6.69 0 0 1-1.945 4.418 6.135 6.135 0 0 1-4.323 1.803 6.135 6.135 0 0 1-4.322-1.803 6.689 6.689 0 0 1-1.946-4.418 4.37 4.37 0 0 0-1.301-2.977 4 4 0 0 0-2.934-1.149 4 4 0 0 0-2.933 1.148 4.37 4.37 0 0 0-1.301 2.978c-.008 1.784.324 3.551.978 5.198a13.445 13.445 0 0 0 2.83 4.396 13.703 13.703 0 0 0 6.656 3.93.993.993 0 0 1 .355.183c.105.085.193.19.26.311a1.088 1.088 0 0 1 .098.804c-.05.227-.171.43-.345.577a.968.968 0 0 1-.612.23l-.001.012z"
        fill="#D61F2C" />
</svg>
