<svg width="56" height="56" viewBox="0 0 56 56" fill="none" xmlns="http://www.w3.org/2000/svg">
    <rect x=".5" y=".5" width="55" height="55" rx="27.5" fill="#039855" fill-opacity=".12"/>
    <rect x=".5" y=".5" width="55" height="55" rx="27.5" stroke="#fff"/>
    <rect x="5" y="5" width="46" height="46" rx="23" fill="#039855" fill-opacity=".2"/>
    <rect x="16" y="16" width="24" height="24" rx="12" fill="#fff"/>
    <path fill-rule="evenodd" clip-rule="evenodd" d="M41.335 28c0 7.364-5.97 13.334-13.334 13.334S14.668 35.364 14.668 28c0-7.363 5.97-13.333 13.333-13.333 7.364 0 13.334 5.97 13.334 13.333zm-7.96-4.04a1 1 0 0 1 0 1.414l-6.667 6.667a1 1 0 0 1-1.414 0l-2.666-2.667a1 1 0 0 1 1.414-1.414l1.96 1.96 2.98-2.98 2.979-2.98a1 1 0 0 1 1.414 0z" fill="#12B76A"/>
</svg>
