<svg fill="none" height="40" viewBox="0 0 42 40" width="42" xmlns="http://www.w3.org/2000/svg">
    <path
        d="M15.953 31.966h2.87c.33-.002.659.062.963.188.287.117.551.278.785.477.228.2.408.445.528.72.13.295.195.613.192.934.004.3-.05.6-.16.88a2.54 2.54 0 0 1-.445.727c.391.437.605.998.604 1.578a2.699 2.699 0 0 1-.193.99 2.305 2.305 0 0 1-.528.814 2.59 2.59 0 0 1-.784.52c-.304.13-.633.196-.964.194h-2.934a.988.988 0 0 1-.63-.238.844.844 0 0 1-.25-.605v-6.35a.648.648 0 0 1 .114-.352.853.853 0 0 1 .167-.22.798.798 0 0 1 .523-.257h.142zm2.868 3.13a.767.767 0 0 0 .552-.22.745.745 0 0 0 .232-.552.697.697 0 0 0-.226-.533.77.77 0 0 0-.553-.22H16.71V35.1l2.112-.004zm0 3.22a.784.784 0 0 0 .552-.22.888.888 0 0 0 .232-.67.871.871 0 0 0-.232-.671.77.77 0 0 0-.552-.22h-2.112v1.784l2.112-.004zM25.095 31.985c.405-.001.806.073 1.181.22.368.14.704.349.99.614.285.266.515.583.679.932.172.366.26.764.256 1.166v4.22a.764.764 0 0 1-.236.564.835.835 0 0 1-.585.25.878.878 0 0 1-.598-.22.714.714 0 0 1-.249-.556v-1.466h-2.867v1.432a.752.752 0 0 1-.257.57.82.82 0 0 1-.591.245.872.872 0 0 1-.592-.226.716.716 0 0 1-.257-.552v-4.162a3.057 3.057 0 0 1 1.924-2.806c.38-.153.79-.23 1.202-.226zm1.438 3.031c0-.19-.038-.377-.113-.552a1.312 1.312 0 0 0-.309-.44 1.597 1.597 0 0 0-.464-.302 1.441 1.441 0 0 0-.572-.11c-.185 0-.37.038-.54.11a1.49 1.49 0 0 0-.452.282c-.131.12-.236.264-.309.425a1.23 1.23 0 0 0-.113.526v1.125h2.872v-1.064zM31.999 32.024c.405-.001.806.073 1.182.22.367.14.704.348.99.613.284.267.514.584.678.934.173.364.26.762.257 1.164v4.221a.76.76 0 0 1-.237.564.826.826 0 0 1-.584.25.878.878 0 0 1-.598-.22.715.715 0 0 1-.25-.557V35.05c0-.187-.04-.372-.114-.545a1.308 1.308 0 0 0-.308-.44 1.556 1.556 0 0 0-.464-.3 1.458 1.458 0 0 0-1.112-.007c-.167.068-.32.163-.452.282a1.298 1.298 0 0 0-.422.953v4.183a.753.753 0 0 1-.258.57.826.826 0 0 1-.59.244.87.87 0 0 1-.593-.22.712.712 0 0 1-.257-.552V35.05c.006-.404.092-.803.252-1.177a3.008 3.008 0 0 1 1.15-1.357 3.128 3.128 0 0 1 1.733-.493H32zM41.741 38.56a.81.81 0 0 1 .19.922.856.856 0 0 1-.19.28.86.86 0 0 1-.612.238.918.918 0 0 1-.623-.238l-2.996-2.58v1.965a.788.788 0 0 1-.251.596.906.906 0 0 1-1.243 0 .8.8 0 0 1-.258-.595v-6.315a.784.784 0 0 1 .258-.588.876.876 0 0 1 .621-.252.896.896 0 0 1 .622.252.816.816 0 0 1 .25.59V34.8l2.996-2.554a.883.883 0 0 1 .626-.25.853.853 0 0 1 .61.25.81.81 0 0 1 .258.599.8.8 0 0 1-.257.596l-3.01 2.553 3.009 2.565zM5.479 31.966a.862.862 0 0 1 .811.526.817.817 0 0 1 .063.326.789.789 0 0 1-.25.601.864.864 0 0 1-.624.238H4.042v5.465a.818.818 0 0 1-.244.607.9.9 0 0 1-1.235 0 .835.835 0 0 1-.248-.607v-5.466H.86a.86.86 0 0 1-.61-.238.803.803 0 0 1-.25-.6.813.813 0 0 1 .25-.603.824.824 0 0 1 .61-.249H5.48zM6.117 35.99c0 .79.24 1.563.691 2.22a4.082 4.082 0 0 0 1.842 1.474c.75.303 1.575.382 2.372.228a4.139 4.139 0 0 0 2.101-1.094 3.966 3.966 0 0 0 1.124-2.047 3.902 3.902 0 0 0-.233-2.31 4.022 4.022 0 0 0-1.512-1.794 4.182 4.182 0 0 0-2.28-.674 4.16 4.16 0 0 0-2.902 1.17 3.946 3.946 0 0 0-1.203 2.826zm4.105-2.004c.532.019 1.035.238 1.405.612.37.373.575.871.575 1.39 0 .519-.206 1.017-.575 1.39-.37.374-.873.593-1.405.613v-4.005z"
        fill="#ED2027" />
    <path
        d="M10.223 38.324a2.426 2.426 0 0 0 1.672-.695c.442-.436.69-1.025.69-1.638s-.248-1.202-.69-1.638a2.427 2.427 0 0 0-1.672-.695"
        fill="#1ECAD3" />
    <path
        d="M20.97 22.897c4.92 0 8.907-3.99 8.907-8.912 0-4.922-3.988-8.913-8.907-8.913-4.92 0-8.907 3.99-8.907 8.913 0 4.922 3.987 8.912 8.907 8.912z"
        fill="#fff" />
    <path
        d="M34.942 13.985a13.99 13.99 0 0 0-4.094-9.889 13.973 13.973 0 0 0-19.766 0 13.989 13.989 0 0 0 1.14 20.8 13.971 13.971 0 0 0 18.98-1.39 13.99 13.99 0 0 0 3.74-9.521zM11.584 16.02a9.825 9.825 0 0 1-.02-3.981 9.603 9.603 0 0 1 16.537-4.443 9.616 9.616 0 0 1-6.137 15.994 9.603 9.603 0 0 1-10.4-7.57h.02z"
        fill="#ED2027" />
    <path
        d="M30.65 13.982a9.702 9.702 0 0 0-5.984-8.96 9.687 9.687 0 0 0-10.563 2.104 9.7 9.7 0 0 0 6.858 16.553 9.69 9.69 0 0 0 6.851-2.841 9.7 9.7 0 0 0 2.838-6.856zm-16.36 0a6.676 6.676 0 0 1 6.67-6.528 6.668 6.668 0 0 1 6.668 6.528"
        fill="#1ECAD3" />
    <path
        d="M20.911 18.477a4.44 4.44 0 0 0 4.439-4.441 4.44 4.44 0 0 0-4.439-4.441 4.44 4.44 0 0 0-4.438 4.44 4.44 4.44 0 0 0 4.438 4.442z"
        fill="#ED2027" />
</svg>
