<svg fill="none" height="24" viewBox="0 0 24 24" width="24" xmlns="http://www.w3.org/2000/svg">
    <path d="M16 2v3M8 2v3" stroke="#D0D5DD" stroke-linecap="round" stroke-linejoin="round"
        stroke-miterlimit="10" stroke-width="1.5" />
    <path clip-rule="evenodd"
        d="M3 9.65c0-4.7 1.67-5.97 5-6.15h8c3.33.19 5 1.45 5 6.15v6.18c0 4.12-1 6.18-6 6.18H9c-5 0-6-2.06-6-6.18V9.65zM17.75 13a.75.75 0 0 0-.75-.75H9a.75.75 0 0 0 0 1.5h8a.75.75 0 0 0 .75-.75zm0 4a.75.75 0 0 0-.75-.75h-5a.75.75 0 0 0 0 1.5h5a.75.75 0 0 0 .75-.75z"
        fill="#D0D5DD" fill-rule="evenodd" />
</svg>
