<svg height="40" viewBox="0 0 40 40" width="40" xmlns="http://www.w3.org/2000/svg">
    <g>
        <g style="stroke:#c8c8c8;fill:none">
            <circle style="stroke:none" cx="20" cy="20" r="20" />
            <circle style="fill:none" cx="20" cy="20" r="19.5" />
        </g>
        <path style="fill:#1ecad3"
            d="M18 2a16 16 0 1 0 16 16A16.018 16.018 0 0 0 18 2zm1.6 25.6h-3.2v-3.2h3.2zm1.562-7.816a11.084 11.084 0 0 0-.856.734 2.2 2.2 0 0 0-.706 1.269V22h-3.2v-.267a5.215 5.215 0 0 1 1.642-3.478c.312-.312.7-.629 1.106-.958 1.174-.952 1.946-1.646 1.946-2.6a3.094 3.094 0 0 0-6.187 0h-3.2a6.294 6.294 0 1 1 12.589 0c0 2.555-1.886 4.08-3.133 5.09z"
            transform="translate(2 2)" />
    </g>
</svg>
