<svg fill="none" height="22" viewBox="0 0 22 22" width="22" xmlns="http://www.w3.org/2000/svg">
    <path d="M16.45 19.39a2.787 2.787 0 0 1 3.609-4.2" stroke="#D61F2C" stroke-linecap="round"
        stroke-linejoin="round" />
    <path
        d="M14.77 20.259a4.646 4.646 0 0 1 2.899-7.332 4.643 4.643 0 0 1 3.04.481M12.911 20.82a6.455 6.455 0 0 1-.83-4.32M7.503 16.5c0 .92 1.08 1.69 2.56 1.93v.05c.109.875.359 1.726.74 2.52M7.503 16.5h4.569M1.154 12.75h4.849"
        stroke="#475467" stroke-linecap="round" stroke-linejoin="round" />
    <path d="M5.423 2.7a2.784 2.784 0 0 1-3.54 4.2" stroke="#D61F2C" stroke-linecap="round"
        stroke-linejoin="round" />
    <path
        d="M7.083 1.8a4.655 4.655 0 0 1-2.82 7.24 4.722 4.722 0 0 1-2.979-.36M8.912 1.219a6.41 6.41 0 0 1 .81 4.28M14.302 5.5c0-.92-1.08-1.69-2.56-1.93v-.06a8.158 8.158 0 0 0-.74-2.51M14.301 5.5H9.732M6.003 12.75l2.1-3.5H12l-2.1 3.5h4l2.1-3.5h4.848M7.082 1.799a9.687 9.687 0 0 1 1.83-.58"
        stroke="#475467" stroke-linecap="round" stroke-linejoin="round" />
    <path d="M1.884 6.9a10.053 10.053 0 0 1 3.54-4.2" stroke="#D61F2C" stroke-linecap="round"
        stroke-linejoin="round" />
    <path
        d="M10.802 21a9.995 9.995 0 0 1-4.29-1.07 9.832 9.832 0 0 1-3.418-2.82 9.96 9.96 0 0 1-1.82-8.43M14.771 20.27c-.602.239-1.225.422-1.86.549"
        stroke="#475467" stroke-linecap="round" stroke-linejoin="round" />
    <path d="M20.08 15.2a10.092 10.092 0 0 1-3.63 4.19z" fill="#D61F2C" />
    <path d="M20.08 15.2a10.092 10.092 0 0 1-3.63 4.19" stroke="#D61F2C" stroke-linecap="round"
        stroke-linejoin="round" />
    <path d="M11.002 1a10.008 10.008 0 0 1 9.776 7.915 10.015 10.015 0 0 1-.069 4.495"
        stroke="#475467" stroke-linecap="round" stroke-linejoin="round" />
</svg>
