<svg height="48" viewBox="0 0 48 48" width="48" xmlns="http://www.w3.org/2000/svg">
    <g>
        <path style="opacity:.4;fill:#fff" d="M40 20A20 20 0 1 1 20 0a20 20 0 0 1 20 20z"
            transform="translate(4 4)" />
        <g>
            <path style="fill:#fff"
                d="M1.5 11.58a1.511 1.511 0 0 1-1.5-1.5V1.5A1.511 1.511 0 0 1 1.5 0 1.511 1.511 0 0 1 3 1.5v8.58a1.5 1.5 0 0 1-1.5 1.5z"
                transform="translate(10.5 18.2)" />
        </g>
        <g>
            <path style="fill:#fff"
                d="M1.5 17.28a1.511 1.511 0 0 1-1.5-1.5V1.5A1.511 1.511 0 0 1 1.5 0 1.511 1.511 0 0 1 3 1.5v14.28a1.5 1.5 0 0 1-1.5 1.5z"
                transform="translate(16.5 15.36)" />
        </g>
        <g>
            <path style="fill:#fff"
                d="M1.5 23A1.511 1.511 0 0 1 0 21.5v-20A1.511 1.511 0 0 1 1.5 0 1.511 1.511 0 0 1 3 1.5v20A1.511 1.511 0 0 1 1.5 23z"
                transform="translate(22.5 12.5)" />
        </g>
        <g>
            <path style="fill:#fff"
                d="M1.5 17.28a1.511 1.511 0 0 1-1.5-1.5V1.5A1.511 1.511 0 0 1 1.5 0 1.511 1.511 0 0 1 3 1.5v14.28a1.5 1.5 0 0 1-1.5 1.5z"
                transform="translate(28.5 15.36)" />
        </g>
        <g>
            <path style="fill:#fff"
                d="M1.5 11.58a1.511 1.511 0 0 1-1.5-1.5V1.5A1.511 1.511 0 0 1 1.5 0 1.511 1.511 0 0 1 3 1.5v8.58a1.5 1.5 0 0 1-1.5 1.5z"
                transform="translate(34.5 18.2)" />
        </g>
    </g>
</svg>
