<svg fill="none" height="22" viewBox="0 0 22 22" width="22" xmlns="http://www.w3.org/2000/svg">
    <path
        d="M20.548 8.027a10 10 0 1 1-19.1.01M16.189 2.45a10.016 10.016 0 0 1 3.2 3.11M7.708 1.547c2.133-.73 4.447-.73 6.58 0M2.608 5.56a10.12 10.12 0 0 1 3.2-3.11"
        stroke="#D7DDE6" stroke-linecap="round" stroke-linejoin="round" />
    <path
        d="M3.599 13.626c.04-.01.12-.03.21-.05 4.2-1.1 5.16-5 8.49-5.9a5.652 5.652 0 0 1 2.83 0 5.182 5.182 0 0 0 .95 2.95 4.752 4.752 0 0 0 2.52 1.81"
        stroke="#D61F2C" stroke-linecap="round" stroke-linejoin="round" />
    <path d="M5.379 16.209a29.344 29.344 0 0 0 7.39-5.58c.171.48.39.942.65 1.38a8 8 0 0 0 3.8 3.26"
        stroke="#D7DDE6" stroke-linecap="round" stroke-linejoin="round" />
    <path d="M8.509 18.119a35.39 35.39 0 0 0 3.71-2.99c.78.832 1.619 1.607 2.51 2.32"
        stroke="#D7DDE6" stroke-linecap="round" stroke-linejoin="round" />
    <path
        d="M3.599 13.627a8.24 8.24 0 0 0 2.18 2.95 7.8 7.8 0 0 0 4 1.841l.09.01a7.78 7.78 0 0 0 3.96-.51 8.067 8.067 0 0 0 2.85-2l.06-.07a8.5 8.5 0 0 0 1.86-3.41"
        stroke="#D7DDE6" stroke-linecap="round" stroke-linejoin="round" />
</svg>
