<svg fill="none" height="48" viewBox="0 0 48 48" width="48" xmlns="http://www.w3.org/2000/svg">
    <circle cx="24" cy="24" fill="#F66" r="22" stroke="#FFD6D6" stroke-width="4"
        transform="rotate(-180 24 24)" />
    <path
        d="M24 33.56c-5.272 0-9.556-4.284-9.556-9.555s4.284-9.556 9.555-9.556 9.556 4.285 9.556 9.556c0 5.27-4.285 9.555-9.556 9.555zm0-17.777c-4.534 0-8.223 3.688-8.223 8.222 0 4.533 3.69 8.222 8.222 8.222 4.534 0 8.223-3.689 8.223-8.222 0-4.534-3.69-8.222-8.223-8.222z"
        fill="#fff" />
    <path
        d="M24 25.559a.671.671 0 0 1-.667-.667v-4.444c0-.364.302-.667.667-.667.364 0 .666.303.666.667v4.444a.671.671 0 0 1-.666.667zM24 28.45a.885.885 0 0 1-.338-.072 1.026 1.026 0 0 1-.293-.187.916.916 0 0 1-.187-.293.884.884 0 0 1-.071-.338c0-.115.026-.23.071-.338.044-.106.107-.204.187-.293.088-.08.186-.142.293-.187a.89.89 0 0 1 .675 0c.107.045.205.107.294.187.08.089.142.187.186.293a.884.884 0 0 1 .072.338.884.884 0 0 1-.072.338.916.916 0 0 1-.186.293c-.089.08-.187.143-.294.187a.886.886 0 0 1-.337.071z"
        fill="#fff" />
</svg>
