<svg fill="none" height="24" viewBox="0 0 24 24" width="24" xmlns="http://www.w3.org/2000/svg">
    <path d="M12.999 9h-6" stroke="#D61F2C" stroke-linecap="round" stroke-linejoin="round"
        stroke-width="1.2" />
    <path
        d="M22 10.971v2.06c0 .55-.44 1-1 1.02h-1.96c-1.08 0-2.07-.79-2.16-1.87-.06-.63.18-1.22.6-1.63.37-.38.88-.6 1.44-.6H21c.56.02 1 .47 1 1.02z"
        stroke="#475467" stroke-linecap="round" stroke-linejoin="round" stroke-width="1.2" />
    <path
        d="M17.48 10.548c-.42.41-.66 1-.6 1.63.09 1.08 1.08 1.87 2.16 1.87H21v1.45c0 3-2 5-5 5H7c-3 0-5-2-5-5v-7c0-2.72 1.64-4.62 4.19-4.94.26-.04.53-.06.81-.06h9c.26 0 .51.01.75.05 2.58.3 4.25 2.21 4.25 4.95v1.45h-2.08c-.56 0-1.07.22-1.44.6z"
        stroke="#475467" stroke-linecap="round" stroke-linejoin="round" stroke-width="1.2" />
</svg>
