<svg xmlns="http://www.w3.org/2000/svg" width="16" height="16" viewBox="0 0 16 16">
    <path fill="#6ED413" d="M8 0c4.418 0 8 3.582 8 8s-3.582 8-8 8-8-3.582-8-8 3.582-8 8-8zm.03 12l.045-.004-.057.003.056-.002.07-.01.04-.009.048-.013.054-.019.056-.025.031-.016.06-.037.024-.018.035-.028.04-.038 3.293-3.368c.257-.263.227-.662-.066-.891-.267-.21-.66-.206-.922-.007l-.074.066L8.705 9.69V4.632C8.706 4.282 8.39 4 8 4c-.357 0-.653.238-.7.546l-.006.086V9.69L5.237 7.584c-.233-.239-.623-.282-.912-.116l-.084.057c-.267.209-.315.557-.13.816l.064.075 3.294 3.368.07.062.005.004.028.02c.018.013.037.025.057.036.014.008.027.015.041.021.017.008.035.016.053.022l.043.016.059.015.038.008c.02.004.042.007.064.009l.05.003h.053z"/>
</svg>
