<svg fill="none" height="244" viewBox="0 0 272 244" width="272" xmlns="http://www.w3.org/2000/svg">
    <path
        d="M136.144 24.331L134.031 23.0814C133.689 22.8805 133.491 22.5022 133.529 22.1109C133.569 21.6971 133.593 21.2834 133.597 20.872C133.602 20.4795 133.841 20.1272 134.2 19.9641L136.431 18.9486C136.871 18.7489 137.111 18.2736 137.011 17.8043L136.603 15.8928C136.502 15.4235 136.088 15.0854 135.604 15.0783L133.142 15.044C132.744 15.0381 132.382 14.8076 132.217 14.4482C132.046 14.077 131.858 13.7117 131.657 13.3559C131.462 13.0107 131.486 12.5863 131.716 12.2636L133.139 10.2717C133.419 9.8804 133.387 9.34844 133.065 8.99143L131.748 7.53739C131.425 7.18038 130.896 7.0929 130.473 7.32697L128.33 8.51621C127.983 8.7089 127.555 8.68762 127.23 8.45947C126.895 8.22422 126.549 8.00079 126.191 7.79155C125.848 7.58941 125.654 7.20875 125.691 6.8151L125.919 4.38579C125.964 3.9082 125.668 3.46253 125.209 3.31358L123.337 2.70714C122.878 2.55819 122.375 2.74497 122.128 3.15754L120.872 5.25349C120.669 5.59158 120.289 5.789 119.894 5.74999C119.477 5.70979 119.061 5.68615 118.646 5.68024C118.25 5.67433 117.895 5.43908 117.73 5.08207L116.704 2.86673C116.502 2.43052 116.022 2.19055 115.549 2.28985L113.623 2.69296C113.149 2.79226 112.809 3.20364 112.803 3.68241L112.772 6.12473C112.767 6.5172 112.538 6.87657 112.178 7.03971C111.8 7.21112 111.429 7.3979 111.067 7.60004C110.722 7.79155 110.294 7.76436 109.971 7.53621L107.962 6.12236C107.568 5.84456 107.032 5.87529 106.673 6.19566L105.21 7.50074C104.85 7.82111 104.762 8.34598 105 8.76564L106.2 10.8935C106.395 11.2375 106.374 11.6631 106.144 11.9846C105.906 12.3168 105.682 12.6608 105.472 13.0143C105.269 13.3547 104.885 13.5474 104.488 13.5096L102.039 13.2814C101.558 13.2365 101.11 13.5285 100.96 13.9848L100.351 15.8408C100.201 16.2971 100.39 16.796 100.805 17.0407L102.919 18.2902C103.26 18.4923 103.459 18.8694 103.421 19.2607C103.381 19.6745 103.357 20.0882 103.352 20.4984C103.348 20.8909 103.109 21.2432 102.75 21.4063L100.518 22.4218C100.079 22.6216 99.8383 23.0968 99.9386 23.5661L100.347 25.4776C100.448 25.9469 100.862 26.285 101.346 26.2921L103.807 26.3264C104.203 26.3323 104.565 26.5593 104.729 26.9163C104.903 27.2922 105.092 27.6599 105.295 28.0192C105.488 28.3621 105.461 28.7865 105.232 29.1056L103.809 31.0964C103.529 31.4877 103.561 32.0196 103.884 32.3766L105.2 33.8295C105.524 34.1865 106.053 34.274 106.476 34.0399L108.619 32.8507C108.966 32.658 109.393 32.6793 109.718 32.9074C110.053 33.1427 110.399 33.3661 110.757 33.5753C111.101 33.7775 111.294 34.1581 111.258 34.5518L111.03 36.9811C110.985 37.4587 111.28 37.9044 111.74 38.0533L113.611 38.6597C114.07 38.8087 114.573 38.6219 114.82 38.2093L116.077 36.1134C116.28 35.7753 116.66 35.5779 117.054 35.6169C117.471 35.6571 117.888 35.6807 118.302 35.6866C118.698 35.6926 119.053 35.9278 119.219 36.2848L120.245 38.5002C120.447 38.9364 120.926 39.1763 121.4 39.077L123.326 38.6739C123.799 38.5746 124.139 38.1632 124.145 37.6845L124.177 35.2422C124.182 34.8473 124.414 34.4891 124.777 34.3248C125.151 34.1546 125.518 33.9702 125.877 33.7704C126.224 33.5777 126.653 33.6013 126.978 33.8307L128.986 35.2445C129.381 35.5223 129.917 35.4916 130.276 35.1712L131.739 33.8661C132.099 33.5458 132.186 33.0209 131.949 32.6012L130.748 30.4734C130.553 30.1294 130.575 29.7038 130.805 29.3823C131.042 29.0501 131.266 28.7061 131.477 28.3526C131.68 28.0122 132.064 27.8195 132.46 27.8573L134.909 28.0854C135.391 28.1304 135.84 27.8384 135.988 27.3821L136.598 25.5261C136.748 25.0698 136.559 24.5721 136.143 24.3262L136.144 24.331ZM117.99 29.0584C113.329 28.7876 109.768 24.8204 110.036 20.1958C110.304 15.5724 114.298 12.0437 118.959 12.3144C123.62 12.5852 127.181 16.5524 126.913 21.177C126.645 25.8004 122.65 29.3291 117.99 29.0584Z"
        fill="#E42F35" />
    <path
        d="M121.18 39.3641C120.683 39.3641 120.223 39.0792 120.007 38.6135L118.982 36.3981C118.858 36.1298 118.589 35.9548 118.299 35.9501C117.878 35.9442 117.451 35.9205 117.029 35.8791C116.739 35.852 116.452 35.9962 116.3 36.2503L115.042 38.3463C114.73 38.8652 114.108 39.0981 113.53 38.9102L111.658 38.3037C111.078 38.1158 110.712 37.5637 110.769 36.9596L110.997 34.5303C111.024 34.2371 110.877 33.9523 110.624 33.8021C110.26 33.5882 109.904 33.36 109.567 33.1224C109.326 32.9522 109.002 32.9356 108.743 33.0798L106.599 34.2691C106.068 34.5634 105.414 34.4558 105.006 34.0054L103.69 32.5514C103.281 32.0998 103.242 31.439 103.597 30.9449L105.019 28.9541C105.191 28.7153 105.21 28.3985 105.068 28.1467C104.862 27.785 104.67 27.4079 104.493 27.0237C104.371 26.7613 104.101 26.5887 103.802 26.5839L101.341 26.5497C100.732 26.5414 100.218 26.1217 100.092 25.5295L99.6834 23.6179C99.5559 23.0245 99.8558 22.4346 100.41 22.1816L102.641 21.1662C102.911 21.0432 103.088 20.7784 103.091 20.4912C103.097 20.0739 103.121 19.6507 103.161 19.231C103.189 18.9437 103.042 18.6612 102.785 18.5099L100.672 17.2604C100.147 16.9506 99.9125 16.3312 100.101 15.7543L100.711 13.8972C100.9 13.3214 101.458 12.9609 102.062 13.0165L104.511 13.2458C104.809 13.273 105.096 13.1276 105.247 12.8758C105.46 12.5176 105.69 12.1653 105.931 11.8272C106.1 11.5896 106.116 11.2716 105.972 11.0151L104.772 8.88722C104.473 8.35762 104.581 7.70507 105.036 7.2996L106.5 5.99451C106.952 5.5914 107.616 5.55357 108.112 5.90348L110.121 7.31733C110.364 7.48874 110.686 7.50765 110.94 7.3658C111.305 7.16365 111.685 6.97096 112.07 6.796C112.335 6.67661 112.508 6.40826 112.512 6.11509L112.544 3.67277C112.552 3.06633 112.973 2.55565 113.57 2.43152L115.496 2.02841C116.091 1.9031 116.685 2.201 116.94 2.7507L117.966 4.96604C118.09 5.23439 118.358 5.40935 118.649 5.41407C119.07 5.41999 119.497 5.44363 119.919 5.485C120.207 5.51337 120.496 5.36679 120.649 5.11381L121.905 3.01905C122.217 2.4989 122.839 2.2672 123.418 2.45516L125.289 3.0616C125.869 3.24957 126.235 3.80163 126.178 4.4057L125.95 6.83501C125.923 7.12819 126.07 7.41427 126.323 7.56322C126.687 7.77718 127.044 8.00534 127.38 8.24295C127.621 8.41318 127.946 8.42973 128.205 8.28551L130.348 7.09627C130.879 6.80191 131.534 6.90949 131.941 7.35989L133.257 8.81393C133.666 9.2655 133.705 9.92632 133.35 10.4205L131.928 12.4124C131.756 12.6512 131.739 12.9703 131.883 13.2245C132.087 13.5862 132.278 13.9598 132.452 14.3357C132.575 14.6017 132.846 14.7767 133.144 14.7802L135.606 14.8145C136.215 14.8228 136.729 15.2424 136.855 15.8347L137.264 17.7462C137.391 18.3397 137.091 18.9295 136.537 19.1825L134.306 20.198C134.036 20.3209 133.859 20.5857 133.856 20.873C133.85 21.2903 133.826 21.7135 133.786 22.1332C133.758 22.4204 133.905 22.703 134.162 22.8543L136.275 24.1038C136.8 24.4135 137.035 25.033 136.846 25.6099L136.236 27.467C136.047 28.0427 135.49 28.4044 134.885 28.3477L132.437 28.1184C132.138 28.0912 131.851 28.2366 131.7 28.4884C131.485 28.8501 131.255 29.2024 131.016 29.5369C130.847 29.7745 130.831 30.0925 130.975 30.3491L132.176 32.4769C132.474 33.0065 132.366 33.6591 131.911 34.0646L130.448 35.3696C129.996 35.7728 129.332 35.8106 128.835 35.4607L126.827 34.0468C126.584 33.8754 126.26 33.8577 126.001 34.0007C125.636 34.204 125.26 34.3932 124.882 34.5646C124.614 34.6864 124.439 34.9547 124.434 35.2479L124.402 37.6902C124.394 38.2966 123.973 38.8073 123.376 38.9314L121.45 39.3346C121.359 39.3535 121.268 39.3629 121.179 39.3629L121.18 39.3641ZM116.957 35.3566C116.998 35.3566 117.039 35.359 117.079 35.3626C117.486 35.4016 117.9 35.4252 118.306 35.4311C118.796 35.4382 119.247 35.7314 119.455 36.1806L120.48 38.3959C120.632 38.7246 120.987 38.9019 121.345 38.8274L123.271 38.4243C123.628 38.3498 123.879 38.046 123.884 37.6855L123.916 35.2432C123.922 34.749 124.218 34.2974 124.668 34.0929C125.033 33.9274 125.397 33.7442 125.75 33.548C126.181 33.3092 126.721 33.3375 127.126 33.6224L129.135 35.0363C129.434 35.2467 129.832 35.2242 130.102 34.9819L131.565 33.6768C131.835 33.4368 131.899 33.0491 131.722 32.7346L130.521 30.6068C130.278 30.1753 130.306 29.6374 130.592 29.2367C130.822 28.9139 131.044 28.5735 131.252 28.2248C131.505 27.8004 131.989 27.558 132.484 27.6029L134.933 27.8323C135.296 27.8689 135.628 27.6502 135.742 27.3074L136.351 25.4514C136.463 25.1086 136.324 24.741 136.011 24.5566L133.897 23.307C133.469 23.0529 133.222 22.5741 133.269 22.0871C133.308 21.6828 133.332 21.2726 133.336 20.8706C133.343 20.3824 133.639 19.9344 134.091 19.7287L136.323 18.7132C136.653 18.5631 136.831 18.212 136.756 17.8597L136.347 15.9482C136.272 15.5947 135.964 15.3441 135.599 15.3394L133.137 15.3051C132.641 15.298 132.186 15.0048 131.98 14.558C131.812 14.1951 131.626 13.8333 131.429 13.4846C131.186 13.0543 131.216 12.5164 131.504 12.1133L132.927 10.1214C133.137 9.82821 133.113 9.43573 132.87 9.16857L131.553 7.71453C131.309 7.445 130.916 7.37998 130.598 7.5573L128.455 8.74654C128.023 8.98652 127.482 8.95815 127.079 8.67443C126.753 8.4451 126.41 8.22403 126.058 8.01716C125.63 7.76654 125.384 7.28541 125.43 6.79127L125.658 4.36197C125.692 4.00377 125.473 3.67396 125.126 3.56165L123.255 2.95521C122.906 2.84291 122.534 2.98122 122.349 3.29212L121.093 5.38689C120.838 5.81246 120.357 6.05953 119.867 6.00869C119.458 5.96968 119.046 5.94604 118.64 5.94013C118.15 5.93304 117.699 5.63986 117.491 5.19065L116.465 2.97531C116.313 2.64667 115.957 2.46935 115.599 2.54382L113.674 2.94694C113.317 3.02141 113.065 3.32522 113.061 3.68578L113.029 6.12691C113.023 6.62223 112.729 7.07262 112.281 7.27595C111.908 7.445 111.541 7.6306 111.189 7.82565C110.762 8.06444 110.222 8.03253 109.818 7.74763L107.81 6.33378C107.511 6.12336 107.113 6.14582 106.843 6.38816L105.378 7.69325C105.109 7.93323 105.044 8.32097 105.221 8.63542L106.422 10.7621C106.666 11.1936 106.637 11.7315 106.351 12.1334C106.119 12.4597 105.897 12.8001 105.691 13.1453C105.439 13.5697 104.953 13.812 104.46 13.7671L102.011 13.5378C101.646 13.5 101.315 13.7198 101.202 14.0627L100.593 15.9186C100.48 16.2603 100.62 16.6291 100.933 16.8135L103.046 18.063C103.475 18.3172 103.722 18.796 103.675 19.283C103.636 19.6873 103.612 20.0975 103.607 20.4994C103.6 20.9877 103.304 21.4357 102.853 21.6414L100.621 22.6569C100.29 22.807 100.112 23.1581 100.188 23.5104L100.596 25.4219C100.672 25.7754 100.98 26.0248 101.345 26.0307L103.806 26.065C104.303 26.0721 104.756 26.3629 104.96 26.8062C105.132 27.1762 105.318 27.5415 105.517 27.8902C105.757 28.317 105.728 28.8537 105.439 29.2568L104.016 31.2475C103.806 31.5407 103.829 31.9331 104.072 32.2003L105.389 33.6544C105.633 33.9239 106.027 33.9889 106.344 33.8116L108.487 32.6223C108.92 32.3824 109.46 32.4107 109.863 32.6944C110.189 32.9238 110.533 33.1448 110.885 33.3517C111.312 33.6023 111.559 34.0835 111.513 34.5776L111.285 37.0069C111.251 37.3651 111.469 37.6949 111.816 37.8072L113.688 38.4137C114.036 38.526 114.408 38.3877 114.593 38.0768L115.851 35.9808C116.085 35.5907 116.509 35.3531 116.955 35.3531L116.957 35.3566ZM118.489 29.3324C118.318 29.3324 118.146 29.3277 117.974 29.3171C113.178 29.0381 109.499 24.9396 109.776 20.1803C110.052 15.4209 114.179 11.7728 118.974 12.053C123.771 12.332 127.448 16.4305 127.172 21.1898C126.907 25.7789 123.062 29.3312 118.489 29.3312V29.3324ZM118.005 28.7981C122.511 29.0582 126.394 25.6335 126.654 21.1614C126.913 16.6882 123.455 12.8368 118.945 12.5743C114.438 12.3131 110.555 15.7389 110.295 20.211C110.037 24.6842 113.494 28.5357 118.005 28.7981Z"
        fill="black" />
    <path
        d="M96.9627 36.5211L95.4631 35.6344C95.221 35.4914 95.0805 35.2231 95.1065 34.9453C95.1348 34.6521 95.1514 34.3589 95.1549 34.0669C95.1584 33.7891 95.3273 33.5385 95.5823 33.4227L97.1658 32.7027C97.4775 32.5609 97.6487 32.224 97.5767 31.8906L97.2874 30.5347C97.2166 30.2013 96.9225 29.9613 96.5789 29.9566L94.8325 29.933C94.5503 29.9294 94.2941 29.7651 94.176 29.5098C94.0544 29.2461 93.9221 28.9872 93.7793 28.7343C93.6411 28.4896 93.6576 28.1881 93.8218 27.96L94.8314 26.5473C95.0297 26.2695 95.0073 25.8924 94.7782 25.6394L93.8442 24.6086C93.6151 24.3556 93.2396 24.2929 92.9397 24.4596L91.4188 25.3037C91.1732 25.4408 90.8686 25.4254 90.6383 25.2635C90.401 25.0968 90.1542 24.9384 89.9015 24.7894C89.6583 24.6464 89.5201 24.3757 89.5461 24.0967L89.7079 22.3731C89.7397 22.0339 89.5307 21.7182 89.2048 21.613L87.8764 21.1827C87.5505 21.0775 87.1939 21.2099 87.018 21.5019L86.1265 22.989C85.9824 23.229 85.7132 23.3685 85.4322 23.3413C85.1358 23.3129 84.8406 23.2964 84.5466 23.2917C84.2655 23.2881 84.014 23.1203 83.8971 22.8673L83.1698 21.2962C83.0269 20.9865 82.6868 20.8174 82.3503 20.8872L80.9841 21.1733C80.6487 21.243 80.4067 21.535 80.402 21.8755L80.3795 23.6073C80.376 23.8863 80.213 24.1404 79.958 24.2563C79.6899 24.3781 79.4266 24.5105 79.1692 24.6535C78.9248 24.7894 78.6213 24.7693 78.3922 24.6086L76.967 23.6049C76.6872 23.4075 76.3069 23.4288 76.0519 23.6569L75.014 24.5826C74.7589 24.8095 74.6963 25.1819 74.864 25.4798L75.7154 26.9894C75.8535 27.2341 75.8382 27.5356 75.6752 27.7637C75.5075 27.999 75.3481 28.2437 75.1982 28.4943C75.0541 28.7354 74.7813 28.8726 74.5003 28.8466L72.7634 28.6846C72.4221 28.6527 72.1033 28.8596 71.997 29.1835L71.5648 30.5004C71.4586 30.8243 71.5932 31.1778 71.8872 31.3515L73.3868 32.2381C73.6289 32.3812 73.7694 32.6495 73.7434 32.9273C73.7151 33.2205 73.6986 33.5137 73.695 33.8057C73.6915 34.0835 73.5226 34.3341 73.2676 34.4499L71.6841 35.1699C71.3724 35.3117 71.2012 35.6486 71.2732 35.982L71.5625 37.3379C71.6333 37.6713 71.9273 37.9113 72.271 37.916L74.0174 37.9408C74.2984 37.9444 74.5546 38.1063 74.6715 38.3593C74.7943 38.6253 74.9278 38.8865 75.073 39.1419C75.2111 39.3854 75.1911 39.6857 75.0281 39.9126L74.0185 41.3253C73.8202 41.6031 73.8426 41.9802 74.0717 42.2332L75.0057 43.264C75.2348 43.517 75.6103 43.5796 75.9102 43.413L77.4311 42.5689C77.6767 42.4318 77.9813 42.4472 78.2116 42.6091C78.4489 42.7758 78.6957 42.9342 78.9484 43.0831C79.1916 43.2262 79.3298 43.4969 79.3038 43.7759L79.142 45.4995C79.1102 45.8387 79.3192 46.1544 79.6451 46.2596L80.9735 46.6899C81.2994 46.7951 81.656 46.6627 81.8319 46.3707L82.7234 44.8836C82.8675 44.6436 83.1367 44.5041 83.4177 44.5313C83.7141 44.5596 84.0093 44.5762 84.3033 44.5809C84.5844 44.5845 84.8359 44.7523 84.9528 45.0053L85.6801 46.5764C85.823 46.8861 86.1631 47.0563 86.4996 46.9854L87.8658 46.6993C88.2012 46.6296 88.4432 46.3376 88.4479 45.9971L88.4704 44.2641C88.4739 43.9839 88.6392 43.7298 88.8955 43.6139C89.1611 43.4934 89.4209 43.3621 89.676 43.2203C89.9228 43.0831 90.2262 43.1009 90.4565 43.2628L91.8817 44.2665C92.1616 44.4639 92.5418 44.4426 92.7968 44.2145L93.8348 43.2888C94.0898 43.0619 94.1524 42.6895 93.9847 42.3916L93.1334 40.882C92.9952 40.6373 93.0106 40.3358 93.1735 40.1077C93.3424 39.8724 93.5006 39.6277 93.6506 39.3771C93.7946 39.136 94.0674 38.9988 94.3484 39.0248L96.0854 39.1868C96.4266 39.2187 96.7454 39.0118 96.8517 38.6879L97.2839 37.371C97.3902 37.0471 97.2555 36.6937 96.9615 36.5199L96.9627 36.5211ZM84.0825 39.8748C80.7763 39.6833 78.2494 36.8674 78.4395 33.5882C78.6296 30.3077 81.4635 27.8039 84.7709 27.9966C88.0772 28.1881 90.6041 31.004 90.414 34.2833C90.2239 37.5637 87.3899 40.0675 84.0825 39.8748Z"
        fill="#E42F35" />
    <path
        d="M86.3457 47.262C85.9643 47.262 85.6112 47.0433 85.4459 46.6863L84.7185 45.1153C84.643 44.9509 84.4788 44.8446 84.3005 44.841C84.003 44.8375 83.6971 44.8197 83.3937 44.7902C83.2165 44.7736 83.0406 44.8623 82.9473 45.0171L82.0558 46.5043C81.8161 46.9038 81.3379 47.0812 80.8951 46.937L79.5679 46.5067C79.1227 46.3624 78.8417 45.938 78.8854 45.4746L79.0471 43.7511C79.0637 43.5726 78.9739 43.3976 78.8192 43.3066C78.5595 43.1541 78.3056 42.9909 78.0635 42.8207C77.9159 42.7167 77.7176 42.7072 77.5593 42.7947L76.0396 43.6388C75.6323 43.8646 75.1292 43.7818 74.8163 43.4366L73.8823 42.4058C73.5682 42.0594 73.5387 41.5511 73.8103 41.1716L74.8199 39.759C74.9238 39.6136 74.9356 39.4209 74.8494 39.2672C74.7006 39.0048 74.5624 38.7352 74.4385 38.4657C74.3652 38.3061 74.1988 38.2009 74.0169 38.1985L72.2705 38.1737C71.8029 38.1678 71.4085 37.8451 71.3117 37.3899L71.0224 36.034C70.9244 35.5777 71.1547 35.1238 71.5809 34.9311L73.1644 34.2112C73.3297 34.1367 73.4371 33.9747 73.4395 33.8009C73.443 33.5054 73.4596 33.2028 73.4891 32.9002C73.5056 32.7252 73.4159 32.5538 73.26 32.4604L71.7604 31.5738C71.3578 31.335 71.1771 30.8598 71.3223 30.4165L71.7545 29.0996C71.8997 28.6586 72.3201 28.382 72.7912 28.4222L74.5282 28.5841C74.7065 28.6019 74.8872 28.5132 74.9793 28.3583C75.1304 28.1042 75.2945 27.8524 75.4681 27.6101C75.572 27.4646 75.5815 27.2708 75.4929 27.1147L74.6416 25.6051C74.4125 25.1985 74.4963 24.6961 74.8447 24.3852L75.8826 23.4595C76.2297 23.1498 76.7387 23.1203 77.1201 23.3898L78.5453 24.3923C78.6941 24.4975 78.8913 24.5093 79.0459 24.423C79.3069 24.2776 79.5785 24.1405 79.8536 24.0163C80.0142 23.943 80.1205 23.7799 80.1228 23.6014L80.1453 21.8696C80.1512 21.4038 80.4759 21.0113 80.934 20.9156L82.3002 20.6295C82.756 20.5325 83.213 20.7619 83.409 21.1839L84.1364 22.755C84.212 22.9193 84.3761 23.0257 84.5544 23.0281C84.8567 23.0328 85.1613 23.0493 85.4613 23.0789C85.636 23.0943 85.8143 23.0068 85.9064 22.8507L86.7979 21.3648C87.0364 20.9652 87.5147 20.7879 87.9586 20.9321L89.287 21.3624C89.7322 21.5066 90.0132 21.931 89.9695 22.3944L89.8078 24.118C89.7912 24.2965 89.881 24.4715 90.0357 24.5625C90.2931 24.7138 90.5481 24.8769 90.7902 25.0483C90.9378 25.1524 91.1362 25.163 91.2956 25.0743L92.8165 24.2303C93.2238 24.0045 93.7269 24.0873 94.0398 24.4324L94.9738 25.4633C95.2879 25.8096 95.3174 26.3168 95.0458 26.6974L94.0362 28.1101C93.9323 28.2555 93.9217 28.4506 94.0091 28.6054C94.1555 28.8643 94.2925 29.1315 94.4164 29.3998C94.492 29.5618 94.6585 29.6693 94.8403 29.6717L96.5868 29.6954C97.0544 29.7024 97.4487 30.024 97.5456 30.4791L97.8349 31.835C97.9329 32.2913 97.7026 32.7453 97.2763 32.9392L95.6929 33.6591C95.5288 33.7336 95.4201 33.8955 95.4178 34.0705C95.4142 34.3684 95.3965 34.671 95.3682 34.9713C95.3516 35.145 95.4414 35.3176 95.5972 35.411L97.0969 36.2965C97.4995 36.5352 97.6802 37.0105 97.5349 37.4538L97.1028 38.7707C96.9575 39.2116 96.536 39.4894 96.066 39.4481L94.3291 39.2861C94.146 39.2684 93.9701 39.3582 93.878 39.5119C93.7233 39.7708 93.5592 40.0226 93.3891 40.2614C93.2864 40.4056 93.2758 40.5995 93.3643 40.7567L94.2157 42.2651C94.4448 42.6718 94.3621 43.173 94.0126 43.4851L92.9747 44.4107C92.6275 44.7204 92.1186 44.75 91.7372 44.4816L90.312 43.478C90.1632 43.3728 89.9648 43.3621 89.8066 43.4496C89.5445 43.595 89.2764 43.7298 89.0072 43.8527C88.8431 43.9272 88.7368 44.0903 88.7344 44.2688L88.712 46.0019C88.7061 46.4676 88.3814 46.8601 87.9232 46.9559L86.557 47.2419C86.4874 47.2561 86.4177 47.2632 86.3492 47.2632L86.3457 47.262ZM83.35 44.2677C83.3807 44.2677 83.4126 44.2688 83.4433 44.2724C83.7325 44.2996 84.023 44.3161 84.3076 44.3197C84.6843 44.3256 85.0303 44.5514 85.1897 44.8954L85.917 46.4665C86.0103 46.6674 86.2276 46.775 86.4472 46.7301L87.8134 46.444C88.0318 46.3979 88.1854 46.2135 88.1877 45.9936L88.2101 44.2606C88.2149 43.8811 88.4416 43.5336 88.7887 43.3763C89.045 43.2605 89.3012 43.1304 89.5504 42.9921C89.881 42.8077 90.2954 42.8302 90.6072 43.0489L92.0324 44.0525C92.2154 44.1814 92.4587 44.1672 92.6252 44.0194L93.6631 43.0938C93.8272 42.9472 93.8674 42.7108 93.7587 42.5193L92.9074 41.0097C92.7208 40.6775 92.7421 40.2649 92.9617 39.9552C93.1235 39.7282 93.2805 39.4883 93.4269 39.2424C93.6206 38.9173 93.9914 38.7305 94.3728 38.7648L96.1097 38.9267C96.3364 38.9504 96.536 38.8156 96.6045 38.6064L97.0366 37.2895C97.1051 37.0814 97.0201 36.8568 96.8288 36.7433L95.3292 35.8567C94.9998 35.6616 94.8108 35.2928 94.8463 34.9181C94.8746 34.6332 94.89 34.3447 94.8935 34.061C94.8982 33.6851 95.1261 33.3411 95.4733 33.1827L97.0567 32.4628C97.2586 32.3706 97.3673 32.1566 97.3212 31.9414L97.0319 30.5855C96.9859 30.3692 96.7969 30.2167 96.5738 30.2131L94.8274 30.1895C94.446 30.1848 94.0976 29.959 93.9382 29.6162C93.8201 29.3608 93.6903 29.1066 93.5509 28.8608C93.3644 28.5298 93.3868 28.116 93.6076 27.8063L94.6172 26.3936C94.7447 26.2151 94.7305 25.9751 94.5829 25.812L93.6489 24.7812C93.5025 24.6192 93.2557 24.5778 93.0633 24.6842L91.5424 25.5283C91.2118 25.7127 90.7961 25.6902 90.4867 25.4727C90.2553 25.3108 90.0132 25.1547 89.7676 25.0105C89.4394 24.8178 89.2493 24.4478 89.2847 24.0683L89.4465 22.3448C89.4665 22.1261 89.3343 21.9251 89.1217 21.8565L87.7933 21.4262C87.5796 21.3565 87.3517 21.4416 87.2383 21.6319L86.3469 23.1191C86.1508 23.4454 85.7812 23.6345 85.4046 23.5967C85.1188 23.5695 84.8283 23.5529 84.5402 23.5482C84.1635 23.5435 83.8176 23.3177 83.6582 22.9725L82.9308 21.4014C82.8375 21.2005 82.6202 21.0929 82.4006 21.1378L81.0344 21.4239C80.816 21.4688 80.6625 21.6556 80.6601 21.8755L80.6377 23.6073C80.6329 23.988 80.4074 24.3343 80.0638 24.4904C79.8017 24.6086 79.5431 24.7398 79.2939 24.8781C78.9657 25.0602 78.5524 25.0377 78.2406 24.819L76.8154 23.8165C76.6359 23.6889 76.3868 23.7042 76.2227 23.8496L75.1847 24.7753C75.0206 24.9219 74.9804 25.1583 75.0891 25.3498L75.9404 26.8594C76.127 27.1904 76.1057 27.6041 75.8849 27.9139C75.7208 28.1444 75.5638 28.3844 75.4197 28.6267C75.2249 28.953 74.8553 29.1386 74.4739 29.1043L72.7369 28.9423C72.5149 28.9199 72.3107 29.0535 72.2422 29.2627L71.81 30.5796C71.7415 30.7888 71.8265 31.0123 72.0178 31.1258L73.5174 32.0124C73.8469 32.2074 74.037 32.5762 74.0004 32.951C73.972 33.2382 73.9567 33.5267 73.9531 33.808C73.9484 34.184 73.7205 34.528 73.3734 34.6864L71.7911 35.4063C71.5892 35.4985 71.4806 35.7125 71.5254 35.9264L71.8147 37.2824C71.8608 37.4987 72.0497 37.6512 72.2729 37.6536L74.0193 37.6784C74.4007 37.6831 74.749 37.9077 74.9061 38.2482C75.0241 38.5047 75.1564 38.7624 75.2981 39.0118C75.4835 39.3405 75.4599 39.7531 75.2379 40.0628L74.2283 41.4754C74.1008 41.6539 74.1149 41.8939 74.2625 42.0571L75.1965 43.0879C75.3441 43.2498 75.5897 43.2912 75.7822 43.1848L77.3019 42.3408C77.6337 42.1575 78.0482 42.1788 78.3575 42.3963C78.5878 42.5583 78.8299 42.7131 79.0766 42.8585C79.4049 43.0512 79.595 43.4212 79.5596 43.8007L79.3978 45.5243C79.3778 45.743 79.5112 45.9439 79.7225 46.0125L81.0509 46.4428C81.2635 46.5114 81.4914 46.4263 81.6059 46.2371L82.4974 44.75C82.6769 44.4509 83.0028 44.2677 83.3464 44.2677H83.35ZM84.441 40.1455C84.3171 40.1455 84.1919 40.142 84.0667 40.1349C80.6223 39.9351 77.9809 36.9916 78.1792 33.5728C78.2749 31.9166 79.0153 30.3976 80.2634 29.2946C81.5115 28.1928 83.1185 27.6384 84.7846 27.7365C86.4531 27.8335 87.9834 28.5688 89.0957 29.8077C90.2081 31.0477 90.7678 32.6424 90.6721 34.2986C90.5765 35.9548 89.8361 37.4751 88.588 38.5768C87.4344 39.5958 85.9737 40.1455 84.441 40.1455ZM84.4115 28.246C83.0052 28.246 81.6661 28.7508 80.6081 29.6847C79.4651 30.6943 78.7862 32.0857 78.6988 33.6023C78.517 36.7339 80.9388 39.4315 84.0974 39.6147C85.6277 39.7034 87.1002 39.1963 88.2444 38.1855C89.3874 37.176 90.0664 35.7846 90.1538 34.2679C90.2411 32.7512 89.7287 31.2913 88.7096 30.1552C87.6894 29.0192 86.2854 28.3442 84.7551 28.2555C84.6406 28.2484 84.5261 28.246 84.4115 28.246V28.246Z"
        fill="black" />
    <g clip-path="url(#clip0_1069_22535)">
        <path
            d="M197.353 175.115L154.979 175.381C154.704 175.381 154.614 175.637 154.614 175.883V211.976C154.614 215.431 130.538 224.41 130.304 223.953L130.274 227.773C130.273 228.485 130.897 229.115 131.694 229.115H167.763C169.411 229.115 171.039 228.745 172.532 228.119L192.066 219.884C195.582 218.402 197.801 215.219 197.801 211.745V175.615C197.801 175.371 197.629 175.114 197.355 175.114L197.353 175.115Z"
            fill="#CFCFD0" />
        <path
            d="M150.323 173.279V209.381C150.323 212.939 148.036 216.182 144.442 217.719L131.264 223.349C130.403 223.717 130.696 224.872 131.651 224.872H167.857C169.485 224.872 171.093 224.55 172.566 223.93L187.166 217.775C190.788 216.249 193.098 212.994 193.098 209.416V173.279C193.098 173.132 192.963 173.012 192.798 173.012H150.624C150.459 173.012 150.324 173.132 150.324 173.279H150.323Z"
            fill="white" />
        <path
            d="M167.856 225.131H131.65C130.988 225.131 130.602 224.696 130.513 224.264C130.414 223.781 130.675 223.316 131.161 223.108L144.339 217.478C147.817 215.992 150.064 212.813 150.064 209.38V173.278C150.064 172.988 150.315 172.75 150.623 172.75H192.797C193.105 172.75 193.356 172.986 193.356 173.278V209.415C193.356 213.079 190.965 216.454 187.266 218.014L172.665 224.169C171.17 224.799 169.508 225.132 167.856 225.132V225.131ZM150.583 173.284V209.38C150.583 213.022 148.212 216.389 144.543 217.956L131.366 223.587C131.101 223.7 130.972 223.914 131.023 224.159C131.069 224.384 131.281 224.61 131.65 224.61H167.856C169.439 224.61 171.032 224.29 172.463 223.687L187.064 217.533C190.571 216.056 192.837 212.868 192.837 209.414V173.277C192.837 173.284 192.823 173.27 192.797 173.27H150.623C150.601 173.27 150.588 173.278 150.583 173.283V173.284Z"
            fill="black" />
        <path
            d="M71.3877 193.735L245.626 194.116L248.651 194.123L254.276 194.135C255.875 194.135 257.188 192.885 257.391 191.294L271.96 77.3127C272.314 74.5394 270.295 71.9209 267.508 71.9209L86.9861 72.0852L71.3889 193.735H71.3877Z"
            fill="#CFCFD0" />
        <path
            d="M260.735 71.895C263.877 71.895 266.432 75.0632 266.029 78.1911L251.357 191.299C251.153 192.889 249.803 194.08 248.205 194.08L246.83 194.132L68.9702 194.08C67.0538 194.08 65.5731 192.39 65.8187 190.483L80.7877 75.0738C80.992 73.4838 82.2141 71.895 83.8117 71.895H260.735V71.895Z"
            fill="white" />
        <path
            d="M246.84 194.393L68.9715 194.341C67.9855 194.341 67.0456 193.915 66.3926 193.173C65.7384 192.428 65.435 191.435 65.5613 190.449L80.5303 75.0396C80.7452 73.3656 82.0323 71.6338 83.8118 71.6338H260.734C262.234 71.6338 263.715 72.3383 264.796 73.5678C265.937 74.867 266.495 76.6071 266.287 78.2231L251.614 191.332C251.393 193.047 249.928 194.341 248.205 194.341L246.84 194.393ZM83.813 72.1551C82.3381 72.1551 81.2294 73.6872 81.0475 75.1069L66.0785 190.516C65.9711 191.353 66.2285 192.196 66.7846 192.829C67.3384 193.459 68.1355 193.82 68.9727 193.82L246.832 193.874L248.197 193.822C249.67 193.822 250.913 192.723 251.101 191.267L265.773 78.1581C265.962 76.6886 265.451 75.1022 264.407 73.913C263.426 72.7958 262.088 72.1551 260.736 72.1551H83.813V72.1551Z"
            fill="black" />
        <path
            d="M252.705 77.6994C255.58 77.6994 257.917 80.5295 257.55 83.3229L244.127 184.347C243.94 185.768 242.705 186.83 241.243 186.83L239.984 186.878L77.2663 186.83C75.5128 186.83 74.1584 185.321 74.3828 183.617L88.0777 80.5378C88.2643 79.1168 89.3825 77.6982 90.8443 77.6982H252.706L252.705 77.6994Z"
            fill="white" />
        <path
            d="M239.994 187.138L77.2664 187.091C76.343 187.091 75.4669 186.697 74.8647 186.009C74.2802 185.341 74.0109 184.456 74.1255 183.583L87.8204 80.5033C88.0188 78.9972 89.2043 77.438 90.8444 77.438H252.705C254.11 77.438 255.488 78.0905 256.486 79.2289C257.516 80.4052 257.998 81.9089 257.807 83.3558L244.384 184.38C244.181 185.925 242.83 187.09 241.243 187.09L239.995 187.136L239.994 187.138ZM90.8433 77.9593C89.5066 77.9593 88.5006 79.3152 88.3341 80.5719L74.6391 183.651C74.5435 184.376 74.7678 185.11 75.2531 185.665C75.7573 186.24 76.4894 186.57 77.2641 186.57L239.982 186.617L241.23 186.571C242.567 186.571 243.696 185.601 243.866 184.313L257.29 83.2896C257.461 81.9928 257.025 80.6381 256.093 79.5753C255.194 78.5492 253.959 77.9617 252.703 77.9617H90.8433V77.9593Z"
            fill="black" />
        <path
            d="M218.74 175.331L110.438 173.418C110.053 173.411 109.794 173.122 109.834 172.744L121.949 60.4402C121.998 59.9886 122.448 59.5973 122.907 59.6056L231.209 61.5183C231.594 61.5254 231.852 61.8138 231.812 62.1921L219.697 174.496C219.649 174.948 219.199 175.339 218.74 175.331V175.331Z"
            fill="white" />
        <path
            d="M218.754 175.59H218.735L110.433 173.678C110.171 173.673 109.938 173.57 109.778 173.388C109.62 173.208 109.549 172.97 109.576 172.716L121.691 60.4117C121.755 59.823 122.314 59.3347 122.912 59.3454L231.214 61.2581C231.476 61.2628 231.709 61.3657 231.868 61.5477C232.026 61.7274 232.098 61.9662 232.07 62.2204L219.955 174.524C219.892 175.107 219.344 175.59 218.753 175.59H218.754ZM122.894 59.8667C122.574 59.8667 122.242 60.1563 122.209 60.4684L110.094 172.772C110.083 172.881 110.109 172.976 110.17 173.045C110.233 173.116 110.329 173.156 110.444 173.158L218.746 175.07C219.071 175.064 219.406 174.783 219.44 174.469L231.555 62.1648C231.567 62.056 231.541 61.9615 231.48 61.8929C231.417 61.822 231.32 61.7818 231.206 61.7806L122.904 59.8679H122.894V59.8667Z"
            fill="black" />
        <path
            d="M212.111 127.64H212.107L130.822 126.205C130.748 126.204 130.68 126.172 130.631 126.117C130.583 126.062 130.561 125.989 130.568 125.917L130.946 122.419C130.96 122.285 131.065 122.178 131.209 122.186L212.494 123.621C212.567 123.622 212.636 123.654 212.684 123.71C212.733 123.764 212.755 123.837 212.748 123.91L212.371 127.408C212.357 127.54 212.245 127.64 212.113 127.64H212.111ZM131.114 125.69L211.878 127.116L212.199 124.138L131.436 122.711L131.114 125.689V125.69Z"
            fill="black" />
        <path
            d="M190.138 134.152H190.133L130.078 133.091C130.005 133.09 129.937 133.058 129.888 133.003C129.84 132.948 129.817 132.875 129.825 132.803L130.202 129.305C130.217 129.17 130.328 129.068 130.466 129.072L190.52 130.132C190.593 130.133 190.662 130.165 190.71 130.221C190.759 130.275 190.781 130.349 190.774 130.421L190.396 133.919C190.382 134.051 190.27 134.152 190.138 134.152ZM130.371 132.576L189.904 133.627L190.225 130.649L130.692 129.598L130.371 132.576Z"
            fill="black" />
        <path
            d="M210.102 146.271H210.097L128.812 144.836C128.739 144.835 128.67 144.803 128.622 144.747C128.573 144.693 128.551 144.619 128.558 144.547L128.936 141.049C128.95 140.916 129.054 140.816 129.199 140.816L210.484 142.252C210.558 142.253 210.626 142.285 210.674 142.34C210.723 142.395 210.745 142.468 210.738 142.54L210.36 146.038C210.346 146.17 210.234 146.271 210.102 146.271ZM129.105 144.32L209.868 145.746L210.189 142.768L129.426 141.341L129.105 144.319V144.32Z"
            fill="black" />
        <path
            d="M188.128 152.781H188.123L128.068 151.72C127.994 151.719 127.926 151.687 127.878 151.632C127.829 151.577 127.807 151.504 127.814 151.432L128.192 147.934C128.206 147.8 128.316 147.706 128.455 147.701L188.509 148.762C188.583 148.763 188.651 148.795 188.699 148.85C188.748 148.905 188.77 148.978 188.763 149.05L188.387 152.548C188.372 152.68 188.26 152.781 188.128 152.781V152.781ZM128.362 151.205L187.894 152.256L188.215 149.278L128.683 148.227L128.362 151.205Z"
            fill="black" />
        <path
            d="M207.812 162.594H207.807L126.522 161.159C126.449 161.158 126.38 161.126 126.332 161.07C126.283 161.016 126.261 160.943 126.268 160.871L126.646 157.373C126.66 157.239 126.773 157.127 126.909 157.14L208.194 158.575C208.267 158.576 208.336 158.608 208.384 158.663C208.433 158.718 208.455 158.791 208.448 158.863L208.071 162.361C208.057 162.494 207.945 162.594 207.813 162.594H207.812ZM126.815 160.642L207.578 162.069L207.899 159.091L127.136 157.666L126.815 160.644V160.642Z"
            fill="black" />
        <path
            d="M185.838 169.104H185.833L125.779 168.044C125.705 168.043 125.637 168.011 125.588 167.955C125.54 167.901 125.518 167.828 125.525 167.756L125.903 164.258C125.917 164.124 126.036 164.018 126.166 164.025L186.22 165.085C186.293 165.086 186.362 165.118 186.41 165.174C186.459 165.228 186.481 165.301 186.474 165.374L186.096 168.872C186.082 169.004 185.97 169.104 185.838 169.104ZM126.071 167.529L185.604 168.58L185.925 165.602L126.393 164.551L126.071 167.529Z"
            fill="black" />
        <path
            d="M210.077 78.3205C213.121 77.0583 214.566 73.5648 213.306 70.5175C212.045 67.4702 208.555 66.0231 205.511 67.2853C202.468 68.5476 201.022 72.0411 202.283 75.0884C203.544 78.1357 207.033 79.5828 210.077 78.3205Z"
            fill="#E42F35" />
        <path
            d="M207.326 76.0774C207.095 76.0904 206.884 75.9864 206.771 75.802L204.581 72.7591C204.404 72.4719 204.515 72.0829 204.828 71.8903C205.141 71.6976 205.538 71.7732 205.715 72.0605L207.341 74.1895L209.863 69.7766C210.041 69.4645 210.439 69.3309 210.751 69.4787C211.063 69.6264 211.171 70 210.993 70.3121L207.902 75.7192C207.786 75.9226 207.569 76.0585 207.335 76.075C207.332 76.075 207.328 76.075 207.324 76.075L207.326 76.0774Z"
            fill="white" />
        <path
            d="M127.119 115.666C127.05 115.666 126.983 115.64 126.931 115.587C126.829 115.483 126.83 115.316 126.934 115.215L127.79 114.372C127.893 114.27 128.061 114.271 128.162 114.375C128.264 114.479 128.263 114.646 128.159 114.748L127.303 115.591C127.252 115.641 127.185 115.666 127.119 115.666V115.666Z"
            fill="black" />
        <path
            d="M123.016 119.703C122.947 119.703 122.88 119.677 122.828 119.624C122.727 119.52 122.728 119.353 122.832 119.252L123.688 118.409C123.791 118.307 123.958 118.308 124.06 118.412C124.161 118.516 124.16 118.683 124.056 118.785L123.2 119.628C123.149 119.678 123.082 119.703 123.016 119.703V119.703Z"
            fill="black" />
        <path
            d="M123.901 115.625C123.833 115.625 123.764 115.599 123.712 115.546L122.872 114.682C122.77 114.578 122.772 114.411 122.876 114.309C122.981 114.209 123.147 114.21 123.248 114.314L124.089 115.178C124.191 115.282 124.188 115.449 124.084 115.55C124.032 115.6 123.967 115.625 123.9 115.625H123.901Z"
            fill="black" />
        <path
            d="M127.931 119.766C127.862 119.766 127.794 119.74 127.742 119.687L126.901 118.823C126.799 118.719 126.802 118.552 126.906 118.45C127.01 118.349 127.176 118.351 127.278 118.455L128.118 119.319C128.22 119.423 128.217 119.59 128.114 119.692C128.063 119.741 127.997 119.766 127.931 119.766V119.766Z"
            fill="black" />
        <path
            d="M150.699 222.659C150.555 222.659 150.437 222.542 150.436 222.397C150.436 222.252 150.551 222.134 150.696 222.133L151.897 222.125H151.899C152.043 222.125 152.161 222.243 152.162 222.387C152.162 222.532 152.046 222.65 151.901 222.652L150.7 222.659H150.699Z"
            fill="black" />
        <path
            d="M144.947 222.693C144.803 222.693 144.685 222.576 144.684 222.432C144.684 222.287 144.799 222.168 144.945 222.167L146.145 222.16H146.147C146.291 222.16 146.409 222.277 146.41 222.421C146.41 222.567 146.294 222.685 146.149 222.686L144.948 222.693H144.947Z"
            fill="black" />
        <path
            d="M148.42 220.386C148.274 220.386 148.156 220.267 148.156 220.122V218.915C148.154 218.77 148.272 218.651 148.417 218.651C148.562 218.651 148.681 218.77 148.681 218.915V220.122C148.683 220.267 148.565 220.386 148.42 220.386Z"
            fill="black" />
        <path
            d="M148.428 226.166C148.283 226.166 148.165 226.048 148.165 225.903V224.696C148.163 224.55 148.281 224.432 148.426 224.432C148.571 224.432 148.689 224.55 148.689 224.696V225.903C148.692 226.048 148.574 226.166 148.428 226.166Z"
            fill="black" />
        <path
            d="M16.2313 242.739H109.23C113.187 242.739 116.394 239.481 116.394 235.462L107.327 44.4433C107.327 40.424 104.12 37.166 100.163 37.166H7.16392C3.20706 37.1648 0 40.424 0 44.4433L9.06619 235.462C9.06619 239.481 12.2733 242.739 16.2301 242.739H16.2313Z"
            fill="#CFCFD0" />
        <path
            d="M22.534 242.78H115.533C119.49 242.78 122.697 239.536 122.697 235.535L113.631 44.8582C113.631 40.8566 110.423 37.6128 106.467 37.6128H13.4667C9.50979 37.6128 6.30273 40.8566 6.30273 44.8582L15.3689 235.535C15.3689 239.536 18.576 242.78 22.5329 242.78H22.534Z"
            fill="white" />
        <path
            d="M106.253 242.796H87.0944C86.9491 242.796 86.8311 242.678 86.8311 242.532C86.8311 242.387 86.9491 242.269 87.0944 242.269H106.253C106.398 242.269 106.516 242.387 106.516 242.532C106.516 242.678 106.398 242.796 106.253 242.796Z"
            fill="black" />
        <path
            d="M77.0605 242.796H22.5346C18.4396 242.796 15.1074 239.428 15.1074 235.287L11.6547 170.746C11.6465 170.601 11.7586 170.477 11.9027 170.468C12.0491 170.464 12.1719 170.572 12.179 170.718L15.6317 235.272C15.6317 239.137 18.7277 242.268 22.5335 242.268H77.0593C77.2046 242.268 77.3226 242.387 77.3226 242.532C77.3226 242.677 77.2046 242.796 77.0593 242.796H77.0605Z"
            fill="black" />
        <path
            d="M9.28586 109.896C9.14652 109.896 9.02962 109.786 9.02372 109.645L6.04102 44.6219C6.04102 40.469 9.37206 37.1011 13.4683 37.1011H106.467C110.562 37.1011 113.894 40.469 113.894 44.6101L114.598 61.9545C114.604 62.0999 114.492 62.2229 114.346 62.2288C114.191 62.2382 114.078 62.1224 114.073 61.977L113.369 44.6219C113.369 40.761 110.273 37.6295 106.467 37.6295H13.4671C9.66135 37.6295 6.56647 40.7622 6.56647 44.6112L9.54918 109.622C9.55626 109.768 9.44409 109.891 9.29885 109.898C9.2953 109.898 9.29058 109.898 9.28704 109.898L9.28586 109.896Z"
            fill="black" />
        <path
            d="M26.847 237.329H111.775C115.388 237.329 118.318 234.367 118.318 230.713L109.366 50.1438C109.366 46.4898 106.437 43.5273 102.823 43.5273H17.8954C14.2821 43.5273 11.3525 46.4898 11.3525 50.1438L20.3042 230.713C20.3042 234.367 23.2338 237.329 26.847 237.329Z"
            fill="white" />
        <path
            d="M111.775 237.593H26.8474C23.0948 237.593 20.0425 234.506 20.0425 230.713L11.0908 50.1568C11.0908 46.3503 14.1432 43.2637 17.8958 43.2637H102.824C106.576 43.2637 109.629 46.3503 109.629 50.1438L118.58 230.7C118.58 234.506 115.528 237.593 111.775 237.593V237.593ZM17.8958 43.7897C14.4337 43.7897 11.6163 46.6399 11.6163 50.1438L20.5668 230.7C20.5668 234.217 23.3841 237.067 26.8463 237.067H111.775C115.238 237.067 118.055 234.217 118.055 230.713L109.103 50.1568C109.103 46.6399 106.286 43.7897 102.824 43.7897H17.8958Z"
            fill="black" />
        <path
            d="M17.5549 101.221C17.4156 101.221 17.2987 101.111 17.2928 100.97L16.4827 83.8456C16.4757 83.7002 16.5878 83.5773 16.7331 83.5702C16.8759 83.5548 17.0011 83.6754 17.0082 83.8208L17.8182 100.945C17.8253 101.091 17.7131 101.214 17.5679 101.221C17.5632 101.221 17.5596 101.221 17.5549 101.221Z"
            fill="black" />
        <path
            d="M107.227 85.433C107.088 85.433 106.971 85.3231 106.965 85.1824L105.457 53.3201C105.457 49.9273 102.868 47.1776 99.6843 47.1776H21.3345C18.1511 47.1776 15.5616 49.9273 15.5616 53.3071L16.707 77.4997C16.7141 77.6451 16.6019 77.768 16.4566 77.7751C16.3126 77.7798 16.1886 77.6699 16.1815 77.5245L15.0361 53.3189C15.0361 49.6365 17.8618 46.6504 21.3345 46.6504H99.6843C103.157 46.6504 105.983 49.6365 105.983 53.3071L107.491 85.1576C107.498 85.303 107.385 85.426 107.24 85.433C107.235 85.433 107.232 85.433 107.227 85.433Z"
            fill="black" />
        <path
            d="M113.936 200.517C113.797 200.517 113.68 200.407 113.674 200.267L112.404 173.41C112.397 173.264 112.509 173.141 112.654 173.134C112.789 173.126 112.922 173.239 112.929 173.385L114.2 200.242C114.207 200.387 114.095 200.51 113.949 200.517C113.946 200.517 113.941 200.517 113.936 200.517Z"
            fill="white" />
        <path
            d="M100.329 234.432H49.8239C49.6786 234.432 49.5605 234.314 49.5605 234.168C49.5605 234.023 49.6786 233.905 49.8239 233.905H100.328C100.473 233.905 100.591 234.023 100.591 234.168C100.591 234.314 100.473 234.432 100.328 234.432H100.329Z"
            fill="black" />
        <path
            d="M43.5111 234.432H29.593C26.1203 234.432 23.2946 231.446 23.2946 227.775L22.1917 204.473C22.1846 204.327 22.2968 204.204 22.4421 204.197C22.5861 204.189 22.7101 204.302 22.7172 204.448L23.8212 227.762C23.8212 231.155 26.4107 233.905 29.5942 233.905H43.5123C43.6575 233.905 43.7756 234.023 43.7756 234.168C43.7756 234.314 43.6575 234.432 43.5123 234.432H43.5111Z"
            fill="black" />
        <path
            d="M75.7067 37.6235L73.9155 40.6096C72.8268 42.423 71.0036 43.5118 69.0517 43.5118H50.963C49.0537 43.5118 47.2636 42.4703 46.1666 40.7196L44.2266 37.6235H75.7067Z"
            fill="black" />
        <path
            d="M118.456 151.243C118.316 151.243 118.201 151.134 118.194 150.994L116.878 124.921C116.871 124.776 116.983 124.652 117.127 124.645C117.274 124.64 117.397 124.749 117.404 124.894L118.719 150.966C118.726 151.112 118.614 151.236 118.47 151.243C118.465 151.243 118.461 151.243 118.456 151.243V151.243Z"
            fill="black" />
        <path
            d="M52.2111 196.29C49.095 196.29 46.5586 193.752 46.5586 190.631C46.5586 187.51 49.0938 184.972 52.2111 184.972C55.3284 184.972 57.8636 187.51 57.8636 190.631C57.8636 193.752 55.3284 196.29 52.2111 196.29ZM52.2111 185.499C49.3843 185.499 47.0852 187.801 47.0852 190.631C47.0852 193.461 49.3843 195.763 52.2111 195.763C55.0379 195.763 57.337 193.461 57.337 190.631C57.337 187.801 55.0379 185.499 52.2111 185.499V185.499Z"
            fill="black" />
        <path
            d="M67.4103 196.29C64.2942 196.29 61.7578 193.752 61.7578 190.631C61.7578 187.51 64.293 184.972 67.4103 184.972C70.5276 184.972 73.0628 187.51 73.0628 190.631C73.0628 193.752 70.5276 196.29 67.4103 196.29ZM67.4103 185.499C64.5835 185.499 62.2844 187.801 62.2844 190.631C62.2844 193.461 64.5835 195.763 67.4103 195.763C70.2371 195.763 72.5362 193.461 72.5362 190.631C72.5362 187.801 70.2371 185.499 67.4103 185.499Z"
            fill="black" />
        <path
            d="M82.8869 195.737C79.7707 195.737 77.2344 193.199 77.2344 190.078C77.2344 186.957 79.7696 184.419 82.8869 184.419C86.0042 184.419 88.5394 186.957 88.5394 190.078C88.5394 193.199 86.0042 195.737 82.8869 195.737ZM82.8869 184.946C80.06 184.946 77.761 187.248 77.761 190.078C77.761 192.908 80.06 195.21 82.8869 195.21C85.7137 195.21 88.0127 192.908 88.0127 190.078C88.0127 187.248 85.7137 184.946 82.8869 184.946Z"
            fill="black" />
        <path
            d="M233.211 231.555C233.211 231.555 239.229 229.67 249.089 210.518C257.411 194.351 249.992 178.727 248.495 168.277C248.343 167.209 246.885 167.055 246.524 168.07C244.029 175.092 240.016 187.86 240.664 195.721C241.599 207.051 233.211 231.553 233.211 231.553V231.555Z"
            fill="white" />
        <path
            d="M233.211 231.818C233.141 231.818 233.072 231.79 233.022 231.739C232.952 231.668 232.93 231.564 232.961 231.469C233.045 231.225 241.322 206.889 240.401 195.744C239.746 187.817 243.8 174.947 246.275 167.982C246.477 167.414 247.012 167.072 247.607 167.13C248.207 167.19 248.667 167.636 248.755 168.239C249.092 170.597 249.742 173.256 250.43 176.072C252.824 185.865 255.802 198.052 249.321 210.639C239.524 229.67 233.539 231.727 233.289 231.805C233.263 231.813 233.237 231.817 233.209 231.817L233.211 231.818ZM247.476 167.65C247.209 167.65 246.906 167.781 246.772 168.158C244.311 175.085 240.28 187.872 240.926 195.7C241.774 205.968 234.93 227.211 233.659 231.043C235.324 230.09 240.83 225.987 248.855 210.398C255.244 197.986 252.292 185.905 249.92 176.197C249.229 173.369 248.576 170.698 248.235 168.313C248.171 167.87 247.83 167.681 247.556 167.654C247.53 167.651 247.503 167.65 247.476 167.65Z"
            fill="black" />
        <path
            d="M239.735 221.083L241.879 204.112C242.81 196.745 241.606 189.263 238.413 182.575C233.76 172.828 233.395 161.55 237.407 151.517L240.85 142.904C241.286 141.815 239.899 140.931 239.114 141.797L234.279 147.122C223.308 159.205 219.604 176.311 224.578 191.92L233.489 219.88L239.736 221.082L239.735 221.083Z"
            fill="white" />
        <path
            d="M239.735 221.347C239.719 221.347 239.702 221.346 239.686 221.342L233.438 220.14C233.344 220.122 233.266 220.052 233.237 219.961L224.327 192.001C219.336 176.337 223.074 159.073 234.084 146.947L238.919 141.622C239.425 141.065 240.113 141.105 240.571 141.392C241.037 141.683 241.378 142.294 241.094 143.005L237.651 151.618C233.675 161.561 234.04 172.804 238.65 182.464C241.873 189.215 243.079 196.713 242.141 204.149L239.996 221.12C239.987 221.192 239.949 221.257 239.89 221.301C239.845 221.334 239.791 221.35 239.735 221.35V221.347ZM233.691 219.652L239.509 220.771L241.618 204.079C242.544 196.745 241.354 189.349 238.174 182.687C233.501 172.895 233.131 161.498 237.161 151.418L240.604 142.805C240.787 142.349 240.55 141.998 240.291 141.836C240.039 141.677 239.63 141.618 239.308 141.973L234.472 147.298C223.589 159.285 219.893 176.352 224.828 191.838L233.691 219.649V219.652Z"
            fill="black" />
        <path
            d="M236.971 221.64L229.535 202.623C227.419 197.212 222.967 193.079 217.453 191.408L212.381 189.87C211.151 189.496 210.323 191.125 211.342 191.917L214.459 194.344C217.837 196.973 219.852 201.008 219.941 205.316C219.993 207.847 220.713 210.319 222.026 212.475L227.066 220.75L236.971 221.64V221.64Z"
            fill="white" />
        <path
            d="M236.971 221.902C236.963 221.902 236.956 221.902 236.947 221.902L227.042 221.012C226.959 221.005 226.885 220.958 226.841 220.887L221.801 212.612C220.466 210.418 219.731 207.898 219.678 205.322C219.591 201.072 217.629 197.147 214.298 194.552L211.181 192.125C210.531 191.618 210.515 190.857 210.789 190.327C211.06 189.804 211.679 189.382 212.458 189.618L217.529 191.156C223.156 192.862 227.621 197.007 229.78 202.527L237.217 221.544C237.25 221.629 237.237 221.725 237.182 221.798C237.133 221.866 237.055 221.904 236.972 221.904L236.971 221.902ZM227.22 220.499L236.571 221.34L229.289 202.719C227.189 197.349 222.847 193.319 217.376 191.66L212.304 190.122C211.782 189.963 211.413 190.264 211.256 190.57C211.094 190.882 211.062 191.368 211.502 191.711L214.62 194.137C218.077 196.829 220.112 200.902 220.202 205.311C220.253 207.794 220.962 210.224 222.249 212.338L227.219 220.499H227.22Z"
            fill="black" />
        <path
            d="M235.87 212.968C235.862 212.968 235.854 212.968 235.845 212.968C235.701 212.954 235.594 212.826 235.608 212.681C236.743 200.533 234.306 192.713 232.155 185.814C231.162 182.626 230.224 179.615 229.666 176.378C227.037 161.099 236.003 147.841 236.093 147.709C236.176 147.589 236.339 147.559 236.46 147.641C236.579 147.724 236.609 147.887 236.527 148.008C236.437 148.138 227.593 161.226 230.185 176.288C230.736 179.491 231.669 182.486 232.657 185.657C234.822 192.603 237.275 200.477 236.131 212.729C236.118 212.866 236.004 212.968 235.869 212.968H235.87Z"
            fill="black" />
        <path
            d="M245.776 204.848C245.762 204.848 245.747 204.847 245.732 204.844C245.589 204.819 245.493 204.683 245.516 204.54C247.542 192.546 246.841 174.08 246.834 173.896C246.828 173.75 246.941 173.627 247.087 173.623C247.234 173.613 247.354 173.73 247.359 173.876C247.367 174.061 248.07 192.581 246.035 204.629C246.013 204.758 245.901 204.849 245.775 204.849L245.776 204.848Z"
            fill="black" />
        <path
            d="M228.018 214.784C227.874 214.784 227.756 214.668 227.755 214.522C227.611 199.575 215.687 193.016 215.567 192.951C215.438 192.882 215.391 192.722 215.459 192.594C215.528 192.465 215.687 192.417 215.816 192.486C215.938 192.552 228.136 199.262 228.283 214.516C228.284 214.662 228.167 214.781 228.022 214.782H228.019L228.018 214.784Z"
            fill="black" />
        <path
            d="M229.634 186.828C229.556 186.828 229.478 186.793 229.426 186.727C226.2 182.578 224.77 176.971 224.756 176.915C224.721 176.774 224.806 176.631 224.947 176.596C225.087 176.561 225.231 176.645 225.266 176.787C225.28 176.843 226.686 182.344 229.842 186.404C229.93 186.518 229.91 186.684 229.796 186.774C229.747 186.812 229.691 186.829 229.634 186.829V186.828Z"
            fill="black" />
        <path
            d="M221.121 217.042H249.299V230.311C249.299 237.721 243.289 243.737 235.888 243.737H234.531C227.13 243.737 221.121 237.721 221.121 230.311V217.042Z"
            fill="#E42F35" />
        <path
            d="M235.888 244H234.531C226.992 244 220.857 237.859 220.857 230.311V217.041C220.857 216.896 220.975 216.778 221.121 216.778H249.298C249.443 216.778 249.562 216.896 249.562 217.041V230.311C249.562 237.859 243.427 244 235.888 244ZM221.384 217.305V230.311C221.384 237.568 227.282 243.473 234.531 243.473H235.888C243.137 243.473 249.035 237.568 249.035 230.311V217.305H221.383H221.384Z"
            fill="black" />
        <path
            d="M246.535 222.018H223.881C223.736 222.018 223.618 221.9 223.618 221.755C223.618 221.609 223.736 221.491 223.881 221.491H246.535C246.68 221.491 246.798 221.609 246.798 221.755C246.798 221.9 246.68 222.018 246.535 222.018Z"
            fill="black" />
        <path
            d="M84.952 96.7589L77.9428 93.3153C72.2395 90.5124 66.9176 86.9908 62.1059 82.8367L61.7622 80.7041C61.7622 80.7041 59.3853 80.7302 58.8775 80.7006C58.2281 80.664 57.568 80.8909 57.0697 81.3791C51.8482 86.4943 45.9029 90.8139 39.4262 94.1972L34.8435 96.591C33.7784 97.1478 33.3864 98.1278 33.7076 99.5369L39.6966 124.866C42.3038 131.951 52.8023 141.435 58.7122 146.37C59.7879 147.268 61.101 147.707 62.4081 147.699C62.9879 147.695 65.3908 147.772 65.3908 147.772C65.3908 147.772 65.8998 146.759 66.5716 146.074C71.8829 140.672 81.2006 130.273 83.0899 122.084L86.2249 99.4447C86.4741 98.3619 85.9462 97.2495 84.9508 96.76L84.952 96.7589Z"
            fill="#CFCFD0" />
        <path
            d="M87.6068 96.895L80.6531 93.4774C74.9935 90.697 69.713 87.2026 64.9402 83.0805L63.1489 81.533C62.2161 80.728 60.8239 80.7717 59.9442 81.6335C54.7628 86.7096 48.8647 90.9949 42.4376 94.3522L37.8904 96.7271C36.8335 97.2792 36.3506 98.5311 36.7627 99.6506L42.7057 124.783C45.2928 131.814 55.822 141.311 61.6859 146.208C63.9566 148.104 67.2982 147.935 69.3729 145.825C74.6428 140.465 83.8885 130.146 85.7624 122.022L88.8738 99.5584C89.1218 98.4838 88.5975 97.3809 87.6092 96.895H87.6068Z"
            fill="white" />
        <path
            d="M83.3342 99.8786L77.5766 97.0497C72.8912 94.7469 68.5187 91.8542 64.5665 88.4414L63.0834 87.1599C62.3112 86.4932 61.1587 86.5298 60.4302 87.2438C56.1403 91.4464 51.2565 94.9952 45.9358 97.7744L42.1714 99.7415C41.2965 100.199 40.8974 101.235 41.2386 102.161L46.159 122.969C48.301 128.79 57.0188 136.654 61.8743 140.709C63.7541 142.279 66.5208 142.139 68.2388 140.392C72.6019 135.954 80.257 127.411 81.8086 120.683L84.3839 102.084C84.5894 101.196 84.1548 100.282 83.3366 99.8798L83.3342 99.8786Z"
            fill="white" />
        <path
            d="M64.8748 141.952C63.7707 141.952 62.6643 141.582 61.7669 140.833C56.8005 136.685 48.1487 128.857 46.0032 123.025C46.0009 123.019 45.9997 123.013 45.9973 123.006L41.0793 102.207C40.7168 101.21 41.1525 100.088 42.0936 99.5961L45.858 97.629C51.1692 94.8545 56.033 91.321 60.3145 87.1268C61.1092 86.3478 62.3455 86.3087 63.1874 87.0369L64.6705 88.3184C68.6109 91.7206 72.9763 94.6098 77.6463 96.9043L83.4039 99.7332C84.2943 100.171 84.7607 101.153 84.5375 102.121L81.9645 120.706C80.4047 127.472 72.7649 136.014 68.3487 140.507C67.4064 141.465 66.1406 141.954 64.8724 141.954L64.8748 141.952ZM46.3114 122.922C48.4369 128.682 57.0354 136.459 61.9747 140.585C63.7743 142.087 66.4736 141.952 68.1196 140.278C72.511 135.811 80.1083 127.321 81.6469 120.647L84.2199 102.062C84.4112 101.227 84.0168 100.396 83.2622 100.025L77.5047 97.1963C72.8098 94.8899 68.4207 91.9854 64.4603 88.5655L62.9772 87.284C62.264 86.6681 61.2167 86.7 60.5436 87.3609C56.2396 91.5776 51.3499 95.1299 46.0103 97.9198L42.2459 99.8869C41.4453 100.305 41.0781 101.259 41.3898 102.107C41.3922 102.113 41.3934 102.119 41.3957 102.126L46.3138 122.925L46.3114 122.922Z"
            fill="#CFCFD0" />
        <path
            d="M65.3115 147.676C63.9854 147.676 62.657 147.233 61.5801 146.332C55.5852 141.325 45.141 131.874 42.5515 124.838C42.5492 124.832 42.548 124.827 42.5456 124.819L36.605 99.6965C36.1728 98.506 36.69 97.169 37.813 96.5827L42.3602 94.2078C48.7779 90.8552 54.6547 86.5865 59.8278 81.5174C60.776 80.5883 62.2473 80.5421 63.2521 81.4098L65.0434 82.9573C69.8032 87.0676 75.0791 90.5585 80.7221 93.3318L87.6759 96.7494C88.7374 97.2707 89.2936 98.441 89.0267 99.5948L87.6947 109.22C87.6829 109.308 87.6003 109.37 87.5117 109.358C87.4232 109.346 87.3606 109.264 87.3736 109.175L88.7091 99.5357C88.944 98.5155 88.4587 97.4953 87.5342 97.0402L80.5804 93.6226C74.9126 90.8375 69.6143 87.3312 64.8321 83.2032L63.0408 81.6557C62.1658 80.8992 60.8823 80.9405 60.0557 81.7503C54.859 86.8406 48.9562 91.1294 42.5114 94.4962L37.9641 96.8711C36.9829 97.3842 36.5318 98.5545 36.9144 99.5936C36.9167 99.5995 36.9179 99.6054 36.9203 99.6125L42.8609 124.735C45.4291 131.7 55.8214 141.099 61.7891 146.083C63.976 147.909 67.2563 147.746 69.2565 145.71C74.5631 140.313 83.7426 130.053 85.6035 121.983L86.4053 116.191C86.4171 116.102 86.4998 116.038 86.5883 116.053C86.6769 116.064 86.7395 116.147 86.7265 116.236L85.9224 122.043C84.0402 130.204 74.8181 140.516 69.488 145.937C68.3556 147.089 66.8359 147.674 65.3138 147.675L65.3115 147.676Z"
            fill="black" />
        <path
            d="M58.7957 105.948L58.902 99.283C58.9504 97.1291 60.6566 95.3666 62.8057 95.2673C65.1744 95.1585 67.1404 97.0984 67.0861 99.4722L67.1322 105.84C67.1156 106.561 69.8362 106.245 69.8468 105.581L69.5658 99.6235C69.6544 95.8099 66.6055 92.6807 62.6746 92.8403V92.8439C59.4274 92.9763 56.4554 95.8371 56.3739 99.3197L56.29 106.051L58.7981 105.949L58.7957 105.948Z"
            fill="white" />
        <path
            d="M68.08 106.412C67.7293 106.412 67.4105 106.359 67.211 106.239C67.0043 106.115 66.9642 105.95 66.9677 105.836L66.9217 99.4721C66.9465 98.3762 66.5131 97.3111 65.7314 96.5463C64.9438 95.7755 63.9047 95.3771 62.8101 95.4291C60.7544 95.5237 59.1083 97.2177 59.0611 99.2853L58.9548 105.95C58.9536 106.037 58.8851 106.106 58.7989 106.11L56.2909 106.211C56.2472 106.215 56.2035 106.197 56.1717 106.165C56.1398 106.133 56.1221 106.091 56.1221 106.047L56.2059 99.316C56.2862 95.8677 59.224 92.8379 62.6295 92.6818C62.6401 92.6795 62.6507 92.6771 62.6613 92.6771C64.5766 92.5979 66.3679 93.28 67.7034 94.5945C69.0495 95.9185 69.7662 97.7059 69.7214 99.6269L70.0024 105.574C70.0012 105.715 69.9327 105.908 69.621 106.08C69.2561 106.282 68.6268 106.414 68.0765 106.414L68.08 106.412ZM62.9979 95.0993C64.1102 95.0993 65.1552 95.5261 65.9593 96.3134C66.8048 97.1409 67.2747 98.2923 67.2464 99.4744L67.2925 105.838C67.2925 105.862 67.2913 105.908 67.3798 105.961C67.7565 106.188 68.9267 106.096 69.4687 105.795C69.6021 105.721 69.6824 105.641 69.6824 105.578L69.4014 99.6293C69.4439 97.7875 68.7614 96.0852 67.4802 94.8251C66.2167 93.5814 64.5223 92.9336 62.7098 92.9998C62.6991 93.0022 62.6885 93.0045 62.6779 93.0045C59.4236 93.137 56.6097 96.0297 56.533 99.3219L56.4515 105.88L58.6348 105.792L58.7387 99.2794C58.7895 97.0404 60.5725 95.2069 62.7971 95.104C62.8644 95.1005 62.9318 95.0993 62.9979 95.0993V95.0993Z"
            fill="black" />
        <path
            d="M61.5772 124.274L64.3864 124.385C68.2748 124.288 71.7132 119.635 71.3437 114.165L70.7533 105.416L54.2232 105.284C52.7567 105.278 51.5274 106.588 51.6278 108.052L52.1379 115.441C52.4733 120.412 56.599 124.273 61.5761 124.273L61.5772 124.274Z"
            fill="#CFCFD0" />
        <path
            d="M64.286 124.137C69.7614 124.137 74.0938 119.497 73.7242 114.029L73.1515 105.547H55.6745C54.8703 105.547 54.2351 106.228 54.2894 107.03L54.8479 115.305C55.1832 120.276 59.309 124.137 64.286 124.137V124.137Z"
            fill="white" />
        <path
            d="M64.2856 124.299C59.2424 124.299 55.0258 120.353 54.6857 115.316L54.1236 106.999C54.0953 106.577 54.2382 106.173 54.5275 105.864C54.8168 105.554 55.2076 105.384 55.6304 105.384H71.7814C72.6339 105.384 73.3459 106.051 73.4038 106.902L73.4817 108.06C73.4876 108.15 73.4203 108.227 73.3306 108.233C73.242 108.236 73.1641 108.171 73.1582 108.081L73.0802 106.923C73.0342 106.241 72.4639 105.708 71.7814 105.708H55.6304C55.2985 105.708 54.9904 105.841 54.7636 106.085C54.5369 106.327 54.4248 106.644 54.4472 106.976L55.0093 115.294C55.3375 120.161 59.4125 123.974 64.2856 123.974C68.8719 123.974 72.8275 120.554 73.4864 116.02C73.4994 115.931 73.5821 115.867 73.6706 115.882C73.7592 115.895 73.8206 115.978 73.8076 116.067C73.1251 120.76 69.0313 124.299 64.2856 124.299V124.299Z"
            fill="black" />
        <path
            d="M64.5026 118.772C64.9489 118.772 65.302 118.395 65.2737 117.949L64.8533 111.355C64.8273 110.947 64.4896 110.63 64.0822 110.63C63.6359 110.63 63.2828 111.007 63.3112 111.453L63.7315 118.047C63.7575 118.455 64.0952 118.772 64.5026 118.772Z"
            fill="black" />
        <path
            d="M64.882 114.73C66.411 114.369 67.3579 112.835 66.997 111.304C66.6362 109.773 65.1041 108.825 63.5751 109.187C62.0461 109.548 61.0992 111.082 61.4601 112.612C61.8209 114.143 63.353 115.091 64.882 114.73Z"
            fill="black" />
        <path
            d="M155.208 99.0619C157.801 99.0619 159.903 96.9598 159.903 94.3669C159.903 91.7739 157.801 89.6719 155.208 89.6719C152.615 89.6719 150.513 91.7739 150.513 94.3669C150.513 96.9598 152.615 99.0619 155.208 99.0619Z"
            fill="white" />
        <path
            d="M162.574 94.367C162.574 92.4131 161.798 90.5393 160.416 89.1577C159.035 87.7762 157.161 87 155.207 87C153.253 87 151.379 87.7762 149.998 89.1577C148.616 90.5393 147.84 92.4131 147.84 94.367C147.839 94.726 147.866 95.0845 147.918 95.4397C148.189 97.2806 149.147 98.9509 150.599 100.115C152.05 101.279 153.889 101.85 155.745 101.714C157.6 101.579 159.336 100.746 160.603 99.3826C161.87 98.0196 162.574 96.2278 162.574 94.367ZM150.262 95.4397C150.186 95.0868 150.149 94.727 150.149 94.3661C150.149 94.0223 150.184 93.6794 150.252 93.3424C150.511 92.1178 151.215 91.0326 152.227 90.2962C153.239 89.5598 154.488 89.2244 155.733 89.3548C156.978 89.4851 158.131 90.0719 158.968 91.0019C159.806 91.9319 160.27 93.1393 160.27 94.391C160.27 95.6428 159.806 96.8502 158.968 97.7802C158.131 98.7102 156.978 99.297 155.733 99.4273C154.488 99.5577 153.239 99.2223 152.227 98.4859C151.215 97.7495 150.511 96.6643 150.252 95.4397H150.262Z"
            fill="#ED2027" />
        <path
            d="M160.314 94.3654C160.314 93.3549 160.014 92.3672 159.453 91.527C158.891 90.6869 158.093 90.0321 157.16 89.6455C156.226 89.2589 155.199 89.1579 154.208 89.3551C153.217 89.5524 152.307 90.0391 151.592 90.7537C150.878 91.4683 150.392 92.3787 150.195 93.3698C149.998 94.3609 150.099 95.3881 150.486 96.3215C150.873 97.2549 151.528 98.0527 152.368 98.6138C153.209 99.1749 154.196 99.4742 155.207 99.4739C156.561 99.4735 157.86 98.935 158.818 97.9771C159.776 97.0191 160.314 95.7199 160.314 94.3654ZM151.691 94.3654C151.711 93.4464 152.09 92.5719 152.747 91.9292C153.404 91.2864 154.287 90.9264 155.206 90.9264C156.125 90.9264 157.008 91.2864 157.665 91.9292C158.322 92.5719 158.701 93.4464 158.721 94.3654"
            fill="#1ECAD3" />
        <path
            d="M155.179 96.7327C156.471 96.7327 157.519 95.6852 157.519 94.3932C157.519 93.1011 156.471 92.0537 155.179 92.0537C153.887 92.0537 152.84 93.1011 152.84 94.3932C152.84 95.6852 153.887 96.7327 155.179 96.7327Z"
            fill="#ED2027" />
        <path
            d="M165.486 87.0011H170.609C171.2 86.9971 171.786 87.1146 172.331 87.3463C172.842 87.5601 173.315 87.8554 173.732 88.2206C174.139 88.5859 174.461 89.0366 174.674 89.5406C174.905 90.0814 175.022 90.6641 175.018 91.2521C175.024 91.8035 174.927 92.3512 174.731 92.8667C174.542 93.3516 174.274 93.8017 173.937 94.1984C174.635 95.0007 175.018 96.029 175.015 97.0924C175.013 97.7137 174.897 98.3294 174.672 98.9086C174.466 99.4663 174.144 99.9744 173.729 100.4C173.325 100.801 172.85 101.124 172.328 101.353C171.786 101.591 171.199 101.713 170.606 101.708H165.369C164.954 101.701 164.555 101.547 164.244 101.272C164.1 101.126 163.986 100.952 163.91 100.762C163.833 100.572 163.795 100.368 163.798 100.163V88.5202C163.803 88.2908 163.873 88.0675 164 87.8763C164.077 87.7266 164.178 87.5904 164.298 87.4729C164.538 87.2018 164.872 87.0329 165.233 87.0011H165.486ZM170.606 92.7401C170.79 92.7439 170.972 92.71 171.141 92.6406C171.311 92.5713 171.465 92.4678 171.593 92.3366C171.728 92.2054 171.834 92.0477 171.905 91.8735C171.977 91.6992 172.011 91.5121 172.006 91.3239C172.011 91.1419 171.977 90.9609 171.908 90.7926C171.838 90.6244 171.735 90.4724 171.603 90.3466C171.474 90.217 171.32 90.1146 171.15 90.0454C170.981 89.9761 170.799 89.9413 170.616 89.9431H166.836V92.7468L170.606 92.7401ZM170.606 98.6419C170.789 98.6442 170.971 98.6097 171.141 98.5404C171.31 98.4711 171.464 98.3684 171.593 98.2385C171.742 98.0726 171.855 97.878 171.926 97.6667C171.997 97.4554 172.025 97.2319 172.006 97.0097C172.025 96.7875 171.997 96.5639 171.926 96.3526C171.855 96.1414 171.742 95.9468 171.593 95.7809C171.464 95.6512 171.31 95.5487 171.14 95.4795C170.971 95.4102 170.789 95.3755 170.606 95.3775H166.836V98.6478L170.606 98.6419Z"
            fill="#ED2027" />
        <path
            d="M181.816 87.0311C182.539 87.0295 183.255 87.1664 183.926 87.4345C184.583 87.6918 185.184 88.0742 185.694 88.5603C186.202 89.0494 186.613 89.6294 186.906 90.2702C187.213 90.9406 187.37 91.6704 187.364 92.408V100.145C187.366 100.336 187.33 100.526 187.257 100.704C187.185 100.881 187.078 101.042 186.942 101.178C186.806 101.319 186.644 101.433 186.465 101.512C186.285 101.591 186.092 101.633 185.896 101.638C185.502 101.644 185.12 101.5 184.829 101.234C184.684 101.107 184.569 100.95 184.492 100.773C184.416 100.597 184.379 100.405 184.385 100.213V97.5267H179.266V100.151C179.266 100.347 179.226 100.542 179.146 100.722C179.067 100.902 178.951 101.064 178.806 101.196C178.669 101.338 178.505 101.451 178.324 101.528C178.142 101.605 177.947 101.645 177.75 101.644C177.358 101.646 176.981 101.498 176.694 101.231C176.548 101.106 176.431 100.951 176.352 100.776C176.272 100.601 176.232 100.41 176.234 100.218V92.5878C176.245 91.8473 176.397 91.1157 176.683 90.4323C176.957 89.7737 177.355 89.1737 177.855 88.6642C178.372 88.1398 178.989 87.7249 179.669 87.4443C180.35 87.1638 181.08 87.0232 181.816 87.0311ZM184.384 92.5894C184.385 92.2417 184.317 91.8973 184.182 91.5767C184.056 91.2726 183.868 90.9977 183.631 90.769C183.39 90.5375 183.109 90.3504 182.803 90.2162C182.48 90.0785 182.133 90.0098 181.782 90.0145C181.45 90.0158 181.122 90.0844 180.817 90.2162C180.519 90.3379 180.245 90.5129 180.01 90.7327C179.775 90.9527 179.588 91.2176 179.458 91.5117C179.322 91.815 179.254 92.144 179.257 92.4764V94.539H184.384V92.5894Z"
            fill="#ED2027" />
        <path
            d="M194.143 87.1029C194.866 87.1013 195.582 87.2382 196.253 87.5063C196.91 87.7622 197.511 88.144 198.021 88.6305C198.529 89.1197 198.94 89.7004 199.232 90.342C199.542 91.0109 199.698 91.7403 199.69 92.4773V100.216C199.693 100.407 199.657 100.598 199.585 100.775C199.512 100.953 199.405 101.114 199.268 101.249C199.134 101.391 198.972 101.504 198.793 101.583C198.614 101.662 198.421 101.705 198.225 101.709C197.831 101.715 197.449 101.571 197.158 101.305C197.012 101.178 196.897 101.021 196.819 100.845C196.742 100.668 196.704 100.477 196.71 100.284V92.652C196.71 92.3088 196.641 91.969 196.508 91.6527C196.382 91.3488 196.194 91.0741 195.957 90.8459C195.716 90.6138 195.436 90.4271 195.129 90.2948C194.816 90.1597 194.478 90.089 194.137 90.087C193.796 90.0849 193.458 90.1516 193.143 90.2829C192.846 90.4064 192.572 90.5812 192.335 90.7995C192.101 91.0199 191.913 91.2858 191.784 91.581C191.648 91.8842 191.579 92.2133 191.582 92.5456V100.216C191.583 100.412 191.542 100.607 191.463 100.787C191.384 100.967 191.268 101.129 191.123 101.261C190.985 101.402 190.821 101.515 190.64 101.591C190.458 101.668 190.264 101.708 190.067 101.708C189.676 101.713 189.297 101.569 189.009 101.304C188.863 101.18 188.746 101.024 188.667 100.849C188.587 100.674 188.548 100.484 188.551 100.292V92.652C188.562 91.9105 188.714 91.1779 189.001 90.4939C189.419 89.4772 190.134 88.6099 191.052 88.0048C191.971 87.3998 193.05 87.0849 194.149 87.1012L194.143 87.1029Z"
            fill="#ED2027" />
        <path
            d="M211.539 99.0927C211.686 99.2333 211.803 99.4026 211.881 99.59C211.96 99.7774 212 99.9789 211.998 100.182C211.998 100.389 211.958 100.594 211.88 100.785C211.801 100.976 211.685 101.15 211.539 101.296C211.395 101.438 211.225 101.549 211.037 101.624C210.85 101.699 210.649 101.737 210.447 101.734C210.034 101.737 209.635 101.581 209.333 101.298L203.984 96.5667V100.17C203.989 100.373 203.951 100.575 203.874 100.763C203.797 100.951 203.682 101.121 203.536 101.263C203.239 101.551 202.84 101.713 202.426 101.713C202.011 101.713 201.613 101.551 201.316 101.263C201.167 101.123 201.05 100.954 200.971 100.766C200.891 100.579 200.852 100.377 200.856 100.173V88.5954C200.854 88.3938 200.894 88.1941 200.974 88.0087C201.053 87.8233 201.169 87.6561 201.316 87.5177C201.461 87.3711 201.634 87.2548 201.825 87.1754C202.015 87.096 202.219 87.0552 202.426 87.0552C202.632 87.0552 202.837 87.096 203.027 87.1754C203.218 87.2548 203.391 87.3711 203.536 87.5177C203.679 87.6584 203.792 87.8265 203.869 88.012C203.946 88.1974 203.984 88.3964 203.983 88.5971V92.2017L209.333 87.5193C209.48 87.3728 209.654 87.2567 209.846 87.1778C210.037 87.0988 210.243 87.0586 210.45 87.0594C210.654 87.0575 210.855 87.0973 211.043 87.1764C211.231 87.2555 211.4 87.3722 211.541 87.5193C211.689 87.6607 211.806 87.8312 211.885 88.02C211.964 88.2088 212.003 88.4119 211.999 88.6165C212.001 88.8201 211.962 89.022 211.883 89.2098C211.804 89.3975 211.688 89.5673 211.541 89.7086L206.165 94.3901L211.539 99.0927Z"
            fill="#ED2027" />
        <path
            d="M146.783 87.0018C146.99 86.9972 147.196 87.0355 147.388 87.1144C147.58 87.1932 147.753 87.311 147.897 87.4601C148.041 87.605 148.155 87.7773 148.232 87.9669C148.309 88.1565 148.347 88.3595 148.344 88.564C148.349 88.7686 148.313 88.9722 148.236 89.162C148.159 89.3517 148.044 89.5234 147.897 89.6663C147.75 89.8097 147.576 89.9223 147.384 89.9972C147.193 90.0722 146.988 90.108 146.783 90.1026H144.218V100.12C144.224 100.326 144.188 100.53 144.113 100.722C144.038 100.913 143.926 101.088 143.782 101.235C143.486 101.521 143.091 101.681 142.68 101.681C142.268 101.681 141.873 101.521 141.577 101.235C141.432 101.088 141.318 100.914 141.242 100.723C141.166 100.531 141.129 100.326 141.134 100.12V90.1009H138.538C138.337 90.1051 138.136 90.0686 137.949 89.9936C137.762 89.9186 137.592 89.8067 137.449 89.6646C137.302 89.5221 137.186 89.3505 137.109 89.1607C137.031 88.9709 136.995 88.7671 137.001 88.5623C136.997 88.3577 137.036 88.1545 137.113 87.9648C137.19 87.7752 137.304 87.603 137.449 87.4584C137.589 87.311 137.758 87.1943 137.946 87.1157C138.133 87.0371 138.335 86.9983 138.538 87.0018H146.783Z"
            fill="#ED2027" />
        <path
            d="M149.213 42.6256C149.067 42.2472 148.992 41.8412 148.993 41.4241C148.997 40.5134 149.365 39.6559 150.027 39.0087C151.379 37.6864 153.56 37.6732 154.886 38.9792C155.524 39.6069 155.874 40.4468 155.87 41.3404C155.866 42.2511 155.499 43.1086 154.837 43.7558C153.484 45.0781 151.303 45.0912 149.977 43.7853C149.638 43.4507 149.379 43.0566 149.213 42.6256ZM154.474 39.3907C153.374 38.3063 151.561 38.3206 150.434 39.4208C149.884 39.9589 149.579 40.6686 149.576 41.4234C149.573 42.1611 149.861 42.8523 150.388 43.3714C151.489 44.4557 153.301 44.4415 154.428 43.3412C154.978 42.8032 155.283 42.0934 155.286 41.3387C155.289 40.6009 155.001 39.9098 154.474 39.3907Z"
            fill="black" />
        <path
            d="M178.122 50.4006C178.096 50.3335 178.095 50.2568 178.125 50.1849C178.188 50.0371 178.358 49.967 178.506 50.0278L179.936 50.6189C180.084 50.6809 180.154 50.8504 180.092 50.9977C180.029 51.1454 179.859 51.2155 179.711 51.1547L178.281 50.5637C178.206 50.5325 178.15 50.4714 178.122 50.4006Z"
            fill="black" />
        <path
            d="M173.118 48.3314C173.092 48.2643 173.09 48.1877 173.122 48.1152C173.185 47.9675 173.355 47.8974 173.503 47.9581L174.933 48.5492C175.081 48.6112 175.152 48.7802 175.089 48.928C175.026 49.0758 174.855 49.1459 174.708 49.0851L173.278 48.494C173.202 48.4617 173.146 48.4018 173.119 48.331L173.118 48.3314Z"
            fill="black" />
        <path
            d="M177.099 47.9156C177.072 47.8472 177.072 47.7689 177.104 47.696L177.715 46.2984C177.78 46.1514 177.951 46.0837 178.098 46.1474C178.246 46.2111 178.313 46.3815 178.25 46.5281L177.639 47.9257C177.574 48.0727 177.403 48.1404 177.255 48.0767C177.181 48.0451 177.127 47.9847 177.1 47.9151L177.099 47.9156Z"
            fill="black" />
        <path
            d="M174.962 52.8057C174.936 52.7373 174.935 52.659 174.967 52.5861L175.578 51.1885C175.643 51.0415 175.814 50.9738 175.962 51.0375C176.109 51.1012 176.176 51.2717 176.113 51.4182L175.502 52.8158C175.438 52.9628 175.266 53.0305 175.119 52.9668C175.044 52.9352 174.99 52.8748 174.963 52.8052L174.962 52.8057Z"
            fill="black" />
        <circle cx="52.5" cy="190.5" fill="#ED2027" r="5.5" />
        <circle cx="67.5" cy="190.5" fill="#ED2027" r="5.5" />
        <circle cx="83" cy="190" fill="#ED2027" r="5.5" />
    </g>
    <path
        d="M74.1818 12.9047C74.2139 12.8984 74.2483 12.8971 74.2827 12.9025C74.441 12.9281 74.5487 13.0776 74.5248 13.2365L74.1747 15.471C74.1496 15.6302 74 15.7384 73.843 15.7125C73.6847 15.6869 73.577 15.5374 73.6008 15.3785L73.951 13.144C73.9708 13.0194 74.0659 12.9258 74.1815 12.9034L74.1818 12.9047Z"
        fill="black" />
    <path
        d="M74.9971 7.69808C75.0292 7.69185 75.0636 7.69053 75.098 7.69593C75.2563 7.72155 75.364 7.87102 75.3402 8.02992L74.9901 10.2645C74.965 10.4236 74.8169 10.5328 74.6583 10.5059C74.5 10.4803 74.3924 10.3308 74.4162 10.1719L74.7663 7.93741C74.7861 7.81283 74.8812 7.71924 74.9969 7.69679L74.9971 7.69808Z"
        fill="black" />
    <path
        d="M75.8926 11.656C75.9248 11.6498 75.9592 11.6485 75.9935 11.6539L78.216 12.0113C78.3743 12.0369 78.4819 12.1864 78.4568 12.3455C78.4317 12.5046 78.2834 12.6126 78.1251 12.587L75.9027 12.2296C75.7444 12.204 75.6367 12.0545 75.6618 11.8954C75.6816 11.7708 75.7768 11.6772 75.8924 11.6547L75.8926 11.656Z"
        fill="black" />
    <path
        d="M70.7143 10.8251C70.7464 10.8189 70.7808 10.8175 70.8152 10.8229L73.0376 11.1803C73.1959 11.2059 73.3036 11.3554 73.2798 11.5143C73.2547 11.6735 73.1063 11.7814 72.948 11.7558L70.7256 11.3984C70.5673 11.3728 70.4596 11.2233 70.4835 11.0644C70.5033 10.9398 70.5984 10.8462 70.714 10.8238L70.7143 10.8251Z"
        fill="black" />
    <path
        d="M90.9017 0.641295C91.3 0.563981 91.7128 0.561648 92.1233 0.636249C93.019 0.800424 93.7985 1.31317 94.319 2.07874C95.3813 3.64333 95.0118 5.79174 93.4929 6.86738C92.7627 7.38474 91.8743 7.58135 90.9953 7.42064C90.0995 7.25647 89.3201 6.74372 88.7995 5.97815C87.7372 4.41356 88.1067 2.26515 89.6257 1.18951C90.0148 0.914083 90.4482 0.729334 90.9017 0.641295ZM92.1069 6.84263C92.4808 6.77006 92.8378 6.61758 93.1589 6.39023C94.4201 5.49745 94.7251 3.71036 93.8403 2.40778C93.4088 1.77115 92.7624 1.3466 92.0201 1.21033C91.2944 1.07754 90.5633 1.23959 89.9596 1.66666C88.6984 2.55945 88.3934 4.34654 89.2782 5.64911C89.7098 6.28574 90.3561 6.71029 91.0985 6.84656C91.4383 6.90802 91.778 6.90648 92.1069 6.84263V6.84263Z"
        fill="black" />
    <defs>
        <clipPath id="clip0_1069_22535">
            <rect fill="white" height="211" transform="translate(0 33)" width="272" />
        </clipPath>
    </defs>
</svg>
