<svg fill="none" height="269" viewBox="0 0 286 269" width="286" xmlns="http://www.w3.org/2000/svg">
    <path
        d="M3.35587 202.202C1.50523 202.202 0 200.7 0 198.854C0 197.008 1.50523 195.507 3.35587 195.507C5.20651 195.507 6.71175 197.008 6.71175 198.854C6.71175 200.7 5.20651 202.202 3.35587 202.202ZM3.35587 196.31C1.94881 196.31 0.805337 197.451 0.805337 198.854C0.805337 200.258 1.94881 201.398 3.35587 201.398C4.76294 201.398 5.90641 200.258 5.90641 198.854C5.90641 197.451 4.76294 196.31 3.35587 196.31Z"
        fill="black" />
    <path
        d="M6.91725 184.235C6.69546 184.235 6.51367 184.055 6.51367 183.832V180.717C6.51367 180.495 6.69365 180.316 6.91725 180.316C7.14085 180.316 7.32083 180.495 7.32083 180.717V183.832C7.32083 184.053 7.14085 184.235 6.91725 184.235Z"
        fill="black" />
    <path
        d="M6.91725 191.49C6.69546 191.49 6.51367 191.31 6.51367 191.087V187.972C6.51367 187.751 6.69365 187.569 6.91725 187.569C7.14085 187.569 7.32083 187.749 7.32083 187.972V191.087C7.32083 191.309 7.14085 191.49 6.91725 191.49Z"
        fill="black" />
    <path
        d="M4.84121 186.305H1.71803C1.49624 186.305 1.31445 186.126 1.31445 185.905C1.31445 185.683 1.49443 185.502 1.71803 185.502H4.84121C5.063 185.502 5.24479 185.681 5.24479 185.905C5.24479 186.128 5.06481 186.305 4.84121 186.305Z"
        fill="black" />
    <path
        d="M12.1166 186.305H8.99342C8.77164 186.305 8.58984 186.126 8.58984 185.905C8.58984 185.683 8.76982 185.502 8.99342 185.502H12.1166C12.3384 185.502 12.5202 185.681 12.5202 185.905C12.5202 186.128 12.3402 186.305 12.1166 186.305Z"
        fill="black" />
    <path
        d="M280.779 69.0912C280.608 69.0912 280.45 68.9824 280.396 68.812L279.812 66.9986C279.745 66.7882 279.861 66.5616 280.072 66.4927C280.283 66.4256 280.51 66.5416 280.579 66.752L281.163 68.5653C281.23 68.7757 281.114 69.0024 280.903 69.0713C280.861 69.084 280.821 69.0912 280.779 69.0912Z"
        fill="black" />
    <path
        d="M282.822 75.4364C282.651 75.4364 282.493 75.3276 282.439 75.1572L281.855 73.3438C281.788 73.1334 281.904 72.9068 282.115 72.8379C282.326 72.7708 282.553 72.8868 282.622 73.0972L283.206 74.9106C283.273 75.1209 283.157 75.3476 282.946 75.4165C282.904 75.4292 282.864 75.4364 282.822 75.4364Z"
        fill="black" />
    <path
        d="M277.419 72.6707C277.248 72.6707 277.09 72.5619 277.036 72.3914C276.968 72.1811 277.085 71.9544 277.296 71.8855L279.114 71.3016C279.324 71.2327 279.552 71.3488 279.621 71.5609C279.688 71.7713 279.572 71.9979 279.361 72.0669L277.543 72.6508C277.501 72.6635 277.461 72.6707 277.419 72.6707Z"
        fill="black" />
    <path
        d="M283.781 70.6272C283.61 70.6272 283.452 70.5184 283.397 70.348C283.33 70.1376 283.446 69.911 283.657 69.8421L285.475 69.2582C285.686 69.1892 285.913 69.3053 285.982 69.5175C286.049 69.7278 285.933 69.9545 285.722 70.0234L283.904 70.6073C283.864 70.62 283.822 70.6272 283.781 70.6272Z"
        fill="black" />
    <path
        d="M259.828 51.304C259.737 51.304 259.645 51.2732 259.568 51.2097C257.73 49.6593 255.838 48.1288 253.942 46.6618C253.766 46.5257 253.735 46.2737 253.871 46.0978C254.007 45.9219 254.26 45.8911 254.436 46.0271C256.34 47.5013 258.241 49.0391 260.088 50.5968C260.257 50.74 260.279 50.9939 260.136 51.1625C260.056 51.2568 259.943 51.304 259.828 51.304V51.304Z"
        fill="black" />
    <path
        d="M254.189 46.7451C254.104 46.7451 254.016 46.7179 253.942 46.6599C227.526 26.2105 196.029 14.5342 165.251 13.7853C165.029 13.7798 164.853 13.5949 164.859 13.3736C164.864 13.156 165.044 12.9819 165.262 12.9819C165.266 12.9819 165.268 12.9819 165.271 12.9819C180.823 13.3609 196.432 16.4237 211.659 22.0851C226.791 27.7101 241.184 35.7651 254.436 46.0252C254.613 46.1612 254.644 46.4133 254.507 46.5892C254.427 46.6907 254.309 46.7451 254.189 46.7451V46.7451Z"
        fill="black" />
    <path
        d="M241.598 47.724C241.522 47.724 241.444 47.7023 241.375 47.6551C221.31 34.2217 198.812 26.0306 176.31 23.9688C176.088 23.9489 175.926 23.7531 175.946 23.5318C175.966 23.3106 176.164 23.1492 176.384 23.1691C199.021 25.2436 221.648 33.48 241.824 46.9878C242.007 47.1111 242.056 47.3613 241.933 47.5445C241.855 47.6606 241.727 47.7222 241.598 47.7222V47.724Z"
        fill="black" />
    <path
        d="M265.649 59.2443C265.304 59.2443 264.956 59.1862 264.62 59.0702C262.988 58.5044 262.122 56.7219 262.688 55.0935C263.253 53.4669 265.04 52.6001 266.674 53.1658C268.305 53.7316 269.172 55.5142 268.607 57.1426C268.332 57.9314 267.767 58.5661 267.014 58.9305C266.582 59.1391 266.116 59.2443 265.651 59.2443H265.649ZM265.649 53.7969C264.686 53.7969 263.782 54.3989 263.448 55.3582C263.028 56.5677 263.671 57.8933 264.884 58.3122C265.471 58.5153 266.102 58.479 266.662 58.2088C267.222 57.9386 267.642 57.4672 267.845 56.8814C268.265 55.6719 267.622 54.3463 266.409 53.9275C266.158 53.8404 265.9 53.7987 265.647 53.7987L265.649 53.7969Z"
        fill="black" />
    <path
        d="M160.313 16.5414C160.284 16.5414 160.255 16.5378 160.228 16.5323L154.829 15.3573C154.692 15.3283 154.581 15.2303 154.534 15.0998C154.487 14.9692 154.512 14.8241 154.6 14.7153C156.199 12.717 157.979 10.8438 157.997 10.8256C158.092 10.7259 158.232 10.6824 158.365 10.7078C158.499 10.7332 158.612 10.8256 158.663 10.9526L160.688 15.9919C160.744 16.1298 160.719 16.2875 160.622 16.4C160.544 16.4906 160.431 16.5414 160.315 16.5414H160.313ZM155.638 14.7117L159.657 15.5858L158.152 11.8375C157.606 12.4269 156.619 13.5185 155.638 14.7099V14.7117Z"
        fill="black" />
    <path
        d="M111.746 45.343C122.767 45.343 131.702 36.4311 131.702 25.4376C131.702 14.4442 122.767 5.53223 111.746 5.53223C100.725 5.53223 91.791 14.4442 91.791 25.4376C91.791 36.4311 100.725 45.343 111.746 45.343Z"
        fill="white" />
    <path
        d="M111.772 45.7437C111.381 45.7437 110.992 45.7328 110.599 45.7111C105.171 45.4046 100.186 43.0092 96.563 38.9635C92.9417 34.9179 91.1147 29.7081 91.422 24.2915C91.7292 18.8768 94.1307 13.9045 98.1864 10.2905C102.24 6.67825 107.46 4.85762 112.893 5.16227C118.322 5.46873 123.306 7.8642 126.93 11.9098C130.551 15.9555 132.378 21.1653 132.071 26.5818C131.763 31.9966 129.362 36.9688 125.306 40.5829C121.543 43.934 116.776 45.7455 111.772 45.7455V45.7437ZM111.721 5.93295C106.914 5.93295 102.335 7.67198 98.7209 10.8907C94.8251 14.3615 92.5182 19.1361 92.2237 24.3369C91.9292 29.5376 93.6835 34.5425 97.1611 38.4286C100.641 42.3146 105.427 44.6158 110.643 44.9096C115.855 45.2033 120.874 43.4534 124.77 39.9845C128.666 36.5137 130.973 31.7391 131.267 26.5383C131.562 21.3376 129.807 16.3326 126.33 12.4466C122.85 8.56053 118.064 6.25936 112.848 5.96559C112.472 5.94383 112.095 5.93295 111.721 5.93295Z"
        fill="black" />
    <path
        d="M124.497 38.1556C131.538 31.1313 131.538 19.7427 124.497 12.7184C117.455 5.6941 106.038 5.6941 98.9956 12.7184C91.9537 19.7427 91.9537 31.1313 98.9956 38.1556C106.038 45.1799 117.455 45.1799 124.497 38.1556Z"
        fill="white" />
    <path
        d="M123.024 36.6875C129.253 30.474 129.253 20.4 123.024 14.1866C116.795 7.97312 106.696 7.97312 100.467 14.1866C94.2381 20.4 94.2381 30.474 100.467 36.6875C106.696 42.9009 116.795 42.9009 123.024 36.6875Z"
        fill="white" />
    <path
        d="M111.768 42.2531C111.445 42.2531 111.121 42.244 110.796 42.2259C106.3 41.972 102.173 39.9882 99.1719 36.6389C96.1723 33.2896 94.6598 28.9738 94.9143 24.4893C94.927 24.2681 95.1143 24.0994 95.3397 24.1103C95.5615 24.123 95.7306 24.3134 95.7197 24.5346C95.4779 28.8051 96.9177 32.9124 99.7736 36.1039C102.63 39.2937 106.56 41.1832 110.841 41.4244C115.117 41.6655 119.24 40.2294 122.438 37.3806C125.635 34.5317 127.53 30.6112 127.771 26.3407C128.013 22.0702 126.573 17.963 123.717 14.7714C120.861 11.5817 116.931 9.69217 112.65 9.45099C107.313 9.14997 102.201 11.5055 98.961 15.7506C98.8265 15.9265 98.5738 15.961 98.3975 15.8268C98.2211 15.6926 98.1866 15.4406 98.3211 15.2647C101.722 10.8074 107.096 8.33395 112.695 8.64948C117.191 8.90335 121.318 10.8872 124.317 14.2365C127.317 17.5858 128.829 21.9016 128.575 26.3861C128.32 30.8705 126.332 34.9887 122.974 37.979C119.858 40.7552 115.909 42.2531 111.766 42.2531H111.768Z"
        fill="black" />
    <path
        d="M110.928 34.9705L110.802 32.7673C109.241 32.7854 107.705 32.4536 106.792 31.993L107.336 29.2403C108.343 29.719 109.743 30.1288 111.253 30.0436C112.578 29.9692 113.457 29.4071 113.404 28.4805C113.355 27.5992 112.578 27.0842 110.824 26.6018C108.288 25.9073 106.525 24.8428 106.398 22.5924C106.281 20.5506 107.634 18.8696 110.093 18.2422L109.968 16.0389L112.248 15.9102L112.364 17.952C113.926 17.9339 114.991 18.2004 115.78 18.5269L115.254 21.1871C114.635 20.9658 113.535 20.4925 111.86 20.5868C110.35 20.6721 109.897 21.3485 109.933 21.9976C109.977 22.7629 110.819 23.2054 112.837 23.8364C115.66 24.6542 116.847 25.8674 116.965 27.9564C117.081 30.0218 115.716 31.866 113.069 32.4808L113.204 34.8472L110.924 34.976L110.928 34.9705Z"
        fill="black" />
    <path
        d="M54.8991 118.612C62.4806 111.05 62.4806 98.7883 54.8991 91.2258C47.3176 83.6633 35.0257 83.6633 27.4442 91.2258C19.8628 98.7883 19.8628 111.05 27.4442 118.612C35.0257 126.175 47.3177 126.175 54.8991 118.612Z"
        fill="white" />
    <path
        d="M41.2049 124.682C34.3695 124.682 27.7123 121.158 24.0383 114.85C18.5482 105.426 21.7678 93.3031 31.2155 87.8286C35.7912 85.1756 41.1286 84.4593 46.246 85.8121C51.3616 87.1649 55.6446 90.4235 58.3042 94.9878C63.7943 104.412 60.5748 116.534 51.1271 122.009C48.0039 123.82 44.5808 124.682 41.2049 124.682V124.682ZM41.1395 85.9481C37.8272 85.9481 34.5586 86.8185 31.619 88.5231C22.5549 93.7764 19.4663 105.406 24.7328 114.447C29.9993 123.489 41.6576 126.569 50.7217 121.316C59.7858 116.063 62.8745 104.434 57.608 95.3921C55.0574 91.0128 50.9489 87.8866 46.0388 86.5882C44.4172 86.1603 42.772 85.9481 41.1395 85.9481V85.9481Z"
        fill="black" />
    <path
        d="M38.4352 116.488L52.5124 108.328C53.9812 107.477 54.48 105.599 53.6265 104.134L48.3729 95.1153C47.5194 93.6501 45.6368 93.1526 44.168 94.0039L30.0908 102.163C28.622 103.015 28.1232 104.893 28.9767 106.358L34.2303 115.376C35.0838 116.841 36.9664 117.339 38.4352 116.488Z"
        fill="white" />
    <path
        d="M36.8944 117.303C35.6946 117.303 34.5257 116.685 33.8803 115.577L28.6266 106.559C28.1594 105.758 28.0339 104.822 28.2721 103.926C28.5102 103.03 29.0829 102.28 29.8864 101.814L43.9625 93.6552C45.6223 92.6923 47.7547 93.2581 48.7182 94.9119L53.9719 103.93C54.4391 104.731 54.5646 105.667 54.3264 106.563C54.0883 107.459 53.5156 108.209 52.7103 108.675L38.6342 116.834C38.0852 117.151 37.4853 117.303 36.8926 117.303H36.8944ZM45.7077 93.9889C45.2514 93.9889 44.7896 94.105 44.3679 94.3498L30.2918 102.508C29.6737 102.865 29.2337 103.442 29.0501 104.131C28.8665 104.82 28.9647 105.538 29.3228 106.155L34.5766 115.173C34.9347 115.789 35.5128 116.228 36.2036 116.411C36.8944 116.594 37.6143 116.496 38.2324 116.139L38.4342 116.486L38.2324 116.139L52.3085 107.981C52.9266 107.624 53.3666 107.047 53.5502 106.358C53.7338 105.669 53.6356 104.951 53.2775 104.334L48.0237 95.3163C47.5274 94.4658 46.6294 93.9889 45.7077 93.9889V93.9889Z"
        fill="black" />
    <path
        d="M41.596 106.327C41.536 106.327 41.4742 106.312 41.4161 106.285C41.2179 106.186 41.1361 105.944 41.2361 105.747L45.0919 98.0634C45.1919 97.8658 45.4336 97.7842 45.6318 97.8839C45.8299 97.9837 45.9118 98.2248 45.8118 98.4225L41.956 106.106C41.8851 106.247 41.7433 106.327 41.596 106.327Z"
        fill="black" />
    <path
        d="M41.5536 106.352C41.5536 106.352 41.5391 106.352 41.5318 106.352L32.9294 105.89C32.7077 105.877 32.5368 105.689 32.5495 105.468C32.5622 105.246 32.7586 105.076 32.9731 105.089L41.5754 105.551C41.7972 105.564 41.9681 105.752 41.9554 105.973C41.9445 106.187 41.7663 106.354 41.5536 106.354V106.352Z"
        fill="black" />
    <path
        d="M68.0359 63.0429C75.3242 55.7729 75.3242 43.9859 68.0359 36.7158C60.7477 29.4458 48.9311 29.4458 41.6428 36.7158C34.3546 43.9859 34.3546 55.7729 41.6428 63.043C48.9311 70.313 60.7477 70.313 68.0359 63.0429Z"
        fill="white" />
    <path
        d="M54.8779 68.9024C53.5235 68.9024 52.1601 68.7573 50.8057 68.4653C45.8283 67.39 41.5689 64.4469 38.8111 60.1764C36.0533 55.9059 35.128 50.8194 36.206 45.8544C37.2841 40.8894 40.2345 36.6407 44.5176 33.8916C48.7987 31.1407 53.898 30.2195 58.8754 31.293C63.8529 32.3684 68.1123 35.3115 70.8682 39.582C76.5601 48.3986 74.0005 60.1891 65.1618 65.8668C62.0459 67.8688 58.4973 68.9024 54.8779 68.9024V68.9024ZM54.8033 31.6593C51.3366 31.6593 47.9371 32.6494 44.9539 34.5662C40.8544 37.201 38.0276 41.2702 36.995 46.0249C35.9624 50.7795 36.8496 55.6502 39.4892 59.7412C42.1306 63.8322 46.21 66.6502 50.9766 67.6802C55.7432 68.7102 60.6261 67.827 64.7273 65.1922C73.1915 59.7539 75.6439 48.4602 70.192 40.0172C67.5505 35.9262 63.4711 33.1082 58.7046 32.0782C57.4066 31.7971 56.0995 31.6593 54.8033 31.6593Z"
        fill="black" />
    <path
        d="M57.2105 60.007C57.7704 58.6882 57.1524 57.1664 55.8304 56.608C54.5083 56.0495 52.9827 56.6659 52.4228 57.9847C51.863 59.3035 52.4809 60.8253 53.803 61.3837C55.1251 61.9421 56.6507 61.3257 57.2105 60.007Z"
        fill="#E42F35" />
    <path
        d="M59.4189 55.7227C59.7516 55.7191 60.0806 55.574 60.3115 55.2984C60.7278 54.7997 60.6605 54.0581 60.1588 53.641C58.5263 52.2864 56.6775 51.581 54.8141 51.6046C52.9507 51.6281 51.1219 52.3771 49.5221 53.7734C49.0313 54.2013 48.9822 54.9448 49.4112 55.4326C49.8403 55.9222 50.5856 55.9712 51.0746 55.5432C52.2617 54.506 53.5288 53.9728 54.8414 53.9565C56.1539 53.9402 57.4355 54.4425 58.6481 55.4489C58.8717 55.6357 59.1462 55.7246 59.4171 55.7209L59.4189 55.7227Z"
        fill="#E42F35" />
    <path
        d="M47.5304 51.6299C47.7995 51.6263 48.0685 51.532 48.2866 51.3434C50.3173 49.5881 52.5006 48.685 54.7766 48.656C57.0526 48.627 59.2578 49.4774 61.332 51.1802C61.8356 51.5936 62.5773 51.5211 62.9918 51.0206C63.4063 50.5183 63.3335 49.7785 62.8318 49.365C60.3503 47.3268 57.5562 46.2696 54.7475 46.304C51.9388 46.3385 49.172 47.4664 46.7432 49.5663C46.2506 49.9924 46.1979 50.7341 46.6233 51.2255C46.8596 51.4975 47.1941 51.6354 47.5304 51.6317V51.6299Z"
        fill="#E42F35" />
    <path
        d="M44.7451 47.4229C45.0178 47.4193 45.2904 47.3232 45.5104 47.1292C48.3827 44.6031 51.4768 43.3011 54.7091 43.2612C57.9413 43.2213 61.0681 44.4454 64.0023 46.8989C64.5022 47.3159 65.2457 47.2507 65.6638 46.7538C66.082 46.2551 66.0165 45.5134 65.5184 45.0964C63.8841 43.7291 62.1534 42.681 60.3719 41.9774C58.5176 41.2448 56.6015 40.8857 54.68 40.9093C52.7584 40.9329 50.8515 41.3409 49.0154 42.1188C47.2538 42.8659 45.5486 43.9576 43.9488 45.3647C43.4598 45.7945 43.4144 46.538 43.8452 47.0258C44.0815 47.2942 44.4142 47.4284 44.7451 47.4247V47.4229Z"
        fill="#E42F35" />
    <path
        d="M54.8959 227.845C54.7141 227.845 54.5341 227.845 54.3541 227.839C54.1324 227.836 53.9542 227.653 53.9597 227.429C53.9633 227.21 54.1433 227.036 54.3632 227.036C54.3651 227.036 54.3687 227.036 54.3705 227.036C55.9248 227.065 57.5264 226.965 59.1244 226.742C59.3443 226.711 59.5479 226.864 59.5788 227.085C59.6097 227.304 59.457 227.507 59.2352 227.538C57.7791 227.741 56.3193 227.845 54.8959 227.845V227.845ZM49.5639 227.328C49.5367 227.328 49.5112 227.326 49.4839 227.321C47.8351 226.989 46.259 226.497 44.7974 225.859C44.5938 225.77 44.501 225.533 44.5901 225.33C44.6792 225.126 44.9155 225.034 45.1209 225.123C46.528 225.738 48.0496 226.211 49.6439 226.532C49.8621 226.575 50.0021 226.788 49.9584 227.005C49.9202 227.196 49.7512 227.328 49.5639 227.328V227.328ZM63.9 226.525C63.7255 226.525 63.5655 226.41 63.5128 226.236C63.451 226.024 63.5728 225.801 63.7873 225.738C65.3107 225.293 66.816 224.737 68.2612 224.084C68.463 223.991 68.703 224.084 68.7939 224.283C68.8847 224.485 68.7939 224.724 68.5921 224.815C67.1123 225.484 65.5707 226.053 64.0109 226.506C63.9727 226.517 63.9346 226.523 63.8982 226.523L63.9 226.525ZM40.8125 223.449C40.727 223.449 40.6398 223.422 40.5653 223.364C39.2618 222.356 38.1002 221.181 37.1094 219.871C36.9749 219.694 37.0112 219.442 37.1876 219.309C37.3657 219.175 37.6166 219.211 37.7511 219.387C38.7001 220.64 39.8126 221.764 41.0597 222.729C41.2361 222.865 41.267 223.117 41.1306 223.293C41.0506 223.395 40.9325 223.449 40.8125 223.449V223.449ZM72.6733 222.559C72.5406 222.559 72.4115 222.493 72.3333 222.374C72.2134 222.187 72.2679 221.939 72.4551 221.819C73.8095 220.956 75.0911 219.995 76.2655 218.965C76.4309 218.818 76.6854 218.834 76.8345 219.001C76.9817 219.168 76.9654 219.422 76.7981 219.568C75.5929 220.626 74.2785 221.612 72.8878 222.497C72.8205 222.541 72.746 222.561 72.6715 222.561L72.6733 222.559ZM79.925 216.239C79.8286 216.239 79.7341 216.206 79.6577 216.138C79.4923 215.991 79.4759 215.737 79.625 215.57C80.6739 214.395 81.6956 213.149 82.6609 211.865C82.7954 211.688 83.0463 211.651 83.2245 211.785C83.4026 211.918 83.4372 212.17 83.3045 212.348C82.3246 213.65 81.2884 214.914 80.2267 216.105C80.1467 216.194 80.0377 216.239 79.9268 216.239H79.925ZM35.0406 215.862C34.8843 215.862 34.7352 215.769 34.6698 215.615C34.0589 214.165 33.5863 212.589 33.2645 210.93C33.2227 210.712 33.3663 210.502 33.5845 210.46C33.8044 210.418 34.0135 210.561 34.0571 210.779C34.3662 212.384 34.8225 213.907 35.4133 215.305C35.4987 215.51 35.4024 215.746 35.1988 215.831C35.1479 215.853 35.0951 215.862 35.0424 215.862H35.0406ZM33.15 206.471C32.9336 206.471 32.7537 206.298 32.7482 206.079C32.7409 205.814 32.7373 205.551 32.7373 205.288C32.7373 203.892 32.8409 202.517 33.0445 201.204C33.0791 200.985 33.2845 200.835 33.5045 200.869C33.7244 200.903 33.8753 201.108 33.8408 201.328C33.6426 202.601 33.5426 203.934 33.5426 205.288C33.5426 205.542 33.5463 205.798 33.5535 206.057C33.559 206.278 33.3845 206.463 33.1627 206.469C33.1591 206.469 33.1554 206.469 33.1518 206.469L33.15 206.471ZM34.6716 197.019C34.6243 197.019 34.5752 197.01 34.528 196.992C34.3207 196.912 34.2171 196.68 34.2971 196.473C34.8915 194.93 35.6587 193.47 36.5767 192.134C36.7022 191.951 36.9531 191.904 37.1367 192.031C37.3203 192.156 37.3675 192.406 37.2421 192.589C36.3586 193.875 35.6205 195.278 35.0497 196.764C34.9879 196.923 34.8352 197.021 34.6734 197.021L34.6716 197.019ZM40.089 189.151C39.9781 189.151 39.869 189.106 39.789 189.017C39.6399 188.852 39.6545 188.598 39.8199 188.449C41.0288 187.368 42.3795 186.418 43.832 185.624C44.0284 185.517 44.272 185.59 44.3792 185.784C44.4865 185.978 44.4138 186.222 44.2193 186.329C42.8195 187.095 41.5197 188.009 40.3562 189.048C40.2798 189.117 40.1835 189.151 40.0871 189.151H40.089ZM71.3953 188.816C71.3117 188.816 71.2299 188.79 71.1571 188.738C69.8755 187.796 68.5103 186.966 67.0977 186.268C66.8978 186.17 66.816 185.929 66.9159 185.729C67.0141 185.53 67.2559 185.448 67.4559 185.548C68.9102 186.266 70.3154 187.122 71.6353 188.09C71.8152 188.223 71.8534 188.473 71.7207 188.652C71.6425 188.759 71.5189 188.816 71.3953 188.816V188.816ZM62.7784 184.567C62.742 184.567 62.7038 184.561 62.6675 184.55C61.1404 184.112 59.5716 183.811 58.0027 183.656C57.7809 183.635 57.6191 183.439 57.6409 183.218C57.6628 182.996 57.8554 182.835 58.0809 182.857C59.6988 183.016 61.3168 183.326 62.8911 183.778C63.1038 183.84 63.2274 184.063 63.1656 184.275C63.1147 184.451 62.9529 184.565 62.7784 184.565V184.567ZM48.4786 184.536C48.3041 184.536 48.1441 184.424 48.0932 184.248C48.0296 184.035 48.1514 183.811 48.3641 183.749C49.9148 183.29 51.5364 182.982 53.1816 182.833C53.3997 182.813 53.5997 182.976 53.6197 183.198C53.6397 183.419 53.4761 183.615 53.2543 183.635C51.6618 183.778 50.0948 184.075 48.5932 184.52C48.555 184.531 48.5168 184.536 48.4786 184.536V184.536Z"
        fill="black" />
    <path
        d="M89.9982 200.65C89.9436 200.65 89.8873 200.639 89.8346 200.615C89.631 200.524 89.5401 200.287 89.631 200.084C90.2763 198.642 90.8726 197.148 91.4016 195.639C91.4743 195.431 91.7052 195.318 91.9143 195.393C92.1233 195.465 92.2342 195.695 92.1615 195.904C91.6252 197.433 91.0198 198.95 90.3654 200.41C90.2981 200.559 90.1509 200.648 89.9982 200.648V200.65ZM93.1977 191.568C93.1632 191.568 93.1286 191.565 93.0941 191.555C92.8796 191.499 92.7505 191.28 92.8087 191.064C93.2104 189.546 93.5649 187.974 93.8612 186.393C93.9012 186.175 94.1085 186.03 94.3303 186.072C94.5484 186.112 94.692 186.322 94.652 186.54C94.3521 188.141 93.9939 189.733 93.5867 191.269C93.5395 191.448 93.3759 191.568 93.1977 191.568V191.568ZM94.9793 182.102C94.9629 182.102 94.9484 182.102 94.932 182.099C94.7102 182.073 94.5521 181.874 94.5793 181.653C94.7629 180.099 94.9011 178.49 94.9902 176.876C95.0029 176.655 95.1992 176.486 95.4137 176.497C95.6355 176.51 95.8064 176.699 95.7937 176.92C95.7028 178.552 95.5646 180.175 95.3792 181.747C95.3556 181.952 95.1811 182.102 94.9793 182.102ZM95.5228 172.482C95.301 172.482 95.1211 172.303 95.1211 172.082C95.1211 170.517 95.0792 168.903 94.9974 167.283C94.9865 167.062 95.1574 166.874 95.3792 166.863C95.601 166.854 95.79 167.022 95.801 167.244C95.8828 168.876 95.9246 170.504 95.9246 172.082C95.9246 172.303 95.7446 172.484 95.5228 172.484V172.482ZM95.0502 162.857C94.8447 162.857 94.6684 162.701 94.6502 162.493C94.503 160.94 94.3194 159.334 94.1048 157.72C94.0758 157.5 94.2303 157.297 94.4502 157.268C94.6702 157.237 94.8738 157.393 94.9029 157.613C95.1192 159.238 95.3047 160.855 95.4519 162.416C95.4737 162.638 95.3101 162.833 95.0883 162.853C95.0756 162.853 95.0629 162.853 95.0502 162.853V162.857ZM93.7813 153.302C93.5886 153.302 93.4177 153.163 93.3849 152.967C93.1268 151.436 92.8341 149.844 92.5142 148.238C92.4705 148.02 92.6123 147.808 92.8305 147.766C93.0523 147.723 93.2613 147.864 93.3031 148.082C93.6249 149.696 93.9194 151.295 94.1794 152.835C94.2157 153.054 94.0685 153.261 93.8485 153.297C93.8249 153.301 93.8031 153.302 93.7813 153.302V153.302ZM91.9052 143.847C91.7216 143.847 91.5543 143.721 91.5125 143.534C91.1744 142.034 90.7999 140.458 90.4017 138.852C90.349 138.636 90.4799 138.418 90.6962 138.366C90.9108 138.313 91.1307 138.444 91.1835 138.659C91.5834 140.271 91.9579 141.851 92.2978 143.358C92.3469 143.574 92.2106 143.789 91.9942 143.838C91.9652 143.846 91.9342 143.847 91.9052 143.847V143.847Z"
        fill="black" />
    <path
        d="M82.6916 118.524C82.5408 118.524 82.3953 118.438 82.3262 118.293C81.6682 116.904 80.9355 115.464 80.1484 114.014C80.0429 113.818 80.1157 113.575 80.312 113.47C80.5083 113.365 80.7519 113.437 80.8574 113.633C81.65 115.096 82.3899 116.551 83.0534 117.951C83.1479 118.152 83.0625 118.391 82.8607 118.486C82.8044 118.511 82.7462 118.524 82.688 118.524H82.6916ZM78.1123 110.035C77.976 110.035 77.8414 109.966 77.7669 109.839C76.9616 108.499 76.1035 107.128 75.2127 105.765C75.0909 105.578 75.1437 105.329 75.3309 105.21C75.5182 105.088 75.7672 105.141 75.889 105.328C76.7852 106.7 77.6506 108.08 78.4595 109.428C78.5741 109.618 78.5123 109.865 78.3214 109.979C78.2559 110.017 78.185 110.037 78.1141 110.037L78.1123 110.035ZM72.844 101.951C72.7167 101.951 72.5913 101.891 72.5131 101.779C71.6096 100.49 70.6589 99.1785 69.6863 97.8783C69.5536 97.7006 69.5899 97.4486 69.7681 97.3162C69.9462 97.1838 70.1989 97.2201 70.3316 97.3978C71.3079 98.7034 72.2641 100.022 73.173 101.318C73.3003 101.5 73.2567 101.75 73.0731 101.877C73.0022 101.926 72.9222 101.949 72.8422 101.949L72.844 101.951ZM67.0648 94.2171C66.9449 94.2171 66.8285 94.1646 66.7485 94.0648C65.7614 92.819 64.7379 91.566 63.7053 90.3365C63.5617 90.1661 63.5853 89.9122 63.7562 89.7708C63.9271 89.6275 64.1816 89.6511 64.3234 89.8215C65.3596 91.0564 66.3886 92.3167 67.3812 93.568C67.5193 93.742 67.4902 93.9941 67.3157 94.1319C67.2412 94.1899 67.1539 94.219 67.0667 94.219L67.0648 94.2171ZM60.8603 86.8258C60.7494 86.8258 60.6385 86.7805 60.5585 86.6898C59.4878 85.4839 58.3952 84.2871 57.3099 83.1356C57.1572 82.9742 57.1663 82.7204 57.3281 82.568C57.4917 82.4157 57.7462 82.4248 57.8971 82.5862C58.986 83.7449 60.0859 84.9454 61.1621 86.1585C61.3093 86.3253 61.293 86.5792 61.1275 86.7261C61.0512 86.7932 60.9548 86.8277 60.8603 86.8277V86.8258ZM54.2413 79.7972C54.1376 79.7972 54.0358 79.7573 53.9558 79.6793C52.7869 78.5133 51.6198 77.3909 50.4873 76.3409C50.3237 76.1904 50.3146 75.9365 50.4673 75.7733C50.6182 75.6101 50.8727 75.6011 51.0363 75.7516C52.1761 76.807 53.3505 77.9385 54.5267 79.1099C54.6848 79.2677 54.6848 79.5216 54.5267 79.6775C54.4485 79.7555 54.3449 79.7954 54.2413 79.7954V79.7972Z"
        fill="black" />
    <path
        d="M56.1648 189.14H53.3034L52.6162 192.181C51.9545 192.299 51.3091 192.469 50.6892 192.692L48.5714 190.404L46.0935 191.831L47.0225 194.808C46.5153 195.236 46.0444 195.706 45.6154 196.214L42.6304 195.287L41.1997 197.759L43.4939 199.871C43.2703 200.49 43.0994 201.131 42.9813 201.793L39.9326 202.479V205.333L42.9813 206.019C43.0994 206.679 43.2703 207.322 43.4939 207.941L41.1997 210.053L42.6304 212.525L45.6154 211.598C46.0444 212.104 46.5153 212.574 47.0225 213.004L46.0935 215.981L48.5714 217.408L50.6892 215.12C51.3091 215.343 51.9527 215.513 52.6162 215.631L53.3034 218.672H56.1648L56.852 215.631C57.5137 215.513 58.159 215.343 58.7789 215.12L60.8968 217.408L63.3746 215.981L62.4457 213.004C62.9529 212.576 63.4237 212.106 63.8546 211.6L66.8396 212.527L68.2703 210.055L65.9761 207.943C66.1997 207.324 66.3706 206.682 66.4887 206.02L69.5374 205.335V202.481L66.4887 201.795C66.3706 201.135 66.1997 200.491 65.9761 199.873L68.2703 197.76L66.8396 195.289L63.8546 196.215C63.4255 195.71 62.9547 195.24 62.4457 194.81L63.3746 191.833L60.8968 190.405L58.7789 192.694C58.159 192.471 57.5155 192.3 56.852 192.182L56.1648 189.141V189.14ZM62.1003 203.906C62.1003 207.964 58.8026 211.254 54.7341 211.254C50.6656 211.254 47.3679 207.964 47.3679 203.906C47.3679 199.848 50.6656 196.558 54.7341 196.558C58.8026 196.558 62.1003 199.848 62.1003 203.906Z"
        fill="white" />
    <path
        d="M56.1652 219.073H53.3038C53.1147 219.073 52.9529 218.943 52.9111 218.759L52.2821 215.976C51.7786 215.874 51.2841 215.744 50.8078 215.584L48.8699 217.679C48.7426 217.816 48.5354 217.847 48.3736 217.755L45.8958 216.328C45.7322 216.233 45.6558 216.039 45.7122 215.86L46.563 213.134C46.183 212.799 45.8212 212.438 45.4867 212.061L42.7526 212.909C42.5744 212.966 42.3781 212.89 42.2836 212.726L40.8529 210.255C40.7583 210.092 40.7911 209.887 40.9292 209.76L43.0289 207.827C42.8689 207.35 42.7381 206.856 42.6363 206.356L39.8457 205.729C39.6621 205.687 39.5312 205.524 39.5312 205.337V202.483C39.5312 202.294 39.6621 202.133 39.8457 202.091L42.6363 201.463C42.7381 200.961 42.8689 200.468 43.0289 199.993L40.9292 198.06C40.7911 197.933 40.7602 197.726 40.8529 197.565L42.2836 195.093C42.3781 194.93 42.5726 194.854 42.7526 194.91L45.4867 195.759C45.8231 195.38 46.183 195.021 46.563 194.683L45.7122 191.956C45.6558 191.776 45.7322 191.582 45.8958 191.488L48.3736 190.061C48.5354 189.967 48.7426 189.998 48.8699 190.137L50.8078 192.232C51.2841 192.072 51.7786 191.941 52.2821 191.84L52.9111 189.056C52.9529 188.873 53.1147 188.743 53.3038 188.743H56.1652C56.3542 188.743 56.516 188.873 56.5578 189.056L57.1869 191.84C57.6904 191.941 58.1849 192.072 58.6612 192.232L60.6009 190.137C60.7282 189.999 60.9354 189.969 61.0972 190.061L63.575 191.488C63.7386 191.582 63.815 191.776 63.7586 191.956L62.9078 194.681C63.2878 195.017 63.6477 195.376 63.9859 195.757L66.7182 194.908C66.8963 194.852 67.0927 194.928 67.1872 195.091L68.6179 197.563C68.7124 197.726 68.6797 197.931 68.5416 198.06L66.4419 199.993C66.6018 200.468 66.7327 200.961 66.8345 201.463L69.625 202.091C69.8086 202.133 69.9395 202.296 69.9395 202.483V205.337C69.9395 205.525 69.8086 205.687 69.625 205.729L66.8345 206.356C66.7327 206.858 66.6018 207.352 66.4419 207.827L68.5416 209.76C68.6797 209.887 68.7106 210.093 68.6179 210.257L67.1872 212.728C67.0927 212.891 66.8963 212.966 66.7182 212.911L63.9859 212.063C63.6495 212.442 63.2878 212.802 62.9078 213.138L63.7586 215.865C63.815 216.045 63.7386 216.239 63.575 216.333L61.0972 217.76C60.9336 217.855 60.7282 217.822 60.6009 217.684L58.6612 215.59C58.1849 215.749 57.6904 215.88 57.1869 215.981L56.5578 218.765C56.516 218.948 56.3542 219.079 56.1652 219.079V219.073ZM53.6256 218.27H55.8434L56.4597 215.543C56.496 215.385 56.6215 215.263 56.7815 215.236C57.4232 215.122 58.0485 214.955 58.643 214.743C58.7957 214.688 58.9666 214.73 59.0757 214.848L60.9754 216.901L62.8951 215.795L62.0607 213.123C62.0134 212.969 62.0607 212.803 62.1861 212.697C62.6733 212.286 63.1314 211.829 63.5477 211.341C63.6532 211.218 63.8204 211.169 63.975 211.218L66.6527 212.048L67.7617 210.133L65.7038 208.238C65.5856 208.129 65.5438 207.959 65.5983 207.807C65.8129 207.214 65.9783 206.588 66.0946 205.95C66.1237 205.79 66.2437 205.665 66.4019 205.629L69.136 205.014V202.802L66.4019 202.187C66.2437 202.151 66.1219 202.026 66.0946 201.866C65.9801 201.228 65.8129 200.602 65.5983 200.009C65.5438 199.857 65.5856 199.688 65.7038 199.578L67.7617 197.683L66.6527 195.768L63.975 196.598C63.8222 196.645 63.6532 196.598 63.5477 196.475C63.1333 195.985 62.6751 195.53 62.1861 195.117C62.0625 195.013 62.0134 194.845 62.0607 194.691L62.8951 192.019L60.9754 190.913L59.0757 192.966C58.9666 193.084 58.7975 193.126 58.643 193.071C58.0485 192.857 57.4232 192.692 56.7815 192.578C56.6215 192.549 56.496 192.429 56.4597 192.272L55.8434 189.544H53.6256L53.0093 192.272C52.9729 192.429 52.8475 192.551 52.6875 192.578C52.0458 192.692 51.4204 192.859 50.826 193.071C50.6751 193.126 50.5024 193.084 50.3933 192.966L48.4936 190.913L46.5739 192.019L47.4065 194.691C47.4537 194.845 47.4065 195.011 47.2828 195.117C46.7938 195.53 46.3357 195.987 45.923 196.475C45.8176 196.598 45.6504 196.647 45.4958 196.598L42.818 195.768L41.7091 197.683L43.767 199.578C43.8852 199.686 43.927 199.857 43.8724 200.009C43.6579 200.602 43.4925 201.228 43.378 201.866C43.3489 202.026 43.2289 202.153 43.0707 202.187L40.3366 202.802V205.014L43.0707 205.629C43.2289 205.665 43.3507 205.79 43.378 205.95C43.4925 206.588 43.6579 207.212 43.8724 207.807C43.927 207.959 43.8852 208.128 43.767 208.238L41.7091 210.133L42.818 212.048L45.4958 211.218C45.6504 211.17 45.8176 211.218 45.923 211.341C46.3357 211.829 46.7938 212.286 47.2828 212.699C47.4065 212.803 47.4555 212.971 47.4065 213.125L46.5739 215.796L48.4936 216.903L50.3933 214.85C50.5024 214.732 50.6733 214.69 50.826 214.745C51.4204 214.959 52.0458 215.124 52.6875 215.238C52.8475 215.267 52.9729 215.387 53.0093 215.544L53.6256 218.272V218.27ZM54.7345 211.655C50.4515 211.655 46.9647 208.178 46.9647 203.904C46.9647 199.63 50.4497 196.154 54.7345 196.154C59.0193 196.154 62.5024 199.63 62.5024 203.904C62.5024 208.178 59.0175 211.655 54.7345 211.655ZM54.7345 196.959C50.895 196.959 47.77 200.074 47.77 203.906C47.77 207.738 50.8932 210.853 54.7345 210.853C58.5757 210.853 61.6971 207.738 61.6971 203.906C61.6971 200.074 58.5739 196.959 54.7345 196.959Z"
        fill="black" />
    <path
        d="M40.6768 137.586H35.7793L34.6031 142.79C33.4687 142.993 32.3671 143.285 31.3054 143.666L27.6823 139.751L23.4411 142.194L25.03 147.289C24.161 148.022 23.3557 148.827 22.6212 149.692L17.5129 148.105L15.0641 152.336L18.989 155.95C18.6073 157.007 18.3146 158.108 18.111 159.239L12.8936 160.413V165.298L18.111 166.471C18.3146 167.603 18.6073 168.702 18.989 169.759L15.0641 173.373L17.5129 177.603L22.6212 176.019C23.3557 176.885 24.1628 177.689 25.03 178.421L23.4411 183.517L27.6823 185.959L31.3054 182.044C32.3653 182.425 33.4687 182.717 34.6031 182.92L35.7793 188.125H40.6768L41.853 182.92C42.9873 182.717 44.089 182.425 45.1488 182.044L48.7719 185.959L53.0131 183.517L51.4243 178.421C52.2932 177.689 53.0986 176.884 53.833 176.019L58.9414 177.603L61.3901 173.373L57.4652 169.759C57.847 168.702 58.1397 167.601 58.3433 166.471L63.5607 165.298V160.413L58.3433 159.239C58.1397 158.108 57.847 157.009 57.4652 155.95L61.3901 152.336L58.9414 148.105L53.833 149.692C53.0986 148.825 52.2914 148.022 51.4243 147.289L53.0131 142.194L48.7719 139.751L45.1488 143.666C44.089 143.285 42.9855 142.993 41.8511 142.79L40.6749 137.586H40.6768ZM50.8335 162.853C50.8335 169.797 45.1907 175.427 38.228 175.427C31.2672 175.427 25.6226 169.799 25.6226 162.853C25.6226 155.91 31.2654 150.28 38.228 150.28C45.1888 150.28 50.8335 155.908 50.8335 162.853Z"
        fill="white" />
    <path
        d="M40.6763 188.522H35.7788C35.5898 188.522 35.428 188.391 35.3862 188.208L34.2682 183.263C33.2938 183.076 32.3375 182.822 31.4213 182.508L27.9782 186.229C27.8509 186.367 27.6437 186.398 27.4819 186.306L23.2407 183.863C23.0771 183.769 23.0007 183.575 23.0571 183.395L24.5678 178.552C23.8297 177.912 23.1316 177.215 22.4881 176.477L17.6324 177.984C17.4524 178.04 17.2579 177.964 17.1634 177.801L14.7147 173.57C14.6201 173.407 14.6528 173.202 14.791 173.073L18.5214 169.639C18.2051 168.725 17.9524 167.773 17.7651 166.799L12.8077 165.684C12.6241 165.642 12.4932 165.479 12.4932 165.292V160.407C12.4932 160.218 12.6241 160.057 12.8077 160.015L17.7651 158.9C17.9524 157.928 18.2069 156.974 18.5214 156.06L14.791 152.626C14.6528 152.499 14.6219 152.292 14.7147 152.129L17.1634 147.898C17.2579 147.735 17.4524 147.659 17.6324 147.715L22.4881 149.222C23.1298 148.484 23.8279 147.79 24.5678 147.148L23.0571 142.304C23.0007 142.125 23.0771 141.931 23.2407 141.836L27.4819 139.394C27.6437 139.299 27.8509 139.33 27.9782 139.47L31.4213 143.191C32.3375 142.875 33.2938 142.623 34.2682 142.437L35.3862 137.491C35.428 137.308 35.5898 137.178 35.7788 137.178H40.6763C40.8654 137.178 41.0272 137.308 41.069 137.491L42.187 142.437C43.1614 142.623 44.1176 142.877 45.0339 143.191L48.477 139.47C48.6042 139.332 48.8115 139.301 48.9733 139.394L53.2145 141.836C53.3781 141.931 53.4544 142.125 53.3981 142.304L51.8874 147.148C52.6273 147.79 53.3254 148.484 53.9671 149.222L58.8228 147.715C59.0009 147.659 59.1972 147.735 59.2918 147.898L61.7405 152.129C61.835 152.292 61.8023 152.497 61.6642 152.626L57.9338 156.06C58.2501 156.974 58.5028 157.926 58.69 158.9L63.6475 160.015C63.8311 160.057 63.962 160.22 63.962 160.407V165.292C63.962 165.481 63.8311 165.642 63.6475 165.684L58.69 166.799C58.5028 167.771 58.2483 168.725 57.9338 169.639L61.6642 173.073C61.8023 173.2 61.8332 173.407 61.7405 173.57L59.2918 177.801C59.1972 177.964 59.0009 178.038 58.8228 177.984L53.9671 176.477C53.3236 177.215 52.6255 177.912 51.8874 178.552L53.3981 183.395C53.4544 183.575 53.3781 183.769 53.2145 183.863L48.9733 186.306C48.8097 186.4 48.6042 186.369 48.477 186.229L45.0339 182.508C44.1176 182.824 43.1632 183.076 42.187 183.263L41.069 188.208C41.0272 188.391 40.8654 188.522 40.6763 188.522V188.522ZM36.1024 187.718H40.3545L41.4598 182.828C41.4962 182.67 41.6216 182.548 41.7816 182.521C42.8942 182.322 43.9813 182.033 45.012 181.663C45.1648 181.609 45.3356 181.651 45.4447 181.769L48.8497 185.448L52.5328 183.326L51.0384 178.537C50.9912 178.383 51.0384 178.216 51.1639 178.111C52.011 177.395 52.8073 176.602 53.5253 175.755C53.6308 175.632 53.7999 175.583 53.9526 175.632L58.7537 177.123L60.8806 173.449L57.1921 170.052C57.0739 169.944 57.0321 169.773 57.0866 169.621C57.4575 168.591 57.7465 167.506 57.9465 166.398C57.9756 166.239 58.0956 166.114 58.2537 166.077L63.1567 164.975V160.733L58.2537 159.631C58.0956 159.595 57.9738 159.47 57.9465 159.31C57.7484 158.2 57.4575 157.116 57.0866 156.086C57.0321 155.933 57.0739 155.765 57.1921 155.654L60.8806 152.258L58.7537 148.584L53.9526 150.074C53.7999 150.122 53.6308 150.074 53.5253 149.951C52.8073 149.106 52.0128 148.312 51.1639 147.596C51.0403 147.492 50.9912 147.324 51.0403 147.169L52.5346 142.38L48.8515 140.259L45.4465 143.938C45.3375 144.056 45.1684 144.098 45.0139 144.043C43.9813 143.673 42.8942 143.385 41.7834 143.185C41.6234 143.156 41.498 143.037 41.4617 142.879L40.3564 137.988H36.1043L34.999 142.879C34.9626 143.037 34.8372 143.158 34.6772 143.185C33.5646 143.383 32.4775 143.673 31.4468 144.043C31.2922 144.098 31.1232 144.056 31.0141 143.938L27.6091 140.259L23.926 142.38L25.4204 147.169C25.4676 147.324 25.4204 147.49 25.2967 147.596C24.4478 148.312 23.6534 149.104 22.9353 149.951C22.8298 150.074 22.6626 150.123 22.5081 150.074L17.7069 148.584L15.58 152.258L19.2685 155.654C19.3867 155.763 19.4285 155.933 19.374 156.086C19.0031 157.114 18.7141 158.198 18.5141 159.308C18.485 159.468 18.365 159.593 18.2069 159.629L13.304 160.732V164.973L18.2069 166.076C18.365 166.112 18.4868 166.237 18.5141 166.397C18.7123 167.506 19.0031 168.591 19.374 169.619C19.4285 169.771 19.3867 169.94 19.2685 170.051L15.58 173.447L17.7069 177.121L22.5081 175.63C22.6626 175.583 22.8298 175.63 22.9353 175.754C23.6534 176.6 24.4496 177.393 25.2967 178.109C25.4204 178.213 25.4694 178.381 25.4204 178.535L23.926 183.324L27.6091 185.446L31.0141 181.767C31.1232 181.649 31.2922 181.607 31.4468 181.662C32.4793 182.031 33.5664 182.32 34.6772 182.519C34.8372 182.548 34.9626 182.668 34.999 182.826L36.1043 187.716L36.1024 187.718ZM38.2294 175.828C31.0559 175.828 25.2222 170.007 25.2222 162.853C25.2222 159.388 26.5747 156.129 29.0326 153.678C31.4904 151.228 34.7554 149.877 38.2312 149.877C45.4047 149.877 51.2384 155.698 51.2384 162.851C51.2384 170.005 45.4029 175.826 38.2312 175.826L38.2294 175.828ZM38.2294 150.68C34.9699 150.68 31.9049 151.946 29.6016 154.245C27.2965 156.545 26.0275 159.6 26.0275 162.851C26.0275 169.563 31.5013 175.023 38.2294 175.023C44.9575 175.023 50.4313 169.563 50.4313 162.851C50.4313 156.14 44.9575 150.68 38.2294 150.68V150.68Z"
        fill="black" />
    <path
        d="M109.06 124.602H173.651C175.603 124.602 176.725 123.023 176.156 121.075L163.72 78.4884C163.151 76.5409 161.107 74.9614 159.155 74.9614H94.5642C92.6118 74.9614 91.4901 76.5409 92.0591 78.4884L104.496 121.075C105.065 123.023 107.108 124.602 109.06 124.602V124.602Z"
        fill="white" />
    <path
        d="M173.651 125.003H109.06C106.944 125.003 104.723 123.291 104.108 121.188L91.672 78.6007C91.352 77.5073 91.4974 76.4773 92.081 75.703C92.6355 74.9667 93.5171 74.5605 94.5643 74.5605H159.155C161.271 74.5605 163.492 76.2724 164.107 78.3759L176.543 120.963C176.863 122.056 176.718 123.085 176.134 123.861C175.58 124.597 174.698 125.003 173.651 125.003ZM94.5643 75.3639C93.7771 75.3639 93.1245 75.6558 92.7264 76.1853C92.2991 76.7529 92.1992 77.5309 92.4464 78.3759L104.883 120.963C105.405 122.747 107.279 124.2 109.06 124.2H173.651C174.438 124.2 175.091 123.908 175.489 123.378C175.916 122.811 176.016 122.033 175.769 121.188L163.332 78.6007C162.811 76.8164 160.936 75.3639 159.155 75.3639H94.5643V75.3639Z"
        fill="black" />
    <path
        d="M112.217 86.8387H108.654C107.852 86.8387 107.043 86.2185 106.812 85.4261L105.774 81.8719C105.649 81.4457 105.712 81.0214 105.948 80.7077C106.176 80.4066 106.543 80.2344 106.959 80.2344H110.522C111.324 80.2344 112.133 80.8545 112.364 81.647L113.402 85.2012C113.527 85.6273 113.464 86.0535 113.227 86.3654C113 86.6664 112.633 86.8387 112.217 86.8387ZM106.959 81.0359C106.845 81.0359 106.687 81.0631 106.592 81.1882C106.508 81.2988 106.492 81.4602 106.547 81.6452L107.585 85.1994C107.717 85.6527 108.206 86.0335 108.654 86.0335H112.217C112.331 86.0335 112.489 86.0063 112.584 85.8812C112.667 85.7706 112.684 85.6092 112.629 85.4242L111.591 81.87C111.459 81.4185 110.97 81.0359 110.522 81.0359H106.959Z"
        fill="black" />
    <path
        d="M104.781 86.8387H101.218C100.416 86.8387 99.6073 86.2185 99.3765 85.4261L98.3384 81.8719C98.213 81.4457 98.2766 81.0214 98.5129 80.7077C98.7402 80.4066 99.1074 80.2344 99.5237 80.2344H103.087C103.889 80.2344 104.697 80.8545 104.928 81.647L105.966 85.2012C106.092 85.6273 106.028 86.0517 105.792 86.3654C105.565 86.6664 105.197 86.8387 104.781 86.8387ZM99.5237 81.0359C99.4092 81.0359 99.251 81.0631 99.1565 81.1882C99.0729 81.2988 99.0565 81.4602 99.111 81.6452L100.149 85.1994C100.282 85.6527 100.771 86.0335 101.218 86.0335H104.781C104.896 86.0335 105.052 86.0063 105.148 85.8812C105.232 85.7706 105.248 85.6092 105.194 85.4242L104.156 81.87C104.023 81.4167 103.534 81.0359 103.087 81.0359H99.5237Z"
        fill="black" />
    <path
        d="M114.589 94.9607H111.026C110.224 94.9607 109.415 94.3406 109.184 93.5481L108.146 89.9939C108.021 89.5678 108.084 89.1435 108.321 88.8297C108.548 88.5287 108.915 88.3564 109.331 88.3564H112.894C113.696 88.3564 114.505 88.9766 114.736 89.7691L115.774 93.3233C115.899 93.7494 115.836 94.1737 115.599 94.4875C115.372 94.7885 115.005 94.9607 114.589 94.9607ZM109.331 89.158C109.217 89.158 109.059 89.1852 108.964 89.3103C108.88 89.4209 108.864 89.5823 108.919 89.7672L109.957 93.3215C110.089 93.7748 110.578 94.1556 111.026 94.1556H114.589C114.703 94.1556 114.861 94.1284 114.956 94.0033C115.04 93.8927 115.056 93.7295 115.001 93.5463L113.963 89.9921C113.831 89.5406 113.342 89.158 112.894 89.158H109.331Z"
        fill="black" />
    <path
        d="M107.153 94.9607H103.59C102.788 94.9607 101.979 94.3406 101.749 93.5481L100.71 89.9939C100.585 89.5678 100.649 89.1435 100.885 88.8297C101.112 88.5287 101.479 88.3564 101.896 88.3564H105.459C106.261 88.3564 107.07 88.9766 107.3 89.7691L108.338 93.3233C108.464 93.7494 108.4 94.1737 108.164 94.4875C107.937 94.7885 107.569 94.9607 107.153 94.9607ZM101.896 89.158C101.781 89.158 101.623 89.1852 101.529 89.3103C101.445 89.4209 101.429 89.5841 101.483 89.7672L102.521 93.3215C102.654 93.7748 103.143 94.1556 103.59 94.1556H107.153C107.268 94.1556 107.424 94.1284 107.52 94.0033C107.604 93.8927 107.62 93.7295 107.566 93.5463L106.528 89.9921C106.395 89.5388 105.906 89.158 105.459 89.158H101.896Z"
        fill="black" />
    <path
        d="M111.706 96.8813H115.269C115.891 96.8813 116.543 97.3855 116.723 98.0056L117.761 101.56C117.943 102.18 117.585 102.684 116.963 102.684H113.4C112.778 102.684 112.126 102.182 111.946 101.56L110.908 98.0056C110.726 97.3855 111.084 96.8813 111.706 96.8813V96.8813Z"
        fill="white" />
    <path
        d="M104.268 96.8813H107.831C108.453 96.8813 109.106 97.3855 109.286 98.0056L110.324 101.56C110.506 102.18 110.147 102.684 109.526 102.684H105.963C105.341 102.684 104.688 102.182 104.508 101.56L103.47 98.0056C103.288 97.3855 103.647 96.8813 104.268 96.8813V96.8813Z"
        fill="white" />
    <path
        d="M114.078 105.005H117.641C118.263 105.005 118.915 105.507 119.095 106.129L120.133 109.683C120.315 110.304 119.957 110.808 119.335 110.808H115.772C115.15 110.808 114.498 110.304 114.318 109.683L113.28 106.129C113.098 105.509 113.456 105.005 114.078 105.005Z"
        fill="white" />
    <path
        d="M106.641 105.005H110.204C110.826 105.005 111.479 105.507 111.659 106.129L112.697 109.683C112.879 110.304 112.52 110.808 111.899 110.808H108.336C107.714 110.808 107.061 110.304 106.881 109.683L105.843 106.129C105.661 105.509 106.02 105.005 106.641 105.005Z"
        fill="white" />
    <path
        d="M116.45 113.129H120.013C120.635 113.129 121.287 113.633 121.467 114.253L122.505 117.807C122.687 118.428 122.329 118.932 121.707 118.932H118.144C117.522 118.932 116.87 118.428 116.69 117.807L115.652 114.253C115.47 113.633 115.828 113.129 116.45 113.129Z"
        fill="white" />
    <path
        d="M109.013 113.129H112.576C113.198 113.129 113.851 113.633 114.031 114.253L115.069 117.807C115.251 118.428 114.892 118.932 114.271 118.932H110.708C110.086 118.932 109.433 118.428 109.253 117.807L108.215 114.253C108.033 113.633 108.392 113.129 109.013 113.129Z"
        fill="white" />
    <path
        d="M169.117 119.333H127.205C127.027 119.333 126.868 119.215 126.818 119.043L115.634 80.746C115.599 80.6245 115.623 80.4939 115.697 80.3923C115.772 80.2908 115.894 80.231 116.019 80.231H157.931C158.109 80.231 158.268 80.3488 158.318 80.5211L169.502 118.818C169.537 118.939 169.513 119.07 169.439 119.171C169.362 119.273 169.244 119.333 169.117 119.333V119.333ZM127.507 118.529H168.579L157.629 81.0361H116.557L127.507 118.529V118.529Z"
        fill="black" />
    <path
        d="M161.729 109.123C161.644 109.123 161.557 109.096 161.482 109.04L152.198 101.859C151.483 101.306 150.611 101.056 149.807 101.175C149.169 101.27 148.626 101.592 148.275 102.086L145.893 105.429C145.579 105.87 145.097 106.158 144.539 106.242C143.885 106.338 143.179 106.142 142.61 105.701L131.95 97.4561C131.235 96.903 130.365 96.6527 129.559 96.7724C128.923 96.8667 128.378 97.1895 128.027 97.6827L127.394 98.5713C127.265 98.7526 127.014 98.7943 126.832 98.6656C126.651 98.5368 126.609 98.2866 126.738 98.1052L127.371 97.2167C127.851 96.5439 128.587 96.1033 129.443 95.9764C130.463 95.8258 131.557 96.1341 132.444 96.8214L143.105 105.067C143.501 105.373 143.981 105.511 144.423 105.448C144.663 105.411 145.001 105.299 145.239 104.965L147.62 101.621C148.1 100.949 148.837 100.508 149.693 100.381C150.713 100.231 151.807 100.539 152.694 101.226L161.978 108.407C162.153 108.543 162.186 108.795 162.049 108.971C161.969 109.073 161.851 109.127 161.731 109.127L161.729 109.123Z"
        fill="black" />
    <path
        d="M149.947 96.1559C147.175 96.1559 144.265 93.9109 143.459 91.1528C143.045 89.7329 143.23 88.4001 143.985 87.3991C144.699 86.4489 145.839 85.9248 147.195 85.9248C149.967 85.9248 152.878 88.1698 153.683 90.9279C154.098 92.3478 153.91 93.6806 153.158 94.6816C152.443 95.6318 151.304 96.1559 149.947 96.1559V96.1559ZM147.195 86.7299C146.099 86.7299 145.188 87.1398 144.628 87.8814C144.032 88.6757 143.89 89.7583 144.232 90.9279C144.944 93.3669 147.508 95.3525 149.947 95.3525C151.044 95.3525 151.954 94.9427 152.514 94.201C153.111 93.4068 153.252 92.3242 152.911 91.1546C152.198 88.7156 149.635 86.7299 147.195 86.7299Z"
        fill="black" />
    <path
        d="M83.6548 92.4072H134.022C135.887 92.4072 137.84 93.916 138.383 95.7747L148.251 129.565C148.794 131.426 147.722 132.932 145.858 132.932H95.4912C93.6261 132.932 91.6736 131.424 91.1301 129.565L81.2624 95.7747C80.7189 93.9141 81.7914 92.4072 83.6548 92.4072Z"
        fill="white" />
    <path
        d="M145.859 133.335H95.4914C93.4626 133.335 91.3338 131.694 90.7448 129.678L80.8772 95.8873C80.57 94.8374 80.7099 93.8491 81.2699 93.1038C81.8025 92.3948 82.6497 92.0049 83.6568 92.0049H134.024C136.053 92.0049 138.182 93.646 138.771 95.6625L148.638 129.453C148.945 130.503 148.805 131.491 148.246 132.236C147.713 132.945 146.866 133.335 145.859 133.335ZM83.6568 92.8082C82.9096 92.8082 82.2915 93.0838 81.9152 93.5861C81.5098 94.1247 81.4171 94.8609 81.6516 95.6625L91.5193 129.453C92.0156 131.15 93.7971 132.532 95.4932 132.532H145.86C146.608 132.532 147.226 132.256 147.602 131.754C148.007 131.215 148.1 130.479 147.866 129.678L137.998 95.8873C137.502 94.19 135.72 92.8082 134.024 92.8082H83.655H83.6568Z"
        fill="black" />
    <path
        d="M138.76 130.94C138.585 130.94 138.424 130.825 138.373 130.65L127.938 94.917C127.876 94.7049 127.998 94.4818 128.212 94.4184C128.425 94.3567 128.649 94.4782 128.712 94.6922L139.147 130.425C139.209 130.637 139.087 130.86 138.873 130.923C138.835 130.934 138.796 130.94 138.76 130.94Z"
        fill="black" />
    <path
        d="M96.2878 126.997H133.759C134.362 126.997 134.709 126.51 134.533 125.908L126.803 99.436C126.627 98.834 125.996 98.3462 125.391 98.3462H87.92C87.3164 98.3462 86.9692 98.834 87.1455 99.436L94.8753 125.908C95.0516 126.51 95.6824 126.997 96.2878 126.997Z"
        fill="black" />
    <path
        d="M139.31 115.734C137.645 115.734 135.962 114.438 135.478 112.784C135.233 111.941 135.351 111.112 135.802 110.51C136.24 109.928 136.932 109.609 137.754 109.609C139.419 109.609 141.103 110.905 141.586 112.559C141.833 113.402 141.715 114.231 141.263 114.833C140.824 115.415 140.132 115.734 139.308 115.734H139.31ZM136.251 112.559C136.632 113.867 138.005 114.931 139.31 114.931C139.874 114.931 140.337 114.724 140.619 114.351C140.923 113.948 140.992 113.392 140.814 112.784C140.432 111.477 139.059 110.412 137.754 110.412C137.192 110.412 136.727 110.619 136.445 110.992C136.142 111.395 136.072 111.952 136.249 112.559H136.251Z"
        fill="black" />
    <path
        d="M136.921 101.288C136.747 101.288 136.585 101.173 136.534 100.997L135.802 98.4859C135.691 98.1051 135.263 97.7714 134.887 97.7714H132.92C132.698 97.7714 132.517 97.5919 132.517 97.3689C132.517 97.1458 132.697 96.9663 132.92 96.9663H134.887C135.622 96.9663 136.361 97.5339 136.574 98.2611L137.307 100.773C137.369 100.985 137.247 101.208 137.032 101.271C136.994 101.282 136.956 101.288 136.92 101.288H136.921Z"
        fill="black" />
    <path
        d="M137.807 107.767H135.84C135.106 107.767 134.366 107.199 134.153 106.474L132.553 100.998C132.491 100.785 132.613 100.562 132.828 100.499C133.04 100.437 133.266 100.559 133.328 100.773L134.927 106.249C135.038 106.63 135.465 106.964 135.842 106.964H137.809C137.901 106.964 138.029 106.944 138.101 106.844C138.167 106.757 138.18 106.625 138.136 106.472C138.074 106.26 138.196 106.037 138.41 105.974C138.625 105.912 138.849 106.033 138.91 106.247C139.025 106.643 138.967 107.034 138.749 107.324C138.538 107.604 138.196 107.765 137.811 107.765L137.807 107.767Z"
        fill="black" />
    <path
        d="M135.916 101.288H133.949C133.727 101.288 133.547 101.108 133.547 100.885C133.547 100.662 133.727 100.482 133.949 100.482H135.916C136.137 100.482 136.319 100.662 136.319 100.885C136.319 101.108 136.139 101.288 135.916 101.288Z"
        fill="black" />
    <path
        d="M136.467 103.177H134.5C134.278 103.177 134.097 102.998 134.097 102.775C134.097 102.552 134.277 102.374 134.5 102.374H136.467C136.689 102.374 136.871 102.554 136.871 102.775C136.871 102.996 136.691 103.177 136.467 103.177Z"
        fill="black" />
    <path
        d="M143.826 128.376H141.859C141.124 128.376 140.385 127.808 140.172 127.083L139.732 125.578C139.67 125.366 139.792 125.142 140.006 125.079C140.219 125.017 140.443 125.139 140.506 125.353L140.946 126.858C141.057 127.239 141.484 127.572 141.859 127.572H143.826C144.048 127.572 144.229 127.752 144.229 127.975C144.229 128.198 144.049 128.378 143.826 128.378V128.376Z"
        fill="black" />
    <path
        d="M143.99 125.487C143.815 125.487 143.653 125.373 143.602 125.197L141.819 119.093C141.708 118.712 141.281 118.379 140.906 118.379H138.94C138.847 118.379 138.72 118.399 138.647 118.498C138.581 118.585 138.569 118.718 138.612 118.87L138.96 120.06C139.021 120.272 138.9 120.495 138.685 120.558C138.47 120.622 138.247 120.499 138.187 120.285L137.84 119.095C137.725 118.7 137.783 118.308 138.001 118.018C138.212 117.739 138.554 117.577 138.94 117.577H140.906C141.641 117.577 142.381 118.145 142.594 118.87L144.377 124.974C144.439 125.186 144.317 125.409 144.102 125.473C144.064 125.483 144.026 125.489 143.99 125.489V125.487Z"
        fill="black" />
    <path
        d="M141.438 120.194H138.796C138.574 120.194 138.393 120.014 138.393 119.791C138.393 119.568 138.573 119.389 138.796 119.389H141.438C141.659 119.389 141.841 119.568 141.841 119.791C141.841 120.014 141.661 120.194 141.438 120.194Z"
        fill="black" />
    <path
        d="M142.155 122.651H139.514C139.292 122.651 139.11 122.471 139.11 122.248C139.11 122.025 139.29 121.848 139.514 121.848H142.155C142.377 121.848 142.559 122.027 142.559 122.248C142.559 122.47 142.379 122.651 142.155 122.651Z"
        fill="black" />
    <path
        d="M152.754 68.0449H171.895C173.033 68.0449 174.225 68.9661 174.556 70.1013L178.072 82.1403C178.403 83.2754 177.75 84.1966 176.61 84.1966H157.469C156.331 84.1966 155.139 83.2754 154.808 82.1403L151.292 70.1013C150.961 68.9661 151.614 68.0449 152.754 68.0449Z"
        fill="white" />
    <path
        d="M176.612 84.5991H157.471C156.146 84.5991 154.806 83.5691 154.422 82.2526L150.907 70.2136C150.708 69.5336 150.805 68.8644 151.172 68.3766C151.528 67.9034 152.09 67.644 152.754 67.644H171.894C173.22 67.644 174.559 68.674 174.943 69.9905L178.459 82.0295C178.657 82.7095 178.561 83.3787 178.194 83.8665C177.837 84.3398 177.275 84.5991 176.612 84.5991ZM152.754 68.4474C152.348 68.4474 152.016 68.5943 151.816 68.859C151.599 69.1473 151.55 69.5481 151.679 69.9887L155.195 82.0277C155.475 82.9852 156.517 83.7939 157.471 83.7939H176.612C177.017 83.7939 177.35 83.6471 177.55 83.3823C177.766 83.094 177.815 82.6932 177.686 82.2526L174.17 70.2136C173.89 69.2561 172.849 68.4474 171.894 68.4474H152.754Z"
        fill="black" />
    <path
        d="M177.199 73.1841C177.024 73.1841 176.863 73.0699 176.812 72.894L176.519 71.8912C176.457 71.679 176.579 71.456 176.794 71.3925C177.008 71.3308 177.23 71.4523 177.292 71.6663L177.584 72.6691C177.646 72.8813 177.524 73.1043 177.31 73.1678C177.272 73.1787 177.233 73.1841 177.197 73.1841H177.199Z"
        fill="black" />
    <path
        d="M153.494 71.6662C153.319 71.6662 153.158 71.552 153.107 71.3761L152.225 68.3586C152.027 67.6786 152.123 67.0095 152.49 66.5217C152.847 66.0484 153.408 65.7891 154.072 65.7891H173.213C174.538 65.7891 175.878 66.8191 176.261 68.1356L176.889 70.2862C176.95 70.4984 176.829 70.7214 176.614 70.7849C176.401 70.8484 176.176 70.7251 176.114 70.5111L175.487 68.3604C175.207 67.403 174.165 66.5942 173.211 66.5942H154.07C153.665 66.5942 153.332 66.7411 153.132 67.0058C152.916 67.2942 152.867 67.6949 152.996 68.1356L153.877 71.153C153.939 71.3652 153.817 71.5882 153.603 71.6517C153.565 71.6626 153.527 71.668 153.49 71.668L153.494 71.6662Z"
        fill="black" />
    <path
        d="M154.911 76.5244C154.737 76.5244 154.575 76.4102 154.524 76.2343L153.697 73.4C153.635 73.1878 153.757 72.9648 153.971 72.9013C154.184 72.8396 154.408 72.9611 154.469 73.1751L155.296 76.0094C155.358 76.2216 155.237 76.4446 155.022 76.5081C154.984 76.519 154.946 76.5244 154.909 76.5244H154.911Z"
        fill="black" />
    <path
        d="M129.854 121.933C129.75 121.933 129.649 121.893 129.569 121.815L111.458 103.752C111.3 103.596 111.3 103.34 111.458 103.184C111.617 103.026 111.871 103.026 112.027 103.184L130.138 121.247C130.296 121.403 130.296 121.659 130.138 121.815C130.059 121.893 129.956 121.933 129.852 121.933H129.854Z"
        fill="white" />
    <path
        d="M116.45 113.53C116.346 113.53 116.244 113.49 116.164 113.412L105.686 102.959C105.528 102.803 105.528 102.548 105.686 102.392C105.844 102.234 106.099 102.234 106.255 102.392L116.733 112.844C116.892 113 116.892 113.256 116.733 113.412C116.655 113.49 116.552 113.53 116.448 113.53H116.45Z"
        fill="white" />
    <path
        d="M171.423 264.829C175.47 264.829 178.751 261.547 178.751 257.5C178.751 253.452 175.47 250.171 171.423 250.171C167.375 250.171 164.094 253.452 164.094 257.5C164.094 261.547 167.375 264.829 171.423 264.829Z"
        fill="white" />
    <path
        d="M182.922 257.5C182.922 254.45 181.71 251.525 179.553 249.368C177.397 247.212 174.472 246 171.422 246C168.372 246 165.447 247.212 163.29 249.368C161.133 251.525 159.922 254.45 159.922 257.5C159.921 258.06 159.962 258.62 160.044 259.174C160.467 262.048 161.962 264.655 164.228 266.472C166.494 268.289 169.364 269.181 172.261 268.969C175.158 268.757 177.868 267.457 179.845 265.329C181.823 263.202 182.922 260.405 182.922 257.5ZM163.703 259.174C163.585 258.624 163.526 258.062 163.526 257.499C163.527 256.962 163.581 256.427 163.687 255.9C164.092 253.989 165.19 252.295 166.77 251.145C168.35 249.996 170.3 249.472 172.243 249.676C174.187 249.879 175.986 250.795 177.293 252.247C178.601 253.699 179.325 255.583 179.325 257.537C179.325 259.491 178.601 261.376 177.293 262.828C175.986 264.28 174.187 265.196 172.243 265.399C170.3 265.602 168.35 265.079 166.77 263.929C165.19 262.78 164.092 261.086 163.687 259.174H163.703Z"
        fill="#ED2027" />
    <path
        d="M179.394 257.497C179.394 255.92 178.926 254.378 178.05 253.067C177.174 251.755 175.928 250.733 174.471 250.13C173.014 249.526 171.41 249.368 169.863 249.676C168.316 249.984 166.895 250.744 165.78 251.86C164.665 252.975 163.906 254.396 163.598 255.943C163.291 257.49 163.449 259.094 164.053 260.551C164.657 262.008 165.68 263.253 166.991 264.129C168.303 265.005 169.845 265.472 171.422 265.472C173.537 265.471 175.564 264.631 177.059 263.135C178.554 261.64 179.394 259.612 179.394 257.497ZM165.934 257.497C165.965 256.063 166.557 254.698 167.583 253.694C168.609 252.691 169.986 252.129 171.421 252.129C172.856 252.129 174.234 252.691 175.259 253.694C176.285 254.698 176.877 256.063 176.908 257.497"
        fill="#1ECAD3" />
    <path
        d="M171.378 261.193C173.395 261.193 175.03 259.557 175.03 257.541C175.03 255.524 173.395 253.889 171.378 253.889C169.362 253.889 167.727 255.524 167.727 257.541C167.727 259.557 169.362 261.193 171.378 261.193Z"
        fill="#ED2027" />
    <path
        d="M187.466 246.002H195.463C196.386 245.995 197.301 246.179 198.151 246.54C198.948 246.874 199.687 247.335 200.337 247.905C200.973 248.476 201.476 249.179 201.809 249.966C202.17 250.81 202.352 251.72 202.345 252.638C202.355 253.498 202.203 254.353 201.897 255.158C201.603 255.915 201.184 256.617 200.659 257.237C201.748 258.489 202.346 260.094 202.341 261.754C202.338 262.724 202.156 263.685 201.805 264.589C201.483 265.46 200.982 266.253 200.333 266.917C199.703 267.544 198.961 268.048 198.147 268.405C197.3 268.777 196.384 268.966 195.459 268.959H187.283C186.636 268.949 186.013 268.707 185.528 268.278C185.303 268.05 185.126 267.78 185.006 267.483C184.886 267.185 184.827 266.867 184.831 266.547V248.373C184.839 248.015 184.948 247.666 185.146 247.368C185.267 247.134 185.424 246.922 185.613 246.738C185.986 246.315 186.508 246.051 187.071 246.002H187.466ZM195.459 254.96C195.745 254.966 196.029 254.913 196.294 254.805C196.559 254.697 196.799 254.535 196.999 254.33C197.21 254.126 197.376 253.879 197.487 253.607C197.598 253.335 197.652 253.043 197.645 252.75C197.652 252.465 197.599 252.183 197.491 251.92C197.382 251.658 197.22 251.42 197.015 251.224C196.813 251.022 196.573 250.862 196.308 250.754C196.044 250.646 195.761 250.591 195.475 250.594H189.574V254.971L195.459 254.96ZM195.459 264.173C195.745 264.177 196.028 264.123 196.293 264.014C196.558 263.906 196.798 263.746 196.999 263.543C197.231 263.284 197.409 262.98 197.52 262.651C197.631 262.321 197.673 261.972 197.645 261.625C197.673 261.278 197.631 260.929 197.52 260.599C197.409 260.27 197.231 259.966 196.999 259.707C196.797 259.504 196.557 259.345 196.293 259.236C196.028 259.128 195.745 259.074 195.459 259.077H189.574V264.182L195.459 264.173Z"
        fill="#ED2027" />
    <path
        d="M212.959 246.049C214.087 246.046 215.205 246.26 216.252 246.679C217.277 247.08 218.215 247.677 219.012 248.436C219.804 249.199 220.446 250.105 220.903 251.105C221.383 252.152 221.627 253.291 221.618 254.442V266.519C221.622 266.818 221.565 267.115 221.452 267.392C221.339 267.669 221.171 267.92 220.96 268.132C220.748 268.353 220.495 268.53 220.215 268.653C219.935 268.776 219.633 268.843 219.327 268.85C218.712 268.86 218.115 268.635 217.661 268.22C217.435 268.022 217.256 267.776 217.136 267.5C217.016 267.225 216.959 266.926 216.968 266.626V262.432H208.977V266.528C208.978 266.835 208.914 267.139 208.791 267.42C208.667 267.701 208.486 267.954 208.259 268.161C208.046 268.382 207.79 268.558 207.507 268.679C207.224 268.799 206.919 268.861 206.611 268.86C206 268.863 205.41 268.632 204.963 268.215C204.735 268.02 204.552 267.777 204.428 267.504C204.304 267.231 204.242 266.934 204.245 266.634V254.723C204.262 253.567 204.5 252.425 204.945 251.358C205.374 250.33 205.995 249.393 206.775 248.598C207.581 247.78 208.545 247.132 209.607 246.694C210.67 246.256 211.81 246.037 212.959 246.049ZM216.966 254.725C216.969 254.183 216.861 253.645 216.652 253.145C216.454 252.67 216.161 252.241 215.791 251.884C215.415 251.522 214.977 251.23 214.499 251.021C213.995 250.806 213.452 250.699 212.905 250.706C212.387 250.708 211.874 250.815 211.399 251.021C210.933 251.211 210.506 251.484 210.138 251.827C209.773 252.17 209.48 252.584 209.278 253.043C209.066 253.516 208.958 254.03 208.963 254.549V257.769H216.966V254.725Z"
        fill="#ED2027" />
    <path
        d="M232.2 246.161C233.328 246.158 234.446 246.372 235.494 246.791C236.519 247.19 237.457 247.786 238.254 248.545C239.046 249.309 239.688 250.216 240.144 251.217C240.627 252.261 240.872 253.4 240.86 254.55V266.63C240.864 266.929 240.808 267.226 240.695 267.503C240.582 267.78 240.414 268.032 240.201 268.242C239.991 268.464 239.739 268.642 239.459 268.765C239.179 268.888 238.878 268.955 238.573 268.96C237.957 268.971 237.361 268.746 236.906 268.331C236.679 268.133 236.499 267.887 236.378 267.612C236.257 267.336 236.198 267.037 236.207 266.736V254.823C236.207 254.287 236.1 253.757 235.892 253.263C235.694 252.789 235.402 252.36 235.031 252.004C234.656 251.641 234.218 251.35 233.739 251.143C233.25 250.932 232.724 250.822 232.191 250.819C231.658 250.816 231.131 250.92 230.639 251.125C230.175 251.318 229.748 251.59 229.378 251.931C229.012 252.275 228.719 252.69 228.518 253.151C228.305 253.624 228.198 254.138 228.203 254.657V266.63C228.204 266.937 228.14 267.241 228.017 267.522C227.893 267.803 227.712 268.055 227.485 268.262C227.271 268.482 227.015 268.657 226.732 268.777C226.449 268.897 226.144 268.959 225.837 268.959C225.227 268.968 224.636 268.742 224.186 268.329C223.958 268.135 223.775 267.892 223.651 267.619C223.528 267.346 223.466 267.048 223.471 266.748V254.823C223.487 253.665 223.726 252.522 224.173 251.454C224.827 249.867 225.943 248.513 227.376 247.569C228.809 246.624 230.493 246.133 232.209 246.158L232.2 246.161Z"
        fill="#ED2027" />
    <path
        d="M259.356 264.876C259.585 265.096 259.767 265.36 259.89 265.653C260.013 265.945 260.075 266.26 260.072 266.577C260.073 266.9 260.01 267.22 259.887 267.518C259.765 267.816 259.584 268.088 259.356 268.316C259.131 268.537 258.865 268.711 258.572 268.828C258.28 268.946 257.967 269.004 257.652 269C257.006 269.004 256.384 268.76 255.913 268.319L247.563 260.933V266.559C247.57 266.876 247.511 267.191 247.391 267.484C247.27 267.777 247.091 268.043 246.863 268.264C246.399 268.714 245.777 268.966 245.13 268.966C244.483 268.966 243.861 268.714 243.397 268.264C243.166 268.046 242.982 267.782 242.859 267.489C242.735 267.196 242.674 266.881 242.679 266.563V248.49C242.677 248.176 242.74 247.864 242.863 247.574C242.987 247.285 243.168 247.024 243.397 246.808C243.624 246.579 243.894 246.398 244.191 246.274C244.489 246.15 244.808 246.086 245.13 246.086C245.452 246.086 245.771 246.15 246.069 246.274C246.366 246.398 246.636 246.579 246.863 246.808C247.086 247.028 247.263 247.29 247.383 247.58C247.503 247.869 247.563 248.18 247.56 248.493V254.12L255.913 246.811C256.141 246.582 256.413 246.401 256.712 246.277C257.011 246.154 257.332 246.091 257.656 246.093C257.973 246.09 258.289 246.152 258.582 246.275C258.875 246.399 259.139 246.581 259.359 246.811C259.59 247.031 259.773 247.297 259.896 247.592C260.019 247.887 260.08 248.204 260.074 248.523C260.077 248.841 260.015 249.156 259.892 249.449C259.769 249.742 259.588 250.007 259.359 250.228L250.967 257.536L259.356 264.876Z"
        fill="#ED2027" />
    <path
        d="M158.271 246.003C158.595 245.995 158.916 246.055 159.216 246.178C159.515 246.301 159.786 246.485 160.01 246.718C160.236 246.944 160.413 247.213 160.533 247.509C160.653 247.805 160.712 248.122 160.707 248.441C160.716 248.761 160.659 249.078 160.539 249.375C160.419 249.671 160.239 249.939 160.01 250.162C159.781 250.386 159.508 250.561 159.21 250.678C158.911 250.795 158.592 250.851 158.271 250.843H154.268V266.481C154.276 266.801 154.221 267.121 154.104 267.419C153.987 267.718 153.811 267.99 153.587 268.22C153.125 268.667 152.508 268.916 151.866 268.916C151.224 268.916 150.607 268.667 150.145 268.22C149.919 267.991 149.741 267.719 149.622 267.421C149.503 267.122 149.445 266.802 149.452 266.481V250.84H145.401C145.087 250.847 144.774 250.79 144.482 250.673C144.189 250.556 143.924 250.381 143.701 250.159C143.471 249.937 143.29 249.669 143.169 249.373C143.049 249.076 142.992 248.758 143.001 248.438C142.996 248.119 143.055 247.802 143.176 247.506C143.296 247.21 143.474 246.941 143.701 246.715C143.919 246.485 144.183 246.303 144.476 246.18C144.769 246.058 145.084 245.997 145.401 246.003H158.271Z"
        fill="#ED2027" />
    <path
        d="M201.085 213.692C218.216 213.692 232.104 199.805 232.104 182.673C232.104 165.542 218.216 151.654 201.085 151.654C183.953 151.654 170.065 165.542 170.065 182.673C170.065 199.805 183.953 213.692 201.085 213.692Z"
        fill="white" />
    <path
        d="M249.747 182.673C249.747 169.764 244.619 157.384 235.491 148.256C226.363 139.128 213.983 134 201.074 134C188.165 134 175.785 139.128 166.657 148.256C157.529 157.384 152.401 169.764 152.401 182.673C152.399 185.045 152.572 187.414 152.92 189.76C154.71 201.923 161.036 212.958 170.628 220.648C180.219 228.339 192.366 232.114 204.627 231.217C216.888 230.32 228.356 224.815 236.726 215.81C245.095 206.806 249.747 194.967 249.747 182.673ZM168.404 189.76C167.905 187.429 167.655 185.051 167.657 182.667C167.659 180.396 167.887 178.13 168.338 175.904C170.05 167.813 174.699 160.643 181.386 155.778C188.074 150.913 196.326 148.697 204.551 149.558C212.776 150.419 220.391 154.295 225.926 160.44C231.461 166.585 234.524 174.562 234.524 182.832C234.524 191.102 231.461 199.079 225.926 205.223C220.391 211.368 212.776 215.245 204.551 216.106C196.326 216.967 188.074 214.751 181.386 209.886C174.699 205.02 170.05 197.851 168.338 189.76H168.404Z"
        fill="#ED2027" />
    <path
        d="M234.815 182.66C234.815 175.984 232.835 169.458 229.126 163.908C225.416 158.357 220.145 154.031 213.977 151.477C207.809 148.923 201.022 148.255 194.474 149.558C187.927 150.861 181.913 154.077 177.193 158.798C172.473 163.52 169.26 169.535 167.959 176.082C166.658 182.63 167.328 189.417 169.884 195.584C172.44 201.751 176.768 207.022 182.32 210.729C187.872 214.436 194.398 216.414 201.074 216.412C210.024 216.409 218.606 212.851 224.933 206.522C231.26 200.193 234.815 191.61 234.815 182.66ZM177.845 182.66C177.978 176.589 180.483 170.811 184.824 166.564C189.165 162.318 194.996 159.94 201.069 159.94C207.141 159.94 212.973 162.318 217.313 166.564C221.654 170.811 224.16 176.589 224.293 182.66"
        fill="#1ECAD3" />
    <path
        d="M200.891 198.301C209.428 198.301 216.348 191.38 216.348 182.844C216.348 174.307 209.428 167.387 200.891 167.387C192.355 167.387 185.435 174.307 185.435 182.844C185.435 191.38 192.355 198.301 200.891 198.301Z"
        fill="#ED2027" />
</svg>
