<svg width="24" height="24" viewBox="0 0 24 24" fill="none" xmlns="http://www.w3.org/2000/svg">
<path d="M11.74 17.7499H17.66C17.57 17.8299 17.48 17.8999 17.39 17.9799L13.12 21.1799C11.71 22.2299 9.41001 22.2299 7.99001 21.1799L3.71001 17.9799C2.77001 17.2799 2 15.7299 2 14.5599V7.14986C2 5.92986 2.93001 4.57986 4.07001 4.14986L9.05 2.27986C9.87 1.96986 11.23 1.96986 12.05 2.27986L17.02 4.14986C17.97 4.50986 18.78 5.50986 19.03 6.52986H11.73C11.51 6.52986 11.31 6.53987 11.12 6.53987C9.27 6.64987 8.78999 7.31986 8.78999 9.42986V14.8598C8.79999 17.1598 9.39001 17.7499 11.74 17.7499Z" stroke="#475467" stroke-width="1.2" stroke-linecap="round" stroke-linejoin="round"/>
<path d="M8.7998 11.2197H21.9998" stroke="#D61F2C" stroke-width="1.2" stroke-miterlimit="10" stroke-linecap="round" stroke-linejoin="round"/>
<path d="M21.9998 9.41977V14.9698C21.9798 17.1898 21.3698 17.7397 19.0598 17.7397H11.7398C9.38981 17.7397 8.7998 17.1498 8.7998 14.8398V9.40976C8.7998 7.30976 9.27981 6.63974 11.1298 6.51974C11.3198 6.51974 11.5198 6.50977 11.7398 6.50977H19.0598C21.4098 6.51977 21.9998 7.09977 21.9998 9.41977Z" stroke="#475467" stroke-width="1.2" stroke-linecap="round" stroke-linejoin="round"/>
<path d="M11.3203 15.2598H12.6503" stroke="#D61F2C" stroke-width="1.2" stroke-miterlimit="10" stroke-linecap="round" stroke-linejoin="round"/>
<path d="M14.75 15.2598H18.02" stroke="#D61F2C" stroke-width="1.2" stroke-miterlimit="10" stroke-linecap="round" stroke-linejoin="round"/>
</svg>
