<svg width="28" height="28" viewBox="0 0 28 28" fill="none" xmlns="http://www.w3.org/2000/svg">
<path fill-rule="evenodd" clip-rule="evenodd" d="M13.4919 1.17258C13.8406 0.901335 14.3499 0.955751 14.6294 1.29413L17.1219 4.31113C17.4014 4.64951 17.3453 5.1437 16.9966 5.41495C16.6479 5.6862 16.1386 5.63178 15.859 5.29341L13.3666 2.2764C13.0871 1.93803 13.1432 1.44383 13.4919 1.17258Z" fill="#475467"/>
<path fill-rule="evenodd" clip-rule="evenodd" d="M13.998 5.28213C8.26425 5.28213 3.61651 9.79206 3.61651 15.3558C3.61651 20.9196 8.26425 25.4295 13.998 25.4295C19.7318 25.4295 24.3796 20.9196 24.3796 15.3558C24.3796 13.0977 23.5774 11.0252 22.2756 9.34094C22.0074 8.99401 22.0799 8.50182 22.4374 8.24162C22.795 7.98141 23.3022 8.05172 23.5704 8.39866C25.0631 10.3299 25.998 12.7281 25.998 15.3558C25.998 21.7869 20.6257 27 13.998 27C7.3704 27 1.99805 21.7869 1.99805 15.3558C1.99805 8.92472 7.3704 3.71167 13.998 3.71167C14.9259 3.71167 15.8192 3.83094 16.6751 4.0256C17.1102 4.12456 17.3803 4.54707 17.2783 4.9693C17.1763 5.39153 16.7409 5.65359 16.3058 5.55463C15.5505 5.38286 14.7822 5.28213 13.998 5.28213Z" fill="#475467"/>
<path d="M15.5665 18.8693H10.8052C10.5235 18.8693 10.2581 18.8422 10.0198 18.788C9.8952 18.7718 9.74354 18.7284 9.58645 18.6688C8.86604 18.398 8.01562 17.7318 8.01562 16.0743V13.2847C8.01562 11.5134 9.03395 10.4951 10.8052 10.4951H15.5665C17.0615 10.4951 18.0256 11.2101 18.2856 12.5101C18.3344 12.7484 18.356 13.003 18.356 13.2847V16.0743C18.356 17.8564 17.3431 18.8693 15.5665 18.8693ZM10.8106 11.3185C9.47811 11.3185 8.83353 11.963 8.83353 13.2955V16.0851C8.83353 17.0547 9.17479 17.6505 9.87354 17.916C9.98187 17.9539 10.0848 17.9809 10.1823 17.9972C10.3881 18.0405 10.5885 18.0622 10.8106 18.0622H15.5719C16.9044 18.0622 17.5489 17.4176 17.5489 16.0851V13.2955C17.5489 13.068 17.5327 12.8676 17.4948 12.6834C17.3106 11.7626 16.6823 11.3185 15.5719 11.3185H10.8106Z" fill="#D61F2C"/>
<path d="M17.1895 20.494H12.4283C11.9679 20.494 11.5562 20.429 11.2041 20.2936C10.4079 19.9957 9.88785 19.3674 9.7091 18.4682C9.68202 18.3328 9.72536 18.1919 9.82286 18.0999C9.92036 18.0024 10.0612 17.9644 10.1966 17.9969C10.3754 18.0349 10.5758 18.0565 10.8033 18.0565H15.5645C16.897 18.0565 17.5416 17.412 17.5416 16.0795V13.2899C17.5416 13.0624 17.5254 12.8619 17.4874 12.6778C17.4604 12.5424 17.5037 12.4069 17.5958 12.3094C17.6933 12.2119 17.8287 12.1686 17.9641 12.2011C19.2641 12.4665 19.9791 13.4307 19.9791 14.9149V17.7045C19.9791 19.4811 18.9662 20.494 17.1895 20.494ZM10.7058 18.869C10.8791 19.1832 11.1391 19.4053 11.4966 19.5353C11.7566 19.6328 12.0708 19.6815 12.4337 19.6815H17.1949C18.5274 19.6815 19.172 19.037 19.172 17.7045V14.9149C19.172 14.059 18.9066 13.4903 18.3595 13.1924C18.3595 13.2249 18.3595 13.2574 18.3595 13.2899V16.0795C18.3595 17.8507 17.3412 18.869 15.5699 18.869H10.8087C10.7708 18.869 10.7383 18.869 10.7058 18.869Z" fill="#D61F2C"/>
<path d="M13.1878 16.5241C12.1749 16.5241 11.3516 15.7007 11.3516 14.6878C11.3516 13.6749 12.1749 12.8516 13.1878 12.8516C14.2007 12.8516 15.0241 13.6749 15.0241 14.6878C15.0241 15.7007 14.2007 16.5241 13.1878 16.5241ZM13.1878 13.6641C12.6245 13.6641 12.1641 14.1245 12.1641 14.6878C12.1641 15.2512 12.6245 15.7116 13.1878 15.7116C13.7512 15.7116 14.2116 15.2512 14.2116 14.6878C14.2116 14.1245 13.7512 13.6641 13.1878 13.6641Z" fill="#D61F2C"/>
<path d="M10.0898 16.2857C9.86776 16.2857 9.68359 16.1015 9.68359 15.8794V13.4961C9.68359 13.274 9.86776 13.0898 10.0898 13.0898C10.3119 13.0898 10.4961 13.274 10.4961 13.4961V15.8794C10.4961 16.1015 10.3173 16.2857 10.0898 16.2857Z" fill="#D61F2C"/>
<path d="M16.2812 16.2857C16.0592 16.2857 15.875 16.1015 15.875 15.8794V13.4961C15.875 13.274 16.0592 13.0898 16.2812 13.0898C16.5033 13.0898 16.6875 13.274 16.6875 13.4961V15.8794C16.6875 16.1015 16.5088 16.2857 16.2812 16.2857Z" fill="#D61F2C"/>
</svg>
