<svg height="118" viewBox="0 0 118 118" width="118" xmlns="http://www.w3.org/2000/svg">
    <g>
        <g>
            <g>
                <g transform="translate(-128 -242)">
                    <rect style="fill:rgba(62,237,216,.17)" height="118" rx="59"
                        transform="translate(128 242)" width="118" />
                    <g>
                        <g>
                            <path style="fill:#0071bb"
                                d="M0 9.658a5.668 5.668 0 0 0 .319-.772 11.516 11.516 0 0 1 11.2-8.849q16.224-.014 32.446 0A11.459 11.459 0 0 1 55.46 11.532c.033 9.952 0 19.9 0 29.855v1.16c.324-.3.555-.512.772-.729Q67.45 30.6 78.666 19.381A7.932 7.932 0 0 1 82.5 17.09a7.144 7.144 0 0 1 7.451 11.083 12.383 12.383 0 0 1-1.3 1.462Q72.439 45.866 56.2 62.079a2.258 2.258 0 0 0-.743 1.776c.033 5.287.069 10.576 0 15.862a11.19 11.19 0 0 1-6.923 10.609 17.639 17.639 0 0 1-2.8.8 1.117 1.117 0 0 0-.262.169H9.628a5.989 5.989 0 0 0-.769-.324 11.4 11.4 0 0 1-8.535-8.527A6.512 6.512 0 0 0 0 81.675zm81.628 21.925c1.2-1.191 2.41-2.367 3.61-3.572.567-.564 1.16-1.11 1.667-1.726a3.572 3.572 0 0 0-5.139-4.91c-1.757 1.679-3.434 3.441-5.146 5.168-2.086 2.067-4.179 4.129-6.258 6.206Q55.991 47.1 41.624 61.464A16.715 16.715 0 0 0 37 69.559c-.148.619-.226 1.255-.331 1.848a1.048 1.048 0 0 0 .191.086 2 2 0 0 0 .267-.012 16.984 16.984 0 0 0 9.63-4.963q17.221-17.244 34.464-34.461c.145-.157.272-.319.407-.474zM33.049 71.5c.067-.476.117-.919.188-1.353a20.189 20.189 0 0 1 5.887-11.231c4.089-4.063 8.151-8.149 12.238-12.214a1.591 1.591 0 0 0 .545-1.229q-.024-16.843-.017-33.684a8.462 8.462 0 0 0-.126-1.593 7.916 7.916 0 0 0-7.906-6.6c-2.258-.019-4.525 0-6.775 0H11.859a8.088 8.088 0 0 0-5.494 1.933 8 8 0 0 0-2.793 6.377q.019 18.4 0 36.8v30.926a7.926 7.926 0 0 0 7.959 8.1q16.219.048 32.441 0a8.347 8.347 0 0 0 2.619-.46 7.787 7.787 0 0 0 5.3-7.292c.043-4.4.012-8.792 0-13.19a1.5 1.5 0 0 0-.121-.329c-1.019 1.045-1.948 2.043-2.924 2.989A19.98 19.98 0 0 1 34 75.21a8.845 8.845 0 0 1-8.754-7.3 27.283 27.283 0 0 1-.186-3.908 14.7 14.7 0 0 0-.076-1.686A1.722 1.722 0 0 0 23.3 60.89a1.769 1.769 0 0 0-1.748 1.372 5.072 5.072 0 0 0-.093 1.06c0 2.258.029 4.525-.031 6.773a5.239 5.239 0 0 1-3.592 4.805 5.337 5.337 0 0 1-5.87-1.667 5.636 5.636 0 0 1-1.25-3.722V55.787a1.814 1.814 0 0 0-1.81-2.087 1.806 1.806 0 0 1-1.75-1.95 1.86 1.86 0 0 1 2.105-1.6 5.389 5.389 0 0 1 5.027 5.45v13.636a4.139 4.139 0 0 0 .131 1.138 1.7 1.7 0 0 0 1.839 1.226 1.734 1.734 0 0 0 1.6-1.541 7.382 7.382 0 0 0 .031-.891c0-2.143-.038-4.286 0-6.415a5.375 5.375 0 0 1 7.239-5.113 5.433 5.433 0 0 1 3.5 5.194c.026 1.217 0 2.436.019 3.653a5.3 5.3 0 0 0 4.4 5.01z"
                                transform="translate(134.867 263.97)" />
                            <path style="fill:#fdfdfe"
                                d="M0 342.88a6.51 6.51 0 0 1 .324.769 11.39 11.39 0 0 0 8.535 8.532 5.99 5.99 0 0 1 .769.324H0z"
                                transform="translate(134.867 2.765)" />
                            <path style="fill:#fdfdfe"
                                d="M44.457 82.884a5.285 5.285 0 0 1-4.4-5c-.017-1.217 0-2.436-.019-3.653a5.373 5.373 0 1 0-10.738-.082c-.048 2.143 0 4.286 0 6.415a7.382 7.382 0 0 1-.031.891A1.734 1.734 0 0 1 27.678 83a1.7 1.7 0 0 1-1.838-1.224 4.139 4.139 0 0 1-.131-1.138q-.019-6.835-.019-13.645a5.389 5.389 0 0 0-5.025-5.451 1.855 1.855 0 0 0-2.105 1.6 1.8 1.8 0 0 0 1.75 1.95 1.812 1.812 0 0 1 1.81 2.086V80.9a5.6 5.6 0 0 0 1.243 3.715 5.337 5.337 0 0 0 5.87 1.667 5.239 5.239 0 0 0 3.6-4.82c.06-2.258.019-4.525.031-6.773a5.072 5.072 0 0 1 .093-1.06 1.769 1.769 0 0 1 1.748-1.372 1.722 1.722 0 0 1 1.686 1.429 14.7 14.7 0 0 1 .076 1.686 27.283 27.283 0 0 0 .186 3.908 8.85 8.85 0 0 0 8.754 7.3 19.973 19.973 0 0 0 14.848-5.77c.976-.953 1.905-1.943 2.924-2.989a1.5 1.5 0 0 1 .121.329c0 4.4.033 8.794 0 13.19a7.787 7.787 0 0 1-5.3 7.292 8.347 8.347 0 0 1-2.62.46q-16.219.045-32.441 0A7.918 7.918 0 0 1 14.978 91q-.026-15.462 0-30.922v-36.8a8.017 8.017 0 0 1 2.805-6.38 8.1 8.1 0 0 1 5.477-1.91q12.621.021 25.223 0c2.258 0 4.525-.014 6.775 0a7.92 7.92 0 0 1 7.913 6.594 8.462 8.462 0 0 1 .126 1.593q0 16.843.017 33.684a1.591 1.591 0 0 1-.545 1.229c-4.086 4.065-8.149 8.151-12.238 12.214a20.177 20.177 0 0 0-5.887 11.238c-.07.425-.12.86-.187 1.344zM57.89 34.643c-.224-.019-.343-.038-.46-.038H21.165c-.8 0-.833.045-.833.881v19.96a6.434 6.434 0 0 0 .069.66H57.89zM39.175 93.75h5.787a3.539 3.539 0 0 0 1.131-.169 1.75 1.75 0 0 0 1.1-1.667 1.793 1.793 0 0 0-1.186-1.614 3.355 3.355 0 0 0-.967-.1H33.291a5.444 5.444 0 0 0-.624.017 1.734 1.734 0 0 0-1.529 1.5 1.7 1.7 0 0 0 1.034 1.843 3.334 3.334 0 0 0 1.129.176c1.957.024 3.917.014 5.874.014zm3.541-69.831h4.1c.772 0 1.543.021 2.312-.019a1.75 1.75 0 0 0 .4-3.424 2.986 2.986 0 0 0-.872-.119H36.813a3.132 3.132 0 0 0-.791.083 1.767 1.767 0 0 0 .552 3.474c2.049.015 4.094.003 6.142.005zm-11.668-1.762a1.786 1.786 0 0 0-1.786-1.8 1.843 1.843 0 0 0-1.753 1.774 1.807 1.807 0 0 0 1.819 1.779 1.75 1.75 0 0 0 1.726-1.757z"
                                transform="translate(123.466 252.585)" />
                            <path style="fill:#3eedd8"
                                d="M198.955 116.439c-.136.155-.262.317-.407.462l-34.461 34.461a16.984 16.984 0 0 1-9.63 4.963 2 2 0 0 1-.267.012 1.048 1.048 0 0 1-.191-.086c.1-.593.183-1.229.331-1.848a16.715 16.715 0 0 1 4.62-8.07q14.386-14.345 28.738-28.717c2.079-2.077 4.172-4.139 6.258-6.206z"
                                transform="translate(17.54 179.114)" />
                            <path style="fill:#fdfdfe"
                                d="m326.781 97.166-5-5.029c1.712-1.726 3.389-3.489 5.146-5.168a3.572 3.572 0 0 1 5.139 4.91c-.507.617-1.1 1.162-1.667 1.726-1.208 1.195-2.416 2.375-3.618 3.561z"
                                transform="translate(-110.286 198.387)" />
                            <path style="fill:#3eedd8"
                                d="M75.028 97.448v21.463h-37.5c-.021-.21-.067-.436-.069-.66v-19.96c0-.836.038-.881.833-.881h36.277c.116 0 .231.019.459.038zm-18.736 5.432H45.247a6.928 6.928 0 0 0-.891.026 1.724 1.724 0 0 0-1.4 2.243c.286.9.938 1.3 2.177 1.3H67.4a3.729 3.729 0 0 0 1.053-.129 1.731 1.731 0 0 0 1.064-2.429 1.8 1.8 0 0 0-1.824-1.012c-3.8.008-7.601.003-11.401.001zm.067 7.144H45.314a7.886 7.886 0 0 0-.888.021 1.791 1.791 0 0 0-1.562 1.586 1.734 1.734 0 0 0 1.155 1.812 3.715 3.715 0 0 0 1.136.148H67.42a3.612 3.612 0 0 0 1.134-.155A1.741 1.741 0 0 0 69.7 111.7a1.81 1.81 0 0 0-1.324-1.612 4.57 4.57 0 0 0-.974-.057q-5.522-.007-11.042 0z"
                                transform="translate(106.328 189.78)" />
                            <path style="fill:#0071bb"
                                d="M90.8 334.387h-5.874a3.334 3.334 0 0 1-1.129-.176 1.7 1.7 0 0 1-1.045-1.865 1.734 1.734 0 0 1 1.529-1.5 5.451 5.451 0 0 1 .624-.017h11.75a3.355 3.355 0 0 1 .967.1 1.793 1.793 0 0 1 1.191 1.612 1.75 1.75 0 0 1-1.1 1.667 3.539 3.539 0 0 1-1.131.169c-1.923.023-3.852.01-5.782.01z"
                                transform="translate(71.84 11.949)" />
                            <path style="fill:#0071bb"
                                d="M105.829 41.155h-6.142a1.767 1.767 0 0 1-.552-3.474 3.131 3.131 0 0 1 .791-.083h11.84a2.986 2.986 0 0 1 .872.119 1.75 1.75 0 0 1-.4 3.424c-.769.04-1.541.017-2.312.019z"
                                transform="translate(60.353 235.349)" />
                            <path style="fill:#0071bb"
                                d="M71.186 39.4a1.75 1.75 0 0 1-1.726 1.757 1.807 1.807 0 0 1-1.819-1.779 1.843 1.843 0 0 1 1.752-1.778 1.786 1.786 0 0 1 1.793 1.8z"
                                transform="translate(83.335 235.347)" />
                            <path style="fill:#0071bb"
                                d="M73.6 120.38H85a1.788 1.788 0 0 1 1.824 1.012 1.731 1.731 0 0 1-1.064 2.429 3.729 3.729 0 0 1-1.053.129H62.434c-1.238 0-1.891-.4-2.177-1.3a1.724 1.724 0 0 1 1.4-2.243 6.929 6.929 0 0 1 .891-.026z"
                                transform="translate(89.024 172.28)" />
                            <path style="fill:#0071bb"
                                d="M73.619 150.389h11.045a4.569 4.569 0 0 1 .974.057 1.81 1.81 0 0 1 1.324 1.612 1.741 1.741 0 0 1-1.145 1.734 3.612 3.612 0 0 1-1.134.155H62.417a3.715 3.715 0 0 1-1.136-.148 1.734 1.734 0 0 1-1.157-1.805 1.791 1.791 0 0 1 1.562-1.586 7.886 7.886 0 0 1 .888-.021z"
                                transform="translate(89.067 149.422)" />
                        </g>
                    </g>
                </g>
            </g>
        </g>
    </g>
</svg>
