<?xml version="1.0" encoding="utf-8"?>
<!-- Generator: Adobe Illustrator 24.2.1, SVG Export Plug-In . SVG Version: 6.00 Build 0)  -->
<svg version="1.1" id="Layer_1" xmlns="http://www.w3.org/2000/svg" x="0px" y="0px" viewBox="0 0 426 98" enable-background="new 0 0 426 98" xml:space="preserve">
<g>
	<path fill-rule="evenodd" clip-rule="evenodd" fill="#AD1F23" d="M281.15,41.13h-16.69c-2.24-1.14-4.28-2.67-5.03-6.13
		c-0.62-2.85,0.88-8.03-4.46-12.39c0,0-3.28-3.3,0.21-4.06l15.76-4.04l5.66-10.06c-6.85,1.66-31.63,8-31.63,8l-5.62,10.91
		c0,0,12.64,2.53,13.81,9.24c0.98,5.62-2.81,7.42-3.98,8.51h-34.71l-8.23,10.1l40.19,0l8.98-9.57c0,0,3.75,9.57,12.89,9.57
		c0.31,0,4.28,0,4.28,0S281.15,41.22,281.15,41.13z"/>
	<g>
		<polygon fill-rule="evenodd" clip-rule="evenodd" fill="#AD1F23" points="385.68,35.47 392.96,47.9 399.78,36.81 384.33,8.61 
			347.18,8.61 342.25,19.01 377.93,18.89 377.87,23.53 338.68,24.06 322.92,51.51 329.5,64.18 345.84,35.47 		"/>
		<polygon fill-rule="evenodd" clip-rule="evenodd" fill="#AD1F23" points="420.45,41.76 403.84,71.15 399.06,71.16 417.76,36.19 
			401.57,8.59 388.1,8.59 404.31,36.92 385.99,71.11 370.3,71.32 376.99,83.44 409.56,83.34 427.15,51.11 		"/>
		<polygon fill-rule="evenodd" clip-rule="evenodd" fill="#AD1F23" points="354.52,53.37 361.65,39.55 348.47,39.59 331.6,67.62 
			348.5,98.31 362.16,97.97 345.2,68.75 347.52,65.2 367.22,98.07 402.22,98.05 407.62,87.3 374.1,87.53 		"/>
		
			<path fill-rule="evenodd" clip-rule="evenodd" fill="#74C8D9" stroke="#74C8D9" stroke-width="0.5" stroke-miterlimit="2.6131" d="
			M374.6,39.58c-7.32,0-13.29,5.97-13.29,13.29c0,7.32,5.97,13.29,13.29,13.29c7.32,0,13.29-5.97,13.29-13.29
			C387.89,45.55,381.92,39.58,374.6,39.58z"/>
		<path fill-rule="evenodd" clip-rule="evenodd" fill="#AD1F23" d="M291.51,38.52V5.86c0-0.54-8.39,7.14-8.39,7.14v28.89
			c0,0,0.62,9.32,12.58,9.32h4.2l8.26-10.09h-14.06C292.67,41.13,291.51,39.96,291.51,38.52z"/>
		<path fill-rule="evenodd" clip-rule="evenodd" fill="#AD1F23" d="M231.37,4.19c-13.56,3.4-31.13,7.76-31.13,7.76l-6.26,11.53
			c0,0,14.94,2.15,14.07,10.49c-0.72,6.88-3.91,7.15-3.91,7.15c-8.54,0.05-12.58,0.05-13.58,0.04c-0.17,0-0.35,0-0.51-0.07
			c-5.75-2.49-5.68-7.65-5.36-9.86c0.1-0.65-0.36-1.25-1.01-1.35c-1.04-0.16-1.78-0.01-2.19,0.12c-0.22,0.07-0.41,0.21-0.55,0.39
			l-8.43,10.73H159.5c0,0-6.58,8.2-8.1,10.09l17.7,0c1.88-2.15,8.44-9.62,10-11.43c0.15-0.17,0.41-0.15,0.49,0.06
			c3.17,8.35,8,9.81,11.79,11.37h9.74c0.37,0,0,0,0.44,0l11.32-13.89c4.46-10.19-5.07-17.95-5.07-17.95
			c9.42-2.46,16.85-4.18,17.79-4.45L231.37,4.19z"/>
		<path fill-rule="evenodd" clip-rule="evenodd" fill="#AD1F23" d="M81.36,51.22c2.67-8.16,4.6-1.72,5.32,0h34.81
			c2.2-2.47,8.93-10.1,8.93-10.1h-41.5c8.91-11.18-1.12-19.89-1.12-19.89c-2.19-1.69,1.12-2.41,1.12-2.41s12.84-3.38,15.52-4.19
			l5.35-10.38c-1.17,0.35-31.52,8.46-31.52,8.46s-6.34,11.27-5.15,10.86c2.16-0.73,22.58,5.69,9.14,17.54H69.59
			c-7.23-1.49-6.52-9.88-6.52-9.88c-0.24-2.12-1.67-2.01-2.58-1.71c-0.43,0.14-0.82,0.4-1.11,0.75L50.2,41.13c0,0-11.45,0-12.23,0
			l-8.46,10.1h18.15l8.98-10.1c1.95-2.55,2.37,0,2.37,0c2.6,6.76,7.1,8.7,11.18,10.1H81.36z"/>
		
			<rect x="109.65" y="19.13" transform="matrix(0.7072 -0.7071 0.7071 0.7072 17.0418 86.8562)" fill-rule="evenodd" clip-rule="evenodd" fill="#AD1F23" width="7.46" height="7.46"/>
		<polygon fill-rule="evenodd" clip-rule="evenodd" fill="#AD1F23" points="113.12,31.24 107.84,25.97 102.57,31.24 107.84,36.51 
			113.12,31.24 118.39,36.51 123.66,31.24 118.39,25.97 		"/>
		
			<rect x="269.53" y="25.5" transform="matrix(0.707 -0.7072 0.7072 0.707 59.3836 201.8049)" fill-rule="evenodd" clip-rule="evenodd" fill="#AD1F23" width="7.46" height="7.46"/>
		
			<rect x="291.66" y="54.27" transform="matrix(0.7072 -0.707 0.707 0.7072 45.4887 225.8359)" fill-rule="evenodd" clip-rule="evenodd" fill="#AD1F23" width="7.46" height="7.46"/>
		<path fill-rule="evenodd" clip-rule="evenodd" fill="#AD1F23" d="M230.63-0.11c-0.78,0.06-26.84,7.38-26.84,7.38l-1.44,2.85
			l27.46-7.22L230.63-0.11z"/>
		<path fill-rule="evenodd" clip-rule="evenodd" fill="#AD1F23" d="M81.67,9.77l26.06-6.99l1.09-2.65
			c-0.78,0.06-26.35,7.07-26.35,7.07L81.67,9.77z"/>
	</g>
	<g>
		<path fill-rule="evenodd" clip-rule="evenodd" fill="#AD1F23" d="M146.5,16.11c-1.24,0.93-7.2,7.02-7.2,7.02
			c21.97,7.4,10.8,17.99,10.8,17.99h-15.43l-8.73,10.1h20.74l11.27-13.34C164.05,20.8,146.5,16.11,146.5,16.11z"/>
	</g>
	<path fill-rule="evenodd" clip-rule="evenodd" fill="#AD1F23" d="M40.12,19.8l2.53-3.74H31.47c0,0-7.46,0.15-10.44,7.87
		c0,0-1.08,1.2,2.37,2.02c3.45,0.82,12.75,6.82,4.33,15.18H12.17c0,0-7.72-2.78-3.92-10.85c0,0-3.72,0.12-4.89,2.22
		c-1.17,2.11-4.1,14.8,10.33,18.73h10.77l11.44-13.2c0,0,3.04-9.68-4.01-16.3c0,0-2.08-1.93,0.73-1.93
		C35.42,19.8,40.12,19.8,40.12,19.8z"/>
	<g>
		<polygon fill="#AD1F23" points="0.87,73.03 9.1,73.03 5.71,95 10.68,95 14.06,73.03 22.33,73.03 23.03,68.46 1.58,68.46 		"/>
		<path fill="#AD1F23" d="M47.66,71.78c-0.95-1.19-2.15-2.12-3.61-2.77c-1.46-0.66-3.12-0.99-4.97-0.99c-1.85,0-3.6,0.33-5.26,0.98
			c-1.66,0.65-3.14,1.57-4.47,2.76c-1.32,1.19-2.43,2.63-3.33,4.32c-0.9,1.69-1.5,3.57-1.82,5.63c-0.31,2.04-0.29,3.9,0.09,5.58
			c0.37,1.68,1.03,3.13,1.97,4.33c0.94,1.21,2.14,2.14,3.6,2.8c1.46,0.66,3.13,1,5,1c1.88,0,3.65-0.34,5.31-1.01
			c1.66-0.67,3.15-1.61,4.46-2.81c1.31-1.21,2.41-2.65,3.3-4.33c0.89-1.68,1.49-3.54,1.8-5.56c0.32-2.05,0.29-3.92-0.09-5.61
			C49.27,74.42,48.61,72.97,47.66,71.78z M44.69,81.71c-0.23,1.46-0.62,2.77-1.18,3.92c-0.56,1.15-1.24,2.13-2.05,2.93
			c-0.81,0.8-1.72,1.41-2.74,1.83c-1.02,0.42-2.09,0.63-3.21,0.63c-1.11,0-2.11-0.21-2.99-0.63c-0.88-0.42-1.6-1.03-2.16-1.83
			c-0.56-0.8-0.94-1.77-1.15-2.93c-0.2-1.15-0.19-2.46,0.03-3.92c0.22-1.45,0.62-2.74,1.18-3.89c0.56-1.15,1.25-2.12,2.07-2.92
			c0.81-0.8,1.72-1.4,2.73-1.82c1.01-0.42,2.08-0.62,3.2-0.62c1.1,0,2.09,0.2,2.96,0.61c0.88,0.41,1.59,1.01,2.16,1.8
			c0.56,0.79,0.95,1.76,1.16,2.91C44.93,78.93,44.92,80.24,44.69,81.71z"/>
		<path fill="#AD1F23" d="M70.96,83.62c-0.23,1.5-0.54,2.72-0.93,3.67c-0.39,0.95-0.86,1.69-1.42,2.22c-0.56,0.54-1.2,0.9-1.94,1.1
			c-0.73,0.19-1.56,0.29-2.49,0.29c-0.91,0-1.7-0.1-2.38-0.29c-0.67-0.19-1.21-0.56-1.61-1.09c-0.4-0.53-0.66-1.27-0.77-2.21
			c-0.11-0.94-0.05-2.17,0.19-3.69l2.33-15.16h-4.95l-2.34,15.2c-0.14,0.9-0.25,1.81-0.33,2.73c-0.08,0.92-0.08,1.82,0.02,2.69
			c0.09,0.87,0.31,1.69,0.65,2.46c0.34,0.77,0.86,1.44,1.56,2.01c0.7,0.57,1.61,1.02,2.74,1.36c1.12,0.33,2.52,0.5,4.19,0.5
			c2.1,0,3.88-0.27,5.34-0.8c1.46-0.54,2.66-1.31,3.62-2.31c0.96-1.01,1.71-2.23,2.25-3.69c0.54-1.45,0.95-3.11,1.24-4.96l2.34-15.2
			h-4.99L70.96,83.62z"/>
		<path fill="#AD1F23" d="M103.45,70.27c-0.43-0.42-0.9-0.74-1.4-0.99c-0.5-0.24-1.03-0.42-1.61-0.54c-0.57-0.12-1.18-0.2-1.81-0.23
			c-0.64-0.03-1.31-0.05-2.02-0.05h-11.9L80.63,95h4.97l1.64-10.68h5.31c0.55,0,1.06,0.09,1.52,0.26c0.46,0.17,0.87,0.42,1.23,0.72
			c0.35,0.31,0.65,0.67,0.9,1.1c0.24,0.42,0.41,0.88,0.51,1.38L98.12,95h5.35l-1.64-7.86c-0.2-0.97-0.48-1.78-0.83-2.44
			c-0.35-0.66-0.79-1.21-1.3-1.64c1.46-0.62,2.67-1.5,3.64-2.66c0.96-1.16,1.57-2.55,1.82-4.17c0.17-1.11,0.12-2.2-0.15-3.26
			C104.73,71.91,104.21,71.01,103.45,70.27z M100.06,76.22c-0.1,0.66-0.28,1.21-0.54,1.66c-0.26,0.45-0.61,0.81-1.05,1.1
			c-0.45,0.28-0.99,0.48-1.64,0.6c-0.65,0.12-1.42,0.18-2.3,0.18h-6.59l1.07-6.96h7.1c1.53,0,2.61,0.27,3.26,0.82
			C100.01,74.18,100.25,75.05,100.06,76.22z"/>
		<polygon fill="#AD1F23" points="108.49,95 113.42,95 117.51,68.46 112.58,68.46 		"/>
		<path fill="#AD1F23" d="M140.16,70.23c-0.8-0.71-1.77-1.26-2.91-1.64c-1.15-0.38-2.45-0.57-3.89-0.57c-1.45,0-2.8,0.19-4.05,0.57
			c-1.25,0.38-2.36,0.91-3.31,1.6c-0.96,0.68-1.74,1.5-2.36,2.44c-0.62,0.94-1.01,1.97-1.18,3.09c-0.16,1.05-0.14,1.97,0.08,2.77
			c0.21,0.8,0.62,1.51,1.23,2.12c0.61,0.61,1.43,1.14,2.46,1.59c1.03,0.45,2.28,0.83,3.74,1.16c1.28,0.28,2.36,0.55,3.23,0.8
			c0.87,0.25,1.57,0.53,2.08,0.82c0.52,0.3,0.87,0.64,1.06,1.03c0.19,0.39,0.24,0.85,0.16,1.39c-0.08,0.54-0.28,1.02-0.61,1.46
			c-0.32,0.44-0.74,0.8-1.27,1.11c-0.52,0.3-1.13,0.53-1.82,0.69c-0.69,0.16-1.43,0.24-2.24,0.24c-0.79,0-1.53-0.09-2.21-0.28
			c-0.68-0.19-1.28-0.48-1.79-0.87c-0.51-0.4-0.92-0.89-1.22-1.49c-0.3-0.6-0.47-1.3-0.51-2.12h-4.85
			c-0.09,1.38,0.04,2.64,0.39,3.78c0.35,1.14,0.94,2.12,1.76,2.94c0.82,0.82,1.88,1.45,3.2,1.9c1.31,0.45,2.88,0.67,4.7,0.67
			c1.46,0,2.84-0.2,4.13-0.61c1.29-0.41,2.44-0.98,3.45-1.71c1.01-0.73,1.84-1.6,2.5-2.61c0.66-1.01,1.08-2.13,1.27-3.35
			c0.16-1.03,0.14-1.94-0.04-2.71c-0.19-0.78-0.51-1.45-0.95-2.03c-0.45-0.58-1-1.06-1.64-1.46c-0.65-0.4-1.35-0.73-2.11-1.02
			c-0.75-0.28-1.54-0.52-2.34-0.71c-0.81-0.19-1.59-0.38-2.36-0.55c-0.88-0.19-1.63-0.38-2.23-0.58c-0.61-0.2-1.09-0.42-1.47-0.65
			c-0.37-0.23-0.63-0.5-0.77-0.78c-0.14-0.29-0.19-0.63-0.13-1.02c0.14-0.94,0.68-1.68,1.62-2.22c0.93-0.54,2.21-0.81,3.82-0.81
			c3.02,0,4.61,1.26,4.79,3.78h4.83c0.08-1.3-0.08-2.47-0.46-3.51C141.55,71.82,140.96,70.94,140.16,70.23z"/>
		<polygon fill="#AD1F23" points="159.19,87.38 155.95,68.46 149.51,68.46 145.43,95 150.23,95 152.85,77.99 155.9,95 160.06,95 
			168.41,77.99 165.79,95 170.6,95 174.69,68.46 168.27,68.46 		"/>
		<path fill="#AD1F23" d="M218.06,70.37c-0.72-0.62-1.64-1.09-2.75-1.42c-1.11-0.33-2.37-0.49-3.79-0.49h-9.71L197.72,95h10.19
			c3.38,0,6.02-0.68,7.92-2.04c1.9-1.36,3.06-3.37,3.47-6.02c0.1-0.64,0.12-1.27,0.06-1.88c-0.06-0.61-0.21-1.18-0.44-1.72
			c-0.23-0.54-0.55-1.02-0.95-1.46c-0.4-0.44-0.9-0.81-1.5-1.12c0.97-0.64,1.73-1.38,2.27-2.21c0.54-0.83,0.9-1.81,1.08-2.94
			c0.17-1.11,0.1-2.11-0.21-3C219.3,71.74,218.78,70.99,218.06,70.37z M214.22,86.94c-0.36,2.33-2.23,3.5-5.63,3.5h-5.23l1.08-7.02
			h4.76c1.07,0,1.95,0.07,2.64,0.21c0.69,0.14,1.23,0.36,1.61,0.64c0.38,0.29,0.63,0.65,0.74,1.1
			C214.31,85.82,214.32,86.34,214.22,86.94z M214.86,75.9c-0.17,1.09-0.65,1.86-1.45,2.32c-0.8,0.46-1.97,0.69-3.52,0.69h-4.74
			l0.91-5.89h4.42c0.9,0,1.64,0.06,2.24,0.17c0.59,0.11,1.06,0.29,1.41,0.53c0.34,0.24,0.57,0.54,0.68,0.9
			C214.91,75,214.93,75.42,214.86,75.9z"/>
		<path fill="#AD1F23" d="M234.48,68.44L220.18,95h5.25l3.95-7.6h9.29l1.72,7.6h5.53l-6.73-26.56H234.48z M231.51,83.2l4.33-8.42
			l1.92,8.42H231.51z"/>
		<polygon fill="#AD1F23" points="267.05,86.24 258,68.46 253.32,68.46 249.23,95 254,95 256.73,77.25 265.84,95 270.5,95 
			274.59,68.46 269.79,68.46 		"/>
		<polygon fill="#AD1F23" points="303.78,68.46 297.03,68.46 284.27,79.62 285.99,68.46 281.03,68.46 276.94,95 281.9,95 
			283.31,85.88 286.71,82.96 293.44,95 299.8,95 290.76,79.54 		"/>
	</g>
</g>
</svg>
