<svg width="200" height="34" viewBox="0 0 200 34" fill="none" xmlns="http://www.w3.org/2000/svg">
    <g clip-path="url(#rdti37gtra)">
        <mask id="0ldxukf22b" style="mask-type:luminance" maskUnits="userSpaceOnUse" x="0" y="0" width="200" height="34">
            <path d="M200 0H0v34h200V0z" fill="#fff"/>
        </mask>
        <g mask="url(#0ldxukf22b)">
            <mask id="g412dwtx0c" style="mask-type:luminance" maskUnits="userSpaceOnUse" x="0" y="0" width="200" height="34">
                <path d="M199.866 0H0v34h199.866V0z" fill="#fff"/>
            </mask>
            <g mask="url(#g412dwtx0c)" fill="#23B4FF">
                <path d="M25.47 22.985h6.674c1.861 0 3.376 1.504 3.376 3.352a.476.476 0 0 1-.483.479H22.5a2.404 2.404 0 0 1-2.411-2.394v-.163c0-.565.202-1.111.56-1.542l9.499-11.225h-6.674c-1.861 0-3.376-1.504-3.376-3.352 0-.268.213-.479.483-.479h12.537a2.404 2.404 0 0 1 2.411 2.395v.162c0 .565-.202 1.111-.56 1.542L25.47 22.985zM13.02 7.661H1.447a.475.475 0 0 0-.338.144.469.469 0 0 0-.145.335c0 1.848 1.515 3.352 3.376 3.352h8.68c.27 0 .482.21.482.479v3.352H4.34c-2.402 0-4.34 1.925-4.34 4.31v2.873c0 2.385 1.938 4.31 4.34 4.31h7.715c.945 0 1.794-.383 2.411-1.005a3.377 3.377 0 0 0 2.411 1.005c.27 0 .482-.21.482-.479V11.971c0-2.385-1.938-4.31-4.34-4.31zm0 15.324H4.34a.476.476 0 0 1-.482-.479v-2.873c0-.268.212-.479.482-.479H13.502v3.352a.476.476 0 0 1-.482.48zM42.126.479v22.986c0 1.848-1.514 3.352-3.376 3.352a.476.476 0 0 1-.482-.479V3.352C38.268 1.504 39.782 0 41.644 0c.26 0 .482.21.482.479z"/>
                <path d="M53.554 25.16a.463.463 0 0 1 0 .67 3.387 3.387 0 0 1-4.773 0l-5.931-5.89-2.72-2.701 2.73-2.71 5.93-5.89a3.387 3.387 0 0 1 4.774 0 .48.48 0 0 1 .145.335.448.448 0 0 1-.145.335l-7.985 7.93 7.975 7.92zM60.295 8.14v15.324c0 1.848-1.514 3.352-3.375 3.352a.476.476 0 0 1-.483-.479V11.013c0-1.848 1.515-3.352 3.376-3.352.26 0 .482.21.482.479zM58.367 4.789a2.403 2.403 0 0 0 2.41-2.395A2.403 2.403 0 0 0 58.368 0a2.403 2.403 0 0 0-2.411 2.394 2.403 2.403 0 0 0 2.41 2.395zM130.824 12.451h-5.661c-.753 0-1.437.25-1.987.67a3.265 3.265 0 0 0-1.987-.67h-5.67c-1.794 0-3.26 1.446-3.26 3.237v10.65c0 .269.212.48.482.48 1.128 0 2.045-.91 2.045-2.04v-9.1c0-.392.327-.718.723-.718h5.671c.395 0 .723.326.723.719v9.098c0 1.12.916 2.04 2.045 2.04.27 0 .482-.21.482-.479v-10.65c0-.392.328-.718.723-.718h5.661c.396 0 .724.326.724.718v9.099c0 1.12.916 2.04 2.044 2.04.27 0 .482-.21.482-.479v-10.66c.02-1.79-1.437-3.237-3.24-3.237zM79.873 18.198h-7.6c-.597 0-1.08-.48-1.08-1.073v-1.073c0-.593.483-1.072 1.08-1.072h7.957c1.196 0 2.17-.968 2.17-2.155a.365.365 0 0 0-.366-.364H71.907c-1.794 0-3.26 1.446-3.26 3.237v1.8c0 1.782 1.457 3.238 3.26 3.238h7.6c.598 0 1.08.479 1.08 1.072v1.437c0 .594-.482 1.073-1.08 1.073H71.55c-1.195 0-2.17.967-2.17 2.155 0 .2.165.364.367.364h10.126c1.794 0 3.26-1.446 3.26-3.238v-2.154a3.259 3.259 0 0 0-3.26-3.247zM95.256 12.451H87.3a.365.365 0 0 0-.367.364c0 1.188.974 2.155 2.17 2.155h6.153c.396 0 .723.326.723.718v2.51h-7.252c-1.794 0-3.24 1.436-3.25 3.208l-.01 2.155a3.246 3.246 0 0 0 3.25 3.256h6.365c.598 0 1.148-.239 1.534-.632.395.393.945.632 1.543.632a.363.363 0 0 0 .357-.364V15.688a3.244 3.244 0 0 0-3.26-3.237zm.723 11.13a.726.726 0 0 1-.723.718H88.69a.726.726 0 0 1-.724-.719v-2.155c0-.393.328-.718.724-.718h7.29v2.873zM146.215 12.451h-7.956a.365.365 0 0 0-.367.364c0 1.188.974 2.155 2.17 2.155h6.153c.396 0 .723.326.723.718v2.51h-7.252a3.236 3.236 0 0 0-3.25 3.208l-.01 2.155a3.247 3.247 0 0 0 3.25 3.256h6.366c.597 0 1.147-.239 1.532-.632a2.19 2.19 0 0 0 1.544.632.362.362 0 0 0 .356-.364V15.688a3.255 3.255 0 0 0-3.259-3.237zm.723 11.13a.725.725 0 0 1-.723.718h-6.568a.726.726 0 0 1-.723-.719v-2.155c0-.393.328-.718.723-.718h7.291v2.873zM110.436 12.451H104.1c-1.794 0-3.26 1.446-3.26 3.237v10.775c0 .201.164.364.366.364 1.196 0 2.17-.967 2.17-2.155v-8.62c0-.593.482-1.072 1.08-1.072h4.167c1.196 0 2.17-.968 2.17-2.155 0-.211-.155-.374-.357-.374zM165.784 12.451a2.05 2.05 0 0 0-2.055 2.04v9.099a.726.726 0 0 1-.724.718h-7.956a.726.726 0 0 1-.722-.718V14.49c0-1.12-.917-2.04-2.046-2.04-.27 0-.481.21-.481.479v10.65c0 1.782 1.456 3.237 3.259 3.237h7.956c.251 0 .493-.028.724-.076v4.032a.726.726 0 0 1-.724.718h-9.046a2.165 2.165 0 0 0-2.169 2.155c0 .201.163.364.366.364h10.849c1.795 0 3.261-1.446 3.261-3.237V12.93a.491.491 0 0 0-.492-.479zM179.816 12.451h-7.957c-1.794 0-3.259 1.446-3.259 3.237v7.902c0 1.781 1.456 3.237 3.259 3.237h10.127a.366.366 0 0 0 .366-.364 2.166 2.166 0 0 0-2.17-2.155h-8.323a.726.726 0 0 1-.724-.718v-2.873h8.681c1.794 0 3.259-1.447 3.259-3.238v-1.79a3.256 3.256 0 0 0-3.259-3.238zm.724 5.028a.727.727 0 0 1-.724.719h-8.681v-2.51c0-.392.328-.718.724-.718h7.957c.395 0 .724.326.724.718v1.791zM199.866 15.689a3.249 3.249 0 0 0-3.251-3.237h-7.956c-.251 0-.491.028-.722.076V5.632a.366.366 0 0 0-.368-.363 2.165 2.165 0 0 0-2.169 2.154V26.34c0 .268.211.479.482.479a2.04 2.04 0 0 0 2.045-2.03v-9.1c0-.392.328-.718.722-.718h7.957c.395 0 .723.326.723.719v9.099c0 1.12.916 2.03 2.054 2.03.27 0 .483-.21.483-.479v-10.65z"/>
            </g>
        </g>
    </g>
    <defs>
        <clipPath id="rdti37gtra">
            <path fill="#fff" d="M0 0h200v34H0z"/>
        </clipPath>
    </defs>
</svg>
