<svg fill="none" height="142" viewBox="0 0 184 142" width="184" xmlns="http://www.w3.org/2000/svg">
    <g clip-path="url(#6agigw4isa)" fill="#fff">
        <path
            d="M180.009 94.12h-8.773c-.518 0-1.066.03-1.584.09l-90.843 9.253c-1.31.12-2.01.749-2.01 2.006v.958c0 1.078.914 1.977 2.01 1.977h101.2c2.194 0 3.991-1.767 3.991-3.923v-6.438c0-2.156-1.797-3.922-3.991-3.922zM19.253 141.551h-2.315a1.005 1.005 0 0 1-1.005-.988v-1.078c-2.407 1.377-4.936 2.425-7.738 2.425-4.265 0-8.195-1.826-8.195-7.995v-.599c0-5.329 3.168-7.994 12.124-7.994h3.717v-1.977c0-4.162-1.462-5.599-5.392-5.599-3.26 0-5.697.21-7.707.389h-.244c-.457 0-.914-.15-.914-.778v-1.737c0-.539.366-.838 1.066-.928 2.072-.36 4.387-.629 7.799-.629 7.007 0 9.81 3.473 9.81 9.282v17.248c0 .539-.427.958-1.006.958zm-3.412-13.145h-3.716c-6.093 0-7.708 1.347-7.708 4.851v.598c0 3.564 1.706 4.492 4.63 4.492 2.316 0 4.387-.689 6.794-1.976v-7.965zM44.416 141.551H29.215c-2.163 0-3.077-1.348-3.077-2.725v-.928c0-1.378.304-2.126 1.157-3.204l12.978-15.87c.091-.15.213-.3.213-.449 0-.21-.091-.36-.518-.36H27.752a1.006 1.006 0 0 1-1.005-.988v-1.677c0-.539.457-.988 1.005-.988h14.775c2.072 0 2.803.929 2.803 2.426v1.197c0 1.048-.366 1.767-1.158 2.725l-13.221 16.26c-.213.209-.244.389-.244.538 0 .24.061.39.396.39h13.282c.549 0 1.006.449 1.006.988v1.677c.03.569-.427.988-.975.988zM80.271 141.551h-2.406a1.006 1.006 0 0 1-1.006-.988v-26.35c0-.539.457-.988 1.006-.988h2.406c.549 0 1.006.449 1.006.988v26.35c0 .569-.457.988-1.006.988zM113.629 114.362l-6.336 22.458c-1.249 4.401-4.326 5.18-7.281 5.18s-5.97-.779-7.25-5.18l-6.276-22.458c-.06-.089-.06-.209-.06-.299 0-.509.365-.838.791-.838h6.641c.518 0 .914.449 1.067 1.048l4.326 19.373c.152.748.395 1.048.761 1.048s.64-.3.792-1.048l4.326-19.373c.152-.599.548-1.048 1.066-1.048h6.641c.457 0 .853.359.853.838 0 .12 0 .21-.061.299zM138.975 141.551h-5.636a1.006 1.006 0 0 1-1.005-.988v-.779c-1.95 1.378-3.961 2.216-7.007 2.216-4.387 0-8.591-2.066-8.591-8.504v-.449c0-5.779 3.778-8.354 12.369-8.354h2.711v-1.767c0-2.815-1.402-3.413-3.778-3.413-3.229 0-6.793.209-8.347.359h-.243c-.518 0-.914-.24-.914-.898v-4.013c0-.539.365-.928.944-1.078 1.858-.449 5.392-1.048 8.713-1.048 7.25 0 11.759 2.875 11.759 10.091v17.637c.03.569-.427.988-.975.988zm-6.976-12.097h-2.864c-3.534 0-4.417 1.197-4.417 3.623v.449c0 2.066 1.066 2.485 3.168 2.485 1.523 0 2.924-.509 4.113-1.078v-5.479zM182.934 141.551h-6.093c-.548 0-1.005-.509-1.005-1.048v-16.828c0-3.174-.762-4.103-3.077-4.103-.853 0-2.376.21-3.869.899.091.988.152 2.126.152 3.204v16.858c0 .539-.457 1.048-1.005 1.048h-6.093c-.548 0-1.066-.509-1.066-1.048v-16.858c0-3.174-.609-4.103-2.924-4.103-.945 0-2.255.51-3.808 1.288v19.673c0 .539-.457 1.048-1.006 1.048h-6.092c-.549 0-1.067-.509-1.067-1.048v-26.32c0-.539.457-.988 1.006-.988h5.727c.548 0 1.005.449 1.005.988v1.078c2.102-1.378 4.539-2.486 7.433-2.486 2.681 0 4.539.749 5.941 2.426 2.924-1.617 4.935-2.426 8.194-2.426 6.641 0 8.652 4.342 8.652 10.84v16.888c.061.539-.457 1.018-1.005 1.018zM55.748 128.765v11.828c0 .539-.457.988-1.005.988h-2.407a1.006 1.006 0 0 1-1.005-.988v-35.214c0-.539.457-.988 1.005-.988h2.407c.548 0 1.005.449 1.005.988V128.765z" />
        <path
            d="m71.711 140.263-10.814-12.875 10.814-12.876c.427-.509.061-1.287-.61-1.287h-2.893c-.488 0-.945.209-1.25.598l-11.393 13.595 11.394 13.594c.304.359.761.599 1.249.599h2.894c.67-.06 1.036-.809.61-1.348z" />
    </g>
    <path
        d="M92 71.819c15.464 0 28-12.505 28-27.93 0-15.425-12.536-27.93-28-27.93S64 28.465 64 43.89c0 15.425 12.536 27.93 28 27.93z"
        fill="#fff" />
    <path
        d="M135 42.89a42.835 42.835 0 0 0-12.594-30.328A43.057 43.057 0 0 0 92 0a43.056 43.056 0 0 0-30.406 12.562 42.835 42.835 0 0 0-12.135 36.58 42.866 42.866 0 0 0 15.646 27.217 43.075 43.075 0 0 0 30.037 9.31 43.044 43.044 0 0 0 28.356-13.578A42.828 42.828 0 0 0 135 42.891zm-71.864 6.251a29.621 29.621 0 0 1-.663-6.25c.002-2.002.204-3.998.602-5.959a29.477 29.477 0 0 1 11.529-17.737 29.615 29.615 0 0 1 39.352 4.109 29.443 29.443 0 0 1 7.597 19.733 29.443 29.443 0 0 1-7.597 19.733 29.615 29.615 0 0 1-39.352 4.108A29.477 29.477 0 0 1 63.075 49.14h.061z"
        fill="#fff" />
    <path
        d="M122 42.888a29.878 29.878 0 0 0-5.057-16.623 29.99 29.99 0 0 0-13.464-11.02 30.07 30.07 0 0 0-17.333-1.702 30.024 30.024 0 0 0-15.36 8.189 29.902 29.902 0 0 0-8.21 15.321 29.856 29.856 0 0 0 1.707 17.289 29.941 29.941 0 0 0 11.048 13.43 30.055 30.055 0 0 0 28.148 2.767 30.008 30.008 0 0 0 9.734-6.487 29.93 29.93 0 0 0 6.504-9.71A29.862 29.862 0 0 0 122 42.888zm-50.637 0a20.57 20.57 0 0 1 6.21-14.257 20.675 20.675 0 0 1 14.432-5.867 20.676 20.676 0 0 1 14.433 5.867 20.577 20.577 0 0 1 6.21 14.257"
        fill="#1ECAD3" />
    <path
        d="M92 56.857c7.732 0 14-6.253 14-13.965 0-7.713-6.268-13.965-14-13.965S78 35.18 78 42.892c0 7.712 6.268 13.965 14 13.965z"
        fill="#ED2027" />
    <defs>
        <clipPath id="6agigw4isa">
            <path d="M0 0h184v47.879H0z" fill="#fff" transform="translate(0 94.12)" />
        </clipPath>
    </defs>
</svg>
