<svg fill="none" height="28" viewBox="0 0 28 28" width="28" xmlns="http://www.w3.org/2000/svg">
    <path
        d="m21.21 9.38.54-.541a2.294 2.294 0 0 1 3.245 3.244l-.54.54M21.21 9.38s.068 1.15 1.081 2.163c1.014 1.014 2.163 1.081 2.163 1.081M21.21 9.38l-4.97 4.971c-.337.337-.506.505-.65.69-.171.22-.318.457-.437.707-.101.213-.177.439-.327.89l-.482 1.446-.156.468m10.266-5.928-4.97 4.971c-.337.337-.506.505-.691.65-.22.17-.456.317-.707.436-.212.102-.438.177-.89.328l-1.446.482-.468.156m0 0-.468.156a.619.619 0 0 1-.782-.783l.156-.468m1.094 1.095-1.094-1.095"
        stroke="#D61F2C" stroke-width="1.5" />
    <path
        d="M9.334 15.167h2.916M9.334 10.5h7.583M9.334 19.833h1.75M23.133 3.7c-1.367-1.367-3.567-1.367-7.966-1.367h-2.334c-4.4 0-6.6 0-7.966 1.367C3.5 5.067 3.5 7.267 3.5 11.667v4.666c0 4.4 0 6.6 1.367 7.967s3.567 1.367 7.966 1.367h2.334c4.4 0 6.6 0 7.966-1.367 1.1-1.1 1.315-2.74 1.357-5.633"
        stroke="#475467" stroke-linecap="round" stroke-width="1.5" />
</svg>
