<svg width="185" height="138" viewBox="0 0 185 138" fill="none" xmlns="http://www.w3.org/2000/svg">
    <g clip-path="url(#035wdpub1a)">
        <path d="M180.509 90h-8.773c-.518 0-1.066.03-1.584.09l-90.843 9.276c-1.31.12-2.01.75-2.01 2.011v.961c0 1.08.914 1.981 2.01 1.981h101.2c2.194 0 3.991-1.771 3.991-3.933v-6.453c0-2.162-1.797-3.933-3.991-3.933z" fill="url(#40kukki1hb)"/>
        <path d="M19.753 137.55h-2.315c-.549 0-1.005-.45-1.005-.991v-1.08c-2.407 1.38-4.936 2.431-7.738 2.431-4.265 0-8.195-1.831-8.195-8.015v-.6c0-5.344 3.168-8.015 12.124-8.015h3.717v-1.982c0-4.172-1.462-5.613-5.392-5.613-3.26 0-5.697.21-7.707.39h-.244c-.457 0-.914-.15-.914-.78v-1.741c0-.541.366-.841 1.066-.931 2.072-.36 4.387-.63 7.799-.63 7.007 0 9.81 3.482 9.81 9.305v17.291c0 .541-.427.961-1.006.961zm-3.412-13.178h-3.717c-6.092 0-7.707 1.351-7.707 4.863v.6c0 3.572 1.706 4.503 4.63 4.503 2.316 0 4.387-.691 6.794-1.981v-7.985zM44.916 137.55H29.715c-2.163 0-3.077-1.351-3.077-2.732v-.931c0-1.381.304-2.131 1.157-3.212l12.978-15.91c.091-.15.213-.3.213-.45 0-.21-.091-.36-.518-.36H28.252a1.007 1.007 0 0 1-1.005-.991v-1.681c0-.54.457-.991 1.005-.991h14.775c2.072 0 2.803.931 2.803 2.432v1.201c0 1.05-.366 1.771-1.158 2.731l-13.221 16.301c-.213.21-.244.39-.244.54 0 .24.061.39.396.39h13.282c.549 0 1.006.451 1.006.991v1.681c.03.57-.427.991-.975.991zM80.772 137.55h-2.407a1.007 1.007 0 0 1-1.005-.991v-26.417c0-.54.457-.99 1.005-.99h2.407c.548 0 1.005.45 1.005.99v26.417c0 .57-.457.991-1.005.991zM114.129 110.293l-6.336 22.514c-1.249 4.412-4.326 5.193-7.281 5.193s-5.97-.781-7.25-5.193l-6.276-22.514c-.06-.09-.06-.211-.06-.301 0-.51.365-.84.791-.84h6.641c.518 0 .914.45 1.066 1.051l4.326 19.422c.153.75.396 1.05.762 1.05.365 0 .64-.3.792-1.05l4.326-19.422c.152-.601.548-1.051 1.066-1.051h6.641c.457 0 .853.36.853.84 0 .12 0 .211-.061.301zM139.475 137.55h-5.636a1.007 1.007 0 0 1-1.005-.991v-.78c-1.95 1.38-3.96 2.221-7.007 2.221-4.387 0-8.591-2.071-8.591-8.525v-.451c0-5.793 3.778-8.375 12.369-8.375h2.711v-1.771c0-2.822-1.401-3.422-3.778-3.422-3.229 0-6.793.21-8.347.36h-.243c-.518 0-.914-.24-.914-.9v-4.023c0-.54.365-.931.944-1.081 1.858-.45 5.392-1.05 8.713-1.05 7.25 0 11.759 2.882 11.759 10.116v17.681c.03.57-.427.991-.975.991zm-6.976-12.128h-2.864c-3.534 0-4.417 1.201-4.417 3.632v.451c0 2.071 1.066 2.491 3.168 2.491 1.523 0 2.925-.51 4.113-1.08v-5.494zM183.434 137.549h-6.093c-.548 0-1.005-.51-1.005-1.05v-16.871c0-3.182-.762-4.112-3.077-4.112-.853 0-2.376.21-3.869.9.091.991.152 2.132.152 3.212v16.901c0 .54-.457 1.05-1.005 1.05h-6.093c-.548 0-1.066-.51-1.066-1.05v-16.901c0-3.182-.609-4.112-2.924-4.112-.945 0-2.255.51-3.808 1.29v19.723c0 .54-.457 1.05-1.006 1.05h-6.092c-.549 0-1.067-.51-1.067-1.05v-26.387c0-.54.457-.99 1.006-.99h5.727c.548 0 1.005.45 1.005.99v1.081c2.102-1.381 4.539-2.492 7.433-2.492 2.681 0 4.539.751 5.941 2.432 2.924-1.621 4.935-2.432 8.194-2.432 6.641 0 8.652 4.353 8.652 10.867v16.931c.061.54-.457 1.02-1.005 1.02zM56.248 124.732v11.857c0 .54-.457.991-1.005.991h-2.407a1.007 1.007 0 0 1-1.005-.991v-35.302c0-.54.457-.991 1.005-.991h2.407c.548 0 1.005.451 1.005.991v23.445z" fill="#001BC1"/>
        <path d="m72.211 136.259-10.814-12.908 10.814-12.908c.427-.511.061-1.291-.609-1.291h-2.894c-.487 0-.944.21-1.25.6l-11.392 13.629 11.393 13.628c.305.36.761.601 1.249.601h2.894c.67-.06 1.036-.811.61-1.351z" fill="#001BC1"/>
    </g>
    <path d="M93.394 71.594c15.312 0 27.725-12.413 27.725-27.725 0-15.312-12.413-27.724-27.725-27.724-15.312 0-27.724 12.412-27.724 27.724s12.412 27.725 27.724 27.725z" fill="#fff"/>
    <path d="M135.428 42.973A42.924 42.924 0 0 0 92.5.046a42.93 42.93 0 1 0 42.928 42.927zM63.684 49.23a29.716 29.716 0 0 1-.661-6.257c.001-2.003.203-4 .6-5.963a29.508 29.508 0 0 1 50.796-13.64 29.504 29.504 0 0 1 0 39.5 29.51 29.51 0 0 1-50.795-13.64h.06z" fill="#fff"/>
    <path d="M121.119 42.077a29.517 29.517 0 0 0-18.221-27.264 29.512 29.512 0 0 0-38.56 38.56 29.513 29.513 0 0 0 56.781-11.296zm-49.816 0a20.313 20.313 0 0 1 40.615 0" fill="#1ECAD3"/>
    <path d="M91.606 55.496c7.409 0 13.415-6.006 13.415-13.415 0-7.41-6.006-13.416-13.415-13.416-7.41 0-13.415 6.007-13.415 13.416 0 7.409 6.006 13.415 13.415 13.415z" fill="#ED2027"/>
    <defs>
        <linearGradient id="40kukki1hb" x1="77.299" y1="97.159" x2="184.5" y2="97.159" gradientUnits="userSpaceOnUse">
            <stop stop-color="#00D"/>
            <stop offset=".107" stop-color="#010BDF"/>
            <stop offset=".294" stop-color="#0428E4"/>
            <stop offset=".541" stop-color="#0958EC"/>
            <stop offset=".834" stop-color="#0F9AF8"/>
            <stop offset="1" stop-color="#13C2FF"/>
        </linearGradient>
        <clipPath id="035wdpub1a">
            <path fill="#fff" transform="translate(.5 90)" d="M0 0h184v48H0z"/>
        </clipPath>
    </defs>
</svg>
