<svg fill="none" height="28" viewBox="0 0 28 28" width="28" xmlns="http://www.w3.org/2000/svg">
    <path
        d="m17.955 5.273-12.53 12.53a1.204 1.204 0 0 1-1.715 0H3.7a4.176 4.176 0 0 1 0-5.891L12.04 3.57a4.169 4.169 0 0 1 5.904 0 1.2 1.2 0 0 1 .011 1.703zM24.29 9.905l-3.558-3.558a1.204 1.204 0 0 0-1.715 0l-12.53 12.53a1.204 1.204 0 0 0 0 1.715l3.558 3.57a4.19 4.19 0 0 0 5.903 0l8.33-8.342a4.151 4.151 0 0 0 .012-5.915zM14.887 20.44l-1.412 1.423a.768.768 0 0 1-1.073 0 .768.768 0 0 1 0-1.073l1.423-1.423c.28-.28.77-.28 1.062 0 .291.291.291.793 0 1.073zm4.631-4.632-2.846 2.859a.79.79 0 0 1-1.074 0 .768.768 0 0 1 0-1.074l2.859-2.858c.28-.28.77-.28 1.061 0a.768.768 0 0 1 0 1.073z"
        fill="#D7DDE6" />
    <path
        d="M25.666 24.792a.881.881 0 0 1-.875.875H3.208a.881.881 0 0 1-.875-.875c0-.479.397-.875.875-.875h21.583c.479 0 .875.396.875.875z"
        fill="#D61F2C" />
</svg>
