<svg fill="none" height="39" viewBox="0 0 39 39" width="39" xmlns="http://www.w3.org/2000/svg">
    <path d="M19.5 35.476a15.976 15.976 0 0 1 0-31.952" stroke="#EAEAEA" stroke-linecap="round"
        stroke-width="2.5" />
    <path d="M34.956 15.455a15.975 15.975 0 1 1-30.91 8.09" stroke="#EAEAEA" stroke-linecap="round"
        stroke-width="2.5" />
    <path
        d="M19.5 3.524A15.976 15.976 0 0 1 35.476 19.5M19.5 3.524A15.976 15.976 0 0 0 3.525 19.5M19.5 35.476A15.976 15.976 0 0 0 35.476 19.5M19.5 35.476A15.976 15.976 0 0 1 3.525 19.5"
        stroke="#D61F2C" stroke-linecap="round" stroke-width="2.5" />
    <circle cx="12.781" cy="12.781" fill="#D61F2C" r="12.781"
        transform="matrix(-1 0 0 1 32.282 6.72)" />
    <path d="m20.78 16.305-3.055 3.053a.2.2 0 0 0 0 .283l3.054 3.054" stroke="#fff"
        stroke-linecap="round" stroke-width="1.5" />
</svg>
