<svg fill="none" height="24" viewBox="0 0 24 24" width="24" xmlns="http://www.w3.org/2000/svg">
    <g clip-path="url(#uba4i4d5sa)">
        <path
            d="M23 7.818c-.787.334-1.546.785-2.366.976-.92.214-1.893.193-2.988.285-.149.307-.376.776-.607 1.246-1.414 2.85-3.038 5.547-5.38 7.717-2.862 2.648-6.158 3.642-9.96 2.682-.484-.123-.729-.31-.696-.881.05-.893.006-1.789.003-2.685.311.061.631.101.936.19 1.555.464 3.116.553 4.702.15 2.65-.674 4.644-2.328 6.364-4.4 1.62-1.954 2.796-4.179 3.78-6.523.087-.209.347-.34.527-.506 2.027.457 3.92.104 5.688-.997v2.743L23 7.818zM1.015 16.771c0-1.206-.009-2.411.009-3.617.003-.264.057-.553.173-.786 1.316-2.608 2.83-5.081 4.941-7.112 3.102-2.983 6.684-3.999 10.815-2.704v3.422c-.407-.12-.694-.203-.984-.286-1.732-.497-3.455-.5-5.177.059-1.726.558-3.185 1.552-4.477 2.826-2.232 2.194-3.757 4.863-4.98 7.738-.072.169-.212.31-.32.466v-.006z"
            fill="#0FA3B1" />
        <path
            d="M21.403 17.069c0 .347.087.724-.015 1.037-.317.979-.75 1.902-1.612 2.528-1.038.755-2.27.547-2.91-.583a3.824 3.824 0 0 1-.49-1.647c-.07-1.442-.024-2.888-.024-4.333 0-.092-.018-.196.017-.273.533-1.12 1.074-2.234 1.616-3.35l.167.054v.743c.006 1.682 0 3.366.02 5.048a4 4 0 0 0 .162 1.132c.314 1.019 1.355 1.298 2.133.574.299-.28.538-.626.801-.945l.135.012v.003zM12.03 18.683l1.364 1.409c.392-.436.783-.872 1.283-1.424.49.567.936 1.08 1.423 1.648L14.632 22l-1.322-1.445c-.458.494-.864.939-1.319 1.43-.476-.54-.921-1.047-1.424-1.62.461-.531.916-1.053 1.46-1.682h.003z"
            fill="#0FA3B1" />
        <path
            d="M16.026 6.612c-.614 1.181-1.137 2.283-1.741 3.329-1.07 1.856-2.387 3.513-4.062 4.839-2.23 1.764-4.701 2.593-7.53 1.927-.183-.043-.36-.126-.563-.2.04-.171.048-.297.096-.408 1.313-2.94 2.958-5.646 5.458-7.695 2.261-1.854 4.792-2.722 7.702-2.022.164.04.323.113.64.23z"
            fill="#CE9AC5" />
    </g>
    <defs>
        <clipPath id="uba4i4d5sa">
            <path d="M0 0h22v20H0z" fill="#fff" transform="translate(1 2)" />
        </clipPath>
    </defs>
</svg>
