<svg fill="none" height="24" viewBox="0 0 24 24" width="24" xmlns="http://www.w3.org/2000/svg">
    <path
        d="M21.237 18.02H15.71a.76.76 0 0 1-.753-.753.759.759 0 0 1 .753-.753h5.527a.759.759 0 0 1 .753.753.759.759 0 0 1-.753.754z"
        fill="#D61F2C" />
    <path
        d="M18.473 20.784a.759.759 0 0 1-.753-.753v-5.527a.759.759 0 0 1 .753-.753.759.759 0 0 1 .754.753v5.527a.76.76 0 0 1-.754.753z"
        fill="#D61F2C" />
    <path
        d="M12.998 20.734H9.001c-5.427 0-7.745-1.317-7.745-6.737v-3.994c0-5.42 2.318-6.737 7.745-6.737h6c5.427 0 7.746 1.317 7.746 6.737V12a.75.75 0 0 1-1.5 0v-1.997c0-4.601-1.638-5.24-6.246-5.24h-6c-4.607 0-6.246.639-6.246 5.24v3.994c0 4.602 1.639 5.24 6.246 5.24h3.997a.749.749 0 0 1 0 1.497z"
        fill="#475467" />
    <path
        d="M7.267 10.25a.76.76 0 0 1 .756-.753h8.247a.76.76 0 0 1 .753.753.76.76 0 0 1-.753.754H8.023a.752.752 0 0 1-.756-.754zM7.279 14.249a.76.76 0 0 1 .753-.754h4.23a.76.76 0 0 1 .754.754.76.76 0 0 1-.753.753H8.032a.751.751 0 0 1-.753-.753z"
        fill="#D61F2C" />
</svg>
