<svg fill="none" height="28" viewBox="0 0 28 28" width="28" xmlns="http://www.w3.org/2000/svg">
    <path d="M2.333 9.916h12.25M7 19.25h2.333M12.25 19.25h4.667" stroke="#D7DDE6"
        stroke-linecap="round" stroke-linejoin="round" stroke-miterlimit="10" stroke-width="1.2" />
    <path
        d="M25.667 15.369v3.427c0 4.095-1.039 5.121-5.18 5.121H7.513c-4.141 0-5.18-1.026-5.18-5.121v-9.59c0-4.095 1.039-5.122 5.18-5.122h7.07"
        stroke="#D7DDE6" stroke-linecap="round" stroke-linejoin="round" stroke-width="1.2" />
    <path d="M18 4.537h6.722c.806 0 1.46.655 1.46 1.46V7.61" stroke="#D61F2C" stroke-linecap="round"
        stroke-linejoin="round" stroke-miterlimit="10" stroke-width="1.2" />
    <path d="M19.536 3 18 4.536l1.536 1.536M26.183 11.183H19.46c-.805 0-1.46-.655-1.46-1.46V8.11"
        stroke="#D61F2C" stroke-linecap="round" stroke-linejoin="round" stroke-miterlimit="10"
        stroke-width="1.2" />
    <path d="m24.648 12.72 1.536-1.536-1.536-1.536" stroke="#D61F2C" stroke-linecap="round"
        stroke-linejoin="round" stroke-miterlimit="10" stroke-width="1.2" />
</svg>
