<svg fill="none" height="28" viewBox="0 0 28 28" width="28" xmlns="http://www.w3.org/2000/svg">
    <path
        d="M10.5 7h4.667C17.5 7 17.5 5.833 17.5 4.667c0-2.333-1.167-2.333-2.333-2.333H10.5c-1.167 0-2.333 0-2.333 2.333S9.333 7 10.5 7z"
        stroke="#D7DDE6" stroke-linecap="round" stroke-linejoin="round" stroke-miterlimit="10"
        stroke-width="1.5" />
    <path
        d="M14.167 25.667H9.333c-5.833 0-7-2.333-7-7v-7c0-5.32 1.949-6.767 5.834-6.977M17.5 4.69c3.885.21 5.833 1.645 5.833 6.977"
        stroke="#D7DDE6" stroke-linecap="round" stroke-linejoin="round" stroke-miterlimit="10"
        stroke-width="1.5" />
    <path d="M14 16.628h11.667M16.333 21.295h4.084" stroke="#D61F2C" stroke-linecap="round"
        stroke-linejoin="round" stroke-miterlimit="10" stroke-width="1.2" />
    <path
        d="M16.59 13.711h6.48c2.078 0 2.597.514 2.597 2.561v4.79c0 2.047-.52 2.56-2.59 2.56H16.59c-2.07.006-2.59-.507-2.59-2.555v-4.795c0-2.047.52-2.56 2.59-2.56z"
        stroke="#D61F2C" stroke-linecap="round" stroke-linejoin="round" stroke-width="1.2" />
</svg>
