<svg width="97" height="97" viewBox="0 0 97 97" fill="none" xmlns="http://www.w3.org/2000/svg">
<g id="Group 1000004565">
<g id="simcard">
<g id="vuesax/linear/simcard">
<g id="simcard_2">
<path id="Vector" d="M78.9742 26.4325L66.5662 14.0246C62.7671 10.2255 57.6342 8.08337 52.2587 8.08337H32.3333C20.2083 8.08337 12.125 16.1667 12.125 28.2917V68.7084C12.125 80.8334 20.2083 88.9167 32.3333 88.9167H64.6667C76.7917 88.9167 84.875 80.8334 84.875 68.7084V40.6996C84.875 35.3242 82.7329 30.1913 78.9742 26.4325Z" stroke="#949494" stroke-width="4.5" stroke-linecap="round" stroke-linejoin="round"/>
<path id="Vector_2" d="M40.4166 74.7709H56.5833C63.252 74.7709 68.7083 69.3146 68.7083 62.6459V50.5209C68.7083 43.8521 63.252 38.3959 56.5833 38.3959H40.4166C33.7479 38.3959 28.2916 43.8521 28.2916 50.5209V62.6459C28.2916 69.3146 33.7479 74.7709 40.4166 74.7709Z" stroke="#949494" stroke-width="4.5" stroke-linecap="round" stroke-linejoin="round"/>
<path id="Vector_3" d="M48.5 38.3959V74.7709" stroke="#FF0505" stroke-width="3.5" stroke-linecap="round" stroke-linejoin="round"/>
<path id="Vector_4" d="M30.3125 56.5834H66.6875" stroke="#FF0505" stroke-width="3.5" stroke-linecap="round" stroke-linejoin="round"/>
</g>
</g>
</g>
</g>
</svg>
