<svg fill="none" height="28" viewBox="0 0 28 28" width="28" xmlns="http://www.w3.org/2000/svg">
    <path
        d="M17.756 7.642H6.743c-.327 0-.63.011-.91.023-2.765.163-3.5 1.178-3.5 4.328v.677A1.17 1.17 0 0 0 3.5 13.837H21a1.17 1.17 0 0 0 1.166-1.167v-.677c0-3.476-.886-4.351-4.41-4.351zM3.5 15.587a1.17 1.17 0 0 0-1.167 1.166v3.395c0 3.477.887 4.352 4.41 4.352h11.013c3.465 0 4.375-.84 4.41-4.165v-3.582A1.17 1.17 0 0 0 21 15.587H3.5zm4.62 6.066H6.125a.881.881 0 0 1-.875-.875c0-.478.396-.875.875-.875H8.13c.479 0 .875.397.875.875a.884.884 0 0 1-.886.875zm6.521 0h-4.013a.881.881 0 0 1-.875-.875c0-.478.397-.875.875-.875h4.013a.874.874 0 1 1 0 1.75z"
        fill="#D7DDE6" />
    <path
        d="M25.667 15.552V9.438c0-3.651-2.089-5.238-5.239-5.238H10.01c-.886 0-1.68.128-2.38.397a3.995 3.995 0 0 0-1.435.875c-.21.198-.046.525.257.525h12.682a4.745 4.745 0 0 1 4.748 4.748v8.365c0 .292.315.455.525.245.805-.852 1.26-2.1 1.26-3.803z"
        fill="#D61F2C" />
</svg>
