<svg fill="none" height="24" viewBox="0 0 24 24" width="24" xmlns="http://www.w3.org/2000/svg">
    <path
        d="M17.594 20.084a4.018 4.018 0 1 1-.002-8.037 4.018 4.018 0 0 1 .002 8.037zm0-6.51a2.492 2.492 0 1 0 0 4.984 2.492 2.492 0 0 0 0-4.984z"
        fill="#D61F2C" />
    <path
        d="M21.459 20.694a.757.757 0 0 1-.54-.226l-1.017-1.015a.762.762 0 1 1 1.078-1.078l1.015 1.017a.772.772 0 0 1 0 1.076.755.755 0 0 1-.536.226z"
        fill="#D61F2C" />
    <path
        d="M12.998 20.694H9.006c-5.42 0-7.735-1.311-7.735-6.706v-3.975c0-5.396 2.314-6.707 7.735-6.707h5.988c5.419 0 7.735 1.311 7.735 6.707V12a.75.75 0 0 1-1.498 0v-1.987c0-4.58-1.637-5.216-6.237-5.216H9.006c-4.601 0-6.237.636-6.237 5.216v3.975c0 4.58 1.637 5.216 6.237 5.216h3.992a.745.745 0 1 1 0 1.49z"
        fill="#475467" />
    <path
        d="M9 7.5a1.8 1.8 0 1 1 0 3.6 1.8 1.8 0 0 1 0-3.6zm0 2.6a.801.801 0 1 0 0-1.602.801.801 0 0 0 0 1.603zM11.514 14.721a.5.5 0 0 1-.497-.451A1.674 1.674 0 0 0 9.5 12.769a5.046 5.046 0 0 0-.997 0 1.684 1.684 0 0 0-1.52 1.5.501.501 0 0 1-.998-.096 2.686 2.686 0 0 1 2.418-2.4 6.046 6.046 0 0 1 1.188 0 2.673 2.673 0 0 1 2.42 2.4.5.5 0 0 1-.45.546l-.047.002z"
        fill="#D61F2C" />
</svg>
