<svg width="124" height="124" viewBox="0 0 124 124" fill="none" xmlns="http://www.w3.org/2000/svg">
<g id="Group 1000004565">
<g id="simcard">
<g id="vuesax/linear/simcard">
<g id="simcard_2">
<path id="Vector" d="M100.957 33.7887L85.095 17.927C80.2383 13.0704 73.6767 10.332 66.805 10.332H41.3333C25.8333 10.332 15.5 20.6654 15.5 36.1654V87.832C15.5 103.332 25.8333 113.665 41.3333 113.665H82.6667C98.1667 113.665 108.5 103.332 108.5 87.832V52.027C108.5 45.1554 105.762 38.5937 100.957 33.7887Z" stroke="#C4C4C4" stroke-width="4.5" stroke-linecap="round" stroke-linejoin="round"/>
<path id="Vector_2" d="M51.668 95.582H72.3346C80.8596 95.582 87.8346 88.607 87.8346 80.082V64.582C87.8346 56.057 80.8596 49.082 72.3346 49.082H51.668C43.143 49.082 36.168 56.057 36.168 64.582V80.082C36.168 88.607 43.143 95.582 51.668 95.582Z" stroke="#C4C4C4" stroke-width="4.5" stroke-linecap="round" stroke-linejoin="round"/>
<path id="Vector_3" d="M62 49.082V95.582" stroke="#FF0505" stroke-width="3.5" stroke-linecap="round" stroke-linejoin="round"/>
<path id="Vector_4" d="M38.75 72.332H85.25" stroke="#FF0505" stroke-width="3.5" stroke-linecap="round" stroke-linejoin="round"/>
</g>
</g>
</g>
</g>
</svg>
