<svg fill="none" height="24" viewBox="0 0 24 24" width="24" xmlns="http://www.w3.org/2000/svg">
    <g clip-path="url(#shfdk0iasa)">
        <path
            d="M22.126 17.19a.6.6 0 0 1-.6-.6v-1.17a.458.458 0 0 0-.457-.458h-4.87a.6.6 0 1 1 0-1.2h4.87a1.66 1.66 0 0 1 1.657 1.658v1.17a.6.6 0 0 1-.6.6z"
            fill="#D61F2C" />
        <path
            d="M16.313 16.078a.6.6 0 0 1-.428-.179l-1.115-1.114a.597.597 0 0 1 0-.849l1.115-1.11a.6.6 0 0 1 .848.848l-.686.686.686.685a.6.6 0 0 1-.42 1.033zM22.125 19.78h-5.868a1.66 1.66 0 0 1-1.658-1.66v-1.168a.6.6 0 1 1 1.2 0v1.167a.456.456 0 0 0 .458.461h5.868a.6.6 0 1 1 0 1.2z"
            fill="#D61F2C" />
        <path
            d="M21.015 20.893a.6.6 0 0 1-.425-1.029l.686-.686-.686-.685a.6.6 0 1 1 .849-.849l1.113 1.106a.6.6 0 0 1 0 .849l-1.115 1.114a.6.6 0 0 1-.422.18z"
            fill="#D61F2C" />
        <path
            d="M13 20.75H9c-5.43 0-7.75-1.32-7.75-6.75v-4c0-5.43 2.32-6.75 7.75-6.75h6c5.43 0 7.75 1.32 7.75 6.75v2a.75.75 0 0 1-1.5 0v-2c0-4.61-1.64-5.25-6.25-5.25H9c-4.61 0-6.25.64-6.25 5.25v4c0 4.61 1.64 5.25 6.25 5.25h4a.75.75 0 1 1 0 1.5z"
            fill="#D7DDE6" />
        <path
            d="M7.29 10.25a.755.755 0 0 1 .75-.75h8.21a.755.755 0 0 1 .75.75.755.755 0 0 1-.75.75H8.04a.75.75 0 0 1-.75-.75zM7.29 14.25a.755.755 0 0 1 .75-.75h4.21a.755.755 0 0 1 .75.75.755.755 0 0 1-.75.75H8.04a.749.749 0 0 1-.75-.75z"
            fill="#D7DDE6" />
    </g>
    <defs>
        <clipPath id="shfdk0iasa">
            <path d="M0 0h24v24H0z" fill="#fff" />
        </clipPath>
    </defs>
</svg>
