<svg width="32" height="32" viewBox="0 0 32 32" fill="none" xmlns="http://www.w3.org/2000/svg">
    <path fill-rule="evenodd" clip-rule="evenodd" d="M11.94 1.867h8.12c1.835 0 3.293 0 4.436.153 1.178.159 2.14.493 2.898 1.253.76.759 1.094 1.72 1.253 2.898.153 1.143.153 2.601.153 4.436v10.786c0 1.835 0 3.293-.153 4.436-.159 1.178-.493 2.14-1.253 2.898-.759.76-1.72 1.094-2.898 1.253-1.143.153-2.601.153-4.436.153h-8.12c-1.835 0-3.293 0-4.435-.153-1.178-.159-2.14-.493-2.899-1.253-.76-.759-1.094-1.72-1.252-2.898-.154-1.143-.154-2.601-.154-4.436V10.607c0-1.835 0-3.293.154-4.436.158-1.178.493-2.14 1.252-2.898.76-.76 1.72-1.094 2.899-1.253 1.142-.153 2.6-.153 4.435-.153zM7.718 3.606c-1 .135-1.568.386-1.98.798-.413.412-.664.98-.798 1.98-.138 1.024-.14 2.374-.14 4.283v10.666c0 1.909.002 3.26.14 4.283.134 1 .385 1.568.797 1.98.413.412.98.663 1.98.798 1.024.138 2.375.14 4.283.14h8c1.908 0 3.26-.002 4.283-.14 1-.134 1.568-.386 1.98-.798.412-.412.663-.98.798-1.98.137-1.024.14-2.374.14-4.283V10.667c0-1.909-.003-3.26-.14-4.283-.135-1-.386-1.568-.798-1.98-.412-.412-.98-.663-1.98-.798-1.024-.138-2.375-.14-4.283-.14h-8c-1.908 0-3.259.002-4.282.14z" fill="#F2F4F7"/>
    <path fill-rule="evenodd" clip-rule="evenodd" d="M1.867 16a.8.8 0 0 1 .8-.8h2.666a.8.8 0 0 1 0 1.6H2.667a.8.8 0 0 1-.8-.8zM1.867 21.333a.8.8 0 0 1 .8-.8h2.666a.8.8 0 0 1 0 1.6H2.667a.8.8 0 0 1-.8-.8zM1.867 10.667a.8.8 0 0 1 .8-.8h2.666a.8.8 0 1 1 0 1.6H2.667a.8.8 0 0 1-.8-.8z" fill="#F2F4F7"/>
    <path fill-rule="evenodd" clip-rule="evenodd" d="M16 10a2 2 0 1 0 0 4 2 2 0 0 0 0-4zm-3.333 2a3.333 3.333 0 1 1 6.667 0 3.333 3.333 0 0 1-6.667 0zM12.527 18.71c-.894.448-1.193.942-1.193 1.29 0 .783.034 1.087.39 1.346.22.159.61.329 1.31.455.697.125 1.653.199 2.966.199 1.313 0 2.27-.074 2.965-.199.701-.126 1.091-.296 1.31-.455.358-.259.392-.563.392-1.346 0-.348-.3-.842-1.194-1.29C18.62 18.284 17.392 18 16 18s-2.618.284-3.473.71zm-.596-1.192c1.076-.538 2.515-.851 4.07-.851 1.553 0 2.993.313 4.069.851C21.105 18.036 22 18.875 22 20v.068c.001.688.003 1.673-.942 2.358-.447.323-1.057.543-1.857.687-.804.145-1.847.22-3.2.22-1.354 0-2.398-.075-3.202-.22-.8-.144-1.41-.364-1.856-.687-.946-.684-.944-1.67-.943-2.358V20c0-1.125.895-1.964 1.93-2.482z" fill="#D61F2C"/>
</svg>
