<svg fill="none" height="28" viewBox="0 0 28 28" width="28" xmlns="http://www.w3.org/2000/svg">
    <path
        d="M24.127 16.228v-.011a5.557 5.557 0 0 0-4.06-1.75 5.601 5.601 0 0 0-5.6 5.6c0 1.435.548 2.741 1.435 3.733a5.58 5.58 0 0 0 4.165 1.867c3.091 0 5.6-2.509 5.6-5.6a5.547 5.547 0 0 0-1.54-3.839zm-1.972 4.784h-1.213v1.271a.881.881 0 0 1-.875.875.881.881 0 0 1-.875-.875v-1.271h-1.213a.867.867 0 0 1-.875-.875c0-.479.373-.864.863-.875h1.225v-1.167c0-.023 0-.047.011-.07a.867.867 0 0 1 .864-.805c.466 0 .852.373.875.84v1.202h1.213c.49 0 .875.396.875.875 0 .49-.385.875-.875.875z"
        fill="#D61F2C" />
    <path
        d="M25.666 10.185c0 1.388-.221 2.672-.606 3.862-.07.245-.362.315-.572.163a7.404 7.404 0 0 0-4.422-1.447c-4.048 0-7.35 3.302-7.35 7.35 0 1.26.327 2.497.945 3.594.187.326-.035.746-.385.618-2.811-.957-8.493-4.445-10.336-10.278a12.459 12.459 0 0 1-.607-3.862c0-3.605 2.905-6.522 6.487-6.522A6.474 6.474 0 0 1 14 6.265a6.473 6.473 0 0 1 5.18-2.602c3.581 0 6.486 2.917 6.486 6.522z"
        fill="#D7DDE6" />
</svg>
