<svg fill="none" height="132" viewBox="0 0 195 132" width="195" xmlns="http://www.w3.org/2000/svg">
    <mask style="mask-type:alpha" height="132" id="3ksknghuka" maskUnits="userSpaceOnUse"
        width="195" x="0" y="0">
        <rect fill="#F2F4F7" height="132" rx="8" width="195" />
    </mask>
    <g fill="#475467" mask="url(#3ksknghuka)">
        <g opacity=".14">
            <path
                d="M157.021 9.362 149.04 23.07l-8.312-14.276H90.88L71.39 42.25l-7.98-13.711L82.896-4.913l.002-.003h49.848l-4.225-7.259h-40.99l7.982-13.71h40.99l.169.292 20.348 34.955zM74.416 46.821l-.168.288-.084-.144.252-.144z" />
            <path
                d="m166.282 68.96-7.981 13.71h-38.938L94.438 39.855l-4.225 7.258 20.698 35.557H94.948L74.25 47.115l-.002-.003.17-.29v-.002l20.35-34.953 15.962.001h.001l-8.312 14.276 24.925 42.815 38.938.001zM169.117 64.085l-.084.144-.251-.144h.335z" />
            <path
                d="m189.615 28.88-20.496 35.206h-.339l-40.697-.002-7.981-13.709v-.002h16.622L161.647 7.56l-19.458-33.427h15.962l19.46 33.425-24.923 42.815h8.45l20.494-35.205 7.983 13.712z" />
            <path
                d="M126.624 42.84c8.02 0 14.522-6.448 14.522-14.403 0-7.954-6.502-14.402-14.522-14.402s-14.521 6.448-14.521 14.402c0 7.955 6.501 14.403 14.521 14.403z" />
        </g>
        <g opacity=".14">
            <path
                d="m59.769 64.64-7.981 13.709-8.312-14.276H-6.372l-19.489 33.455-7.98-13.71 19.486-33.453.002-.003h49.848l-4.225-7.259H-9.72l7.982-13.71h40.99l.169.291L59.769 64.64z" />
            <path
                d="M39.42 29.392v.29l-.167-.29h.167zM69.03 124.238l-7.981 13.71H22.11L-2.814 95.133l-4.225 7.258 20.698 35.557H-2.304l-20.698-35.555-.002-.003.17-.291v-.001l20.35-34.954 15.962.002h.002L5.166 81.422l24.925 42.815 38.938.001zM71.864 119.363l-.084.144-.25-.144h.334z" />
            <path
                d="m92.363 84.158-20.496 35.206h-.339l-40.697-.002-7.981-13.709v-.001h16.622l24.923-42.814-19.458-33.427h15.962l19.46 33.426-24.923 42.815h8.45L84.38 70.446l7.983 13.712z" />
            <path
                d="M29.372 98.118c8.02 0 14.522-6.448 14.522-14.402 0-7.954-6.502-14.402-14.522-14.402s-14.521 6.448-14.521 14.402c0 7.954 6.501 14.402 14.521 14.402z" />
        </g>
        <g opacity=".14">
            <path
                d="m68.123 12.598-7.98 13.71H21.204L-3.72-16.509l-4.225 7.259 20.698 35.556H-3.211L-23.909-9.248l-.001-.003.17-.29v-.002l20.35-34.953 15.962.002h.001L4.261-30.22l24.925 42.815 38.937.002zM70.958 7.722l-.083.144-.251-.144h.334z" />
            <path
                d="M91.457-27.483 70.96 7.724h-.34l-40.697-.001-7.98-13.71v-.001h16.622l24.923-42.813L44.031-82.23h15.962l19.46 33.426L54.529-5.989h8.45l20.495-35.206 7.983 13.712z" />
        </g>
    </g>
</svg>
