<svg fill="none" height="24" viewBox="0 0 24 24" width="24" xmlns="http://www.w3.org/2000/svg">
    <path d="M2 10h20M5 16.505h2M9.5 16.505h4" stroke="#D7DDE6" stroke-linecap="round"
        stroke-linejoin="round" stroke-miterlimit="10" stroke-width="1.2" />
    <path
        d="M6.44 3.505h11.11c3.56 0 4.45.88 4.45 4.39v8.21c0 3.51-.89 4.39-4.44 4.39H6.44c-3.55.01-4.44-.87-4.44-4.38v-8.22c0-3.51.89-4.39 4.44-4.39z"
        stroke="#D7DDE6" stroke-linecap="round" stroke-linejoin="round" stroke-width="1.2" />
    <path d="M17 10a3 3 0 0 0 3 3M15 10a3 3 0 0 1-3 3" stroke="#D61F2C" stroke-linecap="round"
        stroke-width="1.2" />
    <path
        d="M16 8.483c0-1.15.783-2.152 1.898-2.431a1.69 1.69 0 0 1 2.05 2.05A2.506 2.506 0 0 1 17.517 10H16V8.483zM16 8.483c0-1.15-.783-2.152-1.898-2.431a1.69 1.69 0 0 0-2.05 2.05A2.506 2.506 0 0 0 14.483 10H16V8.483z"
        stroke="#D61F2C" stroke-width="1.2" />
</svg>
