<svg fill="none" height="237" viewBox="0 0 344 237" width="344" xmlns="http://www.w3.org/2000/svg">
    <path clip-rule="evenodd"
        d="M55.6459 22.0187L68.3259 0.0391311L158.12 0.0359945L202.071 75.9941L184.91 105.705L165.021 71.0668L61.2977 71.0715L22.3401 138.192L18.027 145.647C17.422 146.529 16.4384 146.529 15.8304 145.647L12.3689 139.656L0.362964 118.714L0 118.088L0.350389 117.458L44.4303 41.4986L147.921 41.5379L141.087 29.6607L59.9071 29.5869L53.0298 29.5697C52.2017 29.4818 51.8042 28.7961 52.1404 28.0366L52.329 27.7133L55.6459 22.0187Z"
        fill="black" fill-opacity="0.02" fill-rule="evenodd" />
    <path clip-rule="evenodd"
        d="M261.186 96.2515L273.906 118.204L229.015 195.87L141.166 195.904L123.981 166.209L163.962 166.324L215.823 76.6116L177.096 9.35468L172.788 1.89947C172.324 0.934416 172.818 0.082349 173.886 0.000751287L180.812 -0.000817038L204.978 0.0886254L205.698 0.0854887L206.07 0.702176L249.903 76.8109L198.126 166.297L211.838 166.327L252.488 96.1558L255.945 90.2133C256.435 89.5401 257.232 89.5401 257.717 90.2133L257.906 90.5318L261.186 96.2515Z"
        fill="black" fill-opacity="0.02" fill-rule="evenodd" />
    <path clip-rule="evenodd"
        d="M94.0506 236.895L68.6482 236.912L23.748 159.256L67.641 83.2606L101.987 83.2511L81.8954 117.772L133.761 207.479L211.445 207.609H220.068C221.137 207.697 221.627 208.544 221.162 209.511L217.697 215.501L205.542 236.358L205.179 236.983L204.458 237L116.548 236.851L64.841 147.327L57.9542 159.17L98.4784 229.419L101.908 235.379C102.242 236.139 101.847 236.826 101.016 236.912H100.648L94.0506 236.895Z"
        fill="black" fill-opacity="0.02" fill-rule="evenodd" />
    <path
        d="M130.479 85.5409C112.317 89.114 100.493 106.711 104.068 124.852C107.647 142.992 125.272 154.799 143.437 151.229C161.595 147.654 173.421 130.054 169.844 111.914C166.698 95.9619 152.684 84.9038 136.994 84.9038C134.846 84.9038 132.666 85.111 130.479 85.5409Z"
        fill="#131313" fill-opacity="0.08" />
    <path clip-rule="evenodd"
        d="M125.646 22.0187L138.326 0.0391311L228.12 0.0359945L272.071 75.9941L254.91 105.705L235.021 71.0668L131.298 71.0715L92.3401 138.192L88.027 145.647C87.422 146.529 86.4384 146.529 85.8304 145.647L82.3689 139.656L70.363 118.714L70 118.088L70.3504 117.458L114.43 41.4986L217.921 41.5379L211.087 29.6607L129.907 29.5869L123.03 29.5697C122.202 29.4818 121.804 28.7961 122.14 28.0366L122.329 27.7133L125.646 22.0187Z"
        fill="black" fill-opacity="0.02" fill-rule="evenodd" />
    <path clip-rule="evenodd"
        d="M331.186 96.2515L343.906 118.204L299.015 195.87L211.166 195.904L193.981 166.209L233.962 166.324L285.823 76.6116L247.096 9.35468L242.788 1.89947C242.324 0.934416 242.818 0.082349 243.886 0.000751287L250.812 -0.000817038L274.978 0.0886254L275.698 0.0854887L276.07 0.702176L319.903 76.8109L268.126 166.297L281.838 166.327L322.488 96.1558L325.945 90.2133C326.435 89.5401 327.232 89.5401 327.717 90.2133L327.906 90.5318L331.186 96.2515Z"
        fill="black" fill-opacity="0.02" fill-rule="evenodd" />
    <path clip-rule="evenodd"
        d="M164.051 236.895L138.648 236.912L93.748 159.256L137.641 83.2606L171.987 83.2511L151.895 117.772L203.761 207.479L281.445 207.609H290.068C291.137 207.697 291.627 208.544 291.162 209.511L287.697 215.501L275.542 236.358L275.179 236.983L274.458 237L186.548 236.851L134.841 147.327L127.954 159.17L168.478 229.419L171.908 235.379C172.242 236.139 171.847 236.826 171.016 236.912H170.648L164.051 236.895Z"
        fill="black" fill-opacity="0.02" fill-rule="evenodd" />
    <path
        d="M200.479 85.5409C182.317 89.114 170.493 106.711 174.068 124.852C177.647 142.992 195.272 154.799 213.437 151.229C231.595 147.654 243.421 130.054 239.844 111.914C236.698 95.9619 222.684 84.9038 206.994 84.9038C204.846 84.9038 202.666 85.111 200.479 85.5409Z"
        fill="#131313" fill-opacity="0.08" />
    <rect fill="url(#pattern0_1769_12843)" height="143" width="143" x="102" y="29" />
</svg>
