<svg fill="none" height="24" viewBox="0 0 24 24" width="24" xmlns="http://www.w3.org/2000/svg">
    <path d="M2 8.5h7.5M6 16.5h2M10.5 16.5h4" stroke="#D7DDE6" stroke-linecap="round"
        stroke-linejoin="round" stroke-miterlimit="10" stroke-width="1.2" />
    <path
        d="M22 11.03v5.08c0 3.51-.89 4.39-4.44 4.39H6.44C2.89 20.5 2 19.62 2 16.11V7.89c0-3.51.89-4.39 4.44-4.39h7.06"
        stroke="#D7DDE6" stroke-linecap="round" stroke-linejoin="round" stroke-width="1.2" />
    <path
        d="M21.913 2.975c-.77 1.919-2.7 4.531-4.313 5.825l-.987.787c-.125.094-.25.17-.394.225a1.943 1.943 0 0 0-.6-1.431 2.04 2.04 0 0 0-1.181-.594c-.1-.006-.2-.012-.3-.006.056-.156.137-.3.244-.419l.787-.987c1.294-1.612 3.912-3.556 5.825-4.325a.708.708 0 0 1 .762.156.698.698 0 0 1 .157.77z"
        stroke="#D61F2C" stroke-linecap="round" stroke-linejoin="round" stroke-width="1.2" />
    <path
        d="M16.225 9.806c0 .55-.212 1.075-.606 1.475a2.058 2.058 0 0 1-1.213.581l-1.23.132a1.062 1.062 0 0 1-1.17-1.175l.132-1.232c.119-1.093 1.031-1.793 2.006-1.812.1-.006.2 0 .3.006.425.057.837.25 1.181.594a1.96 1.96 0 0 1 .6 1.431zM18.125 8.238a2.367 2.367 0 0 0-2.368-2.369"
        stroke="#D61F2C" stroke-linecap="round" stroke-linejoin="round" stroke-width="1.2" />
</svg>
