<svg fill="none" height="24" viewBox="0 0 24 24" width="24" xmlns="http://www.w3.org/2000/svg">
    <path clip-rule="evenodd"
        d="M12.0003 9.01995C10.3517 9.01995 9.02031 10.3513 9.02031 11.9999C9.02031 12.6072 9.20054 13.1686 9.51264 13.6391L13.6395 9.51227C13.1689 9.20017 12.6076 9.01995 12.0003 9.01995ZM7.82031 11.9999C7.82031 9.68858 9.68894 7.81995 12.0003 7.81995C13.1566 7.81995 14.1972 8.2883 14.9546 9.04568C15.1889 9.28 15.1889 9.6599 14.9546 9.89421L9.89458 14.9542C9.66026 15.1885 9.28036 15.1885 9.04605 14.9542C8.28866 14.1968 7.82031 13.1562 7.82031 11.9999Z"
        fill="#475467" fill-rule="evenodd" />
    <path clip-rule="evenodd"
        d="M2.38423 9.08758C4.75496 5.36089 8.21585 3.13 12.0002 3.13C14.2139 3.13 16.3386 3.90089 18.1815 5.29099C18.4461 5.49054 18.4988 5.86677 18.2992 6.13132C18.0997 6.39587 17.7235 6.44857 17.4589 6.24902C15.8019 4.99912 13.9265 4.33 12.0002 4.33C8.72475 4.33 5.60575 6.25897 3.39649 9.73204L3.39599 9.73283C3.02232 10.3182 2.81523 11.1434 2.81523 12.005C2.81523 12.8666 3.02232 13.6918 3.39599 14.2772L3.39626 14.2776C4.15728 15.4721 5.03952 16.4964 5.99146 17.3151C6.2427 17.5312 6.27121 17.91 6.05515 18.1612C5.83908 18.4125 5.46025 18.441 5.20901 18.2249C4.16095 17.3236 3.20319 16.2079 2.38421 14.9224C1.85806 14.0979 1.61523 13.0332 1.61523 12.005C1.61523 10.9768 1.85807 9.91211 2.38423 9.08758Z"
        fill="#475467" fill-rule="evenodd" />
    <path clip-rule="evenodd"
        d="M19.6744 7.46245C19.9326 7.25476 20.3103 7.29571 20.518 7.55392C20.8991 8.02774 21.2728 8.53602 21.6171 9.07848C22.1428 9.90288 22.3855 10.9671 22.3855 11.995C22.3855 13.0232 22.1426 14.0879 21.6165 14.9124C19.2457 18.6391 15.7849 20.87 12.0005 20.87C10.6852 20.87 9.39633 20.5919 8.18763 20.083C7.88223 19.9544 7.7389 19.6025 7.86749 19.2971C7.99608 18.9917 8.3479 18.8484 8.6533 18.977C9.72461 19.4281 10.8557 19.67 12.0005 19.67C15.276 19.67 18.395 17.741 20.6042 14.2679L20.6047 14.2672C20.9784 13.6817 21.1855 12.8566 21.1855 11.995C21.1855 11.1334 20.9784 10.3082 20.6047 9.7228L20.6039 9.72147C20.2881 9.22394 19.9418 8.75222 19.5829 8.30603C19.3752 8.04782 19.4162 7.67014 19.6744 7.46245Z"
        fill="#475467" fill-rule="evenodd" />
    <path clip-rule="evenodd"
        d="M15.6188 12.1099C15.9446 12.17 16.1601 12.4829 16.1 12.8088C15.7949 14.4634 14.4534 15.8049 12.7988 16.11C12.4729 16.1701 12.16 15.9546 12.0999 15.6288C12.0398 15.3029 12.2553 14.99 12.5811 14.9299C13.7465 14.715 14.705 13.7565 14.9199 12.5912C14.98 12.2653 15.2929 12.0498 15.6188 12.1099Z"
        fill="#475467" fill-rule="evenodd" />
    <path clip-rule="evenodd"
        d="M9.89459 14.1058C10.1289 14.3401 10.1289 14.72 9.8946 14.9543L3.92466 20.9243C3.69034 21.1586 3.31044 21.1586 3.07613 20.9243C2.84181 20.69 2.84181 20.3101 3.07613 20.0758L9.04607 14.1058C9.28038 13.8715 9.66028 13.8715 9.89459 14.1058Z"
        fill="#475467" fill-rule="evenodd" />
    <path clip-rule="evenodd"
        d="M20.4247 3.57515C20.659 3.80947 20.659 4.18937 20.4247 4.42368L14.9539 9.89432C14.7196 10.1286 14.3397 10.1286 14.1054 9.89432C13.8711 9.66 13.8711 9.2801 14.1054 9.04579L19.5761 3.57515C19.8104 3.34083 20.1903 3.34084 20.4247 3.57515Z"
        fill="#475467" fill-rule="evenodd" />
</svg>