<svg width="526" height="263" viewBox="0 0 526 263" fill="none" xmlns="http://www.w3.org/2000/svg">
<g clip-path="url(#clip0_2002_6256)">
<path d="M263 263C408.251 263 526 204.125 526 131.5C526 58.8746 408.251 0 263 0C117.749 0 0 58.8746 0 131.5C0 204.125 117.749 263 263 263Z" fill="black"/>
<path d="M263 241.628C396.447 241.628 504.628 192.322 504.628 131.5C504.628 70.678 396.447 21.3721 263 21.3721C129.553 21.3721 21.3721 70.678 21.3721 131.5C21.3721 192.322 129.553 241.628 263 241.628Z" fill="#FFCC00"/>
<path d="M298.369 109.856C298.369 108.397 298.211 105.074 297.727 100.233C296.962 92.9822 296.675 90.5063 296.221 87.41L280.164 90.0843C280.947 96.496 281.501 101.413 281.825 104.834C282.147 108.251 282.307 110.643 282.307 111.994C282.278 113.442 281.109 114.187 280.436 114.452C279.674 114.781 277.196 115.825 272.153 115.737H269.478C265.983 115.737 263.508 115.113 262.053 113.865C260.586 112.619 259.839 110.322 259.839 106.972V95.4274H245.459C245.459 108.262 244.604 110.673 244.12 112.365C243.616 113.863 242.722 115.869 239.042 115.731C236.696 115.732 233.584 115.248 231.346 112.525C231.418 111.595 231.473 110.493 231.507 109.203C231.578 106.433 231.562 105.881 231.562 97.5536H217.133C217.253 108.581 215.46 111.671 215.317 112.016C215.142 112.451 213.842 115.859 209.116 115.703C203.471 115.665 202.119 113.203 201.419 111.96C201.491 111.036 201.541 109.967 201.58 108.755C201.65 106.567 201.635 105.538 201.635 97.5646H187.201C187.334 108.277 185.735 111.009 184.853 112.259C183.334 114.446 180.537 115.905 174.909 115.737H172.75C168.856 115.785 166.568 114.874 165.004 113.544C162.245 111.106 161.978 106.73 162.041 104.513V58.0039L145.475 59.6096L147.075 136.572C146.834 140.55 141.375 142.933 141.251 142.989C139.728 143.699 134.052 146.307 124.629 146.195C116.118 146.371 112.33 143.407 111.745 142.989C109.288 141.208 108.012 138.335 108.057 134.972C108.057 130.949 108.513 128.104 108.716 126.904C109.751 120.206 111.649 112.778 111.844 111.994L99.021 108.245C97.9314 111.134 92.0901 126.077 92.0723 138.698C92.0723 163.486 111.254 167.029 123.605 167.024C129.746 167.071 141.084 165.924 150.862 158.47C154.245 155.869 162.278 148.347 162.086 135.492V132.823C162.63 133.435 165.314 136.708 172.75 136.577H174.887C180.941 136.577 188.375 135.576 193.059 128.56C198.32 136.51 205.173 136.599 208.556 136.599C217.814 136.596 221.251 132.529 223.545 129.097C224.066 129.869 225.983 132.742 230.626 134.817C232.488 135.657 235.271 136.56 238.538 136.577C246.802 136.776 251.422 130.096 252.414 128.56C253.394 130.424 255.558 133.459 260.165 135.188C260.64 135.363 263.361 136.547 269.517 136.561H271.654C283.218 136.643 288.826 131.984 290.413 130.631C298.188 123.783 298.369 113.738 298.369 109.856Z" fill="black"/>
<path d="M287.14 79.9247L296.763 70.3072V68.7015L287.14 59.084H285.54L275.917 68.7015V70.3072L285.54 79.9247H287.14Z" fill="black"/>
<path d="M322.948 136.045V58.0146L306.381 59.6203L307.987 137.114L322.948 136.045Z" fill="black"/>
<path d="M388.686 144.489L379.6 153.575L370.514 144.489H368.909L359.823 153.575V155.175L368.909 164.261H370.514L379.6 155.175L388.686 164.261H390.286L399.372 155.175V153.575L390.286 144.489H388.686Z" fill="black"/>
<path d="M365.166 136.577H367.309C378.872 136.658 384.482 131.999 386.068 130.647C393.842 123.789 394.03 113.74 394.03 109.834C394.03 108.401 393.882 104.981 393.388 100.211C392.637 93.1007 392.381 90.7186 391.893 87.3877L375.836 90.062C376.379 94.4942 377.979 107.554 377.979 111.971C377.953 113.163 377.15 114.017 376.107 114.43C375.382 114.743 372.892 115.802 367.824 115.714H365.155C359.005 115.862 356.79 114.327 355.482 112.453C353.959 110.207 352.755 108.117 350.189 95.9477L334.132 100.222C335.771 108.848 336.984 115.993 337.77 121.655C338.556 127.318 338.948 131.219 338.944 133.36C338.303 137.306 334.86 139.628 333.734 140.309C332.04 141.376 326.663 144.735 314.836 147.252L318.579 164.892C339.821 164.328 353.123 153.908 354.702 132.718C357.646 136.091 361.89 136.63 365.061 136.566L365.166 136.577Z" fill="black"/>
<path d="M403.647 137.114L418.613 136.045V58.0146L402.047 59.6203L403.647 137.114Z" fill="black"/>
<path d="M213.894 198.435L200.583 180.357H188.956V226.457H200.511V200.606L209.758 213.075H216.347L224.752 200.606V226.457H237.359V180.357H225.804L213.894 198.435Z" fill="black"/>
<path d="M243.804 190.8H258.936V226.457H271.76V190.8H286.82V180.357H243.804V190.8Z" fill="black"/>
<path d="M325.489 205.788L304.754 180.357H293.265V226.457H304.826V200.113L326.469 226.457H337.05V180.357H325.489V205.788Z" fill="black"/>
</g>
<defs>
<clipPath id="clip0_2002_6256">
<rect width="526" height="263" fill="white"/>
</clipPath>
</defs>
</svg>
