<svg fill="none" height="189" viewBox="0 0 205 189" width="205" xmlns="http://www.w3.org/2000/svg">
    <g clip-path="url(#s4uhnbgiva)">
        <path
            d="M77.652 5.607 21.096 78.46l152.089-37.496-84.71-38.061c-3.801-1.709-8.293-.59-10.823 2.704z"
            fill="#EBEBEB" />
        <path
            d="M20.299 78.978 77.4 5.412C80.04 1.99 84.643.84 88.606 2.62l85.528 38.433L20.299 78.978zM84.756 2.413A8.618 8.618 0 0 0 77.9 5.795L21.89 77.947l150.343-37.066L88.344 3.185a8.708 8.708 0 0 0-3.588-.772z"
            fill="#E0E0E0" />
        <path
            d="M21.1 78.467 173.718 40.84l20.562 82.035c.847 3.379-1.233 6.806-4.64 7.646L49.365 165.105c-3.407.84-6.863-1.223-7.71-4.602L21.095 78.469l.005-.002z"
            fill="#F0F0F0" />
        <path
            d="m164.314 45.331-52.872 53.575-79.939-17.84-9.143-42.04C21.31 34.515 24.095 30 28.628 28.882L144.24.38c4.586-1.13 9.22 1.639 10.36 6.187l9.713 38.763z"
            fill="#fff" />
        <path
            d="M104.182 94.694 41.4 159.77c.933 3.717 4.73 5.986 8.478 5.061l139.191-34.332c3.749-.925 6.036-4.69 5.103-8.408l-.13-.518-82.101-28.712a7.4 7.4 0 0 0-7.765 1.839l.006-.006zM84.121 35.091 38.895 46.25l1.148 4.58L85.27 39.67l-1.149-4.58zM142.151 33.105 41.805 57.863l1.298 5.175L143.449 38.28l-1.298-5.175zM145.325 45.746 44.979 70.504l1.297 5.174L146.623 50.92l-1.298-5.174zM147.443 62.496l-3.143 3.116-84.24 21.842-11.007-2.551-.416-1.185L148.66 59.043l.428 1.715-1.646 1.738zM125.895 84.265 87.94 93.62l-11.596-2.628L133.06 77l-7.165 7.265z"
            fill="#E0E0E0" />
        <path
            d="M101.895 97.06s-.047.065-.142.177c-.113.124-.262.283-.452.49-.416.435-.998 1.06-1.746 1.855l-6.47 6.794c-5.477 5.721-13.046 13.628-21.47 22.295-8.424 8.672-16.135 16.444-21.766 22.018a1004.222 1004.222 0 0 1-6.696 6.575c-.79.76-1.402 1.349-1.841 1.767-.202.189-.363.342-.481.454-.113.1-.167.153-.173.147 0 0 .048-.058.149-.17l.463-.478c.422-.43 1.028-1.037 1.794-1.814 1.58-1.585 3.838-3.848 6.624-6.646 5.59-5.615 13.272-13.41 21.696-22.083 8.406-8.673 16.016-16.527 21.54-22.23 2.757-2.828 4.991-5.12 6.547-6.723.767-.778 1.367-1.385 1.795-1.815.196-.194.356-.347.469-.465.107-.106.166-.153.166-.153l-.006.006zM194.042 121.565c-.029.083-17.537-5.945-39.102-13.457-21.57-7.518-39.024-13.68-38.995-13.763.03-.083 17.531 5.939 39.102 13.463 21.559 7.518 39.019 13.681 38.989 13.763l.006-.006zM166.833 42.749s-.036.053-.113.147l-.362.407c-.339.37-.808.89-1.408 1.549l-5.246 5.65a1255.575 1255.575 0 0 1-17.579 18.383 1200.968 1200.968 0 0 1-17.959 18.017c-2.322 2.257-4.206 4.09-5.53 5.374-.648.613-1.153 1.096-1.521 1.443-.167.154-.297.277-.398.372a.74.74 0 0 1-.143.117s.036-.053.119-.141l.38-.395c.357-.36.85-.854 1.474-1.49A4992.31 4992.31 0 0 0 124 86.737a2029.46 2029.46 0 0 0 17.888-18.082 2161.632 2161.632 0 0 0 17.644-18.312c2.233-2.345 4.045-4.242 5.317-5.58.618-.642 1.105-1.148 1.455-1.508.161-.159.285-.288.386-.389a.803.803 0 0 1 .137-.123l.006.006z"
            fill="#FAFAFA" />
        <path
            d="M101.896 97.064s-.072-.006-.214-.036l-.612-.141c-.558-.136-1.343-.324-2.347-.572a701.03 701.03 0 0 0-8.638-2.068c-7.3-1.714-17.43-3.924-28.622-6.328-11.198-2.403-21.315-4.648-28.61-6.422a399.167 399.167 0 0 1-8.615-2.168c-.998-.271-1.776-.477-2.334-.63-.25-.071-.452-.13-.606-.171a.983.983 0 0 1-.202-.071s.071.006.214.035l.612.142c.558.135 1.342.324 2.346.571 2.038.507 4.984 1.214 8.638 2.068 7.301 1.715 17.43 3.924 28.622 6.328 11.193 2.404 21.316 4.649 28.605 6.422 3.648.884 6.588 1.627 8.62 2.169.998.27 1.782.477 2.335.63.249.07.451.13.606.17.136.042.202.066.202.072z"
            fill="#FAFAFA" />
        <path
            d="M164.313 45.332s-.059-.188-.16-.565c-.101-.383-.243-.943-.434-1.668-.38-1.478-.932-3.64-1.645-6.428l-5.982-23.656c-.315-1.249-.636-2.527-.969-3.835-.166-.654-.333-1.314-.499-1.98a13.536 13.536 0 0 0-.273-.996 6.612 6.612 0 0 0-.362-.966c-.547-1.278-1.48-2.404-2.626-3.282-1.165-.848-2.567-1.46-4.064-1.614-.742-.112-1.509-.059-2.263.03-.749.13-1.509.335-2.276.524-1.532.377-3.083.766-4.663 1.155-3.155.777-6.404 1.585-9.731 2.404-13.319 3.287-27.963 6.905-43.338 10.7L41.678 25.83c-3.332.82-6.582 1.62-9.736 2.392-.79.195-1.574.39-2.353.578-.778.2-1.55.353-2.257.677-.713.3-1.378.696-1.966 1.185a7.975 7.975 0 0 0-1.551 1.638c-.452.595-.766 1.272-1.046 1.95-.243.69-.421 1.402-.48 2.115-.173 1.444.225 2.828.51 4.207.594 2.745 1.165 5.385 1.711 7.9a46857.67 46857.67 0 0 1 5.133 23.851c.6 2.81 1.063 4.997 1.378 6.487.155.737.267 1.302.35 1.691.078.383.108.578.108.578s-.054-.195-.143-.572c-.09-.389-.214-.949-.38-1.68-.333-1.49-.814-3.67-1.438-6.474-1.236-5.633-3.024-13.77-5.234-23.827l-1.729-7.895c-.285-1.361-.7-2.793-.528-4.284.06-.742.243-1.473.493-2.186.285-.7.606-1.396 1.075-2.015.452-.624.974-1.207 1.598-1.69a8.24 8.24 0 0 1 2.032-1.226c.73-.336 1.533-.5 2.299-.695.778-.195 1.562-.383 2.347-.584 3.154-.777 6.404-1.585 9.73-2.404 13.326-3.287 27.97-6.905 43.344-10.7 15.375-3.782 30.019-7.394 43.344-10.67 3.333-.818 6.576-1.614 9.737-2.392 1.58-.388 3.13-.771 4.663-1.143.767-.182 1.515-.388 2.299-.524.779-.094 1.569-.141 2.335-.03 1.545.166 2.988.802 4.188 1.68 1.176.907 2.139 2.068 2.697 3.388.143.33.28.654.369.995.113.336.19.672.273 1.008.166.666.333 1.331.493 1.985.327 1.309.648 2.587.956 3.836 2.484 9.993 4.492 18.082 5.882 23.68.689 2.792 1.218 4.96 1.586 6.44.178.73.309 1.29.404 1.679.089.377.125.571.125.571l.017-.018z"
            fill="#E0E0E0" />
        <path
            d="M261 188.795c0 .113-69.175.204-154.496.204-85.322 0-154.504-.091-154.504-.204 0-.114 69.16-.205 154.504-.205s154.496.091 154.496.205z"
            fill="#263238" />
        <path
            d="m97.888 14.233-5.87 4.437.286 8.472-5.382-4.236-2.965 2.522L72.67 11.605l25.218 2.628z"
            fill="#E8505B" />
        <path d="M89.809 20.473c.006.259 2.495 6.67 2.495 6.67l-5.376-4.237 2.887-2.433h-.006z"
            fill="#E8505B" />
        <path d="M89.809 20.473c.006.259 2.495 6.67 2.495 6.67l-5.376-4.237 2.887-2.433h-.006z"
            fill="#000" opacity=".3" />
        <path d="m72.67 11.605 17.139 8.868 2.495 6.67-.285-8.473-19.35-7.065z" fill="#E8505B" />
        <path d="m72.67 11.605 17.139 8.868 2.495 6.67-.285-8.473-19.35-7.065z" fill="#000"
            opacity=".1" />
        <path
            d="M120.191 125.918c-.024.088-.719-.006-1.563-.212-.843-.206-1.503-.442-1.485-.524.024-.089.719.005 1.562.212.838.206 1.503.442 1.486.524zM125.055 127.098c-.024.089-.445.059-.944-.064-.499-.124-.892-.289-.868-.378.024-.088.446-.058.945.065.499.124.891.289.867.377zM104.999 26.035c-.024.088-.713-.048-1.55-.236-.838-.195-1.515-.377-1.497-.466.011-.088.724-.047 1.574.148.849.194 1.503.471 1.479.553h-.006zM110.751 28.48c-.048.077-.683-.211-1.456-.594-.766-.383-1.384-.713-1.348-.802.035-.082.713.124 1.497.513.778.389 1.354.807 1.307.884zM115.734 32.225c-.065.065-.606-.377-1.259-.93-.654-.56-1.17-1.026-1.111-1.103.053-.07.665.29 1.325.855.659.565 1.111 1.113 1.045 1.178zM119.53 37.147c-.083.041-.475-.53-.95-1.237-.469-.713-.844-1.296-.772-1.355.071-.053.564.453 1.045 1.178.481.725.755 1.373.677 1.42v-.006zM121.693 42.96c-.089.018-.291-.647-.529-1.466-.232-.82-.41-1.49-.327-1.52.083-.03.404.6.642 1.431.237.837.297 1.538.214 1.556zM122.008 49.148c-.089-.012-.083-.707-.066-1.555.024-.849.048-1.544.143-1.55.089-.006.208.69.184 1.556-.018.866-.172 1.555-.261 1.549zM120.386 55.124c-.083-.041.154-.695.44-1.49.291-.802.534-1.45.623-1.426.084.023-.017.718-.315 1.537-.297.82-.671 1.42-.748 1.385v-.006zM116.762 60.155c-.065-.065.404-.583.962-1.225.565-.637 1.016-1.167 1.093-1.114.072.047-.267.672-.849 1.326-.576.654-1.153 1.078-1.212 1.013h.006zM111.517 63.5c-.036-.083.588-.407 1.343-.801.76-.395 1.378-.713 1.431-.637.048.07-.505.525-1.277.925-.778.4-1.461.595-1.497.513zM105.422 64.802c0-.088.695-.17 1.544-.271.85-.1 1.545-.189 1.563-.1.018.082-.654.318-1.527.418-.867.106-1.58.041-1.58-.047zM99.308 63.654c.036-.082.701.136 1.521.378.82.247 1.491.43 1.473.524-.012.088-.73.041-1.568-.212-.844-.253-1.462-.607-1.426-.69zM94.973 59.389c.089-.03.362.6.85 1.284.48.69.956 1.196.89 1.267-.053.065-.647-.354-1.158-1.084-.517-.725-.665-1.45-.582-1.473v.006zM97.603 54.562c.024.094-.648.3-1.319.778-.683.477-1.04 1.066-1.123 1.025-.083-.024.178-.755.933-1.285.749-.53 1.503-.595 1.509-.518zM102.974 56.771c-.083.047-.463-.536-1.081-1.096-.606-.565-1.248-.848-1.212-.936.018-.083.761.082 1.438.7.665.613.932 1.303.855 1.338v-.006zM103.176 62.786c-.083-.035.137-.689.292-1.52.16-.825.202-1.514.291-1.52.089-.006.196.713.029 1.58-.166.865-.534 1.496-.612 1.454v.006zM99.113 67.413c-.053-.077.487-.519 1.135-1.073.647-.548 1.158-1.019 1.229-.96.066.059-.35.642-1.015 1.208-.666.565-1.301.895-1.349.825zM93.552 70.278c-.035-.082.57-.436 1.355-.795.784-.36 1.455-.584 1.497-.501.041.082-.564.436-1.355.795-.79.36-1.455.584-1.49.501h-.007zM87.974 73.092c-.048-.077.516-.495 1.265-.943.754-.436 1.432-.66 1.461-.59.042.09-.558.443-1.3.873-.737.436-1.373.73-1.427.66zM83.24 77.147c-.066-.059.344-.63.968-1.237.623-.607 1.212-1.008 1.265-.937.06.07-.428.571-1.04 1.166-.612.596-1.128 1.067-1.2 1.008h.006zM79.65 82.227c-.077-.041.184-.695.642-1.431.457-.737.927-1.267.998-1.214.077.053-.274.66-.719 1.384-.451.725-.838 1.303-.92 1.261zM77.364 87.998c-.09-.024.011-.719.285-1.544.267-.825.6-1.443.683-1.414.083.035-.107.701-.374 1.514-.268.813-.505 1.462-.594 1.444zM76.55 94.152c-.09 0-.167-.701-.107-1.561.06-.86.231-1.55.32-1.532.09.012.066.707.006 1.555-.059.849-.13 1.538-.22 1.544v-.006zM77.37 100.296c-.09.024-.31-.642-.494-1.485-.208-.842-.214-1.55-.13-1.56.088-.013.243.665.445 1.496.184.83.261 1.526.172 1.549h.006zM79.788 106.013c-.077.047-.5-.524-.885-1.296-.392-.772-.588-1.45-.505-1.485.083-.035.416.577.802 1.343.38.766.671 1.397.594 1.444l-.006-.006zM83.543 110.978c-.066.059-.612-.389-1.17-1.049-.565-.66-.928-1.267-.856-1.32.071-.053.546.46 1.105 1.108.552.648.992 1.196.927 1.261h-.007zM88.366 114.927c-.048.076-.683-.236-1.39-.749-.707-.512-1.2-1.019-1.141-1.084.06-.07.642.318 1.33.825.696.501 1.248.931 1.195 1.008h.006zM94.003 117.599c-.024.082-.725-.059-1.533-.383-.808-.324-1.414-.701-1.372-.778.041-.082.695.159 1.497.477.796.319 1.437.595 1.408.684zM97.152 118.394c-.017.088-.053.153-.083.147-.03 0-.041-.082-.023-.171.017-.088.053-.153.083-.147.03 0 .041.083.023.171z"
            fill="#263238" />
        <path d="m92.61 102.971-6.497-2.116-1.327 4.008 6.497 2.116 1.327-4.008z" fill="#E8505B" />
        <path d="m92.61 102.971-6.497-2.116-1.327 4.008 6.497 2.116 1.327-4.008z" fill="#000"
            opacity=".3" />
        <path
            d="M92.59 102.978c.03.082-1.64.76-3.766 1.538l-.113.041-.071-.094-.107-.142c-1.414-1.856-2.507-3.399-2.436-3.452.071-.053 1.277 1.402 2.697 3.258l.107.141-.184-.053c2.127-.766 3.85-1.314 3.88-1.231l-.007-.006z"
            fill="#E8505B" />
        <path
            d="M92.59 102.978c.03.082-1.64.76-3.766 1.538l-.113.041-.071-.094-.107-.142c-1.414-1.856-2.507-3.399-2.436-3.452.071-.053 1.277 1.402 2.697 3.258l.107.141-.184-.053c2.127-.766 3.85-1.314 3.88-1.231l-.007-.006z"
            fill="#000" opacity=".1" />
        <path
            d="M87.974 103.315c.041.083-.648.495-1.533.919-.885.43-1.634.713-1.675.631-.042-.083.647-.495 1.532-.919.885-.431 1.634-.713 1.675-.631z"
            fill="#E8505B" />
        <path
            d="M87.974 103.315c.041.083-.648.495-1.533.919-.885.43-1.634.713-1.675.631-.042-.083.647-.495 1.532-.919.885-.431 1.634-.713 1.675-.631z"
            fill="#000" opacity=".1" />
        <path
            d="M91.383 107.021c-.083.035-.445-.636-.831-1.491-.392-.877-.654-1.626-.535-1.62.09 0 .458.631.832 1.491.374.86.618 1.585.534 1.62z"
            fill="#E8505B" />
        <path
            d="M91.383 107.021c-.083.035-.445-.636-.831-1.491-.392-.877-.654-1.626-.535-1.62.09 0 .458.631.832 1.491.374.86.618 1.585.534 1.62z"
            fill="#000" opacity=".1" />
        <path
            d="m156.417 131.385-54.039-17.6a3.018 3.018 0 0 0-3.796 1.918l-10.32 31.166a2.982 2.982 0 0 0 1.91 3.777l54.039 17.6a3.019 3.019 0 0 0 3.796-1.919l10.319-31.165a2.982 2.982 0 0 0-1.909-3.777z"
            fill="#E8505B" />
        <path
            d="M157.999 132.541c.029.071-.893.496-2.589 1.2l-7.22 2.892c-6.124 2.401-14.63 5.659-24.122 9.219l-.392.148-.254-.343c-.305-.414-.634-.857-.963-1.307-6.326-8.563-12-16.351-16.066-22.022-1.908-2.709-3.511-4.974-4.763-6.754-1.107-1.608-1.684-2.525-1.626-2.572.063-.047.761.775 1.978 2.3 1.332 1.721 3.022 3.909 5.052 6.529 4.226 5.547 10.005 13.258 16.325 21.815.329.45.657.893.963 1.307l-.646-.195c9.498-3.548 18.05-6.676 24.243-8.882l7.341-2.555c1.736-.579 2.711-.863 2.734-.786l.005.006z"
            fill="#E8505B" />
        <path
            d="M157.999 132.541c.029.071-.893.496-2.589 1.2l-7.22 2.892c-6.124 2.401-14.63 5.659-24.122 9.219l-.392.148-.254-.343c-.305-.414-.634-.857-.963-1.307-6.326-8.563-12-16.351-16.066-22.022-1.908-2.709-3.511-4.974-4.763-6.754-1.107-1.608-1.684-2.525-1.626-2.572.063-.047.761.775 1.978 2.3 1.332 1.721 3.022 3.909 5.052 6.529 4.226 5.547 10.005 13.258 16.325 21.815.329.45.657.893.963 1.307l-.646-.195c9.498-3.548 18.05-6.676 24.243-8.882l7.341-2.555c1.736-.579 2.711-.863 2.734-.786l.005.006z"
            fill="#000" opacity=".2" />
        <path
            d="M115.925 133.846c.137.294-5.916 3.864-13.52 7.981-7.605 4.117-13.88 7.213-14.012 6.925-.137-.294 5.916-3.864 13.52-7.981 7.604-4.117 13.874-7.213 14.012-6.919v-.006z"
            fill="#E8505B" />
        <path
            d="M115.925 133.846c.137.294-5.916 3.864-13.52 7.981-7.605 4.117-13.88 7.213-14.012 6.925-.137-.294 5.916-3.864 13.52-7.981 7.604-4.117 13.874-7.213 14.012-6.919v-.006z"
            fill="#000" opacity=".2" />
        <path
            d="M146.137 167.533c-.297.121-3.351-5.725-6.82-13.05-3.47-7.33-6.042-13.361-5.745-13.481.297-.12 3.345 5.725 6.82 13.056 3.47 7.324 6.042 13.361 5.745 13.481v-.006z"
            fill="#E8505B" />
        <path
            d="M146.137 167.533c-.297.121-3.351-5.725-6.82-13.05-3.47-7.33-6.042-13.361-5.745-13.481.297-.12 3.345 5.725 6.82 13.056 3.47 7.324 6.042 13.361 5.745 13.481v-.006z"
            fill="#000" opacity=".2" />
        <path
            d="M103.295 115.769a2.618 2.618 0 0 1-3.648-.553 2.57 2.57 0 0 1 .558-3.618 2.617 2.617 0 0 1 3.648.554 2.567 2.567 0 0 1-.558 3.617z"
            fill="#263238" />
        <path
            d="M103.396 113.212c.023.042-.761.525-1.753 1.079a32.22 32.22 0 0 0-.422.229l-.077.042-.042-.071c-.445-.784-.754-1.379-.718-1.397.035-.023.404.543.867 1.314l-.119-.029c.137-.077.273-.153.416-.236.992-.554 1.812-.966 1.836-.925l.012-.006z"
            fill="#fff" />
        <path d="m108.364 104.769-8.755-2.851-1.788 5.402 8.754 2.851 1.789-5.402z"
            fill="#E8505B" />
        <path d="m108.364 104.769-8.755-2.851-1.788 5.402 8.754 2.851 1.789-5.402z" fill="#000"
            opacity=".2" />
        <path
            d="M108.351 104.78s-.136.07-.392.176c-.285.112-.653.254-1.087.425-.927.353-2.21.824-3.642 1.343l-.059.023-.036-.047c-.047-.059-.095-.123-.148-.188a223.15 223.15 0 0 1-2.424-3.217c-.291-.395-.529-.725-.719-.984-.166-.236-.255-.371-.243-.377.011-.006.112.112.297.336.202.253.457.571.76.954.636.807 1.509 1.933 2.466 3.188.047.064.101.129.142.188l-.095-.029a288.11 288.11 0 0 1 3.66-1.296c.445-.148.813-.277 1.105-.372.261-.082.409-.123.409-.118l.006-.005z"
            fill="#E8505B" />
        <path
            d="M108.351 104.78s-.136.07-.392.176c-.285.112-.653.254-1.087.425-.927.353-2.21.824-3.642 1.343l-.059.023-.036-.047c-.047-.059-.095-.123-.148-.188a223.15 223.15 0 0 1-2.424-3.217c-.291-.395-.529-.725-.719-.984-.166-.236-.255-.371-.243-.377.011-.006.112.112.297.336.202.253.457.571.76.954.636.807 1.509 1.933 2.466 3.188.047.064.101.129.142.188l-.095-.029a288.11 288.11 0 0 1 3.66-1.296c.445-.148.813-.277 1.105-.372.261-.082.409-.123.409-.118l.006-.005z"
            fill="#E8505B" opacity=".2" />
        <path
            d="M102.126 105.238c.018.041-.927.542-2.121 1.119-1.194.578-2.174 1.014-2.198.967-.018-.042.927-.542 2.12-1.12 1.195-.577 2.175-1.013 2.199-.966z"
            fill="#E8505B" />
        <path
            d="M102.126 105.238c.018.041-.927.542-2.121 1.119-1.194.578-2.174 1.014-2.198.967-.018-.042.927-.542 2.12-1.12 1.195-.577 2.175-1.013 2.199-.966z"
            fill="#E8505B" opacity=".2" />
        <path
            d="M106.724 110.227c-.042.017-.493-.908-.998-2.063-.511-1.16-.886-2.115-.844-2.133.042-.017.493.908.998 2.063.511 1.16.885 2.115.844 2.133z"
            fill="#E8505B" />
        <path
            d="M106.724 110.227c-.042.017-.493-.908-.998-2.063-.511-1.16-.886-2.115-.844-2.133.042-.017.493.908.998 2.063.511 1.16.885 2.115.844 2.133z"
            fill="#E8505B" opacity=".2" />
        <path
            d="M38.048 37.157c-1.687 6.587-8.436 10.57-15.078 8.903-6.641-1.673-10.657-8.367-8.976-14.954 1.687-6.587 8.436-10.57 15.078-8.902 6.641 1.673 10.657 8.366 8.976 14.953z"
            fill="#263238" />
        <path
            d="M30.622 27.46c.214.083-1.194 4.202-3.154 9.198-.285.725-.565 1.426-.838 2.104l-.148.377-.375-.142c-4.021-1.538-6.962-2.804-6.89-2.987.07-.183 3.124.772 7.175 2.233l-.522.236c.261-.684.534-1.385.814-2.11 1.954-4.996 3.718-8.979 3.932-8.896l.006-.012z"
            fill="#fff" />
    </g>
    <defs>
        <clipPath id="s4uhnbgiva">
            <path d="M0 0h205v189H0z" fill="#fff" />
        </clipPath>
    </defs>
</svg>
