<svg width="28" height="28" viewBox="0 0 28 28" fill="none" xmlns="http://www.w3.org/2000/svg">
    <g clip-path="url(#s2ucqvwq1a)">
        <path d="M2.343 4.116c.303-.681.63-1.37 1.035-1.997a.086.086 0 0 1 .119-.025c.001 0 .003.003.005.003.61.472 1.35.95 1.006 1.873-.193.519-.47.921-.832 1.208a.203.203 0 0 1-.255-.003l-1.03-.858c-.069-.055-.085-.122-.048-.2z" fill="url(#vaa3vbz7jb)"/>
        <path d="M3.55 5.3a.284.284 0 0 1-.18-.065l-1.03-.857a.232.232 0 0 1-.07-.295c.293-.661.623-1.36 1.041-2.009a.165.165 0 0 1 .227-.049l.138.107c.583.445 1.246.95.905 1.865-.198.53-.487.948-.857 1.243a.284.284 0 0 1-.175.06h.002zM3.455 2.16c-.422.64-.747 1.334-1.038 1.989-.02.047-.014.074.025.108l1.03.857c.045.037.11.038.156.002.349-.278.62-.672.807-1.173.3-.805-.286-1.252-.853-1.685l-.128-.098h.001z" fill="url(#ky9kfwsvsc)"/>
        <path d="M27.834 14.072c-.029-.072-.065-.103-.108-.091a.338.338 0 0 0-.222.17c-.395.722-1.107 1.928-1.994 1.358-.229-.148-.468-.506-.357-.791.28-.733.905-1.211 1.676-.907.225.087.404.032.538-.168a.504.504 0 0 0 .086-.3.357.357 0 0 0-.215-.325c-1.067-.458-1.838.336-2.26 1.218-.277.582-.52 1.17-.732 1.764-.03.086-.09.128-.18.127-.86-.005-1.19-.525-1.205-1.325-.022-1.205.228-2.399.496-3.67a.082.082 0 0 1 .073-.07c.522-.079 1.04-.17 1.557-.27.913-.178 1.954-1.251 2.553-1.882.097-.102.076-.141-.061-.118-5.392.874-10.965 1.589-16.451 1.883-1.763.096-3.54.132-5.333.108a14.027 14.027 0 0 1-2.685-.295 4.424 4.424 0 0 1-1.458-.573c-.002 0-.002-.002-.003-.002a.097.097 0 0 1-.026-.135c.905-1.325 2.351-1.708 3.595-2.604C6.434 6.226 6.803 4.428 6.71 2.86c-.013-.217-.076-.233-.192-.048-.53.862-1.189 1.925-1.106 2.998a.285.285 0 0 1-.029.149c-.095.185-.207.317-.336.393-1.621.962-3.081 1.661-4.18 3.405a7.015 7.015 0 0 0-.612 1.274c-.315.843.178 1.324.939 1.538.919.256 1.81.404 2.67.44.067.002.096.037.088.103-.236 1.774-.392 3.155-.468 4.14-.047.602.035 1.857.572 2.306.787.657 1.386.015 1.766-.688a8.704 8.704 0 0 0 .752-2.556v-.004a.091.091 0 0 0-.084-.1l-.062-.006a.086.086 0 0 0-.087.058c-.19.598-.35 1.565-1.273 1.092-.416-.214-.63-.618-.64-1.215-.018-.921.052-1.923.212-3.01a.055.055 0 0 1 .055-.045c2.386.068 4.867-.05 7.44-.349.068-.008.096.02.087.087a105.316 105.316 0 0 0-.497 4.244c-.106 1.103.159 2.8 1.652 2.753a1.561 1.561 0 0 0 1.289-.688c.293-.414.585-.837.872-1.27a.173.173 0 0 1 .231-.055c1.994 1.132 3.846-.436 4.648-2.178.277-.604.654-1.924-.395-2.057-1.154-.148-2.197 1.881-2.67 2.686a.362.362 0 0 1-.393.172c-.255-.058-.583-.27-.833-.197-.322.095-.647.675-.833.938-.204.29-.48.459-.825.508-1.143.16-1.785-.693-1.796-1.734-.011-1.013.082-2.091.277-3.234a.082.082 0 0 1 .071-.068c3.294-.395 6.54-.882 9.735-1.457a.07.07 0 0 1 .032.005.05.05 0 0 1 .02.066c-.336.62-.583 1.283-.68 1.991a31.273 31.273 0 0 0-.28 3.7c-.012.723-.375 1.05-1.09.98a4.03 4.03 0 0 0-2.457.53c-1.049.6-1.895 1.33-2.54 2.194-1.126 1.511-2.088 3.207-3.513 4.643a.316.316 0 0 0-.094.217l-.024.79c0 .01.004.022.01.032a.056.056 0 0 0 .078.014 9.162 9.162 0 0 0 1.92-1.879c1.412-1.88 2.643-4.503 5.476-4.24.41.038.728-.08 1.038-.355a8.075 8.075 0 0 0 1.59-1.92c.006-.01.016-.02.026-.03a.119.119 0 0 1 .168.013c.306.347.707.526 1.204.539 1.314.032 2.294-.867 2.992-1.937.513-.788.914-1.582 1.204-2.386a.118.118 0 0 0-.001-.08zm-10.098 2.255c.501-.628 1.038-2.136 2.12-1.438.145.093.168.21.068.352-.56.79-1.272 1.19-2.132 1.198a.07.07 0 0 1-.056-.113z" fill="url(#ldgtbp2fcd)"/>
        <path d="M12.185 26.516c-.013 0-.025 0-.04-.003a.22.22 0 0 1-.137-.09.217.217 0 0 1-.038-.121l.023-.794a.474.474 0 0 1 .14-.325c.97-.978 1.732-2.091 2.47-3.167.33-.485.675-.986 1.027-1.459.654-.876 1.526-1.63 2.588-2.236a4.221 4.221 0 0 1 2.552-.552c.31.03.54-.02.685-.152.147-.132.225-.358.23-.672a31.57 31.57 0 0 1 .282-3.719 5.809 5.809 0 0 1 .593-1.845 168.01 168.01 0 0 1-9.468 1.412 18.071 18.071 0 0 0-.267 3.15c.007.545.197 1.02.525 1.301.282.243.66.338 1.09.278.305-.043.54-.187.719-.442.031-.046.07-.102.11-.164.205-.312.487-.742.806-.835.219-.064.455.027.663.11.091.034.177.067.25.085a.206.206 0 0 0 .222-.097l.136-.236c.536-.935 1.532-2.674 2.69-2.528.328.04.565.188.702.437.346.623-.091 1.646-.183 1.844-.573 1.242-1.533 2.184-2.568 2.517-.775.25-1.549.158-2.302-.268-.008-.005-.016-.003-.02.005-.273.41-.566.838-.875 1.274a1.72 1.72 0 0 1-1.413.755c-.496.017-.905-.145-1.216-.476-.702-.75-.635-2.065-.599-2.45.127-1.334.29-2.727.484-4.147a52.3 52.3 0 0 1-7.268.34 18.06 18.06 0 0 0-.197 2.892c.01.539.192.89.555 1.078.21.108.384.134.512.08.25-.109.376-.535.477-.88l.06-.2a.246.246 0 0 1 .25-.169l.066.007a.247.247 0 0 1 .225.271 8.891 8.891 0 0 1-.766 2.612c-.333.615-.7.962-1.098 1.038-.303.06-.61-.04-.913-.296-.633-.528-.668-1.938-.63-2.44.076-.98.23-2.352.46-4.075a12.172 12.172 0 0 1-2.634-.442c-.512-.144-.872-.395-1.04-.726-.148-.29-.15-.634-.005-1.02.18-.488.391-.927.626-1.302.99-1.571 2.289-2.326 3.665-3.125.187-.109.377-.218.569-.333a.787.787 0 0 0 .276-.33.103.103 0 0 0 .01-.061c-.085-1.122.584-2.21 1.122-3.083l.008-.014c.044-.072.149-.238.309-.197.16.041.17.236.176.319.055.938.006 3.252-1.657 4.45-.423.305-.872.552-1.304.792-.842.464-1.638.903-2.217 1.72.4.24.853.415 1.351.518.864.18 1.758.279 2.655.292a79.264 79.264 0 0 0 5.322-.108c4.853-.262 10.23-.877 16.433-1.882.052-.01.214-.036.283.094.07.13-.044.25-.082.29-.534.563-1.647 1.736-2.638 1.927-.502.099-1.011.187-1.514.265-.261 1.24-.504 2.411-.483 3.587.016.794.349 1.165 1.048 1.17.016 0 .02-.002.02-.002s.005-.004.01-.018c.212-.598.46-1.196.739-1.78.584-1.223 1.505-1.706 2.464-1.296.188.08.31.264.311.47a.679.679 0 0 1-.112.391c-.175.26-.433.34-.728.227-.274-.108-.532-.11-.772-.005-.298.132-.547.423-.699.821-.078.201.122.49.295.6.179.117.352.15.53.106.548-.14 1.033-1.026 1.239-1.405a.495.495 0 0 1 .322-.249c.033-.008.204-.04.294.187v.003a.267.267 0 0 1 .004.189 11.768 11.768 0 0 1-1.222 2.42c-.888 1.362-1.938 2.031-3.128 2.009-.523-.013-.956-.2-1.287-.556a8.194 8.194 0 0 1-1.593 1.914c-.355.314-.713.435-1.157.395-2.281-.214-3.488 1.531-4.653 3.216-.222.322-.452.655-.683.96a9.364 9.364 0 0 1-1.953 1.913.222.222 0 0 1-.125.04h.011zm8.154-8.452c-.683 0-1.341.177-1.96.53-1.025.586-1.863 1.31-2.491 2.152-.349.468-.691.967-1.02 1.449-.746 1.087-1.516 2.213-2.507 3.211a.16.16 0 0 0-.048.108l-.017.575a9.019 9.019 0 0 0 1.715-1.716c.227-.301.446-.617.675-.951 1.16-1.679 2.478-3.581 4.943-3.353.353.032.63-.062.918-.315a7.914 7.914 0 0 0 1.558-1.882.288.288 0 0 1 .26-.136.27.27 0 0 1 .19.096c.276.313.633.471 1.087.482 1.074.032 2.031-.602 2.855-1.865a11.5 11.5 0 0 0 1.132-2.2c-.372.676-.832 1.383-1.427 1.534a.959.959 0 0 1-.778-.144c-.258-.167-.569-.595-.418-.982.182-.477.491-.83.867-.997a1.295 1.295 0 0 1 1.014 0c.156.06.257.029.349-.11a.342.342 0 0 0 .059-.208c0-.08-.048-.15-.12-.181-1.128-.485-1.811.636-2.054 1.14a18.035 18.035 0 0 0-.726 1.748.336.336 0 0 1-.332.233c-.606-.003-1.337-.263-1.36-1.48-.023-1.229.23-2.432.499-3.706a.24.24 0 0 1 .203-.194c.515-.077 1.036-.17 1.552-.27.795-.155 1.732-1.066 2.287-1.645-6.106.983-11.41 1.585-16.207 1.844a79.925 79.925 0 0 1-5.343.108 14.2 14.2 0 0 1-2.715-.298 4.582 4.582 0 0 1-1.471-.571h-.023l-.036-.038a.255.255 0 0 1-.056-.346c.625-.913 1.508-1.4 2.362-1.873.425-.235.864-.477 1.273-.77 1.443-1.039 1.568-3.025 1.535-3.998-.501.818-1.064 1.794-.991 2.75a.442.442 0 0 1-.045.23c-.11.215-.244.369-.397.461-.194.114-.384.225-.573.334-1.4.814-2.607 1.516-3.555 3.019a6.939 6.939 0 0 0-.598 1.244c-.112.3-.115.558-.01.765.16.316.548.48.842.565.906.252 1.792.4 2.635.434a.245.245 0 0 1 .184.081c.032.036.066.1.054.2-.233 1.755-.39 3.145-.468 4.134-.054.678.071 1.799.515 2.171.23.194.444.267.65.229.295-.057.598-.357.875-.869.29-.624.506-1.276.64-1.939-.109.311-.264.61-.545.73-.218.093-.482.064-.781-.09-.47-.242-.715-.697-.726-1.353-.018-.93.054-1.951.214-3.034a.21.21 0 0 1 .222-.18c2.355.066 4.85-.05 7.413-.35a.233.233 0 0 1 .203.063c.035.034.073.1.058.204-.199 1.45-.365 2.875-.495 4.236-.07.726.028 1.685.515 2.203.246.261.574.39.975.375a1.402 1.402 0 0 0 1.165-.62c.306-.434.6-.86.869-1.266a.33.33 0 0 1 .444-.104c.67.38 1.36.462 2.047.24.939-.302 1.85-1.201 2.378-2.347.24-.52.392-1.203.194-1.558-.088-.157-.24-.248-.465-.276-.946-.122-1.877 1.501-2.376 2.371-.05.088-.095.167-.138.238a.518.518 0 0 1-.564.246 2.23 2.23 0 0 1-.297-.099c-.168-.066-.344-.133-.458-.1-.207.062-.472.465-.63.706-.043.065-.081.124-.116.171a1.328 1.328 0 0 1-.934.572c-.525.073-.99-.047-1.341-.352-.396-.34-.628-.901-.636-1.537-.01-1.011.083-2.11.28-3.262a.24.24 0 0 1 .207-.198c3.26-.39 6.53-.88 9.727-1.456a.22.22 0 0 1 .13.02.21.21 0 0 1 .09.282c-.358.66-.576 1.295-.663 1.938a31.292 31.292 0 0 0-.279 3.68c-.006.408-.119.711-.334.904-.216.192-.526.271-.928.23a3.816 3.816 0 0 0-.402-.02l-.005.003zm-13.924-1.77v.004-.005zM4.691 13.24h.004-.004zm13.102 3.356a.227.227 0 0 1-.228-.201.229.229 0 0 1 .048-.168c.1-.126.204-.294.315-.471.312-.501.667-1.069 1.197-1.186.263-.059.537.003.816.184.11.07.176.159.197.26a.4.4 0 0 1-.084.316c-.588.83-1.35 1.257-2.26 1.264v.002zm1.525-1.731a.552.552 0 0 0-.125.014c-.4.09-.716.596-.997 1.045-.078.123-.15.24-.225.347.73-.057 1.328-.426 1.821-1.124.029-.04.034-.065.032-.073-.002-.008-.016-.028-.056-.054a.833.833 0 0 0-.451-.155h.001z" fill="url(#lju56mfpbe)"/>
        <path d="M18.442 7.962c-.16.331-.363.605-.606.823-.152.134-.306.138-.461.006l-.872-.726a.25.25 0 0 1-.07-.289c.302-.716.636-1.366 1.005-1.95.023-.037.072-.048.111-.025.003 0 .005.004.007.005.776.596 1.418 1.051.886 2.156z" fill="url(#deimdfo7af)"/>
        <path d="M17.603 8.967a.432.432 0 0 1-.279-.116l-.872-.726a.328.328 0 0 1-.092-.38 13.44 13.44 0 0 1 1.012-1.961.151.151 0 0 1 .096-.07.165.165 0 0 1 .122.02l.07.052c.753.577 1.401 1.074.855 2.21-.165.34-.375.625-.625.849a.432.432 0 0 1-.285.124l-.002-.002zm-.095-3.099a13.06 13.06 0 0 0-1 1.939.169.169 0 0 0 .047.196l.872.726c.125.106.236.105.358-.005.235-.209.431-.477.587-.797.491-1.02-.054-1.438-.807-2.016l-.056-.043h-.001z" fill="url(#yddtyiwgpg)"/>
        <path d="m9.75 8.306-.772.937a.255.255 0 0 1-.36.031L7.602 8.42a.145.145 0 0 1-.041-.166c.283-.696.626-1.365 1.027-2.004.032-.05.073-.059.122-.029.515.332.918.749 1.205 1.253a.117.117 0 0 0 .203.001l.802-1.366a.076.076 0 0 1 .103-.027c.358.23.66.495.91.794.565.682-.137 1.766-.657 2.226a.258.258 0 0 1-.33.01l-1.058-.824c-.051-.04-.097-.033-.137.016v.002z" fill="url(#06plxyml2h)"/>
        <path d="M8.782 9.414a.332.332 0 0 1-.214-.078l-1.02-.856a.226.226 0 0 1-.063-.257c.286-.697.633-1.375 1.034-2.016.055-.087.144-.108.231-.054.525.338.94.768 1.232 1.281a.033.033 0 0 0 .024.018c.006 0 .017.003.028-.004a.031.031 0 0 0 .014-.014l.803-1.366a.155.155 0 0 1 .21-.056c.368.236.68.51.932.813.633.761-.174 1.903-.664 2.335a.34.34 0 0 1-.431.013L9.839 8.35c-.008-.006-.013-.008-.014-.01l-.011.013-.772.937a.327.327 0 0 1-.227.12h-.03l-.003.004zm-.117-3.126A12.281 12.281 0 0 0 7.63 8.284a.066.066 0 0 0 .02.076l1.017.854c.036.03.082.045.13.041a.179.179 0 0 0 .119-.061l.772-.937c.066-.083.161-.094.245-.029l1.06.823a.18.18 0 0 0 .227-.006c.435-.384 1.2-1.45.647-2.115a3.87 3.87 0 0 0-.89-.778l-.796 1.365a.196.196 0 0 1-.34-.002A3.538 3.538 0 0 0 8.663 6.29l.002-.002z" fill="url(#uhxiigewti)"/>
        <path d="m4.372 26.628-1.157-.892a.21.21 0 0 1-.067-.247c.186-.449.396-.893.636-1.329.146-.264.418-.615.82-1.05.82-.893 1.499-1.89 2.033-2.99.487-.693.907-1.19 1.262-1.493.282-.24.796-.579 1.542-1.02.333-.198.815-.678.203-.978a.213.213 0 0 0-.165-.012c-.179.058-.37.122-.556.042-.487-.21-.63-.566-.43-1.063a8.62 8.62 0 0 1 .885-1.677c.45-.65 1.217.188 1.422.608.66 1.359-.195 3.878-1.546 4.583a32.72 32.72 0 0 0-1.395.774 1.405 1.405 0 0 0-.5.475c-.755 1.217-1.553 2.48-2.64 3.38a.08.08 0 0 0-.01.114l.016.014c.4.276.774.72.655 1.232a2.626 2.626 0 0 1-1.008 1.53z" fill="url(#ty075thwqj)"/>
        <path d="m4.372 26.828-1.254-.967a.367.367 0 0 1-.116-.434c.186-.452.403-.904.644-1.343.154-.277.43-.632.841-1.082a12.34 12.34 0 0 0 2.009-2.952l.013-.022c.491-.7.925-1.214 1.288-1.523.292-.248.804-.587 1.565-1.036.207-.123.425-.336.418-.488-.003-.074-.071-.146-.204-.21-.018-.009-.03-.01-.048-.004-.192.062-.428.14-.667.038-.563-.244-.745-.694-.515-1.268a8.778 8.778 0 0 1 .902-1.709c.19-.274.423-.317.583-.304.51.04.976.658 1.111.935.702 1.443-.174 4.04-1.615 4.792-.461.241-.929.501-1.389.77a1.274 1.274 0 0 0-.447.422c-.667 1.078-1.496 2.413-2.595 3.353.516.387.747.87.638 1.34-.152.652-.512 1.196-1.067 1.62l-.097.072h.002zm2.403-6.627a12.654 12.654 0 0 1-2.054 3.016c-.39.425-.658.769-.798 1.021-.234.428-.445.87-.628 1.313-.009.022-.001.046.016.061l1.06.817c.44-.365.728-.825.855-1.365.12-.512-.372-.915-.59-1.065a.24.24 0 0 1-.019-.379c1.1-.91 1.901-2.202 2.606-3.342.132-.212.32-.39.557-.53.463-.27.935-.532 1.401-.776 1.289-.674 2.104-3.085 1.476-4.373-.143-.293-.545-.734-.85-.758-.074-.006-.185.006-.298.17a8.565 8.565 0 0 0-.868 1.645c-.168.417-.06.682.345.86.129.055.28.004.44-.048a.378.378 0 0 1 .29.02c.304.15.375.346.381.484.016.4-.475.715-.573.773-.736.435-1.246.772-1.522 1.004-.341.29-.755.778-1.227 1.453v-.001z" fill="url(#2nqjkdqm1k)"/>
        <path d="M18.442 24.685a.133.133 0 0 0 .23 0l.781-1.352a.076.076 0 0 1 .103-.027c.363.235.67.504.924.808.58.695-.19 1.815-.75 2.28a.131.131 0 0 1-.163.003l-1.098-.851a.14.14 0 0 0-.192.017l-.782.9c-.106.123-.22.132-.345.03l-1-.833a.182.182 0 0 1-.053-.211c.286-.686.625-1.346 1.018-1.978.029-.046.067-.054.113-.024.532.344.936.756 1.212 1.236l.002.002z" fill="url(#n36a108iel)"/>
        <path d="M17.316 26.643a.343.343 0 0 1-.215-.09l-1-.831a.26.26 0 0 1-.075-.303 13.79 13.79 0 0 1 1.024-1.99.16.16 0 0 1 .098-.075c.04-.01.083 0 .124.026.54.35.957.776 1.238 1.264a.054.054 0 0 0 .073.02.055.055 0 0 0 .019-.019l.781-1.353a.157.157 0 0 1 .094-.072.157.157 0 0 1 .119.016c.372.241.69.518.946.828.173.206.246.46.219.751-.056.615-.547 1.28-.98 1.639a.21.21 0 0 1-.263.005l-1.099-.851a.061.061 0 0 0-.084.006l-.781.9c-.073.084-.155.127-.24.127l.002.002zm-.13-3.128a13.474 13.474 0 0 0-1.014 1.966.1.1 0 0 0 .03.119l1 .832c.092.076.157.071.235-.02l.781-.9c.078-.088.21-.1.301-.027l1.097.852a.052.052 0 0 0 .065-.002c.422-.349.874-.987.923-1.531a.84.84 0 0 0-.184-.636 4.006 4.006 0 0 0-.907-.792l-.775 1.35a.219.219 0 0 1-.078.08.212.212 0 0 1-.288-.078c-.268-.468-.667-.874-1.187-1.21l.001-.003z" fill="url(#815we3b1zm)"/>
    </g>
    <defs>
        <linearGradient id="vaa3vbz7jb" x1="5.662" y1="-.409" x2="1.538" y2="2.449" gradientUnits="userSpaceOnUse">
            <stop stop-color="#D61F2C"/>
            <stop offset=".75" stop-color="#fff"/>
        </linearGradient>
        <linearGradient id="ky9kfwsvsc" x1="5.814" y1="-.615" x2="1.456" y2="2.46" gradientUnits="userSpaceOnUse">
            <stop stop-color="#D61F2C"/>
            <stop offset=".75" stop-color="#fff"/>
        </linearGradient>
        <linearGradient id="ldgtbp2fcd" x1="40.83" y1="-16.065" x2="7.865" y2="20.884" gradientUnits="userSpaceOnUse">
            <stop offset=".688" stop-color="#F7F8FB"/>
            <stop offset=".99" stop-color="#D61F2C"/>
        </linearGradient>
        <linearGradient id="lju56mfpbe" x1="41.127" y1="-16.478" x2="7.71" y2="20.9" gradientUnits="userSpaceOnUse">
            <stop offset=".688" stop-color="#F7F8FB"/>
            <stop offset=".99" stop-color="#D61F2C"/>
        </linearGradient>
        <linearGradient id="deimdfo7af" x1="19.68" y1="3.334" x2="15.625" y2="6.124" gradientUnits="userSpaceOnUse">
            <stop stop-color="#D61F2C"/>
            <stop offset=".75" stop-color="#fff"/>
        </linearGradient>
        <linearGradient id="yddtyiwgpg" x1="19.836" y1="3.129" x2="15.543" y2="6.14" gradientUnits="userSpaceOnUse">
            <stop stop-color="#D61F2C"/>
            <stop offset=".75" stop-color="#fff"/>
        </linearGradient>
        <linearGradient id="06plxyml2h" x1="14.296" y1="3.488" x2="9.921" y2="9.391" gradientUnits="userSpaceOnUse">
            <stop offset=".354" stop-color="#F1F2F3"/>
            <stop offset="1" stop-color="#D61F2C"/>
        </linearGradient>
        <linearGradient id="uhxiigewti" x1="14.458" y1="3.281" x2="9.851" y2="9.417" gradientUnits="userSpaceOnUse">
            <stop offset=".354" stop-color="#F1F2F3"/>
            <stop offset="1" stop-color="#D61F2C"/>
        </linearGradient>
        <linearGradient id="ty075thwqj" x1="14.732" y1="3.424" x2="-6.705" y2="10.784" gradientUnits="userSpaceOnUse">
            <stop stop-color="#F7F8FB"/>
            <stop offset=".794" stop-color="#D61F2C"/>
        </linearGradient>
        <linearGradient id="2nqjkdqm1k" x1="15.044" y1="2.983" x2="-7.204" y2="10.717" gradientUnits="userSpaceOnUse">
            <stop stop-color="#F7F8FB"/>
            <stop offset=".794" stop-color="#D61F2C"/>
        </linearGradient>
        <linearGradient id="n36a108iel" x1="22.847" y1="20.709" x2="18.467" y2="26.624" gradientUnits="userSpaceOnUse">
            <stop offset=".146" stop-color="#F7F9FC"/>
            <stop offset="1" stop-color="#D61F2C"/>
        </linearGradient>
        <linearGradient id="815we3b1zm" x1="23" y1="20.5" x2="18.386" y2="26.643" gradientUnits="userSpaceOnUse">
            <stop offset=".146" stop-color="#F7F9FC"/>
            <stop offset="1" stop-color="#D61F2C"/>
        </linearGradient>
        <clipPath id="s2ucqvwq1a">
            <path fill="#fff" transform="translate(0 2)" d="M0 0h28v24.828H0z"/>
        </clipPath>
    </defs>
</svg>
