<svg fill="none" height="28" viewBox="0 0 28 28" width="28" xmlns="http://www.w3.org/2000/svg">
    <path clip-rule="evenodd" d="M10.423 1.583h4.822c.521-.001 1.311-.003 1.942.418.747.498 1.063 1.4 1.063 2.666v.077c.002.522.003 1.312-.417 1.943-.498.747-1.4 1.063-2.666 1.063h-4.744c-.522.001-1.312.003-1.943-.418-.747-.498-1.063-1.4-1.063-2.665C7.417 3.4 7.733 2.499 8.48 2c.631-.42 1.42-.419 1.943-.418zM9.313 3.25c-.129.085-.396.35-.396 1.418 0 1.067.267 1.332.395 1.417.212.141.54.166 1.188.166h4.667c1.068 0 1.332-.267 1.418-.395.14-.212.165-.54.165-1.188 0-1.068-.267-1.333-.395-1.418-.212-.141-.54-.166-1.188-.166H10.5c-.648 0-.976.025-1.188.166z"
        fill="#D7DDE6"
        fill-rule="evenodd" />
    <path clip-rule="evenodd" d="M8.916 4.65a.75.75 0 0 1-.709.789c-1.883.102-3.093.498-3.863 1.332-.778.843-1.26 2.296-1.26 4.896v7c0 2.32.302 3.814 1.126 4.756.803.917 2.271 1.494 5.124 1.494h4.833a.75.75 0 0 1 0 1.5H9.334c-2.982 0-5.013-.59-6.252-2.007-1.218-1.391-1.498-3.397-1.498-5.743v-7c0-2.721.491-4.65 1.658-5.914C4.418 4.481 6.125 4.05 8.126 3.941a.75.75 0 0 1 .79.708zM16.751 4.65a.75.75 0 0 1 .79-.709c2 .108 3.707.536 4.883 1.807 1.168 1.262 1.66 3.193 1.66 5.919a.75.75 0 0 1-1.5 0c0-2.606-.483-4.06-1.261-4.9-.77-.832-1.979-1.226-3.864-1.328a.75.75 0 0 1-.708-.79z"
        fill="#D7DDE6"
        fill-rule="evenodd" />
    <path clip-rule="evenodd" d="M23.884 21.838a.583.583 0 0 0-.587.578c0 .32.263.579.587.579a.583.583 0 0 0 .588-.579.583.583 0 0 0-.588-.578zm-2.115.578c0-1.15.947-2.083 2.115-2.083 1.169 0 2.116.933 2.116 2.083 0 1.15-.947 2.084-2.116 2.084-1.168 0-2.115-.933-2.115-2.084zM17.115 16.005a.583.583 0 0 0-.587.578c0 .32.263.579.587.579a.583.583 0 0 0 .588-.579.583.583 0 0 0-.588-.578zM15 16.583c0-1.15.947-2.083 2.115-2.083 1.169 0 2.116.933 2.116 2.083 0 1.15-.947 2.084-2.116 2.084-1.168 0-2.115-.933-2.115-2.084zM24.09 15.547c.29.286.29.748 0 1.034l-6.977 6.872a.75.75 0 0 1-1.05 0 .723.723 0 0 1 0-1.033l6.978-6.873a.75.75 0 0 1 1.05 0z"
        fill="#D61F2C"
        fill-rule="evenodd" />
    <path clip-rule="evenodd" d="M10.422 1.583H15.244c.522-.001 1.312-.003 1.943.418.746.498 1.063 1.4 1.063 2.666v.077c.001.522.003 1.312-.418 1.943-.498.747-1.4 1.063-2.666 1.063H10.422c-.522.001-1.311.003-1.942-.418-.747-.498-1.064-1.4-1.064-2.665C7.417 3.4 7.734 2.499 8.48 2c.63-.42 1.42-.419 1.942-.418zM9.312 3.25c-.128.085-.396.35-.396 1.418 0 1.067.268 1.332.396 1.417.212.141.54.166 1.188.166h4.666c1.068 0 1.333-.267 1.418-.395.141-.212.166-.54.166-1.188 0-1.068-.267-1.333-.395-1.418-.212-.141-.54-.166-1.189-.166H10.5c-.648 0-.976.025-1.188.166z"
        fill="#D7DDE6"
        fill-rule="evenodd" />
    <path clip-rule="evenodd" d="M8.916 4.65a.75.75 0 0 1-.709.789c-1.883.102-3.093.498-3.863 1.332-.778.843-1.26 2.296-1.26 4.896v7c0 2.32.302 3.814 1.126 4.756.803.917 2.271 1.494 5.124 1.494h4.833a.75.75 0 0 1 0 1.5H9.334c-2.982 0-5.013-.59-6.252-2.007-1.218-1.391-1.498-3.397-1.498-5.743v-7c0-2.721.491-4.65 1.658-5.914C4.418 4.481 6.125 4.05 8.126 3.941a.75.75 0 0 1 .79.708zM16.751 4.65a.75.75 0 0 1 .79-.709c2 .108 3.707.536 4.883 1.807 1.168 1.262 1.66 3.193 1.66 5.919a.75.75 0 1 1-1.5 0c0-2.606-.483-4.06-1.261-4.9-.77-.832-1.979-1.226-3.864-1.328a.75.75 0 0 1-.708-.79z"
        fill="#D7DDE6"
        fill-rule="evenodd" />
    <path clip-rule="evenodd" d="M23.884 21.838a.583.583 0 0 0-.587.578c0 .32.263.579.587.579a.583.583 0 0 0 .588-.579.583.583 0 0 0-.588-.578zm-2.115.578c0-1.15.947-2.083 2.115-2.083 1.169 0 2.116.933 2.116 2.083 0 1.15-.947 2.084-2.116 2.084-1.168 0-2.115-.933-2.115-2.084zM17.115 16.005a.583.583 0 0 0-.587.578c0 .32.263.579.587.579a.583.583 0 0 0 .588-.579.583.583 0 0 0-.588-.578zM15 16.583c0-1.15.947-2.083 2.115-2.083 1.169 0 2.116.933 2.116 2.083 0 1.15-.947 2.084-2.116 2.084-1.168 0-2.115-.933-2.115-2.084zM24.09 15.547c.29.286.29.748 0 1.034l-6.977 6.872a.75.75 0 0 1-1.05 0 .723.723 0 0 1 0-1.033l6.978-6.873a.75.75 0 0 1 1.05 0z"
        fill="#D61F2C"
        fill-rule="evenodd" />
</svg>