<svg fill="none" height="28" viewBox="0 0 28 28" width="28" xmlns="http://www.w3.org/2000/svg">
    <path
        d="M12.239 2.602 6.417 4.783c-1.342.502-2.438 2.089-2.438 3.524v8.668c0 1.377.91 3.185 2.018 4.013l5.017 3.745c1.645 1.237 4.351 1.237 5.996 0l5.017-3.745c1.108-.828 2.018-2.636 2.018-4.013V8.307c0-1.435-1.097-3.022-2.438-3.524l-5.822-2.181c-.992-.362-2.578-.362-3.546 0z"
        stroke="#475467" stroke-linecap="round" stroke-linejoin="round" stroke-width="1.5" />
    <path
        d="M14 12.74h-.152a2.048 2.048 0 0 1-1.972-2.053c0-1.132.922-2.054 2.054-2.054 1.132 0 2.053.922 2.053 2.054A2.058 2.058 0 0 1 14 12.74z"
        stroke="#475467" stroke-linecap="round" stroke-linejoin="round" stroke-width="1.5" />
    <path
        d="M11.678 16.006c-1.12.747-1.12 1.972 0 2.719 1.272.851 3.36.851 4.632 0 1.12-.747 1.12-1.972 0-2.719-1.26-.851-3.348-.851-4.632 0z"
        stroke="#D61F2C" stroke-linecap="round" stroke-linejoin="round" stroke-width="1.5" />
</svg>
