<svg fill="none" height="28" viewBox="0 0 28 28" width="28" xmlns="http://www.w3.org/2000/svg">
    <path
        d="m10.642 13.747.982-.844c.38-.327.322-.77-.125-.986L5.777 9.13c-.902-.44-1.017-1.326-.266-1.972L6.68 6.153c.601-.517 1.688-.667 2.397-.308l6.504 3.177c.193.08.485.045.644-.092L18.93 6.6c.85-.73 2.407-.977 3.442-.56.361.15.635.47.73.849.266 1.095-.202 2.59-1.05 3.32l-2.707 2.33c-.16.136-.238.42-.188.622l.403 1.255-8.918-.67z"
        fill="#D61F2C" />
    <path
        d="m20.664 22.409-1.167 1.004c-.752.647-1.61.4-1.911-.557l-1.902-6.075c-.163-.475-.575-.597-.956-.27l-2.573 2.214c-.204.175-.397.541-.409.813l-.295 3.825c-.03.395-.37.858-.746 1.011l-1.545.637a1.194 1.194 0 0 1-1.603-.807l-.042-3.626c0-.555-.448-1.076-.996-1.159l-3.58-.583a1.156 1.156 0 0 1-.544-1.687l.86-1.433c.218-.356.717-.616 1.112-.586l3.826.278c.263.02.654-.116.857-.291l1.592-1.37 8.918.67 1.775 5.66c.241.762-.07 1.814-.671 2.331z"
        fill="#475467" />
</svg>
