<svg fill="none" height="16" viewBox="0 0 16 16" width="16" xmlns="http://www.w3.org/2000/svg">
    <path
        d="m5.595 7.72-1.129.427a.786.786 0 0 0-.47.681v1.68a1.104 1.104 0 0 0 .39.78l.97.732a1.023 1.023 0 0 0 1.158 0l.97-.728a1.104 1.104 0 0 0 .391-.78v-1.68a.787.787 0 0 0-.471-.685L6.278 7.72c-.222-.07-.46-.07-.683 0z"
        stroke="#ED2027" stroke-linecap="round" stroke-linejoin="round" stroke-width=".8" />
    <path d="m5.245 9.908.375.376L6.623 9.28" stroke="#ED2027" stroke-linecap="round"
        stroke-linejoin="round" stroke-width=".8" />
    <path
        d="M10.004 15.183H5.996c-3.627 0-5.177-1.55-5.177-5.178V5.997C.82 2.37 2.37.82 5.996.82h3.34a.505.505 0 0 1 .5.501.505.505 0 0 1-.5.5h-3.34c-3.08 0-4.175 1.096-4.175 4.176v4.008c0 3.08 1.095 4.175 4.175 4.175h4.008c3.08 0 4.175-1.095 4.175-4.175v-3.34a.501.501 0 1 1 1.003 0v3.34c0 3.628-1.55 5.178-5.178 5.178z"
        fill="#F2F4F7" />
    <path
        d="M14.69 7.042h-2.62c-2.241 0-3.112-.871-3.112-3.112V1.31a.486.486 0 0 1 .301-.452.496.496 0 0 1 .537.105l5.242 5.24a.493.493 0 0 1-.348.839zM9.94 2.499v1.43c0 1.69.44 2.13 2.13 2.13h1.434L9.94 2.5z"
        fill="#F2F4F7" />
</svg>
