<svg height="16" viewBox="0 0 16 16" width="16" xmlns="http://www.w3.org/2000/svg">
    <g>
        <g>
            <path style="fill:#292d32"
                d="M8.5 13.333h-4c-3.747 0-4.5-1.767-4.5-4.62V4.6C0 1.44 1.067.153 3.807 0h5.36C11.933.153 13 1.44 13 4.6v4.233a.5.5 0 0 1-1 0V4.6c0-2.907-.967-3.493-2.86-3.6H3.833C1.967 1.107 1 1.693 1 4.6v4.113c0 2.553.487 3.62 3.5 3.62h4a.5.5 0 1 1 0 1z"
                transform="translate(1.5 1.833)" />
            <path style="fill:#292d32"
                d="M.5 5a.5.5 0 0 1-.5-.5v-2A2.254 2.254 0 0 1 2.5 0h2a.494.494 0 0 1 .46.307.5.5 0 0 1-.107.547l-4 4A.5.5 0 0 1 .5 5zm2-4C1.447 1 1 1.447 1 2.5v.793L3.293 1z"
                transform="translate(9.5 10.167)" />
        </g>
    </g>
    <g>
        <path style="fill:#292d32"
            d="M1.834 2.335a.5.5 0 0 1-.354-.147L.146.854A.5.5 0 0 1 .5 0h4a.5.5 0 0 1 .5.5.5.5 0 0 1-.5.5H1.7l.48.48a.5.5 0 0 1 0 .707.5.5 0 0 1-.346.148z"
            transform="translate(5.166 7.953)" />
        <path style="fill:#292d32"
            d="M.5 2.334a.5.5 0 0 1-.354-.147.5.5 0 0 1 0-.707L1.48.145a.5.5 0 1 1 .707.707L.852 2.187a.5.5 0 0 1-.352.147z"
            transform="translate(5.167 6.623)" />
    </g>
</svg>
