<svg fill="none" height="16" viewBox="0 0 16 16" width="16" xmlns="http://www.w3.org/2000/svg">
    <path
        d="M10 15.168H6C2.38 15.168.834 13.62.834 10V6C.834 2.38 2.38.834 6 .834h3.334a.504.504 0 0 1 .5.5.504.504 0 0 1-.5.5H6C2.927 1.834 1.834 2.928 1.834 6v4c0 3.074 1.093 4.167 4.166 4.167h4c3.074 0 4.166-1.094 4.166-4.167V6.668a.5.5 0 0 1 1 0V10c.001 3.62-1.546 5.167-5.166 5.167z"
        fill="#344054" />
    <path
        d="M14.667 7.167H12c-2.28 0-3.166-.886-3.166-3.166V1.334a.494.494 0 0 1 .306-.46.505.505 0 0 1 .546.107l5.334 5.333a.5.5 0 0 1-.354.854l.001-.001zM9.834 2.541V4c0 1.72.446 2.166 2.166 2.166h1.46L9.834 2.541z"
        fill="#344054" />
    <path
        d="M7.2 11.998a.8.8 0 1 1 0-1.6.8.8 0 0 1 0 1.6zM9.6 11.998a.8.8 0 1 1 0-1.6.8.8 0 0 1 0 1.6zM4.8 11.998a.8.8 0 1 1 0-1.6.8.8 0 0 1 0 1.6z"
        fill="#D61F2C" />
</svg>
