<svg height="20" viewBox="0 0 20 20" width="20" xmlns="http://www.w3.org/2000/svg">
    <g>
        <path style="fill:#ed2027"
            d="M6.458 17.917C1.933 17.917 0 15.983 0 11.458v-5C0 1.933 1.933 0 6.458 0h4.167a.63.63 0 0 1 .625.625.63.63 0 0 1-.625.625H6.458c-3.841 0-5.208 1.367-5.208 5.208v5c0 3.842 1.367 5.208 5.208 5.208a.625.625 0 0 1 0 1.25z"
            transform="translate(1.042 1.042)" />
        <path style="fill:#ed2027"
            d="M.625 3.75A.63.63 0 0 1 0 3.125v-2.5A.63.63 0 0 1 .625 0a.63.63 0 0 1 .625.625v2.5a.63.63 0 0 1-.625.625z"
            transform="translate(17.708 7.708)" />
        <path style="fill:#ed2027"
            d="M7.292 7.915H3.958C1.108 7.915 0 6.807 0 3.957V.624A.617.617 0 0 1 .383.049a.631.631 0 0 1 .683.133l6.667 6.667a.625.625 0 0 1-.442 1.067zM1.25 2.132v1.825c0 2.15.558 2.708 2.708 2.708h1.825z"
            transform="translate(11.042 1.043)" />
    </g>
    <g>
        <path style="fill:#ed2027"
            d="M3.958 7.917a3.978 3.978 0 1 1 2.608-.992 3.962 3.962 0 0 1-2.608.992zm0-6.667a2.708 2.708 0 0 0 0 5.417 2.768 2.768 0 0 0 1.792-.675A2.71 2.71 0 0 0 3.958 1.25z"
            transform="translate(9.208 11.084)" />
        <path style="fill:#ed2027"
            d="M.622 3.125A.622.622 0 0 1 .3 1.967l.742-.442v-.9a.625.625 0 0 1 1.25 0v1.25a.626.626 0 0 1-.3.533l-1.037.625a.651.651 0 0 1-.333.092z"
            transform="translate(11.711 13.375)" />
    </g>
</svg>