<svg fill="none" height="24" viewBox="0 0 24 24" width="24" xmlns="http://www.w3.org/2000/svg">
    <path
        d="M8.467 19.2a.802.802 0 0 1-.77-.83v-5.54a.803.803 0 0 1 .77-.83.802.802 0 0 1 .77.83v5.54a.803.803 0 0 1-.77.83z"
        fill="#DC143B" />
    <path
        d="M11.168 16.373H5.63a.803.803 0 0 1-.83-.77.803.803 0 0 1 .83-.77h5.54a.803.803 0 0 1 .83.77.803.803 0 0 1-.83.77z"
        fill="#DC143B" />
    <path
        d="M15.001 22.747h-6c-5.43 0-7.75-2.321-7.75-7.751v-6c0-5.43 2.32-7.75 7.75-7.75h5a.756.756 0 0 1 .75.75.756.756 0 0 1-.75.75h-5c-4.61 0-6.25 1.64-6.25 6.25v6c0 4.61 1.64 6.25 6.25 6.25h6c4.61 0 6.25-1.641 6.25-6.25v-5a.75.75 0 0 1 1.5 0v5c0 5.43-2.32 7.75-7.75 7.75z"
        fill="#F2F4F7" />
    <path
        d="M22 10.75h-4c-3.42 0-4.75-1.33-4.75-4.75V2.002a.74.74 0 0 1 .46-.69.757.757 0 0 1 .819.16l8 8a.75.75 0 0 1-.53 1.28zm-7.25-6.94V6c0 2.58.67 3.25 3.25 3.25h2.19l-5.44-5.44z"
        fill="#F2F4F7" />
</svg>
