<svg fill="none" height="40" viewBox="0 0 40 40" width="40" xmlns="http://www.w3.org/2000/svg">
    <path
        d="M35.972 8.033a4 4 0 0 1 1.171 2.829V36a4 4 0 0 1-4 4H7.733a4 4 0 0 1-4-4V4a4 4 0 0 1 4-4h18.549a4 4 0 0 1 2.828 1.172l3.116 3.115 3.746 3.746z"
        fill="#F2F4F7" />
    <path d="M18.88 2.68H2.857v7.169H18.88v-7.17z" fill="#D61F2C" />
    <path
        d="M35.972 8.034a4 4 0 0 1 1.171 2.828V36a4 4 0 0 1-4 4H7.733a4 4 0 0 1-4-4v-1.563a4 4 0 0 1 1.172-2.829l14.447-14.447.925-.924.512-.512.854-.854 1.013-1.013 6.741-6.742a4 4 0 0 1 5.657 0l.918.918z"
        fill="#EAECF0" />
    <path d="M37.143 9.206h-4.206a5 5 0 0 1-5-5V0l9.206 9.206z" fill="#D0D5DD" />
    <path
        d="M16.58 28.577a2.127 2.127 0 0 0-.457-.705 2.114 2.114 0 0 0-.732-.476 2.605 2.605 0 0 0-.988-.173h-2.736v7.064h1.382v-2.663h1.354c.366 0 .695-.055.988-.174.284-.11.53-.274.732-.476.202-.2.348-.43.458-.704a2.37 2.37 0 0 0 0-1.693zm-1.49 1.546c-.184.174-.44.266-.751.266h-1.29v-1.94h1.29c.311 0 .567.091.75.274.174.174.265.412.265.705 0 .284-.091.521-.265.695zM23.188 29.958a6.945 6.945 0 0 0-.046-.668 2.608 2.608 0 0 0-.137-.558 1.991 1.991 0 0 0-.257-.476 2.327 2.327 0 0 0-.887-.787c-.348-.165-.76-.247-1.245-.247h-2.543v7.065h2.543c.486 0 .897-.083 1.245-.247.339-.165.64-.43.888-.787.11-.147.192-.312.256-.476.064-.174.11-.357.137-.558.028-.202.037-.421.046-.669.009-.237.009-.503.009-.796 0-.292 0-.558-.01-.796zm-1.382 1.51c0 .21-.018.375-.037.522a1.586 1.586 0 0 1-.082.357c-.037.1-.092.192-.155.274-.23.293-.577.43-1.035.43h-1.052v-4.603h1.052c.458 0 .806.147 1.035.44a.962.962 0 0 1 .155.265c.037.1.064.22.082.366.019.137.037.311.037.512.009.202.009.449.009.723 0 .275 0 .513-.01.714zM29.09 28.448v-1.226h-4.658v7.065h1.382v-2.864h2.791v-1.236h-2.791v-1.739h3.276z"
        fill="#D61F2C" />
    <path
        d="M16.58 28.576a2.128 2.128 0 0 0-.457-.704 2.114 2.114 0 0 0-.732-.476 2.605 2.605 0 0 0-.988-.174h-2.736v7.065h1.382v-2.663h1.354c.366 0 .695-.055.988-.174.284-.11.53-.275.732-.476.202-.201.348-.43.458-.705a2.37 2.37 0 0 0 0-1.693zm-1.49 1.547c-.184.174-.44.265-.751.265h-1.29v-1.94h1.29c.311 0 .567.092.75.275.174.174.265.412.265.704 0 .284-.091.522-.265.696z"
        fill="#D61F2C" />
</svg>
