<svg height="34" id="checked" viewBox="0 0 34 34" width="34" xmlns="http://www.w3.org/2000/svg">
    <g id="Group_9678" transform="translate(8.039 4.277)">
        <g id="Group_9677">
            <path
                d="M146.555,64.7a1.283,1.283,0,0,0-1.814,0L129.348,80.054l-5.554-6.032a1.283,1.283,0,1,0-1.888,1.738l6.458,7.014a1.282,1.282,0,0,0,.917.414h.027a1.284,1.284,0,0,0,.906-.374l16.338-16.3A1.283,1.283,0,0,0,146.555,64.7Z"
                fill="#52c86d" id="Path_564" transform="translate(-121.568 -64.327)" />
        </g>
    </g>
    <g id="Group_9680">
        <g id="Group_9679">
            <path
                d="M32.719,15.719A1.281,1.281,0,0,0,31.437,17,14.437,14.437,0,1,1,17,2.563,1.281,1.281,0,1,0,17,0,17,17,0,1,0,34,17,1.281,1.281,0,0,0,32.719,15.719Z"
                fill="#52c86d" id="Path_565" />
        </g>
    </g>
</svg>
