<svg fill="none" height="28" viewBox="0 0 28 28" width="28" xmlns="http://www.w3.org/2000/svg">
    <path
        d="m22.797 7.63-3.582-3.582a5.837 5.837 0 0 0-4.13-1.715H9.333c-3.5 0-5.833 2.334-5.833 5.834v11.666c0 3.5 2.333 5.834 5.833 5.834h9.334c3.5 0 5.833-2.334 5.833-5.834v-8.085a5.827 5.827 0 0 0-1.703-4.118z"
        fill="#D7DDE6" />
    <path
        d="M13.417 15.458v-4.375h-1.75a3.51 3.51 0 0 0-3.5 3.5v1.167h4.958a.289.289 0 0 0 .292-.292zM14.875 15.75h4.958v-1.167a3.51 3.51 0 0 0-3.5-3.5h-1.75v4.375c0 .164.128.292.292.292z"
        fill="#1C222E" />
    <path
        d="M13.125 16.917H8.167v1.166a3.51 3.51 0 0 0 3.5 3.5h1.75v-4.375a.289.289 0 0 0-.292-.291zM14.583 17.208v4.375h1.75a3.51 3.51 0 0 0 3.5-3.5v-1.166h-4.958a.289.289 0 0 0-.292.291z"
        fill="#D61F2C" />
</svg>
