<svg fill="none" height="24" viewBox="0 0 24 24" width="24" xmlns="http://www.w3.org/2000/svg">
    <path
        d="M8.19 20.392 6.04 14.887c.621.066 1.206.15 1.794.186 2.837.268 5.68-.444 8.077-2.021a11.42 11.42 0 0 0 4.186-5.64l.077-.193c.4 1.03.787 2.023 1.171 3.016.385.993.768 2.005 1.153 3.003a14.78 14.78 0 0 1-6.122 5.74 14.352 14.352 0 0 1-8.188 1.413z"
        fill="#D7DDE6" />
    <path
        d="M8.678 7.444a3.88 3.88 0 0 1 .555-2.137c.387-.641.95-1.15 1.62-1.463a3.647 3.647 0 0 1 2.142-.295c.726.12 1.402.458 1.94.97.54.514.918 1.178 1.089 1.911.17.733.124 1.501-.132 2.207a3.804 3.804 0 0 1-1.307 1.761 3.67 3.67 0 0 1-2.042.723 3.653 3.653 0 0 1-1.437-.237c-.46-.175-.88-.44-1.24-.782a3.817 3.817 0 0 1-.852-1.208 3.892 3.892 0 0 1-.336-1.45z"
        fill="#D61F2C" />
    <path
        d="m5.662 14.464 1.288 3.327a9.869 9.869 0 0 1-3.2-2.26c-.902-.911-1.66-1.96-2.25-3.107l2.18-6.069c1.927 3.742 4.333 6.88 8.664 7.833-.392.288-.859.452-1.341.47-1.739.15-3.489.087-5.213-.186a.914.914 0 0 0-.128-.008z"
        fill="#D7DDE6" />
</svg>
