<svg height="20" viewBox="0 0 20 20" width="20" xmlns="http://www.w3.org/2000/svg">
    <g transform="translate(-568 -374)">
        <g transform="translate(568 374)">
            <path
                d="M8.958,1.25H.625A.63.63,0,0,1,0,.625.63.63,0,0,1,.625,0H8.958a.625.625,0,0,1,0,1.25Z"
                fill="#1ecad3" transform="translate(9.375 4.008)" />
            <path
                d="M7.1,8.333H2.475C.65,8.333,0,7.692,0,5.875V2.458C0,.642.65,0,2.475,0H7.1C8.925,0,9.575.642,9.575,2.458V5.883C9.575,7.692,8.925,8.333,7.1,8.333ZM2.467,1.25c-1.133,0-1.225.092-1.225,1.208V5.883c0,1.117.092,1.208,1.225,1.208H7.092c1.133,0,1.225-.092,1.225-1.208V2.458c0-1.117-.092-1.208-1.225-1.208Z"
                fill="#1ecad3" transform="translate(9.383 1.042)" />
            <path
                d="M8.958,1.25H.625A.63.63,0,0,1,0,.625.63.63,0,0,1,.625,0H8.958a.625.625,0,0,1,0,1.25Z"
                fill="#1ecad3" transform="translate(1.042 13.592)" />
            <path
                d="M7.1,8.333H2.475C.65,8.333,0,7.692,0,5.875V2.458C0,.642.65,0,2.475,0H7.1C8.925,0,9.575.642,9.575,2.458V5.883C9.575,7.692,8.925,8.333,7.1,8.333ZM2.467,1.25c-1.133,0-1.225.092-1.225,1.208V5.883c0,1.117.092,1.208,1.225,1.208H7.092c1.133,0,1.225-.092,1.225-1.208V2.458c0-1.117-.092-1.208-1.225-1.208Z"
                fill="#1ecad3" transform="translate(1.05 10.625)" />
            <path
                d="M.622,7.092A.627.627,0,0,1,.08,6.775a.637.637,0,0,1,.008-.633L.964,4.683a.631.631,0,0,1,.858-.217.624.624,0,0,1,.217.858L1.814,5.7A5.226,5.226,0,0,0,5.839.625a.625.625,0,1,1,1.25,0A6.484,6.484,0,0,1,.622,7.092Z"
                fill="#1ecad3" transform="translate(11.878 11.867)" />
            <path
                d="M.625,7.083A.63.63,0,0,1,0,6.458,6.469,6.469,0,0,1,6.458,0,.627.627,0,0,1,7,.317.637.637,0,0,1,6.992.95L6.117,2.408a.631.631,0,0,1-.858.217.624.624,0,0,1-.217-.858l.225-.375A5.226,5.226,0,0,0,1.242,6.467.615.615,0,0,1,.625,7.083Z"
                fill="#1ecad3" transform="translate(1.042 1.042)" />
            <path d="M0,0H20V20H0Z" fill="none" opacity="0" />
        </g>
    </g>
</svg>