<svg fill="none" height="32" viewBox="0 0 32 32" width="32" xmlns="http://www.w3.org/2000/svg">
    <path clip-rule="evenodd"
        d="M10 6.801c-.815 0-1.504.027-2.1.112a.776.776 0 0 1-.026.003c-1.647.182-2.475.636-2.961 1.373-.533.81-.78 2.133-.78 4.379v6.666c0 2.246.247 3.57.78 4.379.486.737 1.314 1.191 2.961 1.373.009 0 .017.002.026.003.596.085 1.285.112 2.1.112h4.693a.8.8 0 1 1 0 1.6H10c-.834 0-1.607-.026-2.314-.126-1.853-.206-3.247-.773-4.11-2.082-.816-1.24-1.043-2.997-1.043-5.259v-6.666c0-2.261.227-4.018 1.044-5.258.862-1.31 2.256-1.876 4.11-2.083.706-.1 1.48-.126 2.313-.126h4.613a.8.8 0 0 1 0 1.6H10zM19.227 6.001a.8.8 0 0 1 .8-.8H22c.833 0 1.607.026 2.314.126 1.853.207 3.247.773 4.109 2.083.817 1.24 1.044 2.997 1.044 5.258v6.666c0 2.262-.227 4.018-1.044 5.259-.862 1.31-2.256 1.876-4.11 2.082-.706.1-1.48.126-2.313.126h-1.973a.8.8 0 1 1 0-1.6H22c.815 0 1.503-.027 2.1-.112a.734.734 0 0 1 .025-.003c1.648-.182 2.476-.636 2.962-1.373.533-.81.78-2.133.78-4.379v-6.666c0-2.246-.247-3.569-.78-4.378-.486-.738-1.314-1.192-2.962-1.374a.787.787 0 0 1-.025-.003c-.597-.085-1.285-.112-2.1-.112h-1.973a.8.8 0 0 1-.8-.8z"
        fill="#D7DDE6" fill-rule="evenodd" />
    <path clip-rule="evenodd"
        d="M20 1.867a.8.8 0 0 1 .8.8v26.667a.8.8 0 0 1-1.6 0V2.667a.8.8 0 0 1 .8-.8z" fill="#D7DDE6"
        fill-rule="evenodd" />
    <path clip-rule="evenodd"
        d="M10.667 10.533a.8.8 0 0 1 .8.8v9.333a.8.8 0 1 1-1.6 0v-9.333a.8.8 0 0 1 .8-.8z"
        fill="#D61F2C" fill-rule="evenodd" />
</svg>
