<svg height="18.5" viewBox="0 0 19.5 18.5" width="19.5" xmlns="http://www.w3.org/2000/svg">
    <path style="fill:#f8c51d;fill-rule:evenodd"
        d="M11.75 4.5a.471.471 0 0 0-.434.263L9.49 8.414A1.979 1.979 0 0 1 8 9.484l-4.088.589a.467.467 0 0 0-.39.323.443.443 0 0 0 .121.465L6.6 13.7a1.952 1.952 0 0 1 .573 1.745l-.7 4.01a.446.446 0 0 0 .184.447.473.473 0 0 0 .517.039l3.655-1.895a2 2 0 0 1 1.836 0l3.654 1.894a.483.483 0 0 0 .519-.038.446.446 0 0 0 .184-.447l-.7-4.01A1.952 1.952 0 0 1 16.9 13.7l2.956-2.84a.439.439 0 0 0 .121-.465.464.464 0 0 0-.389-.323L15.5 9.484a1.978 1.978 0 0 1-1.489-1.071l-1.828-3.65a.469.469 0 0 0-.433-.263m-4.8 17a1.988 1.988 0 0 1-1.174-.386A1.945 1.945 0 0 1 5 19.2l.7-4.01a.455.455 0 0 0-.135-.406L2.6 11.943a1.939 1.939 0 0 1-.509-2.006A1.96 1.96 0 0 1 3.7 8.589L7.786 8a.475.475 0 0 0 .362-.257l1.827-3.652A1.972 1.972 0 0 1 11.75 3a1.972 1.972 0 0 1 1.775 1.091l1.828 3.651a.476.476 0 0 0 .361.258l4.088.589a1.96 1.96 0 0 1 1.6 1.348 1.939 1.939 0 0 1-.51 2.006l-2.956 2.84a.453.453 0 0 0-.134.4l.7 4.011a1.945 1.945 0 0 1-.776 1.915 1.973 1.973 0 0 1-2.1.158l-3.653-1.893a.5.5 0 0 0-.457 0l-3.648 1.899a1.991 1.991 0 0 1-.921.227"
        transform="translate(-2 -3)" />
</svg>
