<svg height="24" viewBox="0 0 24 24" width="24" xmlns="http://www.w3.org/2000/svg">
    <g id="vuesax_outline_tick-circle" transform="translate(-748 -188)">
        <g id="tick-circle">
            <path
                d="M10.75,21.5A10.75,10.75,0,1,1,21.5,10.75,10.759,10.759,0,0,1,10.75,21.5Zm0-20A9.25,9.25,0,1,0,20,10.75,9.261,9.261,0,0,0,10.75,1.5Z"
                fill="#292d32" id="Vector" transform="translate(749.25 189.25)" />
            <path
                d="M3.578,7.168a.749.749,0,0,1-.53-.22L.218,4.117a.75.75,0,0,1,1.06-1.06l2.3,2.3L8.718.218a.75.75,0,0,1,1.06,1.06l-5.67,5.67A.749.749,0,0,1,3.578,7.168Z"
                fill="#292d32" id="Vector-2" transform="translate(755.003 196.413)" />
            <path d="M0,0H24V24H0Z" fill="none" id="Vector-3" opacity="0"
                transform="translate(748 188)" />
        </g>
    </g>
</svg>
