<svg height="19.001" viewBox="0 0 20.003 19.001" width="20.003" xmlns="http://www.w3.org/2000/svg">
    <path style="fill:#f8c51d"
        d="M17.919 14.32a1.1 1.1 0 0 0-.319.97l.889 4.92a1.08 1.08 0 0 1-.45 1.08 1.1 1.1 0 0 1-1.17.08l-4.429-2.31a1.131 1.131 0 0 0-.5-.131h-.271a.812.812 0 0 0-.27.09l-4.43 2.321a1.168 1.168 0 0 1-.71.11 1.112 1.112 0 0 1-.89-1.271l.89-4.92a1.119 1.119 0 0 0-.319-.979l-3.611-3.5a1.08 1.08 0 0 1-.269-1.13 1.123 1.123 0 0 1 .889-.75l4.97-.721A1.112 1.112 0 0 0 8.8 7.57l2.19-4.49a1.041 1.041 0 0 1 .2-.27l.09-.07a.671.671 0 0 1 .161-.13l.109-.04.17-.07h.421a1.119 1.119 0 0 1 .88.6l2.219 4.47a1.111 1.111 0 0 0 .83.609l4.97.721a1.134 1.134 0 0 1 .91.75 1.086 1.086 0 0 1-.29 1.13z"
        transform="translate(-2 -2.5)" />
</svg>
