<svg fill="none" height="104" viewBox="0 0 104 104" width="104" xmlns="http://www.w3.org/2000/svg">
    <path d="M52 104c28.719 0 52-23.281 52-52S80.719 0 52 0 0 23.281 0 52s23.281 52 52 52z"
        fill="#344054" fill-opacity=".4" />
    <path d="M52 95c23.748 0 43-19.252 43-43S75.748 9 52 9 9 28.252 9 52s19.252 43 43 43z"
        fill="#344054" fill-opacity=".6" />
    <path d="M52 87c19.33 0 35-15.67 35-35S71.33 17 52 17 17 32.67 17 52s15.67 35 35 35z"
        fill="#1E2531" />
    <path
        d="M63.25 35.977a.915.915 0 0 1-.468-.128 22.51 22.51 0 0 0-11.34-2.999A22.503 22.503 0 0 0 40.1 35.853a.991.991 0 0 1-.787.105 1.005 1.005 0 0 1-.36-.193 1.056 1.056 0 0 1-.261-.324 1.1 1.1 0 0 1 .114-1.196c.088-.11.196-.199.317-.264 3.777-2.132 8.001-3.25 12.294-3.254a25.023 25.023 0 0 1 12.298 3.234c.2.113.357.292.448.509.092.216.113.458.06.688-.054.23-.178.436-.354.585a1.003 1.003 0 0 1-.622.238l.004-.004zM34.12 47.145a1.029 1.029 0 0 1-.59-.191 1.043 1.043 0 0 1-.278-.303 1.09 1.09 0 0 1-.133-.81c.03-.137.087-.267.166-.38 1.965-2.934 4.586-5.322 7.634-6.957A22.68 22.68 0 0 1 51.41 35.91a22.679 22.679 0 0 1 10.497 2.574 21.428 21.428 0 0 1 7.634 6.914c.156.232.218.519.172.798-.046.28-.196.528-.418.692a.989.989 0 0 1-.764.18 1.02 1.02 0 0 1-.662-.437 19.385 19.385 0 0 0-6.901-6.254 20.699 20.699 0 0 0-9.57-2.343c-3.322.004-6.596.813-9.567 2.364a19.594 19.594 0 0 0-6.921 6.297.905.905 0 0 1-.339.336.856.856 0 0 1-.455.11l.003.005zM46.843 72.82a.92.92 0 0 1-.389-.08.955.955 0 0 1-.324-.24 21.436 21.436 0 0 1-4.092-5.615 19.572 19.572 0 0 1-2.137-9.232c.08-3.114 1.337-6.069 3.496-8.217 2.16-2.148 5.045-3.315 8.026-3.245 2.98-.07 5.866 1.097 8.026 3.245s3.416 5.103 3.496 8.217c0 .282-.107.553-.298.752-.19.2-.45.312-.72.312a.996.996 0 0 1-.72-.312c-.19-.2-.298-.47-.298-.752-.078-2.551-1.12-4.966-2.898-6.716s-4.147-2.693-6.59-2.622c-2.44-.07-4.81.872-6.588 2.622-1.778 1.75-2.82 4.165-2.898 6.716a17.27 17.27 0 0 0 1.893 8.187 20.066 20.066 0 0 0 3.76 5.149c.187.203.291.474.291.755 0 .282-.104.552-.29.756-.202.2-.468.314-.746.32zm14.597-3.93a10.621 10.621 0 0 1-6.311-1.893 11.158 11.158 0 0 1-3.536-4.04 11.728 11.728 0 0 1-1.31-5.298c0-.283.107-.553.298-.753.191-.2.45-.311.72-.311.27 0 .53.112.72.311.191.2.298.47.298.753a9.474 9.474 0 0 0 1.067 4.303 9.012 9.012 0 0 0 2.882 3.27 8.643 8.643 0 0 0 5.17 1.51c.711-.012 1.42-.083 2.118-.213a.99.99 0 0 1 .747.195c.215.164.36.409.406.683.044.274-.014.555-.165.785-.15.23-.38.388-.642.443-.812.162-1.636.247-2.463.256v-.001zm-4.092 4.381a1.145 1.145 0 0 1-.265-.042c-2.873-.724-5.496-2.27-7.573-4.467a15.576 15.576 0 0 1-3.281-5.09 16.13 16.13 0 0 1-1.137-6.019 6.55 6.55 0 0 1 1.897-4.48A5.996 5.996 0 0 1 51.36 51.4a5.996 5.996 0 0 1 4.371 1.774 6.55 6.55 0 0 1 1.898 4.48 4.518 4.518 0 0 0 1.34 2.933 4.147 4.147 0 0 0 2.894 1.191 4.147 4.147 0 0 0 2.894-1.19 4.518 4.518 0 0 0 1.34-2.934c0-8.02-6.616-14.529-14.759-14.529a14.382 14.382 0 0 0-7.905 2.27c-2.38 1.515-4.303 3.7-5.55 6.303a14.209 14.209 0 0 0-1.202 5.956 21.979 21.979 0 0 0 1.367 7.675 1.082 1.082 0 0 1-.018.811 1.038 1.038 0 0 1-.233.336.988.988 0 0 1-.34.214.97.97 0 0 1-.773-.026 1.013 1.013 0 0 1-.32-.24 1.063 1.063 0 0 1-.209-.351 24.646 24.646 0 0 1-1.489-8.419 16.595 16.595 0 0 1 1.385-6.893c1.413-2.966 3.596-5.456 6.3-7.187a16.352 16.352 0 0 1 8.988-2.598c9.263 0 16.796 7.467 16.796 16.656a6.689 6.689 0 0 1-1.947 4.418 6.135 6.135 0 0 1-4.322 1.803 6.135 6.135 0 0 1-4.322-1.803 6.69 6.69 0 0 1-1.946-4.418 4.37 4.37 0 0 0-1.301-2.978 4 4 0 0 0-2.934-1.148 4 4 0 0 0-2.933 1.148 4.37 4.37 0 0 0-1.301 2.978 13.92 13.92 0 0 0 .978 5.198 13.447 13.447 0 0 0 2.829 4.396 13.704 13.704 0 0 0 6.657 3.93.992.992 0 0 1 .354.183c.106.085.194.19.26.311a1.09 1.09 0 0 1 .099.804c-.05.227-.171.43-.345.577a.968.968 0 0 1-.612.23l-.001.011z"
        fill="#D61F2C" />
</svg>
