<svg height="39.014" viewBox="0 0 39.014 39.014" width="39.014" xmlns="http://www.w3.org/2000/svg">
    <g id="Group_10193" transform="translate(0)">
        <circle cx="12.431" cy="12.431" fill="#fff" id="Ellipse_124" r="12.431"
            transform="translate(7.076 7.075)" />
        <path
            d="M39.014,19.507A19.507,19.507,0,0,0,0,19.507,19.239,19.239,0,0,0,.208,22.35a19.507,19.507,0,0,0,38.805-2.843ZM6.413,22.35a13.505,13.505,0,0,1-.3-2.843,13.7,13.7,0,0,1,.273-2.71,13.409,13.409,0,1,1,0,5.553Z"
            fill="#fff" id="Path_933" transform="translate(0)" />
        <path
            d="M38.233,24.707A13.527,13.527,0,1,0,24.712,38.233,13.527,13.527,0,0,0,38.233,24.707Zm-22.831,0a9.31,9.31,0,0,1,18.614,0"
            fill="#1ecad3" id="Path_934" transform="translate(-5.205 -5.204)" />
        <circle cx="6.194" cy="6.194" fill="#ed2027" id="Ellipse_125" r="6.194"
            transform="translate(13.238 13.382)" />
    </g>
</svg>
