<svg fill="none" height="48" viewBox="0 0 48 48" width="48" xmlns="http://www.w3.org/2000/svg">
    <circle cx="24" cy="24" fill="#6696FF" r="22.5" stroke="#D6E7FF" stroke-width="3" />
    <path
        d="M24 14.445c5.27 0 9.555 4.285 9.555 9.556 0 5.271-4.284 9.556-9.555 9.556S14.444 29.272 14.444 24c0-5.271 4.284-9.556 9.556-9.556zm0 17.778c4.533 0 8.222-3.689 8.222-8.222 0-4.533-3.689-8.222-8.222-8.222-4.534 0-8.223 3.689-8.223 8.222 0 4.533 3.69 8.222 8.223 8.222z"
        fill="#fff" />
    <path
        d="M24 22.445c.364 0 .666.302.666.666v4.445a.672.672 0 0 1-.666.667.672.672 0 0 1-.667-.667v-4.445c0-.364.302-.666.667-.666zM24 19.557c.115 0 .23.026.338.07.106.045.204.108.293.188.08.088.142.177.187.293a.885.885 0 0 1 .07.338.886.886 0 0 1-.07.337 1.026 1.026 0 0 1-.187.294c-.089.08-.187.142-.293.186a.889.889 0 0 1-.676 0 1.025 1.025 0 0 1-.293-.186 1.024 1.024 0 0 1-.187-.294.886.886 0 0 1-.071-.337c0-.116.027-.232.071-.338a.917.917 0 0 1 .187-.294c.089-.08.186-.142.293-.186a.884.884 0 0 1 .338-.071z"
        fill="#fff" />
</svg>
