<svg fill="none" height="16" viewBox="0 0 16 16" width="16" xmlns="http://www.w3.org/2000/svg">
    <path
        d="M4.737 14.681c-.022 0-.052.015-.075.015a7.504 7.504 0 0 1-3.367-3.367c0-.023.015-.053.015-.075.915.27 1.86.472 2.797.63.165.945.36 1.882.63 2.797zM14.704 11.336a7.57 7.57 0 0 1-3.487 3.428c.285-.953.525-1.913.682-2.88a23.46 23.46 0 0 0 2.79-.63c-.007.03.015.06.015.082zM14.764 4.782a23.733 23.733 0 0 0-2.865-.683 20.936 20.936 0 0 0-.682-2.865 7.539 7.539 0 0 1 3.547 3.548zM4.737 1.32c-.27.914-.465 1.844-.623 2.79-.967.15-1.927.39-2.88.674a7.57 7.57 0 0 1 3.428-3.487c.022 0 .052.022.075.022zM10.618 3.942a23.496 23.496 0 0 0-5.235 0A21.28 21.28 0 0 1 6.148.897c.015-.06.007-.105.015-.164A7.804 7.804 0 0 1 8 .5c.63 0 1.245.09 1.83.233.008.06.008.105.023.164.337.998.577 2.018.765 3.045zM3.942 10.618a21.033 21.033 0 0 1-3.045-.765c-.06-.015-.105-.008-.164-.015A7.804 7.804 0 0 1 .5 8c0-.63.09-1.245.233-1.83.06-.007.105-.007.164-.022.998-.33 2.01-.578 3.045-.765a24.43 24.43 0 0 0 0 5.235zM15.5 8c0 .638-.09 1.245-.233 1.838-.06.007-.105 0-.165.015-.998.33-2.018.577-3.045.765.195-1.74.195-3.495 0-5.235a21.28 21.28 0 0 1 3.045.765c.06.015.105.022.165.022.142.593.232 1.2.232 1.83zM10.618 12.059a21.033 21.033 0 0 1-.765 3.045c-.015.06-.015.105-.023.165-.585.142-1.2.232-1.83.232-.637 0-1.245-.09-1.837-.232-.008-.06 0-.105-.015-.165-.33-.998-.578-2.01-.765-3.045.87.097 1.74.165 2.617.165.878 0 1.755-.068 2.618-.165zM10.822 10.822c-1.875.237-3.769.237-5.644 0a22.53 22.53 0 0 1 0-5.644 22.53 22.53 0 0 1 5.644 0c.237 1.875.237 3.769 0 5.644z"
        fill="#D61F2C" />
</svg>
