<svg xmlns="http://www.w3.org/2000/svg" width="48" height="48" viewBox="0 0 48 48">
    <path fill="#e3ecee" d="M39 48H9a9 9 0 0 1-9-9V9a9 9 0 0 1 9-9h30a9 9 0 0 1 9 9v30a9 9 0 0 1-9 9z"/>
    <path fill="#76979f" d="M22.25 8h-11.5A2.748 2.748 0 0 0 8 10.75v15.5A2.749 2.749 0 0 0 10.75 29h4.9a3.721 3.721 0 0 1 .51-1.13l5.22-8.479a3.912 3.912 0 0 1 3.371-1.89 2.011 2.011 0 0 1 .25.011V10.75A2.75 2.75 0 0 0 22.25 8zM12 12h4a1 1 0 1 1 0 2h-4a1 1 0 1 1 0-2zm5 10h-5a1 1 0 1 1 0-2h5a1 1 0 1 1 0 2zm4-4h-9a1 1 0 1 1 0-2h9a1 1 0 1 1 0 2z" transform="translate(4 4)"/>
    <path fill="#ec6d71" d="M28.541 25.191l-5.278-8.574a1.958 1.958 0 0 0-3.348-.018l-5.265 8.556a1.882 1.882 0 0 0-.315 1.054 1.961 1.961 0 0 0 1.965 1.955h10.572a1.956 1.956 0 0 0 1.961-1.951 1.859 1.859 0 0 0-.292-1.022zm-6.957.976a1 1 0 1 1 1-1 1 1 0 0 1-1.001 1zm1-3.5a1 1 0 0 1-2 0v-2a1 1 0 1 1 2 0z" transform="translate(7.167 7.833)"/>
</svg>
