<svg fill="none" height="241" viewBox="0 0 247 241" width="247" xmlns="http://www.w3.org/2000/svg">
    <g clip-path="url(#im90f1pzja)">
        <path
            d="m110.607 185.299-1.386-5.097-5.726.262a21.846 21.846 0 0 0-1.84-3.181l3.031-4.89-3.731-3.717-4.829 3.111a21.934 21.934 0 0 0-3.172-1.821l.197-5.77-5.075-1.339-2.634 5.118a21.574 21.574 0 0 0-3.656.026l-2.693-5.094-5.06 1.396.26 5.765a21.849 21.849 0 0 0-3.16 1.853l-4.855-3.052-3.69 3.757 3.088 4.863a22.29 22.29 0 0 0-1.809 3.194l-5.73-.199-1.33 5.111 5.081 2.653a22.062 22.062 0 0 0 .027 3.682l-5.06 2.711 1.386 5.097 5.726-.262a21.846 21.846 0 0 0 1.84 3.181l-3.031 4.89 3.73 3.717 4.83-3.111a21.935 21.935 0 0 0 3.172 1.821l-.197 5.77 5.076 1.339 2.635-5.117a21.68 21.68 0 0 0 3.655-.027l2.694 5.094 5.06-1.396-.26-5.765a21.775 21.775 0 0 0 3.16-1.853l4.855 3.052 3.69-3.757-3.088-4.863a22.272 22.272 0 0 0 1.808-3.195l5.73.199 1.331-5.111-5.082-2.653a22.09 22.09 0 0 0-.026-3.681l5.059-2.711h-.001zM87.3 203.089c-7.195 1.985-14.626-2.28-16.596-9.526-1.97-7.246 2.265-14.729 9.46-16.712 7.196-1.984 14.627 2.281 16.597 9.528 1.97 7.246-2.266 14.728-9.461 16.712v-.002z"
            fill="#fff" />
        <path
            d="M79.389 217.373a.298.298 0 0 1-.074-.009l-5.075-1.34a.29.29 0 0 1-.216-.292l.191-5.577a22.278 22.278 0 0 1-2.88-1.654l-4.668 3.006a.287.287 0 0 1-.36-.038l-3.732-3.716a.294.294 0 0 1-.041-.363l2.93-4.726a22.459 22.459 0 0 1-1.671-2.889l-5.534.252a.29.29 0 0 1-.293-.214l-1.386-5.097a.291.291 0 0 1 .144-.334l4.89-2.621a22.472 22.472 0 0 1-.024-3.344l-4.912-2.564a.29.29 0 0 1-.146-.333l1.33-5.111a.29.29 0 0 1 .291-.217l5.539.192a22.453 22.453 0 0 1 1.642-2.901l-2.985-4.702a.292.292 0 0 1 .038-.362l3.69-3.757a.287.287 0 0 1 .36-.042l4.694 2.95a21.99 21.99 0 0 1 2.87-1.682l-.252-5.573a.292.292 0 0 1 .214-.295l5.06-1.396c.131-.035.27.023.333.145l2.603 4.924a21.674 21.674 0 0 1 3.32-.024l2.547-4.947a.288.288 0 0 1 .331-.147l5.075 1.339a.29.29 0 0 1 .216.293l-.19 5.577a22.278 22.278 0 0 1 2.88 1.653l4.668-3.007a.287.287 0 0 1 .36.038l3.731 3.717a.292.292 0 0 1 .042.362l-2.93 4.726c.62.906 1.181 1.877 1.671 2.89l5.533-.253a.288.288 0 0 1 .293.214l1.386 5.097a.292.292 0 0 1-.144.335l-4.89 2.62a22.65 22.65 0 0 1 .025 3.344l4.911 2.564a.291.291 0 0 1 .147.333l-1.331 5.111c-.034.132-.152.236-.291.218l-5.538-.193a22.587 22.587 0 0 1-1.643 2.902l2.985 4.701a.292.292 0 0 1-.037.362l-3.691 3.757a.288.288 0 0 1-.36.043l-4.693-2.95c-.9.624-1.862 1.189-2.87 1.681l.251 5.574a.293.293 0 0 1-.213.295l-5.061 1.396a.29.29 0 0 1-.332-.145l-2.604-4.924a21.8 21.8 0 0 1-3.32.023l-2.546 4.947a.29.29 0 0 1-.258.158zm-4.778-1.854 4.627 1.22 2.527-4.911a.293.293 0 0 1 .28-.156c1.18.093 2.393.084 3.607-.027a.29.29 0 0 1 .283.155l2.583 4.888 4.614-1.272-.25-5.533a.292.292 0 0 1 .165-.276 21.554 21.554 0 0 0 3.117-1.828.286.286 0 0 1 .32-.009l4.66 2.929 3.363-3.424-2.964-4.668a.294.294 0 0 1 .005-.322 22.033 22.033 0 0 0 1.785-3.153.278.278 0 0 1 .274-.169l5.496.191 1.214-4.66-4.877-2.546a.294.294 0 0 1-.156-.282 21.724 21.724 0 0 0-.026-3.632.293.293 0 0 1 .153-.284l4.856-2.601-1.263-4.647-5.494.252a.287.287 0 0 1-.275-.166 21.616 21.616 0 0 0-1.815-3.138.294.294 0 0 1-.009-.323l2.909-4.692-3.401-3.387-4.635 2.984a.292.292 0 0 1-.32-.005 21.682 21.682 0 0 0-3.13-1.797.288.288 0 0 1-.168-.274l.19-5.536-4.628-1.221-2.527 4.911a.285.285 0 0 1-.28.157 21.218 21.218 0 0 0-3.607.026.294.294 0 0 1-.283-.154l-2.583-4.888-4.614 1.272.25 5.532a.293.293 0 0 1-.165.277 21.554 21.554 0 0 0-3.117 1.828.288.288 0 0 1-.32.009l-4.66-2.929-3.363 3.425 2.964 4.666a.295.295 0 0 1-.005.323c-.68.997-1.28 2.058-1.785 3.153-.049.106-.15.183-.274.168l-5.496-.191-1.213 4.661 4.876 2.546a.29.29 0 0 1 .155.281c-.092 1.19-.083 2.41.027 3.632.01.118-.05.23-.153.285l-4.856 2.602 1.263 4.646 5.494-.251a.28.28 0 0 1 .275.166 21.67 21.67 0 0 0 1.815 3.138c.067.096.07.223.01.323l-2.91 4.692 3.401 3.387 4.635-2.984a.29.29 0 0 1 .32.005c.99.684 2.043 1.288 3.13 1.798a.29.29 0 0 1 .168.274l-.19 5.536v-.002zm9.1-11.649c-2.366 0-4.7-.617-6.811-1.829-3.203-1.838-5.501-4.821-6.475-8.402-2.009-7.389 2.326-15.047 9.665-17.07a13.63 13.63 0 0 1 10.478 1.33 13.79 13.79 0 0 1 6.474 8.402c2.009 7.389-2.326 15.047-9.663 17.07a13.748 13.748 0 0 1-3.666.499h-.002zm.042-27.217c-1.171 0-2.35.158-3.511.478-7.03 1.939-11.183 9.274-9.258 16.354a13.212 13.212 0 0 0 6.202 8.048 13.056 13.056 0 0 0 10.038 1.274c7.03-1.938 11.183-9.273 9.258-16.353a13.208 13.208 0 0 0-6.202-8.048 13.08 13.08 0 0 0-6.525-1.753h-.002zM85.236 9.516a.294.294 0 0 1-.273-.391l.77-2.127a.29.29 0 0 1 .37-.174c.151.056.229.223.175.374l-.77 2.127a.29.29 0 0 1-.272.193v-.002zM83.443 14.472a.294.294 0 0 1-.273-.391l.77-2.127a.288.288 0 0 1 .37-.174c.151.055.228.223.175.374l-.77 2.127a.29.29 0 0 1-.272.192v-.001zM83.319 10.416a.292.292 0 0 1-.1-.017l-2.113-.775a.292.292 0 0 1 .199-.548l2.113.775a.292.292 0 0 1-.1.566v-.001zM88.243 12.219a.295.295 0 0 1-.099-.018l-2.114-.774a.294.294 0 0 1-.174-.374.289.289 0 0 1 .372-.174l2.114.774c.15.056.227.223.174.374a.29.29 0 0 1-.273.193v-.002zM29.073 41.133a3.3 3.3 0 0 1-1.2-.228 3.38 3.38 0 0 1-1.88-1.834c-.746-1.738.027-3.777 1.723-4.544a3.272 3.272 0 0 1 2.557-.067 3.38 3.38 0 0 1 1.881 1.835c.746 1.738-.027 3.777-1.724 4.543a3.291 3.291 0 0 1-1.357.295zm-1.121-6.074c-1.408.637-2.048 2.333-1.428 3.78a2.802 2.802 0 0 0 1.559 1.522 2.698 2.698 0 0 0 2.11-.055c1.407-.636 2.047-2.332 1.427-3.78a2.801 2.801 0 0 0-1.559-1.522 2.698 2.698 0 0 0-2.11.055zM66.487 18.369c-.405 0-.811-.076-1.2-.228a3.38 3.38 0 0 1-1.88-1.834c-.745-1.739.027-3.777 1.723-4.544a3.272 3.272 0 0 1 2.557-.067 3.38 3.38 0 0 1 1.881 1.835c.745 1.738-.028 3.777-1.724 4.543a3.292 3.292 0 0 1-1.357.295zm-.001-6.317c-.38 0-.76.081-1.12.243-1.407.636-2.047 2.333-1.427 3.78a2.798 2.798 0 0 0 1.559 1.522 2.699 2.699 0 0 0 2.11-.055c1.408-.636 2.048-2.332 1.427-3.78a2.797 2.797 0 0 0-1.558-1.522 2.726 2.726 0 0 0-.991-.188zM47.825 27.965a.288.288 0 0 1-.2-.08.294.294 0 0 1-.01-.413l1.067-1.12a.29.29 0 0 1 .41-.01c.115.113.119.297.009.413l-1.067 1.12a.29.29 0 0 1-.21.09zM44.09 31.888a.294.294 0 0 1-.21-.494l1.068-1.12a.288.288 0 0 1 .41-.01c.115.112.119.297.009.413l-1.067 1.12a.292.292 0 0 1-.21.09v.001zM45.138 28.024a.285.285 0 0 1-.203-.084l-1.084-1.073a.293.293 0 0 1-.002-.412.29.29 0 0 1 .41-.004l1.083 1.073a.293.293 0 0 1-.204.5zM48.93 31.78a.284.284 0 0 1-.203-.084l-1.084-1.073a.293.293 0 0 1-.003-.413.29.29 0 0 1 .41-.004l1.084 1.074a.293.293 0 0 1-.205.499v.001z"
            fill="#000" />
        <path
            d="m204.637 225.206-5.432.398-100.729-.398c-4.575 0-7.815-3.714-7.238-8.294l26.14-207.435c.578-4.58 4.754-8.294 9.329-8.294L227.538 0c11.574 0 13.145 4.896 12.568 9.477l-26.141 207.435c-.577 4.58-4.753 8.294-9.328 8.294z"
            fill="#CFCFD0" />
        <path
            d="M198.249 225.605H92.089c-4.576 0-7.816-3.732-7.239-8.335L110.991 8.807c.577-4.604 4.753-8.335 9.328-8.335h106.16c4.575 0 7.816 3.732 7.239 8.335l-26.141 208.462c-.577 4.604-4.753 8.335-9.328 8.335v.001z"
            fill="#fff" />
        <path
            d="M199.302 219.772H92.57a1.951 1.951 0 0 1-1.494-.657c-.375-.428-.54-.994-.465-1.595l24.96-199.048c.151-1.202 1.246-2.179 2.441-2.179h106.732c.591 0 1.123.233 1.494.657.375.428.54.994.465 1.596l-24.959 199.048c-.15 1.202-1.246 2.179-2.441 2.179l-.001-.001zM90.9 217.556l.288.037c-.053.431.06.836.325 1.136.259.296.636.46 1.058.46h106.732c.914 0 1.75-.748 1.867-1.669l24.957-199.048c.054-.431-.061-.836-.324-1.136a1.382 1.382 0 0 0-1.059-.46H118.013c-.913 0-1.75.748-1.866 1.669l-24.96 199.048-.288-.037h.001zM172.07 11.365c-.908 0-1.722-.357-2.289-1.005-.573-.654-.826-1.523-.71-2.446.234-1.863 1.93-3.378 3.782-3.378.908 0 1.721.357 2.289 1.004.573.655.826 1.524.709 2.446-.234 1.862-1.93 3.378-3.782 3.378l.001.001zm.783-6.245c-1.571 0-3.009 1.287-3.207 2.867-.094.755.108 1.46.57 1.988.455.52 1.115.807 1.854.807 1.569 0 3.009-1.287 3.207-2.867.094-.755-.108-1.46-.57-1.987-.455-.52-1.115-.808-1.854-.808z"
            fill="#000" />
        <path
            d="M217.412 139.132c-.011 0-.025 0-.036-.003a.29.29 0 0 1-.252-.326L233.43 8.768c.269-2.155-.312-4.175-1.637-5.688-1.31-1.496-3.198-2.319-5.314-2.319h-106.16c-4.426 0-8.482 3.624-9.04 8.08l-2.545 20.287a.288.288 0 0 1-.324.253.292.292 0 0 1-.252-.327l2.545-20.287c.594-4.737 4.907-8.59 9.616-8.59h106.16c2.285 0 4.326.893 5.748 2.516 1.437 1.64 2.069 3.824 1.777 6.147l-16.305 130.035a.29.29 0 0 1-.288.256l.001.001zM92.09 225.896c-2.286 0-4.328-.894-5.75-2.517-1.439-1.641-2.07-3.823-1.778-6.146l9.338-74.469a.29.29 0 1 1 .576.074l-9.338 74.469c-.27 2.154.311 4.175 1.637 5.688 1.31 1.496 3.197 2.319 5.314 2.319l107.177-.3h.001a.29.29 0 0 1 .003.583l-107.179.3-.001-.001z"
            fill="#000" />
        <path
            d="M107.399 178.394a.293.293 0 0 1-.23-.113.295.295 0 0 1 .052-.41l22.333-17.294a.29.29 0 0 1 .407.053.295.295 0 0 1-.053.409l-22.332 17.295a.291.291 0 0 1-.177.06zM133.306 158.333a.293.293 0 0 1-.231-.113.296.296 0 0 1 .053-.41l9.463-7.327a.29.29 0 0 1 .407.053.295.295 0 0 1-.052.409l-9.464 7.328a.29.29 0 0 1-.176.06zM102.76 193.569a.291.291 0 0 1-.178-.523l10.864-8.412a.289.289 0 0 1 .407.052.295.295 0 0 1-.053.41l-10.863 8.413a.293.293 0 0 1-.177.06zM118.73 181.201a.294.294 0 0 1-.23-.114.294.294 0 0 1 .052-.409l19.397-15.021a.29.29 0 0 1 .407.052.296.296 0 0 1-.052.41l-19.397 15.021a.286.286 0 0 1-.177.061zM125.09 192.402a.293.293 0 0 1-.231-.113.294.294 0 0 1 .053-.409l16.139-12.498a.29.29 0 0 1 .407.053.294.294 0 0 1-.053.409l-16.139 12.498a.284.284 0 0 1-.176.06z"
            fill="#000" />
        <path
            d="m162.166 79.629.248.025-.248-.025c-.362 3.628-3.645 6.582-7.311 6.571l-83.15-.22c-3.647-.01-6.313-2.948-5.953-6.558l4.978-49.92c.362-3.628 3.645-6.582 7.311-6.572l83.149.22c3.648.01 6.314 2.949 5.954 6.559l-4.978 49.92z"
            fill="#fff" stroke="#000" stroke-width=".5" />
        <path
            d="m98.284 124.324-51.41-.137a.264.264 0 0 1 .002-.53l51.41.137a.264.264 0 0 1-.002.53zM90.417 34.948H84.7c-.442 0-.842-.175-1.129-.494a1.6 1.6 0 0 1-.39-1.242c.092-.938.907-1.7 1.818-1.7h5.718c.441 0 .842.175 1.128.494a1.6 1.6 0 0 1 .39 1.241c-.091.938-.907 1.7-1.818 1.7zm-5.42-3.072c-.73 0-1.385.616-1.458 1.373-.036.367.07.708.298.962.217.241.524.375.861.375h5.718c.73 0 1.386-.616 1.46-1.373a1.242 1.242 0 0 0-.3-.962 1.142 1.142 0 0 0-.86-.374h-5.718zM107.093 73.502H79.169c-.441 0-.842-.175-1.128-.493a1.6 1.6 0 0 1-.39-1.242c.091-.938.907-1.7 1.818-1.7h27.924c.441 0 .841.175 1.128.493.297.33.436.772.39 1.242-.092.938-.907 1.7-1.818 1.7zm-27.626-3.07c-.73 0-1.386.614-1.46 1.371-.034.368.072.709.3.963.217.241.523.374.86.374h27.925c.73 0 1.386-.615 1.459-1.372a1.246 1.246 0 0 0-.298-.963 1.145 1.145 0 0 0-.862-.374H79.467zM110.495 79.857H78.048c-.44 0-.841-.175-1.128-.494a1.6 1.6 0 0 1-.39-1.242c.092-.938.907-1.7 1.818-1.7h32.446c.441 0 .842.175 1.128.494.299.33.437.771.392 1.242-.092.937-.907 1.7-1.818 1.7h-.001zm-32.148-3.071c-.73 0-1.386.615-1.46 1.372-.035.367.071.709.3.963.216.24.523.374.86.374h32.446c.73 0 1.386-.615 1.459-1.373a1.238 1.238 0 0 0-.298-.962 1.141 1.141 0 0 0-.861-.374H78.347zM123.804 34.948H99.351c-.441 0-.842-.175-1.128-.494a1.6 1.6 0 0 1-.39-1.242c.091-.938.907-1.7 1.817-1.7h24.454c.441 0 .841.175 1.128.494.297.33.436.771.39 1.241-.092.938-.907 1.7-1.818 1.7zM99.65 31.876c-.73 0-1.386.616-1.459 1.373-.035.367.07.708.299.962.217.241.523.375.86.375h24.454c.731 0 1.386-.616 1.459-1.373a1.238 1.238 0 0 0-.298-.962 1.141 1.141 0 0 0-.861-.374H99.65z"
            fill="#000" />
        <path
            d="m164.617 56.954-96.898.42a.76.76 0 0 1-.755-.844l.871-7.926c.03-.279.266-.49.545-.488l97.187.523a.564.564 0 0 1 .555.634l-.878 7.12a.636.636 0 0 1-.627.56z"
            fill="#E42F35" />
        <path
            d="M140.953 86.822h-8.276c-.303 0-.524-.287-.494-.641l5.444-63.291c.03-.354.301-.642.605-.642h8.275c.303 0 .525.288.495.642l-5.445 63.29c-.03.355-.301.642-.604.642z"
            fill="#E42F35" />
        <path
            d="M144.663 55.078c3.067 7.266 4.921 12.944 5.343 15.175a1.19 1.19 0 0 1-.794 1.323 8.325 8.325 0 0 1-2.478.406l-4.136-16.334 2.063-.572.002.002z"
            fill="#000" />
        <path
            d="M146.736 72.163a.178.178 0 0 1-.174-.137l-4.137-16.334a.18.18 0 0 1 .127-.22l2.064-.571a.179.179 0 0 1 .213.104c3.081 7.3 4.935 13.003 5.355 15.212a1.364 1.364 0 0 1-.916 1.53 8.514 8.514 0 0 1-2.53.414h-.001l-.001.002zm-3.919-16.386 4.059 16.022a8.194 8.194 0 0 0 2.282-.394c.46-.148.761-.65.673-1.117-.414-2.177-2.238-7.787-5.272-14.992l-1.742.482v-.001z"
            fill="#000" />
        <path
            d="M143.887 55.22c1.744 11.041 3.518 16.666 4.953 16.476-5.958 1.27-13.77.96-22.223-.028-.787-.092-1.306-.81-1.181-1.634.702-4.623 2.959-9.333 6.192-14.1l12.259-.714z"
            fill="#fff" />
        <path
            d="M139.521 72.72c-3.688 0-7.952-.29-12.925-.871a1.505 1.505 0 0 1-1.037-.588 1.65 1.65 0 0 1-.302-1.253c.657-4.334 2.692-8.971 6.222-14.176a.181.181 0 0 1 .138-.079l12.258-.714a.181.181 0 0 1 .188.153c2.435 15.408 4.258 16.393 4.752 16.325a.178.178 0 0 1 .202.149.18.18 0 0 1-.14.208c-2.645.563-5.722.847-9.358.847h.002zm-7.794-16.61c-3.467 5.128-5.466 9.693-6.113 13.952-.055.362.028.71.232.98.19.25.471.409.792.447 9.463 1.106 16.343 1.156 21.561.153-1.773-1.468-3.377-9.377-4.465-16.23l-12.007.7v-.002z"
            fill="#000" />
        <path
            d="M140.145 61.115h-.001c-.1 0-.18-.083-.178-.183l.047-4.762c0-.1.081-.179.18-.179h.002a.18.18 0 0 1 .178.183l-.047 4.762c0 .1-.082.18-.181.18zM133.991 60.782a.183.183 0 0 1-.171-.238l1.446-4.429a.182.182 0 0 1 .228-.116.183.183 0 0 1 .115.23l-1.446 4.428a.181.181 0 0 1-.172.126zM144.977 50.006c4.109-7.416 6.79-13.185 7.545-15.44.187-.56-.063-1.141-.575-1.297a7.248 7.248 0 0 0-2.359-.305l-6.543 16.552 1.931.489.001.001z"
            fill="#000" />
        <path
            d="M144.977 50.188a.183.183 0 0 1-.045-.006l-1.93-.488a.182.182 0 0 1-.123-.244l6.542-16.552a.183.183 0 0 1 .163-.115 7.427 7.427 0 0 1 2.417.314c.273.082.498.272.632.534.152.295.173.657.06.993-.747 2.232-3.431 8.026-7.558 15.472a.18.18 0 0 1-.157.093l-.001-.001zm-1.687-.797 1.597.404c4.078-7.367 6.725-13.083 7.463-15.288a.926.926 0 0 0-.039-.711.695.695 0 0 0-.416-.353 7.013 7.013 0 0 0-2.184-.3l-6.422 16.25.001-.002z"
            fill="#000" />
        <path
            d="M144.241 49.894c3.394-11.147 5.989-16.862 7.363-16.73-5.63-1.032-13.315-.402-21.729.933-.782.124-1.4.865-1.404 1.687-.022 4.608 1.466 9.242 3.896 13.893l11.874.217z"
            fill="#fff" />
        <path
            d="M144.241 50.076h-.004l-11.874-.218a.175.175 0 0 1-.155-.097c-2.657-5.08-3.938-9.653-3.917-13.978.004-.909.688-1.728 1.556-1.866 9.83-1.56 16.753-1.856 21.789-.931a.18.18 0 0 1 .146.203.176.176 0 0 1-.196.155c-.474-.049-2.425 1.01-7.173 16.603a.18.18 0 0 1-.173.127l.001.002zm-11.764-.578 11.631.213c2.113-6.926 4.896-14.95 6.843-16.474-4.942-.783-11.659-.45-21.049 1.04-.699.11-1.249.774-1.253 1.508-.019 4.237 1.232 8.723 3.827 13.713h.001z"
            fill="#000" />
        <path
            d="M140.776 49.27h-.026a.182.182 0 0 1-.153-.206l.681-4.775a.18.18 0 1 1 .358.051l-.682 4.775a.18.18 0 0 1-.178.156zM136.127 49.464a.182.182 0 0 1-.178-.151l-.737-4.384a.182.182 0 0 1 .148-.21.18.18 0 0 1 .208.15l.737 4.383a.182.182 0 0 1-.178.212z"
            fill="#000" />
        <path
            d="M133.281 49.363h10.993c.674 0 1.166.564 1.099 1.26l-.408 4.195c-.068.695-.669 1.259-1.344 1.259h-10.993c-.674 0-1.166-.564-1.1-1.259l.409-4.196c.068-.695.668-1.259 1.344-1.259z"
            fill="#fff" />
        <path
            d="M143.621 56.259h-10.993a1.26 1.26 0 0 1-.95-.416 1.344 1.344 0 0 1-.329-1.043l.408-4.196c.076-.785.761-1.424 1.524-1.424h10.993c.37 0 .708.148.95.415.25.278.367.648.329 1.043l-.409 4.196c-.076.785-.759 1.423-1.523 1.423v.002zm-10.34-6.714c-.583 0-1.106.491-1.165 1.096l-.408 4.195a.978.978 0 0 0 .237.764c.172.191.414.297.681.297h10.994c.583 0 1.106-.492 1.164-1.096l.409-4.196a.978.978 0 0 0-.237-.764.907.907 0 0 0-.682-.296h-10.993z"
            fill="#000" />
        <path
            d="M237.885 94.84c5.307.015 9.199 4.302 8.674 9.559l-6.964 69.827c-.525 5.256-5.269 9.522-10.576 9.507l-116.306-.308c-5.307-.015-9.199-4.303-8.674-9.558l6.963-69.827c.525-5.256 5.269-9.522 10.576-9.507l116.307.308z"
            fill="#fff" stroke="#000" stroke-miterlimit="10" stroke-width=".5" />
        <path
            d="M138.887 111.691h-7.999a2.095 2.095 0 0 1-1.578-.69c-.416-.462-.61-1.079-.546-1.737.127-1.311 1.269-2.377 2.543-2.377h7.998c.616 0 1.178.245 1.578.69.416.462.61 1.078.546 1.737-.127 1.31-1.268 2.377-2.543 2.377h.001zm-7.58-4.297c-1.022 0-1.938.861-2.04 1.919-.05.513.098.991.417 1.345.305.339.733.525 1.206.525h7.999c1.022 0 1.938-.862 2.04-1.919.05-.514-.098-.992-.417-1.346a1.596 1.596 0 0 0-1.206-.524h-7.999zM162.214 165.622h-39.06a2.091 2.091 0 0 1-1.578-.69c-.417-.462-.61-1.079-.546-1.737.127-1.31 1.268-2.377 2.543-2.377h39.06c.616 0 1.178.245 1.578.69.416.462.61 1.079.546 1.737-.127 1.31-1.268 2.377-2.543 2.377zm-38.641-4.297c-1.022 0-1.939.861-2.041 1.919-.049.513.099.991.418 1.346.305.338.733.524 1.205.524h39.06c1.023 0 1.939-.862 2.041-1.919.049-.514-.098-.992-.418-1.346a1.599 1.599 0 0 0-1.205-.524h-39.06zM166.971 174.51h-45.384a2.093 2.093 0 0 1-1.578-.69c-.416-.462-.61-1.078-.546-1.737.127-1.31 1.268-2.377 2.543-2.377h45.384c.617 0 1.178.245 1.578.69.417.462.612 1.079.548 1.737-.127 1.311-1.269 2.377-2.543 2.377h-.002zm-44.966-4.297c-1.022 0-1.938.861-2.04 1.919-.05.513.098.992.417 1.346.305.338.733.524 1.205.524h45.384c1.022 0 1.939-.861 2.041-1.919.049-.513-.098-.992-.419-1.346a1.6 1.6 0 0 0-1.205-.523h-45.384l.001-.001zM185.589 111.691h-34.203a2.095 2.095 0 0 1-1.579-.69c-.416-.462-.609-1.079-.545-1.737.127-1.311 1.268-2.377 2.543-2.377h34.204c.617 0 1.178.245 1.579.69.416.462.61 1.078.545 1.737-.126 1.31-1.268 2.377-2.542 2.377h-.002zm-33.786-4.297c-1.022 0-1.938.861-2.04 1.919-.05.513.098.991.417 1.345.305.339.733.525 1.206.525h34.203c1.022 0 1.939-.862 2.041-1.919.049-.514-.099-.992-.418-1.346a1.592 1.592 0 0 0-1.205-.524h-34.205.001z"
            fill="#000" />
        <path d="m16.154 219.356-3.843 12.72-5.617-1.627 4.086-13.37 5.374 2.277z" fill="#fff" />
        <path
            d="M12.311 232.369a.275.275 0 0 1-.08-.012l-5.617-1.629a.289.289 0 0 1-.175-.142.299.299 0 0 1-.022-.225l4.084-13.37a.29.29 0 0 1 .39-.183l5.375 2.277a.292.292 0 0 1 .165.354l-3.842 12.72a.29.29 0 0 1-.278.207v.003zm-5.253-2.119 5.06 1.467 3.684-12.194-4.839-2.05L7.06 230.25h-.001z"
            fill="#000" />
        <path
            d="m12.83 230.159-5.602-1.787a1.022 1.022 0 0 0-1.098.32c-.88 1.057-2.788 3.575-3.5 6.315a1.456 1.456 0 0 0 .965 1.752l7.961 2.541c1.749.558 3.553.923 5.38 1.09 0 0 5.883.624 5.952-1.26.1-2.708-3.864-3.248-4.396-3.796a116.374 116.374 0 0 0-4.95-4.766 1.937 1.937 0 0 0-.709-.408l-.002-.001z"
            fill="#fff" />
        <path
            d="M19.005 240.786a21.26 21.26 0 0 1-2.1-.107 25.529 25.529 0 0 1-5.437-1.102l-7.96-2.541a1.746 1.746 0 0 1-1.158-2.106c.737-2.827 2.734-5.436 3.559-6.428a1.308 1.308 0 0 1 1.408-.41l5.603 1.787c.305.097.58.255.815.47.817.74 2.936 2.689 4.964 4.778.094.097.514.258.883.399 1.375.524 3.675 1.404 3.595 3.611-.011.329-.154.615-.424.85-.74.647-2.383.797-3.746.797l-.002.002zm-12.09-12.172a.729.729 0 0 0-.562.265c-.8.96-2.736 3.487-3.442 6.202a1.164 1.164 0 0 0 .772 1.401l7.96 2.54c1.727.551 3.516.914 5.32 1.077 1.188.127 4.469.273 5.411-.549.148-.129.219-.266.225-.43.066-1.79-1.912-2.545-3.22-3.045-.528-.202-.91-.348-1.094-.536a115.417 115.417 0 0 0-4.937-4.753 1.613 1.613 0 0 0-.602-.346l-5.603-1.787a.735.735 0 0 0-.225-.036l-.003-.003z"
            fill="#000" />
        <path
            d="M12.583 235.745a.288.288 0 0 1-.226-.109.294.294 0 0 1 .045-.41l3.298-2.66a.291.291 0 0 1 .363.455l-3.298 2.66a.289.289 0 0 1-.18.064h-.002zM14.341 237.721a.294.294 0 0 1-.182-.52l3.298-2.661a.29.29 0 0 1 .407.045c.1.127.08.31-.044.411l-3.298 2.66a.284.284 0 0 1-.18.065z"
            fill="#000" />
        <path d="m47.962 222.544-.268 9.079-6.351-.003.445-9.479 6.174.403z" fill="#fff" />
        <path
            d="m47.694 231.916-6.351-.003a.287.287 0 0 1-.21-.091.29.29 0 0 1-.08-.214l.445-9.48a.29.29 0 0 1 .31-.278l6.174.403a.292.292 0 0 1 .27.301l-.268 9.079a.291.291 0 0 1-.289.283h-.001zm-6.048-.586 5.767.002.25-8.514-5.6-.366-.417 8.878z"
            fill="#000" />
        <path
            d="m47.445 231.486-5.897-.003a1.03 1.03 0 0 0-.954.647c-.523 1.292-1.59 4.31-1.447 7.175.039.782.679 1.396 1.45 1.396l17.304.006c.795 0 1.4-.737 1.242-1.53-.191-.948-.848-2.197-2.746-3.319-3.072-1.817-6.931-3.633-8.148-4.195a1.894 1.894 0 0 0-.804-.177z"
            fill="#fff" />
        <path
            d="m57.9 241-17.303-.007c-.93 0-1.694-.735-1.74-1.672-.146-2.957.978-6.09 1.469-7.299a1.316 1.316 0 0 1 1.222-.828l5.897.002c.32 0 .631.069.924.205 1.132.522 5.068 2.371 8.175 4.21 2.041 1.207 2.694 2.576 2.881 3.512.093.462-.024.939-.322 1.304a1.543 1.543 0 0 1-1.202.575V241zm-16.353-9.224a.739.739 0 0 0-.686.466c-.476 1.174-1.568 4.21-1.426 7.05.031.627.54 1.118 1.16 1.118l17.304.006a.969.969 0 0 0 .754-.36.991.991 0 0 0 .203-.82c-.236-1.174-1.137-2.254-2.608-3.125-3.084-1.824-6.997-3.662-8.123-4.182a1.61 1.61 0 0 0-.682-.15l-5.897-.003z"
            fill="#000" />
        <path
            d="M48.801 236.968a.294.294 0 0 1-.242-.453l2.354-3.584a.29.29 0 1 1 .485.322l-2.355 3.583a.29.29 0 0 1-.242.13v.002zM51.077 238.334a.286.286 0 0 1-.16-.048.295.295 0 0 1-.082-.405l2.354-3.583a.29.29 0 1 1 .484.321l-2.354 3.584a.291.291 0 0 1-.242.13v.001z"
            fill="#000" />
        <path
            d="M36.403 145.429v.002-.002zm-14.807.255 14.83.006c.009.278.003.794-.047 1.719-.14 2.599-.62 8.307-1.975 20.734-1.35 12.375-6.175 26.891-10.672 38.332a293.104 293.104 0 0 1-6.012 14.168 237.853 237.853 0 0 1-2.451 5.212l-.099.2c-.631.068-1.382-.016-2.18-.199-.874-.2-1.777-.511-2.596-.841a28.865 28.865 0 0 1-2.672-1.245c1.179-5.855 3.64-19.742 5.89-33.152 2.284-13.613 4.355-26.772 4.638-30.528.279-3.699 1.137-7.36 1.929-10.101.395-1.37.773-2.507 1.052-3.301.139-.397.254-.709.333-.92l.032-.084z"
            fill="#E6E7E8" stroke="#000" stroke-width=".75" />
        <path
            d="m48.365 226.822-.058.383c-.606.199-1.366.286-2.196.293-.918.007-1.895-.084-2.793-.209a31.239 31.239 0 0 1-2.954-.564c.131-4.928-1.158-16.323-3.042-27.694-.963-5.813-2.085-11.633-3.256-16.598-1.17-4.955-2.396-9.088-3.576-11.509-2.29-4.696-3.211-10.386-3.556-14.924a65.881 65.881 0 0 1-.186-5.637 52.09 52.09 0 0 1 .053-1.882l19.282-.176c5.253 13.03 5.826 32.705 5.064 49.217a314.44 314.44 0 0 1-1.724 21.175 277.676 277.676 0 0 1-.809 6.391c-.104.754-.19 1.338-.249 1.734z"
            fill="#E6E7E8" stroke="#000" stroke-width=".75" />
        <path
            d="m26.914 115.289-2.761-3.083c-1.191-3.059-4.509-5.709-7.294-7.422-11.553-7.107-9.93-20.597-9.999-26.06l-4.397.686s-10.823 28.332 15.825 41.872l8.626-5.993z"
            fill="#fff" />
        <path
            d="M18.288 121.575a.292.292 0 0 1-.13-.032C4.27 114.485.667 103.37.092 95.288c-.623-8.739 2.072-15.912 2.1-15.983a.294.294 0 0 1 .226-.185l4.397-.686a.289.289 0 0 1 .334.284c.007.584-.004 1.241-.019 2.001-.107 6.133-.309 17.548 9.877 23.814 2.183 1.344 6.036 4.1 7.393 7.515l2.726 3.043a.293.293 0 0 1-.05.436l-8.625 5.994a.292.292 0 0 1-.165.051l.001.003zM2.676 79.672C2.29 80.762.105 87.366.673 95.27c.566 7.895 4.084 18.742 17.592 25.676l8.212-5.706-2.54-2.836a.292.292 0 0 1-.055-.089c-1.278-3.279-5.044-5.969-7.176-7.28C6.236 98.594 6.442 86.96 6.552 80.711c.01-.612.02-1.156.02-1.646l-3.897.607h.001z"
            fill="#000" />
        <path
            d="M4.003 79.953a3.745 3.745 0 0 1-.764-.343c-1.255-.73-2.874-3.064-2.222-4.587.933-2.18 5.911-1.722 6.842.214 1.128 2.344-1.336 5.505-3.856 4.714v.002z"
            fill="#fff" />
        <path
            d="M4.8 80.366c-.297 0-.594-.045-.883-.134a4.075 4.075 0 0 1-.823-.367C1.687 79.047.047 76.55.75 74.91c.42-.98 1.612-1.585 3.19-1.621 1.626-.028 3.581.578 4.18 1.823.59 1.224.323 2.774-.681 3.947-.724.845-1.683 1.307-2.64 1.307zm-.71-.692c1.195.375 2.287-.27 2.91-.997.852-.996 1.088-2.297.598-3.313-.427-.887-1.99-1.532-3.646-1.493-1.344.03-2.342.505-2.67 1.268-.557 1.301.894 3.517 2.102 4.219.235.136.473.242.706.316z"
            fill="#000" />
        <path
            d="M70.82 105.771c12.047 7.918 5.233 32.821-13.4 24.123l-1.229-12.618c16.104 6.989 14.998-2.598 10.819-12.927l3.81 1.422z"
            fill="#fff" />
        <path
            d="M64.76 132.01c-2.323 0-4.819-.617-7.461-1.851a.29.29 0 0 1-.166-.236l-1.23-12.618a.294.294 0 0 1 .118-.264.284.284 0 0 1 .286-.032c6.08 2.639 10.082 3.071 11.895 1.284 1.962-1.934 1.47-6.589-1.46-13.833a.294.294 0 0 1 .06-.313.287.287 0 0 1 .308-.07l3.811 1.422c.02.008.04.017.058.029 6.72 4.416 7.59 13.994 4.185 20.169-1.586 2.876-3.936 4.873-6.797 5.772-1.15.361-2.354.541-3.609.541h.002zm-7.066-2.311c7.301 3.348 13.635 1.752 16.964-4.285 3.273-5.937 2.456-15.133-3.968-19.379l-3.166-1.181c2.848 7.232 3.202 11.769 1.085 13.857-1.978 1.95-5.931 1.631-12.08-.972l1.165 11.961v-.001z"
            fill="#000" />
        <path
            d="M68.176 105.94a4.15 4.15 0 0 1-.838-.374c-1.375-.799-3.149-3.358-2.435-5.024 1.022-2.388 6.475-1.887 7.496.233 1.237 2.568-1.463 6.032-4.225 5.165h.002z"
            fill="#fff" />
        <path
            d="M69.047 106.365a3.21 3.21 0 0 1-.958-.146 4.39 4.39 0 0 1-.895-.4c-1.532-.892-3.32-3.609-2.556-5.393.456-1.064 1.752-1.721 3.47-1.76 1.764-.048 3.902.629 4.554 1.981.641 1.333.35 3.019-.742 4.295-.788.92-1.831 1.423-2.871 1.423h-.002zm-.78-7.116h-.148c-1.484.034-2.586.56-2.95 1.407-.615 1.439.983 3.883 2.314 4.657.26.15.521.267.779.349 1.322.416 2.53-.296 3.218-1.101.941-1.1 1.2-2.536.66-3.66-.461-.954-2.109-1.654-3.871-1.654l-.002.002z"
            fill="#000" />
        <path
            d="M59.03 117.584a1.178 1.178 0 0 0-.433-.86c-.936-.765-4.323-2.468-7.236-4.145-3.217-1.853-6.067-3.015-9.774-2.969l-12.544-.685c-3.498-.015-5.508-.675-8.415-2.407-3.396-2.024-5.547-4.883-6.403-5.826a.331.331 0 0 0-.542.074l-7.315 14.082s5.655 5.195 13.112 10.969c.237.184.551 5.927.519 6.226l-2.336 21.421c-.194 1.488 32.918 3.883 32.823 2.331-.31-5.001-2.051-9.158-1.317-24.899a.92.92 0 0 1 1.09-.869c1.59.311 4.786.923 8.016 1.475.74.126 1.407-.47 1.37-1.225l-.616-12.691.001-.002z"
            fill="#E42F35" />
        <path
            d="M46.016 156.272c-8.631 0-26.712-1.498-28.469-2.68-.237-.159-.267-.337-.251-.458l2.336-21.415c.034-.457-.275-5.383-.458-6.004-7.358-5.698-13.023-10.892-13.08-10.943a.293.293 0 0 1-.061-.351l7.314-14.082a.621.621 0 0 1 1.013-.135c.129.141.284.324.469.54 1.053 1.234 3.014 3.53 5.868 5.23 3.018 1.799 4.951 2.353 8.269 2.367l12.558.685c3.802-.061 6.708 1.167 9.902 3.006 1.07.615 2.18 1.224 3.256 1.811 1.829.998 3.407 1.861 4.02 2.363.321.263.519.654.539 1.072l.616 12.691c.022.449-.157.879-.492 1.176a1.448 1.448 0 0 1-1.217.35 364.658 364.658 0 0 1-8.023-1.477.616.616 0 0 0-.504.122.64.64 0 0 0-.24.473c-.534 11.436.25 16.792.823 20.704.22 1.498.408 2.792.493 4.163.007.098-.02.284-.26.424-.441.255-2.085.364-4.42.364l-.001.004zm-28.135-3.154c.683.497 6.438 1.374 16.057 2.064 9.595.689 15.406.639 16.172.242-.087-1.311-.27-2.569-.483-4.019-.576-3.935-1.365-9.324-.829-20.816.017-.355.185-.684.462-.904a1.19 1.19 0 0 1 .973-.237c1.602.313 4.773.92 8.01 1.473a.873.873 0 0 0 .733-.212c.202-.18.31-.44.297-.711l-.616-12.691a.89.89 0 0 0-.326-.648c-.57-.466-2.127-1.317-3.93-2.302a165.533 165.533 0 0 1-3.268-1.818c-3.053-1.758-5.833-2.931-9.419-2.931l-.207.001-12.563-.685c-3.383-.014-5.463-.609-8.548-2.448-2.935-1.75-4.936-4.093-6.012-5.352-.18-.211-.332-.39-.458-.528-.004-.004-.013-.014-.035-.013a.044.044 0 0 0-.036.025l-7.21 13.882c.986.895 6.267 5.646 12.928 10.801.441.341.635 6.435.63 6.49l-2.327 21.336.005.001zm-.008.078v.008-.008z"
            fill="#000" />
        <path
            d="m32.203 100.051-1.019 10.124a2.137 2.137 0 0 0 2.031 2.388l3.003.117a2.134 2.134 0 0 0 2.21-2.158l-.073-9.669-6.154-.804.002.002z"
            fill="#fff" />
        <path
            d="M36.304 112.975c-.033 0-.064 0-.097-.003l-3.002-.117a2.42 2.42 0 0 1-1.743-.849 2.454 2.454 0 0 1-.566-1.865l1.017-10.121a.29.29 0 0 1 .326-.26l6.154.804a.29.29 0 0 1 .252.287l.074 9.669c.005.672-.255 1.3-.735 1.768a2.387 2.387 0 0 1-1.68.687zm-3.842-12.595-.988 9.827a1.84 1.84 0 0 0 .429 1.422c.336.397.807.626 1.326.645l3.002.118c.508.021.987-.165 1.352-.521a1.84 1.84 0 0 0 .559-1.343l-.071-9.415-5.607-.732-.002-.001z"
            fill="#000" />
        <path
            d="M37.044 87.586c-2.412.328-2.742 3.068-5.624 3.388-1.32.148-1.984-.346-3.154.219-.775.374-1.903 1.276-2.018 2.469-.148 1.52 1.509 1.849 3.2 4.775 1.187 2.056 1.259 3.431 2.204 3.581.955.15 1.383-1.177 2.44-1.092 1.365.111 1.543 2.408 2.986 3.092.91.432 2.812.343 5.502-1.681a1.14 1.14 0 0 0 .334-1.413c-.31-.629-.706-1.42-1.149-2.144-2.105-3.453-3.592-4.035-3.299-5.094.45-1.622 3.408-1.32 3.636-2.625.237-1.355-2.58-3.813-5.057-3.475h-.001z"
            fill="#000" />
        <path
            d="M33.727 94.187s2.119 4.482 2.932 5.601c.814 1.12 4.45-1.152 4.45-1.152l.09-.807.434-.285a.538.538 0 0 0 .085-.83c-.877-.875-2.738-2.861-3.642-4.794 0 0-2.459-.63-4.349 2.269v-.002z"
            fill="#fff" />
        <path
            d="M37.43 100.388c-.424 0-.783-.12-1.005-.427-.821-1.129-2.873-5.464-2.96-5.647a.293.293 0 0 1 .019-.286c1.981-3.037 4.554-2.42 4.663-2.391a.289.289 0 0 1 .19.158c.899 1.921 2.807 3.935 3.584 4.712a.83.83 0 0 1-.13 1.281l-.32.21-.075.67a.292.292 0 0 1-.134.216c-.491.306-2.494 1.502-3.834 1.502l.002.002zm-3.37-6.175c.375.786 2.128 4.432 2.833 5.404.434.597 2.563-.315 3.944-1.155l.074-.665a.291.291 0 0 1 .13-.212l.434-.284a.244.244 0 0 0 .038-.378c-.971-.97-2.713-2.855-3.636-4.744-.493-.074-2.306-.171-3.819 2.035l.002-.001z"
            fill="#000" />
        <path
            d="M34.493 97.83s-1.673-2.06-2.444-1.097c-.77.964 1.127 3.186 2.444 1.097zM40.758 70.797c4.76-4.79 4.76-12.555 0-17.344a12.134 12.134 0 0 0-17.236 0c-4.76 4.79-4.76 12.555 0 17.344a12.134 12.134 0 0 0 17.236 0z"
            fill="#fff" />
        <path
            d="M32.14 74.68c-6.88 0-12.479-5.632-12.479-12.556 0-6.925 5.597-12.557 12.479-12.557 6.881 0 12.478 5.632 12.478 12.557 0 6.924-5.597 12.557-12.478 12.557zm0-24.528c-6.56 0-11.898 5.37-11.898 11.972 0 6.602 5.337 11.972 11.898 11.972 6.56 0 11.897-5.37 11.897-11.972 0-6.602-5.337-11.972-11.897-11.972z"
            fill="#000" />
        <path
            d="M32.208 68.294a.387.387 0 0 1-.395.01c-1.075-.605-6.057-3.626-5.862-7.577.205-4.176 4.71-3.452 5.822-1.397a.228.228 0 0 0 .412-.023c.546-1.32 2.308-2.276 3.967-1.649 1.98.748 3.99 5.688-3.943 10.636h-.001z"
            fill="#E42F35" />
        <path
            d="M217.832 170.057c4.084 0 7.639-3.321 7.941-7.418.301-4.096-2.765-7.417-6.85-7.417-4.084 0-7.639 3.321-7.94 7.417-.302 4.097 2.765 7.418 6.849 7.418z"
            fill="#fff" />
        <path
            d="M229.979 162.639c.228-3.087-.777-6.047-2.792-8.23-2.016-2.183-4.877-3.409-7.955-3.409-3.077 0-6.119 1.226-8.455 3.409-2.337 2.183-3.777 5.143-4.005 8.23a11.554 11.554 0 0 0-.001 1.695c.213 2.908 1.527 5.547 3.678 7.386 2.151 1.839 4.981 2.742 7.92 2.527 2.938-.214 5.769-1.53 7.923-3.684 2.154-2.153 3.471-4.984 3.687-7.924zm-19.516 1.695a8 8 0 0 1-.054-1.696 8.49 8.49 0 0 1 .282-1.618 8.827 8.827 0 0 1 3.465-4.812c1.68-1.164 3.686-1.694 5.632-1.488 1.945.206 3.692 1.133 4.904 2.603 1.211 1.469 1.801 3.377 1.656 5.354-.146 1.978-1.017 3.885-2.444 5.355-1.428 1.469-3.312 2.396-5.288 2.602-1.976.206-3.904-.324-5.413-1.487-1.508-1.164-2.49-2.878-2.756-4.813h.016z"
            fill="#ED2027" />
        <path
            d="M226.42 162.636c.117-1.596-.24-3.157-1.026-4.484a7.246 7.246 0 0 0-3.393-2.972c-1.425-.611-3.032-.771-4.616-.459a8.777 8.777 0 0 0-4.282 2.209 8.87 8.87 0 0 0-2.506 4.133c-.425 1.566-.385 3.189.116 4.664a7.275 7.275 0 0 0 2.698 3.622 7.562 7.562 0 0 0 4.371 1.358c2.134 0 4.242-.851 5.862-2.364 1.62-1.514 2.618-3.566 2.776-5.707zm-13.582 0c.139-1.451.838-2.833 1.947-3.849 1.11-1.015 2.542-1.584 3.99-1.584 1.448 0 2.796.569 3.756 1.584.96 1.016 1.456 2.398 1.381 3.849"
            fill="#1ECAD3" />
        <path
            d="M218.057 166.377c2.035 0 3.806-1.655 3.957-3.696.15-2.042-1.378-3.697-3.413-3.697s-3.807 1.655-3.957 3.697c-.15 2.041 1.378 3.696 3.413 3.696z"
            fill="#ED2027" />
        <circle cx="129" cy="135" fill="#1B1B1B" r="2" />
        <circle cx="134" cy="135" fill="#1B1B1B" r="2" />
        <circle cx="139" cy="135" fill="#1B1B1B" r="2" />
        <circle cx="144" cy="135" fill="#1B1B1B" r="2" />
        <circle cx="156" cy="135" fill="#1B1B1B" r="2" />
        <circle cx="161" cy="135" fill="#1B1B1B" r="2" />
        <circle cx="166" cy="135" fill="#1B1B1B" r="2" />
        <circle cx="171" cy="135" fill="#1B1B1B" r="2" />
        <circle cx="183" cy="135" fill="#1B1B1B" r="2" />
        <circle cx="188" cy="135" fill="#1B1B1B" r="2" />
        <circle cx="193" cy="135" fill="#1B1B1B" r="2" />
        <circle cx="198" cy="135" fill="#1B1B1B" r="2" />
        <circle cx="210" cy="135" fill="#1B1B1B" r="2" />
        <circle cx="215" cy="135" fill="#1B1B1B" r="2" />
        <circle cx="220" cy="135" fill="#1B1B1B" r="2" />
        <circle cx="225" cy="135" fill="#1B1B1B" r="2" />
    </g>
    <defs>
        <clipPath id="im90f1pzja">
            <path d="M0 0h247v241H0z" fill="#ff0000" />
        </clipPath>
    </defs>
</svg>
