<svg fill="none" height="243" viewBox="0 0 248 243" width="248" xmlns="http://www.w3.org/2000/svg">
    <path
        d="M241.007 168.518 94.945 148.159a7.356 7.356 0 0 1-6.415-7.302L86.527 38.745s3.33-2.405 5.216-3.327a5.66 5.66 0 0 1 3.217-.527l145.626 18.614a7.355 7.355 0 0 1 6.415 7.302V161.1a5.704 5.704 0 0 1-2.084 4.42c-1.166.961-3.91 3-3.91 3v-.002z"
        fill="#CFCFD0" />
    <path
        d="M236.548 169.875 90.922 151.26a7.354 7.354 0 0 1-6.415-7.301V43.665c0-3.446 3.018-6.11 6.43-5.674l145.626 18.614a7.355 7.355 0 0 1 6.415 7.302V164.2c0 3.446-3.019 6.111-6.43 5.675z"
        fill="#fff" />
    <path
        d="M237.27 170.219c-.252 0-.506-.015-.759-.048L90.885 151.557c-3.806-.486-6.676-3.753-6.676-7.598V43.665c0-1.728.743-3.375 2.037-4.516a5.988 5.988 0 0 1 4.729-1.454L236.6 56.31c3.805.486 6.675 3.753 6.675 7.598v100.294a6.027 6.027 0 0 1-2.036 4.517 5.996 5.996 0 0 1-3.97 1.501v-.001zm-.683-.64a5.399 5.399 0 0 0 4.259-1.308 5.433 5.433 0 0 0 1.835-4.071V63.907c0-3.545-2.647-6.558-6.156-7.007L90.898 38.286a5.405 5.405 0 0 0-4.26 1.31 5.43 5.43 0 0 0-1.834 4.068v100.293c0 3.546 2.647 6.558 6.155 7.007l145.627 18.614.001.001z"
        fill="#000" />
    <path
        d="M233.454 165.741 94.402 147.967a5.348 5.348 0 0 1-4.665-5.311V45.914a3.816 3.816 0 0 1 4.294-3.79l139.051 17.774a5.35 5.35 0 0 1 4.666 5.31v96.742a3.817 3.817 0 0 1-4.294 3.791z"
        fill="#fff" />
    <path
        d="M233.935 166.069c-.172 0-.346-.01-.52-.033L94.364 148.262c-2.808-.358-4.926-2.768-4.926-5.606V45.914c0-1.182.509-2.31 1.394-3.09a4.105 4.105 0 0 1 3.236-.995L233.12 59.602c2.807.359 4.925 2.77 4.925 5.606v96.742a4.109 4.109 0 0 1-4.11 4.119h-.001zM93.548 42.393c-.85 0-1.678.309-2.324.879a3.523 3.523 0 0 0-1.191 2.644v96.742a5.06 5.06 0 0 0 4.405 5.014l139.052 17.773c1 .128 2.01-.182 2.766-.85a3.524 3.524 0 0 0 1.192-2.643V65.208a5.061 5.061 0 0 0-4.406-5.014L93.993 42.421a3.429 3.429 0 0 0-.444-.029z"
        fill="#000" />
    <path
        d="M151.59 228.941 1.818 209.581C.646 209.43-.015 208.447 0 207.463c.01-.678.066-5.456.066-5.456l79.19-45.375c3.969-2.271 9.102-3.149 13.635-2.566l147.88 19.119a2.532 2.532 0 0 1 2.006 1.522l.238.559s-.127 3.985-.076 4.916a2.041 2.041 0 0 1-1.047 1.915l-77.203 44.243a20.988 20.988 0 0 1-13.099 2.603v-.002z"
        fill="#CFCFD0" />
    <path
        d="M20.24 206.616 2.354 204.3c-1.982-.254-2.503-2.888-.769-3.881l76.79-43.958a20.985 20.985 0 0 1 13.1-2.603L240.71 173.18c1.981.254 2.502 2.887.768 3.88l-76.79 43.958a20.99 20.99 0 0 1-13.099 2.604L20.24 206.616z"
        fill="#fff" />
    <path
        d="M154.228 224.089c-.893 0-1.787-.057-2.676-.17L2.316 204.595a2.349 2.349 0 0 1-2.03-1.901 2.355 2.355 0 0 1 1.154-2.534l76.79-43.958a21.42 21.42 0 0 1 13.284-2.641l149.237 19.322a2.352 2.352 0 0 1 2.031 1.901 2.354 2.354 0 0 1-1.154 2.534l-76.79 43.958a21.419 21.419 0 0 1-10.608 2.812l-.002.001zm-133.951-17.77 131.35 17.007c4.44.57 9.027-.342 12.914-2.567l76.79-43.958c.822-.47.986-1.289.865-1.901-.121-.61-.585-1.305-1.524-1.425L91.435 154.153c-4.44-.57-9.024.342-12.912 2.566l-76.789 43.96c-.822.47-.985 1.289-.864 1.901.12.609.584 1.305 1.523 1.425l17.885 2.316-.001-.002z"
        fill="#000" />
    <path
        d="M183.191 199.672c-.808 0-1.616-.052-2.42-.154L51.364 182.641a2.15 2.15 0 0 1-1.859-1.74 2.152 2.152 0 0 1 1.056-2.319l30.43-17.242a19.37 19.37 0 0 1 12.013-2.388l129.408 16.877a2.15 2.15 0 0 1 1.858 1.74 2.151 2.151 0 0 1-1.056 2.318l-30.428 17.243a19.385 19.385 0 0 1-9.594 2.542h-.001zm-2.344-.746a18.768 18.768 0 0 0 11.644-2.315l30.429-17.242c.728-.417.873-1.144.767-1.684-.107-.542-.519-1.158-1.351-1.265L92.928 159.542a18.77 18.77 0 0 0-11.645 2.315L50.855 179.1c-.728.416-.874 1.143-.767 1.684.107.541.518 1.158 1.35 1.265l129.409 16.877z"
        fill="#000" />
    <path
        d="m227.659 158.85-67.397-10.794-62.032-4.792a2.645 2.645 0 0 1-2.438-2.64V20.666c0-.39.354-.694.754-.646l65.038 4.527 65.313 11.014a3.068 3.068 0 0 1 2.555 3.028v118.728a1.55 1.55 0 0 1-1.793 1.533z"
        fill="#fff" />
    <path
        d="M227.904 159.168c-.096 0-.194-.007-.292-.023l-67.396-10.794-62.008-4.789a2.957 2.957 0 0 1-2.713-2.937V20.666c0-.267.116-.524.318-.703a.985.985 0 0 1 .77-.24l65.023 4.524 65.342 11.019a3.358 3.358 0 0 1 2.804 3.322v118.727a1.844 1.844 0 0 1-1.846 1.851l-.002.002zm-.198-.612a1.252 1.252 0 0 0 1.449-1.239V38.589c0-1.359-.97-2.51-2.308-2.734l-65.313-11.014-65.01-4.523a.4.4 0 0 0-.318.091.34.34 0 0 0-.117.257v119.958c0 1.22.951 2.249 2.165 2.342l62.032 4.792 67.42 10.798z"
        fill="#000" />
    <path
        d="M224.873 154.616a.27.27 0 0 1-.049-.004l-60.344-10.081a.297.297 0 0 1-.248-.295l.61-102.331a.296.296 0 0 1 .342-.293l59.531 8.808a.298.298 0 0 1 .253.294l.204 103.604a.301.301 0 0 1-.299.3v-.002zm-60.045-10.631 59.747 9.98-.202-102.994-58.939-8.72-.606 101.732v.002zM224.722 47.659c-.015 0-.03 0-.045-.004l-59.14-9.208a.298.298 0 0 1-.253-.295v-8.465a.3.3 0 0 1 .344-.296l59.141 9.208a.3.3 0 0 1 .252.296v8.465a.3.3 0 0 1-.297.3h-.002zm-58.843-9.761 58.546 9.115V39.15l-58.546-9.115v7.862zM157.418 143.466h-.021l-57.906-4.072a.298.298 0 0 1-.276-.297L99.01 36.461a.3.3 0 0 1 .32-.297l58.516 4.53a.295.295 0 0 1 .274.298l-.406 102.178a.297.297 0 0 1-.297.296zm-57.609-4.649 57.313 4.031.404-101.582-57.919-4.485.202 102.036zM157.671 37.93h-.021l-58.462-4.125a.297.297 0 0 1-.277-.298v-8.553a.3.3 0 0 1 .32-.296l58.462 4.124c.156.01.277.14.277.298v8.553a.298.298 0 0 1-.299.297zm-58.166-4.7 57.869 4.081v-7.955l-57.869-4.082v7.956zM160.669 146.521h-.003a.296.296 0 0 1-.294-.3l1.016-118.928a.298.298 0 0 1 .297-.295h.003a.297.297 0 0 1 .295.3l-1.015 118.928a.297.297 0 0 1-.298.295h-.001z"
        fill="#000" />
    <path
        d="M150.633 52.297h-.019L127.862 50.8a.298.298 0 0 1 .039-.596l22.751 1.497a.298.298 0 0 1-.019.596zM123.498 50.51h-.019l-16.927-1.114a.298.298 0 0 1 .039-.595l16.926 1.114a.298.298 0 0 1-.019.596zM150.376 58.714h-.02l-8.784-.578a.3.3 0 0 1-.278-.317.302.302 0 0 1 .317-.279l8.784.578a.3.3 0 0 1 .278.317.3.3 0 0 1-.297.279zM136.943 57.83h-.02l-30.628-2.016a.3.3 0 0 1-.278-.318.301.301 0 0 1 .317-.278l30.628 2.015a.298.298 0 0 1-.019.596zM150.892 65.466h-.02l-33.33-2.193a.3.3 0 0 1-.278-.317.302.302 0 0 1 .317-.279l33.33 2.194a.3.3 0 0 1 .278.317.3.3 0 0 1-.297.278zM113.933 63.033h-.019l-7.104-.467a.3.3 0 0 1-.278-.318.302.302 0 0 1 .316-.278l7.104.467a.298.298 0 0 1-.019.596zM150.633 71.882h-.019l-44.062-2.9a.298.298 0 0 1 .039-.596l44.061 2.9a.298.298 0 0 1-.019.596zM150.633 78.317h-.019l-6.332-.416a.3.3 0 0 1 .038-.596l6.332.416a.298.298 0 0 1-.019.596zM139.764 77.601h-.019l-33.194-2.184a.3.3 0 0 1-.278-.317.302.302 0 0 1 .317-.279l33.194 2.185a.3.3 0 0 1 .278.317.3.3 0 0 1-.298.278zM150.376 84.733h-.02l-18.213-1.2a.3.3 0 0 1-.278-.317.305.305 0 0 1 .317-.278l18.213 1.199a.3.3 0 0 1 .278.317.3.3 0 0 1-.297.279zM129.306 83.346h-.019l-22.993-1.514a.3.3 0 0 1-.278-.317.302.302 0 0 1 .316-.278l22.993 1.514a.298.298 0 0 1-.019.595zM150.891 91.486h-.019l-44.061-2.9a.3.3 0 0 1-.278-.318.305.305 0 0 1 .317-.279l44.061 2.9a.3.3 0 0 1 .278.318.3.3 0 0 1-.298.279zM150.633 97.903h-.019l-30.869-2.033a.3.3 0 0 1-.278-.317.304.304 0 0 1 .316-.278l30.869 2.032a.298.298 0 0 1-.019.596zM117.03 95.69h-.019L106.552 95a.298.298 0 0 1 .039-.595l10.458.689a.298.298 0 0 1-.019.596zM150.376 104.338h-.02l-11.633-.766a.3.3 0 0 1-.278-.317.305.305 0 0 1 .317-.279l11.633.766a.298.298 0 0 1-.019.596zM135.388 103.35h-.019l-29.075-1.914a.3.3 0 0 1-.278-.317.3.3 0 0 1 .317-.279l29.075 1.914a.3.3 0 0 1 .278.317.3.3 0 0 1-.298.279zM150.117 110.754h-.019l-31.649-2.084a.3.3 0 0 1-.278-.318.301.301 0 0 1 .317-.278l31.648 2.084a.299.299 0 0 1-.019.596zM116.264 108.525h-.019l-10.208-.672a.298.298 0 0 1-.278-.317.304.304 0 0 1 .316-.279l10.209.672a.3.3 0 0 1 .278.318.3.3 0 0 1-.298.278zM150.633 117.506h-.019l-44.393-2.862a.297.297 0 0 1-.278-.317.293.293 0 0 1 .316-.278l44.393 2.861a.299.299 0 0 1-.019.596zM150.376 123.922h-.021l-44.131-2.97a.298.298 0 0 1 .04-.595l44.131 2.97a.3.3 0 0 1 .277.318.3.3 0 0 1-.298.278l.002-.001zM150.633 130.078h-.021l-44.767-2.979a.298.298 0 0 1 .04-.595l44.767 2.979a.299.299 0 0 1-.02.596l.001-.001zM214.796 119.218h-.019l-11.594-1.224a.3.3 0 0 1-.265-.328.304.304 0 0 1 .327-.266l11.594 1.224a.298.298 0 0 1-.043.594zM199.86 117.641l-.02-.001-28.977-3.058a.3.3 0 0 1 .062-.594l28.977 3.058a.3.3 0 0 1 .266.328.3.3 0 0 1-.308.267zM214.285 125.619l-.019-.001-31.542-3.33a.298.298 0 0 1 .062-.593l31.542 3.329a.3.3 0 0 1-.043.595zM180.547 122.058l-.02-.001-10.174-1.074a.298.298 0 0 1-.265-.328.302.302 0 0 1 .327-.265l10.174 1.073a.3.3 0 0 1-.042.595zM214.534 132.386h-.019l-44.246-4.61a.297.297 0 0 1-.265-.327.294.294 0 0 1 .327-.266l44.246 4.609a.298.298 0 0 1-.043.594zM214.024 138.787h-.02l-43.979-4.708a.297.297 0 0 1 .063-.592l43.979 4.707a.298.298 0 0 1-.044.595l.001-.002zM171.237 106.579h.019l6.307.697a.3.3 0 0 1 .264.329.298.298 0 0 1-.329.264l-6.307-.696a.298.298 0 0 1 .046-.594zM182.063 107.775h.02l33.064 3.652a.3.3 0 0 1 .264.329.3.3 0 0 1-.329.264l-33.064-3.651a.298.298 0 0 1 .045-.594zM171.779 100.18l.019.001 18.142 2.004a.3.3 0 0 1 .264.329.305.305 0 0 1-.329.265l-18.142-2.004a.298.298 0 0 1 .046-.595zM192.768 102.498l.019.001 22.903 2.53a.3.3 0 0 1 .264.329.302.302 0 0 1-.329.264l-22.903-2.53a.298.298 0 0 1 .046-.594zM171.563 93.412h.019l43.889 4.848a.3.3 0 0 1 .264.33.304.304 0 0 1-.328.263l-43.89-4.847a.3.3 0 0 1-.264-.33.3.3 0 0 1 .31-.264zM172.104 87.012h.019l30.749 3.397a.298.298 0 0 1 .263.33.304.304 0 0 1-.328.264l-30.749-3.397a.299.299 0 0 1 .046-.594zM205.578 90.71l.019.001 10.417 1.151a.3.3 0 0 1 .264.33.301.301 0 0 1-.328.264l-10.418-1.151a.3.3 0 0 1-.264-.33.3.3 0 0 1 .31-.265zM172.602 79.439h.019l11.581 1.338a.3.3 0 0 1 .262.33.304.304 0 0 1-.33.264l-11.581-1.338a.298.298 0 0 1 .049-.594zM187.522 81.163h.019l28.946 3.344a.3.3 0 0 1 .262.33.3.3 0 0 1-.33.263l-28.946-3.343a.3.3 0 0 1-.262-.33.3.3 0 0 1 .311-.264zM173.176 73.043l.019.001 31.507 3.64a.299.299 0 0 1-.067.593l-31.508-3.64a.298.298 0 0 1 .049-.594zM206.878 76.936h.019l10.163 1.174a.3.3 0 0 1 .262.33.304.304 0 0 1-.33.264l-10.163-1.174a.298.298 0 0 1 .049-.594zM50.124 236c-.305 0-.61-.063-.898-.19a2.24 2.24 0 0 1-1.195-1.243 2.253 2.253 0 0 1 2.994-2.894c.55.242.975.683 1.195 1.244a2.24 2.24 0 0 1-.032 1.725c-.24.552-.68.978-1.24 1.198a2.224 2.224 0 0 1-.824.157V236zm-1.517-2.92c-.365.839.02 1.819.857 2.185.405.177.855.184 1.267.023.412-.162.736-.476.913-.882.177-.406.185-.858.023-1.27a1.649 1.649 0 0 0-.88-.915 1.658 1.658 0 0 0-2.18.859zM225.788 29.242a.3.3 0 0 1-.156-.044l-.969-.596a.299.299 0 0 1 .312-.508l.968.596a.298.298 0 0 1-.155.552zM229.177 31.326a.3.3 0 0 1-.156-.044l-.969-.596a.297.297 0 0 1-.097-.41.296.296 0 0 1 .409-.098l.969.596a.297.297 0 0 1-.156.552zM225.675 32.178a.303.303 0 0 1-.154-.042.3.3 0 0 1-.1-.41l.588-.974a.299.299 0 0 1 .51.31l-.588.973a.299.299 0 0 1-.255.144h-.001zM227.733 28.769a.3.3 0 0 1-.253-.453l.588-.975a.297.297 0 0 1 .409-.1.3.3 0 0 1 .1.41l-.588.974a.296.296 0 0 1-.254.145l-.002-.001zM41.926 227.798a.298.298 0 0 1-.297-.292l-.037-1.573a.299.299 0 1 1 .596-.014l.037 1.573a.299.299 0 0 1-.29.306H41.925zM42.058 233.305a.298.298 0 0 1-.297-.292l-.038-1.573a.299.299 0 1 1 .596-.014l.037 1.573a.299.299 0 0 1-.29.306h-.008zM38.442 229.87a.299.299 0 0 1-.009-.596l1.569-.047a.293.293 0 0 1 .306.288.297.297 0 0 1-.288.307l-1.569.048h-.009zM43.935 229.707a.299.299 0 0 1-.009-.596l1.569-.048c.158 0 .3.124.306.289a.298.298 0 0 1-.288.307l-1.569.048h-.009zM177.49 233.551a.297.297 0 0 1-.077-.585c19.45-5.239 36.526-16.129 48.08-30.665a.297.297 0 1 1 .466.372c-11.633 14.634-28.819 25.597-48.392 30.869a.298.298 0 0 1-.077.011v-.002z"
        fill="#000" />
    <path
        d="M187.673 224.789a.299.299 0 0 1-.112-.575c13.501-5.448 25.207-13.898 33.853-24.431a.3.3 0 0 1 .42-.042.301.301 0 0 1 .041.421c-8.709 10.611-20.498 19.12-34.091 24.606a.306.306 0 0 1-.11.021h-.001zM224.819 23.271a.29.29 0 0 1-.208-.086c-7.288-7.21-15.958-13.175-25.771-17.73a.3.3 0 0 1-.146-.396.297.297 0 0 1 .395-.145c9.875 4.584 18.603 10.589 25.938 17.847a.298.298 0 0 1-.209.51h.001zM215.605 21.66a.295.295 0 0 1-.198-.074c-9.385-8.361-20.705-14.561-33.647-18.432a.297.297 0 0 1-.199-.371.296.296 0 0 1 .37-.2c13.025 3.895 24.422 10.14 33.872 18.558a.297.297 0 0 1-.198.52zM12.57 85.68c-.047 0-.093 0-.14-.004a1.926 1.926 0 0 1-1.33-.666 1.934 1.934 0 0 1-.47-1.413 1.94 1.94 0 1 1 3.873.274 1.934 1.934 0 0 1-.664 1.333c-.356.31-.802.476-1.268.476h-.001zm-.004-3.294a1.349 1.349 0 1 0 .882 2.369c.272-.236.435-.564.461-.924.026-.36-.09-.708-.325-.98a1.334 1.334 0 0 0-.923-.461c-.032-.003-.064-.003-.097-.003l.002-.001zM14.21 78.653a.299.299 0 0 1-.284-.388c5.835-18.697 14.656-30.673 21.03-37.427 6.918-7.329 12.54-10.274 12.597-10.304a.298.298 0 0 1 .271.53c-.055.028-5.607 2.94-12.458 10.207-6.323 6.706-15.078 18.6-20.873 37.172a.297.297 0 0 1-.284.21h.001zM15.036 61.444a.299.299 0 0 1-.269-.426c7.457-15.767 16.521-25.447 22.812-30.79 6.828-5.8 11.974-7.897 12.025-7.918a.298.298 0 0 1 .221.555c-.05.02-5.126 2.093-11.886 7.84-6.24 5.305-15.232 14.915-22.635 30.571a.298.298 0 0 1-.27.17l.002-.002zM51.972 30.663a.3.3 0 0 1-.25-.135l-2.257-3.49a.297.297 0 0 1 .215-.458c1.89-.221 4.81-.73 4.84-.736a.299.299 0 0 1 .304.45l-2.599 4.229a.297.297 0 0 1-.25.142h-.003v-.002zm-1.749-3.55 1.742 2.694 2.007-3.265c-.87.145-2.452.405-3.749.572v-.001z"
        fill="#000" />
    <path
        d="m109.276.313 2.291 4.65c.236.483.696.817 1.227.894l5.121.746a.563.563 0 0 1 .312.96l-3.706 3.62c-.385.375-.56.915-.468 1.445l.875 5.11a.562.562 0 0 1-.815.594l-4.579-2.413a1.627 1.627 0 0 0-1.517 0l-4.58 2.413a.562.562 0 0 1-.814-.593l.875-5.111a1.64 1.64 0 0 0-.468-1.446l-3.706-3.62a.563.563 0 0 1 .311-.96l5.121-.745a1.63 1.63 0 0 0 1.228-.893l2.29-4.65a.562.562 0 0 1 1.008 0h-.006z"
        fill="#E42F35" />
    <path
        d="M114.572 7.756c-.014 0-.028 0-.042-.003l-2.828-.412a.298.298 0 0 1-.252-.338.295.295 0 0 1 .337-.253l2.828.413a.298.298 0 0 1-.043.593zM103.058 7.744a.298.298 0 0 1-.043-.593l3.068-.446a.778.778 0 0 0 .584-.426l1.436-2.916a.297.297 0 1 1 .534.265l-1.436 2.915a1.376 1.376 0 0 1-1.032.752l-3.067.446a.24.24 0 0 1-.043.003h-.001z"
        fill="#fff" />
    <path
        d="m69.99 37.887 2.29 4.65c.237.482.697.816 1.228.894l5.121.745c.46.067.645.635.311.96l-3.705 3.62c-.385.375-.56.915-.469 1.445l.875 5.11a.562.562 0 0 1-.814.594l-4.58-2.413a1.627 1.627 0 0 0-1.516 0l-4.58 2.413a.562.562 0 0 1-.814-.593l.875-5.11c.09-.53-.085-1.071-.469-1.447l-3.705-3.62a.563.563 0 0 1 .311-.959l5.121-.745a1.63 1.63 0 0 0 1.228-.894l2.29-4.65a.562.562 0 0 1 1.007 0h-.005z"
        fill="#E42F35" />
    <path
        d="M75.286 45.33c-.014 0-.028 0-.042-.003l-2.828-.413a.3.3 0 0 1-.253-.338.294.294 0 0 1 .338-.253l2.828.413a.298.298 0 0 1-.042.593zM63.77 45.317a.299.299 0 0 1-.042-.593l3.067-.446a.779.779 0 0 0 .585-.426l1.436-2.916a.297.297 0 1 1 .534.265l-1.436 2.916c-.2.406-.586.687-1.032.752l-3.068.446c-.014.002-.028.002-.042.002h-.002z"
        fill="#fff" />
    <path
        d="m81.734 11.398 1.581 3.212c.163.333.481.564.848.618l3.537.514a.389.389 0 0 1 .215.663l-2.56 2.501c-.264.26-.385.633-.324.998l.605 3.531a.388.388 0 0 1-.562.41l-3.164-1.667a1.123 1.123 0 0 0-1.047 0l-3.164 1.667a.388.388 0 0 1-.563-.41l.605-3.53a1.125 1.125 0 0 0-.324-.999l-2.56-2.5a.389.389 0 0 1 .216-.663l3.537-.515c.366-.053.683-.284.848-.618l1.58-3.212a.388.388 0 0 1 .697 0h-.001z"
        fill="#E42F35" />
    <path
        d="M85.392 16.631c-.014 0-.028 0-.043-.002l-1.954-.285a.299.299 0 0 1 .085-.591l1.954.285a.299.299 0 0 1-.042.593zM77.438 16.622a.299.299 0 0 1-.043-.593l2.12-.308a.446.446 0 0 0 .334-.244l.992-2.013a.297.297 0 1 1 .534.264l-.992 2.015a1.04 1.04 0 0 1-.783.57l-2.119.308a.232.232 0 0 1-.042.003l-.001-.002zM32.617 222.527l.734 7.039 4.721.558v-8.346l-5.455.749z"
        fill="#fff" />
    <path
        d="M38.072 230.439c-.012 0-.024 0-.037-.003l-4.723-.558a.314.314 0 0 1-.276-.281l-.734-7.039a.316.316 0 0 1 .27-.346l5.457-.748a.314.314 0 0 1 .359.312v8.346a.317.317 0 0 1-.316.317zm-4.435-1.157 4.12.486v-7.629l-4.794.659.674 6.482v.002z"
        fill="#000" />
    <path
        d="M38.818 242.375c-1.97.28-5.198.525-8.988-.004a2.124 2.124 0 0 1-1.763-2.611c.834-3.417 2.272-9.899 4.74-12.904l.613 1.629.846-1.533a.748.748 0 0 1 .56-.382l1.855-.236a.751.751 0 0 1 .828.593l.295 1.413 1.131-1.853.502 6.921c.107 1.484.33 2.956.665 4.403l.505 2.183a2.121 2.121 0 0 1-1.79 2.383v-.002z"
        fill="#fff" />
    <path
        d="M34.352 243c-1.382 0-2.923-.086-4.566-.316a2.433 2.433 0 0 1-1.674-1.044 2.457 2.457 0 0 1-.353-1.955l.18-.741c.85-3.528 2.278-9.434 4.622-12.29a.316.316 0 0 1 .539.09l.373.988.516-.935c.164-.297.462-.501.796-.544l1.855-.236a1.074 1.074 0 0 1 1.176.842l.132.632.715-1.172a.315.315 0 0 1 .585.142l.501 6.922c.106 1.462.328 2.926.658 4.355l.506 2.183c.179 1.353-.745 2.581-2.052 2.766-1.16.165-2.701.311-4.51.311l.002.002zm-1.64-15.5c-2.057 2.888-3.362 8.296-4.159 11.594l-.179.741a1.82 1.82 0 0 0 .26 1.45c.286.422.738.703 1.239.774 3.721.519 6.894.289 8.9.004.967-.136 1.65-1.047 1.52-2.028l-.5-2.154a28.953 28.953 0 0 1-.672-4.451l-.43-5.939-.619 1.013a.313.313 0 0 1-.322.146.314.314 0 0 1-.255-.246l-.295-1.413a.432.432 0 0 0-.479-.345l-1.854.237a.437.437 0 0 0-.325.223l-.847 1.533a.315.315 0 0 1-.572-.042l-.413-1.096.002-.001z"
        fill="#000" />
    <path
        d="M34.499 240.91c-1.172 0-2.567-.122-4.135-.482a.314.314 0 0 1-.236-.379.313.313 0 0 1 .378-.237c4.593 1.055 7.707-.033 7.738-.044a.316.316 0 0 1 .215.594c-.089.033-1.553.548-3.959.548H34.5zM32.219 235.501a.316.316 0 0 1-.01-.631l4.426-.147c.176-.021.32.13.326.305a.315.315 0 0 1-.306.326l-4.426.147h-.012.002z"
        fill="#000" />
    <path d="m54.738 218.778.708 10.273h5.683l.265-10.273h-6.656z" fill="#fff" />
    <path
        d="M61.129 229.366h-5.683a.316.316 0 0 1-.315-.294l-.708-10.271a.312.312 0 0 1 .084-.236.313.313 0 0 1 .23-.101h6.656a.317.317 0 0 1 .317.323l-.264 10.271a.316.316 0 0 1-.316.308h-.001zm-5.388-.631h5.081l.248-9.639h-5.992l.664 9.639h-.001z"
        fill="#000" />
    <path
        d="M53.961 234.849a2.065 2.065 0 0 0 1.584 2.045c3.267.766 10.627 2.472 12.726 2.788 2.724.409 6.073-.432 7.513-2.039 1.44-1.605-3.224-5.441-5.437-6.835-3.287-2.073-6.447-6.168-7.77-6.353-1.325-.184-3.798 3.688-3.798 3.688l-4.041-1.71s-.705 3.49-.777 8.417v-.001z"
        fill="#fff" />
    <path
        d="M69.695 240.101c-.497 0-.99-.035-1.47-.106-2.125-.319-9.625-2.059-12.752-2.792a2.393 2.393 0 0 1-1.827-2.357c.073-4.9.777-8.44.784-8.475a.315.315 0 0 1 .433-.228l3.797 1.608c.655-.991 2.634-3.79 3.96-3.606.766.106 1.844 1.137 3.335 2.563 1.383 1.321 2.95 2.819 4.561 3.836 1.783 1.123 5.555 4.1 5.838 6.127.065.467-.047.866-.334 1.186-1.223 1.366-3.813 2.247-6.323 2.247l-.002-.003zm-15.418-5.246a1.759 1.759 0 0 0 1.34 1.733c3.117.731 10.598 2.467 12.701 2.783 2.716.407 5.893-.444 7.231-1.937.16-.176.216-.399.178-.677-.218-1.562-3.363-4.302-5.549-5.679-1.666-1.052-3.257-2.572-4.661-3.914-1.245-1.19-2.422-2.315-2.985-2.394-.775-.103-2.506 2.009-3.488 3.545a.314.314 0 0 1-.388.12l-3.679-1.556c-.179 1.031-.643 4.062-.7 7.977v-.001z"
        fill="#000" />
    <path
        d="M69.655 237.582c-4.952 0-11.35-2.267-13.683-3.163a.317.317 0 0 1-.182-.409.317.317 0 0 1 .408-.182c2.207.847 13.43 4.936 17.637 2.176a.316.316 0 1 1 .347.528c-1.15.756-2.746 1.048-4.525 1.048l-.002.002zM63.342 231.994a.315.315 0 0 1-.22-.54l2.353-2.308a.315.315 0 1 1 .442.45l-2.355 2.308a.314.314 0 0 1-.22.09z"
        fill="#000" />
    <path
        d="M31.005 151.819s-1.761 32.11-2.682 43.194c-.922 11.084 2.155 28.902 2.155 28.902l8.772-.464s.602-21.664 1.253-27.68c0 0 3.706-8.155 4.803-15.43 1.098-7.274 4.84-18.763 4.84-18.763s3.037 57.344 3.33 61.85c0 0 6.878.308 9.344-1.256 0 0 4.37-20.909 3.743-32.286-.628-11.377.061-39.64.061-39.64l-35.62 1.573h.001z"
        fill="#E6E7E8" />
    <path
        d="M30.478 224.231a.317.317 0 0 1-.311-.263c-.032-.177-3.073-17.984-2.158-28.982.91-10.954 2.664-42.864 2.682-43.185a.316.316 0 0 1 .301-.299l35.621-1.573a.295.295 0 0 1 .235.09.313.313 0 0 1 .095.234c-.008.282-.683 28.383-.062 39.616.622 11.287-3.704 32.159-3.749 32.368a.314.314 0 0 1-.14.202c-2.522 1.598-9.243 1.316-9.528 1.304a.316.316 0 0 1-.3-.295c-.262-4.011-2.728-50.479-3.24-60.114-1.067 3.447-3.469 11.523-4.304 17.055-1.049 6.947-4.504 14.785-4.808 15.465-.64 6.003-1.24 27.389-1.245 27.605a.315.315 0 0 1-.3.307l-8.772.465h-.017zm.826-72.109c-.177 3.219-1.802 32.511-2.668 42.917-.845 10.168 1.724 26.244 2.105 28.545l8.201-.435c.075-2.605.642-21.834 1.247-27.413a.382.382 0 0 1 .026-.097c.037-.082 3.7-8.201 4.779-15.347 1.089-7.215 4.813-18.698 4.85-18.813a.315.315 0 0 1 .615.082c.03.564 2.935 55.393 3.313 61.56 1.287.034 6.61.099 8.767-1.148.371-1.813 4.3-21.338 3.709-32.069-.585-10.587-.022-36.089.053-39.328l-34.998 1.546h.002z"
        fill="#000" />
    <path
        d="M38.888 196.085h-2.681a.315.315 0 0 1 0-.631h2.68a.315.315 0 1 1 0 .631zM57.988 212.762h-.006a.316.316 0 0 1-.31-.321c.098-5.312 5.877-14.826 6.124-15.229a.316.316 0 0 1 .539.33c-.06.098-5.937 9.769-6.03 14.91a.315.315 0 0 1-.316.31h-.001z"
        fill="#000" />
    <path
        d="M72.032 101.023c.486-.039 4.53 6.91 6.43 10.226a1.91 1.91 0 0 0 2.667.68l14.864-9.186a9.774 9.774 0 0 0 3.04-2.95c1.241-1.894 1.98-3.82 3.641-5.165 1.351-1.095 2.72-2.31 3.129-2.628.257-.2 1.449.65.551 2.159-.277.463-1.307 1.403-1.589 1.829-.45.68-.45 1.586.05 2.23.533.685.978 1.785.379 3.314-.885 2.264-2.893 2.823-4.029 2.955a2.307 2.307 0 0 0-1.475.778L85.974 121a6.61 6.61 0 0 1-8.443 1.306c-4.46-2.727-10.202-8.222-14.339-15.169l8.84-6.12v.006z"
        fill="#fff" />
    <path
        d="M80.98 123.602a6.919 6.919 0 0 1-3.612-1.022c-4.066-2.486-9.995-7.805-14.445-15.277a.318.318 0 0 1 .092-.422l8.838-6.119a.308.308 0 0 1 .155-.055c.298-.02.747-.053 6.73 10.384.219.382.573.652.995.759.423.108.86.04 1.231-.189l14.865-9.187a9.525 9.525 0 0 0 2.941-2.854c.359-.547.68-1.103.988-1.641.771-1.341 1.499-2.607 2.72-3.595a99.97 99.97 0 0 0 2.17-1.822c.439-.376.786-.671.965-.81.223-.174.569-.108.878.166.475.419.794 1.3.136 2.404-.166.278-.541.676-.905 1.059-.284.298-.576.608-.692.783-.389.587-.373 1.334.035 1.86.559.72 1.087 1.933.425 3.626-.948 2.421-3.094 3.015-4.288 3.153a1.996 1.996 0 0 0-1.274.671l-13.716 15.735a6.933 6.933 0 0 1-5.233 2.39l.001.003zm-17.363-16.368c4.372 7.24 10.124 12.39 14.079 14.808a6.287 6.287 0 0 0 8.04-1.245l13.718-15.735a2.617 2.617 0 0 1 1.677-.883c1.053-.122 2.944-.643 3.773-2.757.444-1.137.332-2.15-.336-3.007-.576-.742-.602-1.785-.064-2.598.146-.22.444-.536.761-.87.323-.342.69-.73.821-.948.384-.644.311-1.087.183-1.345a.765.765 0 0 0-.332-.353c-.182.146-.495.413-.879.742-.59.505-1.397 1.195-2.184 1.831-1.129.914-1.828 2.13-2.569 3.419a31.87 31.87 0 0 1-1.007 1.672 10.143 10.143 0 0 1-3.139 3.046l-14.864 9.186c-.519.32-1.129.415-1.718.266a2.215 2.215 0 0 1-1.388-1.057c-3.77-6.578-5.62-9.439-6.155-10.003l-8.417 5.828v.003z"
        fill="#000" />
    <path
        d="m33.928 90.748-.087-.234.087.234c5.309-1.975 11.363-2.539 16.632-2.422 5.272.118 9.73.916 11.837 1.648 4.287 1.488 7.69 4.71 10.214 8.003 2.522 3.29 4.15 6.63 4.894 8.322.186.423-.084.898-.564.966l-10.177 1.436a1.245 1.245 0 0 0-1.072 1.345c.266 2.962 1.099 12.486 1.715 22.422.617 9.947 1.014 20.271.418 24.853a.67.67 0 0 1-.619.578 68.558 68.558 0 0 1-6.256.319c-2.62 0-5.339-.204-7.053-.884-1.989-.789-6.056-1.715-10.5-2.173-4.44-.458-9.302-.454-12.866.645-.568.176-1.153-.247-1.138-.796l1.129-40.183a1.25 1.25 0 0 0-1.273-1.285l-7.273.135c-.409.008-.728-.298-.725-.686.011-1.899.241-6.376 1.944-10.924 1.702-4.544 4.865-9.136 10.733-11.319z"
        fill="#E42F35" stroke="#000" stroke-width=".5" />
    <path
        d="M38.233 148.103a.316.316 0 0 1-.056-.627c15.777-2.81 20.384-13.814 20.428-13.925a.316.316 0 0 1 .586.236c-.045.114-4.766 11.437-20.904 14.31a.35.35 0 0 1-.056.004l.002.002zM67.706 128.68H47.468l6.339-22.78h20.237l-6.338 22.78z"
        fill="#fff" />
    <path
        d="M67.706 128.995H47.468a.314.314 0 0 1-.303-.4l6.34-22.78a.315.315 0 0 1 .303-.231h20.238a.318.318 0 0 1 .304.401l-6.34 22.779a.314.314 0 0 1-.304.231zm-19.822-.631h19.583l6.163-22.147H54.047l-6.163 22.147z"
        fill="#000" />
    <path
        d="m23.415 113.962 8.9-.404s.067 7.552.87 7.687c2.86.481 8.851.505 12.752.03 1.358-.165 2.433-1.212 2.688-2.566.193-1.023.742-2.224 2.136-3.089 1.347-.834.02 1.794 1.279 3.486.676.91 2.82.507 5.742-.176 2.921-.682 3.664 2.464.39 4.366-3.552 2.062-5.807 1.831-6.94 2.072-2.255.48-22.196 3.63-25.274 1.944-2.379-1.303-2.543-13.351-2.543-13.351v.001z"
        fill="#fff" />
    <path
        d="M29.824 128.123c-1.873 0-3.323-.152-4.02-.533-2.468-1.352-2.689-12.371-2.706-13.624a.314.314 0 0 1 .3-.319l8.901-.405a.295.295 0 0 1 .23.086.322.322 0 0 1 .1.227c.028 3.207.288 6.895.659 7.386 2.903.476 8.771.486 12.609.02 1.212-.148 2.183-1.076 2.416-2.311.263-1.396 1.051-2.536 2.28-3.298.22-.136.545-.301.828-.142.334.188.33.628.325 1.237-.006.725-.014 1.72.544 2.47.57.764 2.79.318 5.419-.294 1.599-.375 2.49.304 2.791 1.063.407 1.027-.1 2.679-2.172 3.884-2.85 1.656-4.857 1.861-6.184 1.996-.334.034-.623.063-.848.112-1.128.241-14.353 2.445-21.472 2.445zm-6.09-13.86c.072 3.506.61 11.806 2.373 12.772 2.95 1.613 22.76-1.487 25.057-1.977.258-.055.563-.086.916-.122 1.274-.131 3.198-.327 5.93-1.914 1.75-1.015 2.213-2.321 1.904-3.104-.26-.657-1.05-.917-2.062-.681-3.048.711-5.268 1.132-6.067.057-.685-.921-.675-2.084-.67-2.853.002-.218.005-.501-.021-.644a1.292 1.292 0 0 0-.17.09c-1.088.676-1.759 1.644-1.991 2.878-.284 1.506-1.473 2.641-2.96 2.821-3.908.475-9.91.461-12.841-.033-.26-.043-1.042-.175-1.13-7.667l-8.266.376-.002.001z"
        fill="#000" />
    <path
        d="M54.062 90.063s-2.305-1.42-2.282-2.249l-.657-4.26a.9.9 0 0 1 .596-.868l2.725-.937a.832.832 0 0 0 .548-.84l-.212-3.385 1.067-.946a.209.209 0 0 0 .023-.289l-1.687-2.058c-.551-.778-1.105-2.638-1.557-2.512 0 0-9.614-1.112-10.083 3.741a2.95 2.95 0 0 0 .55 1.978l.852 1.203c.855 1.206 1.305 2.685 1.153 4.164-.031.307-.431 2.285-.698 3.593a3.143 3.143 0 0 1-1.16 1.864c-.751.58-1.665 1.317-1.516 1.364 0 0 1.064.783 2.745 1.476 2.985 1.232 6.38.925 9.137-.76l.457-.28-.001.001z"
        fill="#fff" />
    <path
        d="M48.26 92.165c-1.333 0-2.663-.254-3.913-.77-1.696-.7-2.767-1.481-2.811-1.514a.359.359 0 0 1-.14-.217c-.038-.215-.06-.334 1.65-1.652a2.833 2.833 0 0 0 1.045-1.677c.573-2.802.68-3.434.694-3.562.139-1.353-.251-2.756-1.097-3.95l-.85-1.201a3.254 3.254 0 0 1-.607-2.192c.096-.994.552-1.826 1.354-2.476 2.677-2.166 8.39-1.622 9.028-1.554.494-.071.825.633 1.235 1.515.196.425.401.862.593 1.133l1.674 2.04c.18.22.155.538-.057.726l-.953.845.203 3.232c.032.512-.28.987-.758 1.156l-2.727.937a.583.583 0 0 0-.382.545l.653 4.236a.369.369 0 0 1 .004.058c-.01.387 1.094 1.33 2.133 1.97a.317.317 0 0 1-.002.54l-.457.278a10.58 10.58 0 0 1-5.508 1.552l-.005.002zm-6.095-2.62c.406.266 1.268.79 2.422 1.264 2.857 1.18 6.166.904 8.853-.737l.027-.017c-.762-.514-1.99-1.457-2.003-2.218L50.81 83.6c-.003-.015-.003-.029-.004-.043a1.217 1.217 0 0 1 .807-1.172l2.727-.938a.517.517 0 0 0 .335-.521l-.212-3.386a.317.317 0 0 1 .106-.256l.991-.878-1.622-1.978c-.239-.336-.455-.8-.663-1.251-.178-.383-.472-1.014-.632-1.146-.017 0-.036 0-.053-.002-.06-.007-6.037-.668-8.61 1.413-.674.547-1.043 1.215-1.123 2.046a2.633 2.633 0 0 0 .493 1.764l.851 1.202c.935 1.319 1.364 2.874 1.21 4.38-.026.247-.263 1.466-.704 3.623a3.466 3.466 0 0 1-1.277 2.05c-.725.56-1.086.868-1.265 1.034v.003z"
        fill="#000" />
    <path
        d="M52.944 64.334c-2.191-.113.579 2.148-7.536-.188-3.232-.93-1.572 2.867-2.41 2.627-3.098-.882-2.992-.856-4.498-.445-.998.273-1.634 2.14-1.435 3.53.262 1.837 2.319 4.75 4.161 7.831.955 1.596 2.643 1.74 4.686-.634.218-.252-.894-1.741-.313-2.382 1.507-1.669 2.176.852 3.394.073 1.168-.747 1.651-1.23 2.886-2.36 1.495-1.367 4.003.76 4.868-2.315.451-1.604-.803-5.585-3.802-5.738l-.001.001z"
        fill="#000" />
    <path clip-rule="evenodd"
        d="m201.468 62.52-1.784-.212c-.235-.146-.46-.344-.535-.72-.064-.319.096-.849-.481-1.39 0 0-.352-.398.022-.44l1.688-.23.609-1.015c-.737.096-3.377.462-3.377.462l-.598 1.102s1.346.428 1.475 1.164c.107.616-.3.761-.428.864l-3.708-.438-.877.983 4.297.508.961-.919s.407 1.081 1.379 1.196l.46.055s.897-.96.897-.97z"
        fill="#AE0F0A" fill-rule="evenodd" />
    <path
        d="m212.646 63.24.78 1.427.726-1.109-1.656-3.23-3.965-.47-.534 1.056 3.815.44v.496l-4.189-.431-1.689 2.749.705 1.45 1.742-2.883 4.265.505z"
        fill="#AE0F0A" />
    <path
        d="m216.355 64.357-1.774 2.954-.513-.06 2.009-3.53-1.731-3.175-1.443-.17 1.731 3.25-1.956 3.45-1.678-.178.716 1.387 3.474.4 1.881-3.242-.716-1.086z"
        fill="#AE0F0A" />
    <path
        d="m209.311 64.772.759-1.406-1.4-.155-1.806 2.8 1.806 3.517 1.464.141-1.817-3.358.246-.358 2.105 3.79 3.741.443.577-1.094-3.58-.403-2.095-3.917z"
        fill="#AE0F0A" />
    <path clip-rule="evenodd"
        d="M211.459 63.54a1.246 1.246 0 0 0-1.421 1.264c0 .785.641 1.507 1.421 1.6a1.246 1.246 0 0 0 1.421-1.264c0-.785-.641-1.507-1.421-1.6z"
        fill="#73C8D9" fill-rule="evenodd" stroke="#73C8D9" stroke-width=".5" />
    <path clip-rule="evenodd"
        d="M202.578 62.371v-3.519c0-.053-.898.658-.898.658v3.11s.064 1.009 1.346 1.16l.449.054.887-.982-1.507-.178a.301.301 0 0 1-.277-.303zM196.155 57.92l-3.324.446-.673 1.158s1.592.414 1.507 1.308c-.075.734-.417.726-.417.726l-1.453-.172c-.022-.003-.043-.005-.054-.017-.609-.341-.609-.89-.577-1.134.011-.074-.043-.134-.107-.163-.107-.034-.192-.023-.235-.017-.021.008-.043.016-.064.035l-.898 1.045-1.389-.164s-.705.799-.866.985l1.892.223c.203-.212.898-.927 1.069-1.1.021-.019.042-.017.053.017.342.934.855 1.156 1.261 1.376l1.037.123.043.005 1.207-1.353c.481-1.04-.545-1.99-.545-1.99 1.005-.151 1.796-.24 1.903-.25l.63-1.087zM180.113 61.08c.289-.849.492-.125.567.067l3.719.44.951-.975-4.435-.525c.951-1.092-.118-2.155-.118-2.155-.235-.21.118-.245.118-.245s1.368-.203 1.656-.255l.577-1.051c-.128.017-3.366.516-3.366.516s-.673 1.136-.545 1.108c.235-.047 2.415.9.972 1.999l-1.357-.16c-.769-.253-.694-1.148-.694-1.148-.022-.229-.182-.237-.278-.216a.192.192 0 0 0-.118.072l-.972 1.047-1.304-.154-.909.98 1.935.228.962-.973c.213-.244.256.03.256.03.278.765.759 1.026 1.197 1.229l1.186.14z"
        fill="#AE0F0A" fill-rule="evenodd" />
    <path d="m182.974 58.368.568-.504.566.639-.566.503-.568-.638z" fill="#AE0F0A" />
    <path
        d="m183.513 59.33-.567-.627-.556.493.556.637.567-.504.566.638.556-.505-.556-.625-.566.492zM200.06 61.076l.568-.504.566.639-.566.503-.568-.638zM202.427 64.46l.567-.504.566.639-.566.503-.567-.637z"
        fill="#AE0F0A" />
    <path clip-rule="evenodd"
        d="M196.07 57.447c-.085 0-2.864.457-2.864.457l-.15.284 2.939-.427.075-.314zM180.156 56.629l2.789-.423.118-.277c-.086 0-2.811.431-2.811.431l-.096.269zM187.082 58.127c-.128.081-.77.662-.77.662 2.352 1.074 1.155 2.073 1.155 2.073l-1.646-.194-.93.977 2.212.261 1.208-1.288c.641-1.764-1.229-2.492-1.229-2.492zM175.712 57.179l.267-.367-1.186-.14s-.802-.084-1.112.718c0 0-.117.116.257.246s1.368.894.459 1.69l-1.667-.197s-.823-.399-.417-1.223c0 0-.395-.036-.523.175s-.438 1.541 1.101 2.143l1.154.137 1.218-1.277s.321-1.006-.427-1.805c0 0-.225-.23.074-.195l.802.095z"
        fill="#AE0F0A" fill-rule="evenodd" />
    <path
        d="m171.521 62.408.877.103-.364 2.325.535.063.363-2.324.876.103.075-.475-2.287-.27-.075.475z"
        fill="#AE0F0A" />
    <path clip-rule="evenodd"
        d="M176.726 63.358c.042.188.042.381.01.604a1.635 1.635 0 0 1-.192.58c-.096.16-.214.308-.353.42-.139.113-.299.191-.481.245a1.368 1.368 0 0 1-.566.04 1.321 1.321 0 0 1-.534-.17 1.24 1.24 0 0 1-.599-.835 1.605 1.605 0 0 1-.01-.604 1.71 1.71 0 0 1 .192-.58c.096-.172.214-.309.353-.421.149-.112.299-.19.48-.245.182-.053.375-.063.567-.04a1.266 1.266 0 0 1 .919.518c.107.141.182.3.214.488zm-.503.123a1.031 1.031 0 0 0-.128-.327.697.697 0 0 0-.235-.222.844.844 0 0 0-.321-.102.881.881 0 0 0-.342.024.732.732 0 0 0-.288.16c-.086.075-.16.174-.225.285a1.405 1.405 0 0 0-.128.824.83.83 0 0 0 .118.326.697.697 0 0 0 .235.222.844.844 0 0 0 .321.102.881.881 0 0 0 .342-.024.731.731 0 0 0 .288-.16.957.957 0 0 0 .214-.286c.064-.111.107-.246.128-.405.021-.159.021-.299.021-.417z"
        fill="#AE0F0A" fill-rule="evenodd" />
    <path
        d="M179.002 64.434a1.509 1.509 0 0 1-.096.387.69.69 0 0 1-.15.219.483.483 0 0 1-.203.094.985.985 0 0 1-.267 0 .98.98 0 0 1-.256-.062.383.383 0 0 1-.171-.139.533.533 0 0 1-.086-.247 1.8 1.8 0 0 1 .021-.395l.246-1.607-.523-.062-.246 1.607-.032.287a1.283 1.283 0 0 0 .064.567c.032.09.096.162.171.235.075.074.171.128.288.185.118.046.268.086.449.107.225.027.417.017.567-.019a.76.76 0 0 0 .384-.202.838.838 0 0 0 .235-.37c.054-.155.107-.321.129-.523l.246-1.607-.535-.063-.235 1.608z"
        fill="#AE0F0A" />
    <path clip-rule="evenodd"
        d="M182.625 63.711a.824.824 0 0 1 .022.358.73.73 0 0 1-.193.43.743.743 0 0 1-.385.244c.054.05.097.108.139.189.032.068.065.158.086.268l.171.87-.567-.066-.149-.793a.682.682 0 0 0-.054-.157.388.388 0 0 0-.096-.13.435.435 0 0 0-.128-.09.425.425 0 0 0-.16-.052l-.567-.066-.171 1.13-.534-.063.438-2.8 1.272.151c.075.009.149.029.214.036.064.008.128.026.192.044a.886.886 0 0 1 .171.074c.053.039.107.078.15.126a.49.49 0 0 1 .149.297zm-.566.009a.673.673 0 0 0-.353-.128l-.759-.09-.117.74.705.083c.096.011.182.01.246.007a.368.368 0 0 0 .171-.044c.053-.026.085-.065.117-.104a.662.662 0 0 0 .054-.177c.011-.128-.011-.217-.064-.287z"
        fill="#AE0F0A" fill-rule="evenodd" />
    <path
        d="m183.022 66.136.524.063.438-2.8-.524-.063-.438 2.8zM186.408 63.869a.924.924 0 0 0-.31-.21 1.3 1.3 0 0 0-.416-.113c-.15-.018-.3-.014-.428.014a.987.987 0 0 0-.609.358.797.797 0 0 0-.118.621.565.565 0 0 0 .129.242c.064.072.149.136.267.203.107.056.246.116.395.176.139.049.257.084.342.127.096.043.171.074.225.112a.343.343 0 0 1 .117.122c.022.046.022.1.022.153a.458.458 0 0 1-.064.154.333.333 0 0 1-.139.102.731.731 0 0 1-.193.052c-.075.013-.149.004-.235-.006a.89.89 0 0 1-.235-.06.621.621 0 0 1-.192-.12.557.557 0 0 1-.182-.408l-.534-.064c-.011.15 0 .28.042.414a.857.857 0 0 0 .193.335.972.972 0 0 0 .342.245c.139.06.31.112.502.135.16.019.299.014.438-.013.139-.026.257-.077.374-.138a.915.915 0 0 0 .267-.249.857.857 0 0 0 .139-.63.51.51 0 0 0-.107-.227.704.704 0 0 0-.171-.181c-.064-.051-.149-.094-.224-.135a2.326 2.326 0 0 0-.246-.104l-.256-.095a2.58 2.58 0 0 1-.235-.092.657.657 0 0 1-.161-.095.263.263 0 0 1-.085-.096c-.011-.033-.022-.067-.011-.109a.273.273 0 0 1 .171-.216.799.799 0 0 1 .406-.038c.321.038.492.198.513.47l.513.06a.883.883 0 0 0-.053-.383 1.158 1.158 0 0 0-.193-.313zM188.438 65.96l-.352-2.076-.684-.08-.438 2.8.513.06.277-1.797.332 1.87.449.052.887-1.724-.278 1.796.513.061.438-2.8-.684-.08-.973 1.918z"
        fill="#AE0F0A" />
    <path clip-rule="evenodd"
        d="M194.915 65.144c.032.101.043.21.022.326a.82.82 0 0 1-.118.298.728.728 0 0 1-.246.208c.064.04.118.089.16.137.054.06.086.118.107.174.022.056.032.122.043.188 0 .065 0 .14-.011.203-.042.275-.171.475-.374.602-.203.115-.481.158-.844.115l-1.09-.13.438-2.8 1.037.124c.149.017.288.055.406.102a.853.853 0 0 1 .288.184.865.865 0 0 1 .182.27zm-.598 1.285a.24.24 0 0 0-.075-.127c-.043-.026-.096-.065-.171-.085a1.79 1.79 0 0 0-.278-.054l-.513-.06-.118.739.556.066c.364.043.556-.064.599-.306a.497.497 0 0 0 0-.172zm.053-1.145a.204.204 0 0 0-.075-.105.45.45 0 0 0-.149-.072 1.421 1.421 0 0 0-.235-.05l-.471-.055-.096.624.502.06c.161.018.289.012.374-.032.086-.033.139-.113.161-.228a.218.218 0 0 0-.011-.142zM196.979 64.926l.716 2.947-.588-.07-.181-.839-.994-.118-.417.769-.556-.066 1.529-2.682.491.059zm-.149 1.575-.204-.928-.459.85.663.078z"
        fill="#AE0F0A" fill-rule="evenodd" />
    <path
        d="m199.959 67.194-.962-2.018-.502-.06-.439 2.8.513.061.289-1.87.973 2.02.502.059.438-2.8-.513-.061-.299 1.87zM203.892 65.755l-.726-.086-1.358 1.034.182-1.173-.534-.064-.438 2.8.534.064.15-.962.363-.269.716 1.376.684.081-.973-1.783 1.4-1.018z"
        fill="#AE0F0A" />
</svg>
