<svg width="21" height="21" viewBox="0 0 21 21" fill="none" xmlns="http://www.w3.org/2000/svg">
<path fill-rule="evenodd" clip-rule="evenodd" d="M20.666 10.668C20.666 16.1908 16.1889 20.668 10.666 20.668C5.14317 20.668 0.666016 16.1908 0.666016 10.668C0.666016 5.14512 5.14317 0.667969 10.666 0.667969C16.1889 0.667969 20.666 5.14512 20.666 10.668ZM14.6963 7.63764C14.9892 7.93053 14.9892 8.40541 14.6963 8.6983L9.69635 13.6983C9.40345 13.9912 8.92858 13.9912 8.63569 13.6983L6.63569 11.6983C6.34279 11.4054 6.34279 10.9305 6.63569 10.6376C6.92858 10.3447 7.40345 10.3447 7.69635 10.6376L9.16602 12.1073L11.4009 9.87247L13.6357 7.63764C13.9286 7.34475 14.4035 7.34475 14.6963 7.63764Z" fill="#039855"/>
</svg>
