<svg xmlns="http://www.w3.org/2000/svg" width="16" height="16" viewBox="0 0 16 16">
    <path fill="#F9A200" fill-rule="evenodd" d="M8 0c4.418 0 8 3.582 8 8s-3.582 8-8 8-8-3.582-8-8 3.582-8 8-8zm-.467 4.158l-.015.012-.015.012.03-.024-.064.058-3.294 3.368-.063.075c-.186.259-.138.607.13.816l.083.057c.289.166.679.123.912-.116L7.294 6.31v5.058l.007.086c.046.308.342.546.699.546.39 0 .706-.283.706-.632l-.001-5.057 2.058 2.105.074.066c.262.2.655.202.922-.007.293-.23.323-.628.066-.89l-3.294-3.37-.04-.037-.034-.028-.025-.018-.059-.037-.03-.016-.057-.025-.054-.019c-.016-.005-.032-.01-.048-.013l-.04-.009C8.099 4.005 8.05 4 8 4l.024.001.05.003-.021-.002L8.03 4h-.053c-.016 0-.033 0-.05.002-.022.002-.044.005-.064.009l-.038.008c-.02.004-.04.01-.059.015l-.043.016c-.018.006-.036.014-.053.022-.014.006-.027.013-.04.021l-.058.035-.033.024-.006.005z"/>
</svg>
