<?xml version="1.0" encoding="utf-8"?>
<!-- Generator: Adobe Illustrator 24.2.1, SVG Export Plug-In . SVG Version: 6.00 Build 0)  -->
<svg version="1.1" id="Layer_1" xmlns="http://www.w3.org/2000/svg" x="0px" y="0px" viewBox="0 0 740 521" enable-background="new 0 0 740 521" xml:space="preserve">
<g>
	<path fill="#3497FD" d="M61.04,0.63c3.47-0.02,6.91-0.58,10.38-0.61c197.11,0.03,394.21,0,591.33,0.01
		c3.54,0.06,7.12-0.27,10.64,0.36c17.86,0.32,35.16,8.74,47.21,21.8c12.25,13.07,19.25,30.88,19.13,48.81
		c-0.04,10.65-0.01,21.31-0.02,31.97c-118.54-0.01-237.09,0.01-355.63-0.01c-6.43-0.73-12.91-0.34-19.35-0.6
		c-4.53-0.88-9.17-0.01-13.72-0.6c-3.74-0.48-7.51-0.18-11.26-0.4c-14.97-0.95-30.02-1.69-44.98-3.08
		c-16.97-1.18-33.49-5.57-50.31-7.89c-19.05-3.08-38.42-2.8-57.55-0.79c-8.76,1.07-18.31,2.6-24.94,8.95
		c-3.18,2.72-4.21,7.58-2.46,11.35c3.32,5.33,9.39,8.11,15.3,9.46c3.95,1.19,8.12,0.07,12.12,0.98c5.35,0.33,10.76-0.24,16.1,0.48
		c18.31,0.62,36.7-0.3,54.79-3.26c0.91-0.07,1.83-0.14,2.75-0.2c6.04-1.05,12.13-1.85,18.19-2.76c23.54-3.11,47.35-3.73,70.99-5.04
		c9.79-0.15,19.57-0.59,29.34-1.12c120.21,0.02,240.41,0,360.62,0.01c0,9.99,0,19.99,0,29.98c-126.66-0.05-253.32,0.1-379.98-0.07
		c-1.72-0.34-3.46-0.51-5.17-0.8c-3.96-0.31-7.88-0.85-11.82-1.27c-24.57-3.11-49.11-7.19-73.9-7.97
		c-7.82-1.06-15.77,0.27-23.59-0.83c-32.28-0.13-64.56-0.03-96.84-0.05c-8.95,1.04-17.99-0.08-26.94,0.98
		c-9.59,0.07-20.17-0.64-28.42,5.16c-4.56,2.82-8.12,8.73-5.92,14.08c2.27,5.5,8.2,7.92,13.54,9.39c10.69,2.67,21.8,1.68,32.69,1.86
		c12.31,0.99,24.68,0.3,37.02,0.51c13.64,0.2,27.32-0.5,40.93,0.51c22.2-0.09,44.41,0.46,66.54-1.37c4.33-0.2,8.66-0.48,12.97-0.99
		c9.68-0.76,19.32-1.88,28.96-2.99c2.66-0.29,5.32-0.62,7.98-1.01c5.68-0.56,11.34-1.33,17-2.02c0.9-0.09,1.8-0.17,2.71-0.26
		c14.76-2.5,29.75-0.55,44.58-1.87c61.94-0.01,123.89,0.01,185.84-0.01c2.66-0.05,5.29-0.55,7.97-0.5
		c51.28,0.03,102.58,0,153.86,0.01c0,9.82,0,19.66,0,29.48c-106.88,0-213.76,0-320.65,0c-5.88,0.17-11.76-0.2-17.59-0.85
		c-17.92-1.22-35.8-3.08-53.73-4.29c-14.62-1.31-29.28-2.31-43.94-2.98c-23.13-1.46-46.33-2.1-69.53-1.86
		c-13.94-1.01-27.96-0.32-41.93-0.52c-23.29-0.01-46.6,0.03-69.9-0.02c-1.56-0.01-3.12,0.09-4.64,0.41
		c-6.14,0.29-12.3-0.04-18.44,0.16c-9.77,1.17-20.05-0.83-29.4,3.03c-5.78,2.12-11.28,6.86-11.44,13.45
		c0.51,3.39,2.47,6.59,5.47,8.33c6.76,4.24,15.02,5.16,22.84,5.25c9.14,0.87,18.39,0.16,27.57,0.36c16.62,0.98,33.3,0.33,49.95,0.52
		c15.98,0,31.96-0.01,47.95,0c17.31,1.37,34.66-0.2,51.98-0.5c38.16-1.88,76.31-4.59,114.42-7.37c12.78-0.75,25.54-1.49,38.31-2.14
		c55.95,0.02,111.9,0,167.84,0.01c7-0.08,14.01,0.29,20.99-0.48c44.62-0.05,89.24,0,133.86-0.02c0,9.5,0,18.99,0,28.49
		c-105.55,0.01-211.11-0.01-316.66,0.01c-8.86,0.3-17.58-1.56-26.39-2.16c-2.99-0.43-5.98-0.72-8.98-1c-2.99-0.42-5.98-0.72-8.99-1
		c-2.99-0.43-5.99-0.72-8.99-0.99c-6.63-0.84-13.3-1.48-19.97-2.01c-16.59-1.62-33.26-2.59-49.92-2.95
		c-6.39-1.04-12.93,0.17-19.34-0.73c-10.41-0.58-20.87,0.39-31.26-0.66c-42.6-0.02-85.2,0-127.8-0.02c-1.22,0.03-2.43,0.16-3.63,0.4
		c-10.13,0.4-20.29-0.36-30.39,0.62c-6.99-0.35-13.93,0.57-20.92,0.51c-6.85,0.45-14.1,2.35-18.89,7.6
		c-3.6,3.39-4.51,9.7-1.16,13.54c4.65,5.54,12.25,7.06,19.08,7.86c6.96,1.01,14.02-0.05,21,0.87c11.28,0.44,22.61-0.46,33.86,0.59
		c11.99,0.05,23.96-0.04,35.95,0.03c6.64,0.74,13.34,0.42,20.01,0.48c12.66-0.01,25.32,0.01,37.99-0.02
		c13.96,0.97,28.01,0.39,42.01,0.47c7.46-1,15.01,0.05,22.5-0.76c30.65-1.03,61.29-3.03,91.89-5.55c9.6-0.57,19.18-1.56,28.78-2.3
		c2.38-0.33,4.79-0.35,7.18-0.68c14.73-1.8,29.58-1,44.39-1.16c48.28,0.01,96.55-0.02,144.83,0.02c16.27-1.03,32.61-0.3,48.93-0.52
		c31.63,0,63.26,0,94.89,0c0,9,0,17.99,0,26.99c-100.55,0.01-201.1-0.02-301.66,0.02c-5.52,0.15-10.93-1.16-16.4-1.68
		c-2.67-0.38-5.32-0.71-7.99-0.99c-5.97-0.85-11.99-1.33-17.98-2c-3.32-0.48-6.65-0.79-9.98-1c-11.92-1.19-23.85-1.97-35.8-2.49
		c-5.56-0.78-11.21,0.08-16.76-0.72c-6.59-0.46-13.23,0.3-19.8-0.56c-14.7-0.41-29.47,0.5-44.14-0.59
		c-53.94,0.03-107.87,0-161.8,0.01c-3.21,0.04-6.44-0.26-9.59,0.39c-7.78,0.37-15.59-0.31-23.34,0.59
		c-9.26-0.04-19.29-0.55-27.44,4.63c-4.53,2.39-7.83,7.47-7,12.69c0.73,4.37,4.77,6.96,8.4,8.84c6.73,2.92,14.17,3.44,21.42,3.46
		c9.43,1.1,19-0.32,28.44,0.82c9.04,0.19,18.09-0.01,27.13,0.07c15.25,1.31,30.63-0.3,45.89,0.99c18,0.25,36.03-0.53,54.01,0.53
		c18-0.09,36.02,0.09,54.03-0.09c6.87-0.98,13.84,0.05,20.74-0.72c28.22-0.87,56.47-2.21,84.63-4.58
		c5.61-0.12,11.18-0.93,16.78-1.28c3.65-0.46,7.32-0.74,11-0.99c2.99-0.44,5.99-0.74,9-1.01c5.48-0.61,10.96-1.48,16.46-1.84
		c54.64-0.03,109.27,0,163.91-0.02c9.61-0.9,19.28-0.34,28.92-0.49c36.32,0,72.63,0,108.94,0c-0.01,9.49,0.01,19-0.01,28.49
		c-106.21-0.02-212.43,0-318.65-0.01c-2.88-0.05-5.72-0.47-8.57-0.85c-4.28-0.42-8.55-0.88-12.83-1.3c-2.99-0.42-5.98-0.72-8.98-1
		c-2.99-0.42-5.99-0.72-8.99-1c-6.31-0.76-12.64-1.42-18.97-2c-3.65-0.5-7.3-0.81-10.97-0.99c-9.3-0.95-18.63-1.61-27.97-1.99
		c-7.63-0.62-15.31-0.85-22.97-0.98c-6.4-1.03-12.94,0.18-19.35-0.72c-8.52-0.47-17.07,0.09-25.6-0.28c-2.5-0.53-5.05-0.41-7.58-0.4
		c-42.98,0.06-85.97-0.06-128.95,0.06c-10.21,1.15-20.52-0.22-30.73,0.86c-4.91,0.41-9.9-0.41-14.76,0.49
		c-7.41-0.07-15.26,0.08-21.78,4.1c-3.94,2.5-8.07,6.41-7.62,11.5c-0.3,3.42,2.12,6.25,4.66,8.19c5.43,3.86,12.23,5.12,18.76,5.47
		c6.42,0.85,12.95-0.2,19.38,0.75c9.05,0.2,18.1,0.02,27.15,0.07c13.62,1.02,27.31,0.31,40.96,0.49c23.6,1.36,47.32-0.34,70.92,1.04
		c9.69-0.08,19.38,0.07,29.07-0.07c7.79-1.02,15.68,0.07,23.48-0.76c26.98-0.9,53.96-2.48,80.9-4.54c8.66-0.58,17.32-1.23,25.97-2
		c4-0.28,7.99-0.52,11.98-1c8.45-0.57,16.87-1.49,25.32-2.14c55.64-0.02,111.28-0.02,166.92,0c13.6-0.99,27.27-0.32,40.9-0.51
		c36.3,0,72.59,0,108.89,0c0,9,0,17.99,0,26.99c-108.55,0.01-217.1-0.01-325.65,0.01c-3.48-0.04-6.91-0.55-10.38-0.66
		c-2.4-0.35-4.81-0.36-7.2-0.7c-46.52-3.41-93.07-6.91-139.67-8.33c-7.64-0.83-15.35,0.12-22.99-0.52c-3.5-0.46-7.03-0.29-10.54-0.3
		c-31.3,0-62.59,0-93.88,0c-10-0.21-19.95,0.86-29.96,0.51c-9.33,1.15-18.99-0.68-28.04,2.48c-5.4,1.95-11.35,5.51-12.5,11.61
		c-1.46,5,2.58,9.54,6.71,11.73c6.11,2.94,12.98,4.18,19.73,4.16c11.34,0.9,22.72,0.35,34.09,0.47c17.92,1.04,35.9,0.3,53.85,0.52
		c17.31,0.21,34.66-0.51,51.94,0.52c16.53-0.15,33.12,0.43,49.6-0.92c6.66-0.18,13.35-0.42,19.98-0.97c4.99-0.26,10-0.45,14.97-1
		c9.34-0.43,18.66-1.24,27.98-1.98c22.19-1.55,44.34-3.64,66.55-4.97c12.56-1.02,25.15-0.61,37.74-0.68c45.28,0,90.56,0,135.84,0
		c3.2-0.04,6.43,0.25,9.6-0.39c50.73-0.27,101.48-0.03,152.21-0.12c0.02,9.49,0,19,0.01,28.49c-125.88,0-251.77,0-377.65,0
		c-9.84,0.33-19.56-1.65-29.31-2.65c-4.05-0.56-8.1-1.05-12.13-1.7c-3.29-0.44-6.56-0.98-9.87-1.3c-8.61-1.24-17.27-2.31-25.94-3.01
		c-9.21-0.84-18.45-1.47-27.7-1.39c-5.62-0.69-11.3-0.41-16.95-0.45c-29.28,0-58.55,0-87.82,0c-3.66,0.01-7.31-0.16-10.95,0.3
		c-6.51,0.68-13.12-0.4-19.6,0.59c-7.92,0.3-16.13-0.63-23.66,2.43c-5.27,1.87-10.37,5.95-11.59,11.65
		c-0.85,4.1,1.94,7.92,5.07,10.25c6.77,4.23,14.99,5.24,22.82,5.32c13.6,1.18,27.31-0.33,40.9,0.93c29.98,0.02,59.95,0,89.93,0.01
		c6.51-0.23,13.1,0.49,19.57-0.39c5.66-0.08,11.34-0.27,16.96-0.97c10.02-0.61,20-1.79,29.97-2.99c2.66-0.28,5.32-0.62,7.97-1
		c2.67-0.27,5.33-0.62,7.99-1c5.68-0.55,11.34-1.35,17-2c3.01-0.28,6.01-0.56,9-1.06c13.78-0.44,27.61,0.48,41.36-0.6
		c59.25,0.02,118.52,0.01,177.77,0.01c6.62-0.07,13.28,0.29,19.88-0.48c48.98-0.06,97.96,0.01,146.94-0.04
		c0.04,10.16,0.01,20.34,0.02,30.5c-105.88,0-211.78,0-317.66,0c-18.78-0.08-37.57,0.33-56.32-0.6c-7.63-0.63-15.31-0.81-22.97-1.01
		c-20.01-1.16-40.11-2.12-60.04-4.55c-11.01-1.7-21.99-3.62-33.01-5.19c-3.62-0.5-7.22-0.97-10.85-1.31
		c-5.18-0.72-10.41-0.89-15.63-0.9c-8.97-1.29-17.94,0.53-26.93,0.05c-6.8,0.66-13.63,0.31-20.42,1.08
		c-6.32,1.64-13.33,4.38-16.41,10.57c-2.6,4.77-0.62,10.9,3.49,14.14c6.62,5.52,15.38,7.57,23.78,8.36c3.3,0.52,6.62,0.85,9.97,0.99
		c17.72,1.65,35.69,0.68,53.15-2.8c11.1-2.1,22.19-4.24,33.25-6.47c14.18-1.7,28.45-2.65,42.67-3.76
		c21.12-1.2,42.23-1.95,63.36-2.63c116.85,0.03,233.71,0,350.57,0.01c-0.3,13.8,0.66,27.66-0.61,41.41
		c-3.06,23.45-18.55,45.01-40.18,54.72c-7.36,3.81-15.6,5.31-23.74,6.23c-201.9,0.23-403.79,0.01-605.69,0.11
		c-14.5-0.03-28.98-4.7-40.59-13.43C11.59,495.3,0.93,474.5,0.13,453.19C-0.14,326.13,0.11,199.06,0.01,72
		c0.07-17.11,5.71-34.39,17.1-47.34C28.05,11.49,44.02,2.71,61.04,0.63"/>
</g>
</svg>
