<svg width="229" height="36" viewBox="0 0 229 36" fill="none" xmlns="http://www.w3.org/2000/svg">
<g clip-path="url(#clip0_9665_1808)">
<path d="M18.1794 29.4697C24.5773 29.4697 29.7638 24.3341 29.7638 17.999C29.7638 11.6638 24.5773 6.5282 18.1794 6.5282C11.7815 6.5282 6.59497 11.6638 6.59497 17.999C6.59497 24.3341 11.7815 29.4697 18.1794 29.4697Z" fill="white"/>
<path d="M36.3546 17.999C36.3546 13.2253 34.4395 8.64724 31.0306 5.27178C27.6217 1.89631 22.9982 0 18.1773 0C13.3564 0 8.73293 1.89631 5.32402 5.27178C1.91511 8.64724 9.74416e-06 13.2253 9.74416e-06 17.999C-0.000913832 18.8761 0.063818 19.7521 0.193673 20.6197C0.862094 25.1176 3.22469 29.1983 6.80681 32.0421C10.3889 34.886 14.9252 36.2822 19.5042 35.9503C24.0833 35.6185 28.3659 33.5831 31.4916 30.2531C34.6174 26.9231 36.3547 22.5452 36.3546 17.999ZM5.97651 20.6197C5.79006 19.7577 5.69652 18.8785 5.69747 17.9969C5.69804 17.1569 5.78314 16.319 5.95152 15.4957C6.5911 12.5038 8.32714 9.85247 10.8247 8.05332C13.3222 6.25418 16.4041 5.43474 19.4759 5.75312C22.5476 6.0715 25.3914 7.50515 27.4585 9.77741C29.5256 12.0497 30.6695 14.9995 30.6695 18.0577C30.6695 21.116 29.5256 24.0658 27.4585 26.3381C25.3914 28.6103 22.5476 30.044 19.4759 30.3624C16.4041 30.6807 13.3222 29.8613 10.8247 28.0621C8.32714 26.263 6.5911 23.6117 5.95152 20.6197H5.97651Z" fill="#ED2027"/>
<path d="M30.778 17.9948C30.778 15.5261 30.0386 13.1129 28.6534 11.0603C27.2682 9.00766 25.2993 7.40793 22.9958 6.46338C20.6924 5.51884 18.1578 5.27191 15.7126 5.75383C13.2674 6.23575 11.0214 7.42487 9.25875 9.1708C7.49611 10.9167 6.29594 13.141 5.81005 15.5624C5.32417 17.9838 5.57438 20.4935 6.52905 22.774C7.48371 25.0546 9.09995 27.0036 11.1733 28.3745C13.2467 29.7455 15.6842 30.4768 18.1773 30.476C21.5196 30.4749 24.7246 29.1594 27.0876 26.8189C29.4505 24.4783 30.778 21.3043 30.778 17.9948ZM9.50203 17.9948C9.55172 15.7497 10.4873 13.6131 12.1085 12.0427C13.7296 10.4722 15.9073 9.59286 18.1752 9.59286C20.4432 9.59286 22.6209 10.4722 24.242 12.0427C25.8632 13.6131 26.7988 15.7497 26.8485 17.9948" fill="#1ECAD3"/>
<path d="M18.1082 23.7793C21.2963 23.7793 23.8807 21.2202 23.8807 18.0635C23.8807 14.9067 21.2963 12.3477 18.1082 12.3477C14.9202 12.3477 12.3358 14.9067 12.3358 18.0635C12.3358 21.2202 14.9202 23.7793 18.1082 23.7793Z" fill="#ED2027"/>
<path d="M114.228 0.00225405H126.868C128.327 -0.00748744 129.773 0.279554 131.116 0.845601C132.377 1.36816 133.545 2.08957 134.573 2.98181C135.578 3.87438 136.372 4.9755 136.899 6.20673C137.469 7.52799 137.758 8.95161 137.746 10.3884C137.762 11.7356 137.521 13.0736 137.038 14.333C136.573 15.5178 135.911 16.6174 135.081 17.5868C136.803 19.5468 137.748 22.0593 137.74 24.6573C137.735 26.1754 137.448 27.6795 136.893 29.0946C136.384 30.4573 135.591 31.6987 134.566 32.7382C133.569 33.7188 132.397 34.5081 131.11 35.0661C129.771 35.6494 128.324 35.9452 126.862 35.9342H113.938C112.915 35.9181 111.931 35.54 111.164 34.8682C110.809 34.5114 110.528 34.0882 110.339 33.623C110.15 33.1579 110.056 32.6601 110.063 32.1587V3.71381C110.075 3.15328 110.247 2.60767 110.56 2.14052C110.751 1.77491 111 1.44211 111.298 1.1549C111.889 0.492625 112.714 0.0800731 113.603 0.00225405H114.228ZM126.862 14.0237C127.314 14.033 127.763 13.9503 128.182 13.7808C128.601 13.6113 128.98 13.3585 129.296 13.0381C129.629 12.7175 129.891 12.3322 130.067 11.9064C130.243 11.4806 130.327 11.0235 130.316 10.5637C130.327 10.119 130.244 9.67695 130.073 9.26579C129.902 8.85463 129.645 8.48342 129.321 8.17592C129.002 7.85945 128.622 7.60925 128.204 7.44C127.786 7.27075 127.338 7.18586 126.887 7.19029H117.559V14.0402L126.862 14.0237ZM126.862 28.4431C127.313 28.4487 127.762 28.3643 128.18 28.195C128.598 28.0257 128.978 27.7748 129.296 27.4574C129.663 27.052 129.943 26.5767 130.119 26.0605C130.294 25.5443 130.361 24.998 130.316 24.4552C130.361 23.9124 130.294 23.3661 130.119 22.8499C129.943 22.3337 129.663 21.8584 129.296 21.453C128.977 21.1362 128.597 20.8858 128.179 20.7166C127.761 20.5473 127.313 20.4626 126.862 20.4673H117.559V28.4575L126.862 28.4431Z" fill="#ED2027"/>
<path d="M154.525 0.0772721C156.308 0.0734091 158.075 0.407986 159.731 1.0629C161.351 1.6916 162.833 2.62577 164.093 3.81357C165.345 5.00832 166.359 6.42545 167.082 7.99113C167.841 9.62895 168.227 11.4121 168.212 13.2141V32.1162C168.218 32.5844 168.129 33.049 167.95 33.4825C167.771 33.916 167.506 34.3096 167.171 34.6401C166.837 34.9861 166.437 35.2635 165.994 35.4563C165.551 35.6491 165.075 35.7536 164.591 35.7639C163.618 35.7804 162.676 35.4278 161.957 34.7782C161.6 34.468 161.316 34.0835 161.127 33.6522C160.938 33.2208 160.847 32.7534 160.862 32.2832V25.72H148.232V32.1307C148.233 32.6113 148.132 33.0868 147.937 33.5267C147.741 33.9666 147.455 34.3613 147.097 34.6854C146.759 35.0322 146.355 35.308 145.907 35.4961C145.459 35.6843 144.978 35.781 144.492 35.7803C143.525 35.7853 142.593 35.4238 141.887 34.77C141.526 34.4653 141.237 34.0856 141.041 33.658C140.845 33.2304 140.746 32.7652 140.752 32.2956V13.6533C140.778 11.8442 141.154 10.0567 141.857 8.38703C142.536 6.77813 143.517 5.312 144.75 4.06719C146.025 2.78607 147.548 1.77249 149.227 1.08697C150.907 0.401451 152.708 0.0580509 154.525 0.0772721ZM160.859 13.6574C160.863 12.8079 160.694 11.9664 160.362 11.1831C160.05 10.4401 159.587 9.76844 159.002 9.20975C158.406 8.6441 157.715 8.1869 156.959 7.85916C156.163 7.52282 155.305 7.35495 154.439 7.36635C153.62 7.36958 152.811 7.53723 152.059 7.85916C151.323 8.15646 150.648 8.58408 150.066 9.12109C149.488 9.65854 149.026 10.3058 148.707 11.0243C148.371 11.7652 148.201 12.5692 148.209 13.3811V18.4206H160.859V13.6574Z" fill="#ED2027"/>
<path d="M184.938 0.251563C186.721 0.2477 188.489 0.582277 190.144 1.23719C191.766 1.8623 193.248 2.79533 194.507 3.98374C195.76 5.17909 196.774 6.59781 197.495 8.16542C198.259 9.79959 198.645 11.5817 198.626 13.3822V32.2885C198.633 32.7569 198.544 33.2218 198.365 33.6555C198.187 34.0892 197.921 34.4827 197.585 34.8123C197.253 35.1593 196.854 35.4374 196.412 35.6303C195.97 35.8233 195.494 35.9272 195.011 35.9361C194.038 35.9526 193.096 35.6 192.377 34.9505C192.018 34.641 191.733 34.2568 191.542 33.8255C191.351 33.3942 191.258 32.9263 191.271 32.4555V13.809C191.271 12.9705 191.102 12.1404 190.773 11.3677C190.462 10.6251 189.999 9.95411 189.414 9.39642C188.82 8.82937 188.128 8.37321 187.371 8.04995C186.598 7.7199 185.766 7.54726 184.924 7.5423C184.082 7.53734 183.248 7.70017 182.471 8.02108C181.737 8.32262 181.062 8.74978 180.478 9.28301C179.899 9.8217 179.436 10.4713 179.118 11.1924C178.782 11.9331 178.612 12.7372 178.62 13.5492V32.2885C178.621 32.7691 178.521 33.2446 178.325 33.6845C178.13 34.1244 177.844 34.5191 177.486 34.8432C177.147 35.188 176.742 35.4621 176.294 35.6494C175.847 35.8368 175.366 35.9335 174.88 35.934C173.915 35.9478 172.982 35.5951 172.271 34.9484C171.91 34.6441 171.621 34.2645 171.426 33.8367C171.23 33.4089 171.133 32.9435 171.14 32.474V13.809C171.167 11.9974 171.543 10.2076 172.25 8.53657C173.283 6.05246 175.047 3.93352 177.313 2.45523C179.578 0.976945 182.24 0.207678 184.953 0.247439L184.938 0.251563Z" fill="#ED2027"/>
<path d="M227.863 29.5448C228.225 29.8885 228.512 30.302 228.707 30.7599C228.901 31.2177 228.999 31.7102 228.994 32.2068C228.995 32.7119 228.896 33.2123 228.702 33.6793C228.508 34.1464 228.223 34.5709 227.863 34.9286C227.507 35.2741 227.086 35.5465 226.623 35.7301C226.161 35.9138 225.666 36.0051 225.168 35.9988C224.148 36.0051 223.164 35.6236 222.419 34.9328L209.221 23.3733V32.178C209.232 32.6741 209.139 33.167 208.949 33.6261C208.759 34.0852 208.475 34.5005 208.115 34.8461C207.381 35.5514 206.399 35.9459 205.376 35.9459C204.353 35.9459 203.371 35.5514 202.637 34.8461C202.271 34.505 201.981 34.0921 201.785 33.6337C201.59 33.1753 201.493 32.6816 201.502 32.1841V3.89799C201.498 3.40547 201.597 2.91754 201.793 2.46454C201.988 2.01155 202.275 1.60318 202.637 1.26485C202.995 0.906805 203.422 0.622625 203.892 0.428694C204.362 0.234763 204.867 0.134918 205.376 0.134918C205.885 0.134918 206.39 0.234763 206.86 0.428694C207.33 0.622625 207.757 0.906805 208.115 1.26485C208.468 1.60876 208.748 2.01949 208.937 2.47257C209.126 2.92566 209.221 3.41182 209.217 3.90211V12.7088L222.419 1.26897C222.781 0.910927 223.211 0.627295 223.683 0.434423C224.156 0.241551 224.663 0.143252 225.174 0.145194C225.677 0.140519 226.175 0.237818 226.638 0.431093C227.101 0.624367 227.519 0.90952 227.867 1.26897C228.232 1.61442 228.521 2.03088 228.715 2.49219C228.91 2.9535 229.006 3.44967 228.998 3.94953C229.002 4.44703 228.904 4.94022 228.71 5.39898C228.516 5.85774 228.229 6.27243 227.867 6.61773L214.602 18.0555L227.863 29.5448Z" fill="#ED2027"/>
<path d="M68.0828 0.00495831C68.5942 -0.00644635 69.1024 0.0871495 69.5755 0.279849C70.0486 0.472549 70.4763 0.760176 70.8315 1.12461C71.1877 1.47859 71.4686 1.8996 71.6578 2.36281C71.847 2.82603 71.9406 3.32206 71.9331 3.82167C71.9476 4.32158 71.8572 4.81903 71.6676 5.28256C71.478 5.74609 71.1933 6.16562 70.8315 6.51461C70.4685 6.86516 70.0383 7.1401 69.5662 7.3232C69.094 7.5063 68.5896 7.59384 68.0828 7.58065H61.7543V32.0563C61.7681 32.5582 61.6799 33.0578 61.495 33.5254C61.3101 33.9929 61.0321 34.4189 60.6777 34.7781C59.9486 35.4775 58.9733 35.8686 57.9581 35.8686C56.943 35.8686 55.9676 35.4775 55.2385 34.7781C54.8807 34.4205 54.5993 33.9952 54.4111 33.5275C54.223 33.0599 54.1318 32.5595 54.1431 32.0563V7.57653H47.7397C47.2423 7.5867 46.7479 7.49755 46.286 7.3144C45.8241 7.13124 45.4042 6.85783 45.0514 6.51049C44.6881 6.16239 44.4022 5.74312 44.2118 5.27944C44.0214 4.81576 43.9307 4.31787 43.9456 3.81755C43.9378 3.31754 44.0317 2.82108 44.2217 2.35774C44.4116 1.89439 44.6938 1.47363 45.0514 1.12049C45.397 0.760262 45.8144 0.475089 46.2772 0.283056C46.74 0.0910233 47.238 -0.0036783 47.7397 0.00495831H68.0828Z" fill="#ED2027"/>
<path d="M70.9116 18.0309C70.9103 21.5727 71.9699 25.0354 73.9563 27.9809C75.9427 30.9264 78.7667 33.2225 82.071 34.5786C85.3754 35.9348 89.0117 36.2902 92.52 35.5998C96.0284 34.9094 99.2512 33.2043 101.781 30.7001C104.31 28.1959 106.033 25.0052 106.731 21.5314C107.429 18.0576 107.071 14.4569 105.702 11.1847C104.333 7.91242 102.015 5.11563 99.041 3.14805C96.0668 1.18047 92.57 0.130482 88.9931 0.13089C84.1985 0.131436 79.6003 2.01737 76.2096 5.37403C72.8189 8.73069 70.9132 13.2833 70.9116 18.0309ZM88.9952 9.05511C91.3394 9.14134 93.5586 10.1241 95.1863 11.7968C96.814 13.4695 97.7234 15.7019 97.7234 18.0247C97.7234 20.3475 96.814 22.5799 95.1863 24.2526C93.5586 25.9253 91.3394 26.9081 88.9952 26.9943V9.05511Z" fill="#ED2027"/>
<path d="M88.9964 28.4775C91.7694 28.4389 94.4157 27.3211 96.3629 25.3657C98.3101 23.4103 99.4018 20.7745 99.4018 18.0284C99.4018 15.2823 98.3101 12.6466 96.3629 10.6912C94.4157 8.7358 91.7694 7.61795 88.9964 7.57938" fill="#1ECAD3"/>
</g>
<defs>
<clipPath id="clip0_9665_1808">
<rect width="229" height="36" fill="white"/>
</clipPath>
</defs>
</svg>
